solid Milk Strap B_1_a_5-24-13
facet normal 0.0 0.0 -1.0
   outer loop
      vertex 518.99440276546 -751.303213156157 0.0
      vertex 518.99440276546 -757.877216901761 0.0
      vertex 518.561660759331 -754.590215028959 0.0
   endloop
endfacet
facet normal 0.0 0.0 -1.0
   outer loop
      vertex 518.99440276546 -757.877216901761 0.0
      vertex 518.99440276546 -751.303213156157 0.0
      vertex 520.263138131269 -748.240215028959 0.0
   endloop
endfacet
facet normal 0.0 0.0 -1.0
   outer loop
      vertex 518.99440276546 -757.877216901761 0.0
      vertex 520.263138131269 -748.240215028959 0.0
      vertex 520.263138131269 -760.940215028959 0.0
   endloop
endfacet
facet normal 0.0 0.0 -1.0
   outer loop
      vertex 520.263138131269 -760.940215028959 0.0
      vertex 520.263138131269 -748.240215028959 0.0
      vertex 522.281404638262 -745.60995890789 0.0
   endloop
endfacet
facet normal 0.0 0.0 -1.0
   outer loop
      vertex 520.263138131269 -760.940215028959 0.0
      vertex 522.281404638262 -745.60995890789 0.0
      vertex 522.281404638262 -763.570471150028 0.0
   endloop
endfacet
facet normal 0.0 0.0 -1.0
   outer loop
      vertex 522.281404638262 -763.570471150028 0.0
      vertex 522.281404638262 -745.60995890789 0.0
      vertex 524.911660759331 -743.591692400897 0.0
   endloop
endfacet
facet normal 0.0 0.0 -1.0
   outer loop
      vertex 522.281404638262 -763.570471150028 0.0
      vertex 524.911660759331 -743.591692400897 0.0
      vertex 524.911660759331 -765.588737657022 0.0
   endloop
endfacet
facet normal 0.0 0.0 -1.0
   outer loop
      vertex 524.911660759331 -765.588737657022 0.0
      vertex 524.911660759331 -743.591692400897 0.0
      vertex 527.974658886529 -742.322957035088 0.0
   endloop
endfacet
facet normal 0.0 0.0 -1.0
   outer loop
      vertex 524.911660759331 -765.588737657022 0.0
      vertex 527.974658886529 -742.322957035088 0.0
      vertex 526.892611140601 -754.590215028959 0.0
   endloop
endfacet
facet normal 0.0 0.0 -1.0
   outer loop
      vertex 526.892611140601 -754.590215028959 0.0
      vertex 527.974658886529 -742.322957035088 0.0
      vertex 527.041482896261 -753.459421778634 0.0
   endloop
endfacet
facet normal 0.0 0.0 -1.0
   outer loop
      vertex 527.041482896261 -753.459421778634 0.0
      vertex 527.974658886529 -742.322957035088 0.0
      vertex 527.477952799116 -752.405690219594 0.0
   endloop
endfacet
facet normal 0.0 0.0 -1.0
   outer loop
      vertex 527.477952799116 -752.405690219594 0.0
      vertex 527.974658886529 -742.322957035088 0.0
      vertex 528.172276146587 -751.500830416214 0.0
   endloop
endfacet
facet normal 0.0 0.0 -1.0
   outer loop
      vertex 528.172276146587 -751.500830416214 0.0
      vertex 527.974658886529 -742.322957035088 0.0
      vertex 531.261660759331 -741.890215028959 0.0
   endloop
endfacet
facet normal 0.0 0.0 -1.0
   outer loop
      vertex 528.172276146587 -751.500830416214 0.0
      vertex 531.261660759331 -741.890215028959 0.0
      vertex 529.077135949966 -750.806507068744 0.0
   endloop
endfacet
facet normal 0.0 0.0 -1.0
   outer loop
      vertex 529.077135949966 -750.806507068744 0.0
      vertex 531.261660759331 -741.890215028959 0.0
      vertex 530.130867509006 -750.370037165889 0.0
   endloop
endfacet
facet normal 0.0 0.0 -1.0
   outer loop
      vertex 530.130867509006 -750.370037165889 0.0
      vertex 531.261660759331 -741.890215028959 0.0
      vertex 531.261660759331 -750.221165410229 0.0
   endloop
endfacet
facet normal 0.0 0.0 -1.0
   outer loop
      vertex 531.261660759331 -750.221165410229 0.0
      vertex 531.261660759331 -741.890215028959 0.0
      vertex 534.548662632133 -742.322957035088 0.0
   endloop
endfacet
facet normal 0.0 0.0 -1.0
   outer loop
      vertex 531.261660759331 -750.221165410229 0.0
      vertex 534.548662632133 -742.322957035088 0.0
      vertex 532.392454009657 -750.370037165889 0.0
   endloop
endfacet
facet normal 0.0 0.0 -1.0
   outer loop
      vertex 532.392454009657 -750.370037165889 0.0
      vertex 534.548662632133 -742.322957035088 0.0
      vertex 533.446185568696 -750.806507068744 0.0
   endloop
endfacet
facet normal 0.0 0.0 -1.0
   outer loop
      vertex 533.446185568696 -750.806507068744 0.0
      vertex 534.548662632133 -742.322957035088 0.0
      vertex 534.351045372076 -751.500830416214 0.0
   endloop
endfacet
facet normal 0.0 0.0 -1.0
   outer loop
      vertex 534.351045372076 -751.500830416214 0.0
      vertex 534.548662632133 -742.322957035088 0.0
      vertex 535.045368719546 -752.405690219594 0.0
   endloop
endfacet
facet normal 0.0 0.0 -1.0
   outer loop
      vertex 535.045368719546 -752.405690219594 0.0
      vertex 534.548662632133 -742.322957035088 0.0
      vertex 537.611660759331 -743.591692400897 0.0
   endloop
endfacet
facet normal 0.0 0.0 -1.0
   outer loop
      vertex 535.045368719546 -752.405690219594 0.0
      vertex 537.611660759331 -743.591692400897 0.0
      vertex 535.481838622401 -753.459421778634 0.0
   endloop
endfacet
facet normal 0.0 0.0 -1.0
   outer loop
      vertex 535.481838622401 -753.459421778634 0.0
      vertex 537.611660759331 -743.591692400897 0.0
      vertex 535.630710378062 -754.590215028959 0.0
   endloop
endfacet
facet normal 0.0 0.0 -1.0
   outer loop
      vertex 526.892611140601 -754.590215028959 0.0
      vertex 527.974658886529 -766.85747302283 0.0
      vertex 524.911660759331 -765.588737657022 0.0
   endloop
endfacet
facet normal 0.0 0.0 -1.0
   outer loop
      vertex 527.974658886529 -766.85747302283 0.0
      vertex 526.892611140601 -754.590215028959 0.0
      vertex 527.041482896261 -755.721008279285 0.0
   endloop
endfacet
facet normal 0.0 0.0 -1.0
   outer loop
      vertex 527.974658886529 -766.85747302283 0.0
      vertex 527.041482896261 -755.721008279285 0.0
      vertex 527.477952799116 -756.774739838324 0.0
   endloop
endfacet
facet normal 0.0 0.0 -1.0
   outer loop
      vertex 527.974658886529 -766.85747302283 0.0
      vertex 527.477952799116 -756.774739838324 0.0
      vertex 528.172276146587 -757.679599641704 0.0
   endloop
endfacet
facet normal 0.0 0.0 -1.0
   outer loop
      vertex 527.974658886529 -766.85747302283 0.0
      vertex 528.172276146587 -757.679599641704 0.0
      vertex 531.261660759331 -767.290215028959 0.0
   endloop
endfacet
facet normal 0.0 0.0 -1.0
   outer loop
      vertex 531.261660759331 -767.290215028959 0.0
      vertex 528.172276146587 -757.679599641704 0.0
      vertex 529.077135949966 -758.373922989174 0.0
   endloop
endfacet
facet normal 0.0 0.0 -1.0
   outer loop
      vertex 531.261660759331 -767.290215028959 0.0
      vertex 529.077135949966 -758.373922989174 0.0
      vertex 530.130867509006 -758.810392892029 0.0
   endloop
endfacet
facet normal 0.0 0.0 -1.0
   outer loop
      vertex 531.261660759331 -767.290215028959 0.0
      vertex 530.130867509006 -758.810392892029 0.0
      vertex 531.261660759331 -758.959264647689 0.0
   endloop
endfacet
facet normal 0.0 0.0 -1.0
   outer loop
      vertex 531.261660759331 -767.290215028959 0.0
      vertex 531.261660759331 -758.959264647689 0.0
      vertex 532.392454009657 -758.810392892029 0.0
   endloop
endfacet
facet normal 0.0 0.0 -1.0
   outer loop
      vertex 531.261660759331 -767.290215028959 0.0
      vertex 532.392454009657 -758.810392892029 0.0
      vertex 534.548662632133 -766.85747302283 0.0
   endloop
endfacet
facet normal 0.0 0.0 -1.0
   outer loop
      vertex 534.548662632133 -766.85747302283 0.0
      vertex 532.392454009657 -758.810392892029 0.0
      vertex 533.446185568696 -758.373922989174 0.0
   endloop
endfacet
facet normal 0.0 0.0 -1.0
   outer loop
      vertex 534.548662632133 -766.85747302283 0.0
      vertex 533.446185568696 -758.373922989174 0.0
      vertex 534.351045372076 -757.679599641704 0.0
   endloop
endfacet
facet normal 0.0 0.0 -1.0
   outer loop
      vertex 534.548662632133 -766.85747302283 0.0
      vertex 534.351045372076 -757.679599641704 0.0
      vertex 535.045368719546 -756.774739838324 0.0
   endloop
endfacet
facet normal 0.0 0.0 -1.0
   outer loop
      vertex 534.548662632133 -766.85747302283 0.0
      vertex 535.045368719546 -756.774739838324 0.0
      vertex 537.611660759331 -765.588737657022 0.0
   endloop
endfacet
facet normal 0.0 0.0 -1.0
   outer loop
      vertex 537.611660759331 -765.588737657022 0.0
      vertex 535.045368719546 -756.774739838324 0.0
      vertex 535.481838622401 -755.721008279285 0.0
   endloop
endfacet
facet normal 0.0 0.0 -1.0
   outer loop
      vertex 537.611660759331 -765.588737657022 0.0
      vertex 535.481838622401 -755.721008279285 0.0
      vertex 535.630710378062 -754.590215028959 0.0
   endloop
endfacet
facet normal 0.0 0.0 -1.0
   outer loop
      vertex 537.611660759331 -765.588737657022 0.0
      vertex 535.630710378062 -754.590215028959 0.0
      vertex 537.611660759331 -743.591692400897 0.0
   endloop
endfacet
facet normal 0.0 0.0 -1.0
   outer loop
      vertex 537.611660759331 -765.588737657022 0.0
      vertex 537.611660759331 -743.591692400897 0.0
      vertex 540.2419168804 -745.60995890789 0.0
   endloop
endfacet
facet normal 0.0 0.0 -1.0
   outer loop
      vertex 537.611660759331 -765.588737657022 0.0
      vertex 540.2419168804 -745.60995890789 0.0
      vertex 540.2419168804 -763.570471150028 0.0
   endloop
endfacet
facet normal 0.0 0.0 -1.0
   outer loop
      vertex 540.2419168804 -763.570471150028 0.0
      vertex 540.2419168804 -745.60995890789 0.0
      vertex 542.260183387394 -748.240215028959 0.0
   endloop
endfacet
facet normal 0.0 0.0 -1.0
   outer loop
      vertex 540.2419168804 -763.570471150028 0.0
      vertex 542.260183387394 -748.240215028959 0.0
      vertex 542.260183387394 -760.940215028959 0.0
   endloop
endfacet
facet normal 0.0 0.0 -1.0
   outer loop
      vertex 542.260183387394 -760.940215028959 0.0
      vertex 542.260183387394 -748.240215028959 0.0
      vertex 543.528918753202 -751.303213156157 0.0
   endloop
endfacet
facet normal 0.0 0.0 -1.0
   outer loop
      vertex 542.260183387394 -760.940215028959 0.0
      vertex 543.528918753202 -751.303213156157 0.0
      vertex 543.528918753202 -757.877216901761 0.0
   endloop
endfacet
facet normal 0.0 0.0 -1.0
   outer loop
      vertex 543.528918753202 -757.877216901761 0.0
      vertex 543.528918753202 -751.303213156157 0.0
      vertex 543.961660759331 -754.590215028959 0.0
   endloop
endfacet
facet normal -0.499999999999999 0.86602540378444 0.0
   outer loop
      vertex 524.911660759331 -743.591692400897 4.7625
      vertex 527.974658886529 -742.322957035088 0.0
      vertex 524.911660759331 -743.591692400897 0.0
   endloop
endfacet
facet normal -0.499999999999999 0.86602540378444 0.0
   outer loop
      vertex 527.974658886529 -742.322957035088 0.0
      vertex 524.911660759331 -743.591692400897 4.7625
      vertex 527.974658886529 -742.322957035088 4.7625
   endloop
endfacet
facet normal -0.707106781186548 0.707106781186548 0.0
   outer loop
      vertex 522.281404638262 -745.60995890789 4.7625
      vertex 524.911660759331 -743.591692400897 0.0
      vertex 522.281404638262 -745.60995890789 0.0
   endloop
endfacet
facet normal -0.707106781186548 0.707106781186548 0.0
   outer loop
      vertex 524.911660759331 -743.591692400897 0.0
      vertex 522.281404638262 -745.60995890789 4.7625
      vertex 524.911660759331 -743.591692400897 4.7625
   endloop
endfacet
facet normal -0.707106781186548 0.707106781186548 0.0
   outer loop
      vertex 522.281404638262 -745.60995890789 4.7625
      vertex 520.263138131269 -748.240215028959 0.0
      vertex 520.263138131269 -748.240215028959 4.7625
   endloop
endfacet
facet normal -0.707106781186548 0.707106781186548 0.0
   outer loop
      vertex 520.263138131269 -748.240215028959 0.0
      vertex 522.281404638262 -745.60995890789 4.7625
      vertex 522.281404638262 -745.60995890789 0.0
   endloop
endfacet
facet normal -0.86602540378444 0.499999999999999 0.0
   outer loop
      vertex 520.263138131269 -748.240215028959 4.7625
      vertex 518.99440276546 -751.303213156157 0.0
      vertex 518.99440276546 -751.303213156157 4.7625
   endloop
endfacet
facet normal -0.86602540378444 0.499999999999999 0.0
   outer loop
      vertex 518.99440276546 -751.303213156157 0.0
      vertex 520.263138131269 -748.240215028959 4.7625
      vertex 520.263138131269 -748.240215028959 0.0
   endloop
endfacet
facet normal -0.965925826289069 0.258819045102517 0.0
   outer loop
      vertex 518.99440276546 -751.303213156157 4.7625
      vertex 518.561660759331 -754.590215028959 0.0
      vertex 518.561660759331 -754.590215028959 4.7625
   endloop
endfacet
facet normal -0.965925826289069 0.258819045102517 0.0
   outer loop
      vertex 518.561660759331 -754.590215028959 0.0
      vertex 518.99440276546 -751.303213156157 4.7625
      vertex 518.99440276546 -751.303213156157 0.0
   endloop
endfacet
facet normal -1.0 0.0 0.0
   outer loop
      vertex 518.561660759331 -754.590215028959 4.7625
      vertex 518.99440276546 -757.877216901761 0.0
      vertex 518.99440276546 -757.877216901761 4.7625
   endloop
endfacet
facet normal -1.0 0.0 0.0
   outer loop
      vertex 518.99440276546 -757.877216901761 0.0
      vertex 518.561660759331 -754.590215028959 4.7625
      vertex 518.561660759331 -754.590215028959 0.0
   endloop
endfacet
facet normal -0.965925826289069 -0.258819045102517 0.0
   outer loop
      vertex 518.99440276546 -757.877216901761 4.7625
      vertex 520.263138131269 -760.940215028959 0.0
      vertex 520.263138131269 -760.940215028959 4.7625
   endloop
endfacet
facet normal -0.965925826289069 -0.258819045102517 0.0
   outer loop
      vertex 520.263138131269 -760.940215028959 0.0
      vertex 518.99440276546 -757.877216901761 4.7625
      vertex 518.99440276546 -757.877216901761 0.0
   endloop
endfacet
facet normal -0.86602540378444 -0.499999999999999 0.0
   outer loop
      vertex 520.263138131269 -760.940215028959 4.7625
      vertex 522.281404638262 -763.570471150028 0.0
      vertex 522.281404638262 -763.570471150028 4.7625
   endloop
endfacet
facet normal -0.86602540378444 -0.499999999999999 0.0
   outer loop
      vertex 522.281404638262 -763.570471150028 0.0
      vertex 520.263138131269 -760.940215028959 4.7625
      vertex 520.263138131269 -760.940215028959 0.0
   endloop
endfacet
facet normal -0.499999999999999 -0.86602540378444 0.0
   outer loop
      vertex 524.911660759331 -765.588737657022 4.7625
      vertex 522.281404638262 -763.570471150028 0.0
      vertex 524.911660759331 -765.588737657022 0.0
   endloop
endfacet
facet normal -0.499999999999999 -0.86602540378444 0.0
   outer loop
      vertex 522.281404638262 -763.570471150028 0.0
      vertex 524.911660759331 -765.588737657022 4.7625
      vertex 522.281404638262 -763.570471150028 4.7625
   endloop
endfacet
facet normal -0.258819045102517 -0.965925826289069 0.0
   outer loop
      vertex 527.974658886529 -766.85747302283 4.7625
      vertex 524.911660759331 -765.588737657022 0.0
      vertex 527.974658886529 -766.85747302283 0.0
   endloop
endfacet
facet normal -0.258819045102517 -0.965925826289069 0.0
   outer loop
      vertex 524.911660759331 -765.588737657022 0.0
      vertex 527.974658886529 -766.85747302283 4.7625
      vertex 524.911660759331 -765.588737657022 4.7625
   endloop
endfacet
facet normal 0.0 -1.0 0.0
   outer loop
      vertex 531.261660759331 -767.290215028959 4.7625
      vertex 527.974658886529 -766.85747302283 0.0
      vertex 531.261660759331 -767.290215028959 0.0
   endloop
endfacet
facet normal 0.0 -1.0 0.0
   outer loop
      vertex 527.974658886529 -766.85747302283 0.0
      vertex 531.261660759331 -767.290215028959 4.7625
      vertex 527.974658886529 -766.85747302283 4.7625
   endloop
endfacet
facet normal 0.258819045102517 -0.965925826289069 0.0
   outer loop
      vertex 534.548662632133 -766.85747302283 4.7625
      vertex 531.261660759331 -767.290215028959 0.0
      vertex 534.548662632133 -766.85747302283 0.0
   endloop
endfacet
facet normal 0.258819045102517 -0.965925826289069 0.0
   outer loop
      vertex 531.261660759331 -767.290215028959 0.0
      vertex 534.548662632133 -766.85747302283 4.7625
      vertex 531.261660759331 -767.290215028959 4.7625
   endloop
endfacet
facet normal 0.499999999999999 -0.86602540378444 0.0
   outer loop
      vertex 537.611660759331 -765.588737657022 4.7625
      vertex 534.548662632133 -766.85747302283 0.0
      vertex 537.611660759331 -765.588737657022 0.0
   endloop
endfacet
facet normal 0.499999999999999 -0.86602540378444 0.0
   outer loop
      vertex 534.548662632133 -766.85747302283 0.0
      vertex 537.611660759331 -765.588737657022 4.7625
      vertex 534.548662632133 -766.85747302283 4.7625
   endloop
endfacet
facet normal 0.707106781186548 -0.707106781186548 0.0
   outer loop
      vertex 540.2419168804 -763.570471150028 4.7625
      vertex 537.611660759331 -765.588737657022 0.0
      vertex 540.2419168804 -763.570471150028 0.0
   endloop
endfacet
facet normal 0.707106781186548 -0.707106781186548 0.0
   outer loop
      vertex 537.611660759331 -765.588737657022 0.0
      vertex 540.2419168804 -763.570471150028 4.7625
      vertex 537.611660759331 -765.588737657022 4.7625
   endloop
endfacet
facet normal 0.86602540378444 -0.499999999999999 0.0
   outer loop
      vertex 542.260183387394 -760.940215028959 0.0
      vertex 540.2419168804 -763.570471150028 4.7625
      vertex 540.2419168804 -763.570471150028 0.0
   endloop
endfacet
facet normal 0.86602540378444 -0.499999999999999 0.0
   outer loop
      vertex 540.2419168804 -763.570471150028 4.7625
      vertex 542.260183387394 -760.940215028959 0.0
      vertex 542.260183387394 -760.940215028959 4.7625
   endloop
endfacet
facet normal 0.965925826289069 -0.258819045102517 0.0
   outer loop
      vertex 543.528918753202 -757.877216901761 0.0
      vertex 542.260183387394 -760.940215028959 4.7625
      vertex 542.260183387394 -760.940215028959 0.0
   endloop
endfacet
facet normal 0.965925826289069 -0.258819045102517 0.0
   outer loop
      vertex 542.260183387394 -760.940215028959 4.7625
      vertex 543.528918753202 -757.877216901761 0.0
      vertex 543.528918753202 -757.877216901761 4.7625
   endloop
endfacet
facet normal 1.0 0.0 0.0
   outer loop
      vertex 543.961660759331 -754.590215028959 0.0
      vertex 543.528918753202 -757.877216901761 4.7625
      vertex 543.528918753202 -757.877216901761 0.0
   endloop
endfacet
facet normal 1.0 0.0 0.0
   outer loop
      vertex 543.528918753202 -757.877216901761 4.7625
      vertex 543.961660759331 -754.590215028959 0.0
      vertex 543.961660759331 -754.590215028959 4.7625
   endloop
endfacet
facet normal 0.965925826289069 0.258819045102517 0.0
   outer loop
      vertex 543.528918753202 -751.303213156157 0.0
      vertex 543.961660759331 -754.590215028959 4.7625
      vertex 543.961660759331 -754.590215028959 0.0
   endloop
endfacet
facet normal 0.965925826289069 0.258819045102517 0.0
   outer loop
      vertex 543.961660759331 -754.590215028959 4.7625
      vertex 543.528918753202 -751.303213156157 0.0
      vertex 543.528918753202 -751.303213156157 4.7625
   endloop
endfacet
facet normal 0.0 0.0 1.0
   outer loop
      vertex 518.99440276546 -757.877216901761 4.7625
      vertex 518.99440276546 -751.303213156157 4.7625
      vertex 518.561660759331 -754.590215028959 4.7625
   endloop
endfacet
facet normal 0.0 0.0 1.0
   outer loop
      vertex 518.99440276546 -751.303213156157 4.7625
      vertex 518.99440276546 -757.877216901761 4.7625
      vertex 520.263138131269 -760.940215028959 4.7625
   endloop
endfacet
facet normal 0.0 0.0 1.0
   outer loop
      vertex 518.99440276546 -751.303213156157 4.7625
      vertex 520.263138131269 -760.940215028959 4.7625
      vertex 520.263138131269 -748.240215028959 4.7625
   endloop
endfacet
facet normal 0.0 0.0 1.0
   outer loop
      vertex 520.263138131269 -748.240215028959 4.7625
      vertex 520.263138131269 -760.940215028959 4.7625
      vertex 522.281404638262 -763.570471150028 4.7625
   endloop
endfacet
facet normal 0.0 0.0 1.0
   outer loop
      vertex 520.263138131269 -748.240215028959 4.7625
      vertex 522.281404638262 -763.570471150028 4.7625
      vertex 522.281404638262 -745.60995890789 4.7625
   endloop
endfacet
facet normal 0.0 0.0 1.0
   outer loop
      vertex 522.281404638262 -745.60995890789 4.7625
      vertex 522.281404638262 -763.570471150028 4.7625
      vertex 524.911660759331 -765.588737657022 4.7625
   endloop
endfacet
facet normal 0.0 0.0 1.0
   outer loop
      vertex 522.281404638262 -745.60995890789 4.7625
      vertex 524.911660759331 -765.588737657022 4.7625
      vertex 524.911660759331 -743.591692400897 4.7625
   endloop
endfacet
facet normal 0.0 0.0 1.0
   outer loop
      vertex 524.911660759331 -743.591692400897 4.7625
      vertex 524.911660759331 -765.588737657022 4.7625
      vertex 527.974658886529 -766.85747302283 4.7625
   endloop
endfacet
facet normal 0.0 0.0 1.0
   outer loop
      vertex 524.911660759331 -743.591692400897 4.7625
      vertex 527.974658886529 -766.85747302283 4.7625
      vertex 526.892611140601 -754.590215028959 4.7625
   endloop
endfacet
facet normal 0.0 0.0 1.0
   outer loop
      vertex 526.892611140601 -754.590215028959 4.7625
      vertex 527.974658886529 -766.85747302283 4.7625
      vertex 527.041482896261 -755.721008279285 4.7625
   endloop
endfacet
facet normal 0.0 0.0 1.0
   outer loop
      vertex 527.041482896261 -755.721008279285 4.7625
      vertex 527.974658886529 -766.85747302283 4.7625
      vertex 527.477952799116 -756.774739838324 4.7625
   endloop
endfacet
facet normal 0.0 0.0 1.0
   outer loop
      vertex 527.477952799116 -756.774739838324 4.7625
      vertex 527.974658886529 -766.85747302283 4.7625
      vertex 528.172276146587 -757.679599641704 4.7625
   endloop
endfacet
facet normal 0.0 0.0 1.0
   outer loop
      vertex 528.172276146587 -757.679599641704 4.7625
      vertex 527.974658886529 -766.85747302283 4.7625
      vertex 531.261660759331 -767.290215028959 4.7625
   endloop
endfacet
facet normal 0.0 0.0 1.0
   outer loop
      vertex 528.172276146587 -757.679599641704 4.7625
      vertex 531.261660759331 -767.290215028959 4.7625
      vertex 529.077135949966 -758.373922989174 4.7625
   endloop
endfacet
facet normal 0.0 0.0 1.0
   outer loop
      vertex 529.077135949966 -758.373922989174 4.7625
      vertex 531.261660759331 -767.290215028959 4.7625
      vertex 530.130867509006 -758.810392892029 4.7625
   endloop
endfacet
facet normal 0.0 0.0 1.0
   outer loop
      vertex 530.130867509006 -758.810392892029 4.7625
      vertex 531.261660759331 -767.290215028959 4.7625
      vertex 531.261660759331 -758.959264647689 4.7625
   endloop
endfacet
facet normal 0.0 0.0 1.0
   outer loop
      vertex 531.261660759331 -758.959264647689 4.7625
      vertex 531.261660759331 -767.290215028959 4.7625
      vertex 534.548662632133 -766.85747302283 4.7625
   endloop
endfacet
facet normal 0.0 0.0 1.0
   outer loop
      vertex 531.261660759331 -758.959264647689 4.7625
      vertex 534.548662632133 -766.85747302283 4.7625
      vertex 532.392454009657 -758.810392892029 4.7625
   endloop
endfacet
facet normal 0.0 0.0 1.0
   outer loop
      vertex 532.392454009657 -758.810392892029 4.7625
      vertex 534.548662632133 -766.85747302283 4.7625
      vertex 533.446185568696 -758.373922989174 4.7625
   endloop
endfacet
facet normal 0.0 0.0 1.0
   outer loop
      vertex 533.446185568696 -758.373922989174 4.7625
      vertex 534.548662632133 -766.85747302283 4.7625
      vertex 534.351045372076 -757.679599641704 4.7625
   endloop
endfacet
facet normal 0.0 0.0 1.0
   outer loop
      vertex 534.351045372076 -757.679599641704 4.7625
      vertex 534.548662632133 -766.85747302283 4.7625
      vertex 535.045368719546 -756.774739838324 4.7625
   endloop
endfacet
facet normal 0.0 0.0 1.0
   outer loop
      vertex 535.045368719546 -756.774739838324 4.7625
      vertex 534.548662632133 -766.85747302283 4.7625
      vertex 537.611660759331 -765.588737657022 4.7625
   endloop
endfacet
facet normal 0.0 0.0 1.0
   outer loop
      vertex 535.045368719546 -756.774739838324 4.7625
      vertex 537.611660759331 -765.588737657022 4.7625
      vertex 535.481838622401 -755.721008279285 4.7625
   endloop
endfacet
facet normal 0.0 0.0 1.0
   outer loop
      vertex 535.481838622401 -755.721008279285 4.7625
      vertex 537.611660759331 -765.588737657022 4.7625
      vertex 535.630710378062 -754.590215028959 4.7625
   endloop
endfacet
facet normal 0.0 0.0 1.0
   outer loop
      vertex 526.892611140601 -754.590215028959 4.7625
      vertex 527.974658886529 -742.322957035088 4.7625
      vertex 524.911660759331 -743.591692400897 4.7625
   endloop
endfacet
facet normal 0.0 0.0 1.0
   outer loop
      vertex 527.974658886529 -742.322957035088 4.7625
      vertex 526.892611140601 -754.590215028959 4.7625
      vertex 527.041482896261 -753.459421778634 4.7625
   endloop
endfacet
facet normal 0.0 0.0 1.0
   outer loop
      vertex 527.974658886529 -742.322957035088 4.7625
      vertex 527.041482896261 -753.459421778634 4.7625
      vertex 527.477952799116 -752.405690219594 4.7625
   endloop
endfacet
facet normal 0.0 0.0 1.0
   outer loop
      vertex 527.974658886529 -742.322957035088 4.7625
      vertex 527.477952799116 -752.405690219594 4.7625
      vertex 528.172276146587 -751.500830416214 4.7625
   endloop
endfacet
facet normal 0.0 0.0 1.0
   outer loop
      vertex 527.974658886529 -742.322957035088 4.7625
      vertex 528.172276146587 -751.500830416214 4.7625
      vertex 531.261660759331 -741.890215028959 4.7625
   endloop
endfacet
facet normal 0.0 0.0 1.0
   outer loop
      vertex 531.261660759331 -741.890215028959 4.7625
      vertex 528.172276146587 -751.500830416214 4.7625
      vertex 529.077135949966 -750.806507068744 4.7625
   endloop
endfacet
facet normal 0.0 0.0 1.0
   outer loop
      vertex 531.261660759331 -741.890215028959 4.7625
      vertex 529.077135949966 -750.806507068744 4.7625
      vertex 530.130867509006 -750.370037165889 4.7625
   endloop
endfacet
facet normal 0.0 0.0 1.0
   outer loop
      vertex 531.261660759331 -741.890215028959 4.7625
      vertex 530.130867509006 -750.370037165889 4.7625
      vertex 531.261660759331 -750.221165410229 4.7625
   endloop
endfacet
facet normal 0.0 0.0 1.0
   outer loop
      vertex 531.261660759331 -741.890215028959 4.7625
      vertex 531.261660759331 -750.221165410229 4.7625
      vertex 532.392454009657 -750.370037165889 4.7625
   endloop
endfacet
facet normal 0.0 0.0 1.0
   outer loop
      vertex 531.261660759331 -741.890215028959 4.7625
      vertex 532.392454009657 -750.370037165889 4.7625
      vertex 534.548662632133 -742.322957035088 4.7625
   endloop
endfacet
facet normal 0.0 0.0 1.0
   outer loop
      vertex 534.548662632133 -742.322957035088 4.7625
      vertex 532.392454009657 -750.370037165889 4.7625
      vertex 533.446185568696 -750.806507068744 4.7625
   endloop
endfacet
facet normal 0.0 0.0 1.0
   outer loop
      vertex 534.548662632133 -742.322957035088 4.7625
      vertex 533.446185568696 -750.806507068744 4.7625
      vertex 534.351045372076 -751.500830416214 4.7625
   endloop
endfacet
facet normal 0.0 0.0 1.0
   outer loop
      vertex 534.548662632133 -742.322957035088 4.7625
      vertex 534.351045372076 -751.500830416214 4.7625
      vertex 535.045368719546 -752.405690219594 4.7625
   endloop
endfacet
facet normal 0.0 0.0 1.0
   outer loop
      vertex 534.548662632133 -742.322957035088 4.7625
      vertex 535.045368719546 -752.405690219594 4.7625
      vertex 537.611660759331 -743.591692400897 4.7625
   endloop
endfacet
facet normal 0.0 0.0 1.0
   outer loop
      vertex 537.611660759331 -743.591692400897 4.7625
      vertex 535.045368719546 -752.405690219594 4.7625
      vertex 535.481838622401 -753.459421778634 4.7625
   endloop
endfacet
facet normal 0.0 0.0 1.0
   outer loop
      vertex 537.611660759331 -743.591692400897 4.7625
      vertex 535.481838622401 -753.459421778634 4.7625
      vertex 535.630710378062 -754.590215028959 4.7625
   endloop
endfacet
facet normal 0.0 0.0 1.0
   outer loop
      vertex 537.611660759331 -743.591692400897 4.7625
      vertex 535.630710378062 -754.590215028959 4.7625
      vertex 537.611660759331 -765.588737657022 4.7625
   endloop
endfacet
facet normal 0.0 0.0 1.0
   outer loop
      vertex 537.611660759331 -743.591692400897 4.7625
      vertex 537.611660759331 -765.588737657022 4.7625
      vertex 540.2419168804 -763.570471150028 4.7625
   endloop
endfacet
facet normal 0.0 0.0 1.0
   outer loop
      vertex 537.611660759331 -743.591692400897 4.7625
      vertex 540.2419168804 -763.570471150028 4.7625
      vertex 540.2419168804 -745.60995890789 4.7625
   endloop
endfacet
facet normal 0.0 0.0 1.0
   outer loop
      vertex 540.2419168804 -745.60995890789 4.7625
      vertex 540.2419168804 -763.570471150028 4.7625
      vertex 542.260183387394 -760.940215028959 4.7625
   endloop
endfacet
facet normal 0.0 0.0 1.0
   outer loop
      vertex 540.2419168804 -745.60995890789 4.7625
      vertex 542.260183387394 -760.940215028959 4.7625
      vertex 542.260183387394 -748.240215028959 4.7625
   endloop
endfacet
facet normal 0.0 0.0 1.0
   outer loop
      vertex 542.260183387394 -748.240215028959 4.7625
      vertex 542.260183387394 -760.940215028959 4.7625
      vertex 543.528918753202 -757.877216901761 4.7625
   endloop
endfacet
facet normal 0.0 0.0 1.0
   outer loop
      vertex 542.260183387394 -748.240215028959 4.7625
      vertex 543.528918753202 -757.877216901761 4.7625
      vertex 543.528918753202 -751.303213156157 4.7625
   endloop
endfacet
facet normal 0.0 0.0 1.0
   outer loop
      vertex 543.528918753202 -751.303213156157 4.7625
      vertex 543.528918753202 -757.877216901761 4.7625
      vertex 543.961660759331 -754.590215028959 4.7625
   endloop
endfacet
facet normal -1.0 0.0 0.0
   outer loop
      vertex 535.630710378062 -754.590215028959 4.7625
      vertex 535.481838622401 -755.721008279285 0.0
      vertex 535.481838622401 -755.721008279285 4.7625
   endloop
endfacet
facet normal -1.0 0.0 0.0
   outer loop
      vertex 535.481838622401 -755.721008279285 0.0
      vertex 535.630710378062 -754.590215028959 4.7625
      vertex 535.630710378062 -754.590215028959 0.0
   endloop
endfacet
facet normal 0.86602540378444 0.499999999999999 0.0
   outer loop
      vertex 542.260183387394 -748.240215028959 0.0
      vertex 543.528918753202 -751.303213156157 4.7625
      vertex 543.528918753202 -751.303213156157 0.0
   endloop
endfacet
facet normal 0.86602540378444 0.499999999999999 0.0
   outer loop
      vertex 543.528918753202 -751.303213156157 4.7625
      vertex 542.260183387394 -748.240215028959 0.0
      vertex 542.260183387394 -748.240215028959 4.7625
   endloop
endfacet
facet normal 0.707106781186548 0.707106781186548 0.0
   outer loop
      vertex 540.2419168804 -745.60995890789 0.0
      vertex 542.260183387394 -748.240215028959 4.7625
      vertex 542.260183387394 -748.240215028959 0.0
   endloop
endfacet
facet normal 0.707106781186548 0.707106781186548 0.0
   outer loop
      vertex 542.260183387394 -748.240215028959 4.7625
      vertex 540.2419168804 -745.60995890789 0.0
      vertex 540.2419168804 -745.60995890789 4.7625
   endloop
endfacet
facet normal 0.499999999999999 0.86602540378444 0.0
   outer loop
      vertex 537.611660759331 -743.591692400897 4.7625
      vertex 540.2419168804 -745.60995890789 0.0
      vertex 537.611660759331 -743.591692400897 0.0
   endloop
endfacet
facet normal 0.499999999999999 0.86602540378444 0.0
   outer loop
      vertex 540.2419168804 -745.60995890789 0.0
      vertex 537.611660759331 -743.591692400897 4.7625
      vertex 540.2419168804 -745.60995890789 4.7625
   endloop
endfacet
facet normal 0.258819045102517 0.965925826289069 0.0
   outer loop
      vertex 534.548662632133 -742.322957035088 4.7625
      vertex 537.611660759331 -743.591692400897 0.0
      vertex 534.548662632133 -742.322957035088 0.0
   endloop
endfacet
facet normal 0.258819045102517 0.965925826289069 0.0
   outer loop
      vertex 537.611660759331 -743.591692400897 0.0
      vertex 534.548662632133 -742.322957035088 4.7625
      vertex 537.611660759331 -743.591692400897 4.7625
   endloop
endfacet
facet normal 0.0 1.0 0.0
   outer loop
      vertex 531.261660759331 -741.890215028959 4.7625
      vertex 534.548662632133 -742.322957035088 0.0
      vertex 531.261660759331 -741.890215028959 0.0
   endloop
endfacet
facet normal 0.0 1.0 0.0
   outer loop
      vertex 534.548662632133 -742.322957035088 0.0
      vertex 531.261660759331 -741.890215028959 4.7625
      vertex 534.548662632133 -742.322957035088 4.7625
   endloop
endfacet
facet normal -0.96592582628907 0.258819045102517 0.0
   outer loop
      vertex 535.481838622401 -755.721008279285 4.7625
      vertex 535.045368719546 -756.774739838324 0.0
      vertex 535.045368719546 -756.774739838324 4.7625
   endloop
endfacet
facet normal -0.96592582628907 0.258819045102517 0.0
   outer loop
      vertex 535.045368719546 -756.774739838324 0.0
      vertex 535.481838622401 -755.721008279285 4.7625
      vertex 535.481838622401 -755.721008279285 0.0
   endloop
endfacet
facet normal -0.86602540378444 0.499999999999997 0.0
   outer loop
      vertex 535.045368719546 -756.774739838324 4.7625
      vertex 534.351045372076 -757.679599641704 0.0
      vertex 534.351045372076 -757.679599641704 4.7625
   endloop
endfacet
facet normal -0.86602540378444 0.499999999999997 0.0
   outer loop
      vertex 534.351045372076 -757.679599641704 0.0
      vertex 535.045368719546 -756.774739838324 4.7625
      vertex 535.045368719546 -756.774739838324 0.0
   endloop
endfacet
facet normal -0.499999999999997 0.86602540378444 0.0
   outer loop
      vertex 533.446185568696 -758.373922989174 4.7625
      vertex 534.351045372076 -757.679599641704 0.0
      vertex 533.446185568696 -758.373922989174 0.0
   endloop
endfacet
facet normal -0.499999999999997 0.86602540378444 0.0
   outer loop
      vertex 534.351045372076 -757.679599641704 0.0
      vertex 533.446185568696 -758.373922989174 4.7625
      vertex 534.351045372076 -757.679599641704 4.7625
   endloop
endfacet
facet normal -0.258819045102517 0.96592582628907 0.0
   outer loop
      vertex 532.392454009657 -758.810392892029 4.7625
      vertex 533.446185568696 -758.373922989174 0.0
      vertex 532.392454009657 -758.810392892029 0.0
   endloop
endfacet
facet normal -0.258819045102517 0.96592582628907 0.0
   outer loop
      vertex 533.446185568696 -758.373922989174 0.0
      vertex 532.392454009657 -758.810392892029 4.7625
      vertex 533.446185568696 -758.373922989174 4.7625
   endloop
endfacet
facet normal 0.0 1.0 0.0
   outer loop
      vertex 531.261660759331 -758.959264647689 4.7625
      vertex 532.392454009657 -758.810392892029 0.0
      vertex 531.261660759331 -758.959264647689 0.0
   endloop
endfacet
facet normal 0.0 1.0 0.0
   outer loop
      vertex 532.392454009657 -758.810392892029 0.0
      vertex 531.261660759331 -758.959264647689 4.7625
      vertex 532.392454009657 -758.810392892029 4.7625
   endloop
endfacet
facet normal 0.258819045102517 0.96592582628907 0.0
   outer loop
      vertex 530.130867509006 -758.810392892029 4.7625
      vertex 531.261660759331 -758.959264647689 0.0
      vertex 530.130867509006 -758.810392892029 0.0
   endloop
endfacet
facet normal 0.258819045102517 0.96592582628907 0.0
   outer loop
      vertex 531.261660759331 -758.959264647689 0.0
      vertex 530.130867509006 -758.810392892029 4.7625
      vertex 531.261660759331 -758.959264647689 4.7625
   endloop
endfacet
facet normal 0.499999999999997 0.86602540378444 0.0
   outer loop
      vertex 529.077135949966 -758.373922989174 4.7625
      vertex 530.130867509006 -758.810392892029 0.0
      vertex 529.077135949966 -758.373922989174 0.0
   endloop
endfacet
facet normal 0.499999999999997 0.86602540378444 0.0
   outer loop
      vertex 530.130867509006 -758.810392892029 0.0
      vertex 529.077135949966 -758.373922989174 4.7625
      vertex 530.130867509006 -758.810392892029 4.7625
   endloop
endfacet
facet normal 0.707106781186548 0.707106781186548 0.0
   outer loop
      vertex 528.172276146587 -757.679599641704 4.7625
      vertex 529.077135949966 -758.373922989174 0.0
      vertex 528.172276146587 -757.679599641704 0.0
   endloop
endfacet
facet normal 0.707106781186548 0.707106781186548 0.0
   outer loop
      vertex 529.077135949966 -758.373922989174 0.0
      vertex 528.172276146587 -757.679599641704 4.7625
      vertex 529.077135949966 -758.373922989174 4.7625
   endloop
endfacet
facet normal -0.96592582628907 -0.258819045102517 0.0
   outer loop
      vertex 535.481838622401 -753.459421778634 4.7625
      vertex 535.630710378062 -754.590215028959 0.0
      vertex 535.630710378062 -754.590215028959 4.7625
   endloop
endfacet
facet normal -0.96592582628907 -0.258819045102517 0.0
   outer loop
      vertex 535.630710378062 -754.590215028959 0.0
      vertex 535.481838622401 -753.459421778634 4.7625
      vertex 535.481838622401 -753.459421778634 0.0
   endloop
endfacet
facet normal 0.86602540378444 0.499999999999997 0.0
   outer loop
      vertex 527.477952799116 -756.774739838324 0.0
      vertex 528.172276146587 -757.679599641704 4.7625
      vertex 528.172276146587 -757.679599641704 0.0
   endloop
endfacet
facet normal 0.86602540378444 0.499999999999997 0.0
   outer loop
      vertex 528.172276146587 -757.679599641704 4.7625
      vertex 527.477952799116 -756.774739838324 0.0
      vertex 527.477952799116 -756.774739838324 4.7625
   endloop
endfacet
facet normal 0.96592582628907 0.258819045102517 0.0
   outer loop
      vertex 527.041482896261 -755.721008279285 0.0
      vertex 527.477952799116 -756.774739838324 4.7625
      vertex 527.477952799116 -756.774739838324 0.0
   endloop
endfacet
facet normal 0.96592582628907 0.258819045102517 0.0
   outer loop
      vertex 527.477952799116 -756.774739838324 4.7625
      vertex 527.041482896261 -755.721008279285 0.0
      vertex 527.041482896261 -755.721008279285 4.7625
   endloop
endfacet
facet normal 1.0 0.0 0.0
   outer loop
      vertex 526.892611140601 -754.590215028959 0.0
      vertex 527.041482896261 -755.721008279285 4.7625
      vertex 527.041482896261 -755.721008279285 0.0
   endloop
endfacet
facet normal 1.0 0.0 0.0
   outer loop
      vertex 527.041482896261 -755.721008279285 4.7625
      vertex 526.892611140601 -754.590215028959 0.0
      vertex 526.892611140601 -754.590215028959 4.7625
   endloop
endfacet
facet normal -0.258819045102517 0.965925826289069 0.0
   outer loop
      vertex 527.974658886529 -742.322957035088 4.7625
      vertex 531.261660759331 -741.890215028959 0.0
      vertex 527.974658886529 -742.322957035088 0.0
   endloop
endfacet
facet normal -0.258819045102517 0.965925826289069 0.0
   outer loop
      vertex 531.261660759331 -741.890215028959 0.0
      vertex 527.974658886529 -742.322957035088 4.7625
      vertex 531.261660759331 -741.890215028959 4.7625
   endloop
endfacet
facet normal 0.96592582628907 -0.258819045102517 0.0
   outer loop
      vertex 527.041482896261 -753.459421778634 0.0
      vertex 526.892611140601 -754.590215028959 4.7625
      vertex 526.892611140601 -754.590215028959 0.0
   endloop
endfacet
facet normal 0.96592582628907 -0.258819045102517 0.0
   outer loop
      vertex 526.892611140601 -754.590215028959 4.7625
      vertex 527.041482896261 -753.459421778634 0.0
      vertex 527.041482896261 -753.459421778634 4.7625
   endloop
endfacet
facet normal 0.86602540378444 -0.499999999999997 0.0
   outer loop
      vertex 527.477952799116 -752.405690219594 0.0
      vertex 527.041482896261 -753.459421778634 4.7625
      vertex 527.041482896261 -753.459421778634 0.0
   endloop
endfacet
facet normal 0.86602540378444 -0.499999999999997 0.0
   outer loop
      vertex 527.041482896261 -753.459421778634 4.7625
      vertex 527.477952799116 -752.405690219594 0.0
      vertex 527.477952799116 -752.405690219594 4.7625
   endloop
endfacet
facet normal 0.707106781186548 -0.707106781186548 0.0
   outer loop
      vertex 528.172276146587 -751.500830416214 0.0
      vertex 527.477952799116 -752.405690219594 4.7625
      vertex 527.477952799116 -752.405690219594 0.0
   endloop
endfacet
facet normal 0.707106781186548 -0.707106781186548 0.0
   outer loop
      vertex 527.477952799116 -752.405690219594 4.7625
      vertex 528.172276146587 -751.500830416214 0.0
      vertex 528.172276146587 -751.500830416214 4.7625
   endloop
endfacet
facet normal 0.499999999999997 -0.86602540378444 0.0
   outer loop
      vertex 529.077135949966 -750.806507068744 4.7625
      vertex 528.172276146587 -751.500830416214 0.0
      vertex 529.077135949966 -750.806507068744 0.0
   endloop
endfacet
facet normal 0.499999999999997 -0.86602540378444 0.0
   outer loop
      vertex 528.172276146587 -751.500830416214 0.0
      vertex 529.077135949966 -750.806507068744 4.7625
      vertex 528.172276146587 -751.500830416214 4.7625
   endloop
endfacet
facet normal -0.86602540378444 -0.499999999999997 0.0
   outer loop
      vertex 535.045368719546 -752.405690219594 4.7625
      vertex 535.481838622401 -753.459421778634 0.0
      vertex 535.481838622401 -753.459421778634 4.7625
   endloop
endfacet
facet normal -0.86602540378444 -0.499999999999997 0.0
   outer loop
      vertex 535.481838622401 -753.459421778634 0.0
      vertex 535.045368719546 -752.405690219594 4.7625
      vertex 535.045368719546 -752.405690219594 0.0
   endloop
endfacet
facet normal -0.707106781186548 -0.707106781186548 0.0
   outer loop
      vertex 534.351045372076 -751.500830416214 4.7625
      vertex 535.045368719546 -752.405690219594 0.0
      vertex 535.045368719546 -752.405690219594 4.7625
   endloop
endfacet
facet normal -0.707106781186548 -0.707106781186548 0.0
   outer loop
      vertex 535.045368719546 -752.405690219594 0.0
      vertex 534.351045372076 -751.500830416214 4.7625
      vertex 534.351045372076 -751.500830416214 0.0
   endloop
endfacet
facet normal -0.707106781186548 -0.707106781186548 0.0
   outer loop
      vertex 534.351045372076 -751.500830416214 4.7625
      vertex 533.446185568696 -750.806507068744 0.0
      vertex 534.351045372076 -751.500830416214 0.0
   endloop
endfacet
facet normal -0.707106781186548 -0.707106781186548 0.0
   outer loop
      vertex 533.446185568696 -750.806507068744 0.0
      vertex 534.351045372076 -751.500830416214 4.7625
      vertex 533.446185568696 -750.806507068744 4.7625
   endloop
endfacet
facet normal 0.258819045102517 -0.96592582628907 0.0
   outer loop
      vertex 530.130867509006 -750.370037165889 4.7625
      vertex 529.077135949966 -750.806507068744 0.0
      vertex 530.130867509006 -750.370037165889 0.0
   endloop
endfacet
facet normal 0.258819045102517 -0.96592582628907 0.0
   outer loop
      vertex 529.077135949966 -750.806507068744 0.0
      vertex 530.130867509006 -750.370037165889 4.7625
      vertex 529.077135949966 -750.806507068744 4.7625
   endloop
endfacet
facet normal 0.0 -1.0 0.0
   outer loop
      vertex 531.261660759331 -750.221165410229 4.7625
      vertex 530.130867509006 -750.370037165889 0.0
      vertex 531.261660759331 -750.221165410229 0.0
   endloop
endfacet
facet normal 0.0 -1.0 0.0
   outer loop
      vertex 530.130867509006 -750.370037165889 0.0
      vertex 531.261660759331 -750.221165410229 4.7625
      vertex 530.130867509006 -750.370037165889 4.7625
   endloop
endfacet
facet normal -0.258819045102517 -0.96592582628907 0.0
   outer loop
      vertex 532.392454009657 -750.370037165889 4.7625
      vertex 531.261660759331 -750.221165410229 0.0
      vertex 532.392454009657 -750.370037165889 0.0
   endloop
endfacet
facet normal -0.258819045102517 -0.96592582628907 0.0
   outer loop
      vertex 531.261660759331 -750.221165410229 0.0
      vertex 532.392454009657 -750.370037165889 4.7625
      vertex 531.261660759331 -750.221165410229 4.7625
   endloop
endfacet
facet normal -0.499999999999997 -0.86602540378444 0.0
   outer loop
      vertex 533.446185568696 -750.806507068744 4.7625
      vertex 532.392454009657 -750.370037165889 0.0
      vertex 533.446185568696 -750.806507068744 0.0
   endloop
endfacet
facet normal -0.499999999999997 -0.86602540378444 0.0
   outer loop
      vertex 532.392454009657 -750.370037165889 0.0
      vertex 533.446185568696 -750.806507068744 4.7625
      vertex 532.392454009657 -750.370037165889 4.7625
   endloop
endfacet
endsolid Milk Strap B_1_a_5-24-13
