solid Z_Carriages_6_11_13
facet normal 0.258819045102461 -0.965925826289084 4.56735611327369e-014
   outer loop
      vertex 364.949866459903 -804.622735503357 -224.002220773645
      vertex 364.472098955342 -804.820633283407 -214.477220773645
      vertex 364.472098955344 -804.820633283407 -224.002220773645
   endloop
endfacet
facet normal 0.258819045102461 -0.965925826289084 4.56735611327369e-014
   outer loop
      vertex 364.472098955342 -804.820633283407 -214.477220773645
      vertex 364.949866459903 -804.622735503357 -224.002220773645
      vertex 364.949866459902 -804.622735503357 -214.477220773645
   endloop
endfacet
facet normal 0.25881904510268 0.965925826289026 1.72843183522255e-014
   outer loop
      vertex 364.949866459902 -808.449637771089 -214.477220773645
      vertex 365.462574145978 -808.517137018493 -224.002220773645
      vertex 364.949866459903 -808.449637771089 -224.002220773645
   endloop
endfacet
facet normal 0.25881904510268 0.965925826289026 1.72843183522255e-014
   outer loop
      vertex 365.462574145978 -808.517137018493 -224.002220773645
      vertex 364.949866459902 -808.449637771089 -214.477220773645
      vertex 365.462574145977 -808.517137018493 -214.477220773645
   endloop
endfacet
facet normal -5.14616596473616e-014 -1.0 1.46953534152789e-014
   outer loop
      vertex 365.462574145979 -804.555236255953 -224.002220773645
      vertex 364.949866459902 -804.622735503357 -214.477220773645
      vertex 364.949866459903 -804.622735503357 -224.002220773645
   endloop
endfacet
facet normal -5.14616596473616e-014 -1.0 1.46953534152789e-014
   outer loop
      vertex 364.949866459902 -804.622735503357 -214.477220773645
      vertex 365.462574145979 -804.555236255953 -224.002220773645
      vertex 365.462574145978 -804.555236255953 -214.477220773645
   endloop
endfacet
facet normal -0.25881904510268 -0.965925826289026 -1.72843183522255e-014
   outer loop
      vertex 365.975281832054 -804.622735503357 -224.002220773645
      vertex 365.462574145978 -804.555236255953 -214.477220773645
      vertex 365.462574145979 -804.555236255953 -224.002220773645
   endloop
endfacet
facet normal -0.25881904510268 -0.965925826289026 -1.72843183522255e-014
   outer loop
      vertex 365.462574145978 -804.555236255953 -214.477220773645
      vertex 365.975281832054 -804.622735503357 -224.002220773645
      vertex 365.975281832053 -804.622735503357 -214.477220773645
   endloop
endfacet
facet normal 0.965925826289063 -0.25881904510254 1.21284439825703e-013
   outer loop
      vertex 363.549123012113 -806.023478951147 -224.002220773645
      vertex 363.481623764708 -806.536186637223 -214.477220773645
      vertex 363.481623764709 -806.536186637223 -224.002220773645
   endloop
endfacet
facet normal 0.965925826289063 -0.25881904510254 1.21284439825703e-013
   outer loop
      vertex 363.481623764708 -806.536186637223 -214.477220773645
      vertex 363.549123012113 -806.023478951147 -224.002220773645
      vertex 363.549123012112 -806.023478951147 -214.477220773645
   endloop
endfacet
facet normal 1.0 -1.31527982059739e-014 1.21625283525815e-013
   outer loop
      vertex 363.481623764709 -806.536186637223 -224.002220773645
      vertex 363.549123012112 -807.048894323299 -214.477220773645
      vertex 363.549123012113 -807.048894323299 -224.002220773645
   endloop
endfacet
facet normal 1.0 -1.31527982059739e-014 1.21625283525815e-013
   outer loop
      vertex 363.549123012112 -807.048894323299 -214.477220773645
      vertex 363.481623764709 -806.536186637223 -224.002220773645
      vertex 363.481623764708 -806.536186637223 -214.477220773645
   endloop
endfacet
facet normal 0.707106781186462 -0.707106781186634 9.63932467967119e-014
   outer loop
      vertex 364.061830698189 -805.135443189433 -224.002220773645
      vertex 363.747020792161 -805.545711446588 -214.477220773645
      vertex 363.747020792163 -805.545711446588 -224.002220773645
   endloop
endfacet
facet normal 0.707106781186462 -0.707106781186634 9.63932467967119e-014
   outer loop
      vertex 363.747020792161 -805.545711446588 -214.477220773645
      vertex 364.061830698189 -805.135443189433 -224.002220773645
      vertex 364.061830698187 -805.135443189433 -214.477220773645
   endloop
endfacet
facet normal 0.86602540378438 -0.500000000000103 1.12678261983477e-013
   outer loop
      vertex 363.747020792163 -805.545711446588 -224.002220773645
      vertex 363.549123012112 -806.023478951147 -214.477220773645
      vertex 363.549123012113 -806.023478951147 -224.002220773645
   endloop
endfacet
facet normal 0.86602540378438 -0.500000000000103 1.12678261983477e-013
   outer loop
      vertex 363.549123012112 -806.023478951147 -214.477220773645
      vertex 363.747020792163 -805.545711446588 -224.002220773645
      vertex 363.747020792161 -805.545711446588 -214.477220773645
   endloop
endfacet
facet normal -0.500000000000142 -0.866025403784357 -4.80860923876985e-014
   outer loop
      vertex 366.453049336612 -804.820633283407 -214.477220773645
      vertex 365.975281832054 -804.622735503357 -224.002220773645
      vertex 366.453049336614 -804.820633283407 -224.002220773645
   endloop
endfacet
facet normal -0.500000000000142 -0.866025403784357 -4.80860923876985e-014
   outer loop
      vertex 365.975281832054 -804.622735503357 -224.002220773645
      vertex 366.453049336612 -804.820633283407 -214.477220773645
      vertex 365.975281832053 -804.622735503357 -214.477220773645
   endloop
endfacet
facet normal 0.500000000000145 0.866025403784355 4.80860923876988e-014
   outer loop
      vertex 364.472098955342 -808.251739991039 -214.477220773645
      vertex 364.949866459903 -808.449637771089 -224.002220773645
      vertex 364.472098955343 -808.251739991039 -224.002220773645
   endloop
endfacet
facet normal 0.500000000000145 0.866025403784355 4.80860923876988e-014
   outer loop
      vertex 364.949866459903 -808.449637771089 -224.002220773645
      vertex 364.472098955342 -808.251739991039 -214.477220773645
      vertex 364.949866459902 -808.449637771089 -214.477220773645
   endloop
endfacet
facet normal 2.86670405342966e-014 1.0 -1.46953534152817e-014
   outer loop
      vertex 365.462574145977 -808.517137018493 -214.477220773645
      vertex 365.975281832054 -808.449637771089 -224.002220773645
      vertex 365.462574145978 -808.517137018493 -224.002220773645
   endloop
endfacet
facet normal 2.86670405342966e-014 1.0 -1.46953534152817e-014
   outer loop
      vertex 365.975281832054 -808.449637771089 -224.002220773645
      vertex 365.462574145977 -808.517137018493 -214.477220773645
      vertex 365.975281832053 -808.449637771089 -214.477220773645
   endloop
endfacet
facet normal 0.707106781186562 0.707106781186533 7.5610878692961e-014
   outer loop
      vertex 364.061830698187 -807.936930085013 -214.477220773645
      vertex 364.472098955343 -808.251739991039 -224.002220773645
      vertex 364.061830698188 -807.936930085013 -224.002220773645
   endloop
endfacet
facet normal 0.707106781186562 0.707106781186533 7.5610878692961e-014
   outer loop
      vertex 364.472098955343 -808.251739991039 -224.002220773645
      vertex 364.061830698187 -807.936930085013 -214.477220773645
      vertex 364.472098955342 -808.251739991039 -214.477220773645
   endloop
endfacet
facet normal -0.707106781186565 -0.70710678118653 -7.56108786929614e-014
   outer loop
      vertex 366.863317593769 -805.135443189433 -224.002220773645
      vertex 366.453049336612 -804.820633283407 -214.477220773645
      vertex 366.453049336614 -804.820633283407 -224.002220773645
   endloop
endfacet
facet normal -0.707106781186565 -0.70710678118653 -7.56108786929614e-014
   outer loop
      vertex 366.453049336612 -804.820633283407 -214.477220773645
      vertex 366.863317593769 -805.135443189433 -224.002220773645
      vertex 366.863317593767 -805.135443189433 -214.477220773645
   endloop
endfacet
facet normal 0.499999999999913 -0.866025403784489 7.35391911381248e-014
   outer loop
      vertex 364.472098955342 -804.820633283407 -214.477220773645
      vertex 364.061830698189 -805.135443189433 -224.002220773645
      vertex 364.472098955344 -804.820633283407 -224.002220773645
   endloop
endfacet
facet normal 0.499999999999913 -0.866025403784489 7.35391911381248e-014
   outer loop
      vertex 364.061830698189 -805.135443189433 -224.002220773645
      vertex 364.472098955342 -804.820633283407 -214.477220773645
      vertex 364.061830698187 -805.135443189433 -214.477220773645
   endloop
endfacet
facet normal -0.965925826289086 -0.258819045102456 -1.1367756514893e-013
   outer loop
      vertex 367.376025279843 -806.023478951148 -214.477220773645
      vertex 367.443524527248 -806.536186637223 -224.002220773645
      vertex 367.443524527247 -806.536186637223 -214.477220773645
   endloop
endfacet
facet normal -0.965925826289086 -0.258819045102456 -1.1367756514893e-013
   outer loop
      vertex 367.443524527248 -806.536186637223 -224.002220773645
      vertex 367.376025279843 -806.023478951148 -214.477220773645
      vertex 367.376025279844 -806.023478951148 -224.002220773645
   endloop
endfacet
facet normal -0.866025403784445 -0.499999999999989 -9.79829085681989e-014
   outer loop
      vertex 367.178127499793 -805.545711446588 -214.477220773645
      vertex 367.376025279844 -806.023478951148 -224.002220773645
      vertex 367.376025279843 -806.023478951148 -214.477220773645
   endloop
endfacet
facet normal -0.866025403784445 -0.499999999999989 -9.79829085681989e-014
   outer loop
      vertex 367.376025279844 -806.023478951148 -224.002220773645
      vertex 367.178127499793 -805.545711446588 -214.477220773645
      vertex 367.178127499795 -805.545711446588 -224.002220773645
   endloop
endfacet
facet normal -0.707106781186576 -0.707106781186519 -7.56108786929628e-014
   outer loop
      vertex 366.863317593767 -805.135443189433 -214.477220773645
      vertex 367.178127499795 -805.545711446588 -224.002220773645
      vertex 367.178127499793 -805.545711446588 -214.477220773645
   endloop
endfacet
facet normal -0.707106781186576 -0.707106781186519 -7.56108786929628e-014
   outer loop
      vertex 367.178127499795 -805.545711446588 -224.002220773645
      vertex 366.863317593767 -805.135443189433 -214.477220773645
      vertex 366.863317593769 -805.135443189433 -224.002220773645
   endloop
endfacet
facet normal 0.866025403784445 0.499999999999989 9.79829085681989e-014
   outer loop
      vertex 363.747020792162 -807.526661827858 -224.002220773645
      vertex 364.061830698187 -807.936930085013 -214.477220773645
      vertex 364.061830698188 -807.936930085013 -224.002220773645
   endloop
endfacet
facet normal 0.866025403784445 0.499999999999989 9.79829085681989e-014
   outer loop
      vertex 364.061830698187 -807.936930085013 -214.477220773645
      vertex 363.747020792162 -807.526661827858 -224.002220773645
      vertex 363.747020792161 -807.526661827858 -214.477220773645
   endloop
endfacet
facet normal 0.965925826289086 0.258819045102456 1.1367756514893e-013
   outer loop
      vertex 363.549123012113 -807.048894323299 -224.002220773645
      vertex 363.747020792161 -807.526661827858 -214.477220773645
      vertex 363.747020792162 -807.526661827858 -224.002220773645
   endloop
endfacet
facet normal 0.965925826289086 0.258819045102456 1.1367756514893e-013
   outer loop
      vertex 363.747020792161 -807.526661827858 -214.477220773645
      vertex 363.549123012113 -807.048894323299 -224.002220773645
      vertex 363.549123012112 -807.048894323299 -214.477220773645
   endloop
endfacet
facet normal -1.0 5.64162367493371e-014 -1.21625283525815e-013
   outer loop
      vertex 367.443524527247 -806.536186637223 -214.477220773645
      vertex 367.376025279844 -807.048894323299 -224.002220773645
      vertex 367.376025279843 -807.048894323299 -214.477220773645
   endloop
endfacet
facet normal -1.0 5.64162367493371e-014 -1.21625283525815e-013
   outer loop
      vertex 367.376025279844 -807.048894323299 -224.002220773645
      vertex 367.443524527247 -806.536186637223 -214.477220773645
      vertex 367.443524527248 -806.536186637223 -224.002220773645
   endloop
endfacet
facet normal -0.965925826289051 0.258819045102585 -1.21284439825702e-013
   outer loop
      vertex 367.376025279843 -807.048894323299 -214.477220773645
      vertex 367.178127499794 -807.526661827858 -224.002220773645
      vertex 367.178127499793 -807.526661827858 -214.477220773645
   endloop
endfacet
facet normal -0.965925826289051 0.258819045102585 -1.21284439825702e-013
   outer loop
      vertex 367.178127499794 -807.526661827858 -224.002220773645
      vertex 367.376025279843 -807.048894323299 -214.477220773645
      vertex 367.376025279844 -807.048894323299 -224.002220773645
   endloop
endfacet
facet normal -0.86602540378437 0.50000000000012 -1.12678261983476e-013
   outer loop
      vertex 367.178127499793 -807.526661827858 -214.477220773645
      vertex 366.863317593768 -807.936930085013 -224.002220773645
      vertex 366.863317593767 -807.936930085013 -214.477220773645
   endloop
endfacet
facet normal -0.86602540378437 0.50000000000012 -1.12678261983476e-013
   outer loop
      vertex 366.863317593768 -807.936930085013 -224.002220773645
      vertex 367.178127499793 -807.526661827858 -214.477220773645
      vertex 367.178127499794 -807.526661827858 -224.002220773645
   endloop
endfacet
facet normal -0.499999999999942 0.866025403784472 -7.35391911381281e-014
   outer loop
      vertex 366.453049336612 -808.251739991039 -214.477220773645
      vertex 366.863317593768 -807.936930085013 -224.002220773645
      vertex 366.453049336614 -808.251739991039 -224.002220773645
   endloop
endfacet
facet normal -0.499999999999942 0.866025403784472 -7.35391911381281e-014
   outer loop
      vertex 366.863317593768 -807.936930085013 -224.002220773645
      vertex 366.453049336612 -808.251739991039 -214.477220773645
      vertex 366.863317593767 -807.936930085013 -214.477220773645
   endloop
endfacet
facet normal -0.258819045102556 0.965925826289059 -4.5673561132748e-014
   outer loop
      vertex 365.975281832053 -808.449637771089 -214.477220773645
      vertex 366.453049336614 -808.251739991039 -224.002220773645
      vertex 365.975281832054 -808.449637771089 -224.002220773645
   endloop
endfacet
facet normal -0.258819045102556 0.965925826289059 -4.5673561132748e-014
   outer loop
      vertex 366.453049336614 -808.251739991039 -224.002220773645
      vertex 365.975281832053 -808.449637771089 -214.477220773645
      vertex 366.453049336612 -808.251739991039 -214.477220773645
   endloop
endfacet
facet normal 0.965925826289085 0.258819045102458 8.94129675340778e-014
   outer loop
      vertex 369.489422139056 -805.457195969436 -222.414720773645
      vertex 369.631473955342 -806.536186637223 -214.477220773645
      vertex 369.631473955343 -806.536186637223 -222.414720773645
   endloop
endfacet
facet normal 0.965925826289085 0.258819045102458 8.94129675340778e-014
   outer loop
      vertex 369.631473955342 -806.536186637223 -214.477220773645
      vertex 369.489422139056 -805.457195969436 -222.414720773645
      vertex 369.489422139055 -805.457195969436 -214.477220773645
   endloop
endfacet
facet normal 0.866025403784411 -0.500000000000049 8.80298236904401e-014
   outer loop
      vertex 369.07294728672 -808.620636541906 -222.414720773645
      vertex 368.410431471267 -809.484043962513 -214.477220773645
      vertex 368.410431471267 -809.484043962513 -222.414720773645
   endloop
endfacet
facet normal 0.866025403784411 -0.500000000000049 8.80298236904401e-014
   outer loop
      vertex 368.410431471267 -809.484043962513 -214.477220773645
      vertex 369.07294728672 -808.620636541906 -222.414720773645
      vertex 369.072947286719 -808.620636541906 -214.477220773645
   endloop
endfacet
facet normal 0.258819045102493 -0.965925826289076 3.50800030222578e-014
   outer loop
      vertex 366.541564813766 -810.5630346303 -222.414720773645
      vertex 365.462574145977 -810.705086446588 -214.477220773645
      vertex 365.462574145978 -810.705086446588 -222.414720773645
   endloop
endfacet
facet normal 0.258819045102493 -0.965925826289076 3.50800030222578e-014
   outer loop
      vertex 365.462574145977 -810.705086446588 -214.477220773645
      vertex 366.541564813766 -810.5630346303 -222.414720773645
      vertex 366.541564813765 -810.5630346303 -214.477220773645
   endloop
endfacet
facet normal 0.707106781186475 -0.70710678118662 7.5086657549144e-014
   outer loop
      vertex 368.410431471267 -809.484043962513 -222.414720773645
      vertex 367.54702405066 -810.146559777965 -214.477220773645
      vertex 367.547024050661 -810.146559777965 -222.414720773645
   endloop
endfacet
facet normal 0.707106781186475 -0.70710678118662 7.5086657549144e-014
   outer loop
      vertex 367.54702405066 -810.146559777965 -214.477220773645
      vertex 368.410431471267 -809.484043962513 -222.414720773645
      vertex 368.410431471267 -809.484043962513 -214.477220773645
   endloop
endfacet
facet normal -0.866025403784465 -0.499999999999955 -7.72869216618975e-014
   outer loop
      vertex 361.852201005235 -808.620636541905 -214.477220773645
      vertex 362.514716820688 -809.484043962512 -222.414720773645
      vertex 362.514716820688 -809.484043962512 -214.477220773645
   endloop
endfacet
facet normal -0.866025403784465 -0.499999999999955 -7.72869216618975e-014
   outer loop
      vertex 362.514716820688 -809.484043962512 -222.414720773645
      vertex 361.852201005235 -808.620636541905 -214.477220773645
      vertex 361.852201005236 -808.620636541905 -222.414720773645
   endloop
endfacet
facet normal 0.499999999999928 -0.86602540378448 5.70264597824456e-014
   outer loop
      vertex 367.547024050661 -810.146559777965 -222.414720773645
      vertex 366.541564813765 -810.5630346303 -214.477220773645
      vertex 366.541564813766 -810.5630346303 -222.414720773645
   endloop
endfacet
facet normal 0.499999999999928 -0.86602540378448 5.70264597824456e-014
   outer loop
      vertex 366.541564813765 -810.5630346303 -214.477220773645
      vertex 367.547024050661 -810.146559777965 -222.414720773645
      vertex 367.54702405066 -810.146559777965 -214.477220773645
   endloop
endfacet
facet normal -8.92447656049043e-014 -1.0 1.07429020285392e-014
   outer loop
      vertex 365.462574145978 -810.705086446588 -222.414720773645
      vertex 364.383583478189 -810.5630346303 -214.477220773645
      vertex 364.38358347819 -810.5630346303 -222.414720773645
   endloop
endfacet
facet normal -8.92447656049043e-014 -1.0 1.07429020285392e-014
   outer loop
      vertex 364.383583478189 -810.5630346303 -214.477220773645
      vertex 365.462574145978 -810.705086446588 -222.414720773645
      vertex 365.462574145977 -810.705086446588 -214.477220773645
   endloop
endfacet
facet normal 0.258819045102613 0.965925826289044 1.43263099849344e-014
   outer loop
      vertex 366.541564813766 -802.509338644146 -214.477220773645
      vertex 367.547024050661 -802.925813496481 -222.414720773645
      vertex 366.541564813767 -802.509338644146 -222.414720773645
   endloop
endfacet
facet normal 0.258819045102613 0.965925826289044 1.43263099849344e-014
   outer loop
      vertex 367.547024050661 -802.925813496481 -222.414720773645
      vertex 366.541564813766 -802.509338644146 -214.477220773645
      vertex 367.54702405066 -802.925813496481 -214.477220773645
   endloop
endfacet
facet normal -0.258819045102493 0.965925826289076 -3.50800030222578e-014
   outer loop
      vertex 364.383583478189 -802.509338644146 -214.477220773645
      vertex 365.462574145978 -802.367286827858 -222.414720773645
      vertex 364.38358347819 -802.509338644146 -222.414720773645
   endloop
endfacet
facet normal -0.258819045102493 0.965925826289076 -3.50800030222578e-014
   outer loop
      vertex 365.462574145978 -802.367286827858 -222.414720773645
      vertex 364.383583478189 -802.509338644146 -214.477220773645
      vertex 365.462574145978 -802.367286827858 -214.477220773645
   endloop
endfacet
facet normal -0.499999999999928 0.86602540378448 -5.70264597824456e-014
   outer loop
      vertex 363.378124241295 -802.925813496481 -214.477220773645
      vertex 364.38358347819 -802.509338644146 -222.414720773645
      vertex 363.378124241296 -802.925813496481 -222.414720773645
   endloop
endfacet
facet normal -0.499999999999928 0.86602540378448 -5.70264597824456e-014
   outer loop
      vertex 364.38358347819 -802.509338644146 -222.414720773645
      vertex 363.378124241295 -802.925813496481 -214.477220773645
      vertex 364.383583478189 -802.509338644146 -214.477220773645
   endloop
endfacet
facet normal -0.707106781186475 0.70710678118662 -7.5086657549144e-014
   outer loop
      vertex 362.514716820688 -803.588329311933 -214.477220773645
      vertex 363.378124241296 -802.925813496481 -222.414720773645
      vertex 362.514716820689 -803.588329311933 -222.414720773645
   endloop
endfacet
facet normal -0.707106781186475 0.70710678118662 -7.5086657549144e-014
   outer loop
      vertex 363.378124241296 -802.925813496481 -222.414720773645
      vertex 362.514716820688 -803.588329311933 -214.477220773645
      vertex 363.378124241295 -802.925813496481 -214.477220773645
   endloop
endfacet
facet normal -0.707106781186475 0.70710678118662 -7.5086657549144e-014
   outer loop
      vertex 362.514716820688 -803.588329311933 -214.477220773645
      vertex 361.852201005236 -804.45173673254 -222.414720773645
      vertex 361.852201005235 -804.45173673254 -214.477220773645
   endloop
endfacet
facet normal -0.707106781186475 0.70710678118662 -7.5086657549144e-014
   outer loop
      vertex 361.852201005236 -804.45173673254 -222.414720773645
      vertex 362.514716820688 -803.588329311933 -214.477220773645
      vertex 362.514716820689 -803.588329311933 -222.414720773645
   endloop
endfacet
facet normal -0.866025403784411 0.500000000000049 -8.80298236904401e-014
   outer loop
      vertex 361.852201005235 -804.45173673254 -214.477220773645
      vertex 361.435726152901 -805.457195969435 -222.414720773645
      vertex 361.4357261529 -805.457195969435 -214.477220773645
   endloop
endfacet
facet normal -0.866025403784411 0.500000000000049 -8.80298236904401e-014
   outer loop
      vertex 361.435726152901 -805.457195969435 -222.414720773645
      vertex 361.852201005235 -804.45173673254 -214.477220773645
      vertex 361.852201005236 -804.45173673254 -222.414720773645
   endloop
endfacet
facet normal -0.965925826289054 0.258819045102575 -9.49739028233921e-014
   outer loop
      vertex 361.4357261529 -805.457195969435 -214.477220773645
      vertex 361.293674336613 -806.536186637223 -222.414720773645
      vertex 361.293674336612 -806.536186637223 -214.477220773645
   endloop
endfacet
facet normal -0.965925826289054 0.258819045102575 -9.49739028233921e-014
   outer loop
      vertex 361.293674336613 -806.536186637223 -222.414720773645
      vertex 361.4357261529 -805.457195969435 -214.477220773645
      vertex 361.435726152901 -805.457195969435 -222.414720773645
   endloop
endfacet
facet normal 0.965925826289054 -0.258819045102574 9.49739028233921e-014
   outer loop
      vertex 369.489422139055 -807.615177305011 -222.414720773645
      vertex 369.072947286719 -808.620636541906 -214.477220773645
      vertex 369.07294728672 -808.620636541906 -222.414720773645
   endloop
endfacet
facet normal 0.965925826289054 -0.258819045102574 9.49739028233921e-014
   outer loop
      vertex 369.072947286719 -808.620636541906 -214.477220773645
      vertex 369.489422139055 -807.615177305011 -222.414720773645
      vertex 369.489422139055 -807.615177305011 -214.477220773645
   endloop
endfacet
facet normal 1.0 -5.34131927145087e-014 9.54456674307251e-014
   outer loop
      vertex 369.631473955343 -806.536186637223 -222.414720773645
      vertex 369.489422139055 -807.615177305011 -214.477220773645
      vertex 369.489422139055 -807.615177305011 -222.414720773645
   endloop
endfacet
facet normal 1.0 -5.34131927145087e-014 9.54456674307251e-014
   outer loop
      vertex 369.489422139055 -807.615177305011 -214.477220773645
      vertex 369.631473955343 -806.536186637223 -222.414720773645
      vertex 369.631473955342 -806.536186637223 -214.477220773645
   endloop
endfacet
facet normal 0.707106781186596 0.7071067811865 5.98938998011375e-014
   outer loop
      vertex 368.410431471268 -803.588329311934 -222.414720773645
      vertex 369.07294728672 -804.451736732541 -214.477220773645
      vertex 369.07294728672 -804.451736732541 -222.414720773645
   endloop
endfacet
facet normal 0.707106781186596 0.7071067811865 5.98938998011375e-014
   outer loop
      vertex 369.07294728672 -804.451736732541 -214.477220773645
      vertex 368.410431471268 -803.588329311934 -222.414720773645
      vertex 368.410431471267 -803.588329311934 -214.477220773645
   endloop
endfacet
facet normal 0.866025403784466 0.499999999999953 7.72869216618976e-014
   outer loop
      vertex 369.07294728672 -804.451736732541 -222.414720773645
      vertex 369.489422139055 -805.457195969436 -214.477220773645
      vertex 369.489422139056 -805.457195969436 -222.414720773645
   endloop
endfacet
facet normal 0.866025403784466 0.499999999999953 7.72869216618976e-014
   outer loop
      vertex 369.489422139055 -805.457195969436 -214.477220773645
      vertex 369.07294728672 -804.451736732541 -222.414720773645
      vertex 369.07294728672 -804.451736732541 -214.477220773645
   endloop
endfacet
facet normal 0.500000000000068 0.866025403784399 3.84192076482794e-014
   outer loop
      vertex 367.54702405066 -802.925813496481 -214.477220773645
      vertex 368.410431471268 -803.588329311934 -222.414720773645
      vertex 367.547024050661 -802.925813496481 -222.414720773645
   endloop
endfacet
facet normal 0.500000000000068 0.866025403784399 3.84192076482794e-014
   outer loop
      vertex 368.410431471268 -803.588329311934 -222.414720773645
      vertex 367.54702405066 -802.925813496481 -214.477220773645
      vertex 368.410431471267 -803.588329311934 -214.477220773645
   endloop
endfacet
facet normal -0.965925826289085 -0.258819045102459 -8.94129675340778e-014
   outer loop
      vertex 361.4357261529 -807.615177305011 -214.477220773645
      vertex 361.852201005236 -808.620636541905 -222.414720773645
      vertex 361.852201005235 -808.620636541905 -214.477220773645
   endloop
endfacet
facet normal -0.965925826289085 -0.258819045102459 -8.94129675340778e-014
   outer loop
      vertex 361.852201005236 -808.620636541905 -222.414720773645
      vertex 361.4357261529 -807.615177305011 -214.477220773645
      vertex 361.435726152901 -807.615177305011 -222.414720773645
   endloop
endfacet
facet normal -1.00028035205088e-013 1.12586711502263e-014 1.0
   outer loop
      vertex 361.4357261529 -807.615177305011 -214.477220773645
      vertex 361.4357261529 -805.457195969435 -214.477220773645
      vertex 361.293674336612 -806.536186637223 -214.477220773645
   endloop
endfacet
facet normal -1.00028035205088e-013 1.12586711502263e-014 1.0
   outer loop
      vertex 361.4357261529 -805.457195969435 -214.477220773645
      vertex 361.4357261529 -807.615177305011 -214.477220773645
      vertex 361.852201005235 -808.620636541905 -214.477220773645
   endloop
endfacet
facet normal -1.00028035205088e-013 1.12586711502263e-014 1.0
   outer loop
      vertex 361.4357261529 -805.457195969435 -214.477220773645
      vertex 361.852201005235 -808.620636541905 -214.477220773645
      vertex 361.852201005235 -804.45173673254 -214.477220773645
   endloop
endfacet
facet normal -1.00028035205088e-013 1.12586711502263e-014 1.0
   outer loop
      vertex 361.852201005235 -804.45173673254 -214.477220773645
      vertex 361.852201005235 -808.620636541905 -214.477220773645
      vertex 362.514716820688 -809.484043962512 -214.477220773645
   endloop
endfacet
facet normal -1.00028035205088e-013 1.12586711502263e-014 1.0
   outer loop
      vertex 361.852201005235 -804.45173673254 -214.477220773645
      vertex 362.514716820688 -809.484043962512 -214.477220773645
      vertex 362.514716820688 -803.588329311933 -214.477220773645
   endloop
endfacet
facet normal -1.00028035205088e-013 1.12586711502263e-014 1.0
   outer loop
      vertex 362.514716820688 -803.588329311933 -214.477220773645
      vertex 362.514716820688 -809.484043962512 -214.477220773645
      vertex 363.378124241295 -810.146559777965 -214.477220773645
   endloop
endfacet
facet normal -1.00028035205088e-013 1.12586711502263e-014 1.0
   outer loop
      vertex 362.514716820688 -803.588329311933 -214.477220773645
      vertex 363.378124241295 -810.146559777965 -214.477220773645
      vertex 363.378124241295 -802.925813496481 -214.477220773645
   endloop
endfacet
facet normal -1.00028035205088e-013 1.12586711502263e-014 1.0
   outer loop
      vertex 363.378124241295 -802.925813496481 -214.477220773645
      vertex 363.378124241295 -810.146559777965 -214.477220773645
      vertex 363.481623764708 -806.536186637223 -214.477220773645
   endloop
endfacet
facet normal -1.00028035205088e-013 1.12586711502263e-014 1.0
   outer loop
      vertex 363.481623764708 -806.536186637223 -214.477220773645
      vertex 363.378124241295 -810.146559777965 -214.477220773645
      vertex 363.549123012112 -807.048894323299 -214.477220773645
   endloop
endfacet
facet normal -1.00028035205088e-013 1.12586711502263e-014 1.0
   outer loop
      vertex 363.549123012112 -807.048894323299 -214.477220773645
      vertex 363.378124241295 -810.146559777965 -214.477220773645
      vertex 364.383583478189 -810.5630346303 -214.477220773645
   endloop
endfacet
facet normal -1.00028035205088e-013 1.12586711502263e-014 1.0
   outer loop
      vertex 363.549123012112 -807.048894323299 -214.477220773645
      vertex 364.383583478189 -810.5630346303 -214.477220773645
      vertex 363.747020792161 -807.526661827858 -214.477220773645
   endloop
endfacet
facet normal -1.00028035205088e-013 1.12586711502263e-014 1.0
   outer loop
      vertex 363.747020792161 -807.526661827858 -214.477220773645
      vertex 364.383583478189 -810.5630346303 -214.477220773645
      vertex 364.061830698187 -807.936930085013 -214.477220773645
   endloop
endfacet
facet normal -1.00028035205088e-013 1.12586711502263e-014 1.0
   outer loop
      vertex 364.061830698187 -807.936930085013 -214.477220773645
      vertex 364.383583478189 -810.5630346303 -214.477220773645
      vertex 364.472098955342 -808.251739991039 -214.477220773645
   endloop
endfacet
facet normal -1.00028035205088e-013 1.12586711502263e-014 1.0
   outer loop
      vertex 364.472098955342 -808.251739991039 -214.477220773645
      vertex 364.383583478189 -810.5630346303 -214.477220773645
      vertex 365.462574145977 -810.705086446588 -214.477220773645
   endloop
endfacet
facet normal -1.00028035205088e-013 1.12586711502263e-014 1.0
   outer loop
      vertex 364.472098955342 -808.251739991039 -214.477220773645
      vertex 365.462574145977 -810.705086446588 -214.477220773645
      vertex 364.949866459902 -808.449637771089 -214.477220773645
   endloop
endfacet
facet normal -1.00028035205088e-013 1.12586711502263e-014 1.0
   outer loop
      vertex 364.949866459902 -808.449637771089 -214.477220773645
      vertex 365.462574145977 -810.705086446588 -214.477220773645
      vertex 365.462574145977 -808.517137018493 -214.477220773645
   endloop
endfacet
facet normal -1.00028035205088e-013 1.12586711502263e-014 1.0
   outer loop
      vertex 365.462574145977 -808.517137018493 -214.477220773645
      vertex 365.462574145977 -810.705086446588 -214.477220773645
      vertex 365.975281832053 -808.449637771089 -214.477220773645
   endloop
endfacet
facet normal -1.00028035205088e-013 1.12586711502263e-014 1.0
   outer loop
      vertex 365.975281832053 -808.449637771089 -214.477220773645
      vertex 365.462574145977 -810.705086446588 -214.477220773645
      vertex 366.541564813765 -810.5630346303 -214.477220773645
   endloop
endfacet
facet normal -1.00028035205088e-013 1.12586711502263e-014 1.0
   outer loop
      vertex 365.975281832053 -808.449637771089 -214.477220773645
      vertex 366.541564813765 -810.5630346303 -214.477220773645
      vertex 366.453049336612 -808.251739991039 -214.477220773645
   endloop
endfacet
facet normal -1.00028035205088e-013 1.12586711502263e-014 1.0
   outer loop
      vertex 366.453049336612 -808.251739991039 -214.477220773645
      vertex 366.541564813765 -810.5630346303 -214.477220773645
      vertex 366.863317593767 -807.936930085013 -214.477220773645
   endloop
endfacet
facet normal -1.00028035205088e-013 1.12586711502263e-014 1.0
   outer loop
      vertex 366.863317593767 -807.936930085013 -214.477220773645
      vertex 366.541564813765 -810.5630346303 -214.477220773645
      vertex 367.54702405066 -810.146559777965 -214.477220773645
   endloop
endfacet
facet normal -1.00028035205088e-013 1.12586711502263e-014 1.0
   outer loop
      vertex 366.863317593767 -807.936930085013 -214.477220773645
      vertex 367.54702405066 -810.146559777965 -214.477220773645
      vertex 367.178127499793 -807.526661827858 -214.477220773645
   endloop
endfacet
facet normal -1.00028035205088e-013 1.12586711502263e-014 1.0
   outer loop
      vertex 367.178127499793 -807.526661827858 -214.477220773645
      vertex 367.54702405066 -810.146559777965 -214.477220773645
      vertex 367.376025279843 -807.048894323299 -214.477220773645
   endloop
endfacet
facet normal -1.00028035205088e-013 1.12586711502263e-014 1.0
   outer loop
      vertex 367.376025279843 -807.048894323299 -214.477220773645
      vertex 367.54702405066 -810.146559777965 -214.477220773645
      vertex 367.443524527247 -806.536186637223 -214.477220773645
   endloop
endfacet
facet normal -1.00028035205088e-013 1.12586711502263e-014 1.0
   outer loop
      vertex 363.378124241295 -802.925813496481 -214.477220773645
      vertex 363.549123012112 -806.023478951147 -214.477220773645
      vertex 364.383583478189 -802.509338644146 -214.477220773645
   endloop
endfacet
facet normal -1.00028035205088e-013 1.12586711502263e-014 1.0
   outer loop
      vertex 363.549123012112 -806.023478951147 -214.477220773645
      vertex 363.378124241295 -802.925813496481 -214.477220773645
      vertex 363.481623764708 -806.536186637223 -214.477220773645
   endloop
endfacet
facet normal -1.00028035205088e-013 1.12586711502263e-014 1.0
   outer loop
      vertex 364.383583478189 -802.509338644146 -214.477220773645
      vertex 363.549123012112 -806.023478951147 -214.477220773645
      vertex 363.747020792161 -805.545711446588 -214.477220773645
   endloop
endfacet
facet normal -1.00028035205088e-013 1.12586711502263e-014 1.0
   outer loop
      vertex 364.383583478189 -802.509338644146 -214.477220773645
      vertex 363.747020792161 -805.545711446588 -214.477220773645
      vertex 364.061830698187 -805.135443189433 -214.477220773645
   endloop
endfacet
facet normal -1.00028035205088e-013 1.12586711502263e-014 1.0
   outer loop
      vertex 364.383583478189 -802.509338644146 -214.477220773645
      vertex 364.061830698187 -805.135443189433 -214.477220773645
      vertex 364.472098955342 -804.820633283407 -214.477220773645
   endloop
endfacet
facet normal -1.00028035205088e-013 1.12586711502263e-014 1.0
   outer loop
      vertex 364.383583478189 -802.509338644146 -214.477220773645
      vertex 364.472098955342 -804.820633283407 -214.477220773645
      vertex 365.462574145978 -802.367286827858 -214.477220773645
   endloop
endfacet
facet normal -1.00028035205088e-013 1.12586711502263e-014 1.0
   outer loop
      vertex 365.462574145978 -802.367286827858 -214.477220773645
      vertex 364.472098955342 -804.820633283407 -214.477220773645
      vertex 364.949866459902 -804.622735503357 -214.477220773645
   endloop
endfacet
facet normal -1.00028035205088e-013 1.12586711502263e-014 1.0
   outer loop
      vertex 365.462574145978 -802.367286827858 -214.477220773645
      vertex 364.949866459902 -804.622735503357 -214.477220773645
      vertex 365.462574145978 -804.555236255953 -214.477220773645
   endloop
endfacet
facet normal -1.00028035205088e-013 1.12586711502263e-014 1.0
   outer loop
      vertex 365.462574145978 -802.367286827858 -214.477220773645
      vertex 365.462574145978 -804.555236255953 -214.477220773645
      vertex 366.541564813766 -802.509338644146 -214.477220773645
   endloop
endfacet
facet normal -1.00028035205088e-013 1.12586711502263e-014 1.0
   outer loop
      vertex 366.541564813766 -802.509338644146 -214.477220773645
      vertex 365.462574145978 -804.555236255953 -214.477220773645
      vertex 365.975281832053 -804.622735503357 -214.477220773645
   endloop
endfacet
facet normal -1.00028035205088e-013 1.12586711502263e-014 1.0
   outer loop
      vertex 366.541564813766 -802.509338644146 -214.477220773645
      vertex 365.975281832053 -804.622735503357 -214.477220773645
      vertex 366.453049336612 -804.820633283407 -214.477220773645
   endloop
endfacet
facet normal -1.00028035205088e-013 1.12586711502263e-014 1.0
   outer loop
      vertex 366.541564813766 -802.509338644146 -214.477220773645
      vertex 366.453049336612 -804.820633283407 -214.477220773645
      vertex 366.863317593767 -805.135443189433 -214.477220773645
   endloop
endfacet
facet normal -1.00028035205088e-013 1.12586711502263e-014 1.0
   outer loop
      vertex 366.541564813766 -802.509338644146 -214.477220773645
      vertex 366.863317593767 -805.135443189433 -214.477220773645
      vertex 367.54702405066 -802.925813496481 -214.477220773645
   endloop
endfacet
facet normal -1.00028035205088e-013 1.12586711502263e-014 1.0
   outer loop
      vertex 367.54702405066 -802.925813496481 -214.477220773645
      vertex 366.863317593767 -805.135443189433 -214.477220773645
      vertex 367.178127499793 -805.545711446588 -214.477220773645
   endloop
endfacet
facet normal -1.00028035205088e-013 1.12586711502263e-014 1.0
   outer loop
      vertex 367.54702405066 -802.925813496481 -214.477220773645
      vertex 367.178127499793 -805.545711446588 -214.477220773645
      vertex 367.376025279843 -806.023478951148 -214.477220773645
   endloop
endfacet
facet normal -1.00028035205088e-013 1.12586711502263e-014 1.0
   outer loop
      vertex 367.54702405066 -802.925813496481 -214.477220773645
      vertex 367.376025279843 -806.023478951148 -214.477220773645
      vertex 367.443524527247 -806.536186637223 -214.477220773645
   endloop
endfacet
facet normal -1.00028035205088e-013 1.12586711502263e-014 1.0
   outer loop
      vertex 367.54702405066 -802.925813496481 -214.477220773645
      vertex 367.443524527247 -806.536186637223 -214.477220773645
      vertex 367.54702405066 -810.146559777965 -214.477220773645
   endloop
endfacet
facet normal -1.00028035205088e-013 1.12586711502263e-014 1.0
   outer loop
      vertex 367.54702405066 -802.925813496481 -214.477220773645
      vertex 367.54702405066 -810.146559777965 -214.477220773645
      vertex 368.410431471267 -809.484043962513 -214.477220773645
   endloop
endfacet
facet normal -1.00028035205088e-013 1.12586711502263e-014 1.0
   outer loop
      vertex 367.54702405066 -802.925813496481 -214.477220773645
      vertex 368.410431471267 -809.484043962513 -214.477220773645
      vertex 368.410431471267 -803.588329311934 -214.477220773645
   endloop
endfacet
facet normal -1.00028035205088e-013 1.12586711502263e-014 1.0
   outer loop
      vertex 368.410431471267 -803.588329311934 -214.477220773645
      vertex 368.410431471267 -809.484043962513 -214.477220773645
      vertex 369.072947286719 -808.620636541906 -214.477220773645
   endloop
endfacet
facet normal -1.00028035205088e-013 1.12586711502263e-014 1.0
   outer loop
      vertex 368.410431471267 -803.588329311934 -214.477220773645
      vertex 369.072947286719 -808.620636541906 -214.477220773645
      vertex 369.07294728672 -804.451736732541 -214.477220773645
   endloop
endfacet
facet normal -1.00028035205088e-013 1.12586711502263e-014 1.0
   outer loop
      vertex 369.07294728672 -804.451736732541 -214.477220773645
      vertex 369.072947286719 -808.620636541906 -214.477220773645
      vertex 369.489422139055 -807.615177305011 -214.477220773645
   endloop
endfacet
facet normal -1.00028035205088e-013 1.12586711502263e-014 1.0
   outer loop
      vertex 369.07294728672 -804.451736732541 -214.477220773645
      vertex 369.489422139055 -807.615177305011 -214.477220773645
      vertex 369.489422139055 -805.457195969436 -214.477220773645
   endloop
endfacet
facet normal -1.00028035205088e-013 1.12586711502263e-014 1.0
   outer loop
      vertex 369.489422139055 -805.457195969436 -214.477220773645
      vertex 369.489422139055 -807.615177305011 -214.477220773645
      vertex 369.631473955342 -806.536186637223 -214.477220773645
   endloop
endfacet
facet normal -1.0 5.51419480342635e-014 -9.54456674307251e-014
   outer loop
      vertex 361.293674336612 -806.536186637223 -214.477220773645
      vertex 361.435726152901 -807.615177305011 -222.414720773645
      vertex 361.4357261529 -807.615177305011 -214.477220773645
   endloop
endfacet
facet normal -1.0 5.51419480342635e-014 -9.54456674307251e-014
   outer loop
      vertex 361.435726152901 -807.615177305011 -222.414720773645
      vertex 361.293674336612 -806.536186637223 -214.477220773645
      vertex 361.293674336613 -806.536186637223 -222.414720773645
   endloop
endfacet
facet normal -0.258819045102613 -0.965925826289044 -1.43263099849344e-014
   outer loop
      vertex 364.38358347819 -810.5630346303 -222.414720773645
      vertex 363.378124241295 -810.146559777965 -214.477220773645
      vertex 363.378124241296 -810.146559777965 -222.414720773645
   endloop
endfacet
facet normal -0.258819045102613 -0.965925826289044 -1.43263099849344e-014
   outer loop
      vertex 363.378124241295 -810.146559777965 -214.477220773645
      vertex 364.38358347819 -810.5630346303 -222.414720773645
      vertex 364.383583478189 -810.5630346303 -214.477220773645
   endloop
endfacet
facet normal -0.500000000000068 -0.866025403784399 -3.84192076482794e-014
   outer loop
      vertex 363.378124241296 -810.146559777965 -222.414720773645
      vertex 362.514716820688 -809.484043962512 -214.477220773645
      vertex 362.514716820688 -809.484043962512 -222.414720773645
   endloop
endfacet
facet normal -0.500000000000068 -0.866025403784399 -3.84192076482794e-014
   outer loop
      vertex 362.514716820688 -809.484043962512 -214.477220773645
      vertex 363.378124241296 -810.146559777965 -222.414720773645
      vertex 363.378124241295 -810.146559777965 -214.477220773645
   endloop
endfacet
facet normal 8.92447656049043e-014 1.0 -1.07429020285392e-014
   outer loop
      vertex 365.462574145978 -802.367286827858 -214.477220773645
      vertex 366.541564813767 -802.509338644146 -222.414720773645
      vertex 365.462574145978 -802.367286827858 -222.414720773645
   endloop
endfacet
facet normal 8.92447656049043e-014 1.0 -1.07429020285392e-014
   outer loop
      vertex 366.541564813767 -802.509338644146 -222.414720773645
      vertex 365.462574145978 -802.367286827858 -214.477220773645
      vertex 366.541564813766 -802.509338644146 -214.477220773645
   endloop
endfacet
facet normal 0.866025403784485 0.499999999999919 7.63371670138436e-014
   outer loop
      vertex 370.28629102303 -803.751212399763 -224.002220773645
      vertex 370.842731229004 -805.094577891674 -222.414720773645
      vertex 370.842731229004 -805.094577891674 -224.002220773645
   endloop
endfacet
facet normal 0.866025403784485 0.499999999999919 7.63371670138436e-014
   outer loop
      vertex 370.842731229004 -805.094577891674 -222.414720773645
      vertex 370.28629102303 -803.751212399763 -224.002220773645
      vertex 370.28629102303 -803.751212399763 -222.414720773645
   endloop
endfacet
facet normal 0.965925826289081 0.258819045102472 8.82717189006832e-014
   outer loop
      vertex 370.842731229004 -805.094577891674 -224.002220773645
      vertex 371.032522620899 -806.536186637224 -222.414720773645
      vertex 371.032522620899 -806.536186637224 -224.002220773645
   endloop
endfacet
facet normal 0.965925826289081 0.258819045102472 8.82717189006832e-014
   outer loop
      vertex 371.032522620899 -806.536186637224 -222.414720773645
      vertex 370.842731229004 -805.094577891674 -224.002220773645
      vertex 370.842731229004 -805.094577891674 -222.414720773645
   endloop
endfacet
facet normal 1.0 -6.12906138622594e-014 9.41906990203565e-014
   outer loop
      vertex 371.032522620899 -806.536186637224 -224.002220773645
      vertex 370.842731229004 -807.977795382773 -222.414720773644
      vertex 370.842731229004 -807.977795382773 -224.002220773644
   endloop
endfacet
facet normal 1.0 -6.12906138622594e-014 9.41906990203565e-014
   outer loop
      vertex 370.842731229004 -807.977795382773 -222.414720773644
      vertex 371.032522620899 -806.536186637224 -224.002220773645
      vertex 371.032522620899 -806.536186637224 -222.414720773645
   endloop
endfacet
facet normal 0.965925826289052 -0.258819045102582 9.36907386592819e-014
   outer loop
      vertex 370.842731229004 -807.977795382773 -224.002220773644
      vertex 370.28629102303 -809.321160874684 -222.414720773644
      vertex 370.28629102303 -809.321160874684 -224.002220773644
   endloop
endfacet
facet normal 0.965925826289052 -0.258819045102582 9.36907386592819e-014
   outer loop
      vertex 370.28629102303 -809.321160874684 -222.414720773644
      vertex 370.842731229004 -807.977795382773 -224.002220773644
      vertex 370.842731229004 -807.977795382773 -222.414720773644
   endloop
endfacet
facet normal 0.866025403784412 -0.500000000000046 8.6805909289844e-014
   outer loop
      vertex 370.28629102303 -809.321160874684 -224.002220773644
      vertex 369.401122483454 -810.4747349747 -222.414720773645
      vertex 369.401122483454 -810.4747349747 -224.002220773645
   endloop
endfacet
facet normal 0.866025403784412 -0.500000000000046 8.6805909289844e-014
   outer loop
      vertex 369.401122483454 -810.4747349747 -222.414720773645
      vertex 370.28629102303 -809.321160874684 -224.002220773644
      vertex 370.28629102303 -809.321160874684 -222.414720773644
   endloop
endfacet
facet normal 0.70710678118649 -0.707106781186606 7.40054006558491e-014
   outer loop
      vertex 369.401122483454 -810.4747349747 -224.002220773645
      vertex 368.247548383438 -811.359903514275 -222.414720773645
      vertex 368.247548383438 -811.359903514275 -224.002220773645
   endloop
endfacet
facet normal 0.70710678118649 -0.707106781186606 7.40054006558491e-014
   outer loop
      vertex 368.247548383438 -811.359903514275 -222.414720773645
      vertex 369.401122483454 -810.4747349747 -224.002220773645
      vertex 369.401122483454 -810.4747349747 -222.414720773645
   endloop
endfacet
facet normal 9.43986513789393e-014 -1.09599421633615e-014 -1.0
   outer loop
      vertex 364.020965400429 -801.156029554197 -224.002220773645
      vertex 363.481623764709 -806.536186637223 -224.002220773645
      vertex 362.677599908518 -801.712469760171 -224.002220773645
   endloop
endfacet
facet normal 9.43986513789393e-014 -1.09599421633615e-014 -1.0
   outer loop
      vertex 363.481623764709 -806.536186637223 -224.002220773645
      vertex 364.020965400429 -801.156029554197 -224.002220773645
      vertex 363.549123012113 -806.023478951147 -224.002220773645
   endloop
endfacet
facet normal 9.43986513789393e-014 -1.09599421633615e-014 -1.0
   outer loop
      vertex 363.549123012113 -806.023478951147 -224.002220773645
      vertex 364.020965400429 -801.156029554197 -224.002220773645
      vertex 363.747020792163 -805.545711446588 -224.002220773645
   endloop
endfacet
facet normal 9.43986513789393e-014 -1.09599421633615e-014 -1.0
   outer loop
      vertex 363.747020792163 -805.545711446588 -224.002220773645
      vertex 364.020965400429 -801.156029554197 -224.002220773645
      vertex 364.061830698189 -805.135443189433 -224.002220773645
   endloop
endfacet
facet normal 9.43986513789393e-014 -1.09599421633615e-014 -1.0
   outer loop
      vertex 364.061830698189 -805.135443189433 -224.002220773645
      vertex 364.020965400429 -801.156029554197 -224.002220773645
      vertex 365.462574145978 -800.966238162302 -224.002220773645
   endloop
endfacet
facet normal 9.43986513789393e-014 -1.09599421633615e-014 -1.0
   outer loop
      vertex 364.061830698189 -805.135443189433 -224.002220773645
      vertex 365.462574145978 -800.966238162302 -224.002220773645
      vertex 364.472098955344 -804.820633283407 -224.002220773645
   endloop
endfacet
facet normal 9.43986513789393e-014 -1.09599421633615e-014 -1.0
   outer loop
      vertex 364.472098955344 -804.820633283407 -224.002220773645
      vertex 365.462574145978 -800.966238162302 -224.002220773645
      vertex 364.949866459903 -804.622735503357 -224.002220773645
   endloop
endfacet
facet normal 9.43986513789393e-014 -1.09599421633615e-014 -1.0
   outer loop
      vertex 364.949866459903 -804.622735503357 -224.002220773645
      vertex 365.462574145978 -800.966238162302 -224.002220773645
      vertex 365.462574145979 -804.555236255953 -224.002220773645
   endloop
endfacet
facet normal 9.43986513789393e-014 -1.09599421633615e-014 -1.0
   outer loop
      vertex 365.462574145979 -804.555236255953 -224.002220773645
      vertex 365.462574145978 -800.966238162302 -224.002220773645
      vertex 366.904182891528 -801.156029554198 -224.002220773645
   endloop
endfacet
facet normal 9.43986513789393e-014 -1.09599421633615e-014 -1.0
   outer loop
      vertex 365.462574145979 -804.555236255953 -224.002220773645
      vertex 366.904182891528 -801.156029554198 -224.002220773645
      vertex 365.975281832054 -804.622735503357 -224.002220773645
   endloop
endfacet
facet normal 9.43986513789393e-014 -1.09599421633615e-014 -1.0
   outer loop
      vertex 365.975281832054 -804.622735503357 -224.002220773645
      vertex 366.904182891528 -801.156029554198 -224.002220773645
      vertex 366.453049336614 -804.820633283407 -224.002220773645
   endloop
endfacet
facet normal 9.43986513789393e-014 -1.09599421633615e-014 -1.0
   outer loop
      vertex 366.453049336614 -804.820633283407 -224.002220773645
      vertex 366.904182891528 -801.156029554198 -224.002220773645
      vertex 366.863317593769 -805.135443189433 -224.002220773645
   endloop
endfacet
facet normal 9.43986513789393e-014 -1.09599421633615e-014 -1.0
   outer loop
      vertex 366.863317593769 -805.135443189433 -224.002220773645
      vertex 366.904182891528 -801.156029554198 -224.002220773645
      vertex 367.178127499795 -805.545711446588 -224.002220773645
   endloop
endfacet
facet normal 9.43986513789393e-014 -1.09599421633615e-014 -1.0
   outer loop
      vertex 367.178127499795 -805.545711446588 -224.002220773645
      vertex 366.904182891528 -801.156029554198 -224.002220773645
      vertex 368.247548383439 -801.712469760171 -224.002220773645
   endloop
endfacet
facet normal 9.43986513789393e-014 -1.09599421633615e-014 -1.0
   outer loop
      vertex 367.178127499795 -805.545711446588 -224.002220773645
      vertex 368.247548383439 -801.712469760171 -224.002220773645
      vertex 367.376025279844 -806.023478951148 -224.002220773645
   endloop
endfacet
facet normal 9.43986513789393e-014 -1.09599421633615e-014 -1.0
   outer loop
      vertex 367.376025279844 -806.023478951148 -224.002220773645
      vertex 368.247548383439 -801.712469760171 -224.002220773645
      vertex 367.443524527248 -806.536186637223 -224.002220773645
   endloop
endfacet
facet normal 9.43986513789393e-014 -1.09599421633615e-014 -1.0
   outer loop
      vertex 367.443524527248 -806.536186637223 -224.002220773645
      vertex 368.247548383439 -801.712469760171 -224.002220773645
      vertex 368.247548383438 -811.359903514275 -224.002220773645
   endloop
endfacet
facet normal 9.43986513789393e-014 -1.09599421633615e-014 -1.0
   outer loop
      vertex 368.247548383438 -811.359903514275 -224.002220773645
      vertex 368.247548383439 -801.712469760171 -224.002220773645
      vertex 369.401122483454 -810.4747349747 -224.002220773645
   endloop
endfacet
facet normal 9.43986513789393e-014 -1.09599421633615e-014 -1.0
   outer loop
      vertex 369.401122483454 -810.4747349747 -224.002220773645
      vertex 368.247548383439 -801.712469760171 -224.002220773645
      vertex 369.401122483455 -802.597638299747 -224.002220773645
   endloop
endfacet
facet normal 9.43986513789393e-014 -1.09599421633615e-014 -1.0
   outer loop
      vertex 369.401122483454 -810.4747349747 -224.002220773645
      vertex 369.401122483455 -802.597638299747 -224.002220773645
      vertex 370.28629102303 -809.321160874684 -224.002220773644
   endloop
endfacet
facet normal 9.43986513789393e-014 -1.09599421633615e-014 -1.0
   outer loop
      vertex 370.28629102303 -809.321160874684 -224.002220773644
      vertex 369.401122483455 -802.597638299747 -224.002220773645
      vertex 370.28629102303 -803.751212399763 -224.002220773645
   endloop
endfacet
facet normal 9.43986513789393e-014 -1.09599421633615e-014 -1.0
   outer loop
      vertex 370.28629102303 -809.321160874684 -224.002220773644
      vertex 370.28629102303 -803.751212399763 -224.002220773645
      vertex 370.842731229004 -807.977795382773 -224.002220773644
   endloop
endfacet
facet normal 9.43986513789393e-014 -1.09599421633615e-014 -1.0
   outer loop
      vertex 370.842731229004 -807.977795382773 -224.002220773644
      vertex 370.28629102303 -803.751212399763 -224.002220773645
      vertex 370.842731229004 -805.094577891674 -224.002220773645
   endloop
endfacet
facet normal 9.43986513789393e-014 -1.09599421633615e-014 -1.0
   outer loop
      vertex 370.842731229004 -807.977795382773 -224.002220773644
      vertex 370.842731229004 -805.094577891674 -224.002220773645
      vertex 371.032522620899 -806.536186637224 -224.002220773645
   endloop
endfacet
facet normal 9.43986513789393e-014 -1.09599421633615e-014 -1.0
   outer loop
      vertex 360.082417062953 -805.094577891674 -224.002220773646
      vertex 360.082417062953 -807.977795382772 -224.002220773646
      vertex 359.892625671057 -806.536186637223 -224.002220773646
   endloop
endfacet
facet normal 9.43986513789393e-014 -1.09599421633615e-014 -1.0
   outer loop
      vertex 360.082417062953 -807.977795382772 -224.002220773646
      vertex 360.082417062953 -805.094577891674 -224.002220773646
      vertex 360.638857268926 -809.321160874683 -224.002220773645
   endloop
endfacet
facet normal 9.43986513789393e-014 -1.09599421633615e-014 -1.0
   outer loop
      vertex 360.638857268926 -809.321160874683 -224.002220773645
      vertex 360.082417062953 -805.094577891674 -224.002220773646
      vertex 360.638857268926 -803.751212399762 -224.002220773646
   endloop
endfacet
facet normal 9.43986513789393e-014 -1.09599421633615e-014 -1.0
   outer loop
      vertex 360.638857268926 -809.321160874683 -224.002220773645
      vertex 360.638857268926 -803.751212399762 -224.002220773646
      vertex 361.524025808502 -810.474734974699 -224.002220773645
   endloop
endfacet
facet normal 9.43986513789393e-014 -1.09599421633615e-014 -1.0
   outer loop
      vertex 361.524025808502 -810.474734974699 -224.002220773645
      vertex 360.638857268926 -803.751212399762 -224.002220773646
      vertex 361.524025808502 -802.597638299747 -224.002220773645
   endloop
endfacet
facet normal 9.43986513789393e-014 -1.09599421633615e-014 -1.0
   outer loop
      vertex 361.524025808502 -810.474734974699 -224.002220773645
      vertex 361.524025808502 -802.597638299747 -224.002220773645
      vertex 362.677599908517 -811.359903514275 -224.002220773645
   endloop
endfacet
facet normal 9.43986513789393e-014 -1.09599421633615e-014 -1.0
   outer loop
      vertex 362.677599908517 -811.359903514275 -224.002220773645
      vertex 361.524025808502 -802.597638299747 -224.002220773645
      vertex 362.677599908518 -801.712469760171 -224.002220773645
   endloop
endfacet
facet normal 9.43986513789393e-014 -1.09599421633615e-014 -1.0
   outer loop
      vertex 362.677599908517 -811.359903514275 -224.002220773645
      vertex 362.677599908518 -801.712469760171 -224.002220773645
      vertex 364.020965400429 -811.916343720249 -224.002220773645
   endloop
endfacet
facet normal 9.43986513789393e-014 -1.09599421633615e-014 -1.0
   outer loop
      vertex 364.020965400429 -811.916343720249 -224.002220773645
      vertex 362.677599908518 -801.712469760171 -224.002220773645
      vertex 363.481623764709 -806.536186637223 -224.002220773645
   endloop
endfacet
facet normal 9.43986513789393e-014 -1.09599421633615e-014 -1.0
   outer loop
      vertex 364.020965400429 -811.916343720249 -224.002220773645
      vertex 363.481623764709 -806.536186637223 -224.002220773645
      vertex 363.549123012113 -807.048894323299 -224.002220773645
   endloop
endfacet
facet normal 9.43986513789393e-014 -1.09599421633615e-014 -1.0
   outer loop
      vertex 364.020965400429 -811.916343720249 -224.002220773645
      vertex 363.549123012113 -807.048894323299 -224.002220773645
      vertex 363.747020792162 -807.526661827858 -224.002220773645
   endloop
endfacet
facet normal 9.43986513789393e-014 -1.09599421633615e-014 -1.0
   outer loop
      vertex 364.020965400429 -811.916343720249 -224.002220773645
      vertex 363.747020792162 -807.526661827858 -224.002220773645
      vertex 364.061830698188 -807.936930085013 -224.002220773645
   endloop
endfacet
facet normal 9.43986513789393e-014 -1.09599421633615e-014 -1.0
   outer loop
      vertex 364.020965400429 -811.916343720249 -224.002220773645
      vertex 364.061830698188 -807.936930085013 -224.002220773645
      vertex 365.462574145978 -812.106135112144 -224.002220773645
   endloop
endfacet
facet normal 9.43986513789393e-014 -1.09599421633615e-014 -1.0
   outer loop
      vertex 365.462574145978 -812.106135112144 -224.002220773645
      vertex 364.061830698188 -807.936930085013 -224.002220773645
      vertex 364.472098955343 -808.251739991039 -224.002220773645
   endloop
endfacet
facet normal 9.43986513789393e-014 -1.09599421633615e-014 -1.0
   outer loop
      vertex 365.462574145978 -812.106135112144 -224.002220773645
      vertex 364.472098955343 -808.251739991039 -224.002220773645
      vertex 364.949866459903 -808.449637771089 -224.002220773645
   endloop
endfacet
facet normal 9.43986513789393e-014 -1.09599421633615e-014 -1.0
   outer loop
      vertex 365.462574145978 -812.106135112144 -224.002220773645
      vertex 364.949866459903 -808.449637771089 -224.002220773645
      vertex 365.462574145978 -808.517137018493 -224.002220773645
   endloop
endfacet
facet normal 9.43986513789393e-014 -1.09599421633615e-014 -1.0
   outer loop
      vertex 365.462574145978 -812.106135112144 -224.002220773645
      vertex 365.462574145978 -808.517137018493 -224.002220773645
      vertex 365.975281832054 -808.449637771089 -224.002220773645
   endloop
endfacet
facet normal 9.43986513789393e-014 -1.09599421633615e-014 -1.0
   outer loop
      vertex 365.462574145978 -812.106135112144 -224.002220773645
      vertex 365.975281832054 -808.449637771089 -224.002220773645
      vertex 366.904182891527 -811.916343720249 -224.002220773645
   endloop
endfacet
facet normal 9.43986513789393e-014 -1.09599421633615e-014 -1.0
   outer loop
      vertex 366.904182891527 -811.916343720249 -224.002220773645
      vertex 365.975281832054 -808.449637771089 -224.002220773645
      vertex 366.453049336614 -808.251739991039 -224.002220773645
   endloop
endfacet
facet normal 9.43986513789393e-014 -1.09599421633615e-014 -1.0
   outer loop
      vertex 366.904182891527 -811.916343720249 -224.002220773645
      vertex 366.453049336614 -808.251739991039 -224.002220773645
      vertex 366.863317593768 -807.936930085013 -224.002220773645
   endloop
endfacet
facet normal 9.43986513789393e-014 -1.09599421633615e-014 -1.0
   outer loop
      vertex 366.904182891527 -811.916343720249 -224.002220773645
      vertex 366.863317593768 -807.936930085013 -224.002220773645
      vertex 367.178127499794 -807.526661827858 -224.002220773645
   endloop
endfacet
facet normal 9.43986513789393e-014 -1.09599421633615e-014 -1.0
   outer loop
      vertex 366.904182891527 -811.916343720249 -224.002220773645
      vertex 367.178127499794 -807.526661827858 -224.002220773645
      vertex 368.247548383438 -811.359903514275 -224.002220773645
   endloop
endfacet
facet normal 9.43986513789393e-014 -1.09599421633615e-014 -1.0
   outer loop
      vertex 368.247548383438 -811.359903514275 -224.002220773645
      vertex 367.178127499794 -807.526661827858 -224.002220773645
      vertex 367.376025279844 -807.048894323299 -224.002220773645
   endloop
endfacet
facet normal 9.43986513789393e-014 -1.09599421633615e-014 -1.0
   outer loop
      vertex 368.247548383438 -811.359903514275 -224.002220773645
      vertex 367.376025279844 -807.048894323299 -224.002220773645
      vertex 367.443524527248 -806.536186637223 -224.002220773645
   endloop
endfacet
facet normal 0.499999999999942 -0.866025403784472 5.61615462668675e-014
   outer loop
      vertex 368.247548383438 -811.359903514275 -224.002220773645
      vertex 366.904182891527 -811.916343720249 -222.414720773645
      vertex 366.904182891527 -811.916343720249 -224.002220773645
   endloop
endfacet
facet normal 0.499999999999942 -0.866025403784472 5.61615462668675e-014
   outer loop
      vertex 366.904182891527 -811.916343720249 -222.414720773645
      vertex 368.247548383438 -811.359903514275 -224.002220773645
      vertex 368.247548383438 -811.359903514275 -222.414720773645
   endloop
endfacet
facet normal 0.258819045102473 -0.965925826289081 3.4490375311143e-014
   outer loop
      vertex 366.904182891527 -811.916343720249 -224.002220773645
      vertex 365.462574145978 -812.106135112144 -222.414720773645
      vertex 365.462574145978 -812.106135112144 -224.002220773645
   endloop
endfacet
facet normal 0.258819045102473 -0.965925826289081 3.4490375311143e-014
   outer loop
      vertex 365.462574145978 -812.106135112144 -222.414720773645
      vertex 366.904182891527 -811.916343720249 -224.002220773645
      vertex 366.904182891527 -811.916343720249 -222.414720773645
   endloop
endfacet
facet normal -7.33919011005493e-014 -1.0 1.04687422760007e-014
   outer loop
      vertex 365.462574145978 -812.106135112144 -224.002220773645
      vertex 364.020965400428 -811.916343720249 -222.414720773645
      vertex 364.020965400429 -811.916343720249 -224.002220773645
   endloop
endfacet
facet normal -7.33919011005493e-014 -1.0 1.04687422760007e-014
   outer loop
      vertex 364.020965400428 -811.916343720249 -222.414720773645
      vertex 365.462574145978 -812.106135112144 -224.002220773645
      vertex 365.462574145978 -812.106135112144 -222.414720773645
   endloop
endfacet
facet normal -0.258819045102593 -0.965925826289049 -1.42663182448345e-014
   outer loop
      vertex 364.020965400429 -811.916343720249 -224.002220773645
      vertex 362.677599908517 -811.359903514275 -222.414720773645
      vertex 362.677599908517 -811.359903514275 -224.002220773645
   endloop
endfacet
facet normal -0.258819045102593 -0.965925826289049 -1.42663182448345e-014
   outer loop
      vertex 362.677599908517 -811.359903514275 -222.414720773645
      vertex 364.020965400429 -811.916343720249 -224.002220773645
      vertex 364.020965400428 -811.916343720249 -222.414720773645
   endloop
endfacet
facet normal -0.500000000000033 -0.86602540378442 -3.80291527534865e-014
   outer loop
      vertex 362.677599908517 -811.359903514275 -224.002220773645
      vertex 361.524025808502 -810.474734974699 -222.414720773645
      vertex 361.524025808502 -810.474734974699 -224.002220773645
   endloop
endfacet
facet normal -0.500000000000033 -0.86602540378442 -3.80291527534865e-014
   outer loop
      vertex 361.524025808502 -810.474734974699 -222.414720773645
      vertex 362.677599908517 -811.359903514275 -224.002220773645
      vertex 362.677599908517 -811.359903514275 -222.414720773645
   endloop
endfacet
facet normal -0.866025403784485 -0.499999999999919 -7.63371670138436e-014
   outer loop
      vertex 360.638857268926 -809.321160874683 -222.414720773645
      vertex 361.524025808502 -810.474734974699 -224.002220773645
      vertex 361.524025808502 -810.474734974699 -222.414720773645
   endloop
endfacet
facet normal -0.866025403784485 -0.499999999999919 -7.63371670138436e-014
   outer loop
      vertex 361.524025808502 -810.474734974699 -224.002220773645
      vertex 360.638857268926 -809.321160874683 -222.414720773645
      vertex 360.638857268926 -809.321160874683 -224.002220773645
   endloop
endfacet
facet normal -0.965925826289081 -0.258819045102473 -8.82717189006831e-014
   outer loop
      vertex 360.082417062952 -807.977795382772 -222.414720773646
      vertex 360.638857268926 -809.321160874683 -224.002220773645
      vertex 360.638857268926 -809.321160874683 -222.414720773645
   endloop
endfacet
facet normal -0.965925826289081 -0.258819045102473 -8.82717189006831e-014
   outer loop
      vertex 360.638857268926 -809.321160874683 -224.002220773645
      vertex 360.082417062952 -807.977795382772 -222.414720773646
      vertex 360.082417062953 -807.977795382772 -224.002220773646
   endloop
endfacet
facet normal -1.0 6.25827247971276e-014 -9.41906990203565e-014
   outer loop
      vertex 359.892625671057 -806.536186637223 -222.414720773646
      vertex 360.082417062953 -807.977795382772 -224.002220773646
      vertex 360.082417062952 -807.977795382772 -222.414720773646
   endloop
endfacet
facet normal -1.0 6.25827247971276e-014 -9.41906990203565e-014
   outer loop
      vertex 360.082417062953 -807.977795382772 -224.002220773646
      vertex 359.892625671057 -806.536186637223 -222.414720773646
      vertex 359.892625671057 -806.536186637223 -224.002220773646
   endloop
endfacet
facet normal -0.965925826289051 0.258819045102584 -9.36907386592819e-014
   outer loop
      vertex 360.082417062953 -805.094577891674 -222.414720773646
      vertex 359.892625671057 -806.536186637223 -224.002220773646
      vertex 359.892625671057 -806.536186637223 -222.414720773646
   endloop
endfacet
facet normal -0.965925826289051 0.258819045102584 -9.36907386592819e-014
   outer loop
      vertex 359.892625671057 -806.536186637223 -224.002220773646
      vertex 360.082417062953 -805.094577891674 -222.414720773646
      vertex 360.082417062953 -805.094577891674 -224.002220773646
   endloop
endfacet
facet normal -0.866025403784411 0.500000000000048 -8.68059092898439e-014
   outer loop
      vertex 360.638857268926 -803.751212399762 -222.414720773646
      vertex 360.082417062953 -805.094577891674 -224.002220773646
      vertex 360.082417062953 -805.094577891674 -222.414720773646
   endloop
endfacet
facet normal -0.866025403784411 0.500000000000048 -8.68059092898439e-014
   outer loop
      vertex 360.082417062953 -805.094577891674 -224.002220773646
      vertex 360.638857268926 -803.751212399762 -222.414720773646
      vertex 360.638857268926 -803.751212399762 -224.002220773646
   endloop
endfacet
facet normal -0.707106781186491 0.707106781186605 -7.40054006558492e-014
   outer loop
      vertex 361.524025808502 -802.597638299747 -222.414720773645
      vertex 360.638857268926 -803.751212399762 -224.002220773646
      vertex 360.638857268926 -803.751212399762 -222.414720773646
   endloop
endfacet
facet normal -0.707106781186491 0.707106781186605 -7.40054006558492e-014
   outer loop
      vertex 360.638857268926 -803.751212399762 -224.002220773646
      vertex 361.524025808502 -802.597638299747 -222.414720773645
      vertex 361.524025808502 -802.597638299747 -224.002220773645
   endloop
endfacet
facet normal -0.707106781186491 0.707106781186605 -7.40054006558492e-014
   outer loop
      vertex 361.524025808502 -802.597638299747 -222.414720773645
      vertex 362.677599908518 -801.712469760171 -224.002220773645
      vertex 361.524025808502 -802.597638299747 -224.002220773645
   endloop
endfacet
facet normal -0.707106781186491 0.707106781186605 -7.40054006558492e-014
   outer loop
      vertex 362.677599908518 -801.712469760171 -224.002220773645
      vertex 361.524025808502 -802.597638299747 -222.414720773645
      vertex 362.677599908518 -801.712469760171 -222.414720773645
   endloop
endfacet
facet normal -0.499999999999942 0.866025403784472 -5.61615462668675e-014
   outer loop
      vertex 362.677599908518 -801.712469760171 -222.414720773645
      vertex 364.020965400429 -801.156029554197 -224.002220773645
      vertex 362.677599908518 -801.712469760171 -224.002220773645
   endloop
endfacet
facet normal -0.499999999999942 0.866025403784472 -5.61615462668675e-014
   outer loop
      vertex 364.020965400429 -801.156029554197 -224.002220773645
      vertex 362.677599908518 -801.712469760171 -222.414720773645
      vertex 364.020965400429 -801.156029554197 -222.414720773645
   endloop
endfacet
facet normal -0.258819045102473 0.965925826289081 -3.4490375311143e-014
   outer loop
      vertex 364.020965400429 -801.156029554197 -222.414720773645
      vertex 365.462574145978 -800.966238162302 -224.002220773645
      vertex 364.020965400429 -801.156029554197 -224.002220773645
   endloop
endfacet
facet normal -0.258819045102473 0.965925826289081 -3.4490375311143e-014
   outer loop
      vertex 365.462574145978 -800.966238162302 -224.002220773645
      vertex 364.020965400429 -801.156029554197 -222.414720773645
      vertex 365.462574145978 -800.966238162302 -222.414720773645
   endloop
endfacet
facet normal 7.10304569782029e-014 1.0 -1.04687422760009e-014
   outer loop
      vertex 365.462574145978 -800.966238162302 -222.414720773645
      vertex 366.904182891528 -801.156029554198 -224.002220773645
      vertex 365.462574145978 -800.966238162302 -224.002220773645
   endloop
endfacet
facet normal 7.10304569782029e-014 1.0 -1.04687422760009e-014
   outer loop
      vertex 366.904182891528 -801.156029554198 -224.002220773645
      vertex 365.462574145978 -800.966238162302 -222.414720773645
      vertex 366.904182891528 -801.156029554198 -222.414720773645
   endloop
endfacet
facet normal 0.258819045102596 0.965925826289048 1.42663182448347e-014
   outer loop
      vertex 366.904182891528 -801.156029554198 -222.414720773645
      vertex 368.247548383439 -801.712469760171 -224.002220773645
      vertex 366.904182891528 -801.156029554198 -224.002220773645
   endloop
endfacet
facet normal 0.258819045102596 0.965925826289048 1.42663182448347e-014
   outer loop
      vertex 368.247548383439 -801.712469760171 -224.002220773645
      vertex 366.904182891528 -801.156029554198 -222.414720773645
      vertex 368.247548383439 -801.712469760171 -222.414720773645
   endloop
endfacet
facet normal 0.500000000000031 0.866025403784421 3.80291527534863e-014
   outer loop
      vertex 368.247548383439 -801.712469760171 -222.414720773645
      vertex 369.401122483455 -802.597638299747 -224.002220773645
      vertex 368.247548383439 -801.712469760171 -224.002220773645
   endloop
endfacet
facet normal 0.500000000000031 0.866025403784421 3.80291527534863e-014
   outer loop
      vertex 369.401122483455 -802.597638299747 -224.002220773645
      vertex 368.247548383439 -801.712469760171 -222.414720773645
      vertex 369.401122483455 -802.597638299747 -222.414720773645
   endloop
endfacet
facet normal 0.707106781186597 0.707106781186499 5.92003633481406e-014
   outer loop
      vertex 369.401122483455 -802.597638299747 -224.002220773645
      vertex 370.28629102303 -803.751212399763 -222.414720773645
      vertex 370.28629102303 -803.751212399763 -224.002220773645
   endloop
endfacet
facet normal 0.707106781186597 0.707106781186499 5.92003633481406e-014
   outer loop
      vertex 370.28629102303 -803.751212399763 -222.414720773645
      vertex 369.401122483455 -802.597638299747 -224.002220773645
      vertex 369.401122483455 -802.597638299747 -222.414720773645
   endloop
endfacet
facet normal -9.43986513789394e-014 1.09599421633617e-014 1.0
   outer loop
      vertex 360.082417062952 -807.977795382772 -222.414720773646
      vertex 360.082417062953 -805.094577891674 -222.414720773646
      vertex 359.892625671057 -806.536186637223 -222.414720773646
   endloop
endfacet
facet normal -9.43986513789394e-014 1.09599421633617e-014 1.0
   outer loop
      vertex 360.082417062953 -805.094577891674 -222.414720773646
      vertex 360.082417062952 -807.977795382772 -222.414720773646
      vertex 360.638857268926 -809.321160874683 -222.414720773645
   endloop
endfacet
facet normal -9.43986513789394e-014 1.09599421633617e-014 1.0
   outer loop
      vertex 360.082417062953 -805.094577891674 -222.414720773646
      vertex 360.638857268926 -809.321160874683 -222.414720773645
      vertex 360.638857268926 -803.751212399762 -222.414720773646
   endloop
endfacet
facet normal -9.43986513789394e-014 1.09599421633617e-014 1.0
   outer loop
      vertex 360.638857268926 -803.751212399762 -222.414720773646
      vertex 360.638857268926 -809.321160874683 -222.414720773645
      vertex 361.524025808502 -810.474734974699 -222.414720773645
   endloop
endfacet
facet normal -9.43986513789394e-014 1.09599421633617e-014 1.0
   outer loop
      vertex 360.638857268926 -803.751212399762 -222.414720773646
      vertex 361.524025808502 -810.474734974699 -222.414720773645
      vertex 361.293674336613 -806.536186637223 -222.414720773645
   endloop
endfacet
facet normal -9.43986513789394e-014 1.09599421633617e-014 1.0
   outer loop
      vertex 361.293674336613 -806.536186637223 -222.414720773645
      vertex 361.524025808502 -810.474734974699 -222.414720773645
      vertex 361.435726152901 -807.615177305011 -222.414720773645
   endloop
endfacet
facet normal -9.43986513789394e-014 1.09599421633617e-014 1.0
   outer loop
      vertex 361.435726152901 -807.615177305011 -222.414720773645
      vertex 361.524025808502 -810.474734974699 -222.414720773645
      vertex 361.852201005236 -808.620636541905 -222.414720773645
   endloop
endfacet
facet normal -9.43986513789394e-014 1.09599421633617e-014 1.0
   outer loop
      vertex 361.852201005236 -808.620636541905 -222.414720773645
      vertex 361.524025808502 -810.474734974699 -222.414720773645
      vertex 362.677599908517 -811.359903514275 -222.414720773645
   endloop
endfacet
facet normal -9.43986513789394e-014 1.09599421633617e-014 1.0
   outer loop
      vertex 361.852201005236 -808.620636541905 -222.414720773645
      vertex 362.677599908517 -811.359903514275 -222.414720773645
      vertex 362.514716820688 -809.484043962512 -222.414720773645
   endloop
endfacet
facet normal -9.43986513789394e-014 1.09599421633617e-014 1.0
   outer loop
      vertex 362.514716820688 -809.484043962512 -222.414720773645
      vertex 362.677599908517 -811.359903514275 -222.414720773645
      vertex 363.378124241296 -810.146559777965 -222.414720773645
   endloop
endfacet
facet normal -9.43986513789394e-014 1.09599421633617e-014 1.0
   outer loop
      vertex 363.378124241296 -810.146559777965 -222.414720773645
      vertex 362.677599908517 -811.359903514275 -222.414720773645
      vertex 364.020965400428 -811.916343720249 -222.414720773645
   endloop
endfacet
facet normal -9.43986513789394e-014 1.09599421633617e-014 1.0
   outer loop
      vertex 363.378124241296 -810.146559777965 -222.414720773645
      vertex 364.020965400428 -811.916343720249 -222.414720773645
      vertex 364.38358347819 -810.5630346303 -222.414720773645
   endloop
endfacet
facet normal -9.43986513789394e-014 1.09599421633617e-014 1.0
   outer loop
      vertex 364.38358347819 -810.5630346303 -222.414720773645
      vertex 364.020965400428 -811.916343720249 -222.414720773645
      vertex 365.462574145978 -812.106135112144 -222.414720773645
   endloop
endfacet
facet normal -9.43986513789394e-014 1.09599421633617e-014 1.0
   outer loop
      vertex 364.38358347819 -810.5630346303 -222.414720773645
      vertex 365.462574145978 -812.106135112144 -222.414720773645
      vertex 365.462574145978 -810.705086446588 -222.414720773645
   endloop
endfacet
facet normal -9.43986513789394e-014 1.09599421633617e-014 1.0
   outer loop
      vertex 365.462574145978 -810.705086446588 -222.414720773645
      vertex 365.462574145978 -812.106135112144 -222.414720773645
      vertex 366.541564813766 -810.5630346303 -222.414720773645
   endloop
endfacet
facet normal -9.43986513789394e-014 1.09599421633617e-014 1.0
   outer loop
      vertex 366.541564813766 -810.5630346303 -222.414720773645
      vertex 365.462574145978 -812.106135112144 -222.414720773645
      vertex 366.904182891527 -811.916343720249 -222.414720773645
   endloop
endfacet
facet normal -9.43986513789394e-014 1.09599421633617e-014 1.0
   outer loop
      vertex 366.541564813766 -810.5630346303 -222.414720773645
      vertex 366.904182891527 -811.916343720249 -222.414720773645
      vertex 367.547024050661 -810.146559777965 -222.414720773645
   endloop
endfacet
facet normal -9.43986513789394e-014 1.09599421633617e-014 1.0
   outer loop
      vertex 367.547024050661 -810.146559777965 -222.414720773645
      vertex 366.904182891527 -811.916343720249 -222.414720773645
      vertex 368.247548383438 -811.359903514275 -222.414720773645
   endloop
endfacet
facet normal -9.43986513789394e-014 1.09599421633617e-014 1.0
   outer loop
      vertex 367.547024050661 -810.146559777965 -222.414720773645
      vertex 368.247548383438 -811.359903514275 -222.414720773645
      vertex 368.410431471267 -809.484043962513 -222.414720773645
   endloop
endfacet
facet normal -9.43986513789394e-014 1.09599421633617e-014 1.0
   outer loop
      vertex 368.410431471267 -809.484043962513 -222.414720773645
      vertex 368.247548383438 -811.359903514275 -222.414720773645
      vertex 369.401122483454 -810.4747349747 -222.414720773645
   endloop
endfacet
facet normal -9.43986513789394e-014 1.09599421633617e-014 1.0
   outer loop
      vertex 368.410431471267 -809.484043962513 -222.414720773645
      vertex 369.401122483454 -810.4747349747 -222.414720773645
      vertex 369.07294728672 -808.620636541906 -222.414720773645
   endloop
endfacet
facet normal -9.43986513789394e-014 1.09599421633617e-014 1.0
   outer loop
      vertex 369.07294728672 -808.620636541906 -222.414720773645
      vertex 369.401122483454 -810.4747349747 -222.414720773645
      vertex 369.489422139055 -807.615177305011 -222.414720773645
   endloop
endfacet
facet normal -9.43986513789394e-014 1.09599421633617e-014 1.0
   outer loop
      vertex 369.489422139055 -807.615177305011 -222.414720773645
      vertex 369.401122483454 -810.4747349747 -222.414720773645
      vertex 370.28629102303 -809.321160874684 -222.414720773644
   endloop
endfacet
facet normal -9.43986513789394e-014 1.09599421633617e-014 1.0
   outer loop
      vertex 369.489422139055 -807.615177305011 -222.414720773645
      vertex 370.28629102303 -809.321160874684 -222.414720773644
      vertex 369.631473955343 -806.536186637223 -222.414720773645
   endloop
endfacet
facet normal -9.43986513789394e-014 1.09599421633617e-014 1.0
   outer loop
      vertex 361.293674336613 -806.536186637223 -222.414720773645
      vertex 361.524025808502 -802.597638299747 -222.414720773645
      vertex 360.638857268926 -803.751212399762 -222.414720773646
   endloop
endfacet
facet normal -9.43986513789394e-014 1.09599421633617e-014 1.0
   outer loop
      vertex 361.524025808502 -802.597638299747 -222.414720773645
      vertex 361.293674336613 -806.536186637223 -222.414720773645
      vertex 361.435726152901 -805.457195969435 -222.414720773645
   endloop
endfacet
facet normal -9.43986513789394e-014 1.09599421633617e-014 1.0
   outer loop
      vertex 361.524025808502 -802.597638299747 -222.414720773645
      vertex 361.435726152901 -805.457195969435 -222.414720773645
      vertex 361.852201005236 -804.45173673254 -222.414720773645
   endloop
endfacet
facet normal -9.43986513789394e-014 1.09599421633617e-014 1.0
   outer loop
      vertex 361.524025808502 -802.597638299747 -222.414720773645
      vertex 361.852201005236 -804.45173673254 -222.414720773645
      vertex 362.677599908518 -801.712469760171 -222.414720773645
   endloop
endfacet
facet normal -9.43986513789394e-014 1.09599421633617e-014 1.0
   outer loop
      vertex 362.677599908518 -801.712469760171 -222.414720773645
      vertex 361.852201005236 -804.45173673254 -222.414720773645
      vertex 362.514716820689 -803.588329311933 -222.414720773645
   endloop
endfacet
facet normal -9.43986513789394e-014 1.09599421633617e-014 1.0
   outer loop
      vertex 362.677599908518 -801.712469760171 -222.414720773645
      vertex 362.514716820689 -803.588329311933 -222.414720773645
      vertex 363.378124241296 -802.925813496481 -222.414720773645
   endloop
endfacet
facet normal -9.43986513789394e-014 1.09599421633617e-014 1.0
   outer loop
      vertex 362.677599908518 -801.712469760171 -222.414720773645
      vertex 363.378124241296 -802.925813496481 -222.414720773645
      vertex 364.020965400429 -801.156029554197 -222.414720773645
   endloop
endfacet
facet normal -9.43986513789394e-014 1.09599421633617e-014 1.0
   outer loop
      vertex 364.020965400429 -801.156029554197 -222.414720773645
      vertex 363.378124241296 -802.925813496481 -222.414720773645
      vertex 364.38358347819 -802.509338644146 -222.414720773645
   endloop
endfacet
facet normal -9.43986513789394e-014 1.09599421633617e-014 1.0
   outer loop
      vertex 364.020965400429 -801.156029554197 -222.414720773645
      vertex 364.38358347819 -802.509338644146 -222.414720773645
      vertex 365.462574145978 -800.966238162302 -222.414720773645
   endloop
endfacet
facet normal -9.43986513789394e-014 1.09599421633617e-014 1.0
   outer loop
      vertex 365.462574145978 -800.966238162302 -222.414720773645
      vertex 364.38358347819 -802.509338644146 -222.414720773645
      vertex 365.462574145978 -802.367286827858 -222.414720773645
   endloop
endfacet
facet normal -9.43986513789394e-014 1.09599421633617e-014 1.0
   outer loop
      vertex 365.462574145978 -800.966238162302 -222.414720773645
      vertex 365.462574145978 -802.367286827858 -222.414720773645
      vertex 366.904182891528 -801.156029554198 -222.414720773645
   endloop
endfacet
facet normal -9.43986513789394e-014 1.09599421633617e-014 1.0
   outer loop
      vertex 366.904182891528 -801.156029554198 -222.414720773645
      vertex 365.462574145978 -802.367286827858 -222.414720773645
      vertex 366.541564813767 -802.509338644146 -222.414720773645
   endloop
endfacet
facet normal -9.43986513789394e-014 1.09599421633617e-014 1.0
   outer loop
      vertex 366.904182891528 -801.156029554198 -222.414720773645
      vertex 366.541564813767 -802.509338644146 -222.414720773645
      vertex 367.547024050661 -802.925813496481 -222.414720773645
   endloop
endfacet
facet normal -9.43986513789394e-014 1.09599421633617e-014 1.0
   outer loop
      vertex 366.904182891528 -801.156029554198 -222.414720773645
      vertex 367.547024050661 -802.925813496481 -222.414720773645
      vertex 368.247548383439 -801.712469760171 -222.414720773645
   endloop
endfacet
facet normal -9.43986513789394e-014 1.09599421633617e-014 1.0
   outer loop
      vertex 368.247548383439 -801.712469760171 -222.414720773645
      vertex 367.547024050661 -802.925813496481 -222.414720773645
      vertex 368.410431471268 -803.588329311934 -222.414720773645
   endloop
endfacet
facet normal -9.43986513789394e-014 1.09599421633617e-014 1.0
   outer loop
      vertex 368.247548383439 -801.712469760171 -222.414720773645
      vertex 368.410431471268 -803.588329311934 -222.414720773645
      vertex 369.401122483455 -802.597638299747 -222.414720773645
   endloop
endfacet
facet normal -9.43986513789394e-014 1.09599421633617e-014 1.0
   outer loop
      vertex 369.401122483455 -802.597638299747 -222.414720773645
      vertex 368.410431471268 -803.588329311934 -222.414720773645
      vertex 369.07294728672 -804.451736732541 -222.414720773645
   endloop
endfacet
facet normal -9.43986513789394e-014 1.09599421633617e-014 1.0
   outer loop
      vertex 369.401122483455 -802.597638299747 -222.414720773645
      vertex 369.07294728672 -804.451736732541 -222.414720773645
      vertex 369.489422139056 -805.457195969436 -222.414720773645
   endloop
endfacet
facet normal -9.43986513789394e-014 1.09599421633617e-014 1.0
   outer loop
      vertex 369.401122483455 -802.597638299747 -222.414720773645
      vertex 369.489422139056 -805.457195969436 -222.414720773645
      vertex 370.28629102303 -803.751212399763 -222.414720773645
   endloop
endfacet
facet normal -9.43986513789394e-014 1.09599421633617e-014 1.0
   outer loop
      vertex 370.28629102303 -803.751212399763 -222.414720773645
      vertex 369.489422139056 -805.457195969436 -222.414720773645
      vertex 369.631473955343 -806.536186637223 -222.414720773645
   endloop
endfacet
facet normal -9.43986513789394e-014 1.09599421633617e-014 1.0
   outer loop
      vertex 370.28629102303 -803.751212399763 -222.414720773645
      vertex 369.631473955343 -806.536186637223 -222.414720773645
      vertex 370.28629102303 -809.321160874684 -222.414720773644
   endloop
endfacet
facet normal -9.43986513789394e-014 1.09599421633617e-014 1.0
   outer loop
      vertex 370.28629102303 -803.751212399763 -222.414720773645
      vertex 370.28629102303 -809.321160874684 -222.414720773644
      vertex 370.842731229004 -807.977795382773 -222.414720773644
   endloop
endfacet
facet normal -9.43986513789394e-014 1.09599421633617e-014 1.0
   outer loop
      vertex 370.28629102303 -803.751212399763 -222.414720773645
      vertex 370.842731229004 -807.977795382773 -222.414720773644
      vertex 370.842731229004 -805.094577891674 -222.414720773645
   endloop
endfacet
facet normal -9.43986513789394e-014 1.09599421633617e-014 1.0
   outer loop
      vertex 370.842731229004 -805.094577891674 -222.414720773645
      vertex 370.842731229004 -807.977795382773 -222.414720773644
      vertex 371.032522620899 -806.536186637224 -222.414720773645
   endloop
endfacet
endsolid Z_Carriages_6_11_13
