solid Z_Carriages_6_11_13
facet normal -0.499999999999942 0.866025403784472 -5.61615462668675e-014
   outer loop
      vertex 398.955472956512 -791.587321751509 -215.490147083879
      vertex 400.298838448424 -791.030881545535 -217.077647083879
      vertex 398.955472956513 -791.587321751509 -217.077647083879
   endloop
endfacet
facet normal -0.499999999999942 0.866025403784472 -5.61615462668675e-014
   outer loop
      vertex 400.298838448424 -791.030881545535 -217.077647083879
      vertex 398.955472956512 -791.587321751509 -215.490147083879
      vertex 400.298838448424 -791.030881545535 -215.490147083879
   endloop
endfacet
facet normal 0.258819045102593 0.965925826289049 1.42663182448345e-014
   outer loop
      vertex 403.182055939522 -791.030881545535 -215.490147083879
      vertex 404.525421431433 -791.587321751509 -217.077647083879
      vertex 403.182055939522 -791.030881545535 -217.077647083879
   endloop
endfacet
facet normal 0.258819045102593 0.965925826289049 1.42663182448345e-014
   outer loop
      vertex 404.525421431433 -791.587321751509 -217.077647083879
      vertex 403.182055939522 -791.030881545535 -215.490147083879
      vertex 404.525421431433 -791.587321751509 -215.490147083879
   endloop
endfacet
facet normal -0.258819045102475 0.965925826289081 -3.44903753111432e-014
   outer loop
      vertex 400.298838448424 -791.030881545535 -215.490147083879
      vertex 401.740447193973 -790.84109015364 -217.077647083879
      vertex 400.298838448424 -791.030881545535 -217.077647083879
   endloop
endfacet
facet normal -0.258819045102475 0.965925826289081 -3.44903753111432e-014
   outer loop
      vertex 401.740447193973 -790.84109015364 -217.077647083879
      vertex 400.298838448424 -791.030881545535 -215.490147083879
      vertex 401.740447193973 -790.84109015364 -215.490147083879
   endloop
endfacet
facet normal 7.10215458683072e-014 1.0 -1.04687422760009e-014
   outer loop
      vertex 401.740447193973 -790.84109015364 -215.490147083879
      vertex 403.182055939522 -791.030881545535 -217.077647083879
      vertex 401.740447193973 -790.84109015364 -217.077647083879
   endloop
endfacet
facet normal 7.10215458683072e-014 1.0 -1.04687422760009e-014
   outer loop
      vertex 403.182055939522 -791.030881545535 -217.077647083879
      vertex 401.740447193973 -790.84109015364 -215.490147083879
      vertex 403.182055939522 -791.030881545535 -215.490147083879
   endloop
endfacet
facet normal 0.500000000000031 0.866025403784421 3.80291527534863e-014
   outer loop
      vertex 404.525421431433 -791.587321751509 -215.490147083879
      vertex 405.678995531449 -792.472490291085 -217.077647083879
      vertex 404.525421431433 -791.587321751509 -217.077647083879
   endloop
endfacet
facet normal 0.500000000000031 0.866025403784421 3.80291527534863e-014
   outer loop
      vertex 405.678995531449 -792.472490291085 -217.077647083879
      vertex 404.525421431433 -791.587321751509 -215.490147083879
      vertex 405.678995531449 -792.472490291085 -215.490147083879
   endloop
endfacet
facet normal 9.37466098105055e-014 -1.11346561750549e-014 -1.0
   outer loop
      vertex 400.298838448424 -791.030881545535 -217.077647083879
      vertex 399.759496812703 -796.411038628561 -217.07764708388
      vertex 398.955472956513 -791.587321751509 -217.077647083879
   endloop
endfacet
facet normal 9.37466098105055e-014 -1.11346561750549e-014 -1.0
   outer loop
      vertex 399.759496812703 -796.411038628561 -217.07764708388
      vertex 400.298838448424 -791.030881545535 -217.077647083879
      vertex 399.826996060107 -795.898330942485 -217.07764708388
   endloop
endfacet
facet normal 9.37466098105055e-014 -1.11346561750549e-014 -1.0
   outer loop
      vertex 399.826996060107 -795.898330942485 -217.07764708388
      vertex 400.298838448424 -791.030881545535 -217.077647083879
      vertex 400.024893840157 -795.420563437926 -217.07764708388
   endloop
endfacet
facet normal 9.37466098105055e-014 -1.11346561750549e-014 -1.0
   outer loop
      vertex 400.024893840157 -795.420563437926 -217.07764708388
      vertex 400.298838448424 -791.030881545535 -217.077647083879
      vertex 400.339703746183 -795.01029518077 -217.077647083879
   endloop
endfacet
facet normal 9.37466098105055e-014 -1.11346561750549e-014 -1.0
   outer loop
      vertex 400.339703746183 -795.01029518077 -217.077647083879
      vertex 400.298838448424 -791.030881545535 -217.077647083879
      vertex 401.740447193973 -790.84109015364 -217.077647083879
   endloop
endfacet
facet normal 9.37466098105055e-014 -1.11346561750549e-014 -1.0
   outer loop
      vertex 400.339703746183 -795.01029518077 -217.077647083879
      vertex 401.740447193973 -790.84109015364 -217.077647083879
      vertex 400.749972003338 -794.695485274745 -217.077647083879
   endloop
endfacet
facet normal 9.37466098105055e-014 -1.11346561750549e-014 -1.0
   outer loop
      vertex 400.749972003338 -794.695485274745 -217.077647083879
      vertex 401.740447193973 -790.84109015364 -217.077647083879
      vertex 401.227739507897 -794.497587494695 -217.077647083879
   endloop
endfacet
facet normal 9.37466098105055e-014 -1.11346561750549e-014 -1.0
   outer loop
      vertex 401.227739507897 -794.497587494695 -217.077647083879
      vertex 401.740447193973 -790.84109015364 -217.077647083879
      vertex 401.740447193973 -794.430088247291 -217.077647083879
   endloop
endfacet
facet normal 9.37466098105055e-014 -1.11346561750549e-014 -1.0
   outer loop
      vertex 401.740447193973 -794.430088247291 -217.077647083879
      vertex 401.740447193973 -790.84109015364 -217.077647083879
      vertex 402.253154880049 -794.497587494695 -217.077647083879
   endloop
endfacet
facet normal 9.37466098105055e-014 -1.11346561750549e-014 -1.0
   outer loop
      vertex 402.253154880049 -794.497587494695 -217.077647083879
      vertex 401.740447193973 -790.84109015364 -217.077647083879
      vertex 403.182055939522 -791.030881545535 -217.077647083879
   endloop
endfacet
facet normal 9.37466098105055e-014 -1.11346561750549e-014 -1.0
   outer loop
      vertex 402.253154880049 -794.497587494695 -217.077647083879
      vertex 403.182055939522 -791.030881545535 -217.077647083879
      vertex 402.730922384608 -794.695485274745 -217.077647083879
   endloop
endfacet
facet normal 9.37466098105055e-014 -1.11346561750549e-014 -1.0
   outer loop
      vertex 402.730922384608 -794.695485274745 -217.077647083879
      vertex 403.182055939522 -791.030881545535 -217.077647083879
      vertex 403.141190641763 -795.010295180771 -217.077647083879
   endloop
endfacet
facet normal 9.37466098105055e-014 -1.11346561750549e-014 -1.0
   outer loop
      vertex 403.141190641763 -795.010295180771 -217.077647083879
      vertex 403.182055939522 -791.030881545535 -217.077647083879
      vertex 403.456000547789 -795.420563437926 -217.077647083879
   endloop
endfacet
facet normal 9.37466098105055e-014 -1.11346561750549e-014 -1.0
   outer loop
      vertex 403.456000547789 -795.420563437926 -217.077647083879
      vertex 403.182055939522 -791.030881545535 -217.077647083879
      vertex 404.525421431433 -791.587321751509 -217.077647083879
   endloop
endfacet
facet normal 9.37466098105055e-014 -1.11346561750549e-014 -1.0
   outer loop
      vertex 403.456000547789 -795.420563437926 -217.077647083879
      vertex 404.525421431433 -791.587321751509 -217.077647083879
      vertex 403.653898327838 -795.898330942485 -217.077647083879
   endloop
endfacet
facet normal 9.37466098105055e-014 -1.11346561750549e-014 -1.0
   outer loop
      vertex 403.653898327838 -795.898330942485 -217.077647083879
      vertex 404.525421431433 -791.587321751509 -217.077647083879
      vertex 403.721397575242 -796.411038628561 -217.077647083879
   endloop
endfacet
facet normal 9.37466098105055e-014 -1.11346561750549e-014 -1.0
   outer loop
      vertex 403.721397575242 -796.411038628561 -217.077647083879
      vertex 404.525421431433 -791.587321751509 -217.077647083879
      vertex 404.525421431433 -801.234755505613 -217.077647083879
   endloop
endfacet
facet normal 9.37466098105055e-014 -1.11346561750549e-014 -1.0
   outer loop
      vertex 404.525421431433 -801.234755505613 -217.077647083879
      vertex 404.525421431433 -791.587321751509 -217.077647083879
      vertex 405.678995531449 -800.349586966037 -217.077647083878
   endloop
endfacet
facet normal 9.37466098105055e-014 -1.11346561750549e-014 -1.0
   outer loop
      vertex 405.678995531449 -800.349586966037 -217.077647083878
      vertex 404.525421431433 -791.587321751509 -217.077647083879
      vertex 405.678995531449 -792.472490291085 -217.077647083879
   endloop
endfacet
facet normal 9.37466098105055e-014 -1.11346561750549e-014 -1.0
   outer loop
      vertex 405.678995531449 -800.349586966037 -217.077647083878
      vertex 405.678995531449 -792.472490291085 -217.077647083879
      vertex 406.564164071024 -799.196012866022 -217.077647083878
   endloop
endfacet
facet normal 9.37466098105055e-014 -1.11346561750549e-014 -1.0
   outer loop
      vertex 406.564164071024 -799.196012866022 -217.077647083878
      vertex 405.678995531449 -792.472490291085 -217.077647083879
      vertex 406.564164071025 -793.626064391101 -217.077647083879
   endloop
endfacet
facet normal 9.37466098105055e-014 -1.11346561750549e-014 -1.0
   outer loop
      vertex 406.564164071024 -799.196012866022 -217.077647083878
      vertex 406.564164071025 -793.626064391101 -217.077647083879
      vertex 407.120604276998 -797.85264737411 -217.077647083878
   endloop
endfacet
facet normal 9.37466098105055e-014 -1.11346561750549e-014 -1.0
   outer loop
      vertex 407.120604276998 -797.85264737411 -217.077647083878
      vertex 406.564164071025 -793.626064391101 -217.077647083879
      vertex 407.120604276998 -794.969429883012 -217.077647083878
   endloop
endfacet
facet normal 9.37466098105055e-014 -1.11346561750549e-014 -1.0
   outer loop
      vertex 407.120604276998 -797.85264737411 -217.077647083878
      vertex 407.120604276998 -794.969429883012 -217.077647083878
      vertex 407.310395668894 -796.411038628561 -217.077647083878
   endloop
endfacet
facet normal 9.37466098105055e-014 -1.11346561750549e-014 -1.0
   outer loop
      vertex 396.360290110947 -794.969429883011 -217.077647083879
      vertex 396.360290110947 -797.85264737411 -217.077647083879
      vertex 396.170498719052 -796.41103862856 -217.077647083879
   endloop
endfacet
facet normal 9.37466098105055e-014 -1.11346561750549e-014 -1.0
   outer loop
      vertex 396.360290110947 -797.85264737411 -217.077647083879
      vertex 396.360290110947 -794.969429883011 -217.077647083879
      vertex 396.91673031692 -799.196012866021 -217.077647083879
   endloop
endfacet
facet normal 9.37466098105055e-014 -1.11346561750549e-014 -1.0
   outer loop
      vertex 396.91673031692 -799.196012866021 -217.077647083879
      vertex 396.360290110947 -794.969429883011 -217.077647083879
      vertex 396.916730316921 -793.6260643911 -217.077647083879
   endloop
endfacet
facet normal 9.37466098105055e-014 -1.11346561750549e-014 -1.0
   outer loop
      vertex 396.91673031692 -799.196012866021 -217.077647083879
      vertex 396.916730316921 -793.6260643911 -217.077647083879
      vertex 397.801898856496 -800.349586966037 -217.077647083879
   endloop
endfacet
facet normal 9.37466098105055e-014 -1.11346561750549e-014 -1.0
   outer loop
      vertex 397.801898856496 -800.349586966037 -217.077647083879
      vertex 396.916730316921 -793.6260643911 -217.077647083879
      vertex 397.801898856496 -792.472490291084 -217.077647083879
   endloop
endfacet
facet normal 9.37466098105055e-014 -1.11346561750549e-014 -1.0
   outer loop
      vertex 397.801898856496 -800.349586966037 -217.077647083879
      vertex 397.801898856496 -792.472490291084 -217.077647083879
      vertex 398.955472956512 -801.234755505613 -217.077647083879
   endloop
endfacet
facet normal 9.37466098105055e-014 -1.11346561750549e-014 -1.0
   outer loop
      vertex 398.955472956512 -801.234755505613 -217.077647083879
      vertex 397.801898856496 -792.472490291084 -217.077647083879
      vertex 398.955472956513 -791.587321751509 -217.077647083879
   endloop
endfacet
facet normal 9.37466098105055e-014 -1.11346561750549e-014 -1.0
   outer loop
      vertex 398.955472956512 -801.234755505613 -217.077647083879
      vertex 398.955472956513 -791.587321751509 -217.077647083879
      vertex 400.298838448423 -801.791195711586 -217.077647083879
   endloop
endfacet
facet normal 9.37466098105055e-014 -1.11346561750549e-014 -1.0
   outer loop
      vertex 400.298838448423 -801.791195711586 -217.077647083879
      vertex 398.955472956513 -791.587321751509 -217.077647083879
      vertex 399.759496812703 -796.411038628561 -217.07764708388
   endloop
endfacet
facet normal 9.37466098105055e-014 -1.11346561750549e-014 -1.0
   outer loop
      vertex 400.298838448423 -801.791195711586 -217.077647083879
      vertex 399.759496812703 -796.411038628561 -217.07764708388
      vertex 399.826996060107 -796.923746314636 -217.07764708388
   endloop
endfacet
facet normal 9.37466098105055e-014 -1.11346561750549e-014 -1.0
   outer loop
      vertex 400.298838448423 -801.791195711586 -217.077647083879
      vertex 399.826996060107 -796.923746314636 -217.07764708388
      vertex 400.024893840157 -797.401513819195 -217.07764708388
   endloop
endfacet
facet normal 9.37466098105055e-014 -1.11346561750549e-014 -1.0
   outer loop
      vertex 400.298838448423 -801.791195711586 -217.077647083879
      vertex 400.024893840157 -797.401513819195 -217.07764708388
      vertex 400.339703746183 -797.81178207635 -217.077647083879
   endloop
endfacet
facet normal 9.37466098105055e-014 -1.11346561750549e-014 -1.0
   outer loop
      vertex 400.298838448423 -801.791195711586 -217.077647083879
      vertex 400.339703746183 -797.81178207635 -217.077647083879
      vertex 401.740447193972 -801.980987103482 -217.077647083879
   endloop
endfacet
facet normal 9.37466098105055e-014 -1.11346561750549e-014 -1.0
   outer loop
      vertex 401.740447193972 -801.980987103482 -217.077647083879
      vertex 400.339703746183 -797.81178207635 -217.077647083879
      vertex 400.749972003338 -798.126591982377 -217.077647083879
   endloop
endfacet
facet normal 9.37466098105055e-014 -1.11346561750549e-014 -1.0
   outer loop
      vertex 401.740447193972 -801.980987103482 -217.077647083879
      vertex 400.749972003338 -798.126591982377 -217.077647083879
      vertex 401.227739507897 -798.324489762426 -217.077647083879
   endloop
endfacet
facet normal 9.37466098105055e-014 -1.11346561750549e-014 -1.0
   outer loop
      vertex 401.740447193972 -801.980987103482 -217.077647083879
      vertex 401.227739507897 -798.324489762426 -217.077647083879
      vertex 401.740447193973 -798.39198900983 -217.077647083879
   endloop
endfacet
facet normal 9.37466098105055e-014 -1.11346561750549e-014 -1.0
   outer loop
      vertex 401.740447193972 -801.980987103482 -217.077647083879
      vertex 401.740447193973 -798.39198900983 -217.077647083879
      vertex 403.182055939522 -801.791195711587 -217.077647083879
   endloop
endfacet
facet normal 9.37466098105055e-014 -1.11346561750549e-014 -1.0
   outer loop
      vertex 403.182055939522 -801.791195711587 -217.077647083879
      vertex 401.740447193973 -798.39198900983 -217.077647083879
      vertex 402.253154880048 -798.324489762426 -217.077647083879
   endloop
endfacet
facet normal 9.37466098105055e-014 -1.11346561750549e-014 -1.0
   outer loop
      vertex 403.182055939522 -801.791195711587 -217.077647083879
      vertex 402.253154880048 -798.324489762426 -217.077647083879
      vertex 402.730922384607 -798.126591982377 -217.077647083879
   endloop
endfacet
facet normal 9.37466098105055e-014 -1.11346561750549e-014 -1.0
   outer loop
      vertex 403.182055939522 -801.791195711587 -217.077647083879
      vertex 402.730922384607 -798.126591982377 -217.077647083879
      vertex 403.141190641762 -797.811782076351 -217.077647083879
   endloop
endfacet
facet normal 9.37466098105055e-014 -1.11346561750549e-014 -1.0
   outer loop
      vertex 403.182055939522 -801.791195711587 -217.077647083879
      vertex 403.141190641762 -797.811782076351 -217.077647083879
      vertex 403.456000547789 -797.401513819196 -217.077647083879
   endloop
endfacet
facet normal 9.37466098105055e-014 -1.11346561750549e-014 -1.0
   outer loop
      vertex 403.182055939522 -801.791195711587 -217.077647083879
      vertex 403.456000547789 -797.401513819196 -217.077647083879
      vertex 404.525421431433 -801.234755505613 -217.077647083879
   endloop
endfacet
facet normal 9.37466098105055e-014 -1.11346561750549e-014 -1.0
   outer loop
      vertex 404.525421431433 -801.234755505613 -217.077647083879
      vertex 403.456000547789 -797.401513819196 -217.077647083879
      vertex 403.653898327838 -796.923746314636 -217.077647083879
   endloop
endfacet
facet normal 9.37466098105055e-014 -1.11346561750549e-014 -1.0
   outer loop
      vertex 404.525421431433 -801.234755505613 -217.077647083879
      vertex 403.653898327838 -796.923746314636 -217.077647083879
      vertex 403.721397575242 -796.411038628561 -217.077647083879
   endloop
endfacet
facet normal -7.3374078880758e-014 -1.0 1.04687422760007e-014
   outer loop
      vertex 401.740447193972 -801.980987103482 -217.077647083879
      vertex 400.298838448423 -801.791195711586 -215.490147083879
      vertex 400.298838448423 -801.791195711586 -217.077647083879
   endloop
endfacet
facet normal -7.3374078880758e-014 -1.0 1.04687422760007e-014
   outer loop
      vertex 400.298838448423 -801.791195711586 -215.490147083879
      vertex 401.740447193972 -801.980987103482 -217.077647083879
      vertex 401.740447193972 -801.980987103482 -215.490147083879
   endloop
endfacet
facet normal 0.707106781186597 0.707106781186499 5.92003633481406e-014
   outer loop
      vertex 405.678995531449 -792.472490291085 -217.077647083879
      vertex 406.564164071025 -793.626064391101 -215.490147083879
      vertex 406.564164071025 -793.626064391101 -217.077647083879
   endloop
endfacet
facet normal 0.707106781186597 0.707106781186499 5.92003633481406e-014
   outer loop
      vertex 406.564164071025 -793.626064391101 -215.490147083879
      vertex 405.678995531449 -792.472490291085 -217.077647083879
      vertex 405.678995531449 -792.472490291085 -215.490147083879
   endloop
endfacet
facet normal -0.707106781186491 0.707106781186604 -7.40054006558492e-014
   outer loop
      vertex 397.801898856496 -792.472490291084 -215.490147083879
      vertex 398.955472956513 -791.587321751509 -217.077647083879
      vertex 397.801898856496 -792.472490291084 -217.077647083879
   endloop
endfacet
facet normal -0.707106781186491 0.707106781186604 -7.40054006558492e-014
   outer loop
      vertex 398.955472956513 -791.587321751509 -217.077647083879
      vertex 397.801898856496 -792.472490291084 -215.490147083879
      vertex 398.955472956512 -791.587321751509 -215.490147083879
   endloop
endfacet
facet normal -0.965925826289051 0.258819045102584 -9.36907386592819e-014
   outer loop
      vertex 396.360290110947 -794.969429883011 -215.490147083879
      vertex 396.170498719052 -796.41103862856 -217.077647083879
      vertex 396.170498719051 -796.41103862856 -215.490147083879
   endloop
endfacet
facet normal -0.965925826289051 0.258819045102584 -9.36907386592819e-014
   outer loop
      vertex 396.170498719052 -796.41103862856 -217.077647083879
      vertex 396.360290110947 -794.969429883011 -215.490147083879
      vertex 396.360290110947 -794.969429883011 -217.077647083879
   endloop
endfacet
facet normal -0.866025403784411 0.500000000000048 -8.68059092898439e-014
   outer loop
      vertex 396.916730316921 -793.6260643911 -215.490147083879
      vertex 396.360290110947 -794.969429883011 -217.077647083879
      vertex 396.360290110947 -794.969429883011 -215.490147083879
   endloop
endfacet
facet normal -0.866025403784411 0.500000000000048 -8.68059092898439e-014
   outer loop
      vertex 396.360290110947 -794.969429883011 -217.077647083879
      vertex 396.916730316921 -793.6260643911 -215.490147083879
      vertex 396.916730316921 -793.6260643911 -217.077647083879
   endloop
endfacet
facet normal -0.707106781186491 0.707106781186604 -7.40054006558492e-014
   outer loop
      vertex 397.801898856496 -792.472490291084 -215.490147083879
      vertex 396.916730316921 -793.6260643911 -217.077647083879
      vertex 396.916730316921 -793.6260643911 -215.490147083879
   endloop
endfacet
facet normal -0.707106781186491 0.707106781186604 -7.40054006558492e-014
   outer loop
      vertex 396.916730316921 -793.6260643911 -217.077647083879
      vertex 397.801898856496 -792.472490291084 -215.490147083879
      vertex 397.801898856496 -792.472490291084 -217.077647083879
   endloop
endfacet
facet normal -1.0 6.12817027523626e-014 -9.41906990203565e-014
   outer loop
      vertex 396.170498719051 -796.41103862856 -215.490147083879
      vertex 396.360290110947 -797.85264737411 -217.077647083879
      vertex 396.360290110947 -797.85264737411 -215.490147083879
   endloop
endfacet
facet normal -1.0 6.12817027523626e-014 -9.41906990203565e-014
   outer loop
      vertex 396.360290110947 -797.85264737411 -217.077647083879
      vertex 396.170498719051 -796.41103862856 -215.490147083879
      vertex 396.170498719052 -796.41103862856 -217.077647083879
   endloop
endfacet
facet normal -0.965925826289081 -0.258819045102473 -8.82717189006832e-014
   outer loop
      vertex 396.360290110947 -797.85264737411 -215.490147083879
      vertex 396.91673031692 -799.196012866021 -217.077647083879
      vertex 396.91673031692 -799.196012866021 -215.490147083879
   endloop
endfacet
facet normal -0.965925826289081 -0.258819045102473 -8.82717189006832e-014
   outer loop
      vertex 396.91673031692 -799.196012866021 -217.077647083879
      vertex 396.360290110947 -797.85264737411 -215.490147083879
      vertex 396.360290110947 -797.85264737411 -217.077647083879
   endloop
endfacet
facet normal -0.258819045102593 -0.965925826289049 -1.42663182448345e-014
   outer loop
      vertex 400.298838448423 -801.791195711586 -217.077647083879
      vertex 398.955472956512 -801.234755505613 -215.490147083879
      vertex 398.955472956512 -801.234755505613 -217.077647083879
   endloop
endfacet
facet normal -0.258819045102593 -0.965925826289049 -1.42663182448345e-014
   outer loop
      vertex 398.955472956512 -801.234755505613 -215.490147083879
      vertex 400.298838448423 -801.791195711586 -217.077647083879
      vertex 400.298838448423 -801.791195711586 -215.490147083879
   endloop
endfacet
facet normal 0.49999999999994 -0.866025403784474 5.61615462668674e-014
   outer loop
      vertex 404.525421431433 -801.234755505613 -217.077647083879
      vertex 403.182055939521 -801.791195711587 -215.490147083879
      vertex 403.182055939522 -801.791195711587 -217.077647083879
   endloop
endfacet
facet normal 0.49999999999994 -0.866025403784474 5.61615462668674e-014
   outer loop
      vertex 403.182055939521 -801.791195711587 -215.490147083879
      vertex 404.525421431433 -801.234755505613 -217.077647083879
      vertex 404.525421431433 -801.234755505613 -215.490147083879
   endloop
endfacet
facet normal 0.258819045102473 -0.965925826289081 3.4490375311143e-014
   outer loop
      vertex 403.182055939522 -801.791195711587 -217.077647083879
      vertex 401.740447193972 -801.980987103482 -215.490147083879
      vertex 401.740447193972 -801.980987103482 -217.077647083879
   endloop
endfacet
facet normal 0.258819045102473 -0.965925826289081 3.4490375311143e-014
   outer loop
      vertex 401.740447193972 -801.980987103482 -215.490147083879
      vertex 403.182055939522 -801.791195711587 -217.077647083879
      vertex 403.182055939521 -801.791195711587 -215.490147083879
   endloop
endfacet
facet normal -0.500000000000031 -0.866025403784421 -3.80291527534863e-014
   outer loop
      vertex 398.955472956512 -801.234755505613 -217.077647083879
      vertex 397.801898856496 -800.349586966037 -215.490147083879
      vertex 397.801898856496 -800.349586966037 -217.077647083879
   endloop
endfacet
facet normal -0.500000000000031 -0.866025403784421 -3.80291527534863e-014
   outer loop
      vertex 397.801898856496 -800.349586966037 -215.490147083879
      vertex 398.955472956512 -801.234755505613 -217.077647083879
      vertex 398.955472956512 -801.234755505613 -215.490147083879
   endloop
endfacet
facet normal -0.866025403784486 -0.499999999999918 -7.63371670138437e-014
   outer loop
      vertex 396.91673031692 -799.196012866021 -215.490147083879
      vertex 397.801898856496 -800.349586966037 -217.077647083879
      vertex 397.801898856496 -800.349586966037 -215.490147083879
   endloop
endfacet
facet normal -0.866025403784486 -0.499999999999918 -7.63371670138437e-014
   outer loop
      vertex 397.801898856496 -800.349586966037 -217.077647083879
      vertex 396.91673031692 -799.196012866021 -215.490147083879
      vertex 396.91673031692 -799.196012866021 -217.077647083879
   endloop
endfacet
facet normal 0.866025403784486 0.499999999999918 7.63371670138437e-014
   outer loop
      vertex 406.564164071025 -793.626064391101 -217.077647083879
      vertex 407.120604276998 -794.969429883012 -215.490147083878
      vertex 407.120604276998 -794.969429883012 -217.077647083878
   endloop
endfacet
facet normal 0.866025403784486 0.499999999999918 7.63371670138437e-014
   outer loop
      vertex 407.120604276998 -794.969429883012 -215.490147083878
      vertex 406.564164071025 -793.626064391101 -217.077647083879
      vertex 406.564164071025 -793.626064391101 -215.490147083879
   endloop
endfacet
facet normal 0.965925826289081 0.258819045102472 8.82717189006832e-014
   outer loop
      vertex 407.120604276998 -794.969429883012 -217.077647083878
      vertex 407.310395668893 -796.411038628561 -215.490147083878
      vertex 407.310395668894 -796.411038628561 -217.077647083878
   endloop
endfacet
facet normal 0.965925826289081 0.258819045102472 8.82717189006832e-014
   outer loop
      vertex 407.310395668893 -796.411038628561 -215.490147083878
      vertex 407.120604276998 -794.969429883012 -217.077647083878
      vertex 407.120604276998 -794.969429883012 -215.490147083878
   endloop
endfacet
facet normal 1.0 -6.12906138622594e-014 9.41906990203565e-014
   outer loop
      vertex 407.310395668894 -796.411038628561 -217.077647083878
      vertex 407.120604276998 -797.85264737411 -215.490147083878
      vertex 407.120604276998 -797.85264737411 -217.077647083878
   endloop
endfacet
facet normal 1.0 -6.12906138622594e-014 9.41906990203565e-014
   outer loop
      vertex 407.120604276998 -797.85264737411 -215.490147083878
      vertex 407.310395668894 -796.411038628561 -217.077647083878
      vertex 407.310395668893 -796.411038628561 -215.490147083878
   endloop
endfacet
facet normal 0.965925826289052 -0.258819045102583 9.36907386592819e-014
   outer loop
      vertex 407.120604276998 -797.85264737411 -217.077647083878
      vertex 406.564164071024 -799.196012866022 -215.490147083878
      vertex 406.564164071024 -799.196012866022 -217.077647083878
   endloop
endfacet
facet normal 0.965925826289052 -0.258819045102583 9.36907386592819e-014
   outer loop
      vertex 406.564164071024 -799.196012866022 -215.490147083878
      vertex 407.120604276998 -797.85264737411 -217.077647083878
      vertex 407.120604276998 -797.85264737411 -215.490147083878
   endloop
endfacet
facet normal 0.866025403784412 -0.500000000000047 8.6805909289844e-014
   outer loop
      vertex 406.564164071024 -799.196012866022 -217.077647083878
      vertex 405.678995531449 -800.349586966037 -215.490147083878
      vertex 405.678995531449 -800.349586966037 -217.077647083878
   endloop
endfacet
facet normal 0.866025403784412 -0.500000000000047 8.6805909289844e-014
   outer loop
      vertex 405.678995531449 -800.349586966037 -215.490147083878
      vertex 406.564164071024 -799.196012866022 -217.077647083878
      vertex 406.564164071024 -799.196012866022 -215.490147083878
   endloop
endfacet
facet normal 0.707106781186489 -0.707106781186606 7.40054006558491e-014
   outer loop
      vertex 405.678995531449 -800.349586966037 -217.077647083878
      vertex 404.525421431433 -801.234755505613 -215.490147083879
      vertex 404.525421431433 -801.234755505613 -217.077647083879
   endloop
endfacet
facet normal 0.707106781186489 -0.707106781186606 7.40054006558491e-014
   outer loop
      vertex 404.525421431433 -801.234755505613 -215.490147083879
      vertex 405.678995531449 -800.349586966037 -217.077647083878
      vertex 405.678995531449 -800.349586966037 -215.490147083878
   endloop
endfacet
facet normal -0.707106781186576 -0.707106781186519 -7.38849482921668e-014
   outer loop
      vertex 403.141190641762 -795.010295180771 -207.552647083879
      vertex 402.730922384608 -794.695485274745 -217.077647083879
      vertex 403.141190641763 -795.010295180771 -217.077647083879
   endloop
endfacet
facet normal -0.707106781186576 -0.707106781186519 -7.38849482921668e-014
   outer loop
      vertex 402.730922384608 -794.695485274745 -217.077647083879
      vertex 403.141190641762 -795.010295180771 -207.552647083879
      vertex 402.730922384607 -794.695485274745 -207.552647083879
   endloop
endfacet
facet normal 0.500000000000103 0.866025403784379 4.64406663179871e-014
   outer loop
      vertex 400.749972003337 -798.126591982377 -207.552647083879
      vertex 401.227739507897 -798.324489762426 -217.077647083879
      vertex 400.749972003338 -798.126591982377 -217.077647083879
   endloop
endfacet
facet normal 0.500000000000103 0.866025403784379 4.64406663179871e-014
   outer loop
      vertex 401.227739507897 -798.324489762426 -217.077647083879
      vertex 400.749972003337 -798.126591982377 -207.552647083879
      vertex 401.227739507896 -798.324489762426 -207.552647083879
   endloop
endfacet
facet normal 0.258819045102619 0.965925826289042 1.58315296810567e-014
   outer loop
      vertex 401.227739507896 -798.324489762426 -207.552647083879
      vertex 401.740447193973 -798.39198900983 -217.077647083879
      vertex 401.227739507897 -798.324489762426 -217.077647083879
   endloop
endfacet
facet normal 0.258819045102619 0.965925826289042 1.58315296810567e-014
   outer loop
      vertex 401.740447193973 -798.39198900983 -217.077647083879
      vertex 401.227739507896 -798.324489762426 -207.552647083879
      vertex 401.740447193972 -798.39198900983 -207.552647083879
   endloop
endfacet
facet normal -0.258819045102619 -0.965925826289042 -1.58315296810567e-014
   outer loop
      vertex 402.253154880049 -794.497587494695 -217.077647083879
      vertex 401.740447193972 -794.430088247291 -207.552647083879
      vertex 401.740447193973 -794.430088247291 -217.077647083879
   endloop
endfacet
facet normal -0.258819045102619 -0.965925826289042 -1.58315296810567e-014
   outer loop
      vertex 401.740447193972 -794.430088247291 -207.552647083879
      vertex 402.253154880049 -794.497587494695 -217.077647083879
      vertex 402.253154880048 -794.497587494695 -207.552647083879
   endloop
endfacet
facet normal 0.707106781186603 0.707106781186492 7.38849482921704e-014
   outer loop
      vertex 400.339703746182 -797.811782076351 -207.552647083879
      vertex 400.749972003338 -798.126591982377 -217.077647083879
      vertex 400.339703746183 -797.81178207635 -217.077647083879
   endloop
endfacet
facet normal 0.707106781186603 0.707106781186492 7.38849482921704e-014
   outer loop
      vertex 400.749972003338 -798.126591982377 -217.077647083879
      vertex 400.339703746182 -797.811782076351 -207.552647083879
      vertex 400.749972003337 -798.126591982377 -207.552647083879
   endloop
endfacet
facet normal -9.37466098105055e-014 1.11346561750549e-014 1.0
   outer loop
      vertex 396.360290110947 -797.85264737411 -215.490147083879
      vertex 396.360290110947 -794.969429883011 -215.490147083879
      vertex 396.170498719051 -796.41103862856 -215.490147083879
   endloop
endfacet
facet normal -9.37466098105055e-014 1.11346561750549e-014 1.0
   outer loop
      vertex 396.360290110947 -794.969429883011 -215.490147083879
      vertex 396.360290110947 -797.85264737411 -215.490147083879
      vertex 396.91673031692 -799.196012866021 -215.490147083879
   endloop
endfacet
facet normal -9.37466098105055e-014 1.11346561750549e-014 1.0
   outer loop
      vertex 396.360290110947 -794.969429883011 -215.490147083879
      vertex 396.91673031692 -799.196012866021 -215.490147083879
      vertex 396.916730316921 -793.6260643911 -215.490147083879
   endloop
endfacet
facet normal -9.37466098105055e-014 1.11346561750549e-014 1.0
   outer loop
      vertex 396.916730316921 -793.6260643911 -215.490147083879
      vertex 396.91673031692 -799.196012866021 -215.490147083879
      vertex 396.971097956512 -796.411038628561 -215.490147083879
   endloop
endfacet
facet normal -9.37466098105055e-014 1.11346561750549e-014 1.0
   outer loop
      vertex 396.971097956512 -796.411038628561 -215.490147083879
      vertex 396.91673031692 -799.196012866021 -215.490147083879
      vertex 397.133609590917 -797.645437043961 -215.490147083879
   endloop
endfacet
facet normal -9.37466098105055e-014 1.11346561750549e-014 1.0
   outer loop
      vertex 397.133609590917 -797.645437043961 -215.490147083879
      vertex 396.91673031692 -799.196012866021 -215.490147083879
      vertex 397.801898856496 -800.349586966037 -215.490147083879
   endloop
endfacet
facet normal -9.37466098105055e-014 1.11346561750549e-014 1.0
   outer loop
      vertex 397.133609590917 -797.645437043961 -215.490147083879
      vertex 397.801898856496 -800.349586966037 -215.490147083879
      vertex 397.610069594812 -798.795713247291 -215.490147083879
   endloop
endfacet
facet normal -9.37466098105055e-014 1.11346561750549e-014 1.0
   outer loop
      vertex 397.610069594812 -798.795713247291 -215.490147083879
      vertex 397.801898856496 -800.349586966037 -215.490147083879
      vertex 398.368008006317 -799.783477816216 -215.490147083879
   endloop
endfacet
facet normal -9.37466098105055e-014 1.11346561750549e-014 1.0
   outer loop
      vertex 398.368008006317 -799.783477816216 -215.490147083879
      vertex 397.801898856496 -800.349586966037 -215.490147083879
      vertex 398.955472956512 -801.234755505613 -215.490147083879
   endloop
endfacet
facet normal -9.37466098105055e-014 1.11346561750549e-014 1.0
   outer loop
      vertex 398.368008006317 -799.783477816216 -215.490147083879
      vertex 398.955472956512 -801.234755505613 -215.490147083879
      vertex 399.355772575242 -800.541416227721 -215.490147083879
   endloop
endfacet
facet normal -9.37466098105055e-014 1.11346561750549e-014 1.0
   outer loop
      vertex 399.355772575242 -800.541416227721 -215.490147083879
      vertex 398.955472956512 -801.234755505613 -215.490147083879
      vertex 400.298838448423 -801.791195711586 -215.490147083879
   endloop
endfacet
facet normal -9.37466098105055e-014 1.11346561750549e-014 1.0
   outer loop
      vertex 399.355772575242 -800.541416227721 -215.490147083879
      vertex 400.298838448423 -801.791195711586 -215.490147083879
      vertex 400.506048778572 -801.017876231616 -215.490147083879
   endloop
endfacet
facet normal -9.37466098105055e-014 1.11346561750549e-014 1.0
   outer loop
      vertex 400.506048778572 -801.017876231616 -215.490147083879
      vertex 400.298838448423 -801.791195711586 -215.490147083879
      vertex 401.740447193972 -801.980987103482 -215.490147083879
   endloop
endfacet
facet normal -9.37466098105055e-014 1.11346561750549e-014 1.0
   outer loop
      vertex 400.506048778572 -801.017876231616 -215.490147083879
      vertex 401.740447193972 -801.980987103482 -215.490147083879
      vertex 401.740447193972 -801.180387866021 -215.490147083879
   endloop
endfacet
facet normal -9.37466098105055e-014 1.11346561750549e-014 1.0
   outer loop
      vertex 401.740447193972 -801.180387866021 -215.490147083879
      vertex 401.740447193972 -801.980987103482 -215.490147083879
      vertex 402.974845609372 -801.017876231616 -215.490147083879
   endloop
endfacet
facet normal -9.37466098105055e-014 1.11346561750549e-014 1.0
   outer loop
      vertex 402.974845609372 -801.017876231616 -215.490147083879
      vertex 401.740447193972 -801.980987103482 -215.490147083879
      vertex 403.182055939521 -801.791195711587 -215.490147083879
   endloop
endfacet
facet normal -9.37466098105055e-014 1.11346561750549e-014 1.0
   outer loop
      vertex 402.974845609372 -801.017876231616 -215.490147083879
      vertex 403.182055939521 -801.791195711587 -215.490147083879
      vertex 404.125121812703 -800.541416227722 -215.490147083878
   endloop
endfacet
facet normal -9.37466098105055e-014 1.11346561750549e-014 1.0
   outer loop
      vertex 404.125121812703 -800.541416227722 -215.490147083878
      vertex 403.182055939521 -801.791195711587 -215.490147083879
      vertex 404.525421431433 -801.234755505613 -215.490147083879
   endloop
endfacet
facet normal -9.37466098105055e-014 1.11346561750549e-014 1.0
   outer loop
      vertex 404.125121812703 -800.541416227722 -215.490147083878
      vertex 404.525421431433 -801.234755505613 -215.490147083879
      vertex 405.112886381628 -799.783477816216 -215.490147083878
   endloop
endfacet
facet normal -9.37466098105055e-014 1.11346561750549e-014 1.0
   outer loop
      vertex 405.112886381628 -799.783477816216 -215.490147083878
      vertex 404.525421431433 -801.234755505613 -215.490147083879
      vertex 405.678995531449 -800.349586966037 -215.490147083878
   endloop
endfacet
facet normal -9.37466098105055e-014 1.11346561750549e-014 1.0
   outer loop
      vertex 405.112886381628 -799.783477816216 -215.490147083878
      vertex 405.678995531449 -800.349586966037 -215.490147083878
      vertex 405.870824793133 -798.795713247291 -215.490147083878
   endloop
endfacet
facet normal -9.37466098105055e-014 1.11346561750549e-014 1.0
   outer loop
      vertex 405.870824793133 -798.795713247291 -215.490147083878
      vertex 405.678995531449 -800.349586966037 -215.490147083878
      vertex 406.564164071024 -799.196012866022 -215.490147083878
   endloop
endfacet
facet normal -9.37466098105055e-014 1.11346561750549e-014 1.0
   outer loop
      vertex 405.870824793133 -798.795713247291 -215.490147083878
      vertex 406.564164071024 -799.196012866022 -215.490147083878
      vertex 406.347284797028 -797.645437043961 -215.490147083878
   endloop
endfacet
facet normal -9.37466098105055e-014 1.11346561750549e-014 1.0
   outer loop
      vertex 406.347284797028 -797.645437043961 -215.490147083878
      vertex 406.564164071024 -799.196012866022 -215.490147083878
      vertex 406.509796431433 -796.411038628561 -215.490147083878
   endloop
endfacet
facet normal -9.37466098105055e-014 1.11346561750549e-014 1.0
   outer loop
      vertex 396.916730316921 -793.6260643911 -215.490147083879
      vertex 397.133609590917 -795.176640213161 -215.490147083879
      vertex 397.801898856496 -792.472490291084 -215.490147083879
   endloop
endfacet
facet normal -9.37466098105055e-014 1.11346561750549e-014 1.0
   outer loop
      vertex 397.133609590917 -795.176640213161 -215.490147083879
      vertex 396.916730316921 -793.6260643911 -215.490147083879
      vertex 396.971097956512 -796.411038628561 -215.490147083879
   endloop
endfacet
facet normal -9.37466098105055e-014 1.11346561750549e-014 1.0
   outer loop
      vertex 397.801898856496 -792.472490291084 -215.490147083879
      vertex 397.133609590917 -795.176640213161 -215.490147083879
      vertex 397.610069594812 -794.02636400983 -215.490147083879
   endloop
endfacet
facet normal -9.37466098105055e-014 1.11346561750549e-014 1.0
   outer loop
      vertex 397.801898856496 -792.472490291084 -215.490147083879
      vertex 397.610069594812 -794.02636400983 -215.490147083879
      vertex 398.368008006318 -793.038599440905 -215.490147083879
   endloop
endfacet
facet normal -9.37466098105055e-014 1.11346561750549e-014 1.0
   outer loop
      vertex 397.801898856496 -792.472490291084 -215.490147083879
      vertex 398.368008006318 -793.038599440905 -215.490147083879
      vertex 398.955472956512 -791.587321751509 -215.490147083879
   endloop
endfacet
facet normal -9.37466098105055e-014 1.11346561750549e-014 1.0
   outer loop
      vertex 398.955472956512 -791.587321751509 -215.490147083879
      vertex 398.368008006318 -793.038599440905 -215.490147083879
      vertex 399.355772575242 -792.2806610294 -215.490147083879
   endloop
endfacet
facet normal -9.37466098105055e-014 1.11346561750549e-014 1.0
   outer loop
      vertex 398.955472956512 -791.587321751509 -215.490147083879
      vertex 399.355772575242 -792.2806610294 -215.490147083879
      vertex 400.298838448424 -791.030881545535 -215.490147083879
   endloop
endfacet
facet normal -9.37466098105055e-014 1.11346561750549e-014 1.0
   outer loop
      vertex 400.298838448424 -791.030881545535 -215.490147083879
      vertex 399.355772575242 -792.2806610294 -215.490147083879
      vertex 400.506048778573 -791.804201025506 -215.490147083879
   endloop
endfacet
facet normal -9.37466098105055e-014 1.11346561750549e-014 1.0
   outer loop
      vertex 400.298838448424 -791.030881545535 -215.490147083879
      vertex 400.506048778573 -791.804201025506 -215.490147083879
      vertex 401.740447193973 -790.84109015364 -215.490147083879
   endloop
endfacet
facet normal -9.37466098105055e-014 1.11346561750549e-014 1.0
   outer loop
      vertex 401.740447193973 -790.84109015364 -215.490147083879
      vertex 400.506048778573 -791.804201025506 -215.490147083879
      vertex 401.740447193973 -791.6416893911 -215.490147083879
   endloop
endfacet
facet normal -9.37466098105055e-014 1.11346561750549e-014 1.0
   outer loop
      vertex 401.740447193973 -790.84109015364 -215.490147083879
      vertex 401.740447193973 -791.6416893911 -215.490147083879
      vertex 403.182055939522 -791.030881545535 -215.490147083879
   endloop
endfacet
facet normal -9.37466098105055e-014 1.11346561750549e-014 1.0
   outer loop
      vertex 403.182055939522 -791.030881545535 -215.490147083879
      vertex 401.740447193973 -791.6416893911 -215.490147083879
      vertex 402.974845609373 -791.804201025506 -215.490147083879
   endloop
endfacet
facet normal -9.37466098105055e-014 1.11346561750549e-014 1.0
   outer loop
      vertex 403.182055939522 -791.030881545535 -215.490147083879
      vertex 402.974845609373 -791.804201025506 -215.490147083879
      vertex 404.125121812703 -792.2806610294 -215.490147083879
   endloop
endfacet
facet normal -9.37466098105055e-014 1.11346561750549e-014 1.0
   outer loop
      vertex 403.182055939522 -791.030881545535 -215.490147083879
      vertex 404.125121812703 -792.2806610294 -215.490147083879
      vertex 404.525421431433 -791.587321751509 -215.490147083879
   endloop
endfacet
facet normal -9.37466098105055e-014 1.11346561750549e-014 1.0
   outer loop
      vertex 404.525421431433 -791.587321751509 -215.490147083879
      vertex 404.125121812703 -792.2806610294 -215.490147083879
      vertex 405.112886381628 -793.038599440906 -215.490147083878
   endloop
endfacet
facet normal -9.37466098105055e-014 1.11346561750549e-014 1.0
   outer loop
      vertex 404.525421431433 -791.587321751509 -215.490147083879
      vertex 405.112886381628 -793.038599440906 -215.490147083878
      vertex 405.678995531449 -792.472490291085 -215.490147083879
   endloop
endfacet
facet normal -9.37466098105055e-014 1.11346561750549e-014 1.0
   outer loop
      vertex 405.678995531449 -792.472490291085 -215.490147083879
      vertex 405.112886381628 -793.038599440906 -215.490147083878
      vertex 405.870824793133 -794.026364009831 -215.490147083878
   endloop
endfacet
facet normal -9.37466098105055e-014 1.11346561750549e-014 1.0
   outer loop
      vertex 405.678995531449 -792.472490291085 -215.490147083879
      vertex 405.870824793133 -794.026364009831 -215.490147083878
      vertex 406.564164071025 -793.626064391101 -215.490147083879
   endloop
endfacet
facet normal -9.37466098105055e-014 1.11346561750549e-014 1.0
   outer loop
      vertex 406.564164071025 -793.626064391101 -215.490147083879
      vertex 405.870824793133 -794.026364009831 -215.490147083878
      vertex 406.347284797028 -795.176640213161 -215.490147083878
   endloop
endfacet
facet normal -9.37466098105055e-014 1.11346561750549e-014 1.0
   outer loop
      vertex 406.564164071025 -793.626064391101 -215.490147083879
      vertex 406.347284797028 -795.176640213161 -215.490147083878
      vertex 406.509796431433 -796.411038628561 -215.490147083878
   endloop
endfacet
facet normal -9.37466098105055e-014 1.11346561750549e-014 1.0
   outer loop
      vertex 406.564164071025 -793.626064391101 -215.490147083879
      vertex 406.509796431433 -796.411038628561 -215.490147083878
      vertex 406.564164071024 -799.196012866022 -215.490147083878
   endloop
endfacet
facet normal -9.37466098105055e-014 1.11346561750549e-014 1.0
   outer loop
      vertex 406.564164071025 -793.626064391101 -215.490147083879
      vertex 406.564164071024 -799.196012866022 -215.490147083878
      vertex 407.120604276998 -797.85264737411 -215.490147083878
   endloop
endfacet
facet normal -9.37466098105055e-014 1.11346561750549e-014 1.0
   outer loop
      vertex 406.564164071025 -793.626064391101 -215.490147083879
      vertex 407.120604276998 -797.85264737411 -215.490147083878
      vertex 407.120604276998 -794.969429883012 -215.490147083878
   endloop
endfacet
facet normal -9.37466098105055e-014 1.11346561750549e-014 1.0
   outer loop
      vertex 407.120604276998 -794.969429883012 -215.490147083878
      vertex 407.120604276998 -797.85264737411 -215.490147083878
      vertex 407.310395668893 -796.411038628561 -215.490147083878
   endloop
endfacet
facet normal 0.866025403784459 0.499999999999965 9.62940931408943e-014
   outer loop
      vertex 400.024893840157 -797.401513819195 -217.07764708388
      vertex 399.826996060106 -796.923746314636 -207.552647083879
      vertex 400.024893840156 -797.401513819196 -207.552647083879
   endloop
endfacet
facet normal 0.866025403784459 0.499999999999965 9.62940931408943e-014
   outer loop
      vertex 399.826996060106 -796.923746314636 -207.552647083879
      vertex 400.024893840157 -797.401513819195 -217.07764708388
      vertex 399.826996060107 -796.923746314636 -217.07764708388
   endloop
endfacet
facet normal 0.965925826289077 0.258819045102487 1.12140954675583e-013
   outer loop
      vertex 399.826996060107 -796.923746314636 -217.07764708388
      vertex 399.759496812702 -796.411038628561 -207.552647083879
      vertex 399.826996060106 -796.923746314636 -207.552647083879
   endloop
endfacet
facet normal 0.965925826289077 0.258819045102487 1.12140954675583e-013
   outer loop
      vertex 399.759496812702 -796.411038628561 -207.552647083879
      vertex 399.826996060107 -796.923746314636 -217.07764708388
      vertex 399.759496812703 -796.411038628561 -217.07764708388
   endloop
endfacet
facet normal 1.0 -1.10061118321133e-013 1.20345595470822e-013
   outer loop
      vertex 399.759496812703 -796.411038628561 -217.07764708388
      vertex 399.826996060106 -795.898330942485 -207.552647083879
      vertex 399.759496812702 -796.411038628561 -207.552647083879
   endloop
endfacet
facet normal 1.0 -1.10061118321133e-013 1.20345595470822e-013
   outer loop
      vertex 399.826996060106 -795.898330942485 -207.552647083879
      vertex 399.759496812703 -796.411038628561 -217.07764708388
      vertex 399.826996060107 -795.898330942485 -217.07764708388
   endloop
endfacet
facet normal 0.965925826289059 -0.258819045102555 1.20348882815222e-013
   outer loop
      vertex 399.826996060107 -795.898330942485 -217.07764708388
      vertex 400.024893840156 -795.420563437926 -207.552647083879
      vertex 399.826996060106 -795.898330942485 -207.552647083879
   endloop
endfacet
facet normal 0.965925826289059 -0.258819045102555 1.20348882815222e-013
   outer loop
      vertex 400.024893840156 -795.420563437926 -207.552647083879
      vertex 399.826996060107 -795.898330942485 -217.07764708388
      vertex 400.024893840157 -795.420563437926 -217.07764708388
   endloop
endfacet
facet normal 0.866025403784406 -0.500000000000056 1.12150592681697e-013
   outer loop
      vertex 400.024893840157 -795.420563437926 -217.07764708388
      vertex 400.339703746182 -795.010295180771 -207.552647083879
      vertex 400.024893840156 -795.420563437926 -207.552647083879
   endloop
endfacet
facet normal 0.866025403784406 -0.500000000000056 1.12150592681697e-013
   outer loop
      vertex 400.339703746182 -795.010295180771 -207.552647083879
      vertex 400.024893840157 -795.420563437926 -217.07764708388
      vertex 400.339703746183 -795.01029518077 -217.077647083879
   endloop
endfacet
facet normal 0.499999999999939 -0.866025403784474 7.39049291528393e-014
   outer loop
      vertex 400.749972003337 -794.695485274745 -207.552647083879
      vertex 400.339703746183 -795.01029518077 -217.077647083879
      vertex 400.749972003338 -794.695485274745 -217.077647083879
   endloop
endfacet
facet normal 0.499999999999939 -0.866025403784474 7.39049291528393e-014
   outer loop
      vertex 400.339703746183 -795.01029518077 -217.077647083879
      vertex 400.749972003337 -794.695485274745 -207.552647083879
      vertex 400.339703746182 -795.010295180771 -207.552647083879
   endloop
endfacet
facet normal 0.707106781186616 0.707106781186479 7.38849482921723e-014
   outer loop
      vertex 400.339703746183 -797.81178207635 -217.077647083879
      vertex 400.024893840156 -797.401513819196 -207.552647083879
      vertex 400.339703746182 -797.811782076351 -207.552647083879
   endloop
endfacet
facet normal 0.707106781186616 0.707106781186479 7.38849482921723e-014
   outer loop
      vertex 400.024893840156 -797.401513819196 -207.552647083879
      vertex 400.339703746183 -797.81178207635 -217.077647083879
      vertex 400.024893840157 -797.401513819195 -217.07764708388
   endloop
endfacet
facet normal -0.866025403784482 -0.499999999999925 -9.62940931408977e-014
   outer loop
      vertex 403.456000547788 -795.420563437926 -207.552647083879
      vertex 403.653898327838 -795.898330942485 -217.077647083879
      vertex 403.653898327837 -795.898330942485 -207.552647083879
   endloop
endfacet
facet normal -0.866025403784482 -0.499999999999925 -9.62940931408977e-014
   outer loop
      vertex 403.653898327838 -795.898330942485 -217.077647083879
      vertex 403.456000547788 -795.420563437926 -207.552647083879
      vertex 403.456000547789 -795.420563437926 -217.077647083879
   endloop
endfacet
facet normal 4.35396829501317e-014 1.0 -1.58564995408029e-014
   outer loop
      vertex 401.740447193972 -798.39198900983 -207.552647083879
      vertex 402.253154880048 -798.324489762426 -217.077647083879
      vertex 401.740447193973 -798.39198900983 -217.077647083879
   endloop
endfacet
facet normal 4.35396829501317e-014 1.0 -1.58564995408029e-014
   outer loop
      vertex 402.253154880048 -798.324489762426 -217.077647083879
      vertex 401.740447193972 -798.39198900983 -207.552647083879
      vertex 402.253154880047 -798.324489762426 -207.552647083879
   endloop
endfacet
facet normal 0.258819045102395 -0.965925826289102 4.64639345230446e-014
   outer loop
      vertex 401.227739507897 -794.497587494695 -217.077647083879
      vertex 400.749972003337 -794.695485274745 -207.552647083879
      vertex 400.749972003338 -794.695485274745 -217.077647083879
   endloop
endfacet
facet normal 0.258819045102395 -0.965925826289102 4.64639345230446e-014
   outer loop
      vertex 400.749972003337 -794.695485274745 -207.552647083879
      vertex 401.227739507897 -794.497587494695 -217.077647083879
      vertex 401.227739507896 -794.497587494695 -207.552647083879
   endloop
endfacet
facet normal -0.965925826289058 0.258819045102559 -1.20348882815221e-013
   outer loop
      vertex 403.653898327837 -796.923746314637 -207.552647083879
      vertex 403.456000547789 -797.401513819196 -217.077647083879
      vertex 403.456000547788 -797.401513819196 -207.552647083879
   endloop
endfacet
facet normal -0.965925826289058 0.258819045102559 -1.20348882815221e-013
   outer loop
      vertex 403.456000547789 -797.401513819196 -217.077647083879
      vertex 403.653898327837 -796.923746314637 -207.552647083879
      vertex 403.653898327838 -796.923746314636 -217.077647083879
   endloop
endfacet
facet normal -0.965925826289091 -0.258819045102436 -1.12140954675585e-013
   outer loop
      vertex 403.653898327837 -795.898330942485 -207.552647083879
      vertex 403.721397575242 -796.411038628561 -217.077647083879
      vertex 403.721397575242 -796.411038628561 -207.552647083879
   endloop
endfacet
facet normal -0.965925826289091 -0.258819045102436 -1.12140954675585e-013
   outer loop
      vertex 403.721397575242 -796.411038628561 -217.077647083879
      vertex 403.653898327837 -795.898330942485 -207.552647083879
      vertex 403.653898327838 -795.898330942485 -217.077647083879
   endloop
endfacet
facet normal -1.0 5.54360146608189e-014 -1.20345595470821e-013
   outer loop
      vertex 403.721397575242 -796.411038628561 -207.552647083879
      vertex 403.653898327838 -796.923746314636 -217.077647083879
      vertex 403.653898327837 -796.923746314637 -207.552647083879
   endloop
endfacet
facet normal -1.0 5.54360146608189e-014 -1.20345595470821e-013
   outer loop
      vertex 403.653898327838 -796.923746314636 -217.077647083879
      vertex 403.721397575242 -796.411038628561 -207.552647083879
      vertex 403.721397575242 -796.411038628561 -217.077647083879
   endloop
endfacet
facet normal -5.12834374494476e-014 -1.0 1.5856499540802e-014
   outer loop
      vertex 401.740447193973 -794.430088247291 -217.077647083879
      vertex 401.227739507896 -794.497587494695 -207.552647083879
      vertex 401.227739507897 -794.497587494695 -217.077647083879
   endloop
endfacet
facet normal -5.12834374494476e-014 -1.0 1.5856499540802e-014
   outer loop
      vertex 401.227739507896 -794.497587494695 -207.552647083879
      vertex 401.740447193973 -794.430088247291 -217.077647083879
      vertex 401.740447193972 -794.430088247291 -207.552647083879
   endloop
endfacet
facet normal -0.707106781186576 -0.707106781186519 -7.38849482921668e-014
   outer loop
      vertex 403.141190641762 -795.010295180771 -207.552647083879
      vertex 403.456000547789 -795.420563437926 -217.077647083879
      vertex 403.456000547788 -795.420563437926 -207.552647083879
   endloop
endfacet
facet normal -0.707106781186576 -0.707106781186519 -7.38849482921668e-014
   outer loop
      vertex 403.456000547789 -795.420563437926 -217.077647083879
      vertex 403.141190641762 -795.010295180771 -207.552647083879
      vertex 403.141190641763 -795.010295180771 -217.077647083879
   endloop
endfacet
facet normal -0.500000000000098 -0.866025403784382 -4.64406663179864e-014
   outer loop
      vertex 402.730922384607 -794.695485274745 -207.552647083879
      vertex 402.253154880049 -794.497587494695 -217.077647083879
      vertex 402.730922384608 -794.695485274745 -217.077647083879
   endloop
endfacet
facet normal -0.500000000000098 -0.866025403784382 -4.64406663179864e-014
   outer loop
      vertex 402.253154880049 -794.497587494695 -217.077647083879
      vertex 402.730922384607 -794.695485274745 -207.552647083879
      vertex 402.253154880048 -794.497587494695 -207.552647083879
   endloop
endfacet
facet normal -9.34229243285585e-014 1.14457584831702e-014 1.0
   outer loop
      vertex 397.133609590917 -797.64543704396 -207.552647083879
      vertex 397.133609590917 -795.176640213161 -207.552647083879
      vertex 396.971097956511 -796.41103862856 -207.552647083879
   endloop
endfacet
facet normal -9.34229243285585e-014 1.14457584831702e-014 1.0
   outer loop
      vertex 397.133609590917 -795.176640213161 -207.552647083879
      vertex 397.133609590917 -797.64543704396 -207.552647083879
      vertex 397.610069594811 -798.795713247291 -207.552647083879
   endloop
endfacet
facet normal -9.34229243285585e-014 1.14457584831702e-014 1.0
   outer loop
      vertex 397.133609590917 -795.176640213161 -207.552647083879
      vertex 397.610069594811 -798.795713247291 -207.552647083879
      vertex 397.610069594811 -794.02636400983 -207.552647083879
   endloop
endfacet
facet normal -9.34229243285585e-014 1.14457584831702e-014 1.0
   outer loop
      vertex 397.610069594811 -794.02636400983 -207.552647083879
      vertex 397.610069594811 -798.795713247291 -207.552647083879
      vertex 398.368008006316 -799.783477816216 -207.552647083879
   endloop
endfacet
facet normal -9.34229243285585e-014 1.14457584831702e-014 1.0
   outer loop
      vertex 397.610069594811 -794.02636400983 -207.552647083879
      vertex 398.368008006316 -799.783477816216 -207.552647083879
      vertex 398.368008006317 -793.038599440905 -207.552647083879
   endloop
endfacet
facet normal -9.34229243285585e-014 1.14457584831702e-014 1.0
   outer loop
      vertex 398.368008006317 -793.038599440905 -207.552647083879
      vertex 398.368008006316 -799.783477816216 -207.552647083879
      vertex 399.355772575241 -800.541416227721 -207.552647083879
   endloop
endfacet
facet normal -9.34229243285585e-014 1.14457584831702e-014 1.0
   outer loop
      vertex 398.368008006317 -793.038599440905 -207.552647083879
      vertex 399.355772575241 -800.541416227721 -207.552647083879
      vertex 399.355772575242 -792.2806610294 -207.552647083879
   endloop
endfacet
facet normal -9.34229243285585e-014 1.14457584831702e-014 1.0
   outer loop
      vertex 399.355772575242 -792.2806610294 -207.552647083879
      vertex 399.355772575241 -800.541416227721 -207.552647083879
      vertex 399.759496812702 -796.411038628561 -207.552647083879
   endloop
endfacet
facet normal -9.34229243285585e-014 1.14457584831702e-014 1.0
   outer loop
      vertex 399.759496812702 -796.411038628561 -207.552647083879
      vertex 399.355772575241 -800.541416227721 -207.552647083879
      vertex 399.826996060106 -796.923746314636 -207.552647083879
   endloop
endfacet
facet normal -9.34229243285585e-014 1.14457584831702e-014 1.0
   outer loop
      vertex 399.826996060106 -796.923746314636 -207.552647083879
      vertex 399.355772575241 -800.541416227721 -207.552647083879
      vertex 400.506048778571 -801.017876231616 -207.552647083879
   endloop
endfacet
facet normal -9.34229243285585e-014 1.14457584831702e-014 1.0
   outer loop
      vertex 399.826996060106 -796.923746314636 -207.552647083879
      vertex 400.506048778571 -801.017876231616 -207.552647083879
      vertex 400.024893840156 -797.401513819196 -207.552647083879
   endloop
endfacet
facet normal -9.34229243285585e-014 1.14457584831702e-014 1.0
   outer loop
      vertex 400.024893840156 -797.401513819196 -207.552647083879
      vertex 400.506048778571 -801.017876231616 -207.552647083879
      vertex 400.339703746182 -797.811782076351 -207.552647083879
   endloop
endfacet
facet normal -9.34229243285585e-014 1.14457584831702e-014 1.0
   outer loop
      vertex 400.339703746182 -797.811782076351 -207.552647083879
      vertex 400.506048778571 -801.017876231616 -207.552647083879
      vertex 400.749972003337 -798.126591982377 -207.552647083879
   endloop
endfacet
facet normal -9.34229243285585e-014 1.14457584831702e-014 1.0
   outer loop
      vertex 400.749972003337 -798.126591982377 -207.552647083879
      vertex 400.506048778571 -801.017876231616 -207.552647083879
      vertex 401.740447193971 -801.180387866021 -207.552647083879
   endloop
endfacet
facet normal -9.34229243285585e-014 1.14457584831702e-014 1.0
   outer loop
      vertex 400.749972003337 -798.126591982377 -207.552647083879
      vertex 401.740447193971 -801.180387866021 -207.552647083879
      vertex 401.227739507896 -798.324489762426 -207.552647083879
   endloop
endfacet
facet normal -9.34229243285585e-014 1.14457584831702e-014 1.0
   outer loop
      vertex 401.227739507896 -798.324489762426 -207.552647083879
      vertex 401.740447193971 -801.180387866021 -207.552647083879
      vertex 401.740447193972 -798.39198900983 -207.552647083879
   endloop
endfacet
facet normal -9.34229243285585e-014 1.14457584831702e-014 1.0
   outer loop
      vertex 401.740447193972 -798.39198900983 -207.552647083879
      vertex 401.740447193971 -801.180387866021 -207.552647083879
      vertex 402.974845609371 -801.017876231616 -207.552647083879
   endloop
endfacet
facet normal -9.34229243285585e-014 1.14457584831702e-014 1.0
   outer loop
      vertex 401.740447193972 -798.39198900983 -207.552647083879
      vertex 402.974845609371 -801.017876231616 -207.552647083879
      vertex 402.253154880047 -798.324489762426 -207.552647083879
   endloop
endfacet
facet normal -9.34229243285585e-014 1.14457584831702e-014 1.0
   outer loop
      vertex 402.253154880047 -798.324489762426 -207.552647083879
      vertex 402.974845609371 -801.017876231616 -207.552647083879
      vertex 402.730922384607 -798.126591982377 -207.552647083879
   endloop
endfacet
facet normal -9.34229243285585e-014 1.14457584831702e-014 1.0
   outer loop
      vertex 402.730922384607 -798.126591982377 -207.552647083879
      vertex 402.974845609371 -801.017876231616 -207.552647083879
      vertex 403.141190641761 -797.811782076351 -207.552647083879
   endloop
endfacet
facet normal -9.34229243285585e-014 1.14457584831702e-014 1.0
   outer loop
      vertex 403.141190641761 -797.811782076351 -207.552647083879
      vertex 402.974845609371 -801.017876231616 -207.552647083879
      vertex 404.125121812702 -800.541416227722 -207.552647083879
   endloop
endfacet
facet normal -9.34229243285585e-014 1.14457584831702e-014 1.0
   outer loop
      vertex 403.141190641761 -797.811782076351 -207.552647083879
      vertex 404.125121812702 -800.541416227722 -207.552647083879
      vertex 403.456000547788 -797.401513819196 -207.552647083879
   endloop
endfacet
facet normal -9.34229243285585e-014 1.14457584831702e-014 1.0
   outer loop
      vertex 403.456000547788 -797.401513819196 -207.552647083879
      vertex 404.125121812702 -800.541416227722 -207.552647083879
      vertex 403.653898327837 -796.923746314637 -207.552647083879
   endloop
endfacet
facet normal -9.34229243285585e-014 1.14457584831702e-014 1.0
   outer loop
      vertex 403.653898327837 -796.923746314637 -207.552647083879
      vertex 404.125121812702 -800.541416227722 -207.552647083879
      vertex 403.721397575242 -796.411038628561 -207.552647083879
   endloop
endfacet
facet normal -9.34229243285585e-014 1.14457584831702e-014 1.0
   outer loop
      vertex 399.355772575242 -792.2806610294 -207.552647083879
      vertex 399.826996060106 -795.898330942485 -207.552647083879
      vertex 400.506048778572 -791.804201025506 -207.552647083879
   endloop
endfacet
facet normal -9.34229243285585e-014 1.14457584831702e-014 1.0
   outer loop
      vertex 399.826996060106 -795.898330942485 -207.552647083879
      vertex 399.355772575242 -792.2806610294 -207.552647083879
      vertex 399.759496812702 -796.411038628561 -207.552647083879
   endloop
endfacet
facet normal -9.34229243285585e-014 1.14457584831702e-014 1.0
   outer loop
      vertex 400.506048778572 -791.804201025506 -207.552647083879
      vertex 399.826996060106 -795.898330942485 -207.552647083879
      vertex 400.024893840156 -795.420563437926 -207.552647083879
   endloop
endfacet
facet normal -9.34229243285585e-014 1.14457584831702e-014 1.0
   outer loop
      vertex 400.506048778572 -791.804201025506 -207.552647083879
      vertex 400.024893840156 -795.420563437926 -207.552647083879
      vertex 400.339703746182 -795.010295180771 -207.552647083879
   endloop
endfacet
facet normal -9.34229243285585e-014 1.14457584831702e-014 1.0
   outer loop
      vertex 400.506048778572 -791.804201025506 -207.552647083879
      vertex 400.339703746182 -795.010295180771 -207.552647083879
      vertex 400.749972003337 -794.695485274745 -207.552647083879
   endloop
endfacet
facet normal -9.34229243285585e-014 1.14457584831702e-014 1.0
   outer loop
      vertex 400.506048778572 -791.804201025506 -207.552647083879
      vertex 400.749972003337 -794.695485274745 -207.552647083879
      vertex 401.740447193972 -791.6416893911 -207.552647083879
   endloop
endfacet
facet normal -9.34229243285585e-014 1.14457584831702e-014 1.0
   outer loop
      vertex 401.740447193972 -791.6416893911 -207.552647083879
      vertex 400.749972003337 -794.695485274745 -207.552647083879
      vertex 401.227739507896 -794.497587494695 -207.552647083879
   endloop
endfacet
facet normal -9.34229243285585e-014 1.14457584831702e-014 1.0
   outer loop
      vertex 401.740447193972 -791.6416893911 -207.552647083879
      vertex 401.227739507896 -794.497587494695 -207.552647083879
      vertex 401.740447193972 -794.430088247291 -207.552647083879
   endloop
endfacet
facet normal -9.34229243285585e-014 1.14457584831702e-014 1.0
   outer loop
      vertex 401.740447193972 -791.6416893911 -207.552647083879
      vertex 401.740447193972 -794.430088247291 -207.552647083879
      vertex 402.253154880048 -794.497587494695 -207.552647083879
   endloop
endfacet
facet normal -9.34229243285585e-014 1.14457584831702e-014 1.0
   outer loop
      vertex 401.740447193972 -791.6416893911 -207.552647083879
      vertex 402.253154880048 -794.497587494695 -207.552647083879
      vertex 402.974845609372 -791.804201025506 -207.552647083879
   endloop
endfacet
facet normal -9.34229243285585e-014 1.14457584831702e-014 1.0
   outer loop
      vertex 402.974845609372 -791.804201025506 -207.552647083879
      vertex 402.253154880048 -794.497587494695 -207.552647083879
      vertex 402.730922384607 -794.695485274745 -207.552647083879
   endloop
endfacet
facet normal -9.34229243285585e-014 1.14457584831702e-014 1.0
   outer loop
      vertex 402.974845609372 -791.804201025506 -207.552647083879
      vertex 402.730922384607 -794.695485274745 -207.552647083879
      vertex 403.141190641762 -795.010295180771 -207.552647083879
   endloop
endfacet
facet normal -9.34229243285585e-014 1.14457584831702e-014 1.0
   outer loop
      vertex 402.974845609372 -791.804201025506 -207.552647083879
      vertex 403.141190641762 -795.010295180771 -207.552647083879
      vertex 404.125121812702 -792.2806610294 -207.552647083879
   endloop
endfacet
facet normal -9.34229243285585e-014 1.14457584831702e-014 1.0
   outer loop
      vertex 404.125121812702 -792.2806610294 -207.552647083879
      vertex 403.141190641762 -795.010295180771 -207.552647083879
      vertex 403.456000547788 -795.420563437926 -207.552647083879
   endloop
endfacet
facet normal -9.34229243285585e-014 1.14457584831702e-014 1.0
   outer loop
      vertex 404.125121812702 -792.2806610294 -207.552647083879
      vertex 403.456000547788 -795.420563437926 -207.552647083879
      vertex 403.653898327837 -795.898330942485 -207.552647083879
   endloop
endfacet
facet normal -9.34229243285585e-014 1.14457584831702e-014 1.0
   outer loop
      vertex 404.125121812702 -792.2806610294 -207.552647083879
      vertex 403.653898327837 -795.898330942485 -207.552647083879
      vertex 403.721397575242 -796.411038628561 -207.552647083879
   endloop
endfacet
facet normal -9.34229243285585e-014 1.14457584831702e-014 1.0
   outer loop
      vertex 404.125121812702 -792.2806610294 -207.552647083879
      vertex 403.721397575242 -796.411038628561 -207.552647083879
      vertex 404.125121812702 -800.541416227722 -207.552647083879
   endloop
endfacet
facet normal -9.34229243285585e-014 1.14457584831702e-014 1.0
   outer loop
      vertex 404.125121812702 -792.2806610294 -207.552647083879
      vertex 404.125121812702 -800.541416227722 -207.552647083879
      vertex 405.112886381627 -799.783477816216 -207.552647083879
   endloop
endfacet
facet normal -9.34229243285585e-014 1.14457584831702e-014 1.0
   outer loop
      vertex 404.125121812702 -792.2806610294 -207.552647083879
      vertex 405.112886381627 -799.783477816216 -207.552647083879
      vertex 405.112886381627 -793.038599440906 -207.552647083879
   endloop
endfacet
facet normal -9.34229243285585e-014 1.14457584831702e-014 1.0
   outer loop
      vertex 405.112886381627 -793.038599440906 -207.552647083879
      vertex 405.112886381627 -799.783477816216 -207.552647083879
      vertex 405.870824793132 -798.795713247291 -207.552647083878
   endloop
endfacet
facet normal -9.34229243285585e-014 1.14457584831702e-014 1.0
   outer loop
      vertex 405.112886381627 -793.038599440906 -207.552647083879
      vertex 405.870824793132 -798.795713247291 -207.552647083878
      vertex 405.870824793133 -794.026364009831 -207.552647083879
   endloop
endfacet
facet normal -9.34229243285585e-014 1.14457584831702e-014 1.0
   outer loop
      vertex 405.870824793133 -794.026364009831 -207.552647083879
      vertex 405.870824793132 -798.795713247291 -207.552647083878
      vertex 406.347284797027 -797.645437043961 -207.552647083878
   endloop
endfacet
facet normal -9.34229243285585e-014 1.14457584831702e-014 1.0
   outer loop
      vertex 405.870824793133 -794.026364009831 -207.552647083879
      vertex 406.347284797027 -797.645437043961 -207.552647083878
      vertex 406.347284797027 -795.176640213161 -207.552647083878
   endloop
endfacet
facet normal -9.34229243285585e-014 1.14457584831702e-014 1.0
   outer loop
      vertex 406.347284797027 -795.176640213161 -207.552647083878
      vertex 406.347284797027 -797.645437043961 -207.552647083878
      vertex 406.509796431432 -796.411038628561 -207.552647083878
   endloop
endfacet
facet normal -0.499999999999977 0.866025403784452 -7.39049291528435e-014
   outer loop
      vertex 402.730922384607 -798.126591982377 -207.552647083879
      vertex 403.141190641762 -797.811782076351 -217.077647083879
      vertex 402.730922384607 -798.126591982377 -217.077647083879
   endloop
endfacet
facet normal -0.499999999999977 0.866025403784452 -7.39049291528435e-014
   outer loop
      vertex 403.141190641762 -797.811782076351 -217.077647083879
      vertex 402.730922384607 -798.126591982377 -207.552647083879
      vertex 403.141190641761 -797.811782076351 -207.552647083879
   endloop
endfacet
facet normal -0.866025403784386 0.500000000000091 -1.12150592681695e-013
   outer loop
      vertex 403.456000547788 -797.401513819196 -207.552647083879
      vertex 403.141190641762 -797.811782076351 -217.077647083879
      vertex 403.141190641761 -797.811782076351 -207.552647083879
   endloop
endfacet
facet normal -0.866025403784386 0.500000000000091 -1.12150592681695e-013
   outer loop
      vertex 403.141190641762 -797.811782076351 -217.077647083879
      vertex 403.456000547788 -797.401513819196 -207.552647083879
      vertex 403.456000547789 -797.401513819196 -217.077647083879
   endloop
endfacet
facet normal 0.965925826289053 -0.258819045102578 9.32019956574914e-014
   outer loop
      vertex 406.347284797028 -797.645437043961 -215.490147083878
      vertex 405.870824793132 -798.795713247291 -207.552647083878
      vertex 405.870824793133 -798.795713247291 -215.490147083878
   endloop
endfacet
facet normal 0.965925826289053 -0.258819045102578 9.32019956574914e-014
   outer loop
      vertex 405.870824793132 -798.795713247291 -207.552647083878
      vertex 406.347284797028 -797.645437043961 -215.490147083878
      vertex 406.347284797027 -797.645437043961 -207.552647083878
   endloop
endfacet
facet normal 1.0 -4.80397934474318e-014 9.34229243285591e-014
   outer loop
      vertex 406.509796431433 -796.411038628561 -215.490147083878
      vertex 406.347284797027 -797.645437043961 -207.552647083878
      vertex 406.347284797028 -797.645437043961 -215.490147083878
   endloop
endfacet
facet normal 1.0 -4.80397934474318e-014 9.34229243285591e-014
   outer loop
      vertex 406.347284797027 -797.645437043961 -207.552647083878
      vertex 406.509796431433 -796.411038628561 -215.490147083878
      vertex 406.509796431432 -796.411038628561 -207.552647083878
   endloop
endfacet
facet normal 0.965925826289081 0.258819045102474 8.72772350953175e-014
   outer loop
      vertex 406.347284797028 -795.176640213161 -215.490147083878
      vertex 406.509796431432 -796.411038628561 -207.552647083878
      vertex 406.509796431433 -796.411038628561 -215.490147083878
   endloop
endfacet
facet normal 0.965925826289081 0.258819045102474 8.72772350953175e-014
   outer loop
      vertex 406.509796431432 -796.411038628561 -207.552647083878
      vertex 406.347284797028 -795.176640213161 -215.490147083878
      vertex 406.347284797027 -795.176640213161 -207.552647083878
   endloop
endfacet
facet normal 0.866025403784477 0.499999999999934 7.51837465227822e-014
   outer loop
      vertex 405.870824793133 -794.026364009831 -215.490147083878
      vertex 406.347284797027 -795.176640213161 -207.552647083878
      vertex 406.347284797028 -795.176640213161 -215.490147083878
   endloop
endfacet
facet normal 0.866025403784477 0.499999999999934 7.51837465227822e-014
   outer loop
      vertex 406.347284797027 -795.176640213161 -207.552647083878
      vertex 405.870824793133 -794.026364009831 -215.490147083878
      vertex 405.870824793133 -794.026364009831 -207.552647083879
   endloop
endfacet
facet normal 0.70710678118659 0.707106781186505 5.79666098717328e-014
   outer loop
      vertex 405.112886381628 -793.038599440906 -215.490147083878
      vertex 405.870824793133 -794.026364009831 -207.552647083879
      vertex 405.870824793133 -794.026364009831 -215.490147083878
   endloop
endfacet
facet normal 0.70710678118659 0.707106781186505 5.79666098717328e-014
   outer loop
      vertex 405.870824793133 -794.026364009831 -207.552647083879
      vertex 405.112886381628 -793.038599440906 -215.490147083878
      vertex 405.112886381627 -793.038599440906 -207.552647083879
   endloop
endfacet
facet normal 0.500000000000053 0.866025403784408 3.6799144552278e-014
   outer loop
      vertex 404.125121812702 -792.2806610294 -207.552647083879
      vertex 405.112886381628 -793.038599440906 -215.490147083878
      vertex 404.125121812703 -792.2806610294 -215.490147083879
   endloop
endfacet
facet normal 0.500000000000053 0.866025403784408 3.6799144552278e-014
   outer loop
      vertex 405.112886381628 -793.038599440906 -215.490147083878
      vertex 404.125121812702 -792.2806610294 -207.552647083879
      vertex 405.112886381627 -793.038599440906 -207.552647083879
   endloop
endfacet
facet normal 0.25881904510261 0.965925826289045 1.31238783450499e-014
   outer loop
      vertex 402.974845609372 -791.804201025506 -207.552647083879
      vertex 404.125121812703 -792.2806610294 -215.490147083879
      vertex 402.974845609373 -791.804201025506 -215.490147083879
   endloop
endfacet
facet normal 0.25881904510261 0.965925826289045 1.31238783450499e-014
   outer loop
      vertex 404.125121812703 -792.2806610294 -215.490147083879
      vertex 402.974845609372 -791.804201025506 -207.552647083879
      vertex 404.125121812702 -792.2806610294 -207.552647083879
   endloop
endfacet
facet normal 8.03871223686319e-014 1.0 -1.14457584831627e-014
   outer loop
      vertex 401.740447193972 -791.6416893911 -207.552647083879
      vertex 402.974845609373 -791.804201025506 -215.490147083879
      vertex 401.740447193973 -791.6416893911 -215.490147083879
   endloop
endfacet
facet normal 8.03871223686319e-014 1.0 -1.14457584831627e-014
   outer loop
      vertex 402.974845609373 -791.804201025506 -215.490147083879
      vertex 401.740447193972 -791.6416893911 -207.552647083879
      vertex 402.974845609372 -791.804201025506 -207.552647083879
   endloop
endfacet
facet normal -0.258819045102461 0.965925826289084 -3.52353857857585e-014
   outer loop
      vertex 400.506048778572 -791.804201025506 -207.552647083879
      vertex 401.740447193973 -791.6416893911 -215.490147083879
      vertex 400.506048778573 -791.804201025506 -215.490147083879
   endloop
endfacet
facet normal -0.258819045102461 0.965925826289084 -3.52353857857585e-014
   outer loop
      vertex 401.740447193973 -791.6416893911 -215.490147083879
      vertex 400.506048778572 -791.804201025506 -207.552647083879
      vertex 401.740447193972 -791.6416893911 -207.552647083879
   endloop
endfacet
facet normal -0.499999999999939 0.866025403784474 -5.66237797762806e-014
   outer loop
      vertex 399.355772575242 -792.2806610294 -207.552647083879
      vertex 400.506048778573 -791.804201025506 -215.490147083879
      vertex 399.355772575242 -792.2806610294 -215.490147083879
   endloop
endfacet
facet normal -0.499999999999939 0.866025403784474 -5.66237797762806e-014
   outer loop
      vertex 400.506048778573 -791.804201025506 -215.490147083879
      vertex 399.355772575242 -792.2806610294 -207.552647083879
      vertex 400.506048778572 -791.804201025506 -207.552647083879
   endloop
endfacet
facet normal -0.707106781186493 0.707106781186602 -7.415335675027e-014
   outer loop
      vertex 398.368008006317 -793.038599440905 -207.552647083879
      vertex 399.355772575242 -792.2806610294 -215.490147083879
      vertex 398.368008006318 -793.038599440905 -215.490147083879
   endloop
endfacet
facet normal -0.707106781186493 0.707106781186602 -7.415335675027e-014
   outer loop
      vertex 399.355772575242 -792.2806610294 -215.490147083879
      vertex 398.368008006317 -793.038599440905 -207.552647083879
      vertex 399.355772575242 -792.2806610294 -207.552647083879
   endloop
endfacet
facet normal -0.866025403784407 0.500000000000054 -8.66295050059458e-014
   outer loop
      vertex 397.610069594811 -794.02636400983 -207.552647083879
      vertex 398.368008006318 -793.038599440905 -215.490147083879
      vertex 397.610069594812 -794.02636400983 -215.490147083879
   endloop
endfacet
facet normal -0.866025403784407 0.500000000000054 -8.66295050059458e-014
   outer loop
      vertex 398.368008006318 -793.038599440905 -215.490147083879
      vertex 397.610069594811 -794.02636400983 -207.552647083879
      vertex 398.368008006317 -793.038599440905 -207.552647083879
   endloop
endfacet
facet normal -0.965925826289053 0.258819045102578 -9.32019956574914e-014
   outer loop
      vertex 397.133609590917 -795.176640213161 -207.552647083879
      vertex 397.610069594812 -794.02636400983 -215.490147083879
      vertex 397.133609590917 -795.176640213161 -215.490147083879
   endloop
endfacet
facet normal -0.965925826289053 0.258819045102578 -9.32019956574914e-014
   outer loop
      vertex 397.610069594812 -794.02636400983 -215.490147083879
      vertex 397.133609590917 -795.176640213161 -207.552647083879
      vertex 397.610069594811 -794.02636400983 -207.552647083879
   endloop
endfacet
facet normal -1.0 4.95457710197967e-014 -9.34229243285591e-014
   outer loop
      vertex 396.971097956511 -796.41103862856 -207.552647083879
      vertex 397.133609590917 -795.176640213161 -215.490147083879
      vertex 396.971097956512 -796.411038628561 -215.490147083879
   endloop
endfacet
facet normal -1.0 4.95457710197967e-014 -9.34229243285591e-014
   outer loop
      vertex 397.133609590917 -795.176640213161 -215.490147083879
      vertex 396.971097956511 -796.41103862856 -207.552647083879
      vertex 397.133609590917 -795.176640213161 -207.552647083879
   endloop
endfacet
facet normal -0.965925826289081 -0.258819045102474 -8.72772350953175e-014
   outer loop
      vertex 397.133609590917 -797.64543704396 -207.552647083879
      vertex 396.971097956512 -796.411038628561 -215.490147083879
      vertex 397.133609590917 -797.645437043961 -215.490147083879
   endloop
endfacet
facet normal -0.965925826289081 -0.258819045102474 -8.72772350953175e-014
   outer loop
      vertex 396.971097956512 -796.411038628561 -215.490147083879
      vertex 397.133609590917 -797.64543704396 -207.552647083879
      vertex 396.971097956511 -796.41103862856 -207.552647083879
   endloop
endfacet
facet normal -0.866025403784476 -0.499999999999935 -7.51837465227821e-014
   outer loop
      vertex 397.610069594811 -798.795713247291 -207.552647083879
      vertex 397.133609590917 -797.645437043961 -215.490147083879
      vertex 397.610069594812 -798.795713247291 -215.490147083879
   endloop
endfacet
facet normal -0.866025403784476 -0.499999999999935 -7.51837465227821e-014
   outer loop
      vertex 397.133609590917 -797.645437043961 -215.490147083879
      vertex 397.610069594811 -798.795713247291 -207.552647083879
      vertex 397.133609590917 -797.64543704396 -207.552647083879
   endloop
endfacet
facet normal -0.707106781186589 -0.707106781186506 -5.79666098717327e-014
   outer loop
      vertex 398.368008006316 -799.783477816216 -207.552647083879
      vertex 397.610069594812 -798.795713247291 -215.490147083879
      vertex 398.368008006317 -799.783477816216 -215.490147083879
   endloop
endfacet
facet normal -0.707106781186589 -0.707106781186506 -5.79666098717327e-014
   outer loop
      vertex 397.610069594812 -798.795713247291 -215.490147083879
      vertex 398.368008006316 -799.783477816216 -207.552647083879
      vertex 397.610069594811 -798.795713247291 -207.552647083879
   endloop
endfacet
facet normal -0.500000000000052 -0.866025403784409 -3.67991445522778e-014
   outer loop
      vertex 399.355772575242 -800.541416227721 -215.490147083879
      vertex 398.368008006316 -799.783477816216 -207.552647083879
      vertex 398.368008006317 -799.783477816216 -215.490147083879
   endloop
endfacet
facet normal -0.500000000000052 -0.866025403784409 -3.67991445522778e-014
   outer loop
      vertex 398.368008006316 -799.783477816216 -207.552647083879
      vertex 399.355772575242 -800.541416227721 -215.490147083879
      vertex 399.355772575241 -800.541416227721 -207.552647083879
   endloop
endfacet
facet normal -0.25881904510261 -0.965925826289045 -1.31238783450499e-014
   outer loop
      vertex 400.506048778572 -801.017876231616 -215.490147083879
      vertex 399.355772575241 -800.541416227721 -207.552647083879
      vertex 399.355772575242 -800.541416227721 -215.490147083879
   endloop
endfacet
facet normal -0.25881904510261 -0.965925826289045 -1.31238783450499e-014
   outer loop
      vertex 399.355772575241 -800.541416227721 -207.552647083879
      vertex 400.506048778572 -801.017876231616 -215.490147083879
      vertex 400.506048778571 -801.017876231616 -207.552647083879
   endloop
endfacet
facet normal -8.19020110508928e-014 -1.0 1.14457584831625e-014
   outer loop
      vertex 401.740447193972 -801.180387866021 -215.490147083879
      vertex 400.506048778571 -801.017876231616 -207.552647083879
      vertex 400.506048778572 -801.017876231616 -215.490147083879
   endloop
endfacet
facet normal -8.19020110508928e-014 -1.0 1.14457584831625e-014
   outer loop
      vertex 400.506048778571 -801.017876231616 -207.552647083879
      vertex 401.740447193972 -801.180387866021 -215.490147083879
      vertex 401.740447193971 -801.180387866021 -207.552647083879
   endloop
endfacet
facet normal 0.25881904510246 -0.965925826289085 3.52353857857583e-014
   outer loop
      vertex 402.974845609372 -801.017876231616 -215.490147083879
      vertex 401.740447193971 -801.180387866021 -207.552647083879
      vertex 401.740447193972 -801.180387866021 -215.490147083879
   endloop
endfacet
facet normal 0.25881904510246 -0.965925826289085 3.52353857857583e-014
   outer loop
      vertex 401.740447193971 -801.180387866021 -207.552647083879
      vertex 402.974845609372 -801.017876231616 -215.490147083879
      vertex 402.974845609371 -801.017876231616 -207.552647083879
   endloop
endfacet
facet normal 0.499999999999939 -0.866025403784474 5.66237797762806e-014
   outer loop
      vertex 404.125121812703 -800.541416227722 -215.490147083878
      vertex 402.974845609371 -801.017876231616 -207.552647083879
      vertex 402.974845609372 -801.017876231616 -215.490147083879
   endloop
endfacet
facet normal 0.499999999999939 -0.866025403784474 5.66237797762806e-014
   outer loop
      vertex 402.974845609371 -801.017876231616 -207.552647083879
      vertex 404.125121812703 -800.541416227722 -215.490147083878
      vertex 404.125121812702 -800.541416227722 -207.552647083879
   endloop
endfacet
facet normal 0.707106781186494 -0.707106781186601 7.41533567502701e-014
   outer loop
      vertex 405.112886381628 -799.783477816216 -215.490147083878
      vertex 404.125121812702 -800.541416227722 -207.552647083879
      vertex 404.125121812703 -800.541416227722 -215.490147083878
   endloop
endfacet
facet normal 0.707106781186494 -0.707106781186601 7.41533567502701e-014
   outer loop
      vertex 404.125121812702 -800.541416227722 -207.552647083879
      vertex 405.112886381628 -799.783477816216 -215.490147083878
      vertex 405.112886381627 -799.783477816216 -207.552647083879
   endloop
endfacet
facet normal 0.866025403784408 -0.500000000000053 8.66295050059458e-014
   outer loop
      vertex 405.870824793133 -798.795713247291 -215.490147083878
      vertex 405.112886381627 -799.783477816216 -207.552647083879
      vertex 405.112886381628 -799.783477816216 -215.490147083878
   endloop
endfacet
facet normal 0.866025403784408 -0.500000000000053 8.66295050059458e-014
   outer loop
      vertex 405.112886381627 -799.783477816216 -207.552647083879
      vertex 405.870824793133 -798.795713247291 -215.490147083878
      vertex 405.870824793132 -798.795713247291 -207.552647083878
   endloop
endfacet
facet normal -0.25881904510248 0.965925826289079 -4.64639345230545e-014
   outer loop
      vertex 402.253154880047 -798.324489762426 -207.552647083879
      vertex 402.730922384607 -798.126591982377 -217.077647083879
      vertex 402.253154880048 -798.324489762426 -217.077647083879
   endloop
endfacet
facet normal -0.25881904510248 0.965925826289079 -4.64639345230545e-014
   outer loop
      vertex 402.730922384607 -798.126591982377 -217.077647083879
      vertex 402.253154880047 -798.324489762426 -207.552647083879
      vertex 402.730922384607 -798.126591982377 -207.552647083879
   endloop
endfacet
endsolid Z_Carriages_6_11_13
