solid Z_Carriages_6_11_13
facet normal -9.54456674307245e-014 1.07429020285478e-014 1.0
   outer loop
      vertex 378.939262082907 -807.666979887548 -214.477220773645
      vertex 378.939262082907 -805.405393386897 -214.477220773645
      vertex 378.790390327247 -806.536186637223 -214.477220773645
   endloop
endfacet
facet normal -9.54456674307245e-014 1.07429020285478e-014 1.0
   outer loop
      vertex 378.939262082907 -805.405393386897 -214.477220773645
      vertex 378.939262082907 -807.666979887548 -214.477220773645
      vertex 379.375731985762 -808.720711446588 -214.477220773645
   endloop
endfacet
facet normal -9.54456674307245e-014 1.07429020285478e-014 1.0
   outer loop
      vertex 378.939262082907 -805.405393386897 -214.477220773645
      vertex 379.375731985762 -808.720711446588 -214.477220773645
      vertex 379.375731985762 -804.351661827858 -214.477220773645
   endloop
endfacet
facet normal -9.54456674307245e-014 1.07429020285478e-014 1.0
   outer loop
      vertex 379.375731985762 -804.351661827858 -214.477220773645
      vertex 379.375731985762 -808.720711446588 -214.477220773645
      vertex 380.070055333232 -809.625571249967 -214.477220773645
   endloop
endfacet
facet normal -9.54456674307245e-014 1.07429020285478e-014 1.0
   outer loop
      vertex 379.375731985762 -804.351661827858 -214.477220773645
      vertex 380.070055333232 -809.625571249967 -214.477220773645
      vertex 380.070055333233 -803.446802024478 -214.477220773645
   endloop
endfacet
facet normal -9.54456674307245e-014 1.07429020285478e-014 1.0
   outer loop
      vertex 380.070055333233 -803.446802024478 -214.477220773645
      vertex 380.070055333232 -809.625571249967 -214.477220773645
      vertex 380.974915136612 -810.319894597438 -214.477220773645
   endloop
endfacet
facet normal -9.54456674307245e-014 1.07429020285478e-014 1.0
   outer loop
      vertex 380.070055333233 -803.446802024478 -214.477220773645
      vertex 380.974915136612 -810.319894597438 -214.477220773645
      vertex 380.974915136612 -802.752478677008 -214.477220773645
   endloop
endfacet
facet normal -9.54456674307245e-014 1.07429020285478e-014 1.0
   outer loop
      vertex 380.974915136612 -802.752478677008 -214.477220773645
      vertex 380.974915136612 -810.319894597438 -214.477220773645
      vertex 380.978339755342 -806.536186637223 -214.477220773645
   endloop
endfacet
facet normal -9.54456674307245e-014 1.07429020285478e-014 1.0
   outer loop
      vertex 380.978339755342 -806.536186637223 -214.477220773645
      vertex 380.974915136612 -810.319894597438 -214.477220773645
      vertex 381.052658942119 -807.100696905836 -214.477220773645
   endloop
endfacet
facet normal -9.54456674307245e-014 1.07429020285478e-014 1.0
   outer loop
      vertex 381.052658942119 -807.100696905836 -214.477220773645
      vertex 380.974915136612 -810.319894597438 -214.477220773645
      vertex 382.028646695652 -810.756364500293 -214.477220773645
   endloop
endfacet
facet normal -9.54456674307245e-014 1.07429020285478e-014 1.0
   outer loop
      vertex 381.052658942119 -807.100696905836 -214.477220773645
      vertex 382.028646695652 -810.756364500293 -214.477220773645
      vertex 381.270551772688 -807.62673673254 -214.477220773645
   endloop
endfacet
facet normal -9.54456674307245e-014 1.07429020285478e-014 1.0
   outer loop
      vertex 381.270551772688 -807.62673673254 -214.477220773645
      vertex 382.028646695652 -810.756364500293 -214.477220773645
      vertex 381.617169210732 -808.078457372468 -214.477220773645
   endloop
endfacet
facet normal -9.54456674307245e-014 1.07429020285478e-014 1.0
   outer loop
      vertex 381.617169210732 -808.078457372468 -214.477220773645
      vertex 382.028646695652 -810.756364500293 -214.477220773645
      vertex 382.06888985066 -808.425074810512 -214.477220773645
   endloop
endfacet
facet normal -9.54456674307245e-014 1.07429020285478e-014 1.0
   outer loop
      vertex 382.06888985066 -808.425074810512 -214.477220773645
      vertex 382.028646695652 -810.756364500293 -214.477220773645
      vertex 383.159439945977 -810.905236255953 -214.477220773645
   endloop
endfacet
facet normal -9.54456674307245e-014 1.07429020285478e-014 1.0
   outer loop
      vertex 382.06888985066 -808.425074810512 -214.477220773645
      vertex 383.159439945977 -810.905236255953 -214.477220773645
      vertex 382.594929677364 -808.642967641081 -214.477220773645
   endloop
endfacet
facet normal -9.54456674307245e-014 1.07429020285478e-014 1.0
   outer loop
      vertex 382.594929677364 -808.642967641081 -214.477220773645
      vertex 383.159439945977 -810.905236255953 -214.477220773645
      vertex 383.159439945977 -808.717286827858 -214.477220773645
   endloop
endfacet
facet normal -9.54456674307245e-014 1.07429020285478e-014 1.0
   outer loop
      vertex 383.159439945977 -808.717286827858 -214.477220773645
      vertex 383.159439945977 -810.905236255953 -214.477220773645
      vertex 384.290233196302 -810.756364500293 -214.477220773645
   endloop
endfacet
facet normal -9.54456674307245e-014 1.07429020285478e-014 1.0
   outer loop
      vertex 383.159439945977 -808.717286827858 -214.477220773645
      vertex 384.290233196302 -810.756364500293 -214.477220773645
      vertex 383.72395021459 -808.642967641081 -214.477220773645
   endloop
endfacet
facet normal -9.54456674307245e-014 1.07429020285478e-014 1.0
   outer loop
      vertex 383.72395021459 -808.642967641081 -214.477220773645
      vertex 384.290233196302 -810.756364500293 -214.477220773645
      vertex 384.249990041295 -808.425074810512 -214.477220773645
   endloop
endfacet
facet normal -9.54456674307245e-014 1.07429020285478e-014 1.0
   outer loop
      vertex 384.249990041295 -808.425074810512 -214.477220773645
      vertex 384.290233196302 -810.756364500293 -214.477220773645
      vertex 384.701710681222 -808.078457372468 -214.477220773645
   endloop
endfacet
facet normal -9.54456674307245e-014 1.07429020285478e-014 1.0
   outer loop
      vertex 384.701710681222 -808.078457372468 -214.477220773645
      vertex 384.290233196302 -810.756364500293 -214.477220773645
      vertex 385.343964755342 -810.319894597438 -214.477220773645
   endloop
endfacet
facet normal -9.54456674307245e-014 1.07429020285478e-014 1.0
   outer loop
      vertex 384.701710681222 -808.078457372468 -214.477220773645
      vertex 385.343964755342 -810.319894597438 -214.477220773645
      vertex 385.048328119266 -807.626736732541 -214.477220773645
   endloop
endfacet
facet normal -9.54456674307245e-014 1.07429020285478e-014 1.0
   outer loop
      vertex 385.048328119266 -807.626736732541 -214.477220773645
      vertex 385.343964755342 -810.319894597438 -214.477220773645
      vertex 385.266220949835 -807.100696905836 -214.477220773645
   endloop
endfacet
facet normal -9.54456674307245e-014 1.07429020285478e-014 1.0
   outer loop
      vertex 385.266220949835 -807.100696905836 -214.477220773645
      vertex 385.343964755342 -810.319894597438 -214.477220773645
      vertex 385.340540136612 -806.536186637223 -214.477220773645
   endloop
endfacet
facet normal -9.54456674307245e-014 1.07429020285478e-014 1.0
   outer loop
      vertex 380.974915136612 -802.752478677008 -214.477220773645
      vertex 381.052658942119 -805.97167636861 -214.477220773645
      vertex 382.028646695652 -802.316008774153 -214.477220773645
   endloop
endfacet
facet normal -9.54456674307245e-014 1.07429020285478e-014 1.0
   outer loop
      vertex 381.052658942119 -805.97167636861 -214.477220773645
      vertex 380.974915136612 -802.752478677008 -214.477220773645
      vertex 380.978339755342 -806.536186637223 -214.477220773645
   endloop
endfacet
facet normal -9.54456674307245e-014 1.07429020285478e-014 1.0
   outer loop
      vertex 382.028646695652 -802.316008774153 -214.477220773645
      vertex 381.052658942119 -805.97167636861 -214.477220773645
      vertex 381.270551772689 -805.445636541905 -214.477220773645
   endloop
endfacet
facet normal -9.54456674307245e-014 1.07429020285478e-014 1.0
   outer loop
      vertex 382.028646695652 -802.316008774153 -214.477220773645
      vertex 381.270551772689 -805.445636541905 -214.477220773645
      vertex 381.617169210732 -804.993915901978 -214.477220773645
   endloop
endfacet
facet normal -9.54456674307245e-014 1.07429020285478e-014 1.0
   outer loop
      vertex 382.028646695652 -802.316008774153 -214.477220773645
      vertex 381.617169210732 -804.993915901978 -214.477220773645
      vertex 382.06888985066 -804.647298463934 -214.477220773645
   endloop
endfacet
facet normal -9.54456674307245e-014 1.07429020285478e-014 1.0
   outer loop
      vertex 382.028646695652 -802.316008774153 -214.477220773645
      vertex 382.06888985066 -804.647298463934 -214.477220773645
      vertex 383.159439945978 -802.167137018493 -214.477220773645
   endloop
endfacet
facet normal -9.54456674307245e-014 1.07429020285478e-014 1.0
   outer loop
      vertex 383.159439945978 -802.167137018493 -214.477220773645
      vertex 382.06888985066 -804.647298463934 -214.477220773645
      vertex 382.594929677364 -804.429405633365 -214.477220773645
   endloop
endfacet
facet normal -9.54456674307245e-014 1.07429020285478e-014 1.0
   outer loop
      vertex 383.159439945978 -802.167137018493 -214.477220773645
      vertex 382.594929677364 -804.429405633365 -214.477220773645
      vertex 383.159439945977 -804.355086446588 -214.477220773645
   endloop
endfacet
facet normal -9.54456674307245e-014 1.07429020285478e-014 1.0
   outer loop
      vertex 383.159439945978 -802.167137018493 -214.477220773645
      vertex 383.159439945977 -804.355086446588 -214.477220773645
      vertex 383.723950214591 -804.429405633365 -214.477220773645
   endloop
endfacet
facet normal -9.54456674307245e-014 1.07429020285478e-014 1.0
   outer loop
      vertex 383.159439945978 -802.167137018493 -214.477220773645
      vertex 383.723950214591 -804.429405633365 -214.477220773645
      vertex 384.290233196303 -802.316008774153 -214.477220773645
   endloop
endfacet
facet normal -9.54456674307245e-014 1.07429020285478e-014 1.0
   outer loop
      vertex 384.290233196303 -802.316008774153 -214.477220773645
      vertex 383.723950214591 -804.429405633365 -214.477220773645
      vertex 384.249990041295 -804.647298463934 -214.477220773645
   endloop
endfacet
facet normal -9.54456674307245e-014 1.07429020285478e-014 1.0
   outer loop
      vertex 384.290233196303 -802.316008774153 -214.477220773645
      vertex 384.249990041295 -804.647298463934 -214.477220773645
      vertex 384.701710681223 -804.993915901978 -214.477220773645
   endloop
endfacet
facet normal -9.54456674307245e-014 1.07429020285478e-014 1.0
   outer loop
      vertex 384.290233196303 -802.316008774153 -214.477220773645
      vertex 384.701710681223 -804.993915901978 -214.477220773645
      vertex 385.343964755342 -802.752478677008 -214.477220773645
   endloop
endfacet
facet normal -9.54456674307245e-014 1.07429020285478e-014 1.0
   outer loop
      vertex 385.343964755342 -802.752478677008 -214.477220773645
      vertex 384.701710681223 -804.993915901978 -214.477220773645
      vertex 385.048328119266 -805.445636541906 -214.477220773645
   endloop
endfacet
facet normal -9.54456674307245e-014 1.07429020285478e-014 1.0
   outer loop
      vertex 385.343964755342 -802.752478677008 -214.477220773645
      vertex 385.048328119266 -805.445636541906 -214.477220773645
      vertex 385.266220949836 -805.97167636861 -214.477220773645
   endloop
endfacet
facet normal -9.54456674307245e-014 1.07429020285478e-014 1.0
   outer loop
      vertex 385.343964755342 -802.752478677008 -214.477220773645
      vertex 385.266220949836 -805.97167636861 -214.477220773645
      vertex 385.340540136612 -806.536186637223 -214.477220773645
   endloop
endfacet
facet normal -9.54456674307245e-014 1.07429020285478e-014 1.0
   outer loop
      vertex 385.343964755342 -802.752478677008 -214.477220773645
      vertex 385.340540136612 -806.536186637223 -214.477220773645
      vertex 385.343964755342 -810.319894597438 -214.477220773645
   endloop
endfacet
facet normal -9.54456674307245e-014 1.07429020285478e-014 1.0
   outer loop
      vertex 385.343964755342 -802.752478677008 -214.477220773645
      vertex 385.343964755342 -810.319894597438 -214.477220773645
      vertex 386.248824558722 -809.625571249968 -214.477220773645
   endloop
endfacet
facet normal -9.54456674307245e-014 1.07429020285478e-014 1.0
   outer loop
      vertex 385.343964755342 -802.752478677008 -214.477220773645
      vertex 386.248824558722 -809.625571249968 -214.477220773645
      vertex 386.248824558722 -803.446802024479 -214.477220773645
   endloop
endfacet
facet normal -9.54456674307245e-014 1.07429020285478e-014 1.0
   outer loop
      vertex 386.248824558722 -803.446802024479 -214.477220773645
      vertex 386.248824558722 -809.625571249968 -214.477220773645
      vertex 386.943147906192 -808.720711446589 -214.477220773645
   endloop
endfacet
facet normal -9.54456674307245e-014 1.07429020285478e-014 1.0
   outer loop
      vertex 386.248824558722 -803.446802024479 -214.477220773645
      vertex 386.943147906192 -808.720711446589 -214.477220773645
      vertex 386.943147906192 -804.351661827858 -214.477220773645
   endloop
endfacet
facet normal -9.54456674307245e-014 1.07429020285478e-014 1.0
   outer loop
      vertex 386.943147906192 -804.351661827858 -214.477220773645
      vertex 386.943147906192 -808.720711446589 -214.477220773645
      vertex 387.379617809047 -807.666979887549 -214.477220773645
   endloop
endfacet
facet normal -9.54456674307245e-014 1.07429020285478e-014 1.0
   outer loop
      vertex 386.943147906192 -804.351661827858 -214.477220773645
      vertex 387.379617809047 -807.666979887549 -214.477220773645
      vertex 387.379617809047 -805.405393386898 -214.477220773645
   endloop
endfacet
facet normal -9.54456674307245e-014 1.07429020285478e-014 1.0
   outer loop
      vertex 387.379617809047 -805.405393386898 -214.477220773645
      vertex 387.379617809047 -807.666979887549 -214.477220773645
      vertex 387.528489564708 -806.536186637223 -214.477220773645
   endloop
endfacet
facet normal 0.258819045102676 0.965925826289027 1.58315296810639e-014
   outer loop
      vertex 382.594929677364 -808.642967641081 -214.477220773645
      vertex 383.159439945978 -808.717286827858 -224.002220773645
      vertex 382.594929677365 -808.642967641081 -224.002220773645
   endloop
endfacet
facet normal 0.258819045102676 0.965925826289027 1.58315296810639e-014
   outer loop
      vertex 383.159439945978 -808.717286827858 -224.002220773645
      vertex 382.594929677364 -808.642967641081 -214.477220773645
      vertex 383.159439945977 -808.717286827858 -214.477220773645
   endloop
endfacet
facet normal 0.500000000000114 0.866025403784373 4.64406663179887e-014
   outer loop
      vertex 382.06888985066 -808.425074810512 -214.477220773645
      vertex 382.594929677365 -808.642967641081 -224.002220773645
      vertex 382.068889850661 -808.425074810512 -224.002220773645
   endloop
endfacet
facet normal 0.500000000000114 0.866025403784373 4.64406663179887e-014
   outer loop
      vertex 382.594929677365 -808.642967641081 -224.002220773645
      vertex 382.06888985066 -808.425074810512 -214.477220773645
      vertex 382.594929677364 -808.642967641081 -214.477220773645
   endloop
endfacet
facet normal 0.707106781186552 0.707106781186543 7.38849482921637e-014
   outer loop
      vertex 381.617169210732 -808.078457372468 -214.477220773645
      vertex 382.068889850661 -808.425074810512 -224.002220773645
      vertex 381.617169210733 -808.078457372468 -224.002220773645
   endloop
endfacet
facet normal 0.707106781186552 0.707106781186543 7.38849482921637e-014
   outer loop
      vertex 382.068889850661 -808.425074810512 -224.002220773645
      vertex 381.617169210732 -808.078457372468 -214.477220773645
      vertex 382.06888985066 -808.425074810512 -214.477220773645
   endloop
endfacet
facet normal 0.866025403784462 0.499999999999959 9.62940931408952e-014
   outer loop
      vertex 381.270551772689 -807.62673673254 -224.002220773645
      vertex 381.617169210732 -808.078457372468 -214.477220773645
      vertex 381.617169210733 -808.078457372468 -224.002220773645
   endloop
endfacet
facet normal 0.866025403784462 0.499999999999959 9.62940931408952e-014
   outer loop
      vertex 381.617169210732 -808.078457372468 -214.477220773645
      vertex 381.270551772689 -807.62673673254 -224.002220773645
      vertex 381.270551772688 -807.62673673254 -214.477220773645
   endloop
endfacet
facet normal 0.965925826289091 0.258819045102436 1.12140954675586e-013
   outer loop
      vertex 381.05265894212 -807.100696905836 -224.002220773645
      vertex 381.270551772688 -807.62673673254 -214.477220773645
      vertex 381.270551772689 -807.62673673254 -224.002220773645
   endloop
endfacet
facet normal 0.965925826289091 0.258819045102436 1.12140954675586e-013
   outer loop
      vertex 381.270551772688 -807.62673673254 -214.477220773645
      vertex 381.05265894212 -807.100696905836 -224.002220773645
      vertex 381.052658942119 -807.100696905836 -214.477220773645
   endloop
endfacet
facet normal 1.0 -1.52647312512427e-014 1.2034559547082e-013
   outer loop
      vertex 380.978339755343 -806.536186637223 -224.002220773645
      vertex 381.052658942119 -807.100696905836 -214.477220773645
      vertex 381.05265894212 -807.100696905836 -224.002220773645
   endloop
endfacet
facet normal 1.0 -1.52647312512427e-014 1.2034559547082e-013
   outer loop
      vertex 381.052658942119 -807.100696905836 -214.477220773645
      vertex 380.978339755343 -806.536186637223 -224.002220773645
      vertex 380.978339755342 -806.536186637223 -214.477220773645
   endloop
endfacet
facet normal 0.965925826289057 -0.258819045102563 1.20348882815222e-013
   outer loop
      vertex 381.05265894212 -805.97167636861 -224.002220773645
      vertex 380.978339755342 -806.536186637223 -214.477220773645
      vertex 380.978339755343 -806.536186637223 -224.002220773645
   endloop
endfacet
facet normal 0.965925826289057 -0.258819045102563 1.20348882815222e-013
   outer loop
      vertex 380.978339755342 -806.536186637223 -214.477220773645
      vertex 381.05265894212 -805.97167636861 -224.002220773645
      vertex 381.052658942119 -805.97167636861 -214.477220773645
   endloop
endfacet
facet normal 0.866025403784376 -0.500000000000109 1.12150592681694e-013
   outer loop
      vertex 381.270551772689 -805.445636541905 -224.002220773645
      vertex 381.052658942119 -805.97167636861 -214.477220773645
      vertex 381.05265894212 -805.97167636861 -224.002220773645
   endloop
endfacet
facet normal 0.866025403784376 -0.500000000000109 1.12150592681694e-013
   outer loop
      vertex 381.052658942119 -805.97167636861 -214.477220773645
      vertex 381.270551772689 -805.445636541905 -224.002220773645
      vertex 381.270551772689 -805.445636541905 -214.477220773645
   endloop
endfacet
facet normal 0.707106781186499 -0.707106781186597 9.63094249945317e-014
   outer loop
      vertex 381.617169210733 -804.993915901978 -224.002220773645
      vertex 381.270551772689 -805.445636541905 -214.477220773645
      vertex 381.270551772689 -805.445636541905 -224.002220773645
   endloop
endfacet
facet normal 0.707106781186499 -0.707106781186597 9.63094249945317e-014
   outer loop
      vertex 381.270551772689 -805.445636541905 -214.477220773645
      vertex 381.617169210733 -804.993915901978 -224.002220773645
      vertex 381.617169210732 -804.993915901978 -214.477220773645
   endloop
endfacet
facet normal 0.499999999999958 -0.866025403784463 7.39049291528416e-014
   outer loop
      vertex 382.06888985066 -804.647298463934 -214.477220773645
      vertex 381.617169210733 -804.993915901978 -224.002220773645
      vertex 382.068889850661 -804.647298463934 -224.002220773645
   endloop
endfacet
facet normal 0.499999999999958 -0.866025403784463 7.39049291528416e-014
   outer loop
      vertex 381.617169210733 -804.993915901978 -224.002220773645
      vertex 382.06888985066 -804.647298463934 -214.477220773645
      vertex 381.617169210732 -804.993915901978 -214.477220773645
   endloop
endfacet
facet normal 0.258819045102453 -0.965925826289087 4.64639345230514e-014
   outer loop
      vertex 382.594929677365 -804.429405633365 -224.002220773645
      vertex 382.06888985066 -804.647298463934 -214.477220773645
      vertex 382.068889850661 -804.647298463934 -224.002220773645
   endloop
endfacet
facet normal 0.258819045102453 -0.965925826289087 4.64639345230514e-014
   outer loop
      vertex 382.06888985066 -804.647298463934 -214.477220773645
      vertex 382.594929677365 -804.429405633365 -224.002220773645
      vertex 382.594929677364 -804.429405633365 -214.477220773645
   endloop
endfacet
facet normal -8.5724877196123e-014 -1.0 1.07429020285396e-014
   outer loop
      vertex 383.159439945978 -810.905236255953 -222.414720773645
      vertex 382.028646695652 -810.756364500293 -214.477220773645
      vertex 382.028646695652 -810.756364500293 -222.414720773645
   endloop
endfacet
facet normal -8.5724877196123e-014 -1.0 1.07429020285396e-014
   outer loop
      vertex 382.028646695652 -810.756364500293 -214.477220773645
      vertex 383.159439945978 -810.905236255953 -222.414720773645
      vertex 383.159439945977 -810.905236255953 -214.477220773645
   endloop
endfacet
facet normal 0.258819045102465 -0.965925826289083 3.50800030222552e-014
   outer loop
      vertex 384.290233196303 -810.756364500293 -222.414720773645
      vertex 383.159439945977 -810.905236255953 -214.477220773645
      vertex 383.159439945978 -810.905236255953 -222.414720773645
   endloop
endfacet
facet normal 0.258819045102465 -0.965925826289083 3.50800030222552e-014
   outer loop
      vertex 383.159439945977 -810.905236255953 -214.477220773645
      vertex 384.290233196303 -810.756364500293 -222.414720773645
      vertex 384.290233196302 -810.756364500293 -214.477220773645
   endloop
endfacet
facet normal 0.499999999999941 -0.866025403784473 5.70264597824467e-014
   outer loop
      vertex 385.343964755343 -810.319894597438 -222.414720773645
      vertex 384.290233196302 -810.756364500293 -214.477220773645
      vertex 384.290233196303 -810.756364500293 -222.414720773645
   endloop
endfacet
facet normal 0.499999999999941 -0.866025403784473 5.70264597824467e-014
   outer loop
      vertex 384.290233196302 -810.756364500293 -214.477220773645
      vertex 385.343964755343 -810.319894597438 -222.414720773645
      vertex 385.343964755342 -810.319894597438 -214.477220773645
   endloop
endfacet
facet normal 0.707106781186489 -0.707106781186606 7.50866575491452e-014
   outer loop
      vertex 386.248824558723 -809.625571249968 -222.414720773645
      vertex 385.343964755342 -810.319894597438 -214.477220773645
      vertex 385.343964755343 -810.319894597438 -222.414720773645
   endloop
endfacet
facet normal 0.707106781186489 -0.707106781186606 7.50866575491452e-014
   outer loop
      vertex 385.343964755342 -810.319894597438 -214.477220773645
      vertex 386.248824558723 -809.625571249968 -222.414720773645
      vertex 386.248824558722 -809.625571249968 -214.477220773645
   endloop
endfacet
facet normal 0.866025403784414 -0.500000000000043 8.80298236904404e-014
   outer loop
      vertex 386.943147906193 -808.720711446589 -222.414720773645
      vertex 386.248824558722 -809.625571249968 -214.477220773645
      vertex 386.248824558723 -809.625571249968 -222.414720773645
   endloop
endfacet
facet normal 0.866025403784414 -0.500000000000043 8.80298236904404e-014
   outer loop
      vertex 386.248824558722 -809.625571249968 -214.477220773645
      vertex 386.943147906193 -808.720711446589 -222.414720773645
      vertex 386.943147906192 -808.720711446589 -214.477220773645
   endloop
endfacet
facet normal 0.965925826289052 -0.258819045102583 9.49739028233919e-014
   outer loop
      vertex 387.379617809048 -807.666979887549 -222.414720773645
      vertex 386.943147906192 -808.720711446589 -214.477220773645
      vertex 386.943147906193 -808.720711446589 -222.414720773645
   endloop
endfacet
facet normal 0.965925826289052 -0.258819045102583 9.49739028233919e-014
   outer loop
      vertex 386.943147906192 -808.720711446589 -214.477220773645
      vertex 387.379617809048 -807.666979887549 -222.414720773645
      vertex 387.379617809047 -807.666979887549 -214.477220773645
   endloop
endfacet
facet normal 1.0 -6.64679687116316e-014 9.54456674307252e-014
   outer loop
      vertex 387.528489564708 -806.536186637223 -222.414720773645
      vertex 387.379617809047 -807.666979887549 -214.477220773645
      vertex 387.379617809048 -807.666979887549 -222.414720773645
   endloop
endfacet
facet normal 1.0 -6.64679687116316e-014 9.54456674307252e-014
   outer loop
      vertex 387.379617809047 -807.666979887549 -214.477220773645
      vertex 387.528489564708 -806.536186637223 -222.414720773645
      vertex 387.528489564708 -806.536186637223 -214.477220773645
   endloop
endfacet
facet normal 0.965925826289081 0.258819045102475 8.94129675340772e-014
   outer loop
      vertex 387.379617809048 -805.405393386898 -222.414720773645
      vertex 387.528489564708 -806.536186637223 -214.477220773645
      vertex 387.528489564708 -806.536186637223 -222.414720773645
   endloop
endfacet
facet normal 0.965925826289081 0.258819045102475 8.94129675340772e-014
   outer loop
      vertex 387.528489564708 -806.536186637223 -214.477220773645
      vertex 387.379617809048 -805.405393386898 -222.414720773645
      vertex 387.379617809047 -805.405393386898 -214.477220773645
   endloop
endfacet
facet normal 0.866025403784469 0.499999999999948 7.7286921661898e-014
   outer loop
      vertex 386.943147906193 -804.351661827858 -222.414720773645
      vertex 387.379617809047 -805.405393386898 -214.477220773645
      vertex 387.379617809048 -805.405393386898 -222.414720773645
   endloop
endfacet
facet normal 0.866025403784469 0.499999999999948 7.7286921661898e-014
   outer loop
      vertex 387.379617809047 -805.405393386898 -214.477220773645
      vertex 386.943147906193 -804.351661827858 -222.414720773645
      vertex 386.943147906192 -804.351661827858 -214.477220773645
   endloop
endfacet
facet normal 0.707106781186598 0.707106781186497 5.98938998011379e-014
   outer loop
      vertex 386.248824558723 -803.446802024479 -222.414720773645
      vertex 386.943147906192 -804.351661827858 -214.477220773645
      vertex 386.943147906193 -804.351661827858 -222.414720773645
   endloop
endfacet
facet normal 0.707106781186598 0.707106781186497 5.98938998011379e-014
   outer loop
      vertex 386.943147906192 -804.351661827858 -214.477220773645
      vertex 386.248824558723 -803.446802024479 -222.414720773645
      vertex 386.248824558722 -803.446802024479 -214.477220773645
   endloop
endfacet
facet normal 0.500000000000066 0.8660254037844 3.84192076482793e-014
   outer loop
      vertex 385.343964755342 -802.752478677008 -214.477220773645
      vertex 386.248824558723 -803.446802024479 -222.414720773645
      vertex 385.343964755343 -802.752478677008 -222.414720773645
   endloop
endfacet
facet normal 0.500000000000066 0.8660254037844 3.84192076482793e-014
   outer loop
      vertex 386.248824558723 -803.446802024479 -222.414720773645
      vertex 385.343964755342 -802.752478677008 -214.477220773645
      vertex 386.248824558722 -803.446802024479 -214.477220773645
   endloop
endfacet
facet normal 0.258819045102601 0.965925826289047 1.43263099849332e-014
   outer loop
      vertex 384.290233196303 -802.316008774153 -214.477220773645
      vertex 385.343964755343 -802.752478677008 -222.414720773645
      vertex 384.290233196304 -802.316008774153 -222.414720773645
   endloop
endfacet
facet normal 0.258819045102601 0.965925826289047 1.43263099849332e-014
   outer loop
      vertex 385.343964755343 -802.752478677008 -222.414720773645
      vertex 384.290233196303 -802.316008774153 -214.477220773645
      vertex 385.343964755342 -802.752478677008 -214.477220773645
   endloop
endfacet
facet normal 8.5724877196123e-014 1.0 -1.07429020285396e-014
   outer loop
      vertex 383.159439945978 -802.167137018493 -214.477220773645
      vertex 384.290233196304 -802.316008774153 -222.414720773645
      vertex 383.159439945978 -802.167137018493 -222.414720773645
   endloop
endfacet
facet normal 8.5724877196123e-014 1.0 -1.07429020285396e-014
   outer loop
      vertex 384.290233196304 -802.316008774153 -222.414720773645
      vertex 383.159439945978 -802.167137018493 -214.477220773645
      vertex 384.290233196303 -802.316008774153 -214.477220773645
   endloop
endfacet
facet normal -0.258819045102465 0.965925826289083 -3.50800030222552e-014
   outer loop
      vertex 382.028646695652 -802.316008774153 -214.477220773645
      vertex 383.159439945978 -802.167137018493 -222.414720773645
      vertex 382.028646695653 -802.316008774153 -222.414720773645
   endloop
endfacet
facet normal -0.258819045102465 0.965925826289083 -3.50800030222552e-014
   outer loop
      vertex 383.159439945978 -802.167137018493 -222.414720773645
      vertex 382.028646695652 -802.316008774153 -214.477220773645
      vertex 383.159439945978 -802.167137018493 -214.477220773645
   endloop
endfacet
facet normal -0.499999999999941 0.866025403784473 -5.70264597824467e-014
   outer loop
      vertex 380.974915136612 -802.752478677008 -214.477220773645
      vertex 382.028646695653 -802.316008774153 -222.414720773645
      vertex 380.974915136613 -802.752478677008 -222.414720773645
   endloop
endfacet
facet normal -0.499999999999941 0.866025403784473 -5.70264597824467e-014
   outer loop
      vertex 382.028646695653 -802.316008774153 -222.414720773645
      vertex 380.974915136612 -802.752478677008 -214.477220773645
      vertex 382.028646695652 -802.316008774153 -214.477220773645
   endloop
endfacet
facet normal -0.707106781186489 0.707106781186606 -7.50866575491452e-014
   outer loop
      vertex 380.070055333233 -803.446802024478 -214.477220773645
      vertex 380.974915136613 -802.752478677008 -222.414720773645
      vertex 380.070055333233 -803.446802024478 -222.414720773645
   endloop
endfacet
facet normal -0.707106781186489 0.707106781186606 -7.50866575491452e-014
   outer loop
      vertex 380.974915136613 -802.752478677008 -222.414720773645
      vertex 380.070055333233 -803.446802024478 -214.477220773645
      vertex 380.974915136612 -802.752478677008 -214.477220773645
   endloop
endfacet
facet normal -0.707106781186489 0.707106781186606 -7.50866575491452e-014
   outer loop
      vertex 380.070055333233 -803.446802024478 -214.477220773645
      vertex 379.375731985763 -804.351661827858 -222.414720773646
      vertex 379.375731985762 -804.351661827858 -214.477220773645
   endloop
endfacet
facet normal -0.707106781186489 0.707106781186606 -7.50866575491452e-014
   outer loop
      vertex 379.375731985763 -804.351661827858 -222.414720773646
      vertex 380.070055333233 -803.446802024478 -214.477220773645
      vertex 380.070055333233 -803.446802024478 -222.414720773645
   endloop
endfacet
facet normal -0.866025403784414 0.500000000000043 -8.80298236904404e-014
   outer loop
      vertex 379.375731985762 -804.351661827858 -214.477220773645
      vertex 378.939262082908 -805.405393386897 -222.414720773646
      vertex 378.939262082907 -805.405393386897 -214.477220773645
   endloop
endfacet
facet normal -0.866025403784414 0.500000000000043 -8.80298236904404e-014
   outer loop
      vertex 378.939262082908 -805.405393386897 -222.414720773646
      vertex 379.375731985762 -804.351661827858 -214.477220773645
      vertex 379.375731985763 -804.351661827858 -222.414720773646
   endloop
endfacet
facet normal -0.965925826289051 0.258819045102584 -9.49739028233919e-014
   outer loop
      vertex 378.939262082907 -805.405393386897 -214.477220773645
      vertex 378.790390327248 -806.536186637223 -222.414720773646
      vertex 378.790390327247 -806.536186637223 -214.477220773645
   endloop
endfacet
facet normal -0.965925826289051 0.258819045102584 -9.49739028233919e-014
   outer loop
      vertex 378.790390327248 -806.536186637223 -222.414720773646
      vertex 378.939262082907 -805.405393386897 -214.477220773645
      vertex 378.939262082908 -805.405393386897 -222.414720773646
   endloop
endfacet
facet normal -1.0 6.81254351522211e-014 -9.54456674307252e-014
   outer loop
      vertex 378.790390327247 -806.536186637223 -214.477220773645
      vertex 378.939262082908 -807.666979887548 -222.414720773646
      vertex 378.939262082907 -807.666979887548 -214.477220773645
   endloop
endfacet
facet normal -1.0 6.81254351522211e-014 -9.54456674307252e-014
   outer loop
      vertex 378.939262082908 -807.666979887548 -222.414720773646
      vertex 378.790390327247 -806.536186637223 -214.477220773645
      vertex 378.790390327248 -806.536186637223 -222.414720773646
   endloop
endfacet
facet normal -0.96592582628908 -0.258819045102477 -8.94129675340771e-014
   outer loop
      vertex 378.939262082907 -807.666979887548 -214.477220773645
      vertex 379.375731985763 -808.720711446588 -222.414720773645
      vertex 379.375731985762 -808.720711446588 -214.477220773645
   endloop
endfacet
facet normal -0.96592582628908 -0.258819045102477 -8.94129675340771e-014
   outer loop
      vertex 379.375731985763 -808.720711446588 -222.414720773645
      vertex 378.939262082907 -807.666979887548 -214.477220773645
      vertex 378.939262082908 -807.666979887548 -222.414720773646
   endloop
endfacet
facet normal -0.866025403784468 -0.499999999999949 -7.72869216618979e-014
   outer loop
      vertex 379.375731985762 -808.720711446588 -214.477220773645
      vertex 380.070055333233 -809.625571249967 -222.414720773645
      vertex 380.070055333232 -809.625571249967 -214.477220773645
   endloop
endfacet
facet normal -0.866025403784468 -0.499999999999949 -7.72869216618979e-014
   outer loop
      vertex 380.070055333233 -809.625571249967 -222.414720773645
      vertex 379.375731985762 -808.720711446588 -214.477220773645
      vertex 379.375731985763 -808.720711446588 -222.414720773645
   endloop
endfacet
facet normal -0.500000000000066 -0.8660254037844 -3.84192076482793e-014
   outer loop
      vertex 380.974915136613 -810.319894597438 -222.414720773645
      vertex 380.070055333232 -809.625571249967 -214.477220773645
      vertex 380.070055333233 -809.625571249967 -222.414720773645
   endloop
endfacet
facet normal -0.500000000000066 -0.8660254037844 -3.84192076482793e-014
   outer loop
      vertex 380.070055333232 -809.625571249967 -214.477220773645
      vertex 380.974915136613 -810.319894597438 -222.414720773645
      vertex 380.974915136612 -810.319894597438 -214.477220773645
   endloop
endfacet
facet normal 0.866025403784485 0.499999999999919 7.63371670138436e-014
   outer loop
      vertex 387.98315682303 -803.751212399763 -224.002220773645
      vertex 388.539597029004 -805.094577891674 -222.414720773645
      vertex 388.539597029004 -805.094577891674 -224.002220773645
   endloop
endfacet
facet normal 0.866025403784485 0.499999999999919 7.63371670138436e-014
   outer loop
      vertex 388.539597029004 -805.094577891674 -222.414720773645
      vertex 387.98315682303 -803.751212399763 -224.002220773645
      vertex 387.98315682303 -803.751212399763 -222.414720773645
   endloop
endfacet
facet normal 0.965925826289081 0.258819045102472 8.82717189006832e-014
   outer loop
      vertex 388.539597029004 -805.094577891674 -224.002220773645
      vertex 388.729388420899 -806.536186637224 -222.414720773645
      vertex 388.729388420899 -806.536186637224 -224.002220773645
   endloop
endfacet
facet normal 0.965925826289081 0.258819045102472 8.82717189006832e-014
   outer loop
      vertex 388.729388420899 -806.536186637224 -222.414720773645
      vertex 388.539597029004 -805.094577891674 -224.002220773645
      vertex 388.539597029004 -805.094577891674 -222.414720773645
   endloop
endfacet
facet normal 1.0 -6.12906138622594e-014 9.41906990203565e-014
   outer loop
      vertex 388.729388420899 -806.536186637224 -224.002220773645
      vertex 388.539597029004 -807.977795382773 -222.414720773644
      vertex 388.539597029004 -807.977795382773 -224.002220773644
   endloop
endfacet
facet normal 1.0 -6.12906138622594e-014 9.41906990203565e-014
   outer loop
      vertex 388.539597029004 -807.977795382773 -222.414720773644
      vertex 388.729388420899 -806.536186637224 -224.002220773645
      vertex 388.729388420899 -806.536186637224 -222.414720773645
   endloop
endfacet
facet normal 0.965925826289052 -0.258819045102582 9.36907386592819e-014
   outer loop
      vertex 388.539597029004 -807.977795382773 -224.002220773644
      vertex 387.98315682303 -809.321160874684 -222.414720773644
      vertex 387.98315682303 -809.321160874684 -224.002220773644
   endloop
endfacet
facet normal 0.965925826289052 -0.258819045102582 9.36907386592819e-014
   outer loop
      vertex 387.98315682303 -809.321160874684 -222.414720773644
      vertex 388.539597029004 -807.977795382773 -224.002220773644
      vertex 388.539597029004 -807.977795382773 -222.414720773644
   endloop
endfacet
facet normal 0.866025403784412 -0.500000000000047 8.6805909289844e-014
   outer loop
      vertex 387.98315682303 -809.321160874684 -224.002220773644
      vertex 387.097988283454 -810.4747349747 -222.414720773645
      vertex 387.097988283454 -810.4747349747 -224.002220773645
   endloop
endfacet
facet normal 0.866025403784412 -0.500000000000047 8.6805909289844e-014
   outer loop
      vertex 387.097988283454 -810.4747349747 -222.414720773645
      vertex 387.98315682303 -809.321160874684 -224.002220773644
      vertex 387.98315682303 -809.321160874684 -222.414720773644
   endloop
endfacet
facet normal 0.707106781186489 -0.707106781186606 7.40054006558491e-014
   outer loop
      vertex 387.097988283454 -810.4747349747 -224.002220773645
      vertex 385.944414183438 -811.359903514275 -222.414720773645
      vertex 385.944414183438 -811.359903514275 -224.002220773645
   endloop
endfacet
facet normal 0.707106781186489 -0.707106781186606 7.40054006558491e-014
   outer loop
      vertex 385.944414183438 -811.359903514275 -222.414720773645
      vertex 387.097988283454 -810.4747349747 -224.002220773645
      vertex 387.097988283454 -810.4747349747 -222.414720773645
   endloop
endfacet
facet normal 9.43986513789393e-014 -1.09599421633615e-014 -1.0
   outer loop
      vertex 380.374465708518 -801.712469760171 -224.002220773645
      vertex 381.05265894212 -805.97167636861 -224.002220773645
      vertex 380.978339755343 -806.536186637223 -224.002220773645
   endloop
endfacet
facet normal 9.43986513789393e-014 -1.09599421633615e-014 -1.0
   outer loop
      vertex 381.05265894212 -805.97167636861 -224.002220773645
      vertex 380.374465708518 -801.712469760171 -224.002220773645
      vertex 381.717831200429 -801.156029554197 -224.002220773645
   endloop
endfacet
facet normal 9.43986513789393e-014 -1.09599421633615e-014 -1.0
   outer loop
      vertex 381.05265894212 -805.97167636861 -224.002220773645
      vertex 381.717831200429 -801.156029554197 -224.002220773645
      vertex 381.270551772689 -805.445636541905 -224.002220773645
   endloop
endfacet
facet normal 9.43986513789393e-014 -1.09599421633615e-014 -1.0
   outer loop
      vertex 381.270551772689 -805.445636541905 -224.002220773645
      vertex 381.717831200429 -801.156029554197 -224.002220773645
      vertex 381.617169210733 -804.993915901978 -224.002220773645
   endloop
endfacet
facet normal 9.43986513789393e-014 -1.09599421633615e-014 -1.0
   outer loop
      vertex 381.617169210733 -804.993915901978 -224.002220773645
      vertex 381.717831200429 -801.156029554197 -224.002220773645
      vertex 382.068889850661 -804.647298463934 -224.002220773645
   endloop
endfacet
facet normal 9.43986513789393e-014 -1.09599421633615e-014 -1.0
   outer loop
      vertex 382.068889850661 -804.647298463934 -224.002220773645
      vertex 381.717831200429 -801.156029554197 -224.002220773645
      vertex 383.159439945978 -800.966238162302 -224.002220773645
   endloop
endfacet
facet normal 9.43986513789393e-014 -1.09599421633615e-014 -1.0
   outer loop
      vertex 382.068889850661 -804.647298463934 -224.002220773645
      vertex 383.159439945978 -800.966238162302 -224.002220773645
      vertex 382.594929677365 -804.429405633365 -224.002220773645
   endloop
endfacet
facet normal 9.43986513789393e-014 -1.09599421633615e-014 -1.0
   outer loop
      vertex 382.594929677365 -804.429405633365 -224.002220773645
      vertex 383.159439945978 -800.966238162302 -224.002220773645
      vertex 383.159439945978 -804.355086446588 -224.002220773645
   endloop
endfacet
facet normal 9.43986513789393e-014 -1.09599421633615e-014 -1.0
   outer loop
      vertex 383.159439945978 -804.355086446588 -224.002220773645
      vertex 383.159439945978 -800.966238162302 -224.002220773645
      vertex 384.601048691528 -801.156029554198 -224.002220773645
   endloop
endfacet
facet normal 9.43986513789393e-014 -1.09599421633615e-014 -1.0
   outer loop
      vertex 383.159439945978 -804.355086446588 -224.002220773645
      vertex 384.601048691528 -801.156029554198 -224.002220773645
      vertex 383.723950214591 -804.429405633365 -224.002220773645
   endloop
endfacet
facet normal 9.43986513789393e-014 -1.09599421633615e-014 -1.0
   outer loop
      vertex 383.723950214591 -804.429405633365 -224.002220773645
      vertex 384.601048691528 -801.156029554198 -224.002220773645
      vertex 384.249990041296 -804.647298463934 -224.002220773645
   endloop
endfacet
facet normal 9.43986513789393e-014 -1.09599421633615e-014 -1.0
   outer loop
      vertex 384.249990041296 -804.647298463934 -224.002220773645
      vertex 384.601048691528 -801.156029554198 -224.002220773645
      vertex 384.701710681223 -804.993915901978 -224.002220773645
   endloop
endfacet
facet normal 9.43986513789393e-014 -1.09599421633615e-014 -1.0
   outer loop
      vertex 384.701710681223 -804.993915901978 -224.002220773645
      vertex 384.601048691528 -801.156029554198 -224.002220773645
      vertex 385.944414183439 -801.712469760171 -224.002220773645
   endloop
endfacet
facet normal 9.43986513789393e-014 -1.09599421633615e-014 -1.0
   outer loop
      vertex 384.701710681223 -804.993915901978 -224.002220773645
      vertex 385.944414183439 -801.712469760171 -224.002220773645
      vertex 385.048328119267 -805.445636541906 -224.002220773645
   endloop
endfacet
facet normal 9.43986513789393e-014 -1.09599421633615e-014 -1.0
   outer loop
      vertex 385.048328119267 -805.445636541906 -224.002220773645
      vertex 385.944414183439 -801.712469760171 -224.002220773645
      vertex 385.266220949836 -805.97167636861 -224.002220773645
   endloop
endfacet
facet normal 9.43986513789393e-014 -1.09599421633615e-014 -1.0
   outer loop
      vertex 385.266220949836 -805.97167636861 -224.002220773645
      vertex 385.944414183439 -801.712469760171 -224.002220773645
      vertex 385.340540136613 -806.536186637223 -224.002220773645
   endloop
endfacet
facet normal 9.43986513789393e-014 -1.09599421633615e-014 -1.0
   outer loop
      vertex 385.340540136613 -806.536186637223 -224.002220773645
      vertex 385.944414183439 -801.712469760171 -224.002220773645
      vertex 385.944414183438 -811.359903514275 -224.002220773645
   endloop
endfacet
facet normal 9.43986513789393e-014 -1.09599421633615e-014 -1.0
   outer loop
      vertex 385.944414183438 -811.359903514275 -224.002220773645
      vertex 385.944414183439 -801.712469760171 -224.002220773645
      vertex 387.097988283454 -810.4747349747 -224.002220773645
   endloop
endfacet
facet normal 9.43986513789393e-014 -1.09599421633615e-014 -1.0
   outer loop
      vertex 387.097988283454 -810.4747349747 -224.002220773645
      vertex 385.944414183439 -801.712469760171 -224.002220773645
      vertex 387.097988283455 -802.597638299747 -224.002220773645
   endloop
endfacet
facet normal 9.43986513789393e-014 -1.09599421633615e-014 -1.0
   outer loop
      vertex 387.097988283454 -810.4747349747 -224.002220773645
      vertex 387.097988283455 -802.597638299747 -224.002220773645
      vertex 387.98315682303 -809.321160874684 -224.002220773644
   endloop
endfacet
facet normal 9.43986513789393e-014 -1.09599421633615e-014 -1.0
   outer loop
      vertex 387.98315682303 -809.321160874684 -224.002220773644
      vertex 387.097988283455 -802.597638299747 -224.002220773645
      vertex 387.98315682303 -803.751212399763 -224.002220773645
   endloop
endfacet
facet normal 9.43986513789393e-014 -1.09599421633615e-014 -1.0
   outer loop
      vertex 387.98315682303 -809.321160874684 -224.002220773644
      vertex 387.98315682303 -803.751212399763 -224.002220773645
      vertex 388.539597029004 -807.977795382773 -224.002220773644
   endloop
endfacet
facet normal 9.43986513789393e-014 -1.09599421633615e-014 -1.0
   outer loop
      vertex 388.539597029004 -807.977795382773 -224.002220773644
      vertex 387.98315682303 -803.751212399763 -224.002220773645
      vertex 388.539597029004 -805.094577891674 -224.002220773645
   endloop
endfacet
facet normal 9.43986513789393e-014 -1.09599421633615e-014 -1.0
   outer loop
      vertex 388.539597029004 -807.977795382773 -224.002220773644
      vertex 388.539597029004 -805.094577891674 -224.002220773645
      vertex 388.729388420899 -806.536186637224 -224.002220773645
   endloop
endfacet
facet normal 9.43986513789393e-014 -1.09599421633615e-014 -1.0
   outer loop
      vertex 377.779282862953 -805.094577891674 -224.002220773646
      vertex 377.779282862953 -807.977795382772 -224.002220773646
      vertex 377.589491471057 -806.536186637223 -224.002220773646
   endloop
endfacet
facet normal 9.43986513789393e-014 -1.09599421633615e-014 -1.0
   outer loop
      vertex 377.779282862953 -807.977795382772 -224.002220773646
      vertex 377.779282862953 -805.094577891674 -224.002220773646
      vertex 378.335723068926 -809.321160874683 -224.002220773645
   endloop
endfacet
facet normal 9.43986513789393e-014 -1.09599421633615e-014 -1.0
   outer loop
      vertex 378.335723068926 -809.321160874683 -224.002220773645
      vertex 377.779282862953 -805.094577891674 -224.002220773646
      vertex 378.335723068926 -803.751212399762 -224.002220773646
   endloop
endfacet
facet normal 9.43986513789393e-014 -1.09599421633615e-014 -1.0
   outer loop
      vertex 378.335723068926 -809.321160874683 -224.002220773645
      vertex 378.335723068926 -803.751212399762 -224.002220773646
      vertex 379.220891608502 -810.474734974699 -224.002220773645
   endloop
endfacet
facet normal 9.43986513789393e-014 -1.09599421633615e-014 -1.0
   outer loop
      vertex 379.220891608502 -810.474734974699 -224.002220773645
      vertex 378.335723068926 -803.751212399762 -224.002220773646
      vertex 379.220891608502 -802.597638299747 -224.002220773645
   endloop
endfacet
facet normal 9.43986513789393e-014 -1.09599421633615e-014 -1.0
   outer loop
      vertex 379.220891608502 -810.474734974699 -224.002220773645
      vertex 379.220891608502 -802.597638299747 -224.002220773645
      vertex 380.374465708517 -811.359903514275 -224.002220773645
   endloop
endfacet
facet normal 9.43986513789393e-014 -1.09599421633615e-014 -1.0
   outer loop
      vertex 380.374465708517 -811.359903514275 -224.002220773645
      vertex 379.220891608502 -802.597638299747 -224.002220773645
      vertex 380.374465708518 -801.712469760171 -224.002220773645
   endloop
endfacet
facet normal 9.43986513789393e-014 -1.09599421633615e-014 -1.0
   outer loop
      vertex 380.374465708517 -811.359903514275 -224.002220773645
      vertex 380.374465708518 -801.712469760171 -224.002220773645
      vertex 380.978339755343 -806.536186637223 -224.002220773645
   endloop
endfacet
facet normal 9.43986513789393e-014 -1.09599421633615e-014 -1.0
   outer loop
      vertex 380.374465708517 -811.359903514275 -224.002220773645
      vertex 380.978339755343 -806.536186637223 -224.002220773645
      vertex 381.05265894212 -807.100696905836 -224.002220773645
   endloop
endfacet
facet normal 9.43986513789393e-014 -1.09599421633615e-014 -1.0
   outer loop
      vertex 380.374465708517 -811.359903514275 -224.002220773645
      vertex 381.05265894212 -807.100696905836 -224.002220773645
      vertex 381.717831200429 -811.916343720249 -224.002220773645
   endloop
endfacet
facet normal 9.43986513789393e-014 -1.09599421633615e-014 -1.0
   outer loop
      vertex 381.717831200429 -811.916343720249 -224.002220773645
      vertex 381.05265894212 -807.100696905836 -224.002220773645
      vertex 381.270551772689 -807.62673673254 -224.002220773645
   endloop
endfacet
facet normal 9.43986513789393e-014 -1.09599421633615e-014 -1.0
   outer loop
      vertex 381.717831200429 -811.916343720249 -224.002220773645
      vertex 381.270551772689 -807.62673673254 -224.002220773645
      vertex 381.617169210733 -808.078457372468 -224.002220773645
   endloop
endfacet
facet normal 9.43986513789393e-014 -1.09599421633615e-014 -1.0
   outer loop
      vertex 381.717831200429 -811.916343720249 -224.002220773645
      vertex 381.617169210733 -808.078457372468 -224.002220773645
      vertex 382.068889850661 -808.425074810512 -224.002220773645
   endloop
endfacet
facet normal 9.43986513789393e-014 -1.09599421633615e-014 -1.0
   outer loop
      vertex 381.717831200429 -811.916343720249 -224.002220773645
      vertex 382.068889850661 -808.425074810512 -224.002220773645
      vertex 383.159439945978 -812.106135112144 -224.002220773645
   endloop
endfacet
facet normal 9.43986513789393e-014 -1.09599421633615e-014 -1.0
   outer loop
      vertex 383.159439945978 -812.106135112144 -224.002220773645
      vertex 382.068889850661 -808.425074810512 -224.002220773645
      vertex 382.594929677365 -808.642967641081 -224.002220773645
   endloop
endfacet
facet normal 9.43986513789393e-014 -1.09599421633615e-014 -1.0
   outer loop
      vertex 383.159439945978 -812.106135112144 -224.002220773645
      vertex 382.594929677365 -808.642967641081 -224.002220773645
      vertex 383.159439945978 -808.717286827858 -224.002220773645
   endloop
endfacet
facet normal 9.43986513789393e-014 -1.09599421633615e-014 -1.0
   outer loop
      vertex 383.159439945978 -812.106135112144 -224.002220773645
      vertex 383.159439945978 -808.717286827858 -224.002220773645
      vertex 384.601048691527 -811.916343720249 -224.002220773645
   endloop
endfacet
facet normal 9.43986513789393e-014 -1.09599421633615e-014 -1.0
   outer loop
      vertex 384.601048691527 -811.916343720249 -224.002220773645
      vertex 383.159439945978 -808.717286827858 -224.002220773645
      vertex 383.723950214591 -808.642967641081 -224.002220773645
   endloop
endfacet
facet normal 9.43986513789393e-014 -1.09599421633615e-014 -1.0
   outer loop
      vertex 384.601048691527 -811.916343720249 -224.002220773645
      vertex 383.723950214591 -808.642967641081 -224.002220773645
      vertex 384.249990041296 -808.425074810512 -224.002220773645
   endloop
endfacet
facet normal 9.43986513789393e-014 -1.09599421633615e-014 -1.0
   outer loop
      vertex 384.601048691527 -811.916343720249 -224.002220773645
      vertex 384.249990041296 -808.425074810512 -224.002220773645
      vertex 384.701710681223 -808.078457372468 -224.002220773645
   endloop
endfacet
facet normal 9.43986513789393e-014 -1.09599421633615e-014 -1.0
   outer loop
      vertex 384.601048691527 -811.916343720249 -224.002220773645
      vertex 384.701710681223 -808.078457372468 -224.002220773645
      vertex 385.944414183438 -811.359903514275 -224.002220773645
   endloop
endfacet
facet normal 9.43986513789393e-014 -1.09599421633615e-014 -1.0
   outer loop
      vertex 385.944414183438 -811.359903514275 -224.002220773645
      vertex 384.701710681223 -808.078457372468 -224.002220773645
      vertex 385.048328119267 -807.626736732541 -224.002220773645
   endloop
endfacet
facet normal 9.43986513789393e-014 -1.09599421633615e-014 -1.0
   outer loop
      vertex 385.944414183438 -811.359903514275 -224.002220773645
      vertex 385.048328119267 -807.626736732541 -224.002220773645
      vertex 385.266220949836 -807.100696905836 -224.002220773645
   endloop
endfacet
facet normal 9.43986513789393e-014 -1.09599421633615e-014 -1.0
   outer loop
      vertex 385.944414183438 -811.359903514275 -224.002220773645
      vertex 385.266220949836 -807.100696905836 -224.002220773645
      vertex 385.340540136613 -806.536186637223 -224.002220773645
   endloop
endfacet
facet normal 0.499999999999942 -0.866025403784472 5.61615462668675e-014
   outer loop
      vertex 385.944414183438 -811.359903514275 -224.002220773645
      vertex 384.601048691527 -811.916343720249 -222.414720773645
      vertex 384.601048691527 -811.916343720249 -224.002220773645
   endloop
endfacet
facet normal 0.499999999999942 -0.866025403784472 5.61615462668675e-014
   outer loop
      vertex 384.601048691527 -811.916343720249 -222.414720773645
      vertex 385.944414183438 -811.359903514275 -224.002220773645
      vertex 385.944414183438 -811.359903514275 -222.414720773645
   endloop
endfacet
facet normal 0.258819045102473 -0.965925826289081 3.4490375311143e-014
   outer loop
      vertex 384.601048691527 -811.916343720249 -224.002220773645
      vertex 383.159439945978 -812.106135112144 -222.414720773645
      vertex 383.159439945978 -812.106135112144 -224.002220773645
   endloop
endfacet
facet normal 0.258819045102473 -0.965925826289081 3.4490375311143e-014
   outer loop
      vertex 383.159439945978 -812.106135112144 -222.414720773645
      vertex 384.601048691527 -811.916343720249 -224.002220773645
      vertex 384.601048691527 -811.916343720249 -222.414720773645
   endloop
endfacet
facet normal -7.3374078880758e-014 -1.0 1.04687422760007e-014
   outer loop
      vertex 383.159439945978 -812.106135112144 -224.002220773645
      vertex 381.717831200428 -811.916343720249 -222.414720773645
      vertex 381.717831200429 -811.916343720249 -224.002220773645
   endloop
endfacet
facet normal -7.3374078880758e-014 -1.0 1.04687422760007e-014
   outer loop
      vertex 381.717831200428 -811.916343720249 -222.414720773645
      vertex 383.159439945978 -812.106135112144 -224.002220773645
      vertex 383.159439945978 -812.106135112144 -222.414720773645
   endloop
endfacet
facet normal -0.258819045102593 -0.965925826289049 -1.42663182448345e-014
   outer loop
      vertex 381.717831200429 -811.916343720249 -224.002220773645
      vertex 380.374465708517 -811.359903514275 -222.414720773645
      vertex 380.374465708517 -811.359903514275 -224.002220773645
   endloop
endfacet
facet normal -0.258819045102593 -0.965925826289049 -1.42663182448345e-014
   outer loop
      vertex 380.374465708517 -811.359903514275 -222.414720773645
      vertex 381.717831200429 -811.916343720249 -224.002220773645
      vertex 381.717831200428 -811.916343720249 -222.414720773645
   endloop
endfacet
facet normal -0.500000000000033 -0.86602540378442 -3.80291527534865e-014
   outer loop
      vertex 380.374465708517 -811.359903514275 -224.002220773645
      vertex 379.220891608502 -810.474734974699 -222.414720773645
      vertex 379.220891608502 -810.474734974699 -224.002220773645
   endloop
endfacet
facet normal -0.500000000000033 -0.86602540378442 -3.80291527534865e-014
   outer loop
      vertex 379.220891608502 -810.474734974699 -222.414720773645
      vertex 380.374465708517 -811.359903514275 -224.002220773645
      vertex 380.374465708517 -811.359903514275 -222.414720773645
   endloop
endfacet
facet normal -0.866025403784485 -0.499999999999919 -7.63371670138436e-014
   outer loop
      vertex 378.335723068926 -809.321160874683 -222.414720773645
      vertex 379.220891608502 -810.474734974699 -224.002220773645
      vertex 379.220891608502 -810.474734974699 -222.414720773645
   endloop
endfacet
facet normal -0.866025403784485 -0.499999999999919 -7.63371670138436e-014
   outer loop
      vertex 379.220891608502 -810.474734974699 -224.002220773645
      vertex 378.335723068926 -809.321160874683 -222.414720773645
      vertex 378.335723068926 -809.321160874683 -224.002220773645
   endloop
endfacet
facet normal -0.965925826289081 -0.258819045102473 -8.82717189006831e-014
   outer loop
      vertex 377.779282862952 -807.977795382772 -222.414720773646
      vertex 378.335723068926 -809.321160874683 -224.002220773645
      vertex 378.335723068926 -809.321160874683 -222.414720773645
   endloop
endfacet
facet normal -0.965925826289081 -0.258819045102473 -8.82717189006831e-014
   outer loop
      vertex 378.335723068926 -809.321160874683 -224.002220773645
      vertex 377.779282862952 -807.977795382772 -222.414720773646
      vertex 377.779282862953 -807.977795382772 -224.002220773646
   endloop
endfacet
facet normal -1.0 6.25827247971276e-014 -9.41906990203565e-014
   outer loop
      vertex 377.589491471057 -806.536186637223 -222.414720773646
      vertex 377.779282862953 -807.977795382772 -224.002220773646
      vertex 377.779282862952 -807.977795382772 -222.414720773646
   endloop
endfacet
facet normal -1.0 6.25827247971276e-014 -9.41906990203565e-014
   outer loop
      vertex 377.779282862953 -807.977795382772 -224.002220773646
      vertex 377.589491471057 -806.536186637223 -222.414720773646
      vertex 377.589491471057 -806.536186637223 -224.002220773646
   endloop
endfacet
facet normal -0.965925826289051 0.258819045102584 -9.36907386592819e-014
   outer loop
      vertex 377.779282862953 -805.094577891674 -222.414720773646
      vertex 377.589491471057 -806.536186637223 -224.002220773646
      vertex 377.589491471057 -806.536186637223 -222.414720773646
   endloop
endfacet
facet normal -0.965925826289051 0.258819045102584 -9.36907386592819e-014
   outer loop
      vertex 377.589491471057 -806.536186637223 -224.002220773646
      vertex 377.779282862953 -805.094577891674 -222.414720773646
      vertex 377.779282862953 -805.094577891674 -224.002220773646
   endloop
endfacet
facet normal -0.866025403784411 0.500000000000048 -8.68059092898439e-014
   outer loop
      vertex 378.335723068926 -803.751212399762 -222.414720773646
      vertex 377.779282862953 -805.094577891674 -224.002220773646
      vertex 377.779282862953 -805.094577891674 -222.414720773646
   endloop
endfacet
facet normal -0.866025403784411 0.500000000000048 -8.68059092898439e-014
   outer loop
      vertex 377.779282862953 -805.094577891674 -224.002220773646
      vertex 378.335723068926 -803.751212399762 -222.414720773646
      vertex 378.335723068926 -803.751212399762 -224.002220773646
   endloop
endfacet
facet normal -0.707106781186491 0.707106781186604 -7.40054006558492e-014
   outer loop
      vertex 379.220891608502 -802.597638299747 -222.414720773645
      vertex 378.335723068926 -803.751212399762 -224.002220773646
      vertex 378.335723068926 -803.751212399762 -222.414720773646
   endloop
endfacet
facet normal -0.707106781186491 0.707106781186604 -7.40054006558492e-014
   outer loop
      vertex 378.335723068926 -803.751212399762 -224.002220773646
      vertex 379.220891608502 -802.597638299747 -222.414720773645
      vertex 379.220891608502 -802.597638299747 -224.002220773645
   endloop
endfacet
facet normal -0.707106781186491 0.707106781186604 -7.40054006558492e-014
   outer loop
      vertex 379.220891608502 -802.597638299747 -222.414720773645
      vertex 380.374465708518 -801.712469760171 -224.002220773645
      vertex 379.220891608502 -802.597638299747 -224.002220773645
   endloop
endfacet
facet normal -0.707106781186491 0.707106781186604 -7.40054006558492e-014
   outer loop
      vertex 380.374465708518 -801.712469760171 -224.002220773645
      vertex 379.220891608502 -802.597638299747 -222.414720773645
      vertex 380.374465708518 -801.712469760171 -222.414720773645
   endloop
endfacet
facet normal -0.499999999999942 0.866025403784472 -5.61615462668675e-014
   outer loop
      vertex 380.374465708518 -801.712469760171 -222.414720773645
      vertex 381.717831200429 -801.156029554197 -224.002220773645
      vertex 380.374465708518 -801.712469760171 -224.002220773645
   endloop
endfacet
facet normal -0.499999999999942 0.866025403784472 -5.61615462668675e-014
   outer loop
      vertex 381.717831200429 -801.156029554197 -224.002220773645
      vertex 380.374465708518 -801.712469760171 -222.414720773645
      vertex 381.717831200429 -801.156029554197 -222.414720773645
   endloop
endfacet
facet normal -0.258819045102473 0.965925826289081 -3.4490375311143e-014
   outer loop
      vertex 381.717831200429 -801.156029554197 -222.414720773645
      vertex 383.159439945978 -800.966238162302 -224.002220773645
      vertex 381.717831200429 -801.156029554197 -224.002220773645
   endloop
endfacet
facet normal -0.258819045102473 0.965925826289081 -3.4490375311143e-014
   outer loop
      vertex 383.159439945978 -800.966238162302 -224.002220773645
      vertex 381.717831200429 -801.156029554197 -222.414720773645
      vertex 383.159439945978 -800.966238162302 -222.414720773645
   endloop
endfacet
facet normal 7.10215458683072e-014 1.0 -1.04687422760009e-014
   outer loop
      vertex 383.159439945978 -800.966238162302 -222.414720773645
      vertex 384.601048691528 -801.156029554198 -224.002220773645
      vertex 383.159439945978 -800.966238162302 -224.002220773645
   endloop
endfacet
facet normal 7.10215458683072e-014 1.0 -1.04687422760009e-014
   outer loop
      vertex 384.601048691528 -801.156029554198 -224.002220773645
      vertex 383.159439945978 -800.966238162302 -222.414720773645
      vertex 384.601048691528 -801.156029554198 -222.414720773645
   endloop
endfacet
facet normal 0.258819045102596 0.965925826289048 1.42663182448347e-014
   outer loop
      vertex 384.601048691528 -801.156029554198 -222.414720773645
      vertex 385.944414183439 -801.712469760171 -224.002220773645
      vertex 384.601048691528 -801.156029554198 -224.002220773645
   endloop
endfacet
facet normal 0.258819045102596 0.965925826289048 1.42663182448347e-014
   outer loop
      vertex 385.944414183439 -801.712469760171 -224.002220773645
      vertex 384.601048691528 -801.156029554198 -222.414720773645
      vertex 385.944414183439 -801.712469760171 -222.414720773645
   endloop
endfacet
facet normal 0.500000000000031 0.866025403784421 3.80291527534863e-014
   outer loop
      vertex 385.944414183439 -801.712469760171 -222.414720773645
      vertex 387.097988283455 -802.597638299747 -224.002220773645
      vertex 385.944414183439 -801.712469760171 -224.002220773645
   endloop
endfacet
facet normal 0.500000000000031 0.866025403784421 3.80291527534863e-014
   outer loop
      vertex 387.097988283455 -802.597638299747 -224.002220773645
      vertex 385.944414183439 -801.712469760171 -222.414720773645
      vertex 387.097988283455 -802.597638299747 -222.414720773645
   endloop
endfacet
facet normal 0.707106781186597 0.707106781186499 5.92003633481406e-014
   outer loop
      vertex 387.097988283455 -802.597638299747 -224.002220773645
      vertex 387.98315682303 -803.751212399763 -222.414720773645
      vertex 387.98315682303 -803.751212399763 -224.002220773645
   endloop
endfacet
facet normal 0.707106781186597 0.707106781186499 5.92003633481406e-014
   outer loop
      vertex 387.98315682303 -803.751212399763 -222.414720773645
      vertex 387.097988283455 -802.597638299747 -224.002220773645
      vertex 387.097988283455 -802.597638299747 -222.414720773645
   endloop
endfacet
facet normal -8.34970997222125e-014 -1.0 1.58564995407981e-014
   outer loop
      vertex 383.159439945978 -804.355086446588 -224.002220773645
      vertex 382.594929677364 -804.429405633365 -214.477220773645
      vertex 382.594929677365 -804.429405633365 -224.002220773645
   endloop
endfacet
facet normal -8.34970997222125e-014 -1.0 1.58564995407981e-014
   outer loop
      vertex 382.594929677364 -804.429405633365 -214.477220773645
      vertex 383.159439945978 -804.355086446588 -224.002220773645
      vertex 383.159439945977 -804.355086446588 -214.477220773645
   endloop
endfacet
facet normal -0.258819045102676 -0.965925826289027 -1.58315296810639e-014
   outer loop
      vertex 383.723950214591 -804.429405633365 -224.002220773645
      vertex 383.159439945977 -804.355086446588 -214.477220773645
      vertex 383.159439945978 -804.355086446588 -224.002220773645
   endloop
endfacet
facet normal -0.258819045102676 -0.965925826289027 -1.58315296810639e-014
   outer loop
      vertex 383.159439945977 -804.355086446588 -214.477220773645
      vertex 383.723950214591 -804.429405633365 -224.002220773645
      vertex 383.723950214591 -804.429405633365 -214.477220773645
   endloop
endfacet
facet normal -0.500000000000113 -0.866025403784373 -4.64406663179886e-014
   outer loop
      vertex 384.249990041295 -804.647298463934 -214.477220773645
      vertex 383.723950214591 -804.429405633365 -224.002220773645
      vertex 384.249990041296 -804.647298463934 -224.002220773645
   endloop
endfacet
facet normal -0.500000000000113 -0.866025403784373 -4.64406663179886e-014
   outer loop
      vertex 383.723950214591 -804.429405633365 -224.002220773645
      vertex 384.249990041295 -804.647298463934 -214.477220773645
      vertex 383.723950214591 -804.429405633365 -214.477220773645
   endloop
endfacet
facet normal -0.707106781186554 -0.707106781186541 -7.38849482921641e-014
   outer loop
      vertex 384.701710681223 -804.993915901978 -224.002220773645
      vertex 384.249990041295 -804.647298463934 -214.477220773645
      vertex 384.249990041296 -804.647298463934 -224.002220773645
   endloop
endfacet
facet normal -0.707106781186554 -0.707106781186541 -7.38849482921641e-014
   outer loop
      vertex 384.249990041295 -804.647298463934 -214.477220773645
      vertex 384.701710681223 -804.993915901978 -224.002220773645
      vertex 384.701710681223 -804.993915901978 -214.477220773645
   endloop
endfacet
facet normal -0.707106781186565 -0.70710678118653 -7.38849482921656e-014
   outer loop
      vertex 384.701710681223 -804.993915901978 -214.477220773645
      vertex 385.048328119267 -805.445636541906 -224.002220773645
      vertex 385.048328119266 -805.445636541906 -214.477220773645
   endloop
endfacet
facet normal -0.707106781186565 -0.70710678118653 -7.38849482921656e-014
   outer loop
      vertex 385.048328119267 -805.445636541906 -224.002220773645
      vertex 384.701710681223 -804.993915901978 -214.477220773645
      vertex 384.701710681223 -804.993915901978 -224.002220773645
   endloop
endfacet
facet normal -0.866025403784461 -0.499999999999962 -9.62940931408949e-014
   outer loop
      vertex 385.048328119266 -805.445636541906 -214.477220773645
      vertex 385.266220949836 -805.97167636861 -224.002220773645
      vertex 385.266220949836 -805.97167636861 -214.477220773645
   endloop
endfacet
facet normal -0.866025403784461 -0.499999999999962 -9.62940931408949e-014
   outer loop
      vertex 385.266220949836 -805.97167636861 -224.002220773645
      vertex 385.048328119266 -805.445636541906 -214.477220773645
      vertex 385.048328119267 -805.445636541906 -224.002220773645
   endloop
endfacet
facet normal -0.965925826289091 -0.258819045102436 -1.12140954675586e-013
   outer loop
      vertex 385.266220949836 -805.97167636861 -214.477220773645
      vertex 385.340540136613 -806.536186637223 -224.002220773645
      vertex 385.340540136612 -806.536186637223 -214.477220773645
   endloop
endfacet
facet normal -0.965925826289091 -0.258819045102436 -1.12140954675586e-013
   outer loop
      vertex 385.340540136613 -806.536186637223 -224.002220773645
      vertex 385.266220949836 -805.97167636861 -214.477220773645
      vertex 385.266220949836 -805.97167636861 -224.002220773645
   endloop
endfacet
facet normal -1.0 5.45449036712532e-014 -1.20345595470821e-013
   outer loop
      vertex 385.340540136612 -806.536186637223 -214.477220773645
      vertex 385.266220949836 -807.100696905836 -224.002220773645
      vertex 385.266220949835 -807.100696905836 -214.477220773645
   endloop
endfacet
facet normal -1.0 5.45449036712532e-014 -1.20345595470821e-013
   outer loop
      vertex 385.266220949836 -807.100696905836 -224.002220773645
      vertex 385.340540136612 -806.536186637223 -214.477220773645
      vertex 385.340540136613 -806.536186637223 -224.002220773645
   endloop
endfacet
facet normal -0.965925826289056 0.258819045102569 -1.20348882815222e-013
   outer loop
      vertex 385.266220949835 -807.100696905836 -214.477220773645
      vertex 385.048328119267 -807.626736732541 -224.002220773645
      vertex 385.048328119266 -807.626736732541 -214.477220773645
   endloop
endfacet
facet normal -0.965925826289056 0.258819045102569 -1.20348882815222e-013
   outer loop
      vertex 385.048328119267 -807.626736732541 -224.002220773645
      vertex 385.266220949835 -807.100696905836 -214.477220773645
      vertex 385.266220949836 -807.100696905836 -224.002220773645
   endloop
endfacet
facet normal -0.866025403784401 0.500000000000066 -1.12150592681696e-013
   outer loop
      vertex 385.048328119266 -807.626736732541 -214.477220773645
      vertex 384.701710681223 -808.078457372468 -224.002220773645
      vertex 384.701710681222 -808.078457372468 -214.477220773645
   endloop
endfacet
facet normal -0.866025403784401 0.500000000000066 -1.12150592681696e-013
   outer loop
      vertex 384.701710681223 -808.078457372468 -224.002220773645
      vertex 385.048328119266 -807.626736732541 -214.477220773645
      vertex 385.048328119267 -807.626736732541 -224.002220773645
   endloop
endfacet
facet normal -0.499999999999939 0.866025403784474 -7.39049291528394e-014
   outer loop
      vertex 384.249990041295 -808.425074810512 -214.477220773645
      vertex 384.701710681223 -808.078457372468 -224.002220773645
      vertex 384.249990041296 -808.425074810512 -224.002220773645
   endloop
endfacet
facet normal -0.499999999999939 0.866025403784474 -7.39049291528394e-014
   outer loop
      vertex 384.701710681223 -808.078457372468 -224.002220773645
      vertex 384.249990041295 -808.425074810512 -214.477220773645
      vertex 384.701710681222 -808.078457372468 -214.477220773645
   endloop
endfacet
facet normal -0.258819045102531 0.965925826289066 -4.64639345230605e-014
   outer loop
      vertex 383.72395021459 -808.642967641081 -214.477220773645
      vertex 384.249990041296 -808.425074810512 -224.002220773645
      vertex 383.723950214591 -808.642967641081 -224.002220773645
   endloop
endfacet
facet normal -0.258819045102531 0.965925826289066 -4.64639345230605e-014
   outer loop
      vertex 384.249990041296 -808.425074810512 -224.002220773645
      vertex 383.72395021459 -808.642967641081 -214.477220773645
      vertex 384.249990041295 -808.425074810512 -214.477220773645
   endloop
endfacet
facet normal 7.31691233531577e-014 1.0 -1.58564995407994e-014
   outer loop
      vertex 383.159439945977 -808.717286827858 -214.477220773645
      vertex 383.723950214591 -808.642967641081 -224.002220773645
      vertex 383.159439945978 -808.717286827858 -224.002220773645
   endloop
endfacet
facet normal 7.31691233531577e-014 1.0 -1.58564995407994e-014
   outer loop
      vertex 383.723950214591 -808.642967641081 -224.002220773645
      vertex 383.159439945977 -808.717286827858 -214.477220773645
      vertex 383.72395021459 -808.642967641081 -214.477220773645
   endloop
endfacet
facet normal -0.258819045102601 -0.965925826289047 -1.43263099849332e-014
   outer loop
      vertex 382.028646695652 -810.756364500293 -222.414720773645
      vertex 380.974915136612 -810.319894597438 -214.477220773645
      vertex 380.974915136613 -810.319894597438 -222.414720773645
   endloop
endfacet
facet normal -0.258819045102601 -0.965925826289047 -1.43263099849332e-014
   outer loop
      vertex 380.974915136612 -810.319894597438 -214.477220773645
      vertex 382.028646695652 -810.756364500293 -222.414720773645
      vertex 382.028646695652 -810.756364500293 -214.477220773645
   endloop
endfacet
facet normal -9.43986513789394e-014 1.09599421633617e-014 1.0
   outer loop
      vertex 377.779282862952 -807.977795382772 -222.414720773646
      vertex 377.779282862953 -805.094577891674 -222.414720773646
      vertex 377.589491471057 -806.536186637223 -222.414720773646
   endloop
endfacet
facet normal -9.43986513789394e-014 1.09599421633617e-014 1.0
   outer loop
      vertex 377.779282862953 -805.094577891674 -222.414720773646
      vertex 377.779282862952 -807.977795382772 -222.414720773646
      vertex 378.335723068926 -809.321160874683 -222.414720773645
   endloop
endfacet
facet normal -9.43986513789394e-014 1.09599421633617e-014 1.0
   outer loop
      vertex 377.779282862953 -805.094577891674 -222.414720773646
      vertex 378.335723068926 -809.321160874683 -222.414720773645
      vertex 378.335723068926 -803.751212399762 -222.414720773646
   endloop
endfacet
facet normal -9.43986513789394e-014 1.09599421633617e-014 1.0
   outer loop
      vertex 378.335723068926 -803.751212399762 -222.414720773646
      vertex 378.335723068926 -809.321160874683 -222.414720773645
      vertex 379.220891608502 -810.474734974699 -222.414720773645
   endloop
endfacet
facet normal -9.43986513789394e-014 1.09599421633617e-014 1.0
   outer loop
      vertex 378.335723068926 -803.751212399762 -222.414720773646
      vertex 379.220891608502 -810.474734974699 -222.414720773645
      vertex 378.790390327248 -806.536186637223 -222.414720773646
   endloop
endfacet
facet normal -9.43986513789394e-014 1.09599421633617e-014 1.0
   outer loop
      vertex 378.790390327248 -806.536186637223 -222.414720773646
      vertex 379.220891608502 -810.474734974699 -222.414720773645
      vertex 378.939262082908 -807.666979887548 -222.414720773646
   endloop
endfacet
facet normal -9.43986513789394e-014 1.09599421633617e-014 1.0
   outer loop
      vertex 378.939262082908 -807.666979887548 -222.414720773646
      vertex 379.220891608502 -810.474734974699 -222.414720773645
      vertex 379.375731985763 -808.720711446588 -222.414720773645
   endloop
endfacet
facet normal -9.43986513789394e-014 1.09599421633617e-014 1.0
   outer loop
      vertex 379.375731985763 -808.720711446588 -222.414720773645
      vertex 379.220891608502 -810.474734974699 -222.414720773645
      vertex 380.374465708517 -811.359903514275 -222.414720773645
   endloop
endfacet
facet normal -9.43986513789394e-014 1.09599421633617e-014 1.0
   outer loop
      vertex 379.375731985763 -808.720711446588 -222.414720773645
      vertex 380.374465708517 -811.359903514275 -222.414720773645
      vertex 380.070055333233 -809.625571249967 -222.414720773645
   endloop
endfacet
facet normal -9.43986513789394e-014 1.09599421633617e-014 1.0
   outer loop
      vertex 380.070055333233 -809.625571249967 -222.414720773645
      vertex 380.374465708517 -811.359903514275 -222.414720773645
      vertex 380.974915136613 -810.319894597438 -222.414720773645
   endloop
endfacet
facet normal -9.43986513789394e-014 1.09599421633617e-014 1.0
   outer loop
      vertex 380.974915136613 -810.319894597438 -222.414720773645
      vertex 380.374465708517 -811.359903514275 -222.414720773645
      vertex 381.717831200428 -811.916343720249 -222.414720773645
   endloop
endfacet
facet normal -9.43986513789394e-014 1.09599421633617e-014 1.0
   outer loop
      vertex 380.974915136613 -810.319894597438 -222.414720773645
      vertex 381.717831200428 -811.916343720249 -222.414720773645
      vertex 382.028646695652 -810.756364500293 -222.414720773645
   endloop
endfacet
facet normal -9.43986513789394e-014 1.09599421633617e-014 1.0
   outer loop
      vertex 382.028646695652 -810.756364500293 -222.414720773645
      vertex 381.717831200428 -811.916343720249 -222.414720773645
      vertex 383.159439945978 -812.106135112144 -222.414720773645
   endloop
endfacet
facet normal -9.43986513789394e-014 1.09599421633617e-014 1.0
   outer loop
      vertex 382.028646695652 -810.756364500293 -222.414720773645
      vertex 383.159439945978 -812.106135112144 -222.414720773645
      vertex 383.159439945978 -810.905236255953 -222.414720773645
   endloop
endfacet
facet normal -9.43986513789394e-014 1.09599421633617e-014 1.0
   outer loop
      vertex 383.159439945978 -810.905236255953 -222.414720773645
      vertex 383.159439945978 -812.106135112144 -222.414720773645
      vertex 384.290233196303 -810.756364500293 -222.414720773645
   endloop
endfacet
facet normal -9.43986513789394e-014 1.09599421633617e-014 1.0
   outer loop
      vertex 384.290233196303 -810.756364500293 -222.414720773645
      vertex 383.159439945978 -812.106135112144 -222.414720773645
      vertex 384.601048691527 -811.916343720249 -222.414720773645
   endloop
endfacet
facet normal -9.43986513789394e-014 1.09599421633617e-014 1.0
   outer loop
      vertex 384.290233196303 -810.756364500293 -222.414720773645
      vertex 384.601048691527 -811.916343720249 -222.414720773645
      vertex 385.343964755343 -810.319894597438 -222.414720773645
   endloop
endfacet
facet normal -9.43986513789394e-014 1.09599421633617e-014 1.0
   outer loop
      vertex 385.343964755343 -810.319894597438 -222.414720773645
      vertex 384.601048691527 -811.916343720249 -222.414720773645
      vertex 385.944414183438 -811.359903514275 -222.414720773645
   endloop
endfacet
facet normal -9.43986513789394e-014 1.09599421633617e-014 1.0
   outer loop
      vertex 385.343964755343 -810.319894597438 -222.414720773645
      vertex 385.944414183438 -811.359903514275 -222.414720773645
      vertex 386.248824558723 -809.625571249968 -222.414720773645
   endloop
endfacet
facet normal -9.43986513789394e-014 1.09599421633617e-014 1.0
   outer loop
      vertex 386.248824558723 -809.625571249968 -222.414720773645
      vertex 385.944414183438 -811.359903514275 -222.414720773645
      vertex 387.097988283454 -810.4747349747 -222.414720773645
   endloop
endfacet
facet normal -9.43986513789394e-014 1.09599421633617e-014 1.0
   outer loop
      vertex 386.248824558723 -809.625571249968 -222.414720773645
      vertex 387.097988283454 -810.4747349747 -222.414720773645
      vertex 386.943147906193 -808.720711446589 -222.414720773645
   endloop
endfacet
facet normal -9.43986513789394e-014 1.09599421633617e-014 1.0
   outer loop
      vertex 386.943147906193 -808.720711446589 -222.414720773645
      vertex 387.097988283454 -810.4747349747 -222.414720773645
      vertex 387.379617809048 -807.666979887549 -222.414720773645
   endloop
endfacet
facet normal -9.43986513789394e-014 1.09599421633617e-014 1.0
   outer loop
      vertex 387.379617809048 -807.666979887549 -222.414720773645
      vertex 387.097988283454 -810.4747349747 -222.414720773645
      vertex 387.98315682303 -809.321160874684 -222.414720773644
   endloop
endfacet
facet normal -9.43986513789394e-014 1.09599421633617e-014 1.0
   outer loop
      vertex 387.379617809048 -807.666979887549 -222.414720773645
      vertex 387.98315682303 -809.321160874684 -222.414720773644
      vertex 387.528489564708 -806.536186637223 -222.414720773645
   endloop
endfacet
facet normal -9.43986513789394e-014 1.09599421633617e-014 1.0
   outer loop
      vertex 378.790390327248 -806.536186637223 -222.414720773646
      vertex 379.220891608502 -802.597638299747 -222.414720773645
      vertex 378.335723068926 -803.751212399762 -222.414720773646
   endloop
endfacet
facet normal -9.43986513789394e-014 1.09599421633617e-014 1.0
   outer loop
      vertex 379.220891608502 -802.597638299747 -222.414720773645
      vertex 378.790390327248 -806.536186637223 -222.414720773646
      vertex 378.939262082908 -805.405393386897 -222.414720773646
   endloop
endfacet
facet normal -9.43986513789394e-014 1.09599421633617e-014 1.0
   outer loop
      vertex 379.220891608502 -802.597638299747 -222.414720773645
      vertex 378.939262082908 -805.405393386897 -222.414720773646
      vertex 379.375731985763 -804.351661827858 -222.414720773646
   endloop
endfacet
facet normal -9.43986513789394e-014 1.09599421633617e-014 1.0
   outer loop
      vertex 379.220891608502 -802.597638299747 -222.414720773645
      vertex 379.375731985763 -804.351661827858 -222.414720773646
      vertex 380.374465708518 -801.712469760171 -222.414720773645
   endloop
endfacet
facet normal -9.43986513789394e-014 1.09599421633617e-014 1.0
   outer loop
      vertex 380.374465708518 -801.712469760171 -222.414720773645
      vertex 379.375731985763 -804.351661827858 -222.414720773646
      vertex 380.070055333233 -803.446802024478 -222.414720773645
   endloop
endfacet
facet normal -9.43986513789394e-014 1.09599421633617e-014 1.0
   outer loop
      vertex 380.374465708518 -801.712469760171 -222.414720773645
      vertex 380.070055333233 -803.446802024478 -222.414720773645
      vertex 380.974915136613 -802.752478677008 -222.414720773645
   endloop
endfacet
facet normal -9.43986513789394e-014 1.09599421633617e-014 1.0
   outer loop
      vertex 380.374465708518 -801.712469760171 -222.414720773645
      vertex 380.974915136613 -802.752478677008 -222.414720773645
      vertex 381.717831200429 -801.156029554197 -222.414720773645
   endloop
endfacet
facet normal -9.43986513789394e-014 1.09599421633617e-014 1.0
   outer loop
      vertex 381.717831200429 -801.156029554197 -222.414720773645
      vertex 380.974915136613 -802.752478677008 -222.414720773645
      vertex 382.028646695653 -802.316008774153 -222.414720773645
   endloop
endfacet
facet normal -9.43986513789394e-014 1.09599421633617e-014 1.0
   outer loop
      vertex 381.717831200429 -801.156029554197 -222.414720773645
      vertex 382.028646695653 -802.316008774153 -222.414720773645
      vertex 383.159439945978 -800.966238162302 -222.414720773645
   endloop
endfacet
facet normal -9.43986513789394e-014 1.09599421633617e-014 1.0
   outer loop
      vertex 383.159439945978 -800.966238162302 -222.414720773645
      vertex 382.028646695653 -802.316008774153 -222.414720773645
      vertex 383.159439945978 -802.167137018493 -222.414720773645
   endloop
endfacet
facet normal -9.43986513789394e-014 1.09599421633617e-014 1.0
   outer loop
      vertex 383.159439945978 -800.966238162302 -222.414720773645
      vertex 383.159439945978 -802.167137018493 -222.414720773645
      vertex 384.601048691528 -801.156029554198 -222.414720773645
   endloop
endfacet
facet normal -9.43986513789394e-014 1.09599421633617e-014 1.0
   outer loop
      vertex 384.601048691528 -801.156029554198 -222.414720773645
      vertex 383.159439945978 -802.167137018493 -222.414720773645
      vertex 384.290233196304 -802.316008774153 -222.414720773645
   endloop
endfacet
facet normal -9.43986513789394e-014 1.09599421633617e-014 1.0
   outer loop
      vertex 384.601048691528 -801.156029554198 -222.414720773645
      vertex 384.290233196304 -802.316008774153 -222.414720773645
      vertex 385.343964755343 -802.752478677008 -222.414720773645
   endloop
endfacet
facet normal -9.43986513789394e-014 1.09599421633617e-014 1.0
   outer loop
      vertex 384.601048691528 -801.156029554198 -222.414720773645
      vertex 385.343964755343 -802.752478677008 -222.414720773645
      vertex 385.944414183439 -801.712469760171 -222.414720773645
   endloop
endfacet
facet normal -9.43986513789394e-014 1.09599421633617e-014 1.0
   outer loop
      vertex 385.944414183439 -801.712469760171 -222.414720773645
      vertex 385.343964755343 -802.752478677008 -222.414720773645
      vertex 386.248824558723 -803.446802024479 -222.414720773645
   endloop
endfacet
facet normal -9.43986513789394e-014 1.09599421633617e-014 1.0
   outer loop
      vertex 385.944414183439 -801.712469760171 -222.414720773645
      vertex 386.248824558723 -803.446802024479 -222.414720773645
      vertex 387.097988283455 -802.597638299747 -222.414720773645
   endloop
endfacet
facet normal -9.43986513789394e-014 1.09599421633617e-014 1.0
   outer loop
      vertex 387.097988283455 -802.597638299747 -222.414720773645
      vertex 386.248824558723 -803.446802024479 -222.414720773645
      vertex 386.943147906193 -804.351661827858 -222.414720773645
   endloop
endfacet
facet normal -9.43986513789394e-014 1.09599421633617e-014 1.0
   outer loop
      vertex 387.097988283455 -802.597638299747 -222.414720773645
      vertex 386.943147906193 -804.351661827858 -222.414720773645
      vertex 387.379617809048 -805.405393386898 -222.414720773645
   endloop
endfacet
facet normal -9.43986513789394e-014 1.09599421633617e-014 1.0
   outer loop
      vertex 387.097988283455 -802.597638299747 -222.414720773645
      vertex 387.379617809048 -805.405393386898 -222.414720773645
      vertex 387.98315682303 -803.751212399763 -222.414720773645
   endloop
endfacet
facet normal -9.43986513789394e-014 1.09599421633617e-014 1.0
   outer loop
      vertex 387.98315682303 -803.751212399763 -222.414720773645
      vertex 387.379617809048 -805.405393386898 -222.414720773645
      vertex 387.528489564708 -806.536186637223 -222.414720773645
   endloop
endfacet
facet normal -9.43986513789394e-014 1.09599421633617e-014 1.0
   outer loop
      vertex 387.98315682303 -803.751212399763 -222.414720773645
      vertex 387.528489564708 -806.536186637223 -222.414720773645
      vertex 387.98315682303 -809.321160874684 -222.414720773644
   endloop
endfacet
facet normal -9.43986513789394e-014 1.09599421633617e-014 1.0
   outer loop
      vertex 387.98315682303 -803.751212399763 -222.414720773645
      vertex 387.98315682303 -809.321160874684 -222.414720773644
      vertex 388.539597029004 -807.977795382773 -222.414720773644
   endloop
endfacet
facet normal -9.43986513789394e-014 1.09599421633617e-014 1.0
   outer loop
      vertex 387.98315682303 -803.751212399763 -222.414720773645
      vertex 388.539597029004 -807.977795382773 -222.414720773644
      vertex 388.539597029004 -805.094577891674 -222.414720773645
   endloop
endfacet
facet normal -9.43986513789394e-014 1.09599421633617e-014 1.0
   outer loop
      vertex 388.539597029004 -805.094577891674 -222.414720773645
      vertex 388.539597029004 -807.977795382773 -222.414720773644
      vertex 388.729388420899 -806.536186637224 -222.414720773645
   endloop
endfacet
endsolid Z_Carriages_6_11_13
