solid Z_Carriages_6_11_13
facet normal 9.43986513789393e-014 -1.09599421633615e-014 -1.0
   outer loop
      vertex 344.34118988288 -803.009618249142 -224.002220773645
      vertex 345.019383116482 -807.268824857581 -224.002220773645
      vertex 344.945063929705 -807.833335126194 -224.002220773645
   endloop
endfacet
facet normal 9.43986513789393e-014 -1.09599421633615e-014 -1.0
   outer loop
      vertex 345.019383116482 -807.268824857581 -224.002220773645
      vertex 344.34118988288 -803.009618249142 -224.002220773645
      vertex 345.684555374791 -802.453178043168 -224.002220773645
   endloop
endfacet
facet normal 9.43986513789393e-014 -1.09599421633615e-014 -1.0
   outer loop
      vertex 345.019383116482 -807.268824857581 -224.002220773645
      vertex 345.684555374791 -802.453178043168 -224.002220773645
      vertex 345.237275947052 -806.742785030876 -224.002220773645
   endloop
endfacet
facet normal 9.43986513789393e-014 -1.09599421633615e-014 -1.0
   outer loop
      vertex 345.237275947052 -806.742785030876 -224.002220773645
      vertex 345.684555374791 -802.453178043168 -224.002220773645
      vertex 345.583893385095 -806.291064390949 -224.002220773645
   endloop
endfacet
facet normal 9.43986513789393e-014 -1.09599421633615e-014 -1.0
   outer loop
      vertex 345.583893385095 -806.291064390949 -224.002220773645
      vertex 345.684555374791 -802.453178043168 -224.002220773645
      vertex 346.035614025023 -805.944446952905 -224.002220773645
   endloop
endfacet
facet normal 9.43986513789393e-014 -1.09599421633615e-014 -1.0
   outer loop
      vertex 346.035614025023 -805.944446952905 -224.002220773645
      vertex 345.684555374791 -802.453178043168 -224.002220773645
      vertex 347.12616412034 -802.263386651273 -224.002220773645
   endloop
endfacet
facet normal 9.43986513789393e-014 -1.09599421633615e-014 -1.0
   outer loop
      vertex 346.035614025023 -805.944446952905 -224.002220773645
      vertex 347.12616412034 -802.263386651273 -224.002220773645
      vertex 346.561653851727 -805.726554122336 -224.002220773645
   endloop
endfacet
facet normal 9.43986513789393e-014 -1.09599421633615e-014 -1.0
   outer loop
      vertex 346.561653851727 -805.726554122336 -224.002220773645
      vertex 347.12616412034 -802.263386651273 -224.002220773645
      vertex 347.12616412034 -805.652234935559 -224.002220773645
   endloop
endfacet
facet normal 9.43986513789393e-014 -1.09599421633615e-014 -1.0
   outer loop
      vertex 347.12616412034 -805.652234935559 -224.002220773645
      vertex 347.12616412034 -802.263386651273 -224.002220773645
      vertex 348.56777286589 -802.453178043169 -224.002220773645
   endloop
endfacet
facet normal 9.43986513789393e-014 -1.09599421633615e-014 -1.0
   outer loop
      vertex 347.12616412034 -805.652234935559 -224.002220773645
      vertex 348.56777286589 -802.453178043169 -224.002220773645
      vertex 347.690674388954 -805.726554122336 -224.002220773645
   endloop
endfacet
facet normal 9.43986513789393e-014 -1.09599421633615e-014 -1.0
   outer loop
      vertex 347.690674388954 -805.726554122336 -224.002220773645
      vertex 348.56777286589 -802.453178043169 -224.002220773645
      vertex 348.216714215658 -805.944446952906 -224.002220773645
   endloop
endfacet
facet normal 9.43986513789393e-014 -1.09599421633615e-014 -1.0
   outer loop
      vertex 348.216714215658 -805.944446952906 -224.002220773645
      vertex 348.56777286589 -802.453178043169 -224.002220773645
      vertex 348.668434855586 -806.291064390949 -224.002220773645
   endloop
endfacet
facet normal 9.43986513789393e-014 -1.09599421633615e-014 -1.0
   outer loop
      vertex 348.668434855586 -806.291064390949 -224.002220773645
      vertex 348.56777286589 -802.453178043169 -224.002220773645
      vertex 349.911138357801 -803.009618249142 -224.002220773645
   endloop
endfacet
facet normal 9.43986513789393e-014 -1.09599421633615e-014 -1.0
   outer loop
      vertex 348.668434855586 -806.291064390949 -224.002220773645
      vertex 349.911138357801 -803.009618249142 -224.002220773645
      vertex 349.015052293629 -806.742785030877 -224.002220773645
   endloop
endfacet
facet normal 9.43986513789393e-014 -1.09599421633615e-014 -1.0
   outer loop
      vertex 349.015052293629 -806.742785030877 -224.002220773645
      vertex 349.911138357801 -803.009618249142 -224.002220773645
      vertex 349.232945124199 -807.268824857581 -224.002220773645
   endloop
endfacet
facet normal 9.43986513789393e-014 -1.09599421633615e-014 -1.0
   outer loop
      vertex 349.232945124199 -807.268824857581 -224.002220773645
      vertex 349.911138357801 -803.009618249142 -224.002220773645
      vertex 349.307264310975 -807.833335126194 -224.002220773645
   endloop
endfacet
facet normal 9.43986513789393e-014 -1.09599421633615e-014 -1.0
   outer loop
      vertex 349.307264310975 -807.833335126194 -224.002220773645
      vertex 349.911138357801 -803.009618249142 -224.002220773645
      vertex 349.9111383578 -812.657052003246 -224.002220773645
   endloop
endfacet
facet normal 9.43986513789393e-014 -1.09599421633615e-014 -1.0
   outer loop
      vertex 349.9111383578 -812.657052003246 -224.002220773645
      vertex 349.911138357801 -803.009618249142 -224.002220773645
      vertex 351.064712457816 -811.771883463671 -224.002220773645
   endloop
endfacet
facet normal 9.43986513789393e-014 -1.09599421633615e-014 -1.0
   outer loop
      vertex 351.064712457816 -811.771883463671 -224.002220773645
      vertex 349.911138357801 -803.009618249142 -224.002220773645
      vertex 351.064712457817 -803.894786788718 -224.002220773645
   endloop
endfacet
facet normal 9.43986513789393e-014 -1.09599421633615e-014 -1.0
   outer loop
      vertex 351.064712457816 -811.771883463671 -224.002220773645
      vertex 351.064712457817 -803.894786788718 -224.002220773645
      vertex 351.949880997392 -810.618309363655 -224.002220773644
   endloop
endfacet
facet normal 9.43986513789393e-014 -1.09599421633615e-014 -1.0
   outer loop
      vertex 351.949880997392 -810.618309363655 -224.002220773644
      vertex 351.064712457817 -803.894786788718 -224.002220773645
      vertex 351.949880997392 -805.048360888734 -224.002220773645
   endloop
endfacet
facet normal 9.43986513789393e-014 -1.09599421633615e-014 -1.0
   outer loop
      vertex 351.949880997392 -810.618309363655 -224.002220773644
      vertex 351.949880997392 -805.048360888734 -224.002220773645
      vertex 352.506321203366 -809.274943871744 -224.002220773644
   endloop
endfacet
facet normal 9.43986513789393e-014 -1.09599421633615e-014 -1.0
   outer loop
      vertex 352.506321203366 -809.274943871744 -224.002220773644
      vertex 351.949880997392 -805.048360888734 -224.002220773645
      vertex 352.506321203366 -806.391726380645 -224.002220773645
   endloop
endfacet
facet normal 9.43986513789393e-014 -1.09599421633615e-014 -1.0
   outer loop
      vertex 352.506321203366 -809.274943871744 -224.002220773644
      vertex 352.506321203366 -806.391726380645 -224.002220773645
      vertex 352.696112595261 -807.833335126195 -224.002220773645
   endloop
endfacet
facet normal 9.43986513789393e-014 -1.09599421633615e-014 -1.0
   outer loop
      vertex 341.746007037315 -806.391726380645 -224.002220773646
      vertex 341.746007037315 -809.274943871743 -224.002220773646
      vertex 341.556215645419 -807.833335126194 -224.002220773646
   endloop
endfacet
facet normal 9.43986513789393e-014 -1.09599421633615e-014 -1.0
   outer loop
      vertex 341.746007037315 -809.274943871743 -224.002220773646
      vertex 341.746007037315 -806.391726380645 -224.002220773646
      vertex 342.302447243288 -810.618309363654 -224.002220773645
   endloop
endfacet
facet normal 9.43986513789393e-014 -1.09599421633615e-014 -1.0
   outer loop
      vertex 342.302447243288 -810.618309363654 -224.002220773645
      vertex 341.746007037315 -806.391726380645 -224.002220773646
      vertex 342.302447243289 -805.048360888733 -224.002220773646
   endloop
endfacet
facet normal 9.43986513789393e-014 -1.09599421633615e-014 -1.0
   outer loop
      vertex 342.302447243288 -810.618309363654 -224.002220773645
      vertex 342.302447243289 -805.048360888733 -224.002220773646
      vertex 343.187615782864 -811.77188346367 -224.002220773645
   endloop
endfacet
facet normal 9.43986513789393e-014 -1.09599421633615e-014 -1.0
   outer loop
      vertex 343.187615782864 -811.77188346367 -224.002220773645
      vertex 342.302447243289 -805.048360888733 -224.002220773646
      vertex 343.187615782864 -803.894786788718 -224.002220773645
   endloop
endfacet
facet normal 9.43986513789393e-014 -1.09599421633615e-014 -1.0
   outer loop
      vertex 343.187615782864 -811.77188346367 -224.002220773645
      vertex 343.187615782864 -803.894786788718 -224.002220773645
      vertex 344.341189882879 -812.657052003246 -224.002220773645
   endloop
endfacet
facet normal 9.43986513789393e-014 -1.09599421633615e-014 -1.0
   outer loop
      vertex 344.341189882879 -812.657052003246 -224.002220773645
      vertex 343.187615782864 -803.894786788718 -224.002220773645
      vertex 344.34118988288 -803.009618249142 -224.002220773645
   endloop
endfacet
facet normal 9.43986513789393e-014 -1.09599421633615e-014 -1.0
   outer loop
      vertex 344.341189882879 -812.657052003246 -224.002220773645
      vertex 344.34118988288 -803.009618249142 -224.002220773645
      vertex 344.945063929705 -807.833335126194 -224.002220773645
   endloop
endfacet
facet normal 9.43986513789393e-014 -1.09599421633615e-014 -1.0
   outer loop
      vertex 344.341189882879 -812.657052003246 -224.002220773645
      vertex 344.945063929705 -807.833335126194 -224.002220773645
      vertex 345.019383116482 -808.397845394807 -224.002220773645
   endloop
endfacet
facet normal 9.43986513789393e-014 -1.09599421633615e-014 -1.0
   outer loop
      vertex 344.341189882879 -812.657052003246 -224.002220773645
      vertex 345.019383116482 -808.397845394807 -224.002220773645
      vertex 345.684555374791 -813.21349220922 -224.002220773645
   endloop
endfacet
facet normal 9.43986513789393e-014 -1.09599421633615e-014 -1.0
   outer loop
      vertex 345.684555374791 -813.21349220922 -224.002220773645
      vertex 345.019383116482 -808.397845394807 -224.002220773645
      vertex 345.237275947051 -808.923885221511 -224.002220773645
   endloop
endfacet
facet normal 9.43986513789393e-014 -1.09599421633615e-014 -1.0
   outer loop
      vertex 345.684555374791 -813.21349220922 -224.002220773645
      vertex 345.237275947051 -808.923885221511 -224.002220773645
      vertex 345.583893385095 -809.375605861439 -224.002220773645
   endloop
endfacet
facet normal 9.43986513789393e-014 -1.09599421633615e-014 -1.0
   outer loop
      vertex 345.684555374791 -813.21349220922 -224.002220773645
      vertex 345.583893385095 -809.375605861439 -224.002220773645
      vertex 346.035614025023 -809.722223299483 -224.002220773645
   endloop
endfacet
facet normal 9.43986513789393e-014 -1.09599421633615e-014 -1.0
   outer loop
      vertex 345.684555374791 -813.21349220922 -224.002220773645
      vertex 346.035614025023 -809.722223299483 -224.002220773645
      vertex 347.12616412034 -813.403283601115 -224.002220773645
   endloop
endfacet
facet normal 9.43986513789393e-014 -1.09599421633615e-014 -1.0
   outer loop
      vertex 347.12616412034 -813.403283601115 -224.002220773645
      vertex 346.035614025023 -809.722223299483 -224.002220773645
      vertex 346.561653851727 -809.940116130052 -224.002220773645
   endloop
endfacet
facet normal 9.43986513789393e-014 -1.09599421633615e-014 -1.0
   outer loop
      vertex 347.12616412034 -813.403283601115 -224.002220773645
      vertex 346.561653851727 -809.940116130052 -224.002220773645
      vertex 347.12616412034 -810.014435316829 -224.002220773645
   endloop
endfacet
facet normal 9.43986513789393e-014 -1.09599421633615e-014 -1.0
   outer loop
      vertex 347.12616412034 -813.403283601115 -224.002220773645
      vertex 347.12616412034 -810.014435316829 -224.002220773645
      vertex 348.567772865889 -813.21349220922 -224.002220773645
   endloop
endfacet
facet normal 9.43986513789393e-014 -1.09599421633615e-014 -1.0
   outer loop
      vertex 348.567772865889 -813.21349220922 -224.002220773645
      vertex 347.12616412034 -810.014435316829 -224.002220773645
      vertex 347.690674388953 -809.940116130052 -224.002220773645
   endloop
endfacet
facet normal 9.43986513789393e-014 -1.09599421633615e-014 -1.0
   outer loop
      vertex 348.567772865889 -813.21349220922 -224.002220773645
      vertex 347.690674388953 -809.940116130052 -224.002220773645
      vertex 348.216714215658 -809.722223299483 -224.002220773645
   endloop
endfacet
facet normal 9.43986513789393e-014 -1.09599421633615e-014 -1.0
   outer loop
      vertex 348.567772865889 -813.21349220922 -224.002220773645
      vertex 348.216714215658 -809.722223299483 -224.002220773645
      vertex 348.668434855585 -809.375605861439 -224.002220773645
   endloop
endfacet
facet normal 9.43986513789393e-014 -1.09599421633615e-014 -1.0
   outer loop
      vertex 348.567772865889 -813.21349220922 -224.002220773645
      vertex 348.668434855585 -809.375605861439 -224.002220773645
      vertex 349.9111383578 -812.657052003246 -224.002220773645
   endloop
endfacet
facet normal 9.43986513789393e-014 -1.09599421633615e-014 -1.0
   outer loop
      vertex 349.9111383578 -812.657052003246 -224.002220773645
      vertex 348.668434855585 -809.375605861439 -224.002220773645
      vertex 349.015052293629 -808.923885221512 -224.002220773645
   endloop
endfacet
facet normal 9.43986513789393e-014 -1.09599421633615e-014 -1.0
   outer loop
      vertex 349.9111383578 -812.657052003246 -224.002220773645
      vertex 349.015052293629 -808.923885221512 -224.002220773645
      vertex 349.232945124198 -808.397845394807 -224.002220773645
   endloop
endfacet
facet normal 9.43986513789393e-014 -1.09599421633615e-014 -1.0
   outer loop
      vertex 349.9111383578 -812.657052003246 -224.002220773645
      vertex 349.232945124198 -808.397845394807 -224.002220773645
      vertex 349.307264310975 -807.833335126194 -224.002220773645
   endloop
endfacet
facet normal -1.05072593863977e-013 1.18264622392146e-014 1.0
   outer loop
      vertex 343.292645997255 -808.860523211444 -214.477220773645
      vertex 343.292645997255 -806.806147040943 -214.477220773645
      vertex 343.157414120339 -807.833335126194 -214.477220773645
   endloop
endfacet
facet normal -1.05072593863977e-013 1.18264622392146e-014 1.0
   outer loop
      vertex 343.292645997255 -806.806147040943 -214.477220773645
      vertex 343.292645997255 -808.860523211444 -214.477220773645
      vertex 343.68912579907 -809.817710126194 -214.477220773645
   endloop
endfacet
facet normal -1.05072593863977e-013 1.18264622392146e-014 1.0
   outer loop
      vertex 343.292645997255 -806.806147040943 -214.477220773645
      vertex 343.68912579907 -809.817710126194 -214.477220773645
      vertex 343.68912579907 -805.848960126193 -214.477220773645
   endloop
endfacet
facet normal -1.05072593863977e-013 1.18264622392146e-014 1.0
   outer loop
      vertex 343.68912579907 -805.848960126193 -214.477220773645
      vertex 343.68912579907 -809.817710126194 -214.477220773645
      vertex 344.319834082505 -810.639665164028 -214.477220773645
   endloop
endfacet
facet normal -1.05072593863977e-013 1.18264622392146e-014 1.0
   outer loop
      vertex 343.68912579907 -805.848960126193 -214.477220773645
      vertex 344.319834082505 -810.639665164028 -214.477220773645
      vertex 344.319834082505 -805.02700508836 -214.477220773645
   endloop
endfacet
facet normal -1.05072593863977e-013 1.18264622392146e-014 1.0
   outer loop
      vertex 344.319834082505 -805.02700508836 -214.477220773645
      vertex 344.319834082505 -810.639665164028 -214.477220773645
      vertex 345.141789120339 -811.270373447464 -214.477220773645
   endloop
endfacet
facet normal -1.05072593863977e-013 1.18264622392146e-014 1.0
   outer loop
      vertex 344.319834082505 -805.02700508836 -214.477220773645
      vertex 345.141789120339 -811.270373447464 -214.477220773645
      vertex 344.945063929704 -807.833335126194 -214.477220773645
   endloop
endfacet
facet normal -1.05072593863977e-013 1.18264622392146e-014 1.0
   outer loop
      vertex 344.945063929704 -807.833335126194 -214.477220773645
      vertex 345.141789120339 -811.270373447464 -214.477220773645
      vertex 345.019383116481 -808.397845394807 -214.477220773645
   endloop
endfacet
facet normal -1.05072593863977e-013 1.18264622392146e-014 1.0
   outer loop
      vertex 345.019383116481 -808.397845394807 -214.477220773645
      vertex 345.141789120339 -811.270373447464 -214.477220773645
      vertex 345.23727594705 -808.923885221511 -214.477220773645
   endloop
endfacet
facet normal -1.05072593863977e-013 1.18264622392146e-014 1.0
   outer loop
      vertex 345.23727594705 -808.923885221511 -214.477220773645
      vertex 345.141789120339 -811.270373447464 -214.477220773645
      vertex 346.098976035088 -811.666853249279 -214.477220773645
   endloop
endfacet
facet normal -1.05072593863977e-013 1.18264622392146e-014 1.0
   outer loop
      vertex 345.23727594705 -808.923885221511 -214.477220773645
      vertex 346.098976035088 -811.666853249279 -214.477220773645
      vertex 345.583893385094 -809.375605861439 -214.477220773645
   endloop
endfacet
facet normal -1.05072593863977e-013 1.18264622392146e-014 1.0
   outer loop
      vertex 345.583893385094 -809.375605861439 -214.477220773645
      vertex 346.098976035088 -811.666853249279 -214.477220773645
      vertex 346.035614025022 -809.722223299483 -214.477220773645
   endloop
endfacet
facet normal -1.05072593863977e-013 1.18264622392146e-014 1.0
   outer loop
      vertex 346.035614025022 -809.722223299483 -214.477220773645
      vertex 346.098976035088 -811.666853249279 -214.477220773645
      vertex 346.561653851726 -809.940116130052 -214.477220773645
   endloop
endfacet
facet normal -1.05072593863977e-013 1.18264622392146e-014 1.0
   outer loop
      vertex 346.561653851726 -809.940116130052 -214.477220773645
      vertex 346.098976035088 -811.666853249279 -214.477220773645
      vertex 347.126164120339 -811.802085126194 -214.477220773645
   endloop
endfacet
facet normal -1.05072593863977e-013 1.18264622392146e-014 1.0
   outer loop
      vertex 346.561653851726 -809.940116130052 -214.477220773645
      vertex 347.126164120339 -811.802085126194 -214.477220773645
      vertex 347.126164120339 -810.014435316829 -214.477220773645
   endloop
endfacet
facet normal -1.05072593863977e-013 1.18264622392146e-014 1.0
   outer loop
      vertex 347.126164120339 -810.014435316829 -214.477220773645
      vertex 347.126164120339 -811.802085126194 -214.477220773645
      vertex 348.15335220559 -811.666853249279 -214.477220773645
   endloop
endfacet
facet normal -1.05072593863977e-013 1.18264622392146e-014 1.0
   outer loop
      vertex 347.126164120339 -810.014435316829 -214.477220773645
      vertex 348.15335220559 -811.666853249279 -214.477220773645
      vertex 347.690674388952 -809.940116130052 -214.477220773645
   endloop
endfacet
facet normal -1.05072593863977e-013 1.18264622392146e-014 1.0
   outer loop
      vertex 347.690674388952 -809.940116130052 -214.477220773645
      vertex 348.15335220559 -811.666853249279 -214.477220773645
      vertex 348.216714215657 -809.722223299483 -214.477220773645
   endloop
endfacet
facet normal -1.05072593863977e-013 1.18264622392146e-014 1.0
   outer loop
      vertex 348.216714215657 -809.722223299483 -214.477220773645
      vertex 348.15335220559 -811.666853249279 -214.477220773645
      vertex 349.110539120339 -811.270373447464 -214.477220773645
   endloop
endfacet
facet normal -1.05072593863977e-013 1.18264622392146e-014 1.0
   outer loop
      vertex 348.216714215657 -809.722223299483 -214.477220773645
      vertex 349.110539120339 -811.270373447464 -214.477220773645
      vertex 348.668434855584 -809.375605861439 -214.477220773645
   endloop
endfacet
facet normal -1.05072593863977e-013 1.18264622392146e-014 1.0
   outer loop
      vertex 348.668434855584 -809.375605861439 -214.477220773645
      vertex 349.110539120339 -811.270373447464 -214.477220773645
      vertex 349.015052293628 -808.923885221512 -214.477220773645
   endloop
endfacet
facet normal -1.05072593863977e-013 1.18264622392146e-014 1.0
   outer loop
      vertex 349.015052293628 -808.923885221512 -214.477220773645
      vertex 349.110539120339 -811.270373447464 -214.477220773645
      vertex 349.232945124198 -808.397845394807 -214.477220773645
   endloop
endfacet
facet normal -1.05072593863977e-013 1.18264622392146e-014 1.0
   outer loop
      vertex 349.232945124198 -808.397845394807 -214.477220773645
      vertex 349.110539120339 -811.270373447464 -214.477220773645
      vertex 349.932494158173 -810.639665164028 -214.477220773645
   endloop
endfacet
facet normal -1.05072593863977e-013 1.18264622392146e-014 1.0
   outer loop
      vertex 349.232945124198 -808.397845394807 -214.477220773645
      vertex 349.932494158173 -810.639665164028 -214.477220773645
      vertex 349.307264310974 -807.833335126194 -214.477220773645
   endloop
endfacet
facet normal -1.05072593863977e-013 1.18264622392146e-014 1.0
   outer loop
      vertex 344.945063929704 -807.833335126194 -214.477220773645
      vertex 345.141789120339 -804.396296804925 -214.477220773645
      vertex 344.319834082505 -805.02700508836 -214.477220773645
   endloop
endfacet
facet normal -1.05072593863977e-013 1.18264622392146e-014 1.0
   outer loop
      vertex 345.141789120339 -804.396296804925 -214.477220773645
      vertex 344.945063929704 -807.833335126194 -214.477220773645
      vertex 345.019383116481 -807.268824857581 -214.477220773645
   endloop
endfacet
facet normal -1.05072593863977e-013 1.18264622392146e-014 1.0
   outer loop
      vertex 345.141789120339 -804.396296804925 -214.477220773645
      vertex 345.019383116481 -807.268824857581 -214.477220773645
      vertex 345.237275947051 -806.742785030876 -214.477220773645
   endloop
endfacet
facet normal -1.05072593863977e-013 1.18264622392146e-014 1.0
   outer loop
      vertex 345.141789120339 -804.396296804925 -214.477220773645
      vertex 345.237275947051 -806.742785030876 -214.477220773645
      vertex 346.098976035089 -803.999817003109 -214.477220773645
   endloop
endfacet
facet normal -1.05072593863977e-013 1.18264622392146e-014 1.0
   outer loop
      vertex 346.098976035089 -803.999817003109 -214.477220773645
      vertex 345.237275947051 -806.742785030876 -214.477220773645
      vertex 345.583893385094 -806.291064390949 -214.477220773645
   endloop
endfacet
facet normal -1.05072593863977e-013 1.18264622392146e-014 1.0
   outer loop
      vertex 346.098976035089 -803.999817003109 -214.477220773645
      vertex 345.583893385094 -806.291064390949 -214.477220773645
      vertex 346.035614025022 -805.944446952905 -214.477220773645
   endloop
endfacet
facet normal -1.05072593863977e-013 1.18264622392146e-014 1.0
   outer loop
      vertex 346.098976035089 -803.999817003109 -214.477220773645
      vertex 346.035614025022 -805.944446952905 -214.477220773645
      vertex 346.561653851726 -805.726554122336 -214.477220773645
   endloop
endfacet
facet normal -1.05072593863977e-013 1.18264622392146e-014 1.0
   outer loop
      vertex 346.098976035089 -803.999817003109 -214.477220773645
      vertex 346.561653851726 -805.726554122336 -214.477220773645
      vertex 347.12616412034 -803.864585126194 -214.477220773645
   endloop
endfacet
facet normal -1.05072593863977e-013 1.18264622392146e-014 1.0
   outer loop
      vertex 347.12616412034 -803.864585126194 -214.477220773645
      vertex 346.561653851726 -805.726554122336 -214.477220773645
      vertex 347.12616412034 -805.652234935559 -214.477220773645
   endloop
endfacet
facet normal -1.05072593863977e-013 1.18264622392146e-014 1.0
   outer loop
      vertex 347.12616412034 -803.864585126194 -214.477220773645
      vertex 347.12616412034 -805.652234935559 -214.477220773645
      vertex 347.690674388953 -805.726554122336 -214.477220773645
   endloop
endfacet
facet normal -1.05072593863977e-013 1.18264622392146e-014 1.0
   outer loop
      vertex 347.12616412034 -803.864585126194 -214.477220773645
      vertex 347.690674388953 -805.726554122336 -214.477220773645
      vertex 348.15335220559 -803.999817003109 -214.477220773645
   endloop
endfacet
facet normal -1.05072593863977e-013 1.18264622392146e-014 1.0
   outer loop
      vertex 348.15335220559 -803.999817003109 -214.477220773645
      vertex 347.690674388953 -805.726554122336 -214.477220773645
      vertex 348.216714215657 -805.944446952905 -214.477220773645
   endloop
endfacet
facet normal -1.05072593863977e-013 1.18264622392146e-014 1.0
   outer loop
      vertex 348.15335220559 -803.999817003109 -214.477220773645
      vertex 348.216714215657 -805.944446952905 -214.477220773645
      vertex 349.11053912034 -804.396296804925 -214.477220773645
   endloop
endfacet
facet normal -1.05072593863977e-013 1.18264622392146e-014 1.0
   outer loop
      vertex 349.11053912034 -804.396296804925 -214.477220773645
      vertex 348.216714215657 -805.944446952905 -214.477220773645
      vertex 348.668434855585 -806.291064390949 -214.477220773645
   endloop
endfacet
facet normal -1.05072593863977e-013 1.18264622392146e-014 1.0
   outer loop
      vertex 349.11053912034 -804.396296804925 -214.477220773645
      vertex 348.668434855585 -806.291064390949 -214.477220773645
      vertex 349.015052293628 -806.742785030877 -214.477220773645
   endloop
endfacet
facet normal -1.05072593863977e-013 1.18264622392146e-014 1.0
   outer loop
      vertex 349.11053912034 -804.396296804925 -214.477220773645
      vertex 349.015052293628 -806.742785030877 -214.477220773645
      vertex 349.232945124198 -807.268824857581 -214.477220773645
   endloop
endfacet
facet normal -1.05072593863977e-013 1.18264622392146e-014 1.0
   outer loop
      vertex 349.11053912034 -804.396296804925 -214.477220773645
      vertex 349.232945124198 -807.268824857581 -214.477220773645
      vertex 349.932494158174 -805.02700508836 -214.477220773645
   endloop
endfacet
facet normal -1.05072593863977e-013 1.18264622392146e-014 1.0
   outer loop
      vertex 349.932494158174 -805.02700508836 -214.477220773645
      vertex 349.232945124198 -807.268824857581 -214.477220773645
      vertex 349.307264310974 -807.833335126194 -214.477220773645
   endloop
endfacet
facet normal -1.05072593863977e-013 1.18264622392146e-014 1.0
   outer loop
      vertex 349.932494158174 -805.02700508836 -214.477220773645
      vertex 349.307264310974 -807.833335126194 -214.477220773645
      vertex 349.932494158173 -810.639665164028 -214.477220773645
   endloop
endfacet
facet normal -1.05072593863977e-013 1.18264622392146e-014 1.0
   outer loop
      vertex 349.932494158174 -805.02700508836 -214.477220773645
      vertex 349.932494158173 -810.639665164028 -214.477220773645
      vertex 350.563202441609 -809.817710126195 -214.477220773645
   endloop
endfacet
facet normal -1.05072593863977e-013 1.18264622392146e-014 1.0
   outer loop
      vertex 349.932494158174 -805.02700508836 -214.477220773645
      vertex 350.563202441609 -809.817710126195 -214.477220773645
      vertex 350.563202441609 -805.848960126194 -214.477220773645
   endloop
endfacet
facet normal -1.05072593863977e-013 1.18264622392146e-014 1.0
   outer loop
      vertex 350.563202441609 -805.848960126194 -214.477220773645
      vertex 350.563202441609 -809.817710126195 -214.477220773645
      vertex 350.959682243424 -808.860523211445 -214.477220773645
   endloop
endfacet
facet normal -1.05072593863977e-013 1.18264622392146e-014 1.0
   outer loop
      vertex 350.563202441609 -805.848960126194 -214.477220773645
      vertex 350.959682243424 -808.860523211445 -214.477220773645
      vertex 350.959682243424 -806.806147040944 -214.477220773645
   endloop
endfacet
facet normal -1.05072593863977e-013 1.18264622392146e-014 1.0
   outer loop
      vertex 350.959682243424 -806.806147040944 -214.477220773645
      vertex 350.959682243424 -808.860523211445 -214.477220773645
      vertex 351.094914120339 -807.833335126194 -214.477220773645
   endloop
endfacet
facet normal 0.707106781186459 -0.707106781186636 7.86915847197508e-014
   outer loop
      vertex 349.932494158174 -810.639665164028 -222.414720773645
      vertex 349.110539120339 -811.270373447464 -214.477220773645
      vertex 349.11053912034 -811.270373447464 -222.414720773645
   endloop
endfacet
facet normal 0.707106781186459 -0.707106781186636 7.86915847197508e-014
   outer loop
      vertex 349.110539120339 -811.270373447464 -214.477220773645
      vertex 349.932494158174 -810.639665164028 -222.414720773645
      vertex 349.932494158173 -810.639665164028 -214.477220773645
   endloop
endfacet
facet normal 0.866025403784406 -0.500000000000056 9.22561551533607e-014
   outer loop
      vertex 350.563202441609 -809.817710126195 -222.414720773645
      vertex 349.932494158173 -810.639665164028 -214.477220773645
      vertex 349.932494158174 -810.639665164028 -222.414720773645
   endloop
endfacet
facet normal 0.866025403784406 -0.500000000000056 9.22561551533607e-014
   outer loop
      vertex 349.932494158173 -810.639665164028 -214.477220773645
      vertex 350.563202441609 -809.817710126195 -222.414720773645
      vertex 350.563202441609 -809.817710126195 -214.477220773645
   endloop
endfacet
facet normal 0.965925826289057 -0.258819045102564 9.95336210737706e-014
   outer loop
      vertex 350.959682243425 -808.860523211445 -222.414720773645
      vertex 350.563202441609 -809.817710126195 -214.477220773645
      vertex 350.563202441609 -809.817710126195 -222.414720773645
   endloop
endfacet
facet normal 0.965925826289057 -0.258819045102564 9.95336210737706e-014
   outer loop
      vertex 350.563202441609 -809.817710126195 -214.477220773645
      vertex 350.959682243425 -808.860523211445 -222.414720773645
      vertex 350.959682243424 -808.860523211445 -214.477220773645
   endloop
endfacet
facet normal 1.0 -3.90484835627256e-014 1.00028035205088e-013
   outer loop
      vertex 351.09491412034 -807.833335126194 -222.414720773645
      vertex 350.959682243424 -808.860523211445 -214.477220773645
      vertex 350.959682243425 -808.860523211445 -222.414720773645
   endloop
endfacet
facet normal 1.0 -3.90484835627256e-014 1.00028035205088e-013
   outer loop
      vertex 350.959682243424 -808.860523211445 -214.477220773645
      vertex 351.09491412034 -807.833335126194 -222.414720773645
      vertex 351.094914120339 -807.833335126194 -214.477220773645
   endloop
endfacet
facet normal 0.965925826289085 0.258819045102459 9.37057040413239e-014
   outer loop
      vertex 350.959682243425 -806.806147040944 -222.414720773645
      vertex 351.094914120339 -807.833335126194 -214.477220773645
      vertex 351.09491412034 -807.833335126194 -222.414720773645
   endloop
endfacet
facet normal 0.965925826289085 0.258819045102459 9.37057040413239e-014
   outer loop
      vertex 351.094914120339 -807.833335126194 -214.477220773645
      vertex 350.959682243425 -806.806147040944 -222.414720773645
      vertex 350.959682243424 -806.806147040944 -214.477220773645
   endloop
endfacet
facet normal 0.86602540378446 0.499999999999963 8.09974840031395e-014
   outer loop
      vertex 350.56320244161 -805.848960126194 -222.414720773645
      vertex 350.959682243424 -806.806147040944 -214.477220773645
      vertex 350.959682243425 -806.806147040944 -222.414720773645
   endloop
endfacet
facet normal 0.86602540378446 0.499999999999963 8.09974840031395e-014
   outer loop
      vertex 350.959682243424 -806.806147040944 -214.477220773645
      vertex 350.56320244161 -805.848960126194 -222.414720773645
      vertex 350.563202441609 -805.848960126194 -214.477220773645
   endloop
endfacet
facet normal 0.258819045102504 -0.965925826289073 3.67642017889597e-014
   outer loop
      vertex 348.153352205591 -811.666853249279 -222.414720773645
      vertex 347.126164120339 -811.802085126194 -214.477220773645
      vertex 347.126164120339 -811.802085126194 -222.414720773645
   endloop
endfacet
facet normal 0.258819045102504 -0.965925826289073 3.67642017889597e-014
   outer loop
      vertex 347.126164120339 -811.802085126194 -214.477220773645
      vertex 348.153352205591 -811.666853249279 -222.414720773645
      vertex 348.15335220559 -811.666853249279 -214.477220773645
   endloop
endfacet
facet normal 0.707106781186604 0.707106781186491 6.27694192848161e-014
   outer loop
      vertex 349.932494158174 -805.02700508836 -222.414720773645
      vertex 350.563202441609 -805.848960126194 -214.477220773645
      vertex 350.56320244161 -805.848960126194 -222.414720773645
   endloop
endfacet
facet normal 0.707106781186604 0.707106781186491 6.27694192848161e-014
   outer loop
      vertex 350.563202441609 -805.848960126194 -214.477220773645
      vertex 349.932494158174 -805.02700508836 -222.414720773645
      vertex 349.932494158174 -805.02700508836 -214.477220773645
   endloop
endfacet
facet normal 0.965925826289055 -0.258819045102572 1.21284439825702e-013
   outer loop
      vertex 345.019383116482 -807.268824857581 -224.002220773645
      vertex 344.945063929704 -807.833335126194 -214.477220773645
      vertex 344.945063929705 -807.833335126194 -224.002220773645
   endloop
endfacet
facet normal 0.965925826289055 -0.258819045102572 1.21284439825702e-013
   outer loop
      vertex 344.945063929704 -807.833335126194 -214.477220773645
      vertex 345.019383116482 -807.268824857581 -224.002220773645
      vertex 345.019383116481 -807.268824857581 -214.477220773645
   endloop
endfacet
facet normal 0.866025403784385 -0.500000000000093 1.12678261983478e-013
   outer loop
      vertex 345.237275947052 -806.742785030876 -224.002220773645
      vertex 345.019383116481 -807.268824857581 -214.477220773645
      vertex 345.019383116482 -807.268824857581 -224.002220773645
   endloop
endfacet
facet normal 0.866025403784385 -0.500000000000093 1.12678261983478e-013
   outer loop
      vertex 345.019383116481 -807.268824857581 -214.477220773645
      vertex 345.237275947052 -806.742785030876 -224.002220773645
      vertex 345.237275947051 -806.742785030876 -214.477220773645
   endloop
endfacet
facet normal -8.38802774477253e-014 -1.0 1.46953534152752e-014
   outer loop
      vertex 347.12616412034 -805.652234935559 -224.002220773645
      vertex 346.561653851726 -805.726554122336 -214.477220773645
      vertex 346.561653851727 -805.726554122336 -224.002220773645
   endloop
endfacet
facet normal -8.38802774477253e-014 -1.0 1.46953534152752e-014
   outer loop
      vertex 346.561653851726 -805.726554122336 -214.477220773645
      vertex 347.12616412034 -805.652234935559 -224.002220773645
      vertex 347.12616412034 -805.652234935559 -214.477220773645
   endloop
endfacet
facet normal -0.965925826289056 0.258819045102565 -9.95336210737706e-014
   outer loop
      vertex 343.292645997255 -806.806147040943 -214.477220773645
      vertex 343.15741412034 -807.833335126194 -222.414720773646
      vertex 343.157414120339 -807.833335126194 -214.477220773645
   endloop
endfacet
facet normal -0.965925826289056 0.258819045102565 -9.95336210737706e-014
   outer loop
      vertex 343.15741412034 -807.833335126194 -222.414720773646
      vertex 343.292645997255 -806.806147040943 -214.477220773645
      vertex 343.292645997255 -806.806147040943 -222.414720773646
   endloop
endfacet
facet normal -0.50000000000009 -0.866025403784387 -4.02637223736025e-014
   outer loop
      vertex 345.14178912034 -811.270373447464 -222.414720773645
      vertex 344.319834082505 -810.639665164028 -214.477220773645
      vertex 344.319834082506 -810.639665164028 -222.414720773645
   endloop
endfacet
facet normal -0.50000000000009 -0.866025403784387 -4.02637223736025e-014
   outer loop
      vertex 344.319834082505 -810.639665164028 -214.477220773645
      vertex 345.14178912034 -811.270373447464 -222.414720773645
      vertex 345.141789120339 -811.270373447464 -214.477220773645
   endloop
endfacet
facet normal 0.499999999999913 -0.866025403784489 5.97643128314867e-014
   outer loop
      vertex 349.11053912034 -811.270373447464 -222.414720773645
      vertex 348.15335220559 -811.666853249279 -214.477220773645
      vertex 348.153352205591 -811.666853249279 -222.414720773645
   endloop
endfacet
facet normal 0.499999999999913 -0.866025403784489 5.97643128314867e-014
   outer loop
      vertex 348.15335220559 -811.666853249279 -214.477220773645
      vertex 349.11053912034 -811.270373447464 -222.414720773645
      vertex 349.110539120339 -811.270373447464 -214.477220773645
   endloop
endfacet
facet normal -0.707106781186459 0.707106781186636 -7.86915847197508e-014
   outer loop
      vertex 344.319834082505 -805.02700508836 -214.477220773645
      vertex 343.689125799071 -805.848960126193 -222.414720773646
      vertex 343.68912579907 -805.848960126193 -214.477220773645
   endloop
endfacet
facet normal -0.707106781186459 0.707106781186636 -7.86915847197508e-014
   outer loop
      vertex 343.689125799071 -805.848960126193 -222.414720773646
      vertex 344.319834082505 -805.02700508836 -214.477220773645
      vertex 344.319834082506 -805.02700508836 -222.414720773646
   endloop
endfacet
facet normal -0.866025403784459 -0.499999999999964 -8.09974840031394e-014
   outer loop
      vertex 343.68912579907 -809.817710126194 -214.477220773645
      vertex 344.319834082506 -810.639665164028 -222.414720773645
      vertex 344.319834082505 -810.639665164028 -214.477220773645
   endloop
endfacet
facet normal -0.866025403784459 -0.499999999999964 -8.09974840031394e-014
   outer loop
      vertex 344.319834082506 -810.639665164028 -222.414720773645
      vertex 343.68912579907 -809.817710126194 -214.477220773645
      vertex 343.689125799071 -809.817710126194 -222.414720773646
   endloop
endfacet
facet normal 0.707106781186552 0.707106781186543 7.56108786929594e-014
   outer loop
      vertex 345.583893385094 -809.375605861439 -214.477220773645
      vertex 346.035614025023 -809.722223299483 -224.002220773645
      vertex 345.583893385095 -809.375605861439 -224.002220773645
   endloop
endfacet
facet normal 0.707106781186552 0.707106781186543 7.56108786929594e-014
   outer loop
      vertex 346.035614025023 -809.722223299483 -224.002220773645
      vertex 345.583893385094 -809.375605861439 -214.477220773645
      vertex 346.035614025022 -809.722223299483 -214.477220773645
   endloop
endfacet
facet normal 0.500000000000114 0.866025403784373 4.80860923876946e-014
   outer loop
      vertex 346.035614025022 -809.722223299483 -214.477220773645
      vertex 346.561653851727 -809.940116130052 -224.002220773645
      vertex 346.035614025023 -809.722223299483 -224.002220773645
   endloop
endfacet
facet normal 0.500000000000114 0.866025403784373 4.80860923876946e-014
   outer loop
      vertex 346.561653851727 -809.940116130052 -224.002220773645
      vertex 346.035614025022 -809.722223299483 -214.477220773645
      vertex 346.561653851726 -809.940116130052 -214.477220773645
   endloop
endfacet
facet normal 0.258819045102676 0.965925826289027 1.72843183522247e-014
   outer loop
      vertex 346.561653851726 -809.940116130052 -214.477220773645
      vertex 347.12616412034 -810.014435316829 -224.002220773645
      vertex 346.561653851727 -809.940116130052 -224.002220773645
   endloop
endfacet
facet normal 0.258819045102676 0.965925826289027 1.72843183522247e-014
   outer loop
      vertex 347.12616412034 -810.014435316829 -224.002220773645
      vertex 346.561653851726 -809.940116130052 -214.477220773645
      vertex 347.126164120339 -810.014435316829 -214.477220773645
   endloop
endfacet
facet normal 6.32065024898244e-014 1.0 -1.46953534152778e-014
   outer loop
      vertex 347.126164120339 -810.014435316829 -214.477220773645
      vertex 347.690674388953 -809.940116130052 -224.002220773645
      vertex 347.12616412034 -810.014435316829 -224.002220773645
   endloop
endfacet
facet normal 6.32065024898244e-014 1.0 -1.46953534152778e-014
   outer loop
      vertex 347.690674388953 -809.940116130052 -224.002220773645
      vertex 347.126164120339 -810.014435316829 -214.477220773645
      vertex 347.690674388952 -809.940116130052 -214.477220773645
   endloop
endfacet
facet normal -0.258819045102603 -0.965925826289046 -1.50141193215714e-014
   outer loop
      vertex 346.098976035089 -811.666853249279 -222.414720773645
      vertex 345.141789120339 -811.270373447464 -214.477220773645
      vertex 345.14178912034 -811.270373447464 -222.414720773645
   endloop
endfacet
facet normal -0.258819045102603 -0.965925826289046 -1.50141193215714e-014
   outer loop
      vertex 345.141789120339 -811.270373447464 -214.477220773645
      vertex 346.098976035089 -811.666853249279 -222.414720773645
      vertex 346.098976035088 -811.666853249279 -214.477220773645
   endloop
endfacet
facet normal -0.707106781186459 0.707106781186636 -7.86915847197508e-014
   outer loop
      vertex 344.319834082505 -805.02700508836 -214.477220773645
      vertex 345.14178912034 -804.396296804925 -222.414720773645
      vertex 344.319834082506 -805.02700508836 -222.414720773646
   endloop
endfacet
facet normal -0.707106781186459 0.707106781186636 -7.86915847197508e-014
   outer loop
      vertex 345.14178912034 -804.396296804925 -222.414720773645
      vertex 344.319834082505 -805.02700508836 -214.477220773645
      vertex 345.141789120339 -804.396296804925 -214.477220773645
   endloop
endfacet
facet normal -0.258819045102504 0.965925826289073 -3.67642017889597e-014
   outer loop
      vertex 346.098976035089 -803.999817003109 -214.477220773645
      vertex 347.126164120341 -803.864585126194 -222.414720773645
      vertex 346.098976035089 -803.999817003109 -222.414720773645
   endloop
endfacet
facet normal -0.258819045102504 0.965925826289073 -3.67642017889597e-014
   outer loop
      vertex 347.126164120341 -803.864585126194 -222.414720773645
      vertex 346.098976035089 -803.999817003109 -214.477220773645
      vertex 347.12616412034 -803.864585126194 -214.477220773645
   endloop
endfacet
facet normal -0.499999999999913 0.866025403784489 -5.97643128314867e-014
   outer loop
      vertex 345.141789120339 -804.396296804925 -214.477220773645
      vertex 346.098976035089 -803.999817003109 -222.414720773645
      vertex 345.14178912034 -804.396296804925 -222.414720773645
   endloop
endfacet
facet normal -0.499999999999913 0.866025403784489 -5.97643128314867e-014
   outer loop
      vertex 346.098976035089 -803.999817003109 -222.414720773645
      vertex 345.141789120339 -804.396296804925 -214.477220773645
      vertex 346.098976035089 -803.999817003109 -214.477220773645
   endloop
endfacet
facet normal 0.965925826289094 0.258819045102424 1.13677565148931e-013
   outer loop
      vertex 345.019383116482 -808.397845394807 -224.002220773645
      vertex 345.23727594705 -808.923885221511 -214.477220773645
      vertex 345.237275947051 -808.923885221511 -224.002220773645
   endloop
endfacet
facet normal 0.965925826289094 0.258819045102424 1.13677565148931e-013
   outer loop
      vertex 345.23727594705 -808.923885221511 -214.477220773645
      vertex 345.019383116482 -808.397845394807 -224.002220773645
      vertex 345.019383116481 -808.397845394807 -214.477220773645
   endloop
endfacet
facet normal 0.50000000000009 0.866025403784387 4.02637223736025e-014
   outer loop
      vertex 349.11053912034 -804.396296804925 -214.477220773645
      vertex 349.932494158174 -805.02700508836 -222.414720773645
      vertex 349.11053912034 -804.396296804925 -222.414720773645
   endloop
endfacet
facet normal 0.50000000000009 0.866025403784387 4.02637223736025e-014
   outer loop
      vertex 349.932494158174 -805.02700508836 -222.414720773645
      vertex 349.11053912034 -804.396296804925 -214.477220773645
      vertex 349.932494158174 -805.02700508836 -214.477220773645
   endloop
endfacet
facet normal 0.258819045102603 0.965925826289046 1.50141193215714e-014
   outer loop
      vertex 348.15335220559 -803.999817003109 -214.477220773645
      vertex 349.11053912034 -804.396296804925 -222.414720773645
      vertex 348.153352205591 -803.999817003109 -222.414720773645
   endloop
endfacet
facet normal 0.258819045102603 0.965925826289046 1.50141193215714e-014
   outer loop
      vertex 349.11053912034 -804.396296804925 -222.414720773645
      vertex 348.15335220559 -803.999817003109 -214.477220773645
      vertex 349.11053912034 -804.396296804925 -214.477220773645
   endloop
endfacet
facet normal -6.79650351740995e-014 -1.0 1.12586711502195e-014
   outer loop
      vertex 347.126164120339 -811.802085126194 -222.414720773645
      vertex 346.098976035088 -811.666853249279 -214.477220773645
      vertex 346.098976035089 -811.666853249279 -222.414720773645
   endloop
endfacet
facet normal -6.79650351740995e-014 -1.0 1.12586711502195e-014
   outer loop
      vertex 346.098976035088 -811.666853249279 -214.477220773645
      vertex 347.126164120339 -811.802085126194 -222.414720773645
      vertex 347.126164120339 -811.802085126194 -214.477220773645
   endloop
endfacet
facet normal 0.86602540378446 0.499999999999963 9.79829085682009e-014
   outer loop
      vertex 345.237275947051 -808.923885221511 -224.002220773645
      vertex 345.583893385094 -809.375605861439 -214.477220773645
      vertex 345.583893385095 -809.375605861439 -224.002220773645
   endloop
endfacet
facet normal 0.86602540378446 0.499999999999963 9.79829085682009e-014
   outer loop
      vertex 345.583893385094 -809.375605861439 -214.477220773645
      vertex 345.237275947051 -808.923885221511 -224.002220773645
      vertex 345.23727594705 -808.923885221511 -214.477220773645
   endloop
endfacet
facet normal -0.499999999999929 0.86602540378448 -7.35391911381269e-014
   outer loop
      vertex 348.216714215657 -809.722223299483 -214.477220773645
      vertex 348.668434855585 -809.375605861439 -224.002220773645
      vertex 348.216714215658 -809.722223299483 -224.002220773645
   endloop
endfacet
facet normal -0.499999999999929 0.86602540378448 -7.35391911381269e-014
   outer loop
      vertex 348.668434855585 -809.375605861439 -224.002220773645
      vertex 348.216714215657 -809.722223299483 -214.477220773645
      vertex 348.668434855584 -809.375605861439 -214.477220773645
   endloop
endfacet
facet normal 0.707106781186488 -0.707106781186608 9.63932467967148e-014
   outer loop
      vertex 345.583893385095 -806.291064390949 -224.002220773645
      vertex 345.237275947051 -806.742785030876 -214.477220773645
      vertex 345.237275947052 -806.742785030876 -224.002220773645
   endloop
endfacet
facet normal 0.707106781186488 -0.707106781186608 9.63932467967148e-014
   outer loop
      vertex 345.237275947051 -806.742785030876 -214.477220773645
      vertex 345.583893385095 -806.291064390949 -224.002220773645
      vertex 345.583893385094 -806.291064390949 -214.477220773645
   endloop
endfacet
facet normal -1.0 4.0866349981437e-014 -1.00028035205088e-013
   outer loop
      vertex 343.157414120339 -807.833335126194 -214.477220773645
      vertex 343.292645997255 -808.860523211444 -222.414720773646
      vertex 343.292645997255 -808.860523211444 -214.477220773645
   endloop
endfacet
facet normal -1.0 4.0866349981437e-014 -1.00028035205088e-013
   outer loop
      vertex 343.292645997255 -808.860523211444 -222.414720773646
      vertex 343.157414120339 -807.833335126194 -214.477220773645
      vertex 343.15741412034 -807.833335126194 -222.414720773646
   endloop
endfacet
facet normal 1.0 -3.84959947491943e-014 1.21625283525815e-013
   outer loop
      vertex 344.945063929705 -807.833335126194 -224.002220773645
      vertex 345.019383116481 -808.397845394807 -214.477220773645
      vertex 345.019383116482 -808.397845394807 -224.002220773645
   endloop
endfacet
facet normal 1.0 -3.84959947491943e-014 1.21625283525815e-013
   outer loop
      vertex 345.019383116481 -808.397845394807 -214.477220773645
      vertex 344.945063929705 -807.833335126194 -224.002220773645
      vertex 344.945063929704 -807.833335126194 -214.477220773645
   endloop
endfacet
facet normal -0.866025403784406 0.500000000000056 -9.22561551533607e-014
   outer loop
      vertex 343.68912579907 -805.848960126193 -214.477220773645
      vertex 343.292645997255 -806.806147040943 -222.414720773646
      vertex 343.292645997255 -806.806147040943 -214.477220773645
   endloop
endfacet
facet normal -0.866025403784406 0.500000000000056 -9.22561551533607e-014
   outer loop
      vertex 343.292645997255 -806.806147040943 -222.414720773646
      vertex 343.68912579907 -805.848960126193 -214.477220773645
      vertex 343.689125799071 -805.848960126193 -222.414720773646
   endloop
endfacet
facet normal -0.965925826289085 -0.25881904510246 -9.37057040413238e-014
   outer loop
      vertex 343.292645997255 -808.860523211444 -214.477220773645
      vertex 343.689125799071 -809.817710126194 -222.414720773646
      vertex 343.68912579907 -809.817710126194 -214.477220773645
   endloop
endfacet
facet normal -0.965925826289085 -0.25881904510246 -9.37057040413238e-014
   outer loop
      vertex 343.689125799071 -809.817710126194 -222.414720773646
      vertex 343.292645997255 -808.860523211444 -214.477220773645
      vertex 343.292645997255 -808.860523211444 -222.414720773646
   endloop
endfacet
facet normal -0.258819045102568 0.965925826289056 -4.56735611327497e-014
   outer loop
      vertex 347.690674388952 -809.940116130052 -214.477220773645
      vertex 348.216714215658 -809.722223299483 -224.002220773645
      vertex 347.690674388953 -809.940116130052 -224.002220773645
   endloop
endfacet
facet normal -0.258819045102568 0.965925826289056 -4.56735611327497e-014
   outer loop
      vertex 348.216714215658 -809.722223299483 -224.002220773645
      vertex 347.690674388952 -809.940116130052 -214.477220773645
      vertex 348.216714215657 -809.722223299483 -214.477220773645
   endloop
endfacet
facet normal -0.866025403784399 0.50000000000007 -1.12678261983479e-013
   outer loop
      vertex 349.015052293628 -808.923885221512 -214.477220773645
      vertex 349.232945124198 -808.397845394807 -224.002220773645
      vertex 349.015052293629 -808.923885221512 -224.002220773645
   endloop
endfacet
facet normal -0.866025403784399 0.50000000000007 -1.12678261983479e-013
   outer loop
      vertex 349.232945124198 -808.397845394807 -224.002220773645
      vertex 349.015052293628 -808.923885221512 -214.477220773645
      vertex 349.232945124198 -808.397845394807 -214.477220773645
   endloop
endfacet
facet normal -0.70710678118644 0.707106781186655 -9.63932467967098e-014
   outer loop
      vertex 348.668434855584 -809.375605861439 -214.477220773645
      vertex 349.015052293629 -808.923885221512 -224.002220773645
      vertex 348.668434855585 -809.375605861439 -224.002220773645
   endloop
endfacet
facet normal -0.70710678118644 0.707106781186655 -9.63932467967098e-014
   outer loop
      vertex 349.015052293629 -808.923885221512 -224.002220773645
      vertex 348.668434855584 -809.375605861439 -214.477220773645
      vertex 349.015052293628 -808.923885221512 -214.477220773645
   endloop
endfacet
facet normal 6.79650351740995e-014 1.0 -1.12586711502195e-014
   outer loop
      vertex 347.12616412034 -803.864585126194 -214.477220773645
      vertex 348.153352205591 -803.999817003109 -222.414720773645
      vertex 347.126164120341 -803.864585126194 -222.414720773645
   endloop
endfacet
facet normal 6.79650351740995e-014 1.0 -1.12586711502195e-014
   outer loop
      vertex 348.153352205591 -803.999817003109 -222.414720773645
      vertex 347.12616412034 -803.864585126194 -214.477220773645
      vertex 348.15335220559 -803.999817003109 -214.477220773645
   endloop
endfacet
facet normal -0.707106781186554 -0.707106781186541 -7.56108786929597e-014
   outer loop
      vertex 348.668434855586 -806.291064390949 -224.002220773645
      vertex 348.216714215657 -805.944446952905 -214.477220773645
      vertex 348.216714215658 -805.944446952906 -224.002220773645
   endloop
endfacet
facet normal -0.707106781186554 -0.707106781186541 -7.56108786929597e-014
   outer loop
      vertex 348.216714215657 -805.944446952905 -214.477220773645
      vertex 348.668434855586 -806.291064390949 -224.002220773645
      vertex 348.668434855585 -806.291064390949 -214.477220773645
   endloop
endfacet
facet normal -0.965925826289094 -0.258819045102427 -1.13677565148931e-013
   outer loop
      vertex 349.232945124198 -807.268824857581 -214.477220773645
      vertex 349.015052293629 -806.742785030877 -224.002220773645
      vertex 349.232945124199 -807.268824857581 -224.002220773645
   endloop
endfacet
facet normal -0.965925826289094 -0.258819045102427 -1.13677565148931e-013
   outer loop
      vertex 349.015052293629 -806.742785030877 -224.002220773645
      vertex 349.232945124198 -807.268824857581 -214.477220773645
      vertex 349.015052293628 -806.742785030877 -214.477220773645
   endloop
endfacet
facet normal -0.86602540378446 -0.499999999999963 -9.79829085682009e-014
   outer loop
      vertex 349.015052293628 -806.742785030877 -214.477220773645
      vertex 348.668434855586 -806.291064390949 -224.002220773645
      vertex 349.015052293629 -806.742785030877 -224.002220773645
   endloop
endfacet
facet normal -0.86602540378446 -0.499999999999963 -9.79829085682009e-014
   outer loop
      vertex 348.668434855586 -806.291064390949 -224.002220773645
      vertex 349.015052293628 -806.742785030877 -214.477220773645
      vertex 348.668434855585 -806.291064390949 -214.477220773645
   endloop
endfacet
facet normal -0.965925826289044 0.258819045102614 -1.21284439825701e-013
   outer loop
      vertex 349.232945124198 -808.397845394807 -214.477220773645
      vertex 349.307264310975 -807.833335126194 -224.002220773645
      vertex 349.232945124198 -808.397845394807 -224.002220773645
   endloop
endfacet
facet normal -0.965925826289044 0.258819045102614 -1.21284439825701e-013
   outer loop
      vertex 349.307264310975 -807.833335126194 -224.002220773645
      vertex 349.232945124198 -808.397845394807 -214.477220773645
      vertex 349.307264310974 -807.833335126194 -214.477220773645
   endloop
endfacet
facet normal -1.0 7.44701453979191e-014 -1.21625283525816e-013
   outer loop
      vertex 349.307264310974 -807.833335126194 -214.477220773645
      vertex 349.232945124199 -807.268824857581 -224.002220773645
      vertex 349.307264310975 -807.833335126194 -224.002220773645
   endloop
endfacet
facet normal -1.0 7.44701453979191e-014 -1.21625283525816e-013
   outer loop
      vertex 349.232945124199 -807.268824857581 -224.002220773645
      vertex 349.307264310974 -807.833335126194 -214.477220773645
      vertex 349.232945124198 -807.268824857581 -214.477220773645
   endloop
endfacet
facet normal -0.258819045102676 -0.965925826289027 -1.72843183522247e-014
   outer loop
      vertex 347.690674388954 -805.726554122336 -224.002220773645
      vertex 347.12616412034 -805.652234935559 -214.477220773645
      vertex 347.12616412034 -805.652234935559 -224.002220773645
   endloop
endfacet
facet normal -0.258819045102676 -0.965925826289027 -1.72843183522247e-014
   outer loop
      vertex 347.12616412034 -805.652234935559 -214.477220773645
      vertex 347.690674388954 -805.726554122336 -224.002220773645
      vertex 347.690674388953 -805.726554122336 -214.477220773645
   endloop
endfacet
facet normal 0.258819045102482 -0.965925826289079 4.56735611327396e-014
   outer loop
      vertex 346.561653851727 -805.726554122336 -224.002220773645
      vertex 346.035614025022 -805.944446952905 -214.477220773645
      vertex 346.035614025023 -805.944446952905 -224.002220773645
   endloop
endfacet
facet normal 0.258819045102482 -0.965925826289079 4.56735611327396e-014
   outer loop
      vertex 346.035614025022 -805.944446952905 -214.477220773645
      vertex 346.561653851727 -805.726554122336 -224.002220773645
      vertex 346.561653851726 -805.726554122336 -214.477220773645
   endloop
endfacet
facet normal -0.500000000000113 -0.866025403784374 -4.80860923876944e-014
   outer loop
      vertex 348.216714215657 -805.944446952905 -214.477220773645
      vertex 347.690674388954 -805.726554122336 -224.002220773645
      vertex 348.216714215658 -805.944446952906 -224.002220773645
   endloop
endfacet
facet normal -0.500000000000113 -0.866025403784374 -4.80860923876944e-014
   outer loop
      vertex 347.690674388954 -805.726554122336 -224.002220773645
      vertex 348.216714215657 -805.944446952905 -214.477220773645
      vertex 347.690674388953 -805.726554122336 -214.477220773645
   endloop
endfacet
facet normal 0.499999999999955 -0.866025403784465 7.35391911381298e-014
   outer loop
      vertex 346.035614025022 -805.944446952905 -214.477220773645
      vertex 345.583893385095 -806.291064390949 -224.002220773645
      vertex 346.035614025023 -805.944446952905 -224.002220773645
   endloop
endfacet
facet normal 0.499999999999955 -0.866025403784465 7.35391911381298e-014
   outer loop
      vertex 345.583893385095 -806.291064390949 -224.002220773645
      vertex 346.035614025022 -805.944446952905 -214.477220773645
      vertex 345.583893385094 -806.291064390949 -214.477220773645
   endloop
endfacet
facet normal -9.43986513789394e-014 1.09599421633617e-014 1.0
   outer loop
      vertex 341.746007037314 -809.274943871743 -222.414720773646
      vertex 341.746007037315 -806.391726380645 -222.414720773646
      vertex 341.556215645419 -807.833335126194 -222.414720773646
   endloop
endfacet
facet normal -9.43986513789394e-014 1.09599421633617e-014 1.0
   outer loop
      vertex 341.746007037315 -806.391726380645 -222.414720773646
      vertex 341.746007037314 -809.274943871743 -222.414720773646
      vertex 342.302447243288 -810.618309363654 -222.414720773645
   endloop
endfacet
facet normal -9.43986513789394e-014 1.09599421633617e-014 1.0
   outer loop
      vertex 341.746007037315 -806.391726380645 -222.414720773646
      vertex 342.302447243288 -810.618309363654 -222.414720773645
      vertex 342.302447243288 -805.048360888733 -222.414720773646
   endloop
endfacet
facet normal -9.43986513789394e-014 1.09599421633617e-014 1.0
   outer loop
      vertex 342.302447243288 -805.048360888733 -222.414720773646
      vertex 342.302447243288 -810.618309363654 -222.414720773645
      vertex 343.187615782864 -811.77188346367 -222.414720773645
   endloop
endfacet
facet normal -9.43986513789394e-014 1.09599421633617e-014 1.0
   outer loop
      vertex 342.302447243288 -805.048360888733 -222.414720773646
      vertex 343.187615782864 -811.77188346367 -222.414720773645
      vertex 343.15741412034 -807.833335126194 -222.414720773646
   endloop
endfacet
facet normal -9.43986513789394e-014 1.09599421633617e-014 1.0
   outer loop
      vertex 343.15741412034 -807.833335126194 -222.414720773646
      vertex 343.187615782864 -811.77188346367 -222.414720773645
      vertex 343.292645997255 -808.860523211444 -222.414720773646
   endloop
endfacet
facet normal -9.43986513789394e-014 1.09599421633617e-014 1.0
   outer loop
      vertex 343.292645997255 -808.860523211444 -222.414720773646
      vertex 343.187615782864 -811.77188346367 -222.414720773645
      vertex 344.341189882879 -812.657052003246 -222.414720773645
   endloop
endfacet
facet normal -9.43986513789394e-014 1.09599421633617e-014 1.0
   outer loop
      vertex 343.292645997255 -808.860523211444 -222.414720773646
      vertex 344.341189882879 -812.657052003246 -222.414720773645
      vertex 343.689125799071 -809.817710126194 -222.414720773646
   endloop
endfacet
facet normal -9.43986513789394e-014 1.09599421633617e-014 1.0
   outer loop
      vertex 343.689125799071 -809.817710126194 -222.414720773646
      vertex 344.341189882879 -812.657052003246 -222.414720773645
      vertex 344.319834082506 -810.639665164028 -222.414720773645
   endloop
endfacet
facet normal -9.43986513789394e-014 1.09599421633617e-014 1.0
   outer loop
      vertex 344.319834082506 -810.639665164028 -222.414720773645
      vertex 344.341189882879 -812.657052003246 -222.414720773645
      vertex 345.14178912034 -811.270373447464 -222.414720773645
   endloop
endfacet
facet normal -9.43986513789394e-014 1.09599421633617e-014 1.0
   outer loop
      vertex 345.14178912034 -811.270373447464 -222.414720773645
      vertex 344.341189882879 -812.657052003246 -222.414720773645
      vertex 345.68455537479 -813.21349220922 -222.414720773645
   endloop
endfacet
facet normal -9.43986513789394e-014 1.09599421633617e-014 1.0
   outer loop
      vertex 345.14178912034 -811.270373447464 -222.414720773645
      vertex 345.68455537479 -813.21349220922 -222.414720773645
      vertex 346.098976035089 -811.666853249279 -222.414720773645
   endloop
endfacet
facet normal -9.43986513789394e-014 1.09599421633617e-014 1.0
   outer loop
      vertex 346.098976035089 -811.666853249279 -222.414720773645
      vertex 345.68455537479 -813.21349220922 -222.414720773645
      vertex 347.12616412034 -813.403283601115 -222.414720773645
   endloop
endfacet
facet normal -9.43986513789394e-014 1.09599421633617e-014 1.0
   outer loop
      vertex 346.098976035089 -811.666853249279 -222.414720773645
      vertex 347.12616412034 -813.403283601115 -222.414720773645
      vertex 347.126164120339 -811.802085126194 -222.414720773645
   endloop
endfacet
facet normal -9.43986513789394e-014 1.09599421633617e-014 1.0
   outer loop
      vertex 347.126164120339 -811.802085126194 -222.414720773645
      vertex 347.12616412034 -813.403283601115 -222.414720773645
      vertex 348.153352205591 -811.666853249279 -222.414720773645
   endloop
endfacet
facet normal -9.43986513789394e-014 1.09599421633617e-014 1.0
   outer loop
      vertex 348.153352205591 -811.666853249279 -222.414720773645
      vertex 347.12616412034 -813.403283601115 -222.414720773645
      vertex 348.567772865889 -813.21349220922 -222.414720773645
   endloop
endfacet
facet normal -9.43986513789394e-014 1.09599421633617e-014 1.0
   outer loop
      vertex 348.153352205591 -811.666853249279 -222.414720773645
      vertex 348.567772865889 -813.21349220922 -222.414720773645
      vertex 349.11053912034 -811.270373447464 -222.414720773645
   endloop
endfacet
facet normal -9.43986513789394e-014 1.09599421633617e-014 1.0
   outer loop
      vertex 349.11053912034 -811.270373447464 -222.414720773645
      vertex 348.567772865889 -813.21349220922 -222.414720773645
      vertex 349.9111383578 -812.657052003246 -222.414720773645
   endloop
endfacet
facet normal -9.43986513789394e-014 1.09599421633617e-014 1.0
   outer loop
      vertex 349.11053912034 -811.270373447464 -222.414720773645
      vertex 349.9111383578 -812.657052003246 -222.414720773645
      vertex 349.932494158174 -810.639665164028 -222.414720773645
   endloop
endfacet
facet normal -9.43986513789394e-014 1.09599421633617e-014 1.0
   outer loop
      vertex 349.932494158174 -810.639665164028 -222.414720773645
      vertex 349.9111383578 -812.657052003246 -222.414720773645
      vertex 351.064712457816 -811.771883463671 -222.414720773645
   endloop
endfacet
facet normal -9.43986513789394e-014 1.09599421633617e-014 1.0
   outer loop
      vertex 349.932494158174 -810.639665164028 -222.414720773645
      vertex 351.064712457816 -811.771883463671 -222.414720773645
      vertex 350.563202441609 -809.817710126195 -222.414720773645
   endloop
endfacet
facet normal -9.43986513789394e-014 1.09599421633617e-014 1.0
   outer loop
      vertex 350.563202441609 -809.817710126195 -222.414720773645
      vertex 351.064712457816 -811.771883463671 -222.414720773645
      vertex 350.959682243425 -808.860523211445 -222.414720773645
   endloop
endfacet
facet normal -9.43986513789394e-014 1.09599421633617e-014 1.0
   outer loop
      vertex 350.959682243425 -808.860523211445 -222.414720773645
      vertex 351.064712457816 -811.771883463671 -222.414720773645
      vertex 351.09491412034 -807.833335126194 -222.414720773645
   endloop
endfacet
facet normal -9.43986513789394e-014 1.09599421633617e-014 1.0
   outer loop
      vertex 351.09491412034 -807.833335126194 -222.414720773645
      vertex 351.064712457816 -811.771883463671 -222.414720773645
      vertex 351.949880997392 -810.618309363655 -222.414720773644
   endloop
endfacet
facet normal -9.43986513789394e-014 1.09599421633617e-014 1.0
   outer loop
      vertex 343.15741412034 -807.833335126194 -222.414720773646
      vertex 343.187615782864 -803.894786788718 -222.414720773645
      vertex 342.302447243288 -805.048360888733 -222.414720773646
   endloop
endfacet
facet normal -9.43986513789394e-014 1.09599421633617e-014 1.0
   outer loop
      vertex 343.187615782864 -803.894786788718 -222.414720773645
      vertex 343.15741412034 -807.833335126194 -222.414720773646
      vertex 343.292645997255 -806.806147040943 -222.414720773646
   endloop
endfacet
facet normal -9.43986513789394e-014 1.09599421633617e-014 1.0
   outer loop
      vertex 343.187615782864 -803.894786788718 -222.414720773645
      vertex 343.292645997255 -806.806147040943 -222.414720773646
      vertex 344.34118988288 -803.009618249142 -222.414720773645
   endloop
endfacet
facet normal -9.43986513789394e-014 1.09599421633617e-014 1.0
   outer loop
      vertex 344.34118988288 -803.009618249142 -222.414720773645
      vertex 343.292645997255 -806.806147040943 -222.414720773646
      vertex 343.689125799071 -805.848960126193 -222.414720773646
   endloop
endfacet
facet normal -9.43986513789394e-014 1.09599421633617e-014 1.0
   outer loop
      vertex 344.34118988288 -803.009618249142 -222.414720773645
      vertex 343.689125799071 -805.848960126193 -222.414720773646
      vertex 344.319834082506 -805.02700508836 -222.414720773646
   endloop
endfacet
facet normal -9.43986513789394e-014 1.09599421633617e-014 1.0
   outer loop
      vertex 344.34118988288 -803.009618249142 -222.414720773645
      vertex 344.319834082506 -805.02700508836 -222.414720773646
      vertex 345.14178912034 -804.396296804925 -222.414720773645
   endloop
endfacet
facet normal -9.43986513789394e-014 1.09599421633617e-014 1.0
   outer loop
      vertex 344.34118988288 -803.009618249142 -222.414720773645
      vertex 345.14178912034 -804.396296804925 -222.414720773645
      vertex 345.684555374791 -802.453178043168 -222.414720773645
   endloop
endfacet
facet normal -9.43986513789394e-014 1.09599421633617e-014 1.0
   outer loop
      vertex 345.684555374791 -802.453178043168 -222.414720773645
      vertex 345.14178912034 -804.396296804925 -222.414720773645
      vertex 346.098976035089 -803.999817003109 -222.414720773645
   endloop
endfacet
facet normal -9.43986513789394e-014 1.09599421633617e-014 1.0
   outer loop
      vertex 345.684555374791 -802.453178043168 -222.414720773645
      vertex 346.098976035089 -803.999817003109 -222.414720773645
      vertex 347.12616412034 -802.263386651273 -222.414720773645
   endloop
endfacet
facet normal -9.43986513789394e-014 1.09599421633617e-014 1.0
   outer loop
      vertex 347.12616412034 -802.263386651273 -222.414720773645
      vertex 346.098976035089 -803.999817003109 -222.414720773645
      vertex 347.126164120341 -803.864585126194 -222.414720773645
   endloop
endfacet
facet normal -9.43986513789394e-014 1.09599421633617e-014 1.0
   outer loop
      vertex 347.12616412034 -802.263386651273 -222.414720773645
      vertex 347.126164120341 -803.864585126194 -222.414720773645
      vertex 348.56777286589 -802.453178043169 -222.414720773645
   endloop
endfacet
facet normal -9.43986513789394e-014 1.09599421633617e-014 1.0
   outer loop
      vertex 348.56777286589 -802.453178043169 -222.414720773645
      vertex 347.126164120341 -803.864585126194 -222.414720773645
      vertex 348.153352205591 -803.999817003109 -222.414720773645
   endloop
endfacet
facet normal -9.43986513789394e-014 1.09599421633617e-014 1.0
   outer loop
      vertex 348.56777286589 -802.453178043169 -222.414720773645
      vertex 348.153352205591 -803.999817003109 -222.414720773645
      vertex 349.11053912034 -804.396296804925 -222.414720773645
   endloop
endfacet
facet normal -9.43986513789394e-014 1.09599421633617e-014 1.0
   outer loop
      vertex 348.56777286589 -802.453178043169 -222.414720773645
      vertex 349.11053912034 -804.396296804925 -222.414720773645
      vertex 349.911138357801 -803.009618249142 -222.414720773645
   endloop
endfacet
facet normal -9.43986513789394e-014 1.09599421633617e-014 1.0
   outer loop
      vertex 349.911138357801 -803.009618249142 -222.414720773645
      vertex 349.11053912034 -804.396296804925 -222.414720773645
      vertex 349.932494158174 -805.02700508836 -222.414720773645
   endloop
endfacet
facet normal -9.43986513789394e-014 1.09599421633617e-014 1.0
   outer loop
      vertex 349.911138357801 -803.009618249142 -222.414720773645
      vertex 349.932494158174 -805.02700508836 -222.414720773645
      vertex 351.064712457817 -803.894786788718 -222.414720773645
   endloop
endfacet
facet normal -9.43986513789394e-014 1.09599421633617e-014 1.0
   outer loop
      vertex 351.064712457817 -803.894786788718 -222.414720773645
      vertex 349.932494158174 -805.02700508836 -222.414720773645
      vertex 350.56320244161 -805.848960126194 -222.414720773645
   endloop
endfacet
facet normal -9.43986513789394e-014 1.09599421633617e-014 1.0
   outer loop
      vertex 351.064712457817 -803.894786788718 -222.414720773645
      vertex 350.56320244161 -805.848960126194 -222.414720773645
      vertex 350.959682243425 -806.806147040944 -222.414720773645
   endloop
endfacet
facet normal -9.43986513789394e-014 1.09599421633617e-014 1.0
   outer loop
      vertex 351.064712457817 -803.894786788718 -222.414720773645
      vertex 350.959682243425 -806.806147040944 -222.414720773645
      vertex 351.09491412034 -807.833335126194 -222.414720773645
   endloop
endfacet
facet normal -9.43986513789394e-014 1.09599421633617e-014 1.0
   outer loop
      vertex 351.064712457817 -803.894786788718 -222.414720773645
      vertex 351.09491412034 -807.833335126194 -222.414720773645
      vertex 351.949880997392 -805.048360888734 -222.414720773645
   endloop
endfacet
facet normal -9.43986513789394e-014 1.09599421633617e-014 1.0
   outer loop
      vertex 351.949880997392 -805.048360888734 -222.414720773645
      vertex 351.09491412034 -807.833335126194 -222.414720773645
      vertex 351.949880997392 -810.618309363655 -222.414720773644
   endloop
endfacet
facet normal -9.43986513789394e-014 1.09599421633617e-014 1.0
   outer loop
      vertex 351.949880997392 -805.048360888734 -222.414720773645
      vertex 351.949880997392 -810.618309363655 -222.414720773644
      vertex 352.506321203366 -809.274943871744 -222.414720773644
   endloop
endfacet
facet normal -9.43986513789394e-014 1.09599421633617e-014 1.0
   outer loop
      vertex 351.949880997392 -805.048360888734 -222.414720773645
      vertex 352.506321203366 -809.274943871744 -222.414720773644
      vertex 352.506321203366 -806.391726380645 -222.414720773645
   endloop
endfacet
facet normal -9.43986513789394e-014 1.09599421633617e-014 1.0
   outer loop
      vertex 352.506321203366 -806.391726380645 -222.414720773645
      vertex 352.506321203366 -809.274943871744 -222.414720773644
      vertex 352.696112595261 -807.833335126195 -222.414720773645
   endloop
endfacet
facet normal 0.499999999999942 -0.866025403784472 5.61615462668675e-014
   outer loop
      vertex 349.9111383578 -812.657052003246 -224.002220773645
      vertex 348.567772865889 -813.21349220922 -222.414720773645
      vertex 348.567772865889 -813.21349220922 -224.002220773645
   endloop
endfacet
facet normal 0.499999999999942 -0.866025403784472 5.61615462668675e-014
   outer loop
      vertex 348.567772865889 -813.21349220922 -222.414720773645
      vertex 349.9111383578 -812.657052003246 -224.002220773645
      vertex 349.9111383578 -812.657052003246 -222.414720773645
   endloop
endfacet
facet normal -0.707106781186491 0.707106781186604 -7.40054006558492e-014
   outer loop
      vertex 343.187615782864 -803.894786788718 -222.414720773645
      vertex 344.34118988288 -803.009618249142 -224.002220773645
      vertex 343.187615782864 -803.894786788718 -224.002220773645
   endloop
endfacet
facet normal -0.707106781186491 0.707106781186604 -7.40054006558492e-014
   outer loop
      vertex 344.34118988288 -803.009618249142 -224.002220773645
      vertex 343.187615782864 -803.894786788718 -222.414720773645
      vertex 344.34118988288 -803.009618249142 -222.414720773645
   endloop
endfacet
facet normal 0.965925826289052 -0.258819045102582 9.36907386592819e-014
   outer loop
      vertex 352.506321203366 -809.274943871744 -224.002220773644
      vertex 351.949880997392 -810.618309363655 -222.414720773644
      vertex 351.949880997392 -810.618309363655 -224.002220773644
   endloop
endfacet
facet normal 0.965925826289052 -0.258819045102582 9.36907386592819e-014
   outer loop
      vertex 351.949880997392 -810.618309363655 -222.414720773644
      vertex 352.506321203366 -809.274943871744 -224.002220773644
      vertex 352.506321203366 -809.274943871744 -222.414720773644
   endloop
endfacet
facet normal 0.258819045102473 -0.965925826289081 3.4490375311143e-014
   outer loop
      vertex 348.567772865889 -813.21349220922 -224.002220773645
      vertex 347.12616412034 -813.403283601115 -222.414720773645
      vertex 347.12616412034 -813.403283601115 -224.002220773645
   endloop
endfacet
facet normal 0.258819045102473 -0.965925826289081 3.4490375311143e-014
   outer loop
      vertex 347.12616412034 -813.403283601115 -222.414720773645
      vertex 348.567772865889 -813.21349220922 -224.002220773645
      vertex 348.567772865889 -813.21349220922 -222.414720773645
   endloop
endfacet
facet normal -0.499999999999942 0.866025403784472 -5.61615462668675e-014
   outer loop
      vertex 344.34118988288 -803.009618249142 -222.414720773645
      vertex 345.684555374791 -802.453178043168 -224.002220773645
      vertex 344.34118988288 -803.009618249142 -224.002220773645
   endloop
endfacet
facet normal -0.499999999999942 0.866025403784472 -5.61615462668675e-014
   outer loop
      vertex 345.684555374791 -802.453178043168 -224.002220773645
      vertex 344.34118988288 -803.009618249142 -222.414720773645
      vertex 345.684555374791 -802.453178043168 -222.414720773645
   endloop
endfacet
facet normal 0.866025403784412 -0.500000000000047 8.6805909289844e-014
   outer loop
      vertex 351.949880997392 -810.618309363655 -224.002220773644
      vertex 351.064712457816 -811.771883463671 -222.414720773645
      vertex 351.064712457816 -811.771883463671 -224.002220773645
   endloop
endfacet
facet normal 0.866025403784412 -0.500000000000047 8.6805909289844e-014
   outer loop
      vertex 351.064712457816 -811.771883463671 -222.414720773645
      vertex 351.949880997392 -810.618309363655 -224.002220773644
      vertex 351.949880997392 -810.618309363655 -222.414720773644
   endloop
endfacet
facet normal -0.500000000000033 -0.86602540378442 -3.80291527534865e-014
   outer loop
      vertex 344.341189882879 -812.657052003246 -224.002220773645
      vertex 343.187615782864 -811.77188346367 -222.414720773645
      vertex 343.187615782864 -811.77188346367 -224.002220773645
   endloop
endfacet
facet normal -0.500000000000033 -0.86602540378442 -3.80291527534865e-014
   outer loop
      vertex 343.187615782864 -811.77188346367 -222.414720773645
      vertex 344.341189882879 -812.657052003246 -224.002220773645
      vertex 344.341189882879 -812.657052003246 -222.414720773645
   endloop
endfacet
facet normal -0.866025403784411 0.500000000000048 -8.68059092898439e-014
   outer loop
      vertex 342.302447243288 -805.048360888733 -222.414720773646
      vertex 341.746007037315 -806.391726380645 -224.002220773646
      vertex 341.746007037315 -806.391726380645 -222.414720773646
   endloop
endfacet
facet normal -0.866025403784411 0.500000000000048 -8.68059092898439e-014
   outer loop
      vertex 341.746007037315 -806.391726380645 -224.002220773646
      vertex 342.302447243288 -805.048360888733 -222.414720773646
      vertex 342.302447243289 -805.048360888733 -224.002220773646
   endloop
endfacet
facet normal -1.0 6.25827247971276e-014 -9.41906990203565e-014
   outer loop
      vertex 341.556215645419 -807.833335126194 -222.414720773646
      vertex 341.746007037315 -809.274943871743 -224.002220773646
      vertex 341.746007037314 -809.274943871743 -222.414720773646
   endloop
endfacet
facet normal -1.0 6.25827247971276e-014 -9.41906990203565e-014
   outer loop
      vertex 341.746007037315 -809.274943871743 -224.002220773646
      vertex 341.556215645419 -807.833335126194 -222.414720773646
      vertex 341.556215645419 -807.833335126194 -224.002220773646
   endloop
endfacet
facet normal 0.707106781186489 -0.707106781186606 7.40054006558491e-014
   outer loop
      vertex 351.064712457816 -811.771883463671 -224.002220773645
      vertex 349.9111383578 -812.657052003246 -222.414720773645
      vertex 349.9111383578 -812.657052003246 -224.002220773645
   endloop
endfacet
facet normal 0.707106781186489 -0.707106781186606 7.40054006558491e-014
   outer loop
      vertex 349.9111383578 -812.657052003246 -222.414720773645
      vertex 351.064712457816 -811.771883463671 -224.002220773645
      vertex 351.064712457816 -811.771883463671 -222.414720773645
   endloop
endfacet
facet normal 0.866025403784485 0.499999999999919 7.63371670138436e-014
   outer loop
      vertex 351.949880997392 -805.048360888734 -224.002220773645
      vertex 352.506321203366 -806.391726380645 -222.414720773645
      vertex 352.506321203366 -806.391726380645 -224.002220773645
   endloop
endfacet
facet normal 0.866025403784485 0.499999999999919 7.63371670138436e-014
   outer loop
      vertex 352.506321203366 -806.391726380645 -222.414720773645
      vertex 351.949880997392 -805.048360888734 -224.002220773645
      vertex 351.949880997392 -805.048360888734 -222.414720773645
   endloop
endfacet
facet normal 0.965925826289081 0.258819045102472 8.82717189006832e-014
   outer loop
      vertex 352.506321203366 -806.391726380645 -224.002220773645
      vertex 352.696112595261 -807.833335126195 -222.414720773645
      vertex 352.696112595261 -807.833335126195 -224.002220773645
   endloop
endfacet
facet normal 0.965925826289081 0.258819045102472 8.82717189006832e-014
   outer loop
      vertex 352.696112595261 -807.833335126195 -222.414720773645
      vertex 352.506321203366 -806.391726380645 -224.002220773645
      vertex 352.506321203366 -806.391726380645 -222.414720773645
   endloop
endfacet
facet normal -0.258819045102473 0.965925826289081 -3.4490375311143e-014
   outer loop
      vertex 345.684555374791 -802.453178043168 -222.414720773645
      vertex 347.12616412034 -802.263386651273 -224.002220773645
      vertex 345.684555374791 -802.453178043168 -224.002220773645
   endloop
endfacet
facet normal -0.258819045102473 0.965925826289081 -3.4490375311143e-014
   outer loop
      vertex 347.12616412034 -802.263386651273 -224.002220773645
      vertex 345.684555374791 -802.453178043168 -222.414720773645
      vertex 347.12616412034 -802.263386651273 -222.414720773645
   endloop
endfacet
facet normal 7.10215458683072e-014 1.0 -1.04687422760009e-014
   outer loop
      vertex 347.12616412034 -802.263386651273 -222.414720773645
      vertex 348.56777286589 -802.453178043169 -224.002220773645
      vertex 347.12616412034 -802.263386651273 -224.002220773645
   endloop
endfacet
facet normal 7.10215458683072e-014 1.0 -1.04687422760009e-014
   outer loop
      vertex 348.56777286589 -802.453178043169 -224.002220773645
      vertex 347.12616412034 -802.263386651273 -222.414720773645
      vertex 348.56777286589 -802.453178043169 -222.414720773645
   endloop
endfacet
facet normal -0.707106781186491 0.707106781186604 -7.40054006558492e-014
   outer loop
      vertex 343.187615782864 -803.894786788718 -222.414720773645
      vertex 342.302447243289 -805.048360888733 -224.002220773646
      vertex 342.302447243288 -805.048360888733 -222.414720773646
   endloop
endfacet
facet normal -0.707106781186491 0.707106781186604 -7.40054006558492e-014
   outer loop
      vertex 342.302447243289 -805.048360888733 -224.002220773646
      vertex 343.187615782864 -803.894786788718 -222.414720773645
      vertex 343.187615782864 -803.894786788718 -224.002220773645
   endloop
endfacet
facet normal -0.965925826289051 0.258819045102584 -9.36907386592819e-014
   outer loop
      vertex 341.746007037315 -806.391726380645 -222.414720773646
      vertex 341.556215645419 -807.833335126194 -224.002220773646
      vertex 341.556215645419 -807.833335126194 -222.414720773646
   endloop
endfacet
facet normal -0.965925826289051 0.258819045102584 -9.36907386592819e-014
   outer loop
      vertex 341.556215645419 -807.833335126194 -224.002220773646
      vertex 341.746007037315 -806.391726380645 -222.414720773646
      vertex 341.746007037315 -806.391726380645 -224.002220773646
   endloop
endfacet
facet normal -0.965925826289081 -0.258819045102473 -8.82717189006831e-014
   outer loop
      vertex 341.746007037314 -809.274943871743 -222.414720773646
      vertex 342.302447243288 -810.618309363654 -224.002220773645
      vertex 342.302447243288 -810.618309363654 -222.414720773645
   endloop
endfacet
facet normal -0.965925826289081 -0.258819045102473 -8.82717189006831e-014
   outer loop
      vertex 342.302447243288 -810.618309363654 -224.002220773645
      vertex 341.746007037314 -809.274943871743 -222.414720773646
      vertex 341.746007037315 -809.274943871743 -224.002220773646
   endloop
endfacet
facet normal -0.866025403784485 -0.499999999999919 -7.63371670138436e-014
   outer loop
      vertex 342.302447243288 -810.618309363654 -222.414720773645
      vertex 343.187615782864 -811.77188346367 -224.002220773645
      vertex 343.187615782864 -811.77188346367 -222.414720773645
   endloop
endfacet
facet normal -0.866025403784485 -0.499999999999919 -7.63371670138436e-014
   outer loop
      vertex 343.187615782864 -811.77188346367 -224.002220773645
      vertex 342.302447243288 -810.618309363654 -222.414720773645
      vertex 342.302447243288 -810.618309363654 -224.002220773645
   endloop
endfacet
facet normal -0.258819045102593 -0.965925826289049 -1.42663182448345e-014
   outer loop
      vertex 345.684555374791 -813.21349220922 -224.002220773645
      vertex 344.341189882879 -812.657052003246 -222.414720773645
      vertex 344.341189882879 -812.657052003246 -224.002220773645
   endloop
endfacet
facet normal -0.258819045102593 -0.965925826289049 -1.42663182448345e-014
   outer loop
      vertex 344.341189882879 -812.657052003246 -222.414720773645
      vertex 345.684555374791 -813.21349220922 -224.002220773645
      vertex 345.68455537479 -813.21349220922 -222.414720773645
   endloop
endfacet
facet normal -7.3374078880758e-014 -1.0 1.04687422760007e-014
   outer loop
      vertex 347.12616412034 -813.403283601115 -224.002220773645
      vertex 345.68455537479 -813.21349220922 -222.414720773645
      vertex 345.684555374791 -813.21349220922 -224.002220773645
   endloop
endfacet
facet normal -7.3374078880758e-014 -1.0 1.04687422760007e-014
   outer loop
      vertex 345.68455537479 -813.21349220922 -222.414720773645
      vertex 347.12616412034 -813.403283601115 -224.002220773645
      vertex 347.12616412034 -813.403283601115 -222.414720773645
   endloop
endfacet
facet normal 0.258819045102596 0.965925826289048 1.42663182448347e-014
   outer loop
      vertex 348.56777286589 -802.453178043169 -222.414720773645
      vertex 349.911138357801 -803.009618249142 -224.002220773645
      vertex 348.56777286589 -802.453178043169 -224.002220773645
   endloop
endfacet
facet normal 0.258819045102596 0.965925826289048 1.42663182448347e-014
   outer loop
      vertex 349.911138357801 -803.009618249142 -224.002220773645
      vertex 348.56777286589 -802.453178043169 -222.414720773645
      vertex 349.911138357801 -803.009618249142 -222.414720773645
   endloop
endfacet
facet normal 0.500000000000031 0.866025403784421 3.80291527534863e-014
   outer loop
      vertex 349.911138357801 -803.009618249142 -222.414720773645
      vertex 351.064712457817 -803.894786788718 -224.002220773645
      vertex 349.911138357801 -803.009618249142 -224.002220773645
   endloop
endfacet
facet normal 0.500000000000031 0.866025403784421 3.80291527534863e-014
   outer loop
      vertex 351.064712457817 -803.894786788718 -224.002220773645
      vertex 349.911138357801 -803.009618249142 -222.414720773645
      vertex 351.064712457817 -803.894786788718 -222.414720773645
   endloop
endfacet
facet normal 0.707106781186597 0.707106781186499 5.92003633481406e-014
   outer loop
      vertex 351.064712457817 -803.894786788718 -224.002220773645
      vertex 351.949880997392 -805.048360888734 -222.414720773645
      vertex 351.949880997392 -805.048360888734 -224.002220773645
   endloop
endfacet
facet normal 0.707106781186597 0.707106781186499 5.92003633481406e-014
   outer loop
      vertex 351.949880997392 -805.048360888734 -222.414720773645
      vertex 351.064712457817 -803.894786788718 -224.002220773645
      vertex 351.064712457817 -803.894786788718 -222.414720773645
   endloop
endfacet
facet normal 1.0 -6.12906138622594e-014 9.41906990203565e-014
   outer loop
      vertex 352.696112595261 -807.833335126195 -224.002220773645
      vertex 352.506321203366 -809.274943871744 -222.414720773644
      vertex 352.506321203366 -809.274943871744 -224.002220773644
   endloop
endfacet
facet normal 1.0 -6.12906138622594e-014 9.41906990203565e-014
   outer loop
      vertex 352.506321203366 -809.274943871744 -222.414720773644
      vertex 352.696112595261 -807.833335126195 -224.002220773645
      vertex 352.696112595261 -807.833335126195 -222.414720773645
   endloop
endfacet
endsolid Z_Carriages_6_11_13
