solid NEW_X-Z_motor
facet normal 0.0 1.0 0.0
   outer loop
      vertex -261.234337542539 84.329901808365 54.6194588700487
      vertex -260.669384095651 84.4042793406684 41.1218226700487
      vertex -261.234337542539 84.329901808365 41.1218226700487
   endloop
endfacet
facet normal 0.0 1.0 0.0
   outer loop
      vertex -260.669384095651 84.4042793406684 41.1218226700487
      vertex -261.234337542539 84.329901808365 54.6194588700487
      vertex -260.669384095651 84.4042793406684 54.6194588700487
   endloop
endfacet
facet normal -0.258819045102518 0.965925826289069 2.8798511682854e-019
   outer loop
      vertex -260.669384095651 84.4042793406684 54.6194588700487
      vertex -260.142931292539 84.6223432316667 41.1218226700487
      vertex -260.669384095651 84.4042793406684 41.1218226700487
   endloop
endfacet
facet normal -0.258819045102518 0.965925826289069 2.8798511682854e-019
   outer loop
      vertex -260.142931292539 84.6223432316667 41.1218226700487
      vertex -260.669384095651 84.4042793406684 54.6194588700487
      vertex -260.142931292539 84.6223432316667 54.6194588700487
   endloop
endfacet
facet normal -0.499999999999999 0.866025403784439 4.37057182711143e-019
   outer loop
      vertex -260.142931292539 84.6223432316667 54.6194588700487
      vertex -259.69085602173 84.9692327875562 41.1218226700487
      vertex -260.142931292539 84.6223432316667 41.1218226700487
   endloop
endfacet
facet normal -0.499999999999999 0.866025403784439 4.37057182711143e-019
   outer loop
      vertex -259.69085602173 84.9692327875562 41.1218226700487
      vertex -260.142931292539 84.6223432316667 54.6194588700487
      vertex -259.69085602173 84.9692327875562 54.6194588700487
   endloop
endfacet
facet normal -0.86602540378444 0.499999999999999 -5.27574689016916e-019
   outer loop
      vertex -259.343966465841 85.421308058365 54.6194588700487
      vertex -259.69085602173 84.9692327875562 41.1218226700487
      vertex -259.69085602173 84.9692327875562 54.6194588700487
   endloop
endfacet
facet normal -0.86602540378444 0.499999999999999 -5.27574689016916e-019
   outer loop
      vertex -259.69085602173 84.9692327875562 41.1218226700487
      vertex -259.343966465841 85.421308058365 54.6194588700487
      vertex -259.343966465841 85.421308058365 41.1218226700487
   endloop
endfacet
facet normal -0.965925826289069 0.258819045102518 -5.27574689016916e-019
   outer loop
      vertex -259.125902574842 85.9477608614771 54.6194588700487
      vertex -259.343966465841 85.421308058365 41.1218226700487
      vertex -259.343966465841 85.421308058365 54.6194588700487
   endloop
endfacet
facet normal -0.965925826289069 0.258819045102518 -5.27574689016916e-019
   outer loop
      vertex -259.343966465841 85.421308058365 41.1218226700487
      vertex -259.125902574842 85.9477608614771 54.6194588700487
      vertex -259.125902574842 85.9477608614771 41.1218226700487
   endloop
endfacet
facet normal -1.0 0.0 -2.9061141057263e-019
   outer loop
      vertex -259.051525042539 86.512714308365 54.6194588700487
      vertex -259.125902574842 85.9477608614771 41.1218226700487
      vertex -259.125902574842 85.9477608614771 54.6194588700487
   endloop
endfacet
facet normal -1.0 0.0 -2.9061141057263e-019
   outer loop
      vertex -259.125902574842 85.9477608614771 41.1218226700487
      vertex -259.051525042539 86.512714308365 54.6194588700487
      vertex -259.051525042539 86.512714308365 41.1218226700487
   endloop
endfacet
facet normal -0.965925826289069 -0.258819045102518 1.46445772138512e-019
   outer loop
      vertex -259.125902574842 87.0776677552528 54.6194588700487
      vertex -259.051525042539 86.512714308365 41.1218226700487
      vertex -259.051525042539 86.512714308365 54.6194588700487
   endloop
endfacet
facet normal -0.965925826289069 -0.258819045102518 1.46445772138512e-019
   outer loop
      vertex -259.051525042539 86.512714308365 41.1218226700487
      vertex -259.125902574842 87.0776677552528 54.6194588700487
      vertex -259.125902574842 87.0776677552528 41.1218226700487
   endloop
endfacet
facet normal -0.866025403784439 -0.499999999999999 4.37057182711143e-019
   outer loop
      vertex -259.343966465841 87.604120558365 54.6194588700487
      vertex -259.125902574842 87.0776677552528 41.1218226700487
      vertex -259.125902574842 87.0776677552528 54.6194588700487
   endloop
endfacet
facet normal -0.866025403784439 -0.499999999999999 4.37057182711143e-019
   outer loop
      vertex -259.125902574842 87.0776677552528 41.1218226700487
      vertex -259.343966465841 87.604120558365 54.6194588700487
      vertex -259.343966465841 87.604120558365 41.1218226700487
   endloop
endfacet
facet normal -0.707106781186548 -0.707106781186548 0.0
   outer loop
      vertex -259.69085602173 88.0561958291737 54.6194588700487
      vertex -259.343966465841 87.604120558365 41.1218226700487
      vertex -259.343966465841 87.604120558365 54.6194588700487
   endloop
endfacet
facet normal -0.707106781186548 -0.707106781186548 0.0
   outer loop
      vertex -259.343966465841 87.604120558365 41.1218226700487
      vertex -259.69085602173 88.0561958291737 54.6194588700487
      vertex -259.69085602173 88.0561958291737 41.1218226700487
   endloop
endfacet
facet normal -0.707106781186548 -0.707106781186548 0.0
   outer loop
      vertex -259.69085602173 88.0561958291737 54.6194588700487
      vertex -260.142931292539 88.4030853850632 41.1218226700487
      vertex -259.69085602173 88.0561958291737 41.1218226700487
   endloop
endfacet
facet normal -0.707106781186548 -0.707106781186548 0.0
   outer loop
      vertex -260.142931292539 88.4030853850632 41.1218226700487
      vertex -259.69085602173 88.0561958291737 54.6194588700487
      vertex -260.142931292539 88.4030853850632 54.6194588700487
   endloop
endfacet
facet normal -0.499999999999999 -0.866025403784439 -9.64631871728059e-019
   outer loop
      vertex -260.142931292539 88.4030853850632 54.6194588700487
      vertex -260.669384095651 88.6211492760616 41.1218226700487
      vertex -260.142931292539 88.4030853850632 41.1218226700487
   endloop
endfacet
facet normal -0.499999999999999 -0.866025403784439 -9.64631871728059e-019
   outer loop
      vertex -260.669384095651 88.6211492760616 41.1218226700487
      vertex -260.142931292539 88.4030853850632 54.6194588700487
      vertex -260.669384095651 88.6211492760616 54.6194588700487
   endloop
endfacet
facet normal -0.258819045102518 -0.965925826289069 -9.57099150535483e-019
   outer loop
      vertex -260.669384095651 88.6211492760616 54.6194588700487
      vertex -261.234337542539 88.695526808365 41.1218226700487
      vertex -260.669384095651 88.6211492760616 41.1218226700487
   endloop
endfacet
facet normal -0.258819045102518 -0.965925826289069 -9.57099150535483e-019
   outer loop
      vertex -261.234337542539 88.695526808365 41.1218226700487
      vertex -260.669384095651 88.6211492760616 54.6194588700487
      vertex -261.234337542539 88.695526808365 54.6194588700487
   endloop
endfacet
facet normal 2.67333296869407e-017 -1.0 -1.34006623497453e-019
   outer loop
      vertex -261.234337542539 88.695526808365 54.6194588700487
      vertex -261.799290989427 88.6211492760616 41.1218226700487
      vertex -261.234337542539 88.695526808365 41.1218226700487
   endloop
endfacet
facet normal 2.67333296869407e-017 -1.0 -1.34006623497453e-019
   outer loop
      vertex -261.799290989427 88.6211492760616 41.1218226700487
      vertex -261.234337542539 88.695526808365 54.6194588700487
      vertex -261.799290989427 88.6211492760616 54.6194588700487
   endloop
endfacet
facet normal -0.866025403784438 0.500000000000001 0.0
   outer loop
      vertex -264.671375863808 88.497089308365 54.6194588700487
      vertex -265.067855665624 87.5399023936156 42.7132088700487
      vertex -265.067855665624 87.5399023936156 54.6194588700487
   endloop
endfacet
facet normal -0.866025403784438 0.500000000000001 0.0
   outer loop
      vertex -265.067855665624 87.5399023936156 42.7132088700487
      vertex -264.671375863808 88.497089308365 54.6194588700487
      vertex -264.671375863808 88.497089308365 42.7132088700487
   endloop
endfacet
facet normal -0.707106781186548 0.707106781186548 0.0
   outer loop
      vertex -264.040667580373 89.3190443461991 54.6194588700487
      vertex -264.671375863808 88.497089308365 42.7132088700487
      vertex -264.671375863808 88.497089308365 54.6194588700487
   endloop
endfacet
facet normal -0.707106781186548 0.707106781186548 0.0
   outer loop
      vertex -264.671375863808 88.497089308365 42.7132088700487
      vertex -264.040667580373 89.3190443461991 54.6194588700487
      vertex -264.040667580373 89.3190443461991 42.7132088700487
   endloop
endfacet
facet normal -0.707106781186548 0.707106781186548 0.0
   outer loop
      vertex -264.040667580373 89.3190443461991 54.6194588700487
      vertex -263.218712542539 89.9497526296344 42.7132088700487
      vertex -264.040667580373 89.3190443461991 42.7132088700487
   endloop
endfacet
facet normal -0.707106781186548 0.707106781186548 0.0
   outer loop
      vertex -263.218712542539 89.9497526296344 42.7132088700487
      vertex -264.040667580373 89.3190443461991 54.6194588700487
      vertex -263.218712542539 89.9497526296344 54.6194588700487
   endloop
endfacet
facet normal -0.500000000000001 0.866025403784438 0.0
   outer loop
      vertex -263.218712542539 89.9497526296344 54.6194588700487
      vertex -262.26152562779 90.3462324314497 42.7132088700487
      vertex -263.218712542539 89.9497526296344 42.7132088700487
   endloop
endfacet
facet normal -0.500000000000001 0.866025403784438 0.0
   outer loop
      vertex -262.26152562779 90.3462324314497 42.7132088700487
      vertex -263.218712542539 89.9497526296344 54.6194588700487
      vertex -262.26152562779 90.3462324314497 54.6194588700487
   endloop
endfacet
facet normal -0.258819045102519 0.965925826289069 0.0
   outer loop
      vertex -262.26152562779 90.3462324314497 54.6194588700487
      vertex -261.234337542539 90.481464308365 42.7132088700487
      vertex -262.26152562779 90.3462324314497 42.7132088700487
   endloop
endfacet
facet normal -0.258819045102519 0.965925826289069 0.0
   outer loop
      vertex -261.234337542539 90.481464308365 42.7132088700487
      vertex -262.26152562779 90.3462324314497 54.6194588700487
      vertex -261.234337542539 90.481464308365 54.6194588700487
   endloop
endfacet
facet normal 0.0 1.0 0.0
   outer loop
      vertex -261.234337542539 90.481464308365 54.6194588700487
      vertex -260.207149457288 90.3462324314497 42.7132088700487
      vertex -261.234337542539 90.481464308365 42.7132088700487
   endloop
endfacet
facet normal 0.0 1.0 0.0
   outer loop
      vertex -260.207149457288 90.3462324314497 42.7132088700487
      vertex -261.234337542539 90.481464308365 54.6194588700487
      vertex -260.207149457288 90.3462324314497 54.6194588700487
   endloop
endfacet
facet normal 0.258819045102519 0.965925826289069 0.0
   outer loop
      vertex -260.207149457288 90.3462324314497 54.6194588700487
      vertex -259.249962542539 89.9497526296344 42.7132088700487
      vertex -260.207149457288 90.3462324314497 42.7132088700487
   endloop
endfacet
facet normal 0.258819045102519 0.965925826289069 0.0
   outer loop
      vertex -259.249962542539 89.9497526296344 42.7132088700487
      vertex -260.207149457288 90.3462324314497 54.6194588700487
      vertex -259.249962542539 89.9497526296344 54.6194588700487
   endloop
endfacet
facet normal 0.500000000000001 0.866025403784438 0.0
   outer loop
      vertex -259.249962542539 89.9497526296344 54.6194588700487
      vertex -258.428007504705 89.3190443461991 42.7132088700487
      vertex -259.249962542539 89.9497526296344 42.7132088700487
   endloop
endfacet
facet normal 0.500000000000001 0.866025403784438 0.0
   outer loop
      vertex -258.428007504705 89.3190443461991 42.7132088700487
      vertex -259.249962542539 89.9497526296344 54.6194588700487
      vertex -258.428007504705 89.3190443461991 54.6194588700487
   endloop
endfacet
facet normal 0.707106781186548 0.707106781186548 0.0
   outer loop
      vertex -258.428007504705 89.3190443461991 42.7132088700487
      vertex -257.797299221269 88.497089308365 54.6194588700487
      vertex -257.797299221269 88.497089308365 42.7132088700487
   endloop
endfacet
facet normal 0.707106781186548 0.707106781186548 0.0
   outer loop
      vertex -257.797299221269 88.497089308365 54.6194588700487
      vertex -258.428007504705 89.3190443461991 42.7132088700487
      vertex -258.428007504705 89.3190443461991 54.6194588700487
   endloop
endfacet
facet normal 0.866025403784438 0.500000000000001 0.0
   outer loop
      vertex -257.797299221269 88.497089308365 42.7132088700487
      vertex -257.400819419454 87.5399023936156 54.6194588700487
      vertex -257.400819419454 87.5399023936156 42.7132088700487
   endloop
endfacet
facet normal 0.866025403784438 0.500000000000001 0.0
   outer loop
      vertex -257.400819419454 87.5399023936156 54.6194588700487
      vertex -257.797299221269 88.497089308365 42.7132088700487
      vertex -257.797299221269 88.497089308365 54.6194588700487
   endloop
endfacet
facet normal 0.965925826289069 0.258819045102519 0.0
   outer loop
      vertex -257.400819419454 87.5399023936156 42.7132088700487
      vertex -257.265587542539 86.512714308365 54.6194588700487
      vertex -257.265587542539 86.512714308365 42.7132088700487
   endloop
endfacet
facet normal 0.965925826289069 0.258819045102519 0.0
   outer loop
      vertex -257.265587542539 86.512714308365 54.6194588700487
      vertex -257.400819419454 87.5399023936156 42.7132088700487
      vertex -257.400819419454 87.5399023936156 54.6194588700487
   endloop
endfacet
facet normal 1.0 0.0 0.0
   outer loop
      vertex -257.265587542539 86.512714308365 42.7132088700487
      vertex -257.400819419454 85.4855262231143 54.6194588700487
      vertex -257.400819419454 85.4855262231143 42.7132088700487
   endloop
endfacet
facet normal 1.0 0.0 0.0
   outer loop
      vertex -257.400819419454 85.4855262231143 54.6194588700487
      vertex -257.265587542539 86.512714308365 42.7132088700487
      vertex -257.265587542539 86.512714308365 54.6194588700487
   endloop
endfacet
facet normal 0.965925826289069 -0.258819045102519 0.0
   outer loop
      vertex -257.400819419454 85.4855262231143 42.7132088700487
      vertex -257.797299221269 84.528339308365 54.6194588700487
      vertex -257.797299221269 84.528339308365 42.7132088700487
   endloop
endfacet
facet normal 0.965925826289069 -0.258819045102519 0.0
   outer loop
      vertex -257.797299221269 84.528339308365 54.6194588700487
      vertex -257.400819419454 85.4855262231143 42.7132088700487
      vertex -257.400819419454 85.4855262231143 54.6194588700487
   endloop
endfacet
facet normal 0.866025403784438 -0.500000000000001 0.0
   outer loop
      vertex -257.797299221269 84.528339308365 42.7132088700487
      vertex -258.428007504705 83.7063842705308 54.6194588700487
      vertex -258.428007504705 83.7063842705308 42.7132088700487
   endloop
endfacet
facet normal 0.866025403784438 -0.500000000000001 0.0
   outer loop
      vertex -258.428007504705 83.7063842705308 54.6194588700487
      vertex -257.797299221269 84.528339308365 42.7132088700487
      vertex -257.797299221269 84.528339308365 54.6194588700487
   endloop
endfacet
facet normal 0.707106781186548 -0.707106781186548 0.0
   outer loop
      vertex -258.428007504705 83.7063842705308 54.6194588700487
      vertex -259.249962542539 83.0756759870955 42.7132088700487
      vertex -258.428007504705 83.7063842705308 42.7132088700487
   endloop
endfacet
facet normal 0.707106781186548 -0.707106781186548 0.0
   outer loop
      vertex -259.249962542539 83.0756759870955 42.7132088700487
      vertex -258.428007504705 83.7063842705308 54.6194588700487
      vertex -259.249962542539 83.0756759870955 54.6194588700487
   endloop
endfacet
facet normal 0.500000000000001 -0.866025403784438 0.0
   outer loop
      vertex -259.249962542539 83.0756759870955 54.6194588700487
      vertex -260.207149457288 82.6791961852802 42.7132088700487
      vertex -259.249962542539 83.0756759870955 42.7132088700487
   endloop
endfacet
facet normal 0.500000000000001 -0.866025403784438 0.0
   outer loop
      vertex -260.207149457288 82.6791961852802 42.7132088700487
      vertex -259.249962542539 83.0756759870955 54.6194588700487
      vertex -260.207149457288 82.6791961852802 54.6194588700487
   endloop
endfacet
facet normal 0.258819045102519 -0.965925826289069 0.0
   outer loop
      vertex -260.207149457288 82.6791961852802 54.6194588700487
      vertex -261.234337542539 82.543964308365 42.7132088700487
      vertex -260.207149457288 82.6791961852802 42.7132088700487
   endloop
endfacet
facet normal 0.258819045102519 -0.965925826289069 0.0
   outer loop
      vertex -261.234337542539 82.543964308365 42.7132088700487
      vertex -260.207149457288 82.6791961852802 54.6194588700487
      vertex -261.234337542539 82.543964308365 54.6194588700487
   endloop
endfacet
facet normal 0.0 0.0 1.0
   outer loop
      vertex -265.067855665624 85.4855262231143 54.6194588700487
      vertex -265.067855665624 87.5399023936156 54.6194588700487
      vertex -265.203087542539 86.512714308365 54.6194588700487
   endloop
endfacet
facet normal 0.0 0.0 1.0
   outer loop
      vertex -265.067855665624 87.5399023936156 54.6194588700487
      vertex -265.067855665624 85.4855262231143 54.6194588700487
      vertex -264.671375863808 84.528339308365 54.6194588700487
   endloop
endfacet
facet normal 0.0 0.0 1.0
   outer loop
      vertex -265.067855665624 87.5399023936156 54.6194588700487
      vertex -264.671375863808 84.528339308365 54.6194588700487
      vertex -264.671375863808 88.497089308365 54.6194588700487
   endloop
endfacet
facet normal 0.0 0.0 1.0
   outer loop
      vertex -264.671375863808 88.497089308365 54.6194588700487
      vertex -264.671375863808 84.528339308365 54.6194588700487
      vertex -264.040667580373 83.7063842705308 54.6194588700487
   endloop
endfacet
facet normal 0.0 0.0 1.0
   outer loop
      vertex -264.671375863808 88.497089308365 54.6194588700487
      vertex -264.040667580373 83.7063842705308 54.6194588700487
      vertex -264.040667580373 89.3190443461991 54.6194588700487
   endloop
endfacet
facet normal 0.0 0.0 1.0
   outer loop
      vertex -264.040667580373 89.3190443461991 54.6194588700487
      vertex -264.040667580373 83.7063842705308 54.6194588700487
      vertex -263.218712542539 83.0756759870955 54.6194588700487
   endloop
endfacet
facet normal 0.0 0.0 1.0
   outer loop
      vertex -264.040667580373 89.3190443461991 54.6194588700487
      vertex -263.218712542539 83.0756759870955 54.6194588700487
      vertex -263.417150042539 86.512714308365 54.6194588700487
   endloop
endfacet
facet normal 0.0 0.0 1.0
   outer loop
      vertex -263.417150042539 86.512714308365 54.6194588700487
      vertex -263.218712542539 83.0756759870955 54.6194588700487
      vertex -263.342772510236 85.9477608614771 54.6194588700487
   endloop
endfacet
facet normal 0.0 0.0 1.0
   outer loop
      vertex -263.342772510236 85.9477608614771 54.6194588700487
      vertex -263.218712542539 83.0756759870955 54.6194588700487
      vertex -263.124708619237 85.421308058365 54.6194588700487
   endloop
endfacet
facet normal 0.0 0.0 1.0
   outer loop
      vertex -263.124708619237 85.421308058365 54.6194588700487
      vertex -263.218712542539 83.0756759870955 54.6194588700487
      vertex -262.26152562779 82.6791961852802 54.6194588700487
   endloop
endfacet
facet normal 0.0 0.0 1.0
   outer loop
      vertex -263.124708619237 85.421308058365 54.6194588700487
      vertex -262.26152562779 82.6791961852802 54.6194588700487
      vertex -262.777819063348 84.9692327875562 54.6194588700487
   endloop
endfacet
facet normal 0.0 0.0 1.0
   outer loop
      vertex -262.777819063348 84.9692327875562 54.6194588700487
      vertex -262.26152562779 82.6791961852802 54.6194588700487
      vertex -262.325743792539 84.6223432316667 54.6194588700487
   endloop
endfacet
facet normal 0.0 0.0 1.0
   outer loop
      vertex -262.325743792539 84.6223432316667 54.6194588700487
      vertex -262.26152562779 82.6791961852802 54.6194588700487
      vertex -261.799290989427 84.4042793406684 54.6194588700487
   endloop
endfacet
facet normal 0.0 0.0 1.0
   outer loop
      vertex -261.799290989427 84.4042793406684 54.6194588700487
      vertex -262.26152562779 82.6791961852802 54.6194588700487
      vertex -261.234337542539 82.543964308365 54.6194588700487
   endloop
endfacet
facet normal 0.0 0.0 1.0
   outer loop
      vertex -261.799290989427 84.4042793406684 54.6194588700487
      vertex -261.234337542539 82.543964308365 54.6194588700487
      vertex -261.234337542539 84.329901808365 54.6194588700487
   endloop
endfacet
facet normal 0.0 0.0 1.0
   outer loop
      vertex -261.234337542539 84.329901808365 54.6194588700487
      vertex -261.234337542539 82.543964308365 54.6194588700487
      vertex -260.207149457288 82.6791961852802 54.6194588700487
   endloop
endfacet
facet normal 0.0 0.0 1.0
   outer loop
      vertex -261.234337542539 84.329901808365 54.6194588700487
      vertex -260.207149457288 82.6791961852802 54.6194588700487
      vertex -260.669384095651 84.4042793406684 54.6194588700487
   endloop
endfacet
facet normal 0.0 0.0 1.0
   outer loop
      vertex -260.669384095651 84.4042793406684 54.6194588700487
      vertex -260.207149457288 82.6791961852802 54.6194588700487
      vertex -260.142931292539 84.6223432316667 54.6194588700487
   endloop
endfacet
facet normal 0.0 0.0 1.0
   outer loop
      vertex -260.142931292539 84.6223432316667 54.6194588700487
      vertex -260.207149457288 82.6791961852802 54.6194588700487
      vertex -259.249962542539 83.0756759870955 54.6194588700487
   endloop
endfacet
facet normal 0.0 0.0 1.0
   outer loop
      vertex -260.142931292539 84.6223432316667 54.6194588700487
      vertex -259.249962542539 83.0756759870955 54.6194588700487
      vertex -259.69085602173 84.9692327875562 54.6194588700487
   endloop
endfacet
facet normal 0.0 0.0 1.0
   outer loop
      vertex -259.69085602173 84.9692327875562 54.6194588700487
      vertex -259.249962542539 83.0756759870955 54.6194588700487
      vertex -259.343966465841 85.421308058365 54.6194588700487
   endloop
endfacet
facet normal 0.0 0.0 1.0
   outer loop
      vertex -259.343966465841 85.421308058365 54.6194588700487
      vertex -259.249962542539 83.0756759870955 54.6194588700487
      vertex -259.125902574842 85.9477608614771 54.6194588700487
   endloop
endfacet
facet normal 0.0 0.0 1.0
   outer loop
      vertex -259.125902574842 85.9477608614771 54.6194588700487
      vertex -259.249962542539 83.0756759870955 54.6194588700487
      vertex -258.428007504705 83.7063842705308 54.6194588700487
   endloop
endfacet
facet normal 0.0 0.0 1.0
   outer loop
      vertex -259.125902574842 85.9477608614771 54.6194588700487
      vertex -258.428007504705 83.7063842705308 54.6194588700487
      vertex -259.051525042539 86.512714308365 54.6194588700487
   endloop
endfacet
facet normal 0.0 0.0 1.0
   outer loop
      vertex -263.417150042539 86.512714308365 54.6194588700487
      vertex -263.218712542539 89.9497526296344 54.6194588700487
      vertex -264.040667580373 89.3190443461991 54.6194588700487
   endloop
endfacet
facet normal 0.0 0.0 1.0
   outer loop
      vertex -263.218712542539 89.9497526296344 54.6194588700487
      vertex -263.417150042539 86.512714308365 54.6194588700487
      vertex -263.342772510236 87.0776677552528 54.6194588700487
   endloop
endfacet
facet normal 0.0 0.0 1.0
   outer loop
      vertex -263.218712542539 89.9497526296344 54.6194588700487
      vertex -263.342772510236 87.0776677552528 54.6194588700487
      vertex -263.124708619237 87.604120558365 54.6194588700487
   endloop
endfacet
facet normal 0.0 0.0 1.0
   outer loop
      vertex -263.218712542539 89.9497526296344 54.6194588700487
      vertex -263.124708619237 87.604120558365 54.6194588700487
      vertex -262.26152562779 90.3462324314497 54.6194588700487
   endloop
endfacet
facet normal 0.0 0.0 1.0
   outer loop
      vertex -262.26152562779 90.3462324314497 54.6194588700487
      vertex -263.124708619237 87.604120558365 54.6194588700487
      vertex -262.777819063348 88.0561958291737 54.6194588700487
   endloop
endfacet
facet normal 0.0 0.0 1.0
   outer loop
      vertex -262.26152562779 90.3462324314497 54.6194588700487
      vertex -262.777819063348 88.0561958291737 54.6194588700487
      vertex -262.325743792539 88.4030853850632 54.6194588700487
   endloop
endfacet
facet normal 0.0 0.0 1.0
   outer loop
      vertex -262.26152562779 90.3462324314497 54.6194588700487
      vertex -262.325743792539 88.4030853850632 54.6194588700487
      vertex -261.799290989427 88.6211492760616 54.6194588700487
   endloop
endfacet
facet normal 0.0 0.0 1.0
   outer loop
      vertex -262.26152562779 90.3462324314497 54.6194588700487
      vertex -261.799290989427 88.6211492760616 54.6194588700487
      vertex -261.234337542539 90.481464308365 54.6194588700487
   endloop
endfacet
facet normal 0.0 0.0 1.0
   outer loop
      vertex -261.234337542539 90.481464308365 54.6194588700487
      vertex -261.799290989427 88.6211492760616 54.6194588700487
      vertex -261.234337542539 88.695526808365 54.6194588700487
   endloop
endfacet
facet normal 0.0 0.0 1.0
   outer loop
      vertex -261.234337542539 90.481464308365 54.6194588700487
      vertex -261.234337542539 88.695526808365 54.6194588700487
      vertex -260.669384095651 88.6211492760616 54.6194588700487
   endloop
endfacet
facet normal 0.0 0.0 1.0
   outer loop
      vertex -261.234337542539 90.481464308365 54.6194588700487
      vertex -260.669384095651 88.6211492760616 54.6194588700487
      vertex -260.207149457288 90.3462324314497 54.6194588700487
   endloop
endfacet
facet normal 0.0 0.0 1.0
   outer loop
      vertex -260.207149457288 90.3462324314497 54.6194588700487
      vertex -260.669384095651 88.6211492760616 54.6194588700487
      vertex -260.142931292539 88.4030853850632 54.6194588700487
   endloop
endfacet
facet normal 0.0 0.0 1.0
   outer loop
      vertex -260.207149457288 90.3462324314497 54.6194588700487
      vertex -260.142931292539 88.4030853850632 54.6194588700487
      vertex -259.249962542539 89.9497526296344 54.6194588700487
   endloop
endfacet
facet normal 0.0 0.0 1.0
   outer loop
      vertex -259.249962542539 89.9497526296344 54.6194588700487
      vertex -260.142931292539 88.4030853850632 54.6194588700487
      vertex -259.69085602173 88.0561958291737 54.6194588700487
   endloop
endfacet
facet normal 0.0 0.0 1.0
   outer loop
      vertex -259.249962542539 89.9497526296344 54.6194588700487
      vertex -259.69085602173 88.0561958291737 54.6194588700487
      vertex -259.343966465841 87.604120558365 54.6194588700487
   endloop
endfacet
facet normal 0.0 0.0 1.0
   outer loop
      vertex -259.249962542539 89.9497526296344 54.6194588700487
      vertex -259.343966465841 87.604120558365 54.6194588700487
      vertex -259.125902574842 87.0776677552528 54.6194588700487
   endloop
endfacet
facet normal 0.0 0.0 1.0
   outer loop
      vertex -259.249962542539 89.9497526296344 54.6194588700487
      vertex -259.125902574842 87.0776677552528 54.6194588700487
      vertex -258.428007504705 89.3190443461991 54.6194588700487
   endloop
endfacet
facet normal 0.0 0.0 1.0
   outer loop
      vertex -258.428007504705 89.3190443461991 54.6194588700487
      vertex -259.125902574842 87.0776677552528 54.6194588700487
      vertex -259.051525042539 86.512714308365 54.6194588700487
   endloop
endfacet
facet normal 0.0 0.0 1.0
   outer loop
      vertex -258.428007504705 89.3190443461991 54.6194588700487
      vertex -259.051525042539 86.512714308365 54.6194588700487
      vertex -258.428007504705 83.7063842705308 54.6194588700487
   endloop
endfacet
facet normal 0.0 0.0 1.0
   outer loop
      vertex -258.428007504705 89.3190443461991 54.6194588700487
      vertex -258.428007504705 83.7063842705308 54.6194588700487
      vertex -257.797299221269 84.528339308365 54.6194588700487
   endloop
endfacet
facet normal 0.0 0.0 1.0
   outer loop
      vertex -258.428007504705 89.3190443461991 54.6194588700487
      vertex -257.797299221269 84.528339308365 54.6194588700487
      vertex -257.797299221269 88.497089308365 54.6194588700487
   endloop
endfacet
facet normal 0.0 0.0 1.0
   outer loop
      vertex -257.797299221269 88.497089308365 54.6194588700487
      vertex -257.797299221269 84.528339308365 54.6194588700487
      vertex -257.400819419454 85.4855262231143 54.6194588700487
   endloop
endfacet
facet normal 0.0 0.0 1.0
   outer loop
      vertex -257.797299221269 88.497089308365 54.6194588700487
      vertex -257.400819419454 85.4855262231143 54.6194588700487
      vertex -257.400819419454 87.5399023936156 54.6194588700487
   endloop
endfacet
facet normal 0.0 0.0 1.0
   outer loop
      vertex -257.400819419454 87.5399023936156 54.6194588700487
      vertex -257.400819419454 85.4855262231143 54.6194588700487
      vertex -257.265587542539 86.512714308365 54.6194588700487
   endloop
endfacet
facet normal 0.258819045102518 -0.965925826289069 2.95517838021115e-019
   outer loop
      vertex -261.799290989427 88.6211492760616 54.6194588700487
      vertex -262.325743792539 88.4030853850632 41.1218226700487
      vertex -261.799290989427 88.6211492760616 41.1218226700487
   endloop
endfacet
facet normal 0.258819045102518 -0.965925826289069 2.95517838021115e-019
   outer loop
      vertex -262.325743792539 88.4030853850632 41.1218226700487
      vertex -261.799290989427 88.6211492760616 54.6194588700487
      vertex -262.325743792539 88.4030853850632 54.6194588700487
   endloop
endfacet
facet normal 0.499999999999999 -0.866025403784439 4.37057182711143e-019
   outer loop
      vertex -262.325743792539 88.4030853850632 54.6194588700487
      vertex -262.777819063348 88.0561958291737 41.1218226700487
      vertex -262.325743792539 88.4030853850632 41.1218226700487
   endloop
endfacet
facet normal 0.499999999999999 -0.866025403784439 4.37057182711143e-019
   outer loop
      vertex -262.777819063348 88.0561958291737 41.1218226700487
      vertex -262.325743792539 88.4030853850632 54.6194588700487
      vertex -262.777819063348 88.0561958291737 54.6194588700487
   endloop
endfacet
facet normal 0.707106781186548 -0.707106781186548 0.0
   outer loop
      vertex -262.777819063348 88.0561958291737 41.1218226700487
      vertex -263.124708619237 87.604120558365 54.6194588700487
      vertex -263.124708619237 87.604120558365 41.1218226700487
   endloop
endfacet
facet normal 0.707106781186548 -0.707106781186548 0.0
   outer loop
      vertex -263.124708619237 87.604120558365 54.6194588700487
      vertex -262.777819063348 88.0561958291737 41.1218226700487
      vertex -262.777819063348 88.0561958291737 54.6194588700487
   endloop
endfacet
facet normal 0.866025403784439 -0.499999999999999 -4.37057182711143e-019
   outer loop
      vertex -263.124708619237 87.604120558365 41.1218226700487
      vertex -263.342772510236 87.0776677552528 54.6194588700487
      vertex -263.342772510236 87.0776677552528 41.1218226700487
   endloop
endfacet
facet normal 0.866025403784439 -0.499999999999999 -4.37057182711143e-019
   outer loop
      vertex -263.342772510236 87.0776677552528 54.6194588700487
      vertex -263.124708619237 87.604120558365 41.1218226700487
      vertex -263.124708619237 87.604120558365 54.6194588700487
   endloop
endfacet
facet normal 0.965925826289069 -0.258819045102518 -2.8798511682854e-019
   outer loop
      vertex -263.342772510236 87.0776677552528 41.1218226700487
      vertex -263.417150042539 86.512714308365 54.6194588700487
      vertex -263.417150042539 86.512714308365 41.1218226700487
   endloop
endfacet
facet normal 0.965925826289069 -0.258819045102518 -2.8798511682854e-019
   outer loop
      vertex -263.417150042539 86.512714308365 54.6194588700487
      vertex -263.342772510236 87.0776677552528 41.1218226700487
      vertex -263.342772510236 87.0776677552528 54.6194588700487
   endloop
endfacet
facet normal 1.0 8.91110989564691e-018 1.49072065882603e-019
   outer loop
      vertex -263.417150042539 86.512714308365 41.1218226700487
      vertex -263.342772510236 85.9477608614771 54.6194588700487
      vertex -263.342772510236 85.9477608614771 41.1218226700487
   endloop
endfacet
facet normal 1.0 8.91110989564691e-018 1.49072065882603e-019
   outer loop
      vertex -263.342772510236 85.9477608614771 54.6194588700487
      vertex -263.417150042539 86.512714308365 41.1218226700487
      vertex -263.417150042539 86.512714308365 54.6194588700487
   endloop
endfacet
facet normal 0.965925826289069 0.258819045102518 0.0
   outer loop
      vertex -263.342772510236 85.9477608614771 41.1218226700487
      vertex -263.124708619237 85.421308058365 54.6194588700487
      vertex -263.124708619237 85.421308058365 41.1218226700487
   endloop
endfacet
facet normal 0.965925826289069 0.258819045102518 0.0
   outer loop
      vertex -263.124708619237 85.421308058365 54.6194588700487
      vertex -263.342772510236 85.9477608614771 41.1218226700487
      vertex -263.342772510236 85.9477608614771 54.6194588700487
   endloop
endfacet
facet normal 0.86602540378444 0.499999999999999 0.0
   outer loop
      vertex -263.124708619237 85.421308058365 41.1218226700487
      vertex -262.777819063348 84.9692327875562 54.6194588700487
      vertex -262.777819063348 84.9692327875562 41.1218226700487
   endloop
endfacet
facet normal 0.86602540378444 0.499999999999999 0.0
   outer loop
      vertex -262.777819063348 84.9692327875562 54.6194588700487
      vertex -263.124708619237 85.421308058365 41.1218226700487
      vertex -263.124708619237 85.421308058365 54.6194588700487
   endloop
endfacet
facet normal 0.707106781186548 0.707106781186548 0.0
   outer loop
      vertex -262.777819063348 84.9692327875562 54.6194588700487
      vertex -262.325743792539 84.6223432316667 41.1218226700487
      vertex -262.777819063348 84.9692327875562 41.1218226700487
   endloop
endfacet
facet normal 0.707106781186548 0.707106781186548 0.0
   outer loop
      vertex -262.325743792539 84.6223432316667 41.1218226700487
      vertex -262.777819063348 84.9692327875562 54.6194588700487
      vertex -262.325743792539 84.6223432316667 54.6194588700487
   endloop
endfacet
facet normal 0.499999999999999 0.86602540378444 0.0
   outer loop
      vertex -262.325743792539 84.6223432316667 54.6194588700487
      vertex -261.799290989427 84.4042793406684 41.1218226700487
      vertex -262.325743792539 84.6223432316667 41.1218226700487
   endloop
endfacet
facet normal 0.499999999999999 0.86602540378444 0.0
   outer loop
      vertex -261.799290989427 84.4042793406684 41.1218226700487
      vertex -262.325743792539 84.6223432316667 54.6194588700487
      vertex -261.799290989427 84.4042793406684 54.6194588700487
   endloop
endfacet
facet normal 0.258819045102518 0.965925826289069 1.49072065882603e-019
   outer loop
      vertex -261.799290989427 84.4042793406684 54.6194588700487
      vertex -261.234337542539 84.329901808365 41.1218226700487
      vertex -261.799290989427 84.4042793406684 41.1218226700487
   endloop
endfacet
facet normal 0.258819045102518 0.965925826289069 1.49072065882603e-019
   outer loop
      vertex -261.234337542539 84.329901808365 41.1218226700487
      vertex -261.799290989427 84.4042793406684 54.6194588700487
      vertex -261.234337542539 84.329901808365 54.6194588700487
   endloop
endfacet
facet normal 0.0 -1.0 0.0
   outer loop
      vertex -261.234337542539 82.543964308365 54.6194588700487
      vertex -262.26152562779 82.6791961852802 42.7132088700487
      vertex -261.234337542539 82.543964308365 42.7132088700487
   endloop
endfacet
facet normal 0.0 -1.0 0.0
   outer loop
      vertex -262.26152562779 82.6791961852802 42.7132088700487
      vertex -261.234337542539 82.543964308365 54.6194588700487
      vertex -262.26152562779 82.6791961852802 54.6194588700487
   endloop
endfacet
facet normal -0.258819045102519 -0.965925826289069 0.0
   outer loop
      vertex -262.26152562779 82.6791961852802 54.6194588700487
      vertex -263.218712542539 83.0756759870955 42.7132088700487
      vertex -262.26152562779 82.6791961852802 42.7132088700487
   endloop
endfacet
facet normal -0.258819045102519 -0.965925826289069 0.0
   outer loop
      vertex -263.218712542539 83.0756759870955 42.7132088700487
      vertex -262.26152562779 82.6791961852802 54.6194588700487
      vertex -263.218712542539 83.0756759870955 54.6194588700487
   endloop
endfacet
facet normal -0.500000000000001 -0.866025403784438 0.0
   outer loop
      vertex -263.218712542539 83.0756759870955 54.6194588700487
      vertex -264.040667580373 83.7063842705308 42.7132088700487
      vertex -263.218712542539 83.0756759870955 42.7132088700487
   endloop
endfacet
facet normal -0.500000000000001 -0.866025403784438 0.0
   outer loop
      vertex -264.040667580373 83.7063842705308 42.7132088700487
      vertex -263.218712542539 83.0756759870955 54.6194588700487
      vertex -264.040667580373 83.7063842705308 54.6194588700487
   endloop
endfacet
facet normal -0.866025403784438 -0.500000000000001 0.0
   outer loop
      vertex -264.671375863808 84.528339308365 54.6194588700487
      vertex -264.040667580373 83.7063842705308 42.7132088700487
      vertex -264.040667580373 83.7063842705308 54.6194588700487
   endloop
endfacet
facet normal -0.866025403784438 -0.500000000000001 0.0
   outer loop
      vertex -264.040667580373 83.7063842705308 42.7132088700487
      vertex -264.671375863808 84.528339308365 54.6194588700487
      vertex -264.671375863808 84.528339308365 42.7132088700487
   endloop
endfacet
facet normal -0.965925826289069 -0.258819045102519 0.0
   outer loop
      vertex -265.067855665624 85.4855262231143 54.6194588700487
      vertex -264.671375863808 84.528339308365 42.7132088700487
      vertex -264.671375863808 84.528339308365 54.6194588700487
   endloop
endfacet
facet normal -0.965925826289069 -0.258819045102519 0.0
   outer loop
      vertex -264.671375863808 84.528339308365 42.7132088700487
      vertex -265.067855665624 85.4855262231143 54.6194588700487
      vertex -265.067855665624 85.4855262231143 42.7132088700487
   endloop
endfacet
facet normal -1.0 0.0 0.0
   outer loop
      vertex -265.203087542539 86.512714308365 54.6194588700487
      vertex -265.067855665624 85.4855262231143 42.7132088700487
      vertex -265.067855665624 85.4855262231143 54.6194588700487
   endloop
endfacet
facet normal -1.0 0.0 0.0
   outer loop
      vertex -265.067855665624 85.4855262231143 42.7132088700487
      vertex -265.203087542539 86.512714308365 54.6194588700487
      vertex -265.203087542539 86.512714308365 42.7132088700487
   endloop
endfacet
facet normal -0.965925826289069 0.258819045102519 0.0
   outer loop
      vertex -265.067855665624 87.5399023936156 54.6194588700487
      vertex -265.203087542539 86.512714308365 42.7132088700487
      vertex -265.203087542539 86.512714308365 54.6194588700487
   endloop
endfacet
facet normal -0.965925826289069 0.258819045102519 0.0
   outer loop
      vertex -265.203087542539 86.512714308365 42.7132088700487
      vertex -265.067855665624 87.5399023936156 54.6194588700487
      vertex -265.067855665624 87.5399023936156 42.7132088700487
   endloop
endfacet
facet normal 0.0 0.0 1.0
   outer loop
      vertex -264.939305501838 72.685585643846 42.7132088700487
      vertex -265.203087542539 86.512714308365 42.7132088700487
      vertex -268.39178601746 74.1156498972454 42.7132088700487
   endloop
endfacet
facet normal 0.0 0.0 1.0
   outer loop
      vertex -265.203087542539 86.512714308365 42.7132088700487
      vertex -264.939305501838 72.685585643846 42.7132088700487
      vertex -265.067855665624 85.4855262231143 42.7132088700487
   endloop
endfacet
facet normal 0.0 0.0 1.0
   outer loop
      vertex -265.067855665624 85.4855262231143 42.7132088700487
      vertex -264.939305501838 72.685585643846 42.7132088700487
      vertex -264.671375863808 84.528339308365 42.7132088700487
   endloop
endfacet
facet normal 0.0 0.0 1.0
   outer loop
      vertex -264.671375863808 84.528339308365 42.7132088700487
      vertex -264.939305501838 72.685585643846 42.7132088700487
      vertex -261.234337542539 72.197817358523 42.7132088700487
   endloop
endfacet
facet normal 0.0 0.0 1.0
   outer loop
      vertex -264.671375863808 84.528339308365 42.7132088700487
      vertex -261.234337542539 72.197817358523 42.7132088700487
      vertex -264.040667580373 83.7063842705308 42.7132088700487
   endloop
endfacet
facet normal 0.0 0.0 1.0
   outer loop
      vertex -264.040667580373 83.7063842705308 42.7132088700487
      vertex -261.234337542539 72.197817358523 42.7132088700487
      vertex -263.218712542539 83.0756759870955 42.7132088700487
   endloop
endfacet
facet normal 0.0 0.0 1.0
   outer loop
      vertex -263.218712542539 83.0756759870955 42.7132088700487
      vertex -261.234337542539 72.197817358523 42.7132088700487
      vertex -262.26152562779 82.6791961852802 42.7132088700487
   endloop
endfacet
facet normal 0.0 0.0 1.0
   outer loop
      vertex -262.26152562779 82.6791961852802 42.7132088700487
      vertex -261.234337542539 72.197817358523 42.7132088700487
      vertex -261.234337542539 82.543964308365 42.7132088700487
   endloop
endfacet
facet normal 0.0 0.0 1.0
   outer loop
      vertex -261.234337542539 82.543964308365 42.7132088700487
      vertex -261.234337542539 72.197817358523 42.7132088700487
      vertex -257.52936958324 72.685585643846 42.7132088700487
   endloop
endfacet
facet normal 0.0 0.0 1.0
   outer loop
      vertex -261.234337542539 82.543964308365 42.7132088700487
      vertex -257.52936958324 72.685585643846 42.7132088700487
      vertex -260.207149457288 82.6791961852802 42.7132088700487
   endloop
endfacet
facet normal 0.0 0.0 1.0
   outer loop
      vertex -260.207149457288 82.6791961852802 42.7132088700487
      vertex -257.52936958324 72.685585643846 42.7132088700487
      vertex -259.249962542539 83.0756759870955 42.7132088700487
   endloop
endfacet
facet normal 0.0 0.0 1.0
   outer loop
      vertex -259.249962542539 83.0756759870955 42.7132088700487
      vertex -257.52936958324 72.685585643846 42.7132088700487
      vertex -258.428007504705 83.7063842705308 42.7132088700487
   endloop
endfacet
facet normal 0.0 0.0 1.0
   outer loop
      vertex -258.428007504705 83.7063842705308 42.7132088700487
      vertex -257.52936958324 72.685585643846 42.7132088700487
      vertex -257.797299221269 84.528339308365 42.7132088700487
   endloop
endfacet
facet normal 0.0 0.0 1.0
   outer loop
      vertex -257.797299221269 84.528339308365 42.7132088700487
      vertex -257.52936958324 72.685585643846 42.7132088700487
      vertex -257.400819419454 85.4855262231143 42.7132088700487
   endloop
endfacet
facet normal 0.0 0.0 1.0
   outer loop
      vertex -257.400819419454 85.4855262231143 42.7132088700487
      vertex -257.52936958324 72.685585643846 42.7132088700487
      vertex -254.076889067618 74.1156498972455 42.7132088700487
   endloop
endfacet
facet normal 0.0 0.0 1.0
   outer loop
      vertex -257.400819419454 85.4855262231143 42.7132088700487
      vertex -254.076889067618 74.1156498972455 42.7132088700487
      vertex -257.265587542539 86.512714308365 42.7132088700487
   endloop
endfacet
facet normal 0.0 0.0 1.0
   outer loop
      vertex -257.265587542539 86.512714308365 42.7132088700487
      vertex -254.076889067618 74.1156498972455 42.7132088700487
      vertex -254.076889067618 98.9097787194845 42.7132088700487
   endloop
endfacet
facet normal 0.0 0.0 1.0
   outer loop
      vertex -254.076889067618 98.9097787194845 42.7132088700487
      vertex -254.076889067618 74.1156498972455 42.7132088700487
      vertex -251.112176837319 96.6348750135848 42.7132088700487
   endloop
endfacet
facet normal 0.0 0.0 1.0
   outer loop
      vertex -251.112176837319 96.6348750135848 42.7132088700487
      vertex -254.076889067618 74.1156498972455 42.7132088700487
      vertex -251.112176837319 76.390553603145 42.7132088700487
   endloop
endfacet
facet normal 0.0 0.0 1.0
   outer loop
      vertex -251.112176837319 96.6348750135848 42.7132088700487
      vertex -251.112176837319 76.390553603145 42.7132088700487
      vertex -248.837273131419 79.3552658334439 42.7132088700487
   endloop
endfacet
facet normal 0.0 0.0 1.0
   outer loop
      vertex -251.112176837319 96.6348750135848 42.7132088700487
      vertex -248.837273131419 79.3552658334439 42.7132088700487
      vertex -248.837273131419 93.670162783286 42.7132088700487
   endloop
endfacet
facet normal 0.0 0.0 1.0
   outer loop
      vertex -248.837273131419 93.670162783286 42.7132088700487
      vertex -248.837273131419 79.3552658334439 42.7132088700487
      vertex -247.40720887802 90.2176822676641 42.7132088700487
   endloop
endfacet
facet normal 0.0 0.0 1.0
   outer loop
      vertex -247.40720887802 90.2176822676641 42.7132088700487
      vertex -248.837273131419 79.3552658334439 42.7132088700487
      vertex -247.40720887802 82.8077463490658 42.7132088700487
   endloop
endfacet
facet normal 0.0 0.0 1.0
   outer loop
      vertex -247.40720887802 90.2176822676641 42.7132088700487
      vertex -247.40720887802 82.8077463490658 42.7132088700487
      vertex -246.919440592697 86.5127143083649 42.7132088700487
   endloop
endfacet
facet normal 0.0 0.0 1.0
   outer loop
      vertex -275.061466207058 82.8077463490659 42.7132088700487
      vertex -275.061466207058 90.217682267664 42.7132088700487
      vertex -275.549234492381 86.512714308365 42.7132088700487
   endloop
endfacet
facet normal 0.0 0.0 1.0
   outer loop
      vertex -275.061466207058 90.217682267664 42.7132088700487
      vertex -275.061466207058 82.8077463490659 42.7132088700487
      vertex -273.631401953658 79.3552658334439 42.7132088700487
   endloop
endfacet
facet normal 0.0 0.0 1.0
   outer loop
      vertex -275.061466207058 90.217682267664 42.7132088700487
      vertex -273.631401953658 79.3552658334439 42.7132088700487
      vertex -273.631401953659 93.670162783286 42.7132088700487
   endloop
endfacet
facet normal 0.0 0.0 1.0
   outer loop
      vertex -273.631401953659 93.670162783286 42.7132088700487
      vertex -273.631401953658 79.3552658334439 42.7132088700487
      vertex -271.356498247759 96.6348750135848 42.7132088700487
   endloop
endfacet
facet normal 0.0 0.0 1.0
   outer loop
      vertex -271.356498247759 96.6348750135848 42.7132088700487
      vertex -273.631401953658 79.3552658334439 42.7132088700487
      vertex -271.356498247759 76.3905536031451 42.7132088700487
   endloop
endfacet
facet normal 0.0 0.0 1.0
   outer loop
      vertex -271.356498247759 96.6348750135848 42.7132088700487
      vertex -271.356498247759 76.3905536031451 42.7132088700487
      vertex -268.39178601746 74.1156498972454 42.7132088700487
   endloop
endfacet
facet normal 0.0 0.0 1.0
   outer loop
      vertex -271.356498247759 96.6348750135848 42.7132088700487
      vertex -268.39178601746 74.1156498972454 42.7132088700487
      vertex -268.39178601746 98.9097787194845 42.7132088700487
   endloop
endfacet
facet normal 0.0 0.0 1.0
   outer loop
      vertex -268.39178601746 98.9097787194845 42.7132088700487
      vertex -268.39178601746 74.1156498972454 42.7132088700487
      vertex -264.939305501838 100.339842972884 42.7132088700487
   endloop
endfacet
facet normal 0.0 0.0 1.0
   outer loop
      vertex -264.939305501838 100.339842972884 42.7132088700487
      vertex -268.39178601746 74.1156498972454 42.7132088700487
      vertex -265.203087542539 86.512714308365 42.7132088700487
   endloop
endfacet
facet normal 0.0 0.0 1.0
   outer loop
      vertex -264.939305501838 100.339842972884 42.7132088700487
      vertex -265.203087542539 86.512714308365 42.7132088700487
      vertex -265.067855665624 87.5399023936156 42.7132088700487
   endloop
endfacet
facet normal 0.0 0.0 1.0
   outer loop
      vertex -264.939305501838 100.339842972884 42.7132088700487
      vertex -265.067855665624 87.5399023936156 42.7132088700487
      vertex -264.671375863808 88.497089308365 42.7132088700487
   endloop
endfacet
facet normal 0.0 0.0 1.0
   outer loop
      vertex -264.939305501838 100.339842972884 42.7132088700487
      vertex -264.671375863808 88.497089308365 42.7132088700487
      vertex -261.234337542539 100.827611258207 42.7132088700487
   endloop
endfacet
facet normal 0.0 0.0 1.0
   outer loop
      vertex -261.234337542539 100.827611258207 42.7132088700487
      vertex -264.671375863808 88.497089308365 42.7132088700487
      vertex -264.040667580373 89.3190443461991 42.7132088700487
   endloop
endfacet
facet normal 0.0 0.0 1.0
   outer loop
      vertex -261.234337542539 100.827611258207 42.7132088700487
      vertex -264.040667580373 89.3190443461991 42.7132088700487
      vertex -263.218712542539 89.9497526296344 42.7132088700487
   endloop
endfacet
facet normal 0.0 0.0 1.0
   outer loop
      vertex -261.234337542539 100.827611258207 42.7132088700487
      vertex -263.218712542539 89.9497526296344 42.7132088700487
      vertex -262.26152562779 90.3462324314497 42.7132088700487
   endloop
endfacet
facet normal 0.0 0.0 1.0
   outer loop
      vertex -261.234337542539 100.827611258207 42.7132088700487
      vertex -262.26152562779 90.3462324314497 42.7132088700487
      vertex -261.234337542539 90.481464308365 42.7132088700487
   endloop
endfacet
facet normal 0.0 0.0 1.0
   outer loop
      vertex -261.234337542539 100.827611258207 42.7132088700487
      vertex -261.234337542539 90.481464308365 42.7132088700487
      vertex -260.207149457288 90.3462324314497 42.7132088700487
   endloop
endfacet
facet normal 0.0 0.0 1.0
   outer loop
      vertex -261.234337542539 100.827611258207 42.7132088700487
      vertex -260.207149457288 90.3462324314497 42.7132088700487
      vertex -257.52936958324 100.339842972884 42.7132088700487
   endloop
endfacet
facet normal 0.0 0.0 1.0
   outer loop
      vertex -257.52936958324 100.339842972884 42.7132088700487
      vertex -260.207149457288 90.3462324314497 42.7132088700487
      vertex -259.249962542539 89.9497526296344 42.7132088700487
   endloop
endfacet
facet normal 0.0 0.0 1.0
   outer loop
      vertex -257.52936958324 100.339842972884 42.7132088700487
      vertex -259.249962542539 89.9497526296344 42.7132088700487
      vertex -258.428007504705 89.3190443461991 42.7132088700487
   endloop
endfacet
facet normal 0.0 0.0 1.0
   outer loop
      vertex -257.52936958324 100.339842972884 42.7132088700487
      vertex -258.428007504705 89.3190443461991 42.7132088700487
      vertex -257.797299221269 88.497089308365 42.7132088700487
   endloop
endfacet
facet normal 0.0 0.0 1.0
   outer loop
      vertex -257.52936958324 100.339842972884 42.7132088700487
      vertex -257.797299221269 88.497089308365 42.7132088700487
      vertex -257.400819419454 87.5399023936156 42.7132088700487
   endloop
endfacet
facet normal 0.0 0.0 1.0
   outer loop
      vertex -257.52936958324 100.339842972884 42.7132088700487
      vertex -257.400819419454 87.5399023936156 42.7132088700487
      vertex -254.076889067618 98.9097787194845 42.7132088700487
   endloop
endfacet
facet normal 0.0 0.0 1.0
   outer loop
      vertex -254.076889067618 98.9097787194845 42.7132088700487
      vertex -257.400819419454 87.5399023936156 42.7132088700487
      vertex -257.265587542539 86.512714308365 42.7132088700487
   endloop
endfacet
facet normal 0.0 0.0 -1.0
   outer loop
      vertex -275.061466207058 90.217682267664 41.1257088700487
      vertex -275.061466207058 82.8077463490659 41.1257088700487
      vertex -275.549234492381 86.512714308365 41.1257088700487
   endloop
endfacet
facet normal 0.0 0.0 -1.0
   outer loop
      vertex -275.061466207058 82.8077463490659 41.1257088700487
      vertex -275.061466207058 90.217682267664 41.1257088700487
      vertex -273.631401953659 93.670162783286 41.1257088700487
   endloop
endfacet
facet normal 0.0 0.0 -1.0
   outer loop
      vertex -275.061466207058 82.8077463490659 41.1257088700487
      vertex -273.631401953659 93.670162783286 41.1257088700487
      vertex -273.631401953658 79.3552658334439 41.1257088700487
   endloop
endfacet
facet normal 0.0 0.0 -1.0
   outer loop
      vertex -273.631401953658 79.3552658334439 41.1257088700487
      vertex -273.631401953659 93.670162783286 41.1257088700487
      vertex -271.356498247759 96.6348750135848 41.1257088700487
   endloop
endfacet
facet normal 0.0 0.0 -1.0
   outer loop
      vertex -273.631401953658 79.3552658334439 41.1257088700487
      vertex -271.356498247759 96.6348750135848 41.1257088700487
      vertex -271.356498247759 76.3905536031451 41.1257088700487
   endloop
endfacet
facet normal 0.0 0.0 -1.0
   outer loop
      vertex -271.356498247759 76.3905536031451 41.1257088700487
      vertex -271.356498247759 96.6348750135848 41.1257088700487
      vertex -268.39178601746 74.1156498972454 41.1257088700487
   endloop
endfacet
facet normal 0.0 0.0 -1.0
   outer loop
      vertex -268.39178601746 74.1156498972454 41.1257088700487
      vertex -271.356498247759 96.6348750135848 41.1257088700487
      vertex -268.39178601746 98.9097787194845 41.1257088700487
   endloop
endfacet
facet normal 0.0 0.0 -1.0
   outer loop
      vertex -268.39178601746 74.1156498972454 41.1257088700487
      vertex -268.39178601746 98.9097787194845 41.1257088700487
      vertex -264.939305501838 100.339842972884 41.1257088700487
   endloop
endfacet
facet normal 0.0 0.0 -1.0
   outer loop
      vertex -268.39178601746 74.1156498972454 41.1257088700487
      vertex -264.939305501838 100.339842972884 41.1257088700487
      vertex -264.939305501838 72.685585643846 41.1257088700487
   endloop
endfacet
facet normal 0.0 0.0 -1.0
   outer loop
      vertex -264.939305501838 72.685585643846 41.1257088700487
      vertex -264.939305501838 100.339842972884 41.1257088700487
      vertex -263.417150042539 86.512714308365 41.1218226700487
   endloop
endfacet
facet normal 0.0 0.0 -1.0
   outer loop
      vertex -263.417150042539 86.512714308365 41.1218226700487
      vertex -264.939305501838 100.339842972884 41.1257088700487
      vertex -263.342772510236 87.0776677552528 41.1218226700487
   endloop
endfacet
facet normal 0.0 0.0 -1.0
   outer loop
      vertex -263.342772510236 87.0776677552528 41.1218226700487
      vertex -264.939305501838 100.339842972884 41.1257088700487
      vertex -261.234337542539 100.827611258207 41.1257088700487
   endloop
endfacet
facet normal 0.0 0.0 -1.0
   outer loop
      vertex -263.342772510236 87.0776677552528 41.1218226700487
      vertex -261.234337542539 100.827611258207 41.1257088700487
      vertex -263.124708619237 87.604120558365 41.1218226700487
   endloop
endfacet
facet normal 0.0 0.0 -1.0
   outer loop
      vertex -263.124708619237 87.604120558365 41.1218226700487
      vertex -261.234337542539 100.827611258207 41.1257088700487
      vertex -262.777819063348 88.0561958291737 41.1218226700487
   endloop
endfacet
facet normal 0.0 0.0 -1.0
   outer loop
      vertex -262.777819063348 88.0561958291737 41.1218226700487
      vertex -261.234337542539 100.827611258207 41.1257088700487
      vertex -262.325743792539 88.4030853850632 41.1218226700487
   endloop
endfacet
facet normal 0.0 0.0 -1.0
   outer loop
      vertex -262.325743792539 88.4030853850632 41.1218226700487
      vertex -261.234337542539 100.827611258207 41.1257088700487
      vertex -261.799290989427 88.6211492760616 41.1218226700487
   endloop
endfacet
facet normal 0.0 0.0 -1.0
   outer loop
      vertex -261.799290989427 88.6211492760616 41.1218226700487
      vertex -261.234337542539 100.827611258207 41.1257088700487
      vertex -261.234337542539 88.695526808365 41.1218226700487
   endloop
endfacet
facet normal 0.0 0.0 -1.0
   outer loop
      vertex -261.234337542539 88.695526808365 41.1218226700487
      vertex -261.234337542539 100.827611258207 41.1257088700487
      vertex -260.669384095651 88.6211492760616 41.1218226700487
   endloop
endfacet
facet normal 0.0 0.0 -1.0
   outer loop
      vertex -260.669384095651 88.6211492760616 41.1218226700487
      vertex -261.234337542539 100.827611258207 41.1257088700487
      vertex -257.52936958324 100.339842972884 41.1257088700487
   endloop
endfacet
facet normal 0.0 0.0 -1.0
   outer loop
      vertex -260.669384095651 88.6211492760616 41.1218226700487
      vertex -257.52936958324 100.339842972884 41.1257088700487
      vertex -260.142931292539 88.4030853850632 41.1218226700487
   endloop
endfacet
facet normal 0.0 0.0 -1.0
   outer loop
      vertex -260.142931292539 88.4030853850632 41.1218226700487
      vertex -257.52936958324 100.339842972884 41.1257088700487
      vertex -259.69085602173 88.0561958291737 41.1218226700487
   endloop
endfacet
facet normal 0.0 0.0 -1.0
   outer loop
      vertex -259.69085602173 88.0561958291737 41.1218226700487
      vertex -257.52936958324 100.339842972884 41.1257088700487
      vertex -259.343966465841 87.604120558365 41.1218226700487
   endloop
endfacet
facet normal 0.0 0.0 -1.0
   outer loop
      vertex -259.343966465841 87.604120558365 41.1218226700487
      vertex -257.52936958324 100.339842972884 41.1257088700487
      vertex -259.125902574842 87.0776677552528 41.1218226700487
   endloop
endfacet
facet normal 0.0 0.0 -1.0
   outer loop
      vertex -259.125902574842 87.0776677552528 41.1218226700487
      vertex -257.52936958324 100.339842972884 41.1257088700487
      vertex -259.051525042539 86.512714308365 41.1218226700487
   endloop
endfacet
facet normal 0.0 0.0 -1.0
   outer loop
      vertex -264.939305501838 72.685585643846 41.1257088700487
      vertex -263.342772510236 85.9477608614771 41.1218226700487
      vertex -261.234337542539 72.197817358523 41.1257088700487
   endloop
endfacet
facet normal 0.0 0.0 -1.0
   outer loop
      vertex -263.342772510236 85.9477608614771 41.1218226700487
      vertex -264.939305501838 72.685585643846 41.1257088700487
      vertex -263.417150042539 86.512714308365 41.1218226700487
   endloop
endfacet
facet normal 0.0 0.0 -1.0
   outer loop
      vertex -261.234337542539 72.197817358523 41.1257088700487
      vertex -263.342772510236 85.9477608614771 41.1218226700487
      vertex -263.124708619237 85.421308058365 41.1218226700487
   endloop
endfacet
facet normal 0.0 0.0 -1.0
   outer loop
      vertex -261.234337542539 72.197817358523 41.1257088700487
      vertex -263.124708619237 85.421308058365 41.1218226700487
      vertex -262.777819063348 84.9692327875562 41.1218226700487
   endloop
endfacet
facet normal 0.0 0.0 -1.0
   outer loop
      vertex -261.234337542539 72.197817358523 41.1257088700487
      vertex -262.777819063348 84.9692327875562 41.1218226700487
      vertex -262.325743792539 84.6223432316667 41.1218226700487
   endloop
endfacet
facet normal 0.0 0.0 -1.0
   outer loop
      vertex -261.234337542539 72.197817358523 41.1257088700487
      vertex -262.325743792539 84.6223432316667 41.1218226700487
      vertex -261.799290989427 84.4042793406684 41.1218226700487
   endloop
endfacet
facet normal 0.0 0.0 -1.0
   outer loop
      vertex -261.234337542539 72.197817358523 41.1257088700487
      vertex -261.799290989427 84.4042793406684 41.1218226700487
      vertex -261.234337542539 84.329901808365 41.1218226700487
   endloop
endfacet
facet normal 0.0 0.0 -1.0
   outer loop
      vertex -261.234337542539 72.197817358523 41.1257088700487
      vertex -261.234337542539 84.329901808365 41.1218226700487
      vertex -257.52936958324 72.685585643846 41.1257088700487
   endloop
endfacet
facet normal 0.0 0.0 -1.0
   outer loop
      vertex -257.52936958324 72.685585643846 41.1257088700487
      vertex -261.234337542539 84.329901808365 41.1218226700487
      vertex -260.669384095651 84.4042793406684 41.1218226700487
   endloop
endfacet
facet normal 0.0 0.0 -1.0
   outer loop
      vertex -257.52936958324 72.685585643846 41.1257088700487
      vertex -260.669384095651 84.4042793406684 41.1218226700487
      vertex -260.142931292539 84.6223432316667 41.1218226700487
   endloop
endfacet
facet normal 0.0 0.0 -1.0
   outer loop
      vertex -257.52936958324 72.685585643846 41.1257088700487
      vertex -260.142931292539 84.6223432316667 41.1218226700487
      vertex -259.69085602173 84.9692327875562 41.1218226700487
   endloop
endfacet
facet normal 0.0 0.0 -1.0
   outer loop
      vertex -257.52936958324 72.685585643846 41.1257088700487
      vertex -259.69085602173 84.9692327875562 41.1218226700487
      vertex -259.343966465841 85.421308058365 41.1218226700487
   endloop
endfacet
facet normal 0.0 0.0 -1.0
   outer loop
      vertex -257.52936958324 72.685585643846 41.1257088700487
      vertex -259.343966465841 85.421308058365 41.1218226700487
      vertex -259.125902574842 85.9477608614771 41.1218226700487
   endloop
endfacet
facet normal 0.0 0.0 -1.0
   outer loop
      vertex -257.52936958324 72.685585643846 41.1257088700487
      vertex -259.125902574842 85.9477608614771 41.1218226700487
      vertex -259.051525042539 86.512714308365 41.1218226700487
   endloop
endfacet
facet normal 0.0 0.0 -1.0
   outer loop
      vertex -257.52936958324 72.685585643846 41.1257088700487
      vertex -259.051525042539 86.512714308365 41.1218226700487
      vertex -257.52936958324 100.339842972884 41.1257088700487
   endloop
endfacet
facet normal 0.0 0.0 -1.0
   outer loop
      vertex -257.52936958324 72.685585643846 41.1257088700487
      vertex -257.52936958324 100.339842972884 41.1257088700487
      vertex -254.076889067618 98.9097787194845 41.1257088700487
   endloop
endfacet
facet normal 0.0 0.0 -1.0
   outer loop
      vertex -257.52936958324 72.685585643846 41.1257088700487
      vertex -254.076889067618 98.9097787194845 41.1257088700487
      vertex -254.076889067618 74.1156498972455 41.1257088700487
   endloop
endfacet
facet normal 0.0 0.0 -1.0
   outer loop
      vertex -254.076889067618 74.1156498972455 41.1257088700487
      vertex -254.076889067618 98.9097787194845 41.1257088700487
      vertex -251.112176837319 96.6348750135848 41.1257088700487
   endloop
endfacet
facet normal 0.0 0.0 -1.0
   outer loop
      vertex -254.076889067618 74.1156498972455 41.1257088700487
      vertex -251.112176837319 96.6348750135848 41.1257088700487
      vertex -251.112176837319 76.390553603145 41.1257088700487
   endloop
endfacet
facet normal 0.0 0.0 -1.0
   outer loop
      vertex -251.112176837319 76.390553603145 41.1257088700487
      vertex -251.112176837319 96.6348750135848 41.1257088700487
      vertex -248.837273131419 79.3552658334439 41.1257088700487
   endloop
endfacet
facet normal 0.0 0.0 -1.0
   outer loop
      vertex -248.837273131419 79.3552658334439 41.1257088700487
      vertex -251.112176837319 96.6348750135848 41.1257088700487
      vertex -248.837273131419 93.670162783286 41.1257088700487
   endloop
endfacet
facet normal 0.0 0.0 -1.0
   outer loop
      vertex -248.837273131419 79.3552658334439 41.1257088700487
      vertex -248.837273131419 93.670162783286 41.1257088700487
      vertex -247.40720887802 90.2176822676641 41.1257088700487
   endloop
endfacet
facet normal 0.0 0.0 -1.0
   outer loop
      vertex -248.837273131419 79.3552658334439 41.1257088700487
      vertex -247.40720887802 90.2176822676641 41.1257088700487
      vertex -247.40720887802 82.8077463490658 41.1257088700487
   endloop
endfacet
facet normal 0.0 0.0 -1.0
   outer loop
      vertex -247.40720887802 82.8077463490658 41.1257088700487
      vertex -247.40720887802 90.2176822676641 41.1257088700487
      vertex -246.919440592697 86.5127143083649 41.1257088700487
   endloop
endfacet
facet normal -0.707106781186547 0.707106781186548 0.0
   outer loop
      vertex -271.356498247759 96.6348750135848 42.7132088700487
      vertex -273.631401953659 93.670162783286 41.1257088700487
      vertex -273.631401953659 93.670162783286 42.7132088700487
   endloop
endfacet
facet normal -0.707106781186547 0.707106781186548 0.0
   outer loop
      vertex -273.631401953659 93.670162783286 41.1257088700487
      vertex -271.356498247759 96.6348750135848 42.7132088700487
      vertex -271.356498247759 96.6348750135848 41.1257088700487
   endloop
endfacet
facet normal -0.866025403784437 0.500000000000003 0.0
   outer loop
      vertex -273.631401953659 93.670162783286 42.7132088700487
      vertex -275.061466207058 90.217682267664 41.1257088700487
      vertex -275.061466207058 90.217682267664 42.7132088700487
   endloop
endfacet
facet normal -0.866025403784437 0.500000000000003 0.0
   outer loop
      vertex -275.061466207058 90.217682267664 41.1257088700487
      vertex -273.631401953659 93.670162783286 42.7132088700487
      vertex -273.631401953659 93.670162783286 41.1257088700487
   endloop
endfacet
facet normal -0.965925826289069 0.258819045102518 0.0
   outer loop
      vertex -275.061466207058 90.217682267664 42.7132088700487
      vertex -275.549234492381 86.512714308365 41.1257088700487
      vertex -275.549234492381 86.512714308365 42.7132088700487
   endloop
endfacet
facet normal -0.965925826289069 0.258819045102518 0.0
   outer loop
      vertex -275.549234492381 86.512714308365 41.1257088700487
      vertex -275.061466207058 90.217682267664 42.7132088700487
      vertex -275.061466207058 90.217682267664 41.1257088700487
   endloop
endfacet
facet normal -1.0 1.16735539632974e-015 0.0
   outer loop
      vertex -275.549234492381 86.512714308365 42.7132088700487
      vertex -275.061466207058 82.8077463490659 41.1257088700487
      vertex -275.061466207058 82.8077463490659 42.7132088700487
   endloop
endfacet
facet normal -1.0 1.16735539632974e-015 0.0
   outer loop
      vertex -275.061466207058 82.8077463490659 41.1257088700487
      vertex -275.549234492381 86.512714308365 42.7132088700487
      vertex -275.549234492381 86.512714308365 41.1257088700487
   endloop
endfacet
facet normal -0.965925826289069 -0.25881904510252 0.0
   outer loop
      vertex -275.061466207058 82.8077463490659 42.7132088700487
      vertex -273.631401953658 79.3552658334439 41.1257088700487
      vertex -273.631401953658 79.3552658334439 42.7132088700487
   endloop
endfacet
facet normal -0.965925826289069 -0.25881904510252 0.0
   outer loop
      vertex -273.631401953658 79.3552658334439 41.1257088700487
      vertex -275.061466207058 82.8077463490659 42.7132088700487
      vertex -275.061466207058 82.8077463490659 41.1257088700487
   endloop
endfacet
facet normal -0.866025403784435 -0.500000000000006 0.0
   outer loop
      vertex -273.631401953658 79.3552658334439 42.7132088700487
      vertex -271.356498247759 76.3905536031451 41.1257088700487
      vertex -271.356498247759 76.3905536031451 42.7132088700487
   endloop
endfacet
facet normal -0.866025403784435 -0.500000000000006 0.0
   outer loop
      vertex -271.356498247759 76.3905536031451 41.1257088700487
      vertex -273.631401953658 79.3552658334439 42.7132088700487
      vertex -273.631401953658 79.3552658334439 41.1257088700487
   endloop
endfacet
facet normal -0.500000000000003 -0.866025403784437 0.0
   outer loop
      vertex -268.39178601746 74.1156498972454 42.7132088700487
      vertex -271.356498247759 76.3905536031451 41.1257088700487
      vertex -268.39178601746 74.1156498972454 41.1257088700487
   endloop
endfacet
facet normal -0.500000000000003 -0.866025403784437 0.0
   outer loop
      vertex -271.356498247759 76.3905536031451 41.1257088700487
      vertex -268.39178601746 74.1156498972454 42.7132088700487
      vertex -271.356498247759 76.3905536031451 42.7132088700487
   endloop
endfacet
facet normal -0.258819045102518 -0.965925826289069 0.0
   outer loop
      vertex -264.939305501838 72.685585643846 42.7132088700487
      vertex -268.39178601746 74.1156498972454 41.1257088700487
      vertex -264.939305501838 72.685585643846 41.1257088700487
   endloop
endfacet
facet normal -0.258819045102518 -0.965925826289069 0.0
   outer loop
      vertex -268.39178601746 74.1156498972454 41.1257088700487
      vertex -264.939305501838 72.685585643846 42.7132088700487
      vertex -268.39178601746 74.1156498972454 42.7132088700487
   endloop
endfacet
facet normal -1.16735539632974e-015 -1.0 0.0
   outer loop
      vertex -261.234337542539 72.197817358523 42.7132088700487
      vertex -264.939305501838 72.685585643846 41.1257088700487
      vertex -261.234337542539 72.197817358523 41.1257088700487
   endloop
endfacet
facet normal -1.16735539632974e-015 -1.0 0.0
   outer loop
      vertex -264.939305501838 72.685585643846 41.1257088700487
      vertex -261.234337542539 72.197817358523 42.7132088700487
      vertex -264.939305501838 72.685585643846 42.7132088700487
   endloop
endfacet
facet normal 0.25881904510252 -0.965925826289069 0.0
   outer loop
      vertex -257.52936958324 72.685585643846 42.7132088700487
      vertex -261.234337542539 72.197817358523 41.1257088700487
      vertex -257.52936958324 72.685585643846 41.1257088700487
   endloop
endfacet
facet normal 0.25881904510252 -0.965925826289069 0.0
   outer loop
      vertex -261.234337542539 72.197817358523 41.1257088700487
      vertex -257.52936958324 72.685585643846 42.7132088700487
      vertex -261.234337542539 72.197817358523 42.7132088700487
   endloop
endfacet
facet normal 0.500000000000005 -0.866025403784436 0.0
   outer loop
      vertex -254.076889067618 74.1156498972455 42.7132088700487
      vertex -257.52936958324 72.685585643846 41.1257088700487
      vertex -254.076889067618 74.1156498972455 41.1257088700487
   endloop
endfacet
facet normal 0.500000000000005 -0.866025403784436 0.0
   outer loop
      vertex -257.52936958324 72.685585643846 41.1257088700487
      vertex -254.076889067618 74.1156498972455 42.7132088700487
      vertex -257.52936958324 72.685585643846 42.7132088700487
   endloop
endfacet
facet normal 0.707106781186547 -0.707106781186548 0.0
   outer loop
      vertex -251.112176837319 76.390553603145 42.7132088700487
      vertex -254.076889067618 74.1156498972455 41.1257088700487
      vertex -251.112176837319 76.390553603145 41.1257088700487
   endloop
endfacet
facet normal 0.707106781186547 -0.707106781186548 0.0
   outer loop
      vertex -254.076889067618 74.1156498972455 41.1257088700487
      vertex -251.112176837319 76.390553603145 42.7132088700487
      vertex -254.076889067618 74.1156498972455 42.7132088700487
   endloop
endfacet
facet normal 0.866025403784436 -0.500000000000005 0.0
   outer loop
      vertex -248.837273131419 79.3552658334439 41.1257088700487
      vertex -251.112176837319 76.390553603145 42.7132088700487
      vertex -251.112176837319 76.390553603145 41.1257088700487
   endloop
endfacet
facet normal 0.866025403784436 -0.500000000000005 0.0
   outer loop
      vertex -251.112176837319 76.390553603145 42.7132088700487
      vertex -248.837273131419 79.3552658334439 41.1257088700487
      vertex -248.837273131419 79.3552658334439 42.7132088700487
   endloop
endfacet
facet normal 0.965925826289068 -0.258819045102521 0.0
   outer loop
      vertex -247.40720887802 82.8077463490658 41.1257088700487
      vertex -248.837273131419 79.3552658334439 42.7132088700487
      vertex -248.837273131419 79.3552658334439 41.1257088700487
   endloop
endfacet
facet normal 0.965925826289068 -0.258819045102521 0.0
   outer loop
      vertex -248.837273131419 79.3552658334439 42.7132088700487
      vertex -247.40720887802 82.8077463490658 41.1257088700487
      vertex -247.40720887802 82.8077463490658 42.7132088700487
   endloop
endfacet
facet normal 1.0 3.47533285930229e-016 0.0
   outer loop
      vertex -246.919440592697 86.5127143083649 41.1257088700487
      vertex -247.40720887802 82.8077463490658 42.7132088700487
      vertex -247.40720887802 82.8077463490658 41.1257088700487
   endloop
endfacet
facet normal 1.0 3.47533285930229e-016 0.0
   outer loop
      vertex -247.40720887802 82.8077463490658 42.7132088700487
      vertex -246.919440592697 86.5127143083649 41.1257088700487
      vertex -246.919440592697 86.5127143083649 42.7132088700487
   endloop
endfacet
facet normal 0.965925826289068 0.258819045102522 0.0
   outer loop
      vertex -247.40720887802 90.2176822676641 41.1257088700487
      vertex -246.919440592697 86.5127143083649 42.7132088700487
      vertex -246.919440592697 86.5127143083649 41.1257088700487
   endloop
endfacet
facet normal 0.965925826289068 0.258819045102522 0.0
   outer loop
      vertex -246.919440592697 86.5127143083649 42.7132088700487
      vertex -247.40720887802 90.2176822676641 41.1257088700487
      vertex -247.40720887802 90.2176822676641 42.7132088700487
   endloop
endfacet
facet normal 0.866025403784436 0.500000000000004 0.0
   outer loop
      vertex -248.837273131419 93.670162783286 41.1257088700487
      vertex -247.40720887802 90.2176822676641 42.7132088700487
      vertex -247.40720887802 90.2176822676641 41.1257088700487
   endloop
endfacet
facet normal 0.866025403784436 0.500000000000004 0.0
   outer loop
      vertex -247.40720887802 90.2176822676641 42.7132088700487
      vertex -248.837273131419 93.670162783286 41.1257088700487
      vertex -248.837273131419 93.670162783286 42.7132088700487
   endloop
endfacet
facet normal 0.707106781186548 0.707106781186547 0.0
   outer loop
      vertex -251.112176837319 96.6348750135848 41.1257088700487
      vertex -248.837273131419 93.670162783286 42.7132088700487
      vertex -248.837273131419 93.670162783286 41.1257088700487
   endloop
endfacet
facet normal 0.707106781186548 0.707106781186547 0.0
   outer loop
      vertex -248.837273131419 93.670162783286 42.7132088700487
      vertex -251.112176837319 96.6348750135848 41.1257088700487
      vertex -251.112176837319 96.6348750135848 42.7132088700487
   endloop
endfacet
facet normal 0.500000000000003 0.866025403784437 0.0
   outer loop
      vertex -254.076889067618 98.9097787194845 42.7132088700487
      vertex -251.112176837319 96.6348750135848 41.1257088700487
      vertex -254.076889067618 98.9097787194845 41.1257088700487
   endloop
endfacet
facet normal 0.500000000000003 0.866025403784437 0.0
   outer loop
      vertex -251.112176837319 96.6348750135848 41.1257088700487
      vertex -254.076889067618 98.9097787194845 42.7132088700487
      vertex -251.112176837319 96.6348750135848 42.7132088700487
   endloop
endfacet
facet normal 0.258819045102518 0.965925826289069 0.0
   outer loop
      vertex -257.52936958324 100.339842972884 42.7132088700487
      vertex -254.076889067618 98.9097787194845 41.1257088700487
      vertex -257.52936958324 100.339842972884 41.1257088700487
   endloop
endfacet
facet normal 0.258819045102518 0.965925826289069 0.0
   outer loop
      vertex -254.076889067618 98.9097787194845 41.1257088700487
      vertex -257.52936958324 100.339842972884 42.7132088700487
      vertex -254.076889067618 98.9097787194845 42.7132088700487
   endloop
endfacet
facet normal 1.16735539632974e-015 1.0 0.0
   outer loop
      vertex -261.234337542539 100.827611258207 42.7132088700487
      vertex -257.52936958324 100.339842972884 41.1257088700487
      vertex -261.234337542539 100.827611258207 41.1257088700487
   endloop
endfacet
facet normal 1.16735539632974e-015 1.0 0.0
   outer loop
      vertex -257.52936958324 100.339842972884 41.1257088700487
      vertex -261.234337542539 100.827611258207 42.7132088700487
      vertex -257.52936958324 100.339842972884 42.7132088700487
   endloop
endfacet
facet normal -0.25881904510252 0.965925826289069 0.0
   outer loop
      vertex -264.939305501838 100.339842972884 42.7132088700487
      vertex -261.234337542539 100.827611258207 41.1257088700487
      vertex -264.939305501838 100.339842972884 41.1257088700487
   endloop
endfacet
facet normal -0.25881904510252 0.965925826289069 0.0
   outer loop
      vertex -261.234337542539 100.827611258207 41.1257088700487
      vertex -264.939305501838 100.339842972884 42.7132088700487
      vertex -261.234337542539 100.827611258207 42.7132088700487
   endloop
endfacet
facet normal -0.500000000000006 0.866025403784435 0.0
   outer loop
      vertex -268.39178601746 98.9097787194845 42.7132088700487
      vertex -264.939305501838 100.339842972884 41.1257088700487
      vertex -268.39178601746 98.9097787194845 41.1257088700487
   endloop
endfacet
facet normal -0.500000000000006 0.866025403784435 0.0
   outer loop
      vertex -264.939305501838 100.339842972884 41.1257088700487
      vertex -268.39178601746 98.9097787194845 42.7132088700487
      vertex -264.939305501838 100.339842972884 42.7132088700487
   endloop
endfacet
facet normal -0.707106781186547 0.707106781186548 0.0
   outer loop
      vertex -271.356498247759 96.6348750135848 42.7132088700487
      vertex -268.39178601746 98.9097787194845 41.1257088700487
      vertex -271.356498247759 96.6348750135848 41.1257088700487
   endloop
endfacet
facet normal -0.707106781186547 0.707106781186548 0.0
   outer loop
      vertex -268.39178601746 98.9097787194845 41.1257088700487
      vertex -271.356498247759 96.6348750135848 42.7132088700487
      vertex -268.39178601746 98.9097787194845 42.7132088700487
   endloop
endfacet
endsolid NEW_X-Z_motor
