solid NEW_X-Z_motor
facet normal 0.0 0.0 1.0
   outer loop
      vertex -264.939305501838 19.395547443846 42.7132088700487
      vertex -265.603387161269 33.222676108365 42.7132088700487
      vertex -268.39178601746 20.8256116972454 42.7132088700487
   endloop
endfacet
facet normal 0.0 0.0 1.0
   outer loop
      vertex -265.603387161269 33.222676108365 42.7132088700487
      vertex -264.939305501838 19.395547443846 42.7132088700487
      vertex -265.454515405609 32.0918828580397 42.7132088700487
   endloop
endfacet
facet normal 0.0 0.0 1.0
   outer loop
      vertex -265.454515405609 32.0918828580397 42.7132088700487
      vertex -264.939305501838 19.395547443846 42.7132088700487
      vertex -265.018045502754 31.0381512989998 42.7132088700487
   endloop
endfacet
facet normal 0.0 0.0 1.0
   outer loop
      vertex -265.018045502754 31.0381512989998 42.7132088700487
      vertex -264.939305501838 19.395547443846 42.7132088700487
      vertex -264.323722155284 30.1332914956203 42.7132088700487
   endloop
endfacet
facet normal 0.0 0.0 1.0
   outer loop
      vertex -264.323722155284 30.1332914956203 42.7132088700487
      vertex -264.939305501838 19.395547443846 42.7132088700487
      vertex -261.234337542539 18.907779158523 42.7132088700487
   endloop
endfacet
facet normal 0.0 0.0 1.0
   outer loop
      vertex -264.323722155284 30.1332914956203 42.7132088700487
      vertex -261.234337542539 18.907779158523 42.7132088700487
      vertex -263.418862351904 29.4389681481498 42.7132088700487
   endloop
endfacet
facet normal 0.0 0.0 1.0
   outer loop
      vertex -263.418862351904 29.4389681481498 42.7132088700487
      vertex -261.234337542539 18.907779158523 42.7132088700487
      vertex -262.365130792864 29.002498245295 42.7132088700487
   endloop
endfacet
facet normal 0.0 0.0 1.0
   outer loop
      vertex -262.365130792864 29.002498245295 42.7132088700487
      vertex -261.234337542539 18.907779158523 42.7132088700487
      vertex -261.234337542539 28.8536264896347 42.7132088700487
   endloop
endfacet
facet normal 0.0 0.0 1.0
   outer loop
      vertex -261.234337542539 28.8536264896347 42.7132088700487
      vertex -261.234337542539 18.907779158523 42.7132088700487
      vertex -257.52936958324 19.395547443846 42.7132088700487
   endloop
endfacet
facet normal 0.0 0.0 1.0
   outer loop
      vertex -261.234337542539 28.8536264896347 42.7132088700487
      vertex -257.52936958324 19.395547443846 42.7132088700487
      vertex -260.103544292214 29.002498245295 42.7132088700487
   endloop
endfacet
facet normal 0.0 0.0 1.0
   outer loop
      vertex -260.103544292214 29.002498245295 42.7132088700487
      vertex -257.52936958324 19.395547443846 42.7132088700487
      vertex -259.049812733174 29.4389681481498 42.7132088700487
   endloop
endfacet
facet normal 0.0 0.0 1.0
   outer loop
      vertex -259.049812733174 29.4389681481498 42.7132088700487
      vertex -257.52936958324 19.395547443846 42.7132088700487
      vertex -258.144952929794 30.1332914956203 42.7132088700487
   endloop
endfacet
facet normal 0.0 0.0 1.0
   outer loop
      vertex -258.144952929794 30.1332914956203 42.7132088700487
      vertex -257.52936958324 19.395547443846 42.7132088700487
      vertex -257.450629582324 31.0381512989998 42.7132088700487
   endloop
endfacet
facet normal 0.0 0.0 1.0
   outer loop
      vertex -257.450629582324 31.0381512989998 42.7132088700487
      vertex -257.52936958324 19.395547443846 42.7132088700487
      vertex -254.076889067618 20.8256116972455 42.7132088700487
   endloop
endfacet
facet normal 0.0 0.0 1.0
   outer loop
      vertex -257.450629582324 31.0381512989998 42.7132088700487
      vertex -254.076889067618 20.8256116972455 42.7132088700487
      vertex -257.014159679469 32.0918828580397 42.7132088700487
   endloop
endfacet
facet normal 0.0 0.0 1.0
   outer loop
      vertex -257.014159679469 32.0918828580397 42.7132088700487
      vertex -254.076889067618 20.8256116972455 42.7132088700487
      vertex -256.865287923809 33.222676108365 42.7132088700487
   endloop
endfacet
facet normal 0.0 0.0 1.0
   outer loop
      vertex -256.865287923809 33.222676108365 42.7132088700487
      vertex -254.076889067618 20.8256116972455 42.7132088700487
      vertex -254.076889067618 45.6197405194845 42.7132088700487
   endloop
endfacet
facet normal 0.0 0.0 1.0
   outer loop
      vertex -254.076889067618 45.6197405194845 42.7132088700487
      vertex -254.076889067618 20.8256116972455 42.7132088700487
      vertex -251.112176837319 43.3448368135848 42.7132088700487
   endloop
endfacet
facet normal 0.0 0.0 1.0
   outer loop
      vertex -251.112176837319 43.3448368135848 42.7132088700487
      vertex -254.076889067618 20.8256116972455 42.7132088700487
      vertex -251.112176837319 23.100515403145 42.7132088700487
   endloop
endfacet
facet normal 0.0 0.0 1.0
   outer loop
      vertex -251.112176837319 43.3448368135848 42.7132088700487
      vertex -251.112176837319 23.100515403145 42.7132088700487
      vertex -248.837273131419 26.0652276334439 42.7132088700487
   endloop
endfacet
facet normal 0.0 0.0 1.0
   outer loop
      vertex -251.112176837319 43.3448368135848 42.7132088700487
      vertex -248.837273131419 26.0652276334439 42.7132088700487
      vertex -248.837273131419 40.380124583286 42.7132088700487
   endloop
endfacet
facet normal 0.0 0.0 1.0
   outer loop
      vertex -248.837273131419 40.380124583286 42.7132088700487
      vertex -248.837273131419 26.0652276334439 42.7132088700487
      vertex -247.40720887802 36.9276440676641 42.7132088700487
   endloop
endfacet
facet normal 0.0 0.0 1.0
   outer loop
      vertex -247.40720887802 36.9276440676641 42.7132088700487
      vertex -248.837273131419 26.0652276334439 42.7132088700487
      vertex -247.40720887802 29.5177081490658 42.7132088700487
   endloop
endfacet
facet normal 0.0 0.0 1.0
   outer loop
      vertex -247.40720887802 36.9276440676641 42.7132088700487
      vertex -247.40720887802 29.5177081490658 42.7132088700487
      vertex -246.919440592697 33.2226761083649 42.7132088700487
   endloop
endfacet
facet normal 0.0 0.0 1.0
   outer loop
      vertex -275.061466207058 29.5177081490659 42.7132088700487
      vertex -275.061466207058 36.927644067664 42.7132088700487
      vertex -275.549234492381 33.222676108365 42.7132088700487
   endloop
endfacet
facet normal 0.0 0.0 1.0
   outer loop
      vertex -275.061466207058 36.927644067664 42.7132088700487
      vertex -275.061466207058 29.5177081490659 42.7132088700487
      vertex -273.631401953658 26.0652276334439 42.7132088700487
   endloop
endfacet
facet normal 0.0 0.0 1.0
   outer loop
      vertex -275.061466207058 36.927644067664 42.7132088700487
      vertex -273.631401953658 26.0652276334439 42.7132088700487
      vertex -273.631401953659 40.380124583286 42.7132088700487
   endloop
endfacet
facet normal 0.0 0.0 1.0
   outer loop
      vertex -273.631401953659 40.380124583286 42.7132088700487
      vertex -273.631401953658 26.0652276334439 42.7132088700487
      vertex -271.356498247759 43.3448368135848 42.7132088700487
   endloop
endfacet
facet normal 0.0 0.0 1.0
   outer loop
      vertex -271.356498247759 43.3448368135848 42.7132088700487
      vertex -273.631401953658 26.0652276334439 42.7132088700487
      vertex -271.356498247759 23.1005154031451 42.7132088700487
   endloop
endfacet
facet normal 0.0 0.0 1.0
   outer loop
      vertex -271.356498247759 43.3448368135848 42.7132088700487
      vertex -271.356498247759 23.1005154031451 42.7132088700487
      vertex -268.39178601746 20.8256116972454 42.7132088700487
   endloop
endfacet
facet normal 0.0 0.0 1.0
   outer loop
      vertex -271.356498247759 43.3448368135848 42.7132088700487
      vertex -268.39178601746 20.8256116972454 42.7132088700487
      vertex -268.39178601746 45.6197405194845 42.7132088700487
   endloop
endfacet
facet normal 0.0 0.0 1.0
   outer loop
      vertex -268.39178601746 45.6197405194845 42.7132088700487
      vertex -268.39178601746 20.8256116972454 42.7132088700487
      vertex -264.939305501838 47.049804772884 42.7132088700487
   endloop
endfacet
facet normal 0.0 0.0 1.0
   outer loop
      vertex -264.939305501838 47.049804772884 42.7132088700487
      vertex -268.39178601746 20.8256116972454 42.7132088700487
      vertex -265.603387161269 33.222676108365 42.7132088700487
   endloop
endfacet
facet normal 0.0 0.0 1.0
   outer loop
      vertex -264.939305501838 47.049804772884 42.7132088700487
      vertex -265.603387161269 33.222676108365 42.7132088700487
      vertex -265.454515405609 34.3534693586902 42.7132088700487
   endloop
endfacet
facet normal 0.0 0.0 1.0
   outer loop
      vertex -264.939305501838 47.049804772884 42.7132088700487
      vertex -265.454515405609 34.3534693586902 42.7132088700487
      vertex -265.018045502754 35.4072009177301 42.7132088700487
   endloop
endfacet
facet normal 0.0 0.0 1.0
   outer loop
      vertex -264.939305501838 47.049804772884 42.7132088700487
      vertex -265.018045502754 35.4072009177301 42.7132088700487
      vertex -264.323722155284 36.3120607211096 42.7132088700487
   endloop
endfacet
facet normal 0.0 0.0 1.0
   outer loop
      vertex -264.939305501838 47.049804772884 42.7132088700487
      vertex -264.323722155284 36.3120607211096 42.7132088700487
      vertex -261.234337542539 47.5375730582069 42.7132088700487
   endloop
endfacet
facet normal 0.0 0.0 1.0
   outer loop
      vertex -261.234337542539 47.5375730582069 42.7132088700487
      vertex -264.323722155284 36.3120607211096 42.7132088700487
      vertex -263.418862351904 37.0063840685801 42.7132088700487
   endloop
endfacet
facet normal 0.0 0.0 1.0
   outer loop
      vertex -261.234337542539 47.5375730582069 42.7132088700487
      vertex -263.418862351904 37.0063840685801 42.7132088700487
      vertex -262.365130792864 37.4428539714349 42.7132088700487
   endloop
endfacet
facet normal 0.0 0.0 1.0
   outer loop
      vertex -261.234337542539 47.5375730582069 42.7132088700487
      vertex -262.365130792864 37.4428539714349 42.7132088700487
      vertex -261.234337542539 37.5917257270952 42.7132088700487
   endloop
endfacet
facet normal 0.0 0.0 1.0
   outer loop
      vertex -261.234337542539 47.5375730582069 42.7132088700487
      vertex -261.234337542539 37.5917257270952 42.7132088700487
      vertex -260.103544292214 37.4428539714349 42.7132088700487
   endloop
endfacet
facet normal 0.0 0.0 1.0
   outer loop
      vertex -261.234337542539 47.5375730582069 42.7132088700487
      vertex -260.103544292214 37.4428539714349 42.7132088700487
      vertex -257.52936958324 47.049804772884 42.7132088700487
   endloop
endfacet
facet normal 0.0 0.0 1.0
   outer loop
      vertex -257.52936958324 47.049804772884 42.7132088700487
      vertex -260.103544292214 37.4428539714349 42.7132088700487
      vertex -259.049812733174 37.0063840685801 42.7132088700487
   endloop
endfacet
facet normal 0.0 0.0 1.0
   outer loop
      vertex -257.52936958324 47.049804772884 42.7132088700487
      vertex -259.049812733174 37.0063840685801 42.7132088700487
      vertex -258.144952929794 36.3120607211096 42.7132088700487
   endloop
endfacet
facet normal 0.0 0.0 1.0
   outer loop
      vertex -257.52936958324 47.049804772884 42.7132088700487
      vertex -258.144952929794 36.3120607211096 42.7132088700487
      vertex -257.450629582324 35.4072009177301 42.7132088700487
   endloop
endfacet
facet normal 0.0 0.0 1.0
   outer loop
      vertex -257.52936958324 47.049804772884 42.7132088700487
      vertex -257.450629582324 35.4072009177301 42.7132088700487
      vertex -254.076889067618 45.6197405194845 42.7132088700487
   endloop
endfacet
facet normal 0.0 0.0 1.0
   outer loop
      vertex -254.076889067618 45.6197405194845 42.7132088700487
      vertex -257.450629582324 35.4072009177301 42.7132088700487
      vertex -257.014159679469 34.3534693586902 42.7132088700487
   endloop
endfacet
facet normal 0.0 0.0 1.0
   outer loop
      vertex -254.076889067618 45.6197405194845 42.7132088700487
      vertex -257.014159679469 34.3534693586902 42.7132088700487
      vertex -256.865287923809 33.222676108365 42.7132088700487
   endloop
endfacet
facet normal -0.707106781186547 0.707106781186548 0.0
   outer loop
      vertex -271.356498247759 43.3448368135848 42.7132088700487
      vertex -273.631401953659 40.380124583286 41.1257088700487
      vertex -273.631401953659 40.380124583286 42.7132088700487
   endloop
endfacet
facet normal -0.707106781186547 0.707106781186548 0.0
   outer loop
      vertex -273.631401953659 40.380124583286 41.1257088700487
      vertex -271.356498247759 43.3448368135848 42.7132088700487
      vertex -271.356498247759 43.3448368135848 41.1257088700487
   endloop
endfacet
facet normal -0.866025403784437 0.500000000000003 0.0
   outer loop
      vertex -273.631401953659 40.380124583286 42.7132088700487
      vertex -275.061466207058 36.927644067664 41.1257088700487
      vertex -275.061466207058 36.927644067664 42.7132088700487
   endloop
endfacet
facet normal -0.866025403784437 0.500000000000003 0.0
   outer loop
      vertex -275.061466207058 36.927644067664 41.1257088700487
      vertex -273.631401953659 40.380124583286 42.7132088700487
      vertex -273.631401953659 40.380124583286 41.1257088700487
   endloop
endfacet
facet normal -0.965925826289069 0.258819045102518 0.0
   outer loop
      vertex -275.061466207058 36.927644067664 42.7132088700487
      vertex -275.549234492381 33.222676108365 41.1257088700487
      vertex -275.549234492381 33.222676108365 42.7132088700487
   endloop
endfacet
facet normal -0.965925826289069 0.258819045102518 0.0
   outer loop
      vertex -275.549234492381 33.222676108365 41.1257088700487
      vertex -275.061466207058 36.927644067664 42.7132088700487
      vertex -275.061466207058 36.927644067664 41.1257088700487
   endloop
endfacet
facet normal -1.0 1.16735539632974e-015 0.0
   outer loop
      vertex -275.549234492381 33.222676108365 42.7132088700487
      vertex -275.061466207058 29.5177081490659 41.1257088700487
      vertex -275.061466207058 29.5177081490659 42.7132088700487
   endloop
endfacet
facet normal -1.0 1.16735539632974e-015 0.0
   outer loop
      vertex -275.061466207058 29.5177081490659 41.1257088700487
      vertex -275.549234492381 33.222676108365 42.7132088700487
      vertex -275.549234492381 33.222676108365 41.1257088700487
   endloop
endfacet
facet normal -0.965925826289069 -0.25881904510252 0.0
   outer loop
      vertex -275.061466207058 29.5177081490659 42.7132088700487
      vertex -273.631401953658 26.0652276334439 41.1257088700487
      vertex -273.631401953658 26.0652276334439 42.7132088700487
   endloop
endfacet
facet normal -0.965925826289069 -0.25881904510252 0.0
   outer loop
      vertex -273.631401953658 26.0652276334439 41.1257088700487
      vertex -275.061466207058 29.5177081490659 42.7132088700487
      vertex -275.061466207058 29.5177081490659 41.1257088700487
   endloop
endfacet
facet normal -0.866025403784435 -0.500000000000006 0.0
   outer loop
      vertex -273.631401953658 26.0652276334439 42.7132088700487
      vertex -271.356498247759 23.1005154031451 41.1257088700487
      vertex -271.356498247759 23.1005154031451 42.7132088700487
   endloop
endfacet
facet normal -0.866025403784435 -0.500000000000006 0.0
   outer loop
      vertex -271.356498247759 23.1005154031451 41.1257088700487
      vertex -273.631401953658 26.0652276334439 42.7132088700487
      vertex -273.631401953658 26.0652276334439 41.1257088700487
   endloop
endfacet
facet normal -0.500000000000003 -0.866025403784437 0.0
   outer loop
      vertex -268.39178601746 20.8256116972454 42.7132088700487
      vertex -271.356498247759 23.1005154031451 41.1257088700487
      vertex -268.39178601746 20.8256116972454 41.1257088700487
   endloop
endfacet
facet normal -0.500000000000003 -0.866025403784437 0.0
   outer loop
      vertex -271.356498247759 23.1005154031451 41.1257088700487
      vertex -268.39178601746 20.8256116972454 42.7132088700487
      vertex -271.356498247759 23.1005154031451 42.7132088700487
   endloop
endfacet
facet normal -0.258819045102518 -0.965925826289069 0.0
   outer loop
      vertex -264.939305501838 19.395547443846 42.7132088700487
      vertex -268.39178601746 20.8256116972454 41.1257088700487
      vertex -264.939305501838 19.395547443846 41.1257088700487
   endloop
endfacet
facet normal -0.258819045102518 -0.965925826289069 0.0
   outer loop
      vertex -268.39178601746 20.8256116972454 41.1257088700487
      vertex -264.939305501838 19.395547443846 42.7132088700487
      vertex -268.39178601746 20.8256116972454 42.7132088700487
   endloop
endfacet
facet normal -1.16735539632974e-015 -1.0 0.0
   outer loop
      vertex -261.234337542539 18.907779158523 42.7132088700487
      vertex -264.939305501838 19.395547443846 41.1257088700487
      vertex -261.234337542539 18.907779158523 41.1257088700487
   endloop
endfacet
facet normal -1.16735539632974e-015 -1.0 0.0
   outer loop
      vertex -264.939305501838 19.395547443846 41.1257088700487
      vertex -261.234337542539 18.907779158523 42.7132088700487
      vertex -264.939305501838 19.395547443846 42.7132088700487
   endloop
endfacet
facet normal 0.25881904510252 -0.965925826289069 0.0
   outer loop
      vertex -257.52936958324 19.395547443846 42.7132088700487
      vertex -261.234337542539 18.907779158523 41.1257088700487
      vertex -257.52936958324 19.395547443846 41.1257088700487
   endloop
endfacet
facet normal 0.25881904510252 -0.965925826289069 0.0
   outer loop
      vertex -261.234337542539 18.907779158523 41.1257088700487
      vertex -257.52936958324 19.395547443846 42.7132088700487
      vertex -261.234337542539 18.907779158523 42.7132088700487
   endloop
endfacet
facet normal 0.500000000000005 -0.866025403784436 0.0
   outer loop
      vertex -254.076889067618 20.8256116972455 42.7132088700487
      vertex -257.52936958324 19.395547443846 41.1257088700487
      vertex -254.076889067618 20.8256116972455 41.1257088700487
   endloop
endfacet
facet normal 0.500000000000005 -0.866025403784436 0.0
   outer loop
      vertex -257.52936958324 19.395547443846 41.1257088700487
      vertex -254.076889067618 20.8256116972455 42.7132088700487
      vertex -257.52936958324 19.395547443846 42.7132088700487
   endloop
endfacet
facet normal 0.707106781186547 -0.707106781186548 0.0
   outer loop
      vertex -251.112176837319 23.100515403145 42.7132088700487
      vertex -254.076889067618 20.8256116972455 41.1257088700487
      vertex -251.112176837319 23.100515403145 41.1257088700487
   endloop
endfacet
facet normal 0.707106781186547 -0.707106781186548 0.0
   outer loop
      vertex -254.076889067618 20.8256116972455 41.1257088700487
      vertex -251.112176837319 23.100515403145 42.7132088700487
      vertex -254.076889067618 20.8256116972455 42.7132088700487
   endloop
endfacet
facet normal 0.866025403784436 -0.500000000000005 0.0
   outer loop
      vertex -248.837273131419 26.0652276334439 41.1257088700487
      vertex -251.112176837319 23.100515403145 42.7132088700487
      vertex -251.112176837319 23.100515403145 41.1257088700487
   endloop
endfacet
facet normal 0.866025403784436 -0.500000000000005 0.0
   outer loop
      vertex -251.112176837319 23.100515403145 42.7132088700487
      vertex -248.837273131419 26.0652276334439 41.1257088700487
      vertex -248.837273131419 26.0652276334439 42.7132088700487
   endloop
endfacet
facet normal 0.965925826289068 -0.258819045102521 0.0
   outer loop
      vertex -247.40720887802 29.5177081490658 41.1257088700487
      vertex -248.837273131419 26.0652276334439 42.7132088700487
      vertex -248.837273131419 26.0652276334439 41.1257088700487
   endloop
endfacet
facet normal 0.965925826289068 -0.258819045102521 0.0
   outer loop
      vertex -248.837273131419 26.0652276334439 42.7132088700487
      vertex -247.40720887802 29.5177081490658 41.1257088700487
      vertex -247.40720887802 29.5177081490658 42.7132088700487
   endloop
endfacet
facet normal 1.0 3.47533285930229e-016 0.0
   outer loop
      vertex -246.919440592697 33.2226761083649 41.1257088700487
      vertex -247.40720887802 29.5177081490658 42.7132088700487
      vertex -247.40720887802 29.5177081490658 41.1257088700487
   endloop
endfacet
facet normal 1.0 3.47533285930229e-016 0.0
   outer loop
      vertex -247.40720887802 29.5177081490658 42.7132088700487
      vertex -246.919440592697 33.2226761083649 41.1257088700487
      vertex -246.919440592697 33.2226761083649 42.7132088700487
   endloop
endfacet
facet normal 0.965925826289068 0.258819045102522 0.0
   outer loop
      vertex -247.40720887802 36.9276440676641 41.1257088700487
      vertex -246.919440592697 33.2226761083649 42.7132088700487
      vertex -246.919440592697 33.2226761083649 41.1257088700487
   endloop
endfacet
facet normal 0.965925826289068 0.258819045102522 0.0
   outer loop
      vertex -246.919440592697 33.2226761083649 42.7132088700487
      vertex -247.40720887802 36.9276440676641 41.1257088700487
      vertex -247.40720887802 36.9276440676641 42.7132088700487
   endloop
endfacet
facet normal 0.866025403784436 0.500000000000004 0.0
   outer loop
      vertex -248.837273131419 40.380124583286 41.1257088700487
      vertex -247.40720887802 36.9276440676641 42.7132088700487
      vertex -247.40720887802 36.9276440676641 41.1257088700487
   endloop
endfacet
facet normal 0.866025403784436 0.500000000000004 0.0
   outer loop
      vertex -247.40720887802 36.9276440676641 42.7132088700487
      vertex -248.837273131419 40.380124583286 41.1257088700487
      vertex -248.837273131419 40.380124583286 42.7132088700487
   endloop
endfacet
facet normal 0.707106781186548 0.707106781186547 0.0
   outer loop
      vertex -251.112176837319 43.3448368135848 41.1257088700487
      vertex -248.837273131419 40.380124583286 42.7132088700487
      vertex -248.837273131419 40.380124583286 41.1257088700487
   endloop
endfacet
facet normal 0.707106781186548 0.707106781186547 0.0
   outer loop
      vertex -248.837273131419 40.380124583286 42.7132088700487
      vertex -251.112176837319 43.3448368135848 41.1257088700487
      vertex -251.112176837319 43.3448368135848 42.7132088700487
   endloop
endfacet
facet normal 0.500000000000003 0.866025403784437 0.0
   outer loop
      vertex -254.076889067618 45.6197405194845 42.7132088700487
      vertex -251.112176837319 43.3448368135848 41.1257088700487
      vertex -254.076889067618 45.6197405194845 41.1257088700487
   endloop
endfacet
facet normal 0.500000000000003 0.866025403784437 0.0
   outer loop
      vertex -251.112176837319 43.3448368135848 41.1257088700487
      vertex -254.076889067618 45.6197405194845 42.7132088700487
      vertex -251.112176837319 43.3448368135848 42.7132088700487
   endloop
endfacet
facet normal 0.258819045102518 0.965925826289069 0.0
   outer loop
      vertex -257.52936958324 47.049804772884 42.7132088700487
      vertex -254.076889067618 45.6197405194845 41.1257088700487
      vertex -257.52936958324 47.049804772884 41.1257088700487
   endloop
endfacet
facet normal 0.258819045102518 0.965925826289069 0.0
   outer loop
      vertex -254.076889067618 45.6197405194845 41.1257088700487
      vertex -257.52936958324 47.049804772884 42.7132088700487
      vertex -254.076889067618 45.6197405194845 42.7132088700487
   endloop
endfacet
facet normal 1.16735539632974e-015 1.0 0.0
   outer loop
      vertex -261.234337542539 47.5375730582069 42.7132088700487
      vertex -257.52936958324 47.049804772884 41.1257088700487
      vertex -261.234337542539 47.5375730582069 41.1257088700487
   endloop
endfacet
facet normal 1.16735539632974e-015 1.0 0.0
   outer loop
      vertex -257.52936958324 47.049804772884 41.1257088700487
      vertex -261.234337542539 47.5375730582069 42.7132088700487
      vertex -257.52936958324 47.049804772884 42.7132088700487
   endloop
endfacet
facet normal -0.25881904510252 0.965925826289069 0.0
   outer loop
      vertex -264.939305501838 47.049804772884 42.7132088700487
      vertex -261.234337542539 47.5375730582069 41.1257088700487
      vertex -264.939305501838 47.049804772884 41.1257088700487
   endloop
endfacet
facet normal -0.25881904510252 0.965925826289069 0.0
   outer loop
      vertex -261.234337542539 47.5375730582069 41.1257088700487
      vertex -264.939305501838 47.049804772884 42.7132088700487
      vertex -261.234337542539 47.5375730582069 42.7132088700487
   endloop
endfacet
facet normal -0.500000000000006 0.866025403784435 0.0
   outer loop
      vertex -268.39178601746 45.6197405194845 42.7132088700487
      vertex -264.939305501838 47.049804772884 41.1257088700487
      vertex -268.39178601746 45.6197405194845 41.1257088700487
   endloop
endfacet
facet normal -0.500000000000006 0.866025403784435 0.0
   outer loop
      vertex -264.939305501838 47.049804772884 41.1257088700487
      vertex -268.39178601746 45.6197405194845 42.7132088700487
      vertex -264.939305501838 47.049804772884 42.7132088700487
   endloop
endfacet
facet normal -0.707106781186547 0.707106781186548 0.0
   outer loop
      vertex -271.356498247759 43.3448368135848 42.7132088700487
      vertex -268.39178601746 45.6197405194845 41.1257088700487
      vertex -271.356498247759 43.3448368135848 41.1257088700487
   endloop
endfacet
facet normal -0.707106781186547 0.707106781186548 0.0
   outer loop
      vertex -268.39178601746 45.6197405194845 41.1257088700487
      vertex -271.356498247759 43.3448368135848 42.7132088700487
      vertex -268.39178601746 45.6197405194845 42.7132088700487
   endloop
endfacet
facet normal 2.57531075984195e-015 1.0 0.0
   outer loop
      vertex -261.234337542539 28.8536264896347 42.7132088700487
      vertex -260.103544292214 29.002498245295 41.1257088700487
      vertex -261.234337542539 28.8536264896347 41.1257088700487
   endloop
endfacet
facet normal 2.57531075984195e-015 1.0 0.0
   outer loop
      vertex -260.103544292214 29.002498245295 41.1257088700487
      vertex -261.234337542539 28.8536264896347 42.7132088700487
      vertex -260.103544292214 29.002498245295 42.7132088700487
   endloop
endfacet
facet normal -0.258819045102516 0.96592582628907 0.0
   outer loop
      vertex -260.103544292214 29.002498245295 42.7132088700487
      vertex -259.049812733174 29.4389681481498 41.1257088700487
      vertex -260.103544292214 29.002498245295 41.1257088700487
   endloop
endfacet
facet normal -0.258819045102516 0.96592582628907 0.0
   outer loop
      vertex -259.049812733174 29.4389681481498 41.1257088700487
      vertex -260.103544292214 29.002498245295 42.7132088700487
      vertex -259.049812733174 29.4389681481498 42.7132088700487
   endloop
endfacet
facet normal -0.50000000000001 0.866025403784433 0.0
   outer loop
      vertex -259.049812733174 29.4389681481498 42.7132088700487
      vertex -258.144952929794 30.1332914956203 41.1257088700487
      vertex -259.049812733174 29.4389681481498 41.1257088700487
   endloop
endfacet
facet normal -0.50000000000001 0.866025403784433 0.0
   outer loop
      vertex -258.144952929794 30.1332914956203 41.1257088700487
      vertex -259.049812733174 29.4389681481498 42.7132088700487
      vertex -258.144952929794 30.1332914956203 42.7132088700487
   endloop
endfacet
facet normal -0.866025403784435 0.500000000000007 0.0
   outer loop
      vertex -257.450629582324 31.0381512989998 42.7132088700487
      vertex -258.144952929794 30.1332914956203 41.1257088700487
      vertex -258.144952929794 30.1332914956203 42.7132088700487
   endloop
endfacet
facet normal -0.866025403784435 0.500000000000007 0.0
   outer loop
      vertex -258.144952929794 30.1332914956203 41.1257088700487
      vertex -257.450629582324 31.0381512989998 42.7132088700487
      vertex -257.450629582324 31.0381512989998 41.1257088700487
   endloop
endfacet
facet normal -0.965925826289071 0.258819045102511 0.0
   outer loop
      vertex -257.014159679469 32.0918828580397 42.7132088700487
      vertex -257.450629582324 31.0381512989998 41.1257088700487
      vertex -257.450629582324 31.0381512989998 42.7132088700487
   endloop
endfacet
facet normal -0.965925826289071 0.258819045102511 0.0
   outer loop
      vertex -257.450629582324 31.0381512989998 41.1257088700487
      vertex -257.014159679469 32.0918828580397 42.7132088700487
      vertex -257.014159679469 32.0918828580397 41.1257088700487
   endloop
endfacet
facet normal -1.0 3.29711066138936e-016 0.0
   outer loop
      vertex -256.865287923809 33.222676108365 42.7132088700487
      vertex -257.014159679469 32.0918828580397 41.1257088700487
      vertex -257.014159679469 32.0918828580397 42.7132088700487
   endloop
endfacet
facet normal -1.0 3.29711066138936e-016 0.0
   outer loop
      vertex -257.014159679469 32.0918828580397 41.1257088700487
      vertex -256.865287923809 33.222676108365 42.7132088700487
      vertex -256.865287923809 33.222676108365 41.1257088700487
   endloop
endfacet
facet normal -0.965925826289071 -0.258819045102511 0.0
   outer loop
      vertex -257.014159679469 34.3534693586902 42.7132088700487
      vertex -256.865287923809 33.222676108365 41.1257088700487
      vertex -256.865287923809 33.222676108365 42.7132088700487
   endloop
endfacet
facet normal -0.965925826289071 -0.258819045102511 0.0
   outer loop
      vertex -256.865287923809 33.222676108365 41.1257088700487
      vertex -257.014159679469 34.3534693586902 42.7132088700487
      vertex -257.014159679469 34.3534693586902 41.1257088700487
   endloop
endfacet
facet normal -0.866025403784434 -0.500000000000008 0.0
   outer loop
      vertex -257.450629582324 35.4072009177301 42.7132088700487
      vertex -257.014159679469 34.3534693586902 41.1257088700487
      vertex -257.014159679469 34.3534693586902 42.7132088700487
   endloop
endfacet
facet normal -0.866025403784434 -0.500000000000008 0.0
   outer loop
      vertex -257.014159679469 34.3534693586902 41.1257088700487
      vertex -257.450629582324 35.4072009177301 42.7132088700487
      vertex -257.450629582324 35.4072009177301 41.1257088700487
   endloop
endfacet
facet normal -0.70710678118654 -0.707106781186555 0.0
   outer loop
      vertex -258.144952929794 36.3120607211096 42.7132088700487
      vertex -257.450629582324 35.4072009177301 41.1257088700487
      vertex -257.450629582324 35.4072009177301 42.7132088700487
   endloop
endfacet
facet normal -0.70710678118654 -0.707106781186555 0.0
   outer loop
      vertex -257.450629582324 35.4072009177301 41.1257088700487
      vertex -258.144952929794 36.3120607211096 42.7132088700487
      vertex -258.144952929794 36.3120607211096 41.1257088700487
   endloop
endfacet
facet normal -0.70710678118654 -0.707106781186555 0.0
   outer loop
      vertex -258.144952929794 36.3120607211096 42.7132088700487
      vertex -259.049812733174 37.0063840685801 41.1257088700487
      vertex -258.144952929794 36.3120607211096 41.1257088700487
   endloop
endfacet
facet normal -0.70710678118654 -0.707106781186555 0.0
   outer loop
      vertex -259.049812733174 37.0063840685801 41.1257088700487
      vertex -258.144952929794 36.3120607211096 42.7132088700487
      vertex -259.049812733174 37.0063840685801 42.7132088700487
   endloop
endfacet
facet normal -0.500000000000004 -0.866025403784437 0.0
   outer loop
      vertex -259.049812733174 37.0063840685801 42.7132088700487
      vertex -260.103544292214 37.4428539714349 41.1257088700487
      vertex -259.049812733174 37.0063840685801 41.1257088700487
   endloop
endfacet
facet normal -0.500000000000004 -0.866025403784437 0.0
   outer loop
      vertex -260.103544292214 37.4428539714349 41.1257088700487
      vertex -259.049812733174 37.0063840685801 42.7132088700487
      vertex -260.103544292214 37.4428539714349 42.7132088700487
   endloop
endfacet
facet normal -0.258819045102513 -0.96592582628907 0.0
   outer loop
      vertex -260.103544292214 37.4428539714349 42.7132088700487
      vertex -261.234337542539 37.5917257270952 41.1257088700487
      vertex -260.103544292214 37.4428539714349 41.1257088700487
   endloop
endfacet
facet normal -0.258819045102513 -0.96592582628907 0.0
   outer loop
      vertex -261.234337542539 37.5917257270952 41.1257088700487
      vertex -260.103544292214 37.4428539714349 42.7132088700487
      vertex -261.234337542539 37.5917257270952 42.7132088700487
   endloop
endfacet
facet normal -2.57531075984195e-015 -1.0 0.0
   outer loop
      vertex -261.234337542539 37.5917257270952 42.7132088700487
      vertex -262.365130792864 37.4428539714349 41.1257088700487
      vertex -261.234337542539 37.5917257270952 41.1257088700487
   endloop
endfacet
facet normal -2.57531075984195e-015 -1.0 0.0
   outer loop
      vertex -262.365130792864 37.4428539714349 41.1257088700487
      vertex -261.234337542539 37.5917257270952 42.7132088700487
      vertex -262.365130792864 37.4428539714349 42.7132088700487
   endloop
endfacet
facet normal 0.258819045102523 -0.965925826289068 0.0
   outer loop
      vertex -262.365130792864 37.4428539714349 42.7132088700487
      vertex -263.418862351904 37.0063840685801 41.1257088700487
      vertex -262.365130792864 37.4428539714349 41.1257088700487
   endloop
endfacet
facet normal 0.258819045102523 -0.965925826289068 0.0
   outer loop
      vertex -263.418862351904 37.0063840685801 41.1257088700487
      vertex -262.365130792864 37.4428539714349 42.7132088700487
      vertex -263.418862351904 37.0063840685801 42.7132088700487
   endloop
endfacet
facet normal 0.500000000000002 -0.866025403784437 0.0
   outer loop
      vertex -263.418862351904 37.0063840685801 42.7132088700487
      vertex -264.323722155284 36.3120607211096 41.1257088700487
      vertex -263.418862351904 37.0063840685801 41.1257088700487
   endloop
endfacet
facet normal 0.500000000000002 -0.866025403784437 0.0
   outer loop
      vertex -264.323722155284 36.3120607211096 41.1257088700487
      vertex -263.418862351904 37.0063840685801 42.7132088700487
      vertex -264.323722155284 36.3120607211096 42.7132088700487
   endloop
endfacet
facet normal 0.707106781186539 -0.707106781186556 0.0
   outer loop
      vertex -264.323722155284 36.3120607211096 41.1257088700487
      vertex -265.018045502754 35.4072009177301 42.7132088700487
      vertex -265.018045502754 35.4072009177301 41.1257088700487
   endloop
endfacet
facet normal 0.707106781186539 -0.707106781186556 0.0
   outer loop
      vertex -265.018045502754 35.4072009177301 42.7132088700487
      vertex -264.323722155284 36.3120607211096 41.1257088700487
      vertex -264.323722155284 36.3120607211096 42.7132088700487
   endloop
endfacet
facet normal 0.866025403784439 -0.5 0.0
   outer loop
      vertex -265.018045502754 35.4072009177301 41.1257088700487
      vertex -265.454515405609 34.3534693586902 42.7132088700487
      vertex -265.454515405609 34.3534693586902 41.1257088700487
   endloop
endfacet
facet normal 0.866025403784439 -0.5 0.0
   outer loop
      vertex -265.454515405609 34.3534693586902 42.7132088700487
      vertex -265.018045502754 35.4072009177301 41.1257088700487
      vertex -265.018045502754 35.4072009177301 42.7132088700487
   endloop
endfacet
facet normal 0.965925826289071 -0.258819045102513 0.0
   outer loop
      vertex -265.454515405609 34.3534693586902 41.1257088700487
      vertex -265.603387161269 33.222676108365 42.7132088700487
      vertex -265.603387161269 33.222676108365 41.1257088700487
   endloop
endfacet
facet normal 0.965925826289071 -0.258819045102513 0.0
   outer loop
      vertex -265.603387161269 33.222676108365 42.7132088700487
      vertex -265.454515405609 34.3534693586902 41.1257088700487
      vertex -265.454515405609 34.3534693586902 42.7132088700487
   endloop
endfacet
facet normal 1.0 -3.29711066138936e-016 0.0
   outer loop
      vertex -265.603387161269 33.222676108365 41.1257088700487
      vertex -265.454515405609 32.0918828580397 42.7132088700487
      vertex -265.454515405609 32.0918828580397 41.1257088700487
   endloop
endfacet
facet normal 1.0 -3.29711066138936e-016 0.0
   outer loop
      vertex -265.454515405609 32.0918828580397 42.7132088700487
      vertex -265.603387161269 33.222676108365 41.1257088700487
      vertex -265.603387161269 33.222676108365 42.7132088700487
   endloop
endfacet
facet normal 0.96592582628907 0.258819045102513 0.0
   outer loop
      vertex -265.454515405609 32.0918828580397 41.1257088700487
      vertex -265.018045502754 31.0381512989998 42.7132088700487
      vertex -265.018045502754 31.0381512989998 41.1257088700487
   endloop
endfacet
facet normal 0.96592582628907 0.258819045102513 0.0
   outer loop
      vertex -265.018045502754 31.0381512989998 42.7132088700487
      vertex -265.454515405609 32.0918828580397 41.1257088700487
      vertex -265.454515405609 32.0918828580397 42.7132088700487
   endloop
endfacet
facet normal 0.866025403784439 0.499999999999999 0.0
   outer loop
      vertex -265.018045502754 31.0381512989998 41.1257088700487
      vertex -264.323722155284 30.1332914956203 42.7132088700487
      vertex -264.323722155284 30.1332914956203 41.1257088700487
   endloop
endfacet
facet normal 0.866025403784439 0.499999999999999 0.0
   outer loop
      vertex -264.323722155284 30.1332914956203 42.7132088700487
      vertex -265.018045502754 31.0381512989998 41.1257088700487
      vertex -265.018045502754 31.0381512989998 42.7132088700487
   endloop
endfacet
facet normal 0.70710678118654 0.707106781186555 0.0
   outer loop
      vertex -264.323722155284 30.1332914956203 42.7132088700487
      vertex -263.418862351904 29.4389681481498 41.1257088700487
      vertex -264.323722155284 30.1332914956203 41.1257088700487
   endloop
endfacet
facet normal 0.70710678118654 0.707106781186555 0.0
   outer loop
      vertex -263.418862351904 29.4389681481498 41.1257088700487
      vertex -264.323722155284 30.1332914956203 42.7132088700487
      vertex -263.418862351904 29.4389681481498 42.7132088700487
   endloop
endfacet
facet normal 0.499999999999994 0.866025403784442 0.0
   outer loop
      vertex -263.418862351904 29.4389681481498 42.7132088700487
      vertex -262.365130792864 29.002498245295 41.1257088700487
      vertex -263.418862351904 29.4389681481498 41.1257088700487
   endloop
endfacet
facet normal 0.499999999999994 0.866025403784442 0.0
   outer loop
      vertex -262.365130792864 29.002498245295 41.1257088700487
      vertex -263.418862351904 29.4389681481498 42.7132088700487
      vertex -262.365130792864 29.002498245295 42.7132088700487
   endloop
endfacet
facet normal 0.258819045102516 0.96592582628907 0.0
   outer loop
      vertex -262.365130792864 29.002498245295 42.7132088700487
      vertex -261.234337542539 28.8536264896347 41.1257088700487
      vertex -262.365130792864 29.002498245295 41.1257088700487
   endloop
endfacet
facet normal 0.258819045102516 0.96592582628907 0.0
   outer loop
      vertex -261.234337542539 28.8536264896347 41.1257088700487
      vertex -262.365130792864 29.002498245295 42.7132088700487
      vertex -261.234337542539 28.8536264896347 42.7132088700487
   endloop
endfacet
facet normal 0.0 0.0 -1.0
   outer loop
      vertex -275.061466207058 36.927644067664 41.1257088700487
      vertex -275.061466207058 29.5177081490659 41.1257088700487
      vertex -275.549234492381 33.222676108365 41.1257088700487
   endloop
endfacet
facet normal 0.0 0.0 -1.0
   outer loop
      vertex -275.061466207058 29.5177081490659 41.1257088700487
      vertex -275.061466207058 36.927644067664 41.1257088700487
      vertex -273.631401953659 40.380124583286 41.1257088700487
   endloop
endfacet
facet normal 0.0 0.0 -1.0
   outer loop
      vertex -275.061466207058 29.5177081490659 41.1257088700487
      vertex -273.631401953659 40.380124583286 41.1257088700487
      vertex -273.631401953658 26.0652276334439 41.1257088700487
   endloop
endfacet
facet normal 0.0 0.0 -1.0
   outer loop
      vertex -273.631401953658 26.0652276334439 41.1257088700487
      vertex -273.631401953659 40.380124583286 41.1257088700487
      vertex -271.356498247759 43.3448368135848 41.1257088700487
   endloop
endfacet
facet normal 0.0 0.0 -1.0
   outer loop
      vertex -273.631401953658 26.0652276334439 41.1257088700487
      vertex -271.356498247759 43.3448368135848 41.1257088700487
      vertex -271.356498247759 23.1005154031451 41.1257088700487
   endloop
endfacet
facet normal 0.0 0.0 -1.0
   outer loop
      vertex -271.356498247759 23.1005154031451 41.1257088700487
      vertex -271.356498247759 43.3448368135848 41.1257088700487
      vertex -268.39178601746 45.6197405194845 41.1257088700487
   endloop
endfacet
facet normal 0.0 0.0 -1.0
   outer loop
      vertex -271.356498247759 23.1005154031451 41.1257088700487
      vertex -268.39178601746 45.6197405194845 41.1257088700487
      vertex -268.39178601746 20.8256116972454 41.1257088700487
   endloop
endfacet
facet normal 0.0 0.0 -1.0
   outer loop
      vertex -268.39178601746 20.8256116972454 41.1257088700487
      vertex -268.39178601746 45.6197405194845 41.1257088700487
      vertex -264.939305501838 47.049804772884 41.1257088700487
   endloop
endfacet
facet normal 0.0 0.0 -1.0
   outer loop
      vertex -268.39178601746 20.8256116972454 41.1257088700487
      vertex -264.939305501838 47.049804772884 41.1257088700487
      vertex -265.603387161269 33.222676108365 41.1257088700487
   endloop
endfacet
facet normal 0.0 0.0 -1.0
   outer loop
      vertex -265.603387161269 33.222676108365 41.1257088700487
      vertex -264.939305501838 47.049804772884 41.1257088700487
      vertex -265.454515405609 34.3534693586902 41.1257088700487
   endloop
endfacet
facet normal 0.0 0.0 -1.0
   outer loop
      vertex -265.454515405609 34.3534693586902 41.1257088700487
      vertex -264.939305501838 47.049804772884 41.1257088700487
      vertex -265.018045502754 35.4072009177301 41.1257088700487
   endloop
endfacet
facet normal 0.0 0.0 -1.0
   outer loop
      vertex -265.018045502754 35.4072009177301 41.1257088700487
      vertex -264.939305501838 47.049804772884 41.1257088700487
      vertex -264.323722155284 36.3120607211096 41.1257088700487
   endloop
endfacet
facet normal 0.0 0.0 -1.0
   outer loop
      vertex -264.323722155284 36.3120607211096 41.1257088700487
      vertex -264.939305501838 47.049804772884 41.1257088700487
      vertex -261.234337542539 47.5375730582069 41.1257088700487
   endloop
endfacet
facet normal 0.0 0.0 -1.0
   outer loop
      vertex -264.323722155284 36.3120607211096 41.1257088700487
      vertex -261.234337542539 47.5375730582069 41.1257088700487
      vertex -263.418862351904 37.0063840685801 41.1257088700487
   endloop
endfacet
facet normal 0.0 0.0 -1.0
   outer loop
      vertex -263.418862351904 37.0063840685801 41.1257088700487
      vertex -261.234337542539 47.5375730582069 41.1257088700487
      vertex -262.365130792864 37.4428539714349 41.1257088700487
   endloop
endfacet
facet normal 0.0 0.0 -1.0
   outer loop
      vertex -262.365130792864 37.4428539714349 41.1257088700487
      vertex -261.234337542539 47.5375730582069 41.1257088700487
      vertex -261.234337542539 37.5917257270952 41.1257088700487
   endloop
endfacet
facet normal 0.0 0.0 -1.0
   outer loop
      vertex -261.234337542539 37.5917257270952 41.1257088700487
      vertex -261.234337542539 47.5375730582069 41.1257088700487
      vertex -257.52936958324 47.049804772884 41.1257088700487
   endloop
endfacet
facet normal 0.0 0.0 -1.0
   outer loop
      vertex -261.234337542539 37.5917257270952 41.1257088700487
      vertex -257.52936958324 47.049804772884 41.1257088700487
      vertex -260.103544292214 37.4428539714349 41.1257088700487
   endloop
endfacet
facet normal 0.0 0.0 -1.0
   outer loop
      vertex -260.103544292214 37.4428539714349 41.1257088700487
      vertex -257.52936958324 47.049804772884 41.1257088700487
      vertex -259.049812733174 37.0063840685801 41.1257088700487
   endloop
endfacet
facet normal 0.0 0.0 -1.0
   outer loop
      vertex -259.049812733174 37.0063840685801 41.1257088700487
      vertex -257.52936958324 47.049804772884 41.1257088700487
      vertex -258.144952929794 36.3120607211096 41.1257088700487
   endloop
endfacet
facet normal 0.0 0.0 -1.0
   outer loop
      vertex -258.144952929794 36.3120607211096 41.1257088700487
      vertex -257.52936958324 47.049804772884 41.1257088700487
      vertex -257.450629582324 35.4072009177301 41.1257088700487
   endloop
endfacet
facet normal 0.0 0.0 -1.0
   outer loop
      vertex -257.450629582324 35.4072009177301 41.1257088700487
      vertex -257.52936958324 47.049804772884 41.1257088700487
      vertex -254.076889067618 45.6197405194845 41.1257088700487
   endloop
endfacet
facet normal 0.0 0.0 -1.0
   outer loop
      vertex -257.450629582324 35.4072009177301 41.1257088700487
      vertex -254.076889067618 45.6197405194845 41.1257088700487
      vertex -257.014159679469 34.3534693586902 41.1257088700487
   endloop
endfacet
facet normal 0.0 0.0 -1.0
   outer loop
      vertex -257.014159679469 34.3534693586902 41.1257088700487
      vertex -254.076889067618 45.6197405194845 41.1257088700487
      vertex -256.865287923809 33.222676108365 41.1257088700487
   endloop
endfacet
facet normal 0.0 0.0 -1.0
   outer loop
      vertex -265.603387161269 33.222676108365 41.1257088700487
      vertex -264.939305501838 19.395547443846 41.1257088700487
      vertex -268.39178601746 20.8256116972454 41.1257088700487
   endloop
endfacet
facet normal 0.0 0.0 -1.0
   outer loop
      vertex -264.939305501838 19.395547443846 41.1257088700487
      vertex -265.603387161269 33.222676108365 41.1257088700487
      vertex -265.454515405609 32.0918828580397 41.1257088700487
   endloop
endfacet
facet normal 0.0 0.0 -1.0
   outer loop
      vertex -264.939305501838 19.395547443846 41.1257088700487
      vertex -265.454515405609 32.0918828580397 41.1257088700487
      vertex -265.018045502754 31.0381512989998 41.1257088700487
   endloop
endfacet
facet normal 0.0 0.0 -1.0
   outer loop
      vertex -264.939305501838 19.395547443846 41.1257088700487
      vertex -265.018045502754 31.0381512989998 41.1257088700487
      vertex -264.323722155284 30.1332914956203 41.1257088700487
   endloop
endfacet
facet normal 0.0 0.0 -1.0
   outer loop
      vertex -264.939305501838 19.395547443846 41.1257088700487
      vertex -264.323722155284 30.1332914956203 41.1257088700487
      vertex -261.234337542539 18.907779158523 41.1257088700487
   endloop
endfacet
facet normal 0.0 0.0 -1.0
   outer loop
      vertex -261.234337542539 18.907779158523 41.1257088700487
      vertex -264.323722155284 30.1332914956203 41.1257088700487
      vertex -263.418862351904 29.4389681481498 41.1257088700487
   endloop
endfacet
facet normal 0.0 0.0 -1.0
   outer loop
      vertex -261.234337542539 18.907779158523 41.1257088700487
      vertex -263.418862351904 29.4389681481498 41.1257088700487
      vertex -262.365130792864 29.002498245295 41.1257088700487
   endloop
endfacet
facet normal 0.0 0.0 -1.0
   outer loop
      vertex -261.234337542539 18.907779158523 41.1257088700487
      vertex -262.365130792864 29.002498245295 41.1257088700487
      vertex -261.234337542539 28.8536264896347 41.1257088700487
   endloop
endfacet
facet normal 0.0 0.0 -1.0
   outer loop
      vertex -261.234337542539 18.907779158523 41.1257088700487
      vertex -261.234337542539 28.8536264896347 41.1257088700487
      vertex -257.52936958324 19.395547443846 41.1257088700487
   endloop
endfacet
facet normal 0.0 0.0 -1.0
   outer loop
      vertex -257.52936958324 19.395547443846 41.1257088700487
      vertex -261.234337542539 28.8536264896347 41.1257088700487
      vertex -260.103544292214 29.002498245295 41.1257088700487
   endloop
endfacet
facet normal 0.0 0.0 -1.0
   outer loop
      vertex -257.52936958324 19.395547443846 41.1257088700487
      vertex -260.103544292214 29.002498245295 41.1257088700487
      vertex -259.049812733174 29.4389681481498 41.1257088700487
   endloop
endfacet
facet normal 0.0 0.0 -1.0
   outer loop
      vertex -257.52936958324 19.395547443846 41.1257088700487
      vertex -259.049812733174 29.4389681481498 41.1257088700487
      vertex -258.144952929794 30.1332914956203 41.1257088700487
   endloop
endfacet
facet normal 0.0 0.0 -1.0
   outer loop
      vertex -257.52936958324 19.395547443846 41.1257088700487
      vertex -258.144952929794 30.1332914956203 41.1257088700487
      vertex -257.450629582324 31.0381512989998 41.1257088700487
   endloop
endfacet
facet normal 0.0 0.0 -1.0
   outer loop
      vertex -257.52936958324 19.395547443846 41.1257088700487
      vertex -257.450629582324 31.0381512989998 41.1257088700487
      vertex -254.076889067618 20.8256116972455 41.1257088700487
   endloop
endfacet
facet normal 0.0 0.0 -1.0
   outer loop
      vertex -254.076889067618 20.8256116972455 41.1257088700487
      vertex -257.450629582324 31.0381512989998 41.1257088700487
      vertex -257.014159679469 32.0918828580397 41.1257088700487
   endloop
endfacet
facet normal 0.0 0.0 -1.0
   outer loop
      vertex -254.076889067618 20.8256116972455 41.1257088700487
      vertex -257.014159679469 32.0918828580397 41.1257088700487
      vertex -256.865287923809 33.222676108365 41.1257088700487
   endloop
endfacet
facet normal 0.0 0.0 -1.0
   outer loop
      vertex -254.076889067618 20.8256116972455 41.1257088700487
      vertex -256.865287923809 33.222676108365 41.1257088700487
      vertex -254.076889067618 45.6197405194845 41.1257088700487
   endloop
endfacet
facet normal 0.0 0.0 -1.0
   outer loop
      vertex -254.076889067618 20.8256116972455 41.1257088700487
      vertex -254.076889067618 45.6197405194845 41.1257088700487
      vertex -251.112176837319 43.3448368135848 41.1257088700487
   endloop
endfacet
facet normal 0.0 0.0 -1.0
   outer loop
      vertex -254.076889067618 20.8256116972455 41.1257088700487
      vertex -251.112176837319 43.3448368135848 41.1257088700487
      vertex -251.112176837319 23.100515403145 41.1257088700487
   endloop
endfacet
facet normal 0.0 0.0 -1.0
   outer loop
      vertex -251.112176837319 23.100515403145 41.1257088700487
      vertex -251.112176837319 43.3448368135848 41.1257088700487
      vertex -248.837273131419 26.0652276334439 41.1257088700487
   endloop
endfacet
facet normal 0.0 0.0 -1.0
   outer loop
      vertex -248.837273131419 26.0652276334439 41.1257088700487
      vertex -251.112176837319 43.3448368135848 41.1257088700487
      vertex -248.837273131419 40.380124583286 41.1257088700487
   endloop
endfacet
facet normal 0.0 0.0 -1.0
   outer loop
      vertex -248.837273131419 26.0652276334439 41.1257088700487
      vertex -248.837273131419 40.380124583286 41.1257088700487
      vertex -247.40720887802 36.9276440676641 41.1257088700487
   endloop
endfacet
facet normal 0.0 0.0 -1.0
   outer loop
      vertex -248.837273131419 26.0652276334439 41.1257088700487
      vertex -247.40720887802 36.9276440676641 41.1257088700487
      vertex -247.40720887802 29.5177081490658 41.1257088700487
   endloop
endfacet
facet normal 0.0 0.0 -1.0
   outer loop
      vertex -247.40720887802 29.5177081490658 41.1257088700487
      vertex -247.40720887802 36.9276440676641 41.1257088700487
      vertex -246.919440592697 33.2226761083649 41.1257088700487
   endloop
endfacet
endsolid NEW_X-Z_motor
