solid Milk Strap B_1_a
facet normal 1.00396072506373e-014 -1.0 4.22522205233064e-016
   outer loop
      vertex 1015.00822046093 -11.0219067252892 -154.129064744832
      vertex 1014.30601010246 -11.0219067252892 -182.704064744832
      vertex 1015.00822046093 -11.0219067252892 -182.704064744832
   endloop
endfacet
facet normal 1.00396072506373e-014 -1.0 4.22522205233064e-016
   outer loop
      vertex 1014.30601010246 -11.0219067252892 -182.704064744832
      vertex 1015.00822046093 -11.0219067252892 -154.129064744832
      vertex 1014.30601010246 -11.0219067252892 -154.129064744832
   endloop
endfacet
facet normal 0.824314242933373 -0.566132518847999 4.06934440262652e-016
   outer loop
      vertex 1016.04466376303 -9.51279896788682 -182.704064744832
      vertex 1015.00822046093 -11.0219067252892 -154.129064744832
      vertex 1015.00822046093 -11.0219067252892 -182.704064744832
   endloop
endfacet
facet normal 0.824314242933373 -0.566132518847999 4.06934440262652e-016
   outer loop
      vertex 1015.00822046093 -11.0219067252892 -154.129064744832
      vertex 1016.04466376303 -9.51279896788682 -182.704064744832
      vertex 1016.04466376303 -9.5127989678868 -154.129064744832
   endloop
endfacet
facet normal 0.824314242933376 -0.566132518847994 4.0693444026265e-016
   outer loop
      vertex 1016.44153876303 -8.93493123502828 -182.704064744832
      vertex 1016.04466376303 -9.5127989678868 -154.129064744832
      vertex 1016.04466376303 -9.51279896788682 -182.704064744832
   endloop
endfacet
facet normal 0.824314242933376 -0.566132518847994 4.0693444026265e-016
   outer loop
      vertex 1016.04466376303 -9.5127989678868 -154.129064744832
      vertex 1016.44153876303 -8.93493123502828 -182.704064744832
      vertex 1016.44153876303 -8.93493123502827 -154.129064744832
   endloop
endfacet
facet normal 1.0 -6.78732402851541e-030 2.03479293707175e-016
   outer loop
      vertex 1016.44153876303 -7.58228082791987 -182.704064744832
      vertex 1016.44153876303 -8.93493123502827 -154.129064744832
      vertex 1016.44153876303 -8.93493123502828 -182.704064744832
   endloop
endfacet
facet normal 1.0 -6.78732402851541e-030 2.03479293707175e-016
   outer loop
      vertex 1016.44153876303 -8.93493123502827 -154.129064744832
      vertex 1016.44153876303 -7.58228082791987 -182.704064744832
      vertex 1016.44153876303 -7.58228082791986 -154.129064744832
   endloop
endfacet
facet normal 0.706401405243611 0.707811454181021 -1.5532799749706e-016
   outer loop
      vertex 1015.01215809235 -6.15574766229522 -154.129064744832
      vertex 1016.44153876303 -7.58228082791987 -182.704064744832
      vertex 1015.01215809235 -6.15574766229523 -182.704064744832
   endloop
endfacet
facet normal 0.706401405243611 0.707811454181021 -1.5532799749706e-016
   outer loop
      vertex 1016.44153876303 -7.58228082791987 -182.704064744832
      vertex 1015.01215809235 -6.15574766229522 -154.129064744832
      vertex 1016.44153876303 -7.58228082791986 -154.129064744832
   endloop
endfacet
facet normal -0.608847324214222 0.793287423193626 -4.59069374938037e-016
   outer loop
      vertex 1013.8732090208 -7.02988996476067 -154.129064744832
      vertex 1015.01215809235 -6.15574766229523 -182.704064744832
      vertex 1013.8732090208 -7.02988996476067 -182.704064744832
   endloop
endfacet
facet normal -0.608847324214222 0.793287423193626 -4.59069374938037e-016
   outer loop
      vertex 1015.01215809235 -6.15574766229523 -182.704064744832
      vertex 1013.8732090208 -7.02988996476067 -154.129064744832
      vertex 1015.01215809235 -6.15574766229522 -154.129064744832
   endloop
endfacet
facet normal -0.793458415817916 0.608624467440904 -4.18609710178572e-016
   outer loop
      vertex 1012.17617543371 -9.24229786755645 -154.129064744832
      vertex 1013.8732090208 -7.02988996476067 -182.704064744832
      vertex 1012.17617543371 -9.24229786755646 -182.704064744832
   endloop
endfacet
facet normal -0.793458415817916 0.608624467440904 -4.18609710178572e-016
   outer loop
      vertex 1013.8732090208 -7.02988996476067 -182.704064744832
      vertex 1012.17617543371 -9.24229786755645 -154.129064744832
      vertex 1013.8732090208 -7.02988996476067 -154.129064744832
   endloop
endfacet
facet normal -0.923680422771928 0.383163772541027 -3.49845042176231e-016
   outer loop
      vertex 1011.10841093371 -11.8163229593342 -154.129064744832
      vertex 1012.17617543371 -9.24229786755646 -182.704064744832
      vertex 1011.10841093371 -11.8163229593343 -182.704064744832
   endloop
endfacet
facet normal -0.923680422771928 0.383163772541027 -3.49845042176231e-016
   outer loop
      vertex 1012.17617543371 -9.24229786755646 -182.704064744832
      vertex 1011.10841093371 -11.8163229593342 -154.129064744832
      vertex 1012.17617543371 -9.24229786755645 -154.129064744832
   endloop
endfacet
facet normal -0.991554786757956 0.129688491615041 -2.56557135152014e-016
   outer loop
      vertex 1010.7467944236 -14.5811217252893 -154.129064744832
      vertex 1011.10841093371 -11.8163229593343 -182.704064744832
      vertex 1010.7467944236 -14.5811217252893 -182.704064744832
   endloop
endfacet
facet normal -0.991554786757956 0.129688491615041 -2.56557135152014e-016
   outer loop
      vertex 1011.10841093371 -11.8163229593343 -182.704064744832
      vertex 1010.7467944236 -14.5811217252893 -154.129064744832
      vertex 1011.10841093371 -11.8163229593342 -154.129064744832
   endloop
endfacet
facet normal -1.0 0.0 -2.03479293707175e-016
   outer loop
      vertex 1010.7467944236 -27.5581098950058 -154.129064744832
      vertex 1010.7467944236 -14.5811217252893 -182.704064744832
      vertex 1010.7467944236 -27.5581098950058 -182.704064744832
   endloop
endfacet
facet normal -1.0 0.0 -2.03479293707175e-016
   outer loop
      vertex 1010.7467944236 -14.5811217252893 -182.704064744832
      vertex 1010.7467944236 -27.5581098950058 -154.129064744832
      vertex 1010.7467944236 -14.5811217252893 -154.129064744832
   endloop
endfacet
facet normal 2.93194600775992e-030 -1.0 3.9474596431117e-016
   outer loop
      vertex 1032.09923793684 -27.5581098950058 -154.129064744832
      vertex 1010.7467944236 -27.5581098950058 -182.704064744832
      vertex 1032.09923793684 -27.5581098950058 -182.704064744832
   endloop
endfacet
facet normal 2.93194600775992e-030 -1.0 3.9474596431117e-016
   outer loop
      vertex 1010.7467944236 -27.5581098950058 -182.704064744832
      vertex 1032.09923793684 -27.5581098950058 -154.129064744832
      vertex 1010.7467944236 -27.5581098950058 -154.129064744832
   endloop
endfacet
facet normal 1.0 -0.0 2.03479293707175e-016
   outer loop
      vertex 1032.09923793684 -14.5811217252893 -182.704064744832
      vertex 1032.09923793684 -27.5581098950058 -154.129064744832
      vertex 1032.09923793684 -27.5581098950058 -182.704064744832
   endloop
endfacet
facet normal 1.0 -0.0 2.03479293707175e-016
   outer loop
      vertex 1032.09923793684 -27.5581098950058 -154.129064744832
      vertex 1032.09923793684 -14.5811217252893 -182.704064744832
      vertex 1032.09923793684 -14.5811217252893 -154.129064744832
   endloop
endfacet
facet normal 0.991554818065942 0.129688252244435 1.46964707720864e-016
   outer loop
      vertex 1031.73762210559 -11.8163229593343 -182.704064744832
      vertex 1032.09923793684 -14.5811217252893 -154.129064744832
      vertex 1032.09923793684 -14.5811217252893 -182.704064744832
   endloop
endfacet
facet normal 0.991554818065942 0.129688252244435 1.46964707720864e-016
   outer loop
      vertex 1032.09923793684 -14.5811217252893 -154.129064744832
      vertex 1031.73762210559 -11.8163229593343 -182.704064744832
      vertex 1031.73762210559 -11.8163229593342 -154.129064744832
   endloop
endfacet
facet normal 0.923680422771974 0.383163772540917 2.60546378973785e-017
   outer loop
      vertex 1030.66985760559 -9.24229786755646 -182.704064744832
      vertex 1031.73762210559 -11.8163229593342 -154.129064744832
      vertex 1031.73762210559 -11.8163229593343 -182.704064744832
   endloop
endfacet
facet normal 0.923680422771974 0.383163772540917 2.60546378973785e-017
   outer loop
      vertex 1031.73762210559 -11.8163229593342 -154.129064744832
      vertex 1030.66985760559 -9.24229786755646 -182.704064744832
      vertex 1030.66985760559 -9.24229786755645 -154.129064744832
   endloop
endfacet
facet normal 0.793458298242416 0.608624620723027 -9.57050827945654e-017
   outer loop
      vertex 1028.97282333963 -7.02988996476068 -182.704064744832
      vertex 1030.66985760559 -9.24229786755645 -154.129064744832
      vertex 1030.66985760559 -9.24229786755646 -182.704064744832
   endloop
endfacet
facet normal 0.793458298242416 0.608624620723027 -9.57050827945654e-017
   outer loop
      vertex 1030.66985760559 -9.24229786755645 -154.129064744832
      vertex 1028.97282333963 -7.02988996476068 -182.704064744832
      vertex 1028.97282333963 -7.02988996476067 -154.129064744832
   endloop
endfacet
facet normal 0.60884755258967 0.793287247915639 -2.11293607396295e-016
   outer loop
      vertex 1027.83387494695 -6.15574766229522 -154.129064744832
      vertex 1028.97282333963 -7.02988996476068 -182.704064744832
      vertex 1027.83387494695 -6.15574766229523 -182.704064744832
   endloop
endfacet
facet normal 0.60884755258967 0.793287247915639 -2.11293607396295e-016
   outer loop
      vertex 1028.97282333963 -7.02988996476068 -182.704064744832
      vertex 1027.83387494695 -6.15574766229522 -154.129064744832
      vertex 1028.97282333963 -7.02988996476067 -154.129064744832
   endloop
endfacet
facet normal -0.706401321202291 0.70781153805491 -4.42804133860423e-016
   outer loop
      vertex 1026.40449393684 -7.58228082791986 -154.129064744832
      vertex 1027.83387494695 -6.15574766229523 -182.704064744832
      vertex 1026.40449393684 -7.58228082791987 -182.704064744832
   endloop
endfacet
facet normal -0.706401321202291 0.70781153805491 -4.42804133860423e-016
   outer loop
      vertex 1027.83387494695 -6.15574766229523 -182.704064744832
      vertex 1026.40449393684 -7.58228082791986 -154.129064744832
      vertex 1027.83387494695 -6.15574766229522 -154.129064744832
   endloop
endfacet
facet normal -1.0 3.39366153944726e-030 -2.03479293707175e-016
   outer loop
      vertex 1026.40449393684 -8.93493142427888 -154.129064744832
      vertex 1026.40449393684 -7.58228082791987 -182.704064744832
      vertex 1026.40449393684 -8.93493142427889 -182.704064744832
   endloop
endfacet
facet normal -1.0 3.39366153944726e-030 -2.03479293707175e-016
   outer loop
      vertex 1026.40449393684 -7.58228082791987 -182.704064744832
      vertex 1026.40449393684 -8.93493142427888 -154.129064744832
      vertex 1026.40449393684 -7.58228082791986 -154.129064744832
   endloop
endfacet
facet normal -0.824314156409097 -0.566132644831191 7.14727512095517e-017
   outer loop
      vertex 1026.80136893684 -9.51279896788681 -154.129064744832
      vertex 1026.40449393684 -8.93493142427889 -182.704064744832
      vertex 1026.80136893684 -9.51279896788682 -182.704064744832
   endloop
endfacet
facet normal -0.824314156409097 -0.566132644831191 7.14727512095517e-017
   outer loop
      vertex 1026.40449393684 -8.93493142427889 -182.704064744832
      vertex 1026.80136893684 -9.51279896788681 -154.129064744832
      vertex 1026.40449393684 -8.93493142427888 -154.129064744832
   endloop
endfacet
facet normal -0.824314156409094 -0.566132644831195 7.14727512095542e-017
   outer loop
      vertex 1027.83781257837 -11.0219067252892 -154.129064744832
      vertex 1026.80136893684 -9.51279896788682 -182.704064744832
      vertex 1027.83781257837 -11.0219067252892 -182.704064744832
   endloop
endfacet
facet normal -0.824314156409094 -0.566132644831195 7.14727512095542e-017
   outer loop
      vertex 1026.80136893684 -9.51279896788682 -182.704064744832
      vertex 1027.83781257837 -11.0219067252892 -154.129064744832
      vertex 1026.80136893684 -9.51279896788681 -154.129064744832
   endloop
endfacet
facet normal 0.0 -1.0 4.22522205233062e-016
   outer loop
      vertex 1028.54002293684 -11.0219067252892 -154.129064744832
      vertex 1027.83781257837 -11.0219067252892 -182.704064744832
      vertex 1028.54002293684 -11.0219067252892 -182.704064744832
   endloop
endfacet
facet normal 0.0 -1.0 4.22522205233062e-016
   outer loop
      vertex 1027.83781257837 -11.0219067252892 -182.704064744832
      vertex 1028.54002293684 -11.0219067252892 -154.129064744832
      vertex 1027.83781257837 -11.0219067252892 -154.129064744832
   endloop
endfacet
facet normal -1.0 0.0 -2.03479293707175e-016
   outer loop
      vertex 1028.54002293684 -14.5811217252893 -154.129064744832
      vertex 1028.54002293684 -11.0219067252892 -182.704064744832
      vertex 1028.54002293684 -14.5811217252893 -182.704064744832
   endloop
endfacet
facet normal -1.0 0.0 -2.03479293707175e-016
   outer loop
      vertex 1028.54002293684 -11.0219067252892 -182.704064744832
      vertex 1028.54002293684 -14.5811217252893 -154.129064744832
      vertex 1028.54002293684 -11.0219067252892 -154.129064744832
   endloop
endfacet
facet normal -0.980730693205352 0.195364550021108 -2.82104249269657e-016
   outer loop
      vertex 1028.25528600838 -16.0105020565385 -154.129064744832
      vertex 1028.54002293684 -14.5811217252893 -182.704064744832
      vertex 1028.25528600838 -16.0105020565385 -182.704064744832
   endloop
endfacet
facet normal -0.980730693205352 0.195364550021108 -2.82104249269657e-016
   outer loop
      vertex 1028.54002293684 -14.5811217252893 -182.704064744832
      vertex 1028.25528600838 -16.0105020565385 -154.129064744832
      vertex 1028.54002293684 -14.5811217252893 -154.129064744832
   endloop
endfacet
facet normal -1.0 0.0 -2.03479293707175e-016
   outer loop
      vertex 1028.25528600838 -23.1232377252892 -154.129064744832
      vertex 1028.25528600838 -16.0105020565385 -182.704064744832
      vertex 1028.25528600838 -23.1232377252892 -182.704064744832
   endloop
endfacet
facet normal -1.0 0.0 -2.03479293707175e-016
   outer loop
      vertex 1028.25528600838 -16.0105020565385 -182.704064744832
      vertex 1028.25528600838 -23.1232377252892 -154.129064744832
      vertex 1028.25528600838 -16.0105020565385 -154.129064744832
   endloop
endfacet
facet normal -0.0 1.0 -3.94745964311167e-016
   outer loop
      vertex 1027.11633693684 -23.1232377252892 -154.129064744832
      vertex 1028.25528600838 -23.1232377252892 -182.704064744832
      vertex 1027.11633693684 -23.1232377252892 -182.704064744832
   endloop
endfacet
facet normal -0.0 1.0 -3.94745964311167e-016
   outer loop
      vertex 1028.25528600838 -23.1232377252892 -182.704064744832
      vertex 1027.11633693684 -23.1232377252892 -154.129064744832
      vertex 1028.25528600838 -23.1232377252892 -154.129064744832
   endloop
endfacet
facet normal -0.0 1.0 -3.94745964311172e-016
   outer loop
      vertex 1014.59074703092 -23.1232377252892 -154.129064744832
      vertex 1015.72969610246 -23.1232377252892 -182.704064744832
      vertex 1014.59074703092 -23.1232377252892 -182.704064744832
   endloop
endfacet
facet normal -0.0 1.0 -3.94745964311172e-016
   outer loop
      vertex 1015.72969610246 -23.1232377252892 -182.704064744832
      vertex 1014.59074703092 -23.1232377252892 -154.129064744832
      vertex 1015.72969610246 -23.1232377252892 -154.129064744832
   endloop
endfacet
facet normal 1.0 -0.0 2.03479293707175e-016
   outer loop
      vertex 1014.59074703092 -16.0105020565385 -182.704064744832
      vertex 1014.59074703092 -23.1232377252892 -154.129064744832
      vertex 1014.59074703092 -23.1232377252892 -182.704064744832
   endloop
endfacet
facet normal 1.0 -0.0 2.03479293707175e-016
   outer loop
      vertex 1014.59074703092 -23.1232377252892 -154.129064744832
      vertex 1014.59074703092 -16.0105020565385 -182.704064744832
      vertex 1014.59074703092 -16.0105020565385 -154.129064744832
   endloop
endfacet
facet normal 0.980730693205376 0.195364550020989 1.17012528271145e-016
   outer loop
      vertex 1014.30601010246 -14.5811217252893 -182.704064744832
      vertex 1014.59074703092 -16.0105020565385 -154.129064744832
      vertex 1014.59074703092 -16.0105020565385 -182.704064744832
   endloop
endfacet
facet normal 0.980730693205376 0.195364550020989 1.17012528271145e-016
   outer loop
      vertex 1014.59074703092 -16.0105020565385 -154.129064744832
      vertex 1014.30601010246 -14.5811217252893 -182.704064744832
      vertex 1014.30601010246 -14.5811217252893 -154.129064744832
   endloop
endfacet
facet normal 1.0 -0.0 2.03479293707175e-016
   outer loop
      vertex 1014.30601010246 -11.0219067252892 -182.704064744832
      vertex 1014.30601010246 -14.5811217252893 -154.129064744832
      vertex 1014.30601010246 -14.5811217252893 -182.704064744832
   endloop
endfacet
facet normal 1.0 -0.0 2.03479293707175e-016
   outer loop
      vertex 1014.30601010246 -14.5811217252893 -154.129064744832
      vertex 1014.30601010246 -11.0219067252892 -182.704064744832
      vertex 1014.30601010246 -11.0219067252892 -154.129064744832
   endloop
endfacet
facet normal 0.0 0.0 -1.0
   outer loop
      vertex 1027.11633693684 -18.6243895036601 -155.716564744832
      vertex 1016.39028604802 -19.6124279352397 -155.716564744832
      vertex 1015.72969610246 -18.6243895036601 -155.716564744832
   endloop
endfacet
facet normal 0.0 0.0 -1.0
   outer loop
      vertex 1016.39028604802 -19.6124279352397 -155.716564744832
      vertex 1027.11633693684 -18.6243895036601 -155.716564744832
      vertex 1018.69950504958 -21.1557037167367 -155.716564744832
   endloop
endfacet
facet normal 0.0 0.0 -1.0
   outer loop
      vertex 1018.69950504958 -21.1557037167367 -155.716564744832
      vertex 1027.11633693684 -18.6243895036601 -155.716564744832
      vertex 1021.42444010246 -21.6995517252892 -155.716564744832
   endloop
endfacet
facet normal 0.0 0.0 -1.0
   outer loop
      vertex 1021.42444010246 -21.6995517252892 -155.716564744832
      vertex 1027.11633693684 -18.6243895036601 -155.716564744832
      vertex 1024.14652782 -21.1557037167367 -155.716564744832
   endloop
endfacet
facet normal 0.0 0.0 -1.0
   outer loop
      vertex 1024.14652782 -21.1557037167367 -155.716564744832
      vertex 1027.11633693684 -18.6243895036601 -155.716564744832
      vertex 1026.45574665185 -19.6124279352397 -155.716564744832
   endloop
endfacet
facet normal 1.0 0.0 0.0
   outer loop
      vertex 1027.11633693684 -18.6243895036601 -182.704064744832
      vertex 1027.11633693684 -23.1232377252892 -154.129064744832
      vertex 1027.11633693684 -23.1232377252892 -182.704064744832
   endloop
endfacet
facet normal 1.0 0.0 0.0
   outer loop
      vertex 1027.11633693684 -23.1232377252892 -154.129064744832
      vertex 1027.11633693684 -18.6243895036601 -182.704064744832
      vertex 1027.11633693684 -18.6243895036601 -155.716564744832
   endloop
endfacet
facet normal 1.0 0.0 0.0
   outer loop
      vertex 1027.11633693684 -23.1232377252892 -154.129064744832
      vertex 1027.11633693684 -18.6243895036601 -155.716564744832
      vertex 1027.11633693684 -18.62438950366 -154.129064744832
   endloop
endfacet
facet normal 1.0 0.0 0.0
   outer loop
      vertex 1027.11633693684 -18.6243895036601 -155.716564744832
      vertex 1027.11633693684 -18.6243895036601 -182.704064744832
      vertex 1027.11633693684 -18.6243895036601 -181.116564744832
   endloop
endfacet
facet normal -1.35269924954546e-016 2.42058392730149e-016 1.0
   outer loop
      vertex 1010.7467944236 -27.5581098950058 -154.129064744832
      vertex 1014.59074703092 -23.1232377252892 -154.129064744832
      vertex 1010.7467944236 -14.5811217252893 -154.129064744832
   endloop
endfacet
facet normal -1.35269924954546e-016 2.42058392730149e-016 1.0
   outer loop
      vertex 1014.59074703092 -23.1232377252892 -154.129064744832
      vertex 1010.7467944236 -27.5581098950058 -154.129064744832
      vertex 1032.09923793684 -27.5581098950058 -154.129064744832
   endloop
endfacet
facet normal -1.35269924954546e-016 2.42058392730149e-016 1.0
   outer loop
      vertex 1010.7467944236 -14.5811217252893 -154.129064744832
      vertex 1014.59074703092 -23.1232377252892 -154.129064744832
      vertex 1011.10841093371 -11.8163229593342 -154.129064744832
   endloop
endfacet
facet normal -1.35269924954546e-016 2.42058392730149e-016 1.0
   outer loop
      vertex 1011.10841093371 -11.8163229593342 -154.129064744832
      vertex 1014.59074703092 -23.1232377252892 -154.129064744832
      vertex 1012.17617543371 -9.24229786755645 -154.129064744832
   endloop
endfacet
facet normal -1.35269924954546e-016 2.42058392730149e-016 1.0
   outer loop
      vertex 1012.17617543371 -9.24229786755645 -154.129064744832
      vertex 1014.59074703092 -23.1232377252892 -154.129064744832
      vertex 1013.8732090208 -7.02988996476067 -154.129064744832
   endloop
endfacet
facet normal -1.35269924954546e-016 2.42058392730149e-016 1.0
   outer loop
      vertex 1013.8732090208 -7.02988996476067 -154.129064744832
      vertex 1014.59074703092 -23.1232377252892 -154.129064744832
      vertex 1014.30601010246 -14.5811217252893 -154.129064744832
   endloop
endfacet
facet normal -1.35269924954546e-016 2.42058392730149e-016 1.0
   outer loop
      vertex 1014.59074703092 -23.1232377252892 -154.129064744832
      vertex 1032.09923793684 -27.5581098950058 -154.129064744832
      vertex 1015.72969610246 -23.1232377252892 -154.129064744832
   endloop
endfacet
facet normal -1.35269924954546e-016 2.42058392730149e-016 1.0
   outer loop
      vertex 1015.72969610246 -23.1232377252892 -154.129064744832
      vertex 1032.09923793684 -27.5581098950058 -154.129064744832
      vertex 1015.72969610246 -18.62438950366 -154.129064744832
   endloop
endfacet
facet normal -1.35269924954546e-016 2.42058392730149e-016 1.0
   outer loop
      vertex 1015.72969610246 -18.62438950366 -154.129064744832
      vertex 1032.09923793684 -27.5581098950058 -154.129064744832
      vertex 1027.11633693684 -23.1232377252892 -154.129064744832
   endloop
endfacet
facet normal -1.35269924954546e-016 2.42058392730149e-016 1.0
   outer loop
      vertex 1027.11633693684 -23.1232377252892 -154.129064744832
      vertex 1032.09923793684 -27.5581098950058 -154.129064744832
      vertex 1028.25528600838 -23.1232377252892 -154.129064744832
   endloop
endfacet
facet normal -1.35269924954546e-016 2.42058392730149e-016 1.0
   outer loop
      vertex 1028.25528600838 -23.1232377252892 -154.129064744832
      vertex 1032.09923793684 -27.5581098950058 -154.129064744832
      vertex 1028.25528600838 -16.0105020565385 -154.129064744832
   endloop
endfacet
facet normal -1.35269924954546e-016 2.42058392730149e-016 1.0
   outer loop
      vertex 1028.25528600838 -16.0105020565385 -154.129064744832
      vertex 1032.09923793684 -27.5581098950058 -154.129064744832
      vertex 1028.54002293684 -14.5811217252893 -154.129064744832
   endloop
endfacet
facet normal -1.35269924954546e-016 2.42058392730149e-016 1.0
   outer loop
      vertex 1028.54002293684 -14.5811217252893 -154.129064744832
      vertex 1032.09923793684 -27.5581098950058 -154.129064744832
      vertex 1028.54002293684 -11.0219067252892 -154.129064744832
   endloop
endfacet
facet normal -1.35269924954546e-016 2.42058392730149e-016 1.0
   outer loop
      vertex 1028.54002293684 -11.0219067252892 -154.129064744832
      vertex 1032.09923793684 -27.5581098950058 -154.129064744832
      vertex 1028.97282333963 -7.02988996476067 -154.129064744832
   endloop
endfacet
facet normal -1.35269924954546e-016 2.42058392730149e-016 1.0
   outer loop
      vertex 1028.97282333963 -7.02988996476067 -154.129064744832
      vertex 1032.09923793684 -27.5581098950058 -154.129064744832
      vertex 1030.66985760559 -9.24229786755645 -154.129064744832
   endloop
endfacet
facet normal -1.35269924954546e-016 2.42058392730149e-016 1.0
   outer loop
      vertex 1030.66985760559 -9.24229786755645 -154.129064744832
      vertex 1032.09923793684 -27.5581098950058 -154.129064744832
      vertex 1031.73762210559 -11.8163229593342 -154.129064744832
   endloop
endfacet
facet normal -1.35269924954546e-016 2.42058392730149e-016 1.0
   outer loop
      vertex 1031.73762210559 -11.8163229593342 -154.129064744832
      vertex 1032.09923793684 -27.5581098950058 -154.129064744832
      vertex 1032.09923793684 -14.5811217252893 -154.129064744832
   endloop
endfacet
facet normal -1.35269924954546e-016 2.42058392730149e-016 1.0
   outer loop
      vertex 1026.80136893684 -9.51279896788681 -154.129064744832
      vertex 1026.40449393684 -7.58228082791986 -154.129064744832
      vertex 1026.40449393684 -8.93493142427888 -154.129064744832
   endloop
endfacet
facet normal -1.35269924954546e-016 2.42058392730149e-016 1.0
   outer loop
      vertex 1026.40449393684 -7.58228082791986 -154.129064744832
      vertex 1026.80136893684 -9.51279896788681 -154.129064744832
      vertex 1027.83387494695 -6.15574766229522 -154.129064744832
   endloop
endfacet
facet normal -1.35269924954546e-016 2.42058392730149e-016 1.0
   outer loop
      vertex 1027.83387494695 -6.15574766229522 -154.129064744832
      vertex 1026.80136893684 -9.51279896788681 -154.129064744832
      vertex 1027.83781257837 -11.0219067252892 -154.129064744832
   endloop
endfacet
facet normal -1.35269924954546e-016 2.42058392730149e-016 1.0
   outer loop
      vertex 1027.83387494695 -6.15574766229522 -154.129064744832
      vertex 1027.83781257837 -11.0219067252892 -154.129064744832
      vertex 1028.97282333963 -7.02988996476067 -154.129064744832
   endloop
endfacet
facet normal -1.35269924954546e-016 2.42058392730149e-016 1.0
   outer loop
      vertex 1028.97282333963 -7.02988996476067 -154.129064744832
      vertex 1027.83781257837 -11.0219067252892 -154.129064744832
      vertex 1028.54002293684 -11.0219067252892 -154.129064744832
   endloop
endfacet
facet normal -1.35269924954546e-016 2.42058392730149e-016 1.0
   outer loop
      vertex 1027.11633693684 -18.62438950366 -154.129064744832
      vertex 1015.72969610246 -18.62438950366 -154.129064744832
      vertex 1027.11633693684 -23.1232377252892 -154.129064744832
   endloop
endfacet
facet normal -1.35269924954546e-016 2.42058392730149e-016 1.0
   outer loop
      vertex 1014.59074703092 -16.0105020565385 -154.129064744832
      vertex 1014.30601010246 -14.5811217252893 -154.129064744832
      vertex 1014.59074703092 -23.1232377252892 -154.129064744832
   endloop
endfacet
facet normal -1.35269924954546e-016 2.42058392730149e-016 1.0
   outer loop
      vertex 1013.8732090208 -7.02988996476067 -154.129064744832
      vertex 1014.30601010246 -11.0219067252892 -154.129064744832
      vertex 1015.01215809235 -6.15574766229522 -154.129064744832
   endloop
endfacet
facet normal -1.35269924954546e-016 2.42058392730149e-016 1.0
   outer loop
      vertex 1014.30601010246 -11.0219067252892 -154.129064744832
      vertex 1013.8732090208 -7.02988996476067 -154.129064744832
      vertex 1014.30601010246 -14.5811217252893 -154.129064744832
   endloop
endfacet
facet normal -1.35269924954546e-016 2.42058392730149e-016 1.0
   outer loop
      vertex 1015.01215809235 -6.15574766229522 -154.129064744832
      vertex 1014.30601010246 -11.0219067252892 -154.129064744832
      vertex 1015.00822046093 -11.0219067252892 -154.129064744832
   endloop
endfacet
facet normal -1.35269924954546e-016 2.42058392730149e-016 1.0
   outer loop
      vertex 1015.01215809235 -6.15574766229522 -154.129064744832
      vertex 1015.00822046093 -11.0219067252892 -154.129064744832
      vertex 1016.04466376303 -9.5127989678868 -154.129064744832
   endloop
endfacet
facet normal -1.35269924954546e-016 2.42058392730149e-016 1.0
   outer loop
      vertex 1015.01215809235 -6.15574766229522 -154.129064744832
      vertex 1016.04466376303 -9.5127989678868 -154.129064744832
      vertex 1016.44153876303 -7.58228082791986 -154.129064744832
   endloop
endfacet
facet normal -1.35269924954546e-016 2.42058392730149e-016 1.0
   outer loop
      vertex 1016.44153876303 -7.58228082791986 -154.129064744832
      vertex 1016.04466376303 -9.5127989678868 -154.129064744832
      vertex 1016.44153876303 -8.93493123502827 -154.129064744832
   endloop
endfacet
facet normal 0.831312646866202 0.555805076587386 -2.46827037292346e-016
   outer loop
      vertex 1015.72969610246 -18.6243895036601 -181.116564744832
      vertex 1016.39028604802 -19.6124279352397 -155.716564744832
      vertex 1016.39028604802 -19.6124279352397 -181.116564744832
   endloop
endfacet
facet normal 0.831312646866202 0.555805076587386 -2.46827037292346e-016
   outer loop
      vertex 1016.39028604802 -19.6124279352397 -155.716564744832
      vertex 1015.72969610246 -18.6243895036601 -181.116564744832
      vertex 1015.72969610246 -18.6243895036601 -155.716564744832
   endloop
endfacet
facet normal 0.555646142781584 0.8314188860087 -3.69224156142023e-016
   outer loop
      vertex 1016.39028604802 -19.6124279352397 -155.716564744832
      vertex 1018.69950504958 -21.1557037167367 -181.116564744832
      vertex 1016.39028604802 -19.6124279352397 -181.116564744832
   endloop
endfacet
facet normal 0.555646142781584 0.8314188860087 -3.69224156142023e-016
   outer loop
      vertex 1018.69950504958 -21.1557037167367 -181.116564744832
      vertex 1016.39028604802 -19.6124279352397 -155.716564744832
      vertex 1018.69950504958 -21.1557037167367 -155.716564744832
   endloop
endfacet
facet normal 0.195721976849895 0.980659424967694 -4.3550026916592e-016
   outer loop
      vertex 1018.69950504958 -21.1557037167367 -155.716564744832
      vertex 1021.42444010246 -21.6995517252892 -181.116564744832
      vertex 1018.69950504958 -21.1557037167367 -181.116564744832
   endloop
endfacet
facet normal 0.195721976849895 0.980659424967694 -4.3550026916592e-016
   outer loop
      vertex 1021.42444010246 -21.6995517252892 -181.116564744832
      vertex 1018.69950504958 -21.1557037167367 -155.716564744832
      vertex 1021.42444010246 -21.6995517252892 -155.716564744832
   endloop
endfacet
facet normal -0.195918849958303 0.980620112087763 -4.35482810740134e-016
   outer loop
      vertex 1021.42444010246 -21.6995517252892 -155.716564744832
      vertex 1024.14652782 -21.1557037167367 -181.116564744832
      vertex 1021.42444010246 -21.6995517252892 -181.116564744832
   endloop
endfacet
facet normal -0.195918849958303 0.980620112087763 -4.35482810740134e-016
   outer loop
      vertex 1024.14652782 -21.1557037167367 -181.116564744832
      vertex 1021.42444010246 -21.6995517252892 -155.716564744832
      vertex 1024.14652782 -21.1557037167367 -155.716564744832
   endloop
endfacet
facet normal -0.555646171010654 0.83141886714291 -3.69224147763929e-016
   outer loop
      vertex 1024.14652782 -21.1557037167367 -155.716564744832
      vertex 1026.45574665185 -19.6124279352397 -181.116564744832
      vertex 1024.14652782 -21.1557037167367 -181.116564744832
   endloop
endfacet
facet normal -0.555646171010654 0.83141886714291 -3.69224147763929e-016
   outer loop
      vertex 1026.45574665185 -19.6124279352397 -181.116564744832
      vertex 1024.14652782 -21.1557037167367 -155.716564744832
      vertex 1026.45574665185 -19.6124279352397 -155.716564744832
   endloop
endfacet
facet normal -0.831312514909338 0.555805273954027 -2.46827124940741e-016
   outer loop
      vertex 1026.45574665185 -19.6124279352397 -155.716564744832
      vertex 1027.11633693684 -18.6243895036601 -181.116564744832
      vertex 1026.45574665185 -19.6124279352397 -181.116564744832
   endloop
endfacet
facet normal -0.831312514909338 0.555805273954027 -2.46827124940741e-016
   outer loop
      vertex 1027.11633693684 -18.6243895036601 -181.116564744832
      vertex 1026.45574665185 -19.6124279352397 -155.716564744832
      vertex 1027.11633693684 -18.6243895036601 -155.716564744832
   endloop
endfacet
facet normal -0.0 1.0 -6.57252030578093e-014
   outer loop
      vertex 1015.72969610246 -18.62438950366 -154.129064744832
      vertex 1027.11633693684 -18.6243895036601 -155.716564744832
      vertex 1015.72969610246 -18.6243895036601 -155.716564744832
   endloop
endfacet
facet normal -0.0 1.0 -6.57252030578093e-014
   outer loop
      vertex 1027.11633693684 -18.6243895036601 -155.716564744832
      vertex 1015.72969610246 -18.62438950366 -154.129064744832
      vertex 1027.11633693684 -18.62438950366 -154.129064744832
   endloop
endfacet
facet normal 0.0 0.0 1.0
   outer loop
      vertex 1016.39028604802 -19.6124279352397 -181.116564744832
      vertex 1027.11633693684 -18.6243895036601 -181.116564744832
      vertex 1015.72969610246 -18.6243895036601 -181.116564744832
   endloop
endfacet
facet normal 0.0 0.0 1.0
   outer loop
      vertex 1027.11633693684 -18.6243895036601 -181.116564744832
      vertex 1016.39028604802 -19.6124279352397 -181.116564744832
      vertex 1018.69950504958 -21.1557037167367 -181.116564744832
   endloop
endfacet
facet normal 0.0 0.0 1.0
   outer loop
      vertex 1027.11633693684 -18.6243895036601 -181.116564744832
      vertex 1018.69950504958 -21.1557037167367 -181.116564744832
      vertex 1021.42444010246 -21.6995517252892 -181.116564744832
   endloop
endfacet
facet normal 0.0 0.0 1.0
   outer loop
      vertex 1027.11633693684 -18.6243895036601 -181.116564744832
      vertex 1021.42444010246 -21.6995517252892 -181.116564744832
      vertex 1024.14652782 -21.1557037167367 -181.116564744832
   endloop
endfacet
facet normal 0.0 0.0 1.0
   outer loop
      vertex 1027.11633693684 -18.6243895036601 -181.116564744832
      vertex 1024.14652782 -21.1557037167367 -181.116564744832
      vertex 1026.45574665185 -19.6124279352397 -181.116564744832
   endloop
endfacet
facet normal -2.20763424957535e-014 8.11320180243689e-016 -1.0
   outer loop
      vertex 1015.01215809235 -6.15574766229523 -182.704064744832
      vertex 1014.30601010246 -11.0219067252892 -182.704064744832
      vertex 1013.8732090208 -7.02988996476067 -182.704064744832
   endloop
endfacet
facet normal -2.20763424957535e-014 8.11320180243689e-016 -1.0
   outer loop
      vertex 1014.30601010246 -11.0219067252892 -182.704064744832
      vertex 1015.01215809235 -6.15574766229523 -182.704064744832
      vertex 1015.00822046093 -11.0219067252892 -182.704064744832
   endloop
endfacet
facet normal -2.20763424957535e-014 8.11320180243689e-016 -1.0
   outer loop
      vertex 1015.00822046093 -11.0219067252892 -182.704064744832
      vertex 1015.01215809235 -6.15574766229523 -182.704064744832
      vertex 1016.04466376303 -9.51279896788682 -182.704064744832
   endloop
endfacet
facet normal -2.20763424957535e-014 8.11320180243689e-016 -1.0
   outer loop
      vertex 1016.04466376303 -9.51279896788682 -182.704064744832
      vertex 1015.01215809235 -6.15574766229523 -182.704064744832
      vertex 1016.44153876303 -7.58228082791987 -182.704064744832
   endloop
endfacet
facet normal -2.20763424957535e-014 8.11320180243689e-016 -1.0
   outer loop
      vertex 1016.04466376303 -9.51279896788682 -182.704064744832
      vertex 1016.44153876303 -7.58228082791987 -182.704064744832
      vertex 1016.44153876303 -8.93493123502828 -182.704064744832
   endloop
endfacet
facet normal -2.20763424957535e-014 8.11320180243689e-016 -1.0
   outer loop
      vertex 1027.11633693684 -18.6243895036601 -182.704064744832
      vertex 1015.72969610246 -23.1232377252892 -182.704064744832
      vertex 1015.72969610246 -18.6243895036601 -182.704064744832
   endloop
endfacet
facet normal -2.20763424957535e-014 8.11320180243689e-016 -1.0
   outer loop
      vertex 1028.54002293684 -14.5811217252893 -182.704064744832
      vertex 1028.25528600838 -23.1232377252892 -182.704064744832
      vertex 1028.25528600838 -16.0105020565385 -182.704064744832
   endloop
endfacet
facet normal -2.20763424957535e-014 8.11320180243689e-016 -1.0
   outer loop
      vertex 1027.83387494695 -6.15574766229523 -182.704064744832
      vertex 1026.40449393684 -8.93493142427889 -182.704064744832
      vertex 1026.40449393684 -7.58228082791987 -182.704064744832
   endloop
endfacet
facet normal -2.20763424957535e-014 8.11320180243689e-016 -1.0
   outer loop
      vertex 1026.40449393684 -8.93493142427889 -182.704064744832
      vertex 1027.83387494695 -6.15574766229523 -182.704064744832
      vertex 1026.80136893684 -9.51279896788682 -182.704064744832
   endloop
endfacet
facet normal -2.20763424957535e-014 8.11320180243689e-016 -1.0
   outer loop
      vertex 1026.80136893684 -9.51279896788682 -182.704064744832
      vertex 1027.83387494695 -6.15574766229523 -182.704064744832
      vertex 1027.83781257837 -11.0219067252892 -182.704064744832
   endloop
endfacet
facet normal -2.20763424957535e-014 8.11320180243689e-016 -1.0
   outer loop
      vertex 1027.83781257837 -11.0219067252892 -182.704064744832
      vertex 1027.83387494695 -6.15574766229523 -182.704064744832
      vertex 1028.97282333963 -7.02988996476068 -182.704064744832
   endloop
endfacet
facet normal -2.20763424957535e-014 8.11320180243689e-016 -1.0
   outer loop
      vertex 1027.83781257837 -11.0219067252892 -182.704064744832
      vertex 1028.97282333963 -7.02988996476068 -182.704064744832
      vertex 1028.54002293684 -11.0219067252892 -182.704064744832
   endloop
endfacet
facet normal -2.20763424957535e-014 8.11320180243689e-016 -1.0
   outer loop
      vertex 1028.54002293684 -11.0219067252892 -182.704064744832
      vertex 1028.97282333963 -7.02988996476068 -182.704064744832
      vertex 1028.54002293684 -14.5811217252893 -182.704064744832
   endloop
endfacet
facet normal -2.20763424957535e-014 8.11320180243689e-016 -1.0
   outer loop
      vertex 1011.10841093371 -11.8163229593343 -182.704064744832
      vertex 1010.7467944236 -27.5581098950058 -182.704064744832
      vertex 1010.7467944236 -14.5811217252893 -182.704064744832
   endloop
endfacet
facet normal -2.20763424957535e-014 8.11320180243689e-016 -1.0
   outer loop
      vertex 1010.7467944236 -27.5581098950058 -182.704064744832
      vertex 1011.10841093371 -11.8163229593343 -182.704064744832
      vertex 1014.59074703092 -23.1232377252892 -182.704064744832
   endloop
endfacet
facet normal -2.20763424957535e-014 8.11320180243689e-016 -1.0
   outer loop
      vertex 1010.7467944236 -27.5581098950058 -182.704064744832
      vertex 1014.59074703092 -23.1232377252892 -182.704064744832
      vertex 1032.09923793684 -27.5581098950058 -182.704064744832
   endloop
endfacet
facet normal -2.20763424957535e-014 8.11320180243689e-016 -1.0
   outer loop
      vertex 1014.59074703092 -23.1232377252892 -182.704064744832
      vertex 1011.10841093371 -11.8163229593343 -182.704064744832
      vertex 1012.17617543371 -9.24229786755646 -182.704064744832
   endloop
endfacet
facet normal -2.20763424957535e-014 8.11320180243689e-016 -1.0
   outer loop
      vertex 1014.59074703092 -23.1232377252892 -182.704064744832
      vertex 1012.17617543371 -9.24229786755646 -182.704064744832
      vertex 1013.8732090208 -7.02988996476067 -182.704064744832
   endloop
endfacet
facet normal -2.20763424957535e-014 8.11320180243689e-016 -1.0
   outer loop
      vertex 1014.59074703092 -23.1232377252892 -182.704064744832
      vertex 1013.8732090208 -7.02988996476067 -182.704064744832
      vertex 1014.30601010246 -14.5811217252893 -182.704064744832
   endloop
endfacet
facet normal -2.20763424957535e-014 8.11320180243689e-016 -1.0
   outer loop
      vertex 1014.30601010246 -14.5811217252893 -182.704064744832
      vertex 1013.8732090208 -7.02988996476067 -182.704064744832
      vertex 1014.30601010246 -11.0219067252892 -182.704064744832
   endloop
endfacet
facet normal -2.20763424957535e-014 8.11320180243689e-016 -1.0
   outer loop
      vertex 1014.59074703092 -23.1232377252892 -182.704064744832
      vertex 1014.30601010246 -14.5811217252893 -182.704064744832
      vertex 1014.59074703092 -16.0105020565385 -182.704064744832
   endloop
endfacet
facet normal -2.20763424957535e-014 8.11320180243689e-016 -1.0
   outer loop
      vertex 1032.09923793684 -27.5581098950058 -182.704064744832
      vertex 1014.59074703092 -23.1232377252892 -182.704064744832
      vertex 1015.72969610246 -23.1232377252892 -182.704064744832
   endloop
endfacet
facet normal -2.20763424957535e-014 8.11320180243689e-016 -1.0
   outer loop
      vertex 1032.09923793684 -27.5581098950058 -182.704064744832
      vertex 1015.72969610246 -23.1232377252892 -182.704064744832
      vertex 1027.11633693684 -23.1232377252892 -182.704064744832
   endloop
endfacet
facet normal -2.20763424957535e-014 8.11320180243689e-016 -1.0
   outer loop
      vertex 1027.11633693684 -23.1232377252892 -182.704064744832
      vertex 1015.72969610246 -23.1232377252892 -182.704064744832
      vertex 1027.11633693684 -18.6243895036601 -182.704064744832
   endloop
endfacet
facet normal -2.20763424957535e-014 8.11320180243689e-016 -1.0
   outer loop
      vertex 1032.09923793684 -27.5581098950058 -182.704064744832
      vertex 1027.11633693684 -23.1232377252892 -182.704064744832
      vertex 1028.25528600838 -23.1232377252892 -182.704064744832
   endloop
endfacet
facet normal -2.20763424957535e-014 8.11320180243689e-016 -1.0
   outer loop
      vertex 1032.09923793684 -27.5581098950058 -182.704064744832
      vertex 1028.25528600838 -23.1232377252892 -182.704064744832
      vertex 1028.54002293684 -14.5811217252893 -182.704064744832
   endloop
endfacet
facet normal -2.20763424957535e-014 8.11320180243689e-016 -1.0
   outer loop
      vertex 1032.09923793684 -27.5581098950058 -182.704064744832
      vertex 1028.54002293684 -14.5811217252893 -182.704064744832
      vertex 1028.97282333963 -7.02988996476068 -182.704064744832
   endloop
endfacet
facet normal -2.20763424957535e-014 8.11320180243689e-016 -1.0
   outer loop
      vertex 1032.09923793684 -27.5581098950058 -182.704064744832
      vertex 1028.97282333963 -7.02988996476068 -182.704064744832
      vertex 1030.66985760559 -9.24229786755646 -182.704064744832
   endloop
endfacet
facet normal -2.20763424957535e-014 8.11320180243689e-016 -1.0
   outer loop
      vertex 1032.09923793684 -27.5581098950058 -182.704064744832
      vertex 1030.66985760559 -9.24229786755646 -182.704064744832
      vertex 1031.73762210559 -11.8163229593343 -182.704064744832
   endloop
endfacet
facet normal -2.20763424957535e-014 8.11320180243689e-016 -1.0
   outer loop
      vertex 1032.09923793684 -27.5581098950058 -182.704064744832
      vertex 1031.73762210559 -11.8163229593343 -182.704064744832
      vertex 1032.09923793684 -14.5811217252893 -182.704064744832
   endloop
endfacet
facet normal -1.0 0.0 0.0
   outer loop
      vertex 1015.72969610246 -23.1232377252892 -154.129064744832
      vertex 1015.72969610246 -18.6243895036601 -182.704064744832
      vertex 1015.72969610246 -23.1232377252892 -182.704064744832
   endloop
endfacet
facet normal -1.0 0.0 0.0
   outer loop
      vertex 1015.72969610246 -18.6243895036601 -182.704064744832
      vertex 1015.72969610246 -23.1232377252892 -154.129064744832
      vertex 1015.72969610246 -18.6243895036601 -155.716564744832
   endloop
endfacet
facet normal -1.0 0.0 0.0
   outer loop
      vertex 1015.72969610246 -18.6243895036601 -155.716564744832
      vertex 1015.72969610246 -23.1232377252892 -154.129064744832
      vertex 1015.72969610246 -18.62438950366 -154.129064744832
   endloop
endfacet
facet normal -1.0 0.0 0.0
   outer loop
      vertex 1015.72969610246 -18.6243895036601 -182.704064744832
      vertex 1015.72969610246 -18.6243895036601 -155.716564744832
      vertex 1015.72969610246 -18.6243895036601 -181.116564744832
   endloop
endfacet
facet normal -0.0 1.0 -3.5527136788005e-015
   outer loop
      vertex 1015.72969610246 -18.6243895036601 -181.116564744832
      vertex 1027.11633693684 -18.6243895036601 -182.704064744832
      vertex 1015.72969610246 -18.6243895036601 -182.704064744832
   endloop
endfacet
facet normal -0.0 1.0 -3.5527136788005e-015
   outer loop
      vertex 1027.11633693684 -18.6243895036601 -182.704064744832
      vertex 1015.72969610246 -18.6243895036601 -181.116564744832
      vertex 1027.11633693684 -18.6243895036601 -181.116564744832
   endloop
endfacet
endsolid Milk Strap B_1_a
