solid Milk Strap B_1_a_5-24-13
facet normal 4.54839226267175e-005 -0.000265369785955424 -0.999999963755044
   outer loop
      vertex 581.61011696927 -604.714382149886 -83.5838133055459
      vertex 584.018114258755 -609.27159163601 -83.5824944346298
      vertex 583.991058651281 -609.477028029643 -83.5824411486112
   endloop
endfacet
facet normal 4.54839226267175e-005 -0.000265369785955424 -0.999999963755044
   outer loop
      vertex 584.018114258755 -609.27159163601 -83.5824944346298
      vertex 581.61011696927 -604.714382149886 -83.5838133055459
      vertex 584.097418821722 -609.080157823351 -83.5825416282988
   endloop
endfacet
facet normal 4.54839226267175e-005 -0.000265369785955424 -0.999999963755044
   outer loop
      vertex 584.097418821722 -609.080157823351 -83.5825416282988
      vertex 581.61011696927 -604.714382149886 -83.5838133055459
      vertex 584.223567865273 -608.915772489638 -83.5825795134477
   endloop
endfacet
facet normal 4.54839226267175e-005 -0.000265369785955424 -0.999999963755044
   outer loop
      vertex 584.223567865273 -608.915772489638 -83.5825795134477
      vertex 581.61011696927 -604.714382149886 -83.5838133055459
      vertex 584.387964540561 -608.789638223705 -83.5826055082661
   endloop
endfacet
facet normal 4.54839226267175e-005 -0.000265369785955424 -0.999999963755044
   outer loop
      vertex 584.387964540561 -608.789638223705 -83.5826055082661
      vertex 581.61011696927 -604.714382149886 -83.5838133055459
      vertex 584.579405485843 -608.710350867328 -83.5826178412502
   endloop
endfacet
facet normal 4.54839226267175e-005 -0.000265369785955424 -0.999999963755044
   outer loop
      vertex 584.579405485843 -608.710350867328 -83.5826178412502
      vertex 581.61011696927 -604.714382149886 -83.5838133055459
      vertex 594.310116931353 -604.715175351968 -83.5832354492174
   endloop
endfacet
facet normal 4.54839226267175e-005 -0.000265369785955424 -0.999999963755044
   outer loop
      vertex 584.223567865273 -608.915772489638 -83.5825795134477
      vertex 584.387964540561 -608.789638223705 -83.5826055082661
      vertex 584.34735572407 -608.820795564627 -83.5825990870972
   endloop
endfacet
facet normal 4.54839226267175e-005 -0.000265369785955424 -0.999999963755044
   outer loop
      vertex 584.579405485843 -608.710350867328 -83.5826178412502
      vertex 594.310116931353 -604.715175351968 -83.5832354492174
      vertex 584.78484431707 -608.683313722815 -83.5826156719275
   endloop
endfacet
facet normal 4.54839226267175e-005 -0.000265369785955424 -0.999999963755044
   outer loop
      vertex 584.78484431707 -608.683313722815 -83.5826156719275
      vertex 594.310116931353 -604.715175351968 -83.5832354492174
      vertex 584.990280717397 -608.710369326885 -83.5825991481337
   endloop
endfacet
facet normal 4.54839226267175e-005 -0.000265369785955424 -0.999999963755044
   outer loop
      vertex 584.990280717397 -608.710369326885 -83.5825991481337
      vertex 594.310116931353 -604.715175351968 -83.5832354492174
      vertex 585.181714535642 -608.789673884831 -83.5825693959381
   endloop
endfacet
facet normal 4.54839226267175e-005 -0.000265369785955424 -0.999999963755044
   outer loop
      vertex 585.181714535642 -608.789673884831 -83.5825693959381
      vertex 594.310116931353 -604.715175351968 -83.5832354492174
      vertex 585.34609987345 -608.915822922086 -83.5825284429036
   endloop
endfacet
facet normal 4.54839226267175e-005 -0.000265369785955424 -0.999999963755044
   outer loop
      vertex 585.34609987345 -608.915822922086 -83.5825284429036
      vertex 594.310116931353 -604.715175351968 -83.5832354492174
      vertex 585.47223414171 -609.080219590233 -83.5824790799118
   endloop
endfacet
facet normal 4.54839226267175e-005 -0.000265369785955424 -0.999999963755044
   outer loop
      vertex 585.47223414171 -609.080219590233 -83.5824790799118
      vertex 594.310116931353 -604.715175351968 -83.5832354492174
      vertex 585.551521498486 -609.271660528016 -83.5824246709692
   endloop
endfacet
facet normal 4.54839226267175e-005 -0.000265369785955424 -0.999999963755044
   outer loop
      vertex 585.551521498486 -609.271660528016 -83.5824246709692
      vertex 594.310116931353 -604.715175351968 -83.5832354492174
      vertex 585.578558641443 -609.477099351895 -83.5823689239551
   endloop
endfacet
facet normal 4.54839226267175e-005 -0.000265369785955424 -0.999999963755044
   outer loop
      vertex 585.578558641443 -609.477099351895 -83.5823689239551
      vertex 594.310116931353 -604.715175351968 -83.5832354492174
      vertex 594.309500304496 -614.240141832693 -83.5807078388562
   endloop
endfacet
facet normal 4.54839226267175e-005 -0.000265369785955424 -0.999999963755044
   outer loop
      vertex 581.609500342413 -614.239348630611 -83.5812856951846
      vertex 584.579336575327 -610.243758054653 -83.5822109244326
      vertex 594.309500304496 -614.240141832693 -83.5807078388562
   endloop
endfacet
facet normal 4.54839226267175e-005 -0.000265369785955424 -0.999999963755044
   outer loop
      vertex 584.579336575327 -610.243758054653 -83.5822109244326
      vertex 581.609500342413 -614.239348630611 -83.5812856951846
      vertex 584.387902757082 -610.164453496707 -83.5822406766282
   endloop
endfacet
facet normal 4.54839226267175e-005 -0.000265369785955424 -0.999999963755044
   outer loop
      vertex 584.387902757082 -610.164453496707 -83.5822406766282
      vertex 581.609500342413 -614.239348630611 -83.5812856951846
      vertex 584.223517419274 -610.038304459452 -83.5822816296627
   endloop
endfacet
facet normal 4.54839226267175e-005 -0.000265369785955424 -0.999999963755044
   outer loop
      vertex 584.223517419274 -610.038304459452 -83.5822816296627
      vertex 581.609500342413 -614.239348630611 -83.5812856951846
      vertex 584.097383151014 -609.873907791305 -83.5823309926545
   endloop
endfacet
facet normal 4.54839226267175e-005 -0.000265369785955424 -0.999999963755044
   outer loop
      vertex 584.097383151014 -609.873907791305 -83.5823309926545
      vertex 581.609500342413 -614.239348630611 -83.5812856951846
      vertex 581.61011696927 -604.714382149886 -83.5838133055459
   endloop
endfacet
facet normal 4.54839226267175e-005 -0.000265369785955424 -0.999999963755044
   outer loop
      vertex 584.097383151014 -609.873907791305 -83.5823309926545
      vertex 581.61011696927 -604.714382149886 -83.5838133055459
      vertex 584.018095794238 -609.682466853522 -83.5823854015971
   endloop
endfacet
facet normal 4.54839226267175e-005 -0.000265369785955424 -0.999999963755044
   outer loop
      vertex 584.018095794238 -609.682466853522 -83.5823854015971
      vertex 581.61011696927 -604.714382149886 -83.5838133055459
      vertex 583.991058651281 -609.477028029643 -83.5824411486112
   endloop
endfacet
facet normal 4.54839226267175e-005 -0.000265369785955424 -0.999999963755044
   outer loop
      vertex 594.309500304496 -614.240141832693 -83.5807078388562
      vertex 584.579336575327 -610.243758054653 -83.5822109244326
      vertex 584.784772975654 -610.270813658723 -83.5821944006388
   endloop
endfacet
facet normal 4.54839226267175e-005 -0.000265369785955424 -0.999999963755044
   outer loop
      vertex 594.309500304496 -614.240141832693 -83.5807078388562
      vertex 584.784772975654 -610.270813658723 -83.5821944006388
      vertex 584.990211806881 -610.24377651421 -83.5821922313161
   endloop
endfacet
facet normal 4.54839226267175e-005 -0.000265369785955424 -0.999999963755044
   outer loop
      vertex 594.309500304496 -614.240141832693 -83.5807078388562
      vertex 584.990211806881 -610.24377651421 -83.5821922313161
      vertex 585.181652752163 -610.164489157833 -83.5822045643002
   endloop
endfacet
facet normal 4.54839226267175e-005 -0.000265369785955424 -0.999999963755044
   outer loop
      vertex 594.309500304496 -614.240141832693 -83.5807078388562
      vertex 585.181652752163 -610.164489157833 -83.5822045643002
      vertex 585.222261568653 -610.133331816911 -83.5822109854691
   endloop
endfacet
facet normal 4.54839226267175e-005 -0.000265369785955424 -0.999999963755044
   outer loop
      vertex 594.309500304496 -614.240141832693 -83.5807078388562
      vertex 585.222261568653 -610.133331816911 -83.5822109854691
      vertex 585.346049427451 -610.0383548919 -83.5822305591186
   endloop
endfacet
facet normal 4.54839226267175e-005 -0.000265369785955424 -0.999999963755044
   outer loop
      vertex 594.309500304496 -614.240141832693 -83.5807078388562
      vertex 585.346049427451 -610.0383548919 -83.5822305591186
      vertex 585.472198471002 -609.873969558187 -83.5822684442675
   endloop
endfacet
facet normal 4.54839226267175e-005 -0.000265369785955424 -0.999999963755044
   outer loop
      vertex 594.309500304496 -614.240141832693 -83.5807078388562
      vertex 585.472198471002 -609.873969558187 -83.5822684442675
      vertex 585.551503033969 -609.682535745528 -83.5823156379365
   endloop
endfacet
facet normal 4.54839226267175e-005 -0.000265369785955424 -0.999999963755044
   outer loop
      vertex 594.309500304496 -614.240141832693 -83.5807078388562
      vertex 585.551503033969 -609.682535745528 -83.5823156379365
      vertex 585.578558641443 -609.477099351895 -83.5823689239551
   endloop
endfacet
facet normal -0.499961080250826 0.866047836118937 -0.000252563129142679
   outer loop
      vertex 585.181652752163 -610.164489157833 -83.5822045643002
      vertex 585.222044951472 -610.132067993305 -78.8197111580857
      vertex 585.222261568653 -610.133331816911 -83.5822109854691
   endloop
endfacet
facet normal -0.499961080250826 0.866047836118937 -0.000252563129142679
   outer loop
      vertex 585.222044951472 -610.132067993305 -78.8197111580857
      vertex 585.181652752163 -610.164489157833 -83.5822045643002
      vertex 585.181436134981 -610.163225334228 -78.8197047369168
   endloop
endfacet
facet normal -0.608725774882816 0.793380661625584 -0.000238226501036921
   outer loop
      vertex 585.222261568653 -610.133331816911 -83.5822109854691
      vertex 585.345832810269 -610.037091068294 -78.8197307317352
      vertex 585.346049427451 -610.0383548919 -83.5822305591186
   endloop
endfacet
facet normal -0.608725774882816 0.793380661625584 -0.000238226501036921
   outer loop
      vertex 585.345832810269 -610.037091068294 -78.8197307317352
      vertex 585.222261568653 -610.133331816911 -83.5822109854691
      vertex 585.222044951472 -610.132067993305 -78.8197111580857
   endloop
endfacet
facet normal 0.999999996870105 -6.47258808817041e-005 4.55011004266983e-005
   outer loop
      vertex 594.310116931353 -604.715175351968 -83.5832354492174
      vertex 594.309283687314 -614.238878009088 -78.8182080114728
      vertex 594.309500304496 -614.240141832693 -83.5807078388562
   endloop
endfacet
facet normal 0.999999996870105 -6.47258808817041e-005 4.55011004266983e-005
   outer loop
      vertex 594.309283687314 -614.238878009088 -78.8182080114728
      vertex 594.310116931353 -604.715175351968 -83.5832354492174
      vertex 594.309900314171 -604.713911528362 -78.820735621834
   endloop
endfacet
facet normal -6.24689290534321e-005 -0.999999962839008 0.000265366944380297
   outer loop
      vertex 594.309500304496 -614.240141832693 -83.5807078388562
      vertex 581.609283725231 -614.238084807006 -78.8187858678012
      vertex 581.609500342413 -614.239348630611 -83.5812856951846
   endloop
endfacet
facet normal -6.24689290534321e-005 -0.999999962839008 0.000265366944380297
   outer loop
      vertex 581.609283725231 -614.238084807006 -78.8187858678012
      vertex 594.309500304496 -614.240141832693 -83.5807078388562
      vertex 594.309283687314 -614.238878009088 -78.8182080114728
   endloop
endfacet
facet normal -0.999999996870105 6.47258808817047e-005 -4.55011004266983e-005
   outer loop
      vertex 581.609283725231 -614.238084807006 -78.8187858678012
      vertex 581.61011696927 -604.714382149886 -83.5838133055459
      vertex 581.609500342413 -614.239348630611 -83.5812856951846
   endloop
endfacet
facet normal -0.999999996870105 6.47258808817047e-005 -4.55011004266983e-005
   outer loop
      vertex 581.61011696927 -604.714382149886 -83.5838133055459
      vertex 581.609283725231 -614.238084807006 -78.8187858678012
      vertex 581.609900352088 -604.71311832628 -78.8213134781625
   endloop
endfacet
facet normal 6.24689290463269e-005 0.999999962839008 -0.000265366944380297
   outer loop
      vertex 581.609900352088 -604.71311832628 -78.8213134781625
      vertex 594.310116931353 -604.715175351968 -83.5832354492174
      vertex 581.61011696927 -604.714382149886 -83.5838133055459
   endloop
endfacet
facet normal 6.24689290463269e-005 0.999999962839008 -0.000265366944380297
   outer loop
      vertex 594.310116931353 -604.715175351968 -83.5832354492174
      vertex 581.609900352088 -604.71311832628 -78.8213134781625
      vertex 594.309900314171 -604.713911528362 -78.820735621834
   endloop
endfacet
facet normal -4.54839226267175e-005 0.000265369785955424 0.999999963755044
   outer loop
      vertex 581.609283725231 -614.238084807006 -78.8187858678012
      vertex 584.097166533833 -609.872643967699 -78.8198311652711
      vertex 581.609900352088 -604.71311832628 -78.8213134781625
   endloop
endfacet
facet normal -4.54839226267175e-005 0.000265369785955424 0.999999963755044
   outer loop
      vertex 584.097166533833 -609.872643967699 -78.8198311652711
      vertex 581.609283725231 -614.238084807006 -78.8187858678012
      vertex 584.223300802093 -610.037040635846 -78.8197818022793
   endloop
endfacet
facet normal -4.54839226267175e-005 0.000265369785955424 0.999999963755044
   outer loop
      vertex 584.223300802093 -610.037040635846 -78.8197818022793
      vertex 581.609283725231 -614.238084807006 -78.8187858678012
      vertex 584.387686139901 -610.163189673102 -78.8197408492448
   endloop
endfacet
facet normal -4.54839226267175e-005 0.000265369785955424 0.999999963755044
   outer loop
      vertex 584.387686139901 -610.163189673102 -78.8197408492448
      vertex 581.609283725231 -614.238084807006 -78.8187858678012
      vertex 584.579119958145 -610.242494231047 -78.8197110970492
   endloop
endfacet
facet normal -4.54839226267175e-005 0.000265369785955424 0.999999963755044
   outer loop
      vertex 584.579119958145 -610.242494231047 -78.8197110970492
      vertex 581.609283725231 -614.238084807006 -78.8187858678012
      vertex 594.309283687314 -614.238878009088 -78.8182080114728
   endloop
endfacet
facet normal -4.54839226267175e-005 0.000265369785955424 0.999999963755044
   outer loop
      vertex 581.609900352088 -604.71311832628 -78.8213134781625
      vertex 584.097166533833 -609.872643967699 -78.8198311652711
      vertex 584.017879177056 -609.681203029917 -78.8198855742137
   endloop
endfacet
facet normal -4.54839226267175e-005 0.000265369785955424 0.999999963755044
   outer loop
      vertex 581.609900352088 -604.71311832628 -78.8213134781625
      vertex 584.017879177056 -609.681203029917 -78.8198855742137
      vertex 583.9908420341 -609.475764206037 -78.8199413212278
   endloop
endfacet
facet normal -4.54839226267175e-005 0.000265369785955424 0.999999963755044
   outer loop
      vertex 584.579119958145 -610.242494231047 -78.8197110970492
      vertex 594.309283687314 -614.238878009088 -78.8182080114728
      vertex 584.784556358472 -610.269549835117 -78.8196945732554
   endloop
endfacet
facet normal -4.54839226267175e-005 0.000265369785955424 0.999999963755044
   outer loop
      vertex 584.784556358472 -610.269549835117 -78.8196945732554
      vertex 594.309283687314 -614.238878009088 -78.8182080114728
      vertex 584.989995189699 -610.242512690605 -78.8196924039327
   endloop
endfacet
facet normal -4.54839226267175e-005 0.000265369785955424 0.999999963755044
   outer loop
      vertex 584.989995189699 -610.242512690605 -78.8196924039327
      vertex 594.309283687314 -614.238878009088 -78.8182080114728
      vertex 585.181436134981 -610.163225334228 -78.8197047369168
   endloop
endfacet
facet normal -4.54839226267175e-005 0.000265369785955424 0.999999963755044
   outer loop
      vertex 585.181436134981 -610.163225334228 -78.8197047369168
      vertex 594.309283687314 -614.238878009088 -78.8182080114728
      vertex 585.222044951472 -610.132067993305 -78.8197111580857
   endloop
endfacet
facet normal -4.54839226267175e-005 0.000265369785955424 0.999999963755044
   outer loop
      vertex 585.222044951472 -610.132067993305 -78.8197111580857
      vertex 594.309283687314 -614.238878009088 -78.8182080114728
      vertex 585.345832810269 -610.037091068294 -78.8197307317352
   endloop
endfacet
facet normal -4.54839226267175e-005 0.000265369785955424 0.999999963755044
   outer loop
      vertex 585.345832810269 -610.037091068294 -78.8197307317352
      vertex 594.309283687314 -614.238878009088 -78.8182080114728
      vertex 585.47198185382 -609.872705734582 -78.8197686168841
   endloop
endfacet
facet normal -4.54839226267175e-005 0.000265369785955424 0.999999963755044
   outer loop
      vertex 585.47198185382 -609.872705734582 -78.8197686168841
      vertex 594.309283687314 -614.238878009088 -78.8182080114728
      vertex 585.551286416787 -609.681271921922 -78.8198158105531
   endloop
endfacet
facet normal -4.54839226267175e-005 0.000265369785955424 0.999999963755044
   outer loop
      vertex 585.551286416787 -609.681271921922 -78.8198158105531
      vertex 594.309283687314 -614.238878009088 -78.8182080114728
      vertex 585.578342024261 -609.475835528289 -78.8198690965717
   endloop
endfacet
facet normal -4.54839226267175e-005 0.000265369785955424 0.999999963755044
   outer loop
      vertex 581.609900352088 -604.71311832628 -78.8213134781625
      vertex 584.579188868662 -608.709087043722 -78.8201180138668
      vertex 594.309900314171 -604.713911528362 -78.820735621834
   endloop
endfacet
facet normal -4.54839226267175e-005 0.000265369785955424 0.999999963755044
   outer loop
      vertex 584.579188868662 -608.709087043722 -78.8201180138668
      vertex 581.609900352088 -604.71311832628 -78.8213134781625
      vertex 584.387747923379 -608.788374400099 -78.8201056808827
   endloop
endfacet
facet normal -4.54839226267175e-005 0.000265369785955424 0.999999963755044
   outer loop
      vertex 584.387747923379 -608.788374400099 -78.8201056808827
      vertex 581.609900352088 -604.71311832628 -78.8213134781625
      vertex 584.223351248091 -608.914508666033 -78.8200796860643
   endloop
endfacet
facet normal -4.54839226267175e-005 0.000265369785955424 0.999999963755044
   outer loop
      vertex 584.223351248091 -608.914508666033 -78.8200796860643
      vertex 581.609900352088 -604.71311832628 -78.8213134781625
      vertex 584.097202204541 -609.078893999745 -78.8200418009154
   endloop
endfacet
facet normal -4.54839226267175e-005 0.000265369785955424 0.999999963755044
   outer loop
      vertex 584.097202204541 -609.078893999745 -78.8200418009154
      vertex 581.609900352088 -604.71311832628 -78.8213134781625
      vertex 584.017897641574 -609.270327812405 -78.8199946072464
   endloop
endfacet
facet normal -4.54839226267175e-005 0.000265369785955424 0.999999963755044
   outer loop
      vertex 584.017897641574 -609.270327812405 -78.8199946072464
      vertex 581.609900352088 -604.71311832628 -78.8213134781625
      vertex 583.9908420341 -609.475764206037 -78.8199413212278
   endloop
endfacet
facet normal -4.54839226267175e-005 0.000265369785955424 0.999999963755044
   outer loop
      vertex 584.387747923379 -608.788374400099 -78.8201056808827
      vertex 584.223351248091 -608.914508666033 -78.8200796860643
      vertex 584.347139106889 -608.819531741021 -78.8200992597138
   endloop
endfacet
facet normal -4.54839226267175e-005 0.000265369785955424 0.999999963755044
   outer loop
      vertex 594.309900314171 -604.713911528362 -78.820735621834
      vertex 584.579188868662 -608.709087043722 -78.8201180138668
      vertex 584.784627699888 -608.682049899209 -78.8201158445441
   endloop
endfacet
facet normal -4.54839226267175e-005 0.000265369785955424 0.999999963755044
   outer loop
      vertex 594.309900314171 -604.713911528362 -78.820735621834
      vertex 584.784627699888 -608.682049899209 -78.8201158445441
      vertex 584.990064100215 -608.709105503279 -78.8200993207503
   endloop
endfacet
facet normal -4.54839226267175e-005 0.000265369785955424 0.999999963755044
   outer loop
      vertex 594.309900314171 -604.713911528362 -78.820735621834
      vertex 584.990064100215 -608.709105503279 -78.8200993207503
      vertex 585.18149791846 -608.788410061225 -78.8200695685547
   endloop
endfacet
facet normal -4.54839226267175e-005 0.000265369785955424 0.999999963755044
   outer loop
      vertex 594.309900314171 -604.713911528362 -78.820735621834
      vertex 585.18149791846 -608.788410061225 -78.8200695685547
      vertex 585.345883256268 -608.914559098481 -78.8200286155202
   endloop
endfacet
facet normal -4.54839226267175e-005 0.000265369785955424 0.999999963755044
   outer loop
      vertex 594.309900314171 -604.713911528362 -78.820735621834
      vertex 585.345883256268 -608.914559098481 -78.8200286155202
      vertex 585.472017524528 -609.078955766628 -78.8199792525284
   endloop
endfacet
facet normal -4.54839226267175e-005 0.000265369785955424 0.999999963755044
   outer loop
      vertex 594.309900314171 -604.713911528362 -78.820735621834
      vertex 585.472017524528 -609.078955766628 -78.8199792525284
      vertex 585.551304881304 -609.27039670441 -78.8199248435858
   endloop
endfacet
facet normal -4.54839226267175e-005 0.000265369785955424 0.999999963755044
   outer loop
      vertex 594.309900314171 -604.713911528362 -78.820735621834
      vertex 585.551304881304 -609.27039670441 -78.8199248435858
      vertex 585.578342024261 -609.475835528289 -78.8198690965717
   endloop
endfacet
facet normal -4.54839226267175e-005 0.000265369785955424 0.999999963755044
   outer loop
      vertex 594.309900314171 -604.713911528362 -78.820735621834
      vertex 585.578342024261 -609.475835528289 -78.8198690965717
      vertex 594.309283687314 -614.238878009088 -78.8182080114728
   endloop
endfacet
facet normal -0.500038917704653 -0.866002908715612 0.000207067282584555
   outer loop
      vertex 585.181714535642 -608.789673884831 -83.5825693959381
      vertex 584.990064100215 -608.709105503279 -78.8200993207503
      vertex 584.990280717397 -608.710369326885 -83.5825991481337
   endloop
endfacet
facet normal -0.500038917704653 -0.866002908715612 0.000207067282584555
   outer loop
      vertex 584.990064100215 -608.709105503279 -78.8200993207503
      vertex 585.181714535642 -608.789673884831 -83.5825693959381
      vertex 585.18149791846 -608.788410061225 -78.8200695685547
   endloop
endfacet
facet normal -0.258862452772959 -0.965914163235785 0.000244550363840022
   outer loop
      vertex 584.990280717397 -608.710369326885 -83.5825991481337
      vertex 584.784627699888 -608.682049899209 -78.8201158445441
      vertex 584.78484431707 -608.683313722815 -83.5826156719275
   endloop
endfacet
facet normal -0.258862452772959 -0.965914163235785 0.000244550363840022
   outer loop
      vertex 584.784627699888 -608.682049899209 -78.8201158445441
      vertex 584.990280717397 -608.710369326885 -83.5825991481337
      vertex 584.990064100215 -608.709105503279 -78.8200993207503
   endloop
endfacet
facet normal -4.49394746311536e-005 -0.999999963780202 0.000265367741938439
   outer loop
      vertex 584.78484431707 -608.683313722815 -83.5826156719275
      vertex 584.579188868662 -608.709087043722 -78.8201180138668
      vertex 584.579405485843 -608.710350867328 -83.5826178412502
   endloop
endfacet
facet normal -4.49394746311536e-005 -0.999999963780202 0.000265367741938439
   outer loop
      vertex 584.579188868662 -608.709087043722 -78.8201180138668
      vertex 584.78484431707 -608.683313722815 -83.5826156719275
      vertex 584.784627699888 -608.682049899209 -78.8201158445441
   endloop
endfacet
facet normal 0.25877563637418 -0.965937419371011 0.000268100746964642
   outer loop
      vertex 584.579188868662 -608.709087043722 -78.8201180138668
      vertex 584.387964540561 -608.789638223705 -83.5826055082661
      vertex 584.579405485843 -608.710350867328 -83.5826178412502
   endloop
endfacet
facet normal 0.25877563637418 -0.965937419371011 0.000268100746964642
   outer loop
      vertex 584.387964540561 -608.789638223705 -83.5826055082661
      vertex 584.579188868662 -608.709087043722 -78.8201180138668
      vertex 584.387747923379 -608.788374400099 -78.8201056808827
   endloop
endfacet
facet normal 0.499961080251657 -0.866047836118457 0.000252563129142589
   outer loop
      vertex 584.387747923379 -608.788374400099 -78.8201056808827
      vertex 584.34735572407 -608.820795564627 -83.5825990870972
      vertex 584.387964540561 -608.789638223705 -83.5826055082661
   endloop
endfacet
facet normal 0.499961080251657 -0.866047836118457 0.000252563129142589
   outer loop
      vertex 584.34735572407 -608.820795564627 -83.5825990870972
      vertex 584.387747923379 -608.788374400099 -78.8201056808827
      vertex 584.347139106889 -608.819531741021 -78.8200992597138
   endloop
endfacet
facet normal 0.608725774882901 -0.793380661625519 0.000238226501036908
   outer loop
      vertex 584.347139106889 -608.819531741021 -78.8200992597138
      vertex 584.223567865273 -608.915772489638 -83.5825795134477
      vertex 584.34735572407 -608.820795564627 -83.5825990870972
   endloop
endfacet
facet normal 0.608725774882901 -0.793380661625519 0.000238226501036908
   outer loop
      vertex 584.223567865273 -608.915772489638 -83.5825795134477
      vertex 584.347139106889 -608.819531741021 -78.8200992597138
      vertex 584.223351248091 -608.914508666033 -78.8200796860643
   endloop
endfacet
facet normal 0.707075002733854 -0.707138524046622 0.000219813751449859
   outer loop
      vertex 584.223567865273 -608.915772489638 -83.5825795134477
      vertex 584.097202204541 -609.078893999745 -78.8200418009154
      vertex 584.097418821722 -609.080157823351 -83.5825416282988
   endloop
endfacet
facet normal 0.707075002733854 -0.707138524046622 0.000219813751449859
   outer loop
      vertex 584.097202204541 -609.078893999745 -78.8200418009154
      vertex 584.223567865273 -608.915772489638 -83.5825795134477
      vertex 584.223351248091 -608.914508666033 -78.8200796860643
   endloop
endfacet
facet normal 0.866002932276583 -0.500038890162864 0.000172084429855278
   outer loop
      vertex 584.097418821722 -609.080157823351 -83.5825416282988
      vertex 584.017897641574 -609.270327812405 -78.8199946072464
      vertex 584.018114258755 -609.27159163601 -83.5824944346298
   endloop
endfacet
facet normal 0.866002932276583 -0.500038890162864 0.000172084429855278
   outer loop
      vertex 584.017897641574 -609.270327812405 -78.8199946072464
      vertex 584.097418821722 -609.080157823351 -83.5825416282988
      vertex 584.097202204541 -609.078893999745 -78.8200418009154
   endloop
endfacet
facet normal 0.96591419312268 -0.258862432266895 0.000112627838748798
   outer loop
      vertex 584.018114258755 -609.27159163601 -83.5824944346298
      vertex 583.9908420341 -609.475764206037 -78.8199413212278
      vertex 583.991058651281 -609.477028029643 -83.5824411486112
   endloop
endfacet
facet normal 0.96591419312268 -0.258862432266895 0.000112627838748798
   outer loop
      vertex 583.9908420341 -609.475764206037 -78.8199413212278
      vertex 584.018114258755 -609.27159163601 -83.5824944346298
      vertex 584.017897641574 -609.270327812405 -78.8199946072464
   endloop
endfacet
facet normal -0.70707500273372 0.707138524046756 -0.000219813751449888
   outer loop
      vertex 585.345832810269 -610.037091068294 -78.8197307317352
      vertex 585.472198471002 -609.873969558187 -83.5822684442675
      vertex 585.346049427451 -610.0383548919 -83.5822305591186
   endloop
endfacet
facet normal -0.70707500273372 0.707138524046756 -0.000219813751449888
   outer loop
      vertex 585.472198471002 -609.873969558187 -83.5822684442675
      vertex 585.345832810269 -610.037091068294 -78.8197307317352
      vertex 585.47198185382 -609.872705734582 -78.8197686168841
   endloop
endfacet
facet normal -0.866002932276543 0.500038890162934 -0.000172084429855295
   outer loop
      vertex 585.47198185382 -609.872705734582 -78.8197686168841
      vertex 585.551503033969 -609.682535745528 -83.5823156379365
      vertex 585.472198471002 -609.873969558187 -83.5822684442675
   endloop
endfacet
facet normal -0.866002932276543 0.500038890162934 -0.000172084429855295
   outer loop
      vertex 585.551503033969 -609.682535745528 -83.5823156379365
      vertex 585.47198185382 -609.872705734582 -78.8197686168841
      vertex 585.551286416787 -609.681271921922 -78.8198158105531
   endloop
endfacet
facet normal -0.965914193122692 0.258862432266848 -0.000112627838748786
   outer loop
      vertex 585.551286416787 -609.681271921922 -78.8198158105531
      vertex 585.578558641443 -609.477099351895 -83.5823689239551
      vertex 585.551503033969 -609.682535745528 -83.5823156379365
   endloop
endfacet
facet normal -0.965914193122692 0.258862432266848 -0.000112627838748786
   outer loop
      vertex 585.578558641443 -609.477099351895 -83.5823689239551
      vertex 585.551286416787 -609.681271921922 -78.8198158105531
      vertex 585.578342024261 -609.475835528289 -78.8198690965717
   endloop
endfacet
facet normal -0.999999997955828 4.49274030555284e-005 -4.54958465580678e-005
   outer loop
      vertex 585.578342024261 -609.475835528289 -78.8198690965717
      vertex 585.551521498486 -609.271660528016 -83.5824246709692
      vertex 585.578558641443 -609.477099351895 -83.5823689239551
   endloop
endfacet
facet normal -0.999999997955828 4.49274030555284e-005 -4.54958465580678e-005
   outer loop
      vertex 585.551521498486 -609.271660528016 -83.5824246709692
      vertex 585.578342024261 -609.475835528289 -78.8198690965717
      vertex 585.551304881304 -609.27039670441 -78.8199248435858
   endloop
endfacet
facet normal -0.965937455506469 -0.258775639189218 2.47366123901936e-005
   outer loop
      vertex 585.551304881304 -609.27039670441 -78.8199248435858
      vertex 585.47223414171 -609.080219590233 -83.5824790799118
      vertex 585.551521498486 -609.271660528016 -83.5824246709692
   endloop
endfacet
facet normal -0.965937455506469 -0.258775639189218 2.47366123901936e-005
   outer loop
      vertex 585.47223414171 -609.080219590233 -83.5824790799118
      vertex 585.551304881304 -609.27039670441 -78.8199248435858
      vertex 585.472017524528 -609.078955766628 -78.8199792525284
   endloop
endfacet
facet normal -0.866047871751394 -0.499961073617842 9.32833120832864e-005
   outer loop
      vertex 585.472017524528 -609.078955766628 -78.8199792525284
      vertex 585.34609987345 -608.915822922086 -83.5825284429036
      vertex 585.47223414171 -609.080219590233 -83.5824790799118
   endloop
endfacet
facet normal -0.866047871751394 -0.499961073617842 9.32833120832864e-005
   outer loop
      vertex 585.34609987345 -608.915822922086 -83.5825284429036
      vertex 585.472017524528 -609.078955766628 -78.8199792525284
      vertex 585.345883256268 -608.914559098481 -78.8200286155202
   endloop
endfacet
facet normal -0.70713855674839 -0.707074987103899 0.000155472908215792
   outer loop
      vertex 585.34609987345 -608.915822922086 -83.5825284429036
      vertex 585.18149791846 -608.788410061225 -78.8200695685547
      vertex 585.181714535642 -608.789673884831 -83.5825693959381
   endloop
endfacet
facet normal -0.70713855674839 -0.707074987103899 0.000155472908215792
   outer loop
      vertex 585.18149791846 -608.788410061225 -78.8200695685547
      vertex 585.34609987345 -608.915822922086 -83.5825284429036
      vertex 585.345883256268 -608.914559098481 -78.8200286155202
   endloop
endfacet
facet normal 0.999999997955828 -4.49274032452828e-005 4.54958465581182e-005
   outer loop
      vertex 583.991058651281 -609.477028029643 -83.5824411486112
      vertex 584.017879177056 -609.681203029917 -78.8198855742137
      vertex 584.018095794238 -609.682466853522 -83.5823854015971
   endloop
endfacet
facet normal 0.999999997955828 -4.49274032452828e-005 4.54958465581182e-005
   outer loop
      vertex 584.017879177056 -609.681203029917 -78.8198855742137
      vertex 583.991058651281 -609.477028029643 -83.5824411486112
      vertex 583.9908420341 -609.475764206037 -78.8199413212278
   endloop
endfacet
facet normal 0.96593745550657 0.258775639188842 -2.47366123900894e-005
   outer loop
      vertex 584.018095794238 -609.682466853522 -83.5823854015971
      vertex 584.097166533833 -609.872643967699 -78.8198311652711
      vertex 584.097383151014 -609.873907791305 -83.5823309926545
   endloop
endfacet
facet normal 0.96593745550657 0.258775639188842 -2.47366123900894e-005
   outer loop
      vertex 584.097166533833 -609.872643967699 -78.8198311652711
      vertex 584.018095794238 -609.682466853522 -83.5823854015971
      vertex 584.017879177056 -609.681203029917 -78.8198855742137
   endloop
endfacet
facet normal 0.866047871751606 0.499961073617475 -9.32833120831793e-005
   outer loop
      vertex 584.097383151014 -609.873907791305 -83.5823309926545
      vertex 584.223300802093 -610.037040635846 -78.8197818022793
      vertex 584.223517419274 -610.038304459452 -83.5822816296627
   endloop
endfacet
facet normal 0.866047871751606 0.499961073617475 -9.32833120831793e-005
   outer loop
      vertex 584.223300802093 -610.037040635846 -78.8197818022793
      vertex 584.097383151014 -609.873907791305 -83.5823309926545
      vertex 584.097166533833 -609.872643967699 -78.8198311652711
   endloop
endfacet
facet normal 0.707138556748549 0.70707498710374 -0.000155472908215743
   outer loop
      vertex 584.223300802093 -610.037040635846 -78.8197818022793
      vertex 584.387902757082 -610.164453496707 -83.5822406766282
      vertex 584.223517419274 -610.038304459452 -83.5822816296627
   endloop
endfacet
facet normal 0.707138556748549 0.70707498710374 -0.000155472908215743
   outer loop
      vertex 584.387902757082 -610.164453496707 -83.5822406766282
      vertex 584.223300802093 -610.037040635846 -78.8197818022793
      vertex 584.387686139901 -610.163189673102 -78.8197408492448
   endloop
endfacet
facet normal 0.500038917704378 0.86600290871577 -0.000207067282584609
   outer loop
      vertex 584.387686139901 -610.163189673102 -78.8197408492448
      vertex 584.579336575327 -610.243758054653 -83.5822109244326
      vertex 584.387902757082 -610.164453496707 -83.5822406766282
   endloop
endfacet
facet normal 0.500038917704378 0.86600290871577 -0.000207067282584609
   outer loop
      vertex 584.579336575327 -610.243758054653 -83.5822109244326
      vertex 584.387686139901 -610.163189673102 -78.8197408492448
      vertex 584.579119958145 -610.242494231047 -78.8197110970492
   endloop
endfacet
facet normal 0.258862452772415 0.965914163235931 -0.000244550363840086
   outer loop
      vertex 584.579119958145 -610.242494231047 -78.8197110970492
      vertex 584.784772975654 -610.270813658723 -83.5821944006388
      vertex 584.579336575327 -610.243758054653 -83.5822109244326
   endloop
endfacet
facet normal 0.258862452772415 0.965914163235931 -0.000244550363840086
   outer loop
      vertex 584.784772975654 -610.270813658723 -83.5821944006388
      vertex 584.579119958145 -610.242494231047 -78.8197110970492
      vertex 584.784556358472 -610.269549835117 -78.8196945732554
   endloop
endfacet
facet normal 4.49394752788242e-005 0.999999963780202 -0.00026536774193841
   outer loop
      vertex 584.784556358472 -610.269549835117 -78.8196945732554
      vertex 584.990211806881 -610.24377651421 -83.5821922313161
      vertex 584.784772975654 -610.270813658723 -83.5821944006388
   endloop
endfacet
facet normal 4.49394752788242e-005 0.999999963780202 -0.00026536774193841
   outer loop
      vertex 584.990211806881 -610.24377651421 -83.5821922313161
      vertex 584.784556358472 -610.269549835117 -78.8196945732554
      vertex 584.989995189699 -610.242512690605 -78.8196924039327
   endloop
endfacet
facet normal -0.258775636373947 0.965937419371073 -0.000268100746964648
   outer loop
      vertex 584.990211806881 -610.24377651421 -83.5821922313161
      vertex 585.181436134981 -610.163225334228 -78.8197047369168
      vertex 585.181652752163 -610.164489157833 -83.5822045643002
   endloop
endfacet
facet normal -0.258775636373947 0.965937419371073 -0.000268100746964648
   outer loop
      vertex 585.181436134981 -610.163225334228 -78.8197047369168
      vertex 584.990211806881 -610.24377651421 -83.5821922313161
      vertex 584.989995189699 -610.242512690605 -78.8196924039327
   endloop
endfacet
endsolid Milk Strap B_1_a_5-24-13
