solid NEW_X-Z_motor
facet normal 0.0 0.0 -1.0
   outer loop
      vertex 145.678364999038 322.134009518755 1.984375
      vertex 147.265864999038 314.196509518755 1.984375
      vertex 145.678364999038 293.559009518755 1.984375
   endloop
endfacet
facet normal 0.0 0.0 -1.0
   outer loop
      vertex 147.265864999038 314.196509518755 1.984375
      vertex 145.678364999038 322.134009518755 1.984375
      vertex 147.319957749804 314.607384752855 1.984375
   endloop
endfacet
facet normal 0.0 0.0 -1.0
   outer loop
      vertex 147.319957749804 314.607384752855 1.984375
      vertex 145.678364999038 322.134009518755 1.984375
      vertex 147.47854967053 314.990259518755 1.984375
   endloop
endfacet
facet normal 0.0 0.0 -1.0
   outer loop
      vertex 147.47854967053 314.990259518755 1.984375
      vertex 145.678364999038 322.134009518755 1.984375
      vertex 152.028364999038 322.134009518755 1.984375
   endloop
endfacet
facet normal 0.0 0.0 -1.0
   outer loop
      vertex 147.47854967053 314.990259518755 1.984375
      vertex 152.028364999038 322.134009518755 1.984375
      vertex 147.730832983904 315.319041533889 1.984375
   endloop
endfacet
facet normal 0.0 0.0 -1.0
   outer loop
      vertex 147.730832983904 315.319041533889 1.984375
      vertex 152.028364999038 322.134009518755 1.984375
      vertex 148.059614999038 315.571324847263 1.984375
   endloop
endfacet
facet normal 0.0 0.0 -1.0
   outer loop
      vertex 148.059614999038 315.571324847263 1.984375
      vertex 152.028364999038 322.134009518755 1.984375
      vertex 148.442489764937 315.729916767989 1.984375
   endloop
endfacet
facet normal 0.0 0.0 -1.0
   outer loop
      vertex 148.442489764937 315.729916767989 1.984375
      vertex 152.028364999038 322.134009518755 1.984375
      vertex 148.853364999038 315.784009518755 1.984375
   endloop
endfacet
facet normal 0.0 0.0 -1.0
   outer loop
      vertex 148.853364999038 315.784009518755 1.984375
      vertex 152.028364999038 322.134009518755 1.984375
      vertex 149.264240233138 315.729916767989 1.984375
   endloop
endfacet
facet normal 0.0 0.0 -1.0
   outer loop
      vertex 149.264240233138 315.729916767989 1.984375
      vertex 152.028364999038 322.134009518755 1.984375
      vertex 149.647114999038 315.571324847263 1.984375
   endloop
endfacet
facet normal 0.0 0.0 -1.0
   outer loop
      vertex 149.647114999038 315.571324847263 1.984375
      vertex 152.028364999038 322.134009518755 1.984375
      vertex 149.975897014171 315.319041533889 1.984375
   endloop
endfacet
facet normal 0.0 0.0 -1.0
   outer loop
      vertex 149.975897014171 315.319041533889 1.984375
      vertex 152.028364999038 322.134009518755 1.984375
      vertex 150.228180327545 314.990259518755 1.984375
   endloop
endfacet
facet normal 0.0 0.0 -1.0
   outer loop
      vertex 150.228180327545 314.990259518755 1.984375
      vertex 152.028364999038 322.134009518755 1.984375
      vertex 150.386772248272 314.607384752855 1.984375
   endloop
endfacet
facet normal 0.0 0.0 -1.0
   outer loop
      vertex 150.386772248272 314.607384752855 1.984375
      vertex 152.028364999038 322.134009518755 1.984375
      vertex 150.440864999038 314.196509518755 1.984375
   endloop
endfacet
facet normal 0.0 0.0 -1.0
   outer loop
      vertex 150.440864999038 314.196509518755 1.984375
      vertex 152.028364999038 322.134009518755 1.984375
      vertex 150.440864999038 301.496509518755 1.984375
   endloop
endfacet
facet normal 0.0 0.0 -1.0
   outer loop
      vertex 145.678364999038 293.559009518755 1.984375
      vertex 147.47854967053 300.702759518755 1.984375
      vertex 152.028364999038 293.559009518755 1.984375
   endloop
endfacet
facet normal 0.0 0.0 -1.0
   outer loop
      vertex 147.47854967053 300.702759518755 1.984375
      vertex 145.678364999038 293.559009518755 1.984375
      vertex 147.319957749804 301.085634284655 1.984375
   endloop
endfacet
facet normal 0.0 0.0 -1.0
   outer loop
      vertex 147.319957749804 301.085634284655 1.984375
      vertex 145.678364999038 293.559009518755 1.984375
      vertex 147.265864999038 301.496509518755 1.984375
   endloop
endfacet
facet normal 0.0 0.0 -1.0
   outer loop
      vertex 147.265864999038 301.496509518755 1.984375
      vertex 145.678364999038 293.559009518755 1.984375
      vertex 147.265864999038 314.196509518755 1.984375
   endloop
endfacet
facet normal 0.0 0.0 -1.0
   outer loop
      vertex 152.028364999038 293.559009518755 1.984375
      vertex 147.47854967053 300.702759518755 1.984375
      vertex 147.730832983904 300.373977503622 1.984375
   endloop
endfacet
facet normal 0.0 0.0 -1.0
   outer loop
      vertex 152.028364999038 293.559009518755 1.984375
      vertex 147.730832983904 300.373977503622 1.984375
      vertex 148.059614999038 300.121694190247 1.984375
   endloop
endfacet
facet normal 0.0 0.0 -1.0
   outer loop
      vertex 152.028364999038 293.559009518755 1.984375
      vertex 148.059614999038 300.121694190247 1.984375
      vertex 148.442489764937 299.963102269521 1.984375
   endloop
endfacet
facet normal 0.0 0.0 -1.0
   outer loop
      vertex 152.028364999038 293.559009518755 1.984375
      vertex 148.442489764937 299.963102269521 1.984375
      vertex 148.853364999038 299.909009518755 1.984375
   endloop
endfacet
facet normal 0.0 0.0 -1.0
   outer loop
      vertex 152.028364999038 293.559009518755 1.984375
      vertex 148.853364999038 299.909009518755 1.984375
      vertex 149.264240233138 299.963102269521 1.984375
   endloop
endfacet
facet normal 0.0 0.0 -1.0
   outer loop
      vertex 152.028364999038 293.559009518755 1.984375
      vertex 149.264240233138 299.963102269521 1.984375
      vertex 149.647114999038 300.121694190247 1.984375
   endloop
endfacet
facet normal 0.0 0.0 -1.0
   outer loop
      vertex 152.028364999038 293.559009518755 1.984375
      vertex 149.647114999038 300.121694190247 1.984375
      vertex 149.975897014171 300.373977503622 1.984375
   endloop
endfacet
facet normal 0.0 0.0 -1.0
   outer loop
      vertex 152.028364999038 293.559009518755 1.984375
      vertex 149.975897014171 300.373977503622 1.984375
      vertex 150.228180327545 300.702759518755 1.984375
   endloop
endfacet
facet normal 0.0 0.0 -1.0
   outer loop
      vertex 152.028364999038 293.559009518755 1.984375
      vertex 150.228180327545 300.702759518755 1.984375
      vertex 150.386772248272 301.085634284655 1.984375
   endloop
endfacet
facet normal 0.0 0.0 -1.0
   outer loop
      vertex 152.028364999038 293.559009518755 1.984375
      vertex 150.386772248272 301.085634284655 1.984375
      vertex 150.440864999038 301.496509518755 1.984375
   endloop
endfacet
facet normal 0.0 0.0 -1.0
   outer loop
      vertex 152.028364999038 293.559009518755 1.984375
      vertex 150.440864999038 301.496509518755 1.984375
      vertex 152.028364999038 322.134009518755 1.984375
   endloop
endfacet
facet normal 0.0 0.0 -1.0
   outer loop
      vertex 147.319957749804 313.785634284655 1.984375
      vertex 147.265864999038 301.496509518755 1.984375
      vertex 147.265864999038 314.196509518755 1.984375
   endloop
endfacet
facet normal 0.0 0.0 -1.0
   outer loop
      vertex 147.265864999038 301.496509518755 1.984375
      vertex 147.319957749804 313.785634284655 1.984375
      vertex 147.319957749804 301.907384752855 1.984375
   endloop
endfacet
facet normal 0.0 0.0 -1.0
   outer loop
      vertex 147.319957749804 301.907384752855 1.984375
      vertex 147.319957749804 313.785634284655 1.984375
      vertex 147.47854967053 313.402759518755 1.984375
   endloop
endfacet
facet normal 0.0 0.0 -1.0
   outer loop
      vertex 147.319957749804 301.907384752855 1.984375
      vertex 147.47854967053 313.402759518755 1.984375
      vertex 147.47854967053 302.290259518755 1.984375
   endloop
endfacet
facet normal 0.0 0.0 -1.0
   outer loop
      vertex 147.47854967053 302.290259518755 1.984375
      vertex 147.47854967053 313.402759518755 1.984375
      vertex 147.730832983904 313.073977503622 1.984375
   endloop
endfacet
facet normal 0.0 0.0 -1.0
   outer loop
      vertex 147.47854967053 302.290259518755 1.984375
      vertex 147.730832983904 313.073977503622 1.984375
      vertex 147.730832983904 302.619041533889 1.984375
   endloop
endfacet
facet normal 0.0 0.0 -1.0
   outer loop
      vertex 147.730832983904 302.619041533889 1.984375
      vertex 147.730832983904 313.073977503622 1.984375
      vertex 148.059614999038 312.821694190247 1.984375
   endloop
endfacet
facet normal 0.0 0.0 -1.0
   outer loop
      vertex 147.730832983904 302.619041533889 1.984375
      vertex 148.059614999038 312.821694190247 1.984375
      vertex 148.059614999038 302.871324847263 1.984375
   endloop
endfacet
facet normal 0.0 0.0 -1.0
   outer loop
      vertex 148.059614999038 302.871324847263 1.984375
      vertex 148.059614999038 312.821694190247 1.984375
      vertex 148.442489764937 312.663102269521 1.984375
   endloop
endfacet
facet normal 0.0 0.0 -1.0
   outer loop
      vertex 148.059614999038 302.871324847263 1.984375
      vertex 148.442489764937 312.663102269521 1.984375
      vertex 148.442489764937 303.029916767989 1.984375
   endloop
endfacet
facet normal 0.0 0.0 -1.0
   outer loop
      vertex 148.442489764937 303.029916767989 1.984375
      vertex 148.442489764937 312.663102269521 1.984375
      vertex 148.853364999038 312.609009518755 1.984375
   endloop
endfacet
facet normal 0.0 0.0 -1.0
   outer loop
      vertex 148.442489764937 303.029916767989 1.984375
      vertex 148.853364999038 312.609009518755 1.984375
      vertex 148.853364999038 303.084009518755 1.984375
   endloop
endfacet
facet normal 0.0 0.0 -1.0
   outer loop
      vertex 148.853364999038 303.084009518755 1.984375
      vertex 148.853364999038 312.609009518755 1.984375
      vertex 149.264240233138 312.663102269521 1.984375
   endloop
endfacet
facet normal 0.0 0.0 -1.0
   outer loop
      vertex 148.853364999038 303.084009518755 1.984375
      vertex 149.264240233138 312.663102269521 1.984375
      vertex 149.264240233138 303.029916767989 1.984375
   endloop
endfacet
facet normal 0.0 0.0 -1.0
   outer loop
      vertex 149.264240233138 303.029916767989 1.984375
      vertex 149.264240233138 312.663102269521 1.984375
      vertex 149.647114999038 312.821694190247 1.984375
   endloop
endfacet
facet normal 0.0 0.0 -1.0
   outer loop
      vertex 149.264240233138 303.029916767989 1.984375
      vertex 149.647114999038 312.821694190247 1.984375
      vertex 149.647114999038 302.871324847263 1.984375
   endloop
endfacet
facet normal 0.0 0.0 -1.0
   outer loop
      vertex 149.647114999038 302.871324847263 1.984375
      vertex 149.647114999038 312.821694190247 1.984375
      vertex 149.975897014171 313.073977503622 1.984375
   endloop
endfacet
facet normal 0.0 0.0 -1.0
   outer loop
      vertex 149.647114999038 302.871324847263 1.984375
      vertex 149.975897014171 313.073977503622 1.984375
      vertex 149.975897014171 302.619041533889 1.984375
   endloop
endfacet
facet normal 0.0 0.0 -1.0
   outer loop
      vertex 149.975897014171 302.619041533889 1.984375
      vertex 149.975897014171 313.073977503622 1.984375
      vertex 150.228180327545 313.402759518755 1.984375
   endloop
endfacet
facet normal 0.0 0.0 -1.0
   outer loop
      vertex 149.975897014171 302.619041533889 1.984375
      vertex 150.228180327545 313.402759518755 1.984375
      vertex 150.228180327545 302.290259518755 1.984375
   endloop
endfacet
facet normal 0.0 0.0 -1.0
   outer loop
      vertex 150.228180327545 302.290259518755 1.984375
      vertex 150.228180327545 313.402759518755 1.984375
      vertex 150.386772248272 313.785634284655 1.984375
   endloop
endfacet
facet normal 0.0 0.0 -1.0
   outer loop
      vertex 150.228180327545 302.290259518755 1.984375
      vertex 150.386772248272 313.785634284655 1.984375
      vertex 150.386772248272 301.907384752855 1.984375
   endloop
endfacet
facet normal 0.0 0.0 -1.0
   outer loop
      vertex 150.386772248272 301.907384752855 1.984375
      vertex 150.386772248272 313.785634284655 1.984375
      vertex 150.440864999038 314.196509518755 1.984375
   endloop
endfacet
facet normal 0.0 0.0 -1.0
   outer loop
      vertex 150.386772248272 301.907384752855 1.984375
      vertex 150.440864999038 314.196509518755 1.984375
      vertex 150.440864999038 301.496509518755 1.984375
   endloop
endfacet
facet normal 0.0 0.0 1.0
   outer loop
      vertex 146.868989999038 293.559009518755 6.35
      vertex 145.678364999038 322.134009518755 6.35
      vertex 145.678364999038 293.559009518755 6.35
   endloop
endfacet
facet normal 0.0 0.0 1.0
   outer loop
      vertex 145.678364999038 322.134009518755 6.35
      vertex 146.868989999038 293.559009518755 6.35
      vertex 146.868989999038 322.134009518755 6.35
   endloop
endfacet
facet normal 1.0 0.0 0.0
   outer loop
      vertex 151.631489999038 322.134009518755 5.159375
      vertex 151.631489999038 293.559009518755 6.35
      vertex 151.631489999038 293.559009518755 5.159375
   endloop
endfacet
facet normal 1.0 0.0 0.0
   outer loop
      vertex 151.631489999038 293.559009518755 6.35
      vertex 151.631489999038 322.134009518755 5.159375
      vertex 151.631489999038 322.134009518755 6.35
   endloop
endfacet
facet normal 0.0 0.0 1.0
   outer loop
      vertex 148.442489764937 303.029916767989 6.35
      vertex 148.059614999038 312.821694190247 6.35
      vertex 148.059614999038 302.871324847263 6.35
   endloop
endfacet
facet normal 0.0 0.0 1.0
   outer loop
      vertex 148.059614999038 312.821694190247 6.35
      vertex 148.442489764937 303.029916767989 6.35
      vertex 148.442489764937 312.663102269521 6.35
   endloop
endfacet
facet normal 0.0 0.0 1.0
   outer loop
      vertex 148.442489764937 312.663102269521 6.35
      vertex 148.442489764937 303.029916767989 6.35
      vertex 148.853364999038 303.084009518755 6.35
   endloop
endfacet
facet normal 0.0 0.0 1.0
   outer loop
      vertex 148.442489764937 312.663102269521 6.35
      vertex 148.853364999038 303.084009518755 6.35
      vertex 148.853364999038 312.609009518755 6.35
   endloop
endfacet
facet normal 0.0 0.0 1.0
   outer loop
      vertex 148.853364999038 312.609009518755 6.35
      vertex 148.853364999038 303.084009518755 6.35
      vertex 149.264240233138 303.029916767989 6.35
   endloop
endfacet
facet normal 0.0 0.0 1.0
   outer loop
      vertex 148.853364999038 312.609009518755 6.35
      vertex 149.264240233138 303.029916767989 6.35
      vertex 149.264240233138 312.663102269521 6.35
   endloop
endfacet
facet normal 0.0 0.0 1.0
   outer loop
      vertex 152.028364999038 293.559009518755 5.159375
      vertex 151.631489999038 322.134009518755 5.159375
      vertex 151.631489999038 293.559009518755 5.159375
   endloop
endfacet
facet normal 0.0 0.0 1.0
   outer loop
      vertex 151.631489999038 322.134009518755 5.159375
      vertex 152.028364999038 293.559009518755 5.159375
      vertex 152.028364999038 322.134009518755 5.159375
   endloop
endfacet
facet normal -1.0 0.0 0.0
   outer loop
      vertex 150.440864999038 322.134009518755 6.35
      vertex 150.440864999038 293.559009518755 5.159375
      vertex 150.440864999038 293.559009518755 6.35
   endloop
endfacet
facet normal -1.0 0.0 0.0
   outer loop
      vertex 150.440864999038 293.559009518755 5.159375
      vertex 150.440864999038 322.134009518755 6.35
      vertex 150.440864999038 301.496509518755 5.159375
   endloop
endfacet
facet normal -1.0 0.0 0.0
   outer loop
      vertex 150.440864999038 301.496509518755 5.159375
      vertex 150.440864999038 322.134009518755 6.35
      vertex 150.440864999038 314.196509518755 5.159375
   endloop
endfacet
facet normal -1.0 0.0 0.0
   outer loop
      vertex 150.440864999038 314.196509518755 5.159375
      vertex 150.440864999038 322.134009518755 6.35
      vertex 150.440864999038 322.134009518755 5.159375
   endloop
endfacet
facet normal 1.0841899836174e-016 -5.17161259142884e-017 1.0
   outer loop
      vertex 146.868989999038 293.559009518755 5.159375
      vertex 147.265864999038 301.496509518755 5.159375
      vertex 146.868989999038 322.134009518755 5.159375
   endloop
endfacet
facet normal 1.0841899836174e-016 -5.17161259142884e-017 1.0
   outer loop
      vertex 147.265864999038 301.496509518755 5.159375
      vertex 146.868989999038 293.559009518755 5.159375
      vertex 148.059614999038 293.559009518755 5.159375
   endloop
endfacet
facet normal 1.0841899836174e-016 -5.17161259142884e-017 1.0
   outer loop
      vertex 147.265864999038 301.496509518755 5.159375
      vertex 148.059614999038 293.559009518755 5.159375
      vertex 147.319957749804 301.085634284655 5.159375
   endloop
endfacet
facet normal 1.0841899836174e-016 -5.17161259142884e-017 1.0
   outer loop
      vertex 147.319957749804 301.085634284655 5.159375
      vertex 148.059614999038 293.559009518755 5.159375
      vertex 147.47854967053 300.702759518755 5.159375
   endloop
endfacet
facet normal 1.0841899836174e-016 -5.17161259142884e-017 1.0
   outer loop
      vertex 147.47854967053 300.702759518755 5.159375
      vertex 148.059614999038 293.559009518755 5.159375
      vertex 147.730832983904 300.373977503622 5.159375
   endloop
endfacet
facet normal 1.0841899836174e-016 -5.17161259142884e-017 1.0
   outer loop
      vertex 147.730832983904 300.373977503622 5.159375
      vertex 148.059614999038 293.559009518755 5.159375
      vertex 148.059614999038 300.121694190247 5.159375
   endloop
endfacet
facet normal 1.0841899836174e-016 -5.17161259142884e-017 1.0
   outer loop
      vertex 147.319957749804 301.907384752855 5.159375
      vertex 147.265864999038 314.196509518755 5.159375
      vertex 147.265864999038 301.496509518755 5.159375
   endloop
endfacet
facet normal 1.0841899836174e-016 -5.17161259142884e-017 1.0
   outer loop
      vertex 147.265864999038 314.196509518755 5.159375
      vertex 147.319957749804 301.907384752855 5.159375
      vertex 147.319957749804 313.785634284655 5.159375
   endloop
endfacet
facet normal 1.0841899836174e-016 -5.17161259142884e-017 1.0
   outer loop
      vertex 147.319957749804 313.785634284655 5.159375
      vertex 147.319957749804 301.907384752855 5.159375
      vertex 147.47854967053 302.290259518755 5.159375
   endloop
endfacet
facet normal 1.0841899836174e-016 -5.17161259142884e-017 1.0
   outer loop
      vertex 147.319957749804 313.785634284655 5.159375
      vertex 147.47854967053 302.290259518755 5.159375
      vertex 147.47854967053 313.402759518755 5.159375
   endloop
endfacet
facet normal 1.0841899836174e-016 -5.17161259142884e-017 1.0
   outer loop
      vertex 147.47854967053 313.402759518755 5.159375
      vertex 147.47854967053 302.290259518755 5.159375
      vertex 147.730832983904 302.619041533889 5.159375
   endloop
endfacet
facet normal 1.0841899836174e-016 -5.17161259142884e-017 1.0
   outer loop
      vertex 147.47854967053 313.402759518755 5.159375
      vertex 147.730832983904 302.619041533889 5.159375
      vertex 147.730832983904 313.073977503622 5.159375
   endloop
endfacet
facet normal 1.0841899836174e-016 -5.17161259142884e-017 1.0
   outer loop
      vertex 147.730832983904 313.073977503622 5.159375
      vertex 147.730832983904 302.619041533889 5.159375
      vertex 148.059614999038 302.871324847263 5.159375
   endloop
endfacet
facet normal 1.0841899836174e-016 -5.17161259142884e-017 1.0
   outer loop
      vertex 147.730832983904 313.073977503622 5.159375
      vertex 148.059614999038 302.871324847263 5.159375
      vertex 148.059614999038 312.821694190247 5.159375
   endloop
endfacet
facet normal 1.0841899836174e-016 -5.17161259142884e-017 1.0
   outer loop
      vertex 146.868989999038 322.134009518755 5.159375
      vertex 147.265864999038 314.196509518755 5.159375
      vertex 148.059614999038 322.134009518755 5.159375
   endloop
endfacet
facet normal 1.0841899836174e-016 -5.17161259142884e-017 1.0
   outer loop
      vertex 147.265864999038 314.196509518755 5.159375
      vertex 146.868989999038 322.134009518755 5.159375
      vertex 147.265864999038 301.496509518755 5.159375
   endloop
endfacet
facet normal 1.0841899836174e-016 -5.17161259142884e-017 1.0
   outer loop
      vertex 148.059614999038 322.134009518755 5.159375
      vertex 147.265864999038 314.196509518755 5.159375
      vertex 147.319957749804 314.607384752855 5.159375
   endloop
endfacet
facet normal 1.0841899836174e-016 -5.17161259142884e-017 1.0
   outer loop
      vertex 148.059614999038 322.134009518755 5.159375
      vertex 147.319957749804 314.607384752855 5.159375
      vertex 147.47854967053 314.990259518755 5.159375
   endloop
endfacet
facet normal 1.0841899836174e-016 -5.17161259142884e-017 1.0
   outer loop
      vertex 148.059614999038 322.134009518755 5.159375
      vertex 147.47854967053 314.990259518755 5.159375
      vertex 147.730832983904 315.319041533889 5.159375
   endloop
endfacet
facet normal 1.0841899836174e-016 -5.17161259142884e-017 1.0
   outer loop
      vertex 148.059614999038 322.134009518755 5.159375
      vertex 147.730832983904 315.319041533889 5.159375
      vertex 148.059614999038 315.571324847263 5.159375
   endloop
endfacet
facet normal 1.0 0.0 0.0
   outer loop
      vertex 146.868989999038 322.134009518755 5.159375
      vertex 146.868989999038 293.559009518755 6.35
      vertex 146.868989999038 293.559009518755 5.159375
   endloop
endfacet
facet normal 1.0 0.0 0.0
   outer loop
      vertex 146.868989999038 293.559009518755 6.35
      vertex 146.868989999038 322.134009518755 5.159375
      vertex 146.868989999038 322.134009518755 6.35
   endloop
endfacet
facet normal 0.999997610407665 -0.00218613333539472 3.51388300454054e-020
   outer loop
      vertex 149.264240233138 299.963102269521 5.159375
      vertex 149.250239999038 293.559009518755 6.35
      vertex 149.250239999038 293.559009518755 5.159375
   endloop
endfacet
facet normal 0.999997610407665 -0.00218613333539472 3.51388300454054e-020
   outer loop
      vertex 149.250239999038 293.559009518755 6.35
      vertex 149.264240233138 299.963102269521 5.159375
      vertex 149.264240233138 299.963102269521 6.35
   endloop
endfacet
facet normal -1.0 0.0 0.0
   outer loop
      vertex 148.059614999038 300.121694190247 6.35
      vertex 148.059614999038 293.559009518755 5.159375
      vertex 148.059614999038 293.559009518755 6.35
   endloop
endfacet
facet normal -1.0 0.0 0.0
   outer loop
      vertex 148.059614999038 293.559009518755 5.159375
      vertex 148.059614999038 300.121694190247 6.35
      vertex 148.059614999038 300.121694190247 5.159375
   endloop
endfacet
facet normal 0.0 -1.27481613453779e-016 1.0
   outer loop
      vertex 149.647114999038 302.871324847263 5.159375
      vertex 149.264240233138 312.663102269521 5.159375
      vertex 149.264240233138 303.029916767989 5.159375
   endloop
endfacet
facet normal 0.0 -1.27481613453779e-016 1.0
   outer loop
      vertex 149.264240233138 312.663102269521 5.159375
      vertex 149.647114999038 302.871324847263 5.159375
      vertex 149.647114999038 312.821694190247 5.159375
   endloop
endfacet
facet normal 0.0 -1.27481613453779e-016 1.0
   outer loop
      vertex 149.647114999038 312.821694190247 5.159375
      vertex 149.647114999038 302.871324847263 5.159375
      vertex 149.975897014171 302.619041533889 5.159375
   endloop
endfacet
facet normal 0.0 -1.27481613453779e-016 1.0
   outer loop
      vertex 149.647114999038 312.821694190247 5.159375
      vertex 149.975897014171 302.619041533889 5.159375
      vertex 149.975897014171 313.073977503622 5.159375
   endloop
endfacet
facet normal 0.0 -1.27481613453779e-016 1.0
   outer loop
      vertex 149.975897014171 313.073977503622 5.159375
      vertex 149.975897014171 302.619041533889 5.159375
      vertex 150.228180327545 302.290259518755 5.159375
   endloop
endfacet
facet normal 0.0 -1.27481613453779e-016 1.0
   outer loop
      vertex 149.975897014171 313.073977503622 5.159375
      vertex 150.228180327545 302.290259518755 5.159375
      vertex 150.228180327545 313.402759518755 5.159375
   endloop
endfacet
facet normal 0.0 -1.27481613453779e-016 1.0
   outer loop
      vertex 150.228180327545 313.402759518755 5.159375
      vertex 150.228180327545 302.290259518755 5.159375
      vertex 150.386772248272 301.907384752855 5.159375
   endloop
endfacet
facet normal 0.0 -1.27481613453779e-016 1.0
   outer loop
      vertex 150.228180327545 313.402759518755 5.159375
      vertex 150.386772248272 301.907384752855 5.159375
      vertex 150.386772248272 313.785634284655 5.159375
   endloop
endfacet
facet normal 0.0 -1.27481613453779e-016 1.0
   outer loop
      vertex 150.386772248272 313.785634284655 5.159375
      vertex 150.386772248272 301.907384752855 5.159375
      vertex 150.440864999038 301.496509518755 5.159375
   endloop
endfacet
facet normal 0.0 -1.27481613453779e-016 1.0
   outer loop
      vertex 150.386772248272 313.785634284655 5.159375
      vertex 150.440864999038 301.496509518755 5.159375
      vertex 150.440864999038 314.196509518755 5.159375
   endloop
endfacet
facet normal 0.0 -1.0 0.0
   outer loop
      vertex 151.631489999038 293.559009518755 6.35
      vertex 150.440864999038 293.559009518755 5.159375
      vertex 151.631489999038 293.559009518755 5.159375
   endloop
endfacet
facet normal 0.0 -1.0 0.0
   outer loop
      vertex 150.440864999038 293.559009518755 5.159375
      vertex 151.631489999038 293.559009518755 6.35
      vertex 150.440864999038 293.559009518755 6.35
   endloop
endfacet
facet normal 0.0 -1.0 0.0
   outer loop
      vertex 149.250239999038 293.559009518755 6.35
      vertex 148.059614999038 293.559009518755 5.159375
      vertex 149.250239999038 293.559009518755 5.159375
   endloop
endfacet
facet normal 0.0 -1.0 0.0
   outer loop
      vertex 148.059614999038 293.559009518755 5.159375
      vertex 149.250239999038 293.559009518755 6.35
      vertex 148.059614999038 293.559009518755 6.35
   endloop
endfacet
facet normal 0.0 -1.0 0.0
   outer loop
      vertex 152.028364999038 293.559009518755 5.159375
      vertex 145.678364999038 293.559009518755 1.984375
      vertex 152.028364999038 293.559009518755 1.984375
   endloop
endfacet
facet normal 0.0 -1.0 0.0
   outer loop
      vertex 145.678364999038 293.559009518755 1.984375
      vertex 152.028364999038 293.559009518755 5.159375
      vertex 146.868989999038 293.559009518755 5.159375
   endloop
endfacet
facet normal 0.0 -1.0 0.0
   outer loop
      vertex 145.678364999038 293.559009518755 1.984375
      vertex 146.868989999038 293.559009518755 5.159375
      vertex 145.678364999038 293.559009518755 6.35
   endloop
endfacet
facet normal 0.0 -1.0 0.0
   outer loop
      vertex 146.868989999038 293.559009518755 5.159375
      vertex 152.028364999038 293.559009518755 5.159375
      vertex 151.631489999038 293.559009518755 5.159375
   endloop
endfacet
facet normal 0.0 -1.0 0.0
   outer loop
      vertex 146.868989999038 293.559009518755 5.159375
      vertex 151.631489999038 293.559009518755 5.159375
      vertex 150.440864999038 293.559009518755 5.159375
   endloop
endfacet
facet normal 0.0 -1.0 0.0
   outer loop
      vertex 146.868989999038 293.559009518755 5.159375
      vertex 150.440864999038 293.559009518755 5.159375
      vertex 149.250239999038 293.559009518755 5.159375
   endloop
endfacet
facet normal 0.0 -1.0 0.0
   outer loop
      vertex 146.868989999038 293.559009518755 5.159375
      vertex 149.250239999038 293.559009518755 5.159375
      vertex 148.059614999038 293.559009518755 5.159375
   endloop
endfacet
facet normal 0.0 -1.0 0.0
   outer loop
      vertex 145.678364999038 293.559009518755 6.35
      vertex 146.868989999038 293.559009518755 5.159375
      vertex 146.868989999038 293.559009518755 6.35
   endloop
endfacet
facet normal 1.0 0.0 0.0
   outer loop
      vertex 152.028364999038 322.134009518755 1.984375
      vertex 152.028364999038 293.559009518755 5.159375
      vertex 152.028364999038 293.559009518755 1.984375
   endloop
endfacet
facet normal 1.0 0.0 0.0
   outer loop
      vertex 152.028364999038 293.559009518755 5.159375
      vertex 152.028364999038 322.134009518755 1.984375
      vertex 152.028364999038 322.134009518755 5.159375
   endloop
endfacet
facet normal -1.0 0.0 0.0
   outer loop
      vertex 145.678364999038 322.134009518755 6.35
      vertex 145.678364999038 293.559009518755 1.984375
      vertex 145.678364999038 293.559009518755 6.35
   endloop
endfacet
facet normal -1.0 0.0 0.0
   outer loop
      vertex 145.678364999038 293.559009518755 1.984375
      vertex 145.678364999038 322.134009518755 6.35
      vertex 145.678364999038 322.134009518755 1.984375
   endloop
endfacet
facet normal 0.0 0.0 1.0
   outer loop
      vertex 151.631489999038 293.559009518755 6.35
      vertex 150.440864999038 322.134009518755 6.35
      vertex 150.440864999038 293.559009518755 6.35
   endloop
endfacet
facet normal 0.0 0.0 1.0
   outer loop
      vertex 150.440864999038 322.134009518755 6.35
      vertex 151.631489999038 293.559009518755 6.35
      vertex 151.631489999038 322.134009518755 6.35
   endloop
endfacet
facet normal -4.24389529923283e-015 1.0 2.85356583250915e-014
   outer loop
      vertex 145.678364999038 322.134009518755 1.984375
      vertex 146.868989999038 322.134009518755 5.159375
      vertex 152.028364999038 322.134009518755 1.984375
   endloop
endfacet
facet normal -4.24389529923283e-015 1.0 2.85356583250915e-014
   outer loop
      vertex 146.868989999038 322.134009518755 5.159375
      vertex 145.678364999038 322.134009518755 1.984375
      vertex 145.678364999038 322.134009518755 6.35
   endloop
endfacet
facet normal -4.24389529923283e-015 1.0 2.85356583250915e-014
   outer loop
      vertex 146.868989999038 322.134009518755 5.159375
      vertex 145.678364999038 322.134009518755 6.35
      vertex 146.868989999038 322.134009518755 6.35
   endloop
endfacet
facet normal -4.24389529923283e-015 1.0 2.85356583250915e-014
   outer loop
      vertex 148.059614999038 322.134009518755 6.35
      vertex 149.250239999038 322.134009518755 5.159375
      vertex 148.059614999038 322.134009518755 5.159375
   endloop
endfacet
facet normal -4.24389529923283e-015 1.0 2.85356583250915e-014
   outer loop
      vertex 149.250239999038 322.134009518755 5.159375
      vertex 148.059614999038 322.134009518755 6.35
      vertex 149.250239999038 322.134009518755 6.35
   endloop
endfacet
facet normal -4.24389529923283e-015 1.0 2.85356583250915e-014
   outer loop
      vertex 150.440864999038 322.134009518755 6.35
      vertex 151.631489999038 322.134009518755 5.159375
      vertex 150.440864999038 322.134009518755 5.159375
   endloop
endfacet
facet normal -4.24389529923283e-015 1.0 2.85356583250915e-014
   outer loop
      vertex 151.631489999038 322.134009518755 5.159375
      vertex 150.440864999038 322.134009518755 6.35
      vertex 151.631489999038 322.134009518755 6.35
   endloop
endfacet
facet normal -4.24389529923283e-015 1.0 2.85356583250915e-014
   outer loop
      vertex 146.868989999038 322.134009518755 5.159375
      vertex 152.028364999038 322.134009518755 5.159375
      vertex 152.028364999038 322.134009518755 1.984375
   endloop
endfacet
facet normal -4.24389529923283e-015 1.0 2.85356583250915e-014
   outer loop
      vertex 152.028364999038 322.134009518755 5.159375
      vertex 146.868989999038 322.134009518755 5.159375
      vertex 148.059614999038 322.134009518755 5.159375
   endloop
endfacet
facet normal -4.24389529923283e-015 1.0 2.85356583250915e-014
   outer loop
      vertex 152.028364999038 322.134009518755 5.159375
      vertex 148.059614999038 322.134009518755 5.159375
      vertex 149.250239999038 322.134009518755 5.159375
   endloop
endfacet
facet normal -4.24389529923283e-015 1.0 2.85356583250915e-014
   outer loop
      vertex 152.028364999038 322.134009518755 5.159375
      vertex 149.250239999038 322.134009518755 5.159375
      vertex 150.440864999038 322.134009518755 5.159375
   endloop
endfacet
facet normal -4.24389529923283e-015 1.0 2.85356583250915e-014
   outer loop
      vertex 152.028364999038 322.134009518755 5.159375
      vertex 150.440864999038 322.134009518755 5.159375
      vertex 151.631489999038 322.134009518755 5.159375
   endloop
endfacet
facet normal 0.0 0.0 1.0
   outer loop
      vertex 149.250239999038 293.559009518755 6.35
      vertex 148.059614999038 300.121694190247 6.35
      vertex 148.059614999038 293.559009518755 6.35
   endloop
endfacet
facet normal 0.0 0.0 1.0
   outer loop
      vertex 148.059614999038 300.121694190247 6.35
      vertex 149.250239999038 293.559009518755 6.35
      vertex 148.442489764937 299.963102269521 6.35
   endloop
endfacet
facet normal 0.0 0.0 1.0
   outer loop
      vertex 148.442489764937 299.963102269521 6.35
      vertex 149.250239999038 293.559009518755 6.35
      vertex 148.853364999038 299.909009518755 6.35
   endloop
endfacet
facet normal 0.0 0.0 1.0
   outer loop
      vertex 148.853364999038 299.909009518755 6.35
      vertex 149.250239999038 293.559009518755 6.35
      vertex 149.264240233138 299.963102269521 6.35
   endloop
endfacet
facet normal 1.0 0.0 0.0
   outer loop
      vertex 149.264240233138 312.663102269521 5.159375
      vertex 149.264240233138 303.029916767989 6.35
      vertex 149.264240233138 303.029916767989 5.159375
   endloop
endfacet
facet normal 1.0 0.0 0.0
   outer loop
      vertex 149.264240233138 303.029916767989 6.35
      vertex 149.264240233138 312.663102269521 5.159375
      vertex 149.264240233138 312.663102269521 6.35
   endloop
endfacet
facet normal -1.0 0.0 0.0
   outer loop
      vertex 148.059614999038 312.821694190247 6.35
      vertex 148.059614999038 302.871324847263 5.159375
      vertex 148.059614999038 302.871324847263 6.35
   endloop
endfacet
facet normal -1.0 0.0 0.0
   outer loop
      vertex 148.059614999038 302.871324847263 5.159375
      vertex 148.059614999038 312.821694190247 6.35
      vertex 148.059614999038 312.821694190247 5.159375
   endloop
endfacet
facet normal 0.0 0.0 1.0
   outer loop
      vertex 149.264240233138 315.729916767989 5.159375
      vertex 150.440864999038 322.134009518755 5.159375
      vertex 149.250239999038 322.134009518755 5.159375
   endloop
endfacet
facet normal 0.0 0.0 1.0
   outer loop
      vertex 150.440864999038 322.134009518755 5.159375
      vertex 149.264240233138 315.729916767989 5.159375
      vertex 149.647114999038 315.571324847263 5.159375
   endloop
endfacet
facet normal 0.0 0.0 1.0
   outer loop
      vertex 150.440864999038 322.134009518755 5.159375
      vertex 149.647114999038 315.571324847263 5.159375
      vertex 149.975897014171 315.319041533889 5.159375
   endloop
endfacet
facet normal 0.0 0.0 1.0
   outer loop
      vertex 150.440864999038 322.134009518755 5.159375
      vertex 149.975897014171 315.319041533889 5.159375
      vertex 150.228180327545 314.990259518755 5.159375
   endloop
endfacet
facet normal 0.0 0.0 1.0
   outer loop
      vertex 150.440864999038 322.134009518755 5.159375
      vertex 150.228180327545 314.990259518755 5.159375
      vertex 150.386772248272 314.607384752855 5.159375
   endloop
endfacet
facet normal 0.0 0.0 1.0
   outer loop
      vertex 150.440864999038 322.134009518755 5.159375
      vertex 150.386772248272 314.607384752855 5.159375
      vertex 150.440864999038 314.196509518755 5.159375
   endloop
endfacet
facet normal 0.707106781186563 -0.707106781186532 0.0
   outer loop
      vertex 147.730832983904 315.319041533889 1.984375
      vertex 147.47854967053 314.990259518755 5.159375
      vertex 147.47854967053 314.990259518755 1.984375
   endloop
endfacet
facet normal 0.707106781186563 -0.707106781186532 0.0
   outer loop
      vertex 147.47854967053 314.990259518755 5.159375
      vertex 147.730832983904 315.319041533889 1.984375
      vertex 147.730832983904 315.319041533889 5.159375
   endloop
endfacet
facet normal 0.866025403784451 -0.499999999999979 0.0
   outer loop
      vertex 147.47854967053 314.990259518755 1.984375
      vertex 147.319957749804 314.607384752855 5.159375
      vertex 147.319957749804 314.607384752855 1.984375
   endloop
endfacet
facet normal 0.866025403784451 -0.499999999999979 0.0
   outer loop
      vertex 147.319957749804 314.607384752855 5.159375
      vertex 147.47854967053 314.990259518755 1.984375
      vertex 147.47854967053 314.990259518755 5.159375
   endloop
endfacet
facet normal 0.965925826289067 -0.258819045102525 0.0
   outer loop
      vertex 147.319957749804 314.607384752855 1.984375
      vertex 147.265864999038 314.196509518755 5.159375
      vertex 147.265864999038 314.196509518755 1.984375
   endloop
endfacet
facet normal 0.965925826289067 -0.258819045102525 0.0
   outer loop
      vertex 147.265864999038 314.196509518755 5.159375
      vertex 147.319957749804 314.607384752855 1.984375
      vertex 147.319957749804 314.607384752855 5.159375
   endloop
endfacet
facet normal 1.0 0.0 0.0
   outer loop
      vertex 147.265864999038 314.196509518755 1.984375
      vertex 147.319957749804 313.785634284655 5.159375
      vertex 147.319957749804 313.785634284655 1.984375
   endloop
endfacet
facet normal 1.0 0.0 0.0
   outer loop
      vertex 147.319957749804 313.785634284655 5.159375
      vertex 147.265864999038 314.196509518755 1.984375
      vertex 147.265864999038 314.196509518755 5.159375
   endloop
endfacet
facet normal 0.965925826289067 0.258819045102525 0.0
   outer loop
      vertex 147.319957749804 313.785634284655 1.984375
      vertex 147.47854967053 313.402759518755 5.159375
      vertex 147.47854967053 313.402759518755 1.984375
   endloop
endfacet
facet normal 0.965925826289067 0.258819045102525 0.0
   outer loop
      vertex 147.47854967053 313.402759518755 5.159375
      vertex 147.319957749804 313.785634284655 1.984375
      vertex 147.319957749804 313.785634284655 5.159375
   endloop
endfacet
facet normal 0.999997610407665 0.00218613333539478 0.0
   outer loop
      vertex 149.250239999038 322.134009518755 5.159375
      vertex 149.264240233138 315.729916767989 6.35
      vertex 149.264240233138 315.729916767989 5.159375
   endloop
endfacet
facet normal 0.999997610407665 0.00218613333539478 0.0
   outer loop
      vertex 149.264240233138 315.729916767989 6.35
      vertex 149.250239999038 322.134009518755 5.159375
      vertex 149.250239999038 322.134009518755 6.35
   endloop
endfacet
facet normal 0.0 0.0 1.0
   outer loop
      vertex 148.442489764937 315.729916767989 6.35
      vertex 148.059614999038 322.134009518755 6.35
      vertex 148.059614999038 315.571324847263 6.35
   endloop
endfacet
facet normal 0.0 0.0 1.0
   outer loop
      vertex 148.059614999038 322.134009518755 6.35
      vertex 148.442489764937 315.729916767989 6.35
      vertex 149.250239999038 322.134009518755 6.35
   endloop
endfacet
facet normal 0.0 0.0 1.0
   outer loop
      vertex 149.250239999038 322.134009518755 6.35
      vertex 148.442489764937 315.729916767989 6.35
      vertex 148.853364999038 315.784009518755 6.35
   endloop
endfacet
facet normal 0.0 0.0 1.0
   outer loop
      vertex 149.250239999038 322.134009518755 6.35
      vertex 148.853364999038 315.784009518755 6.35
      vertex 149.264240233138 315.729916767989 6.35
   endloop
endfacet
facet normal -1.0 0.0 0.0
   outer loop
      vertex 148.059614999038 322.134009518755 6.35
      vertex 148.059614999038 315.571324847263 5.159375
      vertex 148.059614999038 315.571324847263 6.35
   endloop
endfacet
facet normal -1.0 0.0 0.0
   outer loop
      vertex 148.059614999038 315.571324847263 5.159375
      vertex 148.059614999038 322.134009518755 6.35
      vertex 148.059614999038 322.134009518755 5.159375
   endloop
endfacet
facet normal 0.707106781186563 0.707106781186532 0.0
   outer loop
      vertex 147.730832983904 313.073977503622 5.159375
      vertex 148.059614999038 312.821694190247 1.984375
      vertex 147.730832983904 313.073977503622 1.984375
   endloop
endfacet
facet normal 0.707106781186563 0.707106781186532 0.0
   outer loop
      vertex 148.059614999038 312.821694190247 1.984375
      vertex 147.730832983904 313.073977503622 5.159375
      vertex 148.059614999038 312.821694190247 5.159375
   endloop
endfacet
facet normal 0.461550979250909 -0.887113686937884 2.46457497584569e-019
   outer loop
      vertex 148.059614999038 315.571324847263 5.159375
      vertex 147.730832983904 315.319041533889 1.984375
      vertex 148.059614999038 315.571324847263 1.984375
   endloop
endfacet
facet normal 0.461550979250909 -0.887113686937884 2.46457497584569e-019
   outer loop
      vertex 147.730832983904 315.319041533889 1.984375
      vertex 148.059614999038 315.571324847263 5.159375
      vertex 147.730832983904 315.319041533889 5.159375
   endloop
endfacet
facet normal 0.866025403784451 0.499999999999979 0.0
   outer loop
      vertex 147.47854967053 313.402759518755 1.984375
      vertex 147.730832983904 313.073977503622 5.159375
      vertex 147.730832983904 313.073977503622 1.984375
   endloop
endfacet
facet normal 0.866025403784451 0.499999999999979 0.0
   outer loop
      vertex 147.730832983904 313.073977503622 5.159375
      vertex 147.47854967053 313.402759518755 1.984375
      vertex 147.47854967053 313.402759518755 5.159375
   endloop
endfacet
facet normal 0.461550979250909 0.887113686937884 2.46457497584569e-019
   outer loop
      vertex 148.059614999038 312.821694190247 5.159375
      vertex 148.442489764937 312.663102269521 1.984375
      vertex 148.059614999038 312.821694190247 1.984375
   endloop
endfacet
facet normal 0.461550979250909 0.887113686937884 2.46457497584569e-019
   outer loop
      vertex 148.442489764937 312.663102269521 1.984375
      vertex 148.059614999038 312.821694190247 5.159375
      vertex 148.442489764937 312.663102269521 6.35
   endloop
endfacet
facet normal 0.461550979250909 0.887113686937884 2.46457497584569e-019
   outer loop
      vertex 148.442489764937 312.663102269521 6.35
      vertex 148.059614999038 312.821694190247 5.159375
      vertex 148.059614999038 312.821694190247 6.35
   endloop
endfacet
facet normal 0.258819045102508 -0.965925826289072 1.85021024870961e-019
   outer loop
      vertex 148.442489764937 315.729916767989 6.35
      vertex 148.059614999038 315.571324847263 1.984375
      vertex 148.442489764937 315.729916767989 1.984375
   endloop
endfacet
facet normal 0.258819045102508 -0.965925826289072 1.85021024870961e-019
   outer loop
      vertex 148.059614999038 315.571324847263 1.984375
      vertex 148.442489764937 315.729916767989 6.35
      vertex 148.059614999038 315.571324847263 5.159375
   endloop
endfacet
facet normal 0.258819045102508 -0.965925826289072 1.85021024870961e-019
   outer loop
      vertex 148.059614999038 315.571324847263 5.159375
      vertex 148.442489764937 315.729916767989 6.35
      vertex 148.059614999038 315.571324847263 6.35
   endloop
endfacet
facet normal 0.258819045102508 0.965925826289072 1.85021024870961e-019
   outer loop
      vertex 148.442489764937 312.663102269521 6.35
      vertex 148.853364999038 312.609009518755 1.984375
      vertex 148.442489764937 312.663102269521 1.984375
   endloop
endfacet
facet normal 0.258819045102508 0.965925826289072 1.85021024870961e-019
   outer loop
      vertex 148.853364999038 312.609009518755 1.984375
      vertex 148.442489764937 312.663102269521 6.35
      vertex 148.853364999038 312.609009518755 6.35
   endloop
endfacet
facet normal -3.56444395825876e-017 1.0 8.62060738938432e-020
   outer loop
      vertex 148.853364999038 312.609009518755 6.35
      vertex 149.264240233138 312.663102269521 1.984375
      vertex 148.853364999038 312.609009518755 1.984375
   endloop
endfacet
facet normal -3.56444395825876e-017 1.0 8.62060738938432e-020
   outer loop
      vertex 149.264240233138 312.663102269521 1.984375
      vertex 148.853364999038 312.609009518755 6.35
      vertex 149.264240233138 312.663102269521 5.159375
   endloop
endfacet
facet normal -3.56444395825876e-017 1.0 8.62060738938432e-020
   outer loop
      vertex 149.264240233138 312.663102269521 5.159375
      vertex 148.853364999038 312.609009518755 6.35
      vertex 149.264240233138 312.663102269521 6.35
   endloop
endfacet
facet normal -0.216222093927287 0.976344204723775 1.14830913027054e-019
   outer loop
      vertex 149.264240233138 312.663102269521 5.159375
      vertex 149.647114999038 312.821694190247 1.984375
      vertex 149.264240233138 312.663102269521 1.984375
   endloop
endfacet
facet normal -0.216222093927287 0.976344204723775 1.14830913027054e-019
   outer loop
      vertex 149.647114999038 312.821694190247 1.984375
      vertex 149.264240233138 312.663102269521 5.159375
      vertex 149.647114999038 312.821694190247 5.159375
   endloop
endfacet
facet normal -0.499999999999985 0.866025403784447 0.0
   outer loop
      vertex 149.647114999038 312.821694190247 5.159375
      vertex 149.975897014171 313.073977503622 1.984375
      vertex 149.647114999038 312.821694190247 1.984375
   endloop
endfacet
facet normal -0.499999999999985 0.866025403784447 0.0
   outer loop
      vertex 149.975897014171 313.073977503622 1.984375
      vertex 149.647114999038 312.821694190247 5.159375
      vertex 149.975897014171 313.073977503622 5.159375
   endloop
endfacet
facet normal -0.866025403784451 0.499999999999979 0.0
   outer loop
      vertex 150.228180327545 313.402759518755 5.159375
      vertex 149.975897014171 313.073977503622 1.984375
      vertex 149.975897014171 313.073977503622 5.159375
   endloop
endfacet
facet normal -0.866025403784451 0.499999999999979 0.0
   outer loop
      vertex 149.975897014171 313.073977503622 1.984375
      vertex 150.228180327545 313.402759518755 5.159375
      vertex 150.228180327545 313.402759518755 1.984375
   endloop
endfacet
facet normal -0.965925826289067 0.258819045102525 0.0
   outer loop
      vertex 150.386772248272 313.785634284655 5.159375
      vertex 150.228180327545 313.402759518755 1.984375
      vertex 150.228180327545 313.402759518755 5.159375
   endloop
endfacet
facet normal -0.965925826289067 0.258819045102525 0.0
   outer loop
      vertex 150.228180327545 313.402759518755 1.984375
      vertex 150.386772248272 313.785634284655 5.159375
      vertex 150.386772248272 313.785634284655 1.984375
   endloop
endfacet
facet normal -1.0 0.0 0.0
   outer loop
      vertex 150.440864999038 314.196509518755 5.159375
      vertex 150.386772248272 313.785634284655 1.984375
      vertex 150.386772248272 313.785634284655 5.159375
   endloop
endfacet
facet normal -1.0 0.0 0.0
   outer loop
      vertex 150.386772248272 313.785634284655 1.984375
      vertex 150.440864999038 314.196509518755 5.159375
      vertex 150.440864999038 314.196509518755 1.984375
   endloop
endfacet
facet normal -0.965925826289067 -0.258819045102525 0.0
   outer loop
      vertex 150.386772248272 314.607384752855 5.159375
      vertex 150.440864999038 314.196509518755 1.984375
      vertex 150.440864999038 314.196509518755 5.159375
   endloop
endfacet
facet normal -0.965925826289067 -0.258819045102525 0.0
   outer loop
      vertex 150.440864999038 314.196509518755 1.984375
      vertex 150.386772248272 314.607384752855 5.159375
      vertex 150.386772248272 314.607384752855 1.984375
   endloop
endfacet
facet normal -0.866025403784451 -0.499999999999979 0.0
   outer loop
      vertex 150.228180327545 314.990259518755 5.159375
      vertex 150.386772248272 314.607384752855 1.984375
      vertex 150.386772248272 314.607384752855 5.159375
   endloop
endfacet
facet normal -0.866025403784451 -0.499999999999979 0.0
   outer loop
      vertex 150.386772248272 314.607384752855 1.984375
      vertex 150.228180327545 314.990259518755 5.159375
      vertex 150.228180327545 314.990259518755 1.984375
   endloop
endfacet
facet normal -0.707106781186563 -0.707106781186532 0.0
   outer loop
      vertex 149.975897014171 315.319041533889 5.159375
      vertex 150.228180327545 314.990259518755 1.984375
      vertex 150.228180327545 314.990259518755 5.159375
   endloop
endfacet
facet normal -0.707106781186563 -0.707106781186532 0.0
   outer loop
      vertex 150.228180327545 314.990259518755 1.984375
      vertex 149.975897014171 315.319041533889 5.159375
      vertex 149.975897014171 315.319041533889 1.984375
   endloop
endfacet
facet normal -0.707106781186563 -0.707106781186532 0.0
   outer loop
      vertex 149.975897014171 315.319041533889 5.159375
      vertex 149.647114999038 315.571324847263 1.984375
      vertex 149.975897014171 315.319041533889 1.984375
   endloop
endfacet
facet normal -0.707106781186563 -0.707106781186532 0.0
   outer loop
      vertex 149.647114999038 315.571324847263 1.984375
      vertex 149.975897014171 315.319041533889 5.159375
      vertex 149.647114999038 315.571324847263 5.159375
   endloop
endfacet
facet normal -0.499999999999985 -0.866025403784447 0.0
   outer loop
      vertex 149.647114999038 315.571324847263 5.159375
      vertex 149.264240233138 315.729916767989 1.984375
      vertex 149.647114999038 315.571324847263 1.984375
   endloop
endfacet
facet normal -0.499999999999985 -0.866025403784447 0.0
   outer loop
      vertex 149.264240233138 315.729916767989 1.984375
      vertex 149.647114999038 315.571324847263 5.159375
      vertex 149.264240233138 315.729916767989 5.159375
   endloop
endfacet
facet normal -0.216222093927287 -0.976344204723775 1.14830913027054e-019
   outer loop
      vertex 149.264240233138 315.729916767989 5.159375
      vertex 148.853364999038 315.784009518755 1.984375
      vertex 149.264240233138 315.729916767989 1.984375
   endloop
endfacet
facet normal -0.216222093927287 -0.976344204723775 1.14830913027054e-019
   outer loop
      vertex 148.853364999038 315.784009518755 1.984375
      vertex 149.264240233138 315.729916767989 5.159375
      vertex 148.853364999038 315.784009518755 6.35
   endloop
endfacet
facet normal -0.216222093927287 -0.976344204723775 1.14830913027054e-019
   outer loop
      vertex 148.853364999038 315.784009518755 6.35
      vertex 149.264240233138 315.729916767989 5.159375
      vertex 149.264240233138 315.729916767989 6.35
   endloop
endfacet
facet normal -3.56444395825876e-017 -1.0 8.62060738938432e-020
   outer loop
      vertex 148.853364999038 315.784009518755 6.35
      vertex 148.442489764937 315.729916767989 1.984375
      vertex 148.853364999038 315.784009518755 1.984375
   endloop
endfacet
facet normal -3.56444395825876e-017 -1.0 8.62060738938432e-020
   outer loop
      vertex 148.442489764937 315.729916767989 1.984375
      vertex 148.853364999038 315.784009518755 6.35
      vertex 148.442489764937 315.729916767989 6.35
   endloop
endfacet
facet normal -1.39362271412117e-016 2.00132063613675e-016 1.0
   outer loop
      vertex 150.440864999038 293.559009518755 5.159375
      vertex 149.264240233138 299.963102269521 5.159375
      vertex 149.250239999038 293.559009518755 5.159375
   endloop
endfacet
facet normal -1.39362271412117e-016 2.00132063613675e-016 1.0
   outer loop
      vertex 149.264240233138 299.963102269521 5.159375
      vertex 150.440864999038 293.559009518755 5.159375
      vertex 149.647114999038 300.121694190247 5.159375
   endloop
endfacet
facet normal -1.39362271412117e-016 2.00132063613675e-016 1.0
   outer loop
      vertex 149.647114999038 300.121694190247 5.159375
      vertex 150.440864999038 293.559009518755 5.159375
      vertex 149.975897014171 300.373977503622 5.159375
   endloop
endfacet
facet normal -1.39362271412117e-016 2.00132063613675e-016 1.0
   outer loop
      vertex 149.975897014171 300.373977503622 5.159375
      vertex 150.440864999038 293.559009518755 5.159375
      vertex 150.228180327545 300.702759518755 5.159375
   endloop
endfacet
facet normal -1.39362271412117e-016 2.00132063613675e-016 1.0
   outer loop
      vertex 150.228180327545 300.702759518755 5.159375
      vertex 150.440864999038 293.559009518755 5.159375
      vertex 150.386772248272 301.085634284655 5.159375
   endloop
endfacet
facet normal -1.39362271412117e-016 2.00132063613675e-016 1.0
   outer loop
      vertex 150.386772248272 301.085634284655 5.159375
      vertex 150.440864999038 293.559009518755 5.159375
      vertex 150.440864999038 301.496509518755 5.159375
   endloop
endfacet
facet normal 0.258819045102508 -0.965925826289072 1.85021024870961e-019
   outer loop
      vertex 148.442489764937 303.029916767989 6.35
      vertex 148.059614999038 302.871324847263 1.984375
      vertex 148.442489764937 303.029916767989 1.984375
   endloop
endfacet
facet normal 0.258819045102508 -0.965925826289072 1.85021024870961e-019
   outer loop
      vertex 148.059614999038 302.871324847263 1.984375
      vertex 148.442489764937 303.029916767989 6.35
      vertex 148.059614999038 302.871324847263 5.159375
   endloop
endfacet
facet normal 0.258819045102508 -0.965925826289072 1.85021024870961e-019
   outer loop
      vertex 148.059614999038 302.871324847263 5.159375
      vertex 148.442489764937 303.029916767989 6.35
      vertex 148.059614999038 302.871324847263 6.35
   endloop
endfacet
facet normal 0.461550979005178 -0.887113687065734 2.46457497971238e-019
   outer loop
      vertex 148.059614999038 302.871324847263 5.159375
      vertex 147.730832983904 302.619041533889 1.984375
      vertex 148.059614999038 302.871324847263 1.984375
   endloop
endfacet
facet normal 0.461550979005178 -0.887113687065734 2.46457497971238e-019
   outer loop
      vertex 147.730832983904 302.619041533889 1.984375
      vertex 148.059614999038 302.871324847263 5.159375
      vertex 147.730832983904 302.619041533889 5.159375
   endloop
endfacet
facet normal -1.78222197912938e-017 -1.0 0.0
   outer loop
      vertex 148.853364999038 303.084009518755 6.35
      vertex 148.442489764937 303.029916767989 1.984375
      vertex 148.853364999038 303.084009518755 1.984375
   endloop
endfacet
facet normal -1.78222197912938e-017 -1.0 0.0
   outer loop
      vertex 148.442489764937 303.029916767989 1.984375
      vertex 148.853364999038 303.084009518755 6.35
      vertex 148.442489764937 303.029916767989 6.35
   endloop
endfacet
facet normal 0.707106781186563 -0.707106781186532 0.0
   outer loop
      vertex 147.730832983904 302.619041533889 1.984375
      vertex 147.47854967053 302.290259518755 5.159375
      vertex 147.47854967053 302.290259518755 1.984375
   endloop
endfacet
facet normal 0.707106781186563 -0.707106781186532 0.0
   outer loop
      vertex 147.47854967053 302.290259518755 5.159375
      vertex 147.730832983904 302.619041533889 1.984375
      vertex 147.730832983904 302.619041533889 5.159375
   endloop
endfacet
facet normal 0.866025403784451 -0.499999999999979 0.0
   outer loop
      vertex 147.47854967053 302.290259518755 1.984375
      vertex 147.319957749804 301.907384752855 5.159375
      vertex 147.319957749804 301.907384752855 1.984375
   endloop
endfacet
facet normal 0.866025403784451 -0.499999999999979 0.0
   outer loop
      vertex 147.319957749804 301.907384752855 5.159375
      vertex 147.47854967053 302.290259518755 1.984375
      vertex 147.47854967053 302.290259518755 5.159375
   endloop
endfacet
facet normal 0.965925826289067 -0.258819045102525 0.0
   outer loop
      vertex 147.319957749804 301.907384752855 1.984375
      vertex 147.265864999038 301.496509518755 5.159375
      vertex 147.265864999038 301.496509518755 1.984375
   endloop
endfacet
facet normal 0.965925826289067 -0.258819045102525 0.0
   outer loop
      vertex 147.265864999038 301.496509518755 5.159375
      vertex 147.319957749804 301.907384752855 1.984375
      vertex 147.319957749804 301.907384752855 5.159375
   endloop
endfacet
facet normal 1.0 0.0 0.0
   outer loop
      vertex 147.265864999038 301.496509518755 1.984375
      vertex 147.319957749804 301.085634284655 5.159375
      vertex 147.319957749804 301.085634284655 1.984375
   endloop
endfacet
facet normal 1.0 0.0 0.0
   outer loop
      vertex 147.319957749804 301.085634284655 5.159375
      vertex 147.265864999038 301.496509518755 1.984375
      vertex 147.265864999038 301.496509518755 5.159375
   endloop
endfacet
facet normal 0.965925826289067 0.258819045102525 0.0
   outer loop
      vertex 147.319957749804 301.085634284655 1.984375
      vertex 147.47854967053 300.702759518755 5.159375
      vertex 147.47854967053 300.702759518755 1.984375
   endloop
endfacet
facet normal 0.965925826289067 0.258819045102525 0.0
   outer loop
      vertex 147.47854967053 300.702759518755 5.159375
      vertex 147.319957749804 301.085634284655 1.984375
      vertex 147.319957749804 301.085634284655 5.159375
   endloop
endfacet
facet normal 0.866025403784451 0.499999999999979 0.0
   outer loop
      vertex 147.47854967053 300.702759518755 1.984375
      vertex 147.730832983904 300.373977503622 5.159375
      vertex 147.730832983904 300.373977503622 1.984375
   endloop
endfacet
facet normal 0.866025403784451 0.499999999999979 0.0
   outer loop
      vertex 147.730832983904 300.373977503622 5.159375
      vertex 147.47854967053 300.702759518755 1.984375
      vertex 147.47854967053 300.702759518755 5.159375
   endloop
endfacet
facet normal 0.707106781186563 0.707106781186532 0.0
   outer loop
      vertex 147.730832983904 300.373977503622 5.159375
      vertex 148.059614999038 300.121694190247 1.984375
      vertex 147.730832983904 300.373977503622 1.984375
   endloop
endfacet
facet normal 0.707106781186563 0.707106781186532 0.0
   outer loop
      vertex 148.059614999038 300.121694190247 1.984375
      vertex 147.730832983904 300.373977503622 5.159375
      vertex 148.059614999038 300.121694190247 5.159375
   endloop
endfacet
facet normal 0.461550979496641 0.887113686810034 -2.46457497197901e-019
   outer loop
      vertex 148.059614999038 300.121694190247 5.159375
      vertex 148.442489764937 299.963102269521 1.984375
      vertex 148.059614999038 300.121694190247 1.984375
   endloop
endfacet
facet normal 0.461550979496641 0.887113686810034 -2.46457497197901e-019
   outer loop
      vertex 148.442489764937 299.963102269521 1.984375
      vertex 148.059614999038 300.121694190247 5.159375
      vertex 148.442489764937 299.963102269521 6.35
   endloop
endfacet
facet normal 0.461550979496641 0.887113686810034 -2.46457497197901e-019
   outer loop
      vertex 148.442489764937 299.963102269521 6.35
      vertex 148.059614999038 300.121694190247 5.159375
      vertex 148.059614999038 300.121694190247 6.35
   endloop
endfacet
facet normal 0.258819045102508 0.965925826289072 -1.85021024870961e-019
   outer loop
      vertex 148.442489764937 299.963102269521 6.35
      vertex 148.853364999038 299.909009518755 1.984375
      vertex 148.442489764937 299.963102269521 1.984375
   endloop
endfacet
facet normal 0.258819045102508 0.965925826289072 -1.85021024870961e-019
   outer loop
      vertex 148.853364999038 299.909009518755 1.984375
      vertex 148.442489764937 299.963102269521 6.35
      vertex 148.853364999038 299.909009518755 6.35
   endloop
endfacet
facet normal -1.78222197912938e-017 1.0 1.72412147787686e-019
   outer loop
      vertex 148.853364999038 299.909009518755 6.35
      vertex 149.264240233138 299.963102269521 1.984375
      vertex 148.853364999038 299.909009518755 1.984375
   endloop
endfacet
facet normal -1.78222197912938e-017 1.0 1.72412147787686e-019
   outer loop
      vertex 149.264240233138 299.963102269521 1.984375
      vertex 148.853364999038 299.909009518755 6.35
      vertex 149.264240233138 299.963102269521 5.159375
   endloop
endfacet
facet normal -1.78222197912938e-017 1.0 1.72412147787686e-019
   outer loop
      vertex 149.264240233138 299.963102269521 5.159375
      vertex 148.853364999038 299.909009518755 6.35
      vertex 149.264240233138 299.963102269521 6.35
   endloop
endfacet
facet normal -0.216222093927287 0.976344204723775 2.29661826054108e-019
   outer loop
      vertex 149.264240233138 299.963102269521 5.159375
      vertex 149.647114999038 300.121694190247 1.984375
      vertex 149.264240233138 299.963102269521 1.984375
   endloop
endfacet
facet normal -0.216222093927287 0.976344204723775 2.29661826054108e-019
   outer loop
      vertex 149.647114999038 300.121694190247 1.984375
      vertex 149.264240233138 299.963102269521 5.159375
      vertex 149.647114999038 300.121694190247 5.159375
   endloop
endfacet
facet normal -0.499999999999985 0.866025403784447 0.0
   outer loop
      vertex 149.647114999038 300.121694190247 5.159375
      vertex 149.975897014171 300.373977503622 1.984375
      vertex 149.647114999038 300.121694190247 1.984375
   endloop
endfacet
facet normal -0.499999999999985 0.866025403784447 0.0
   outer loop
      vertex 149.975897014171 300.373977503622 1.984375
      vertex 149.647114999038 300.121694190247 5.159375
      vertex 149.975897014171 300.373977503622 5.159375
   endloop
endfacet
facet normal -0.866025403784451 0.499999999999979 0.0
   outer loop
      vertex 150.228180327545 300.702759518755 5.159375
      vertex 149.975897014171 300.373977503622 1.984375
      vertex 149.975897014171 300.373977503622 5.159375
   endloop
endfacet
facet normal -0.866025403784451 0.499999999999979 0.0
   outer loop
      vertex 149.975897014171 300.373977503622 1.984375
      vertex 150.228180327545 300.702759518755 5.159375
      vertex 150.228180327545 300.702759518755 1.984375
   endloop
endfacet
facet normal -0.965925826289067 0.258819045102525 0.0
   outer loop
      vertex 150.386772248272 301.085634284655 5.159375
      vertex 150.228180327545 300.702759518755 1.984375
      vertex 150.228180327545 300.702759518755 5.159375
   endloop
endfacet
facet normal -0.965925826289067 0.258819045102525 0.0
   outer loop
      vertex 150.228180327545 300.702759518755 1.984375
      vertex 150.386772248272 301.085634284655 5.159375
      vertex 150.386772248272 301.085634284655 1.984375
   endloop
endfacet
facet normal -1.0 0.0 0.0
   outer loop
      vertex 150.440864999038 301.496509518755 5.159375
      vertex 150.386772248272 301.085634284655 1.984375
      vertex 150.386772248272 301.085634284655 5.159375
   endloop
endfacet
facet normal -1.0 0.0 0.0
   outer loop
      vertex 150.386772248272 301.085634284655 1.984375
      vertex 150.440864999038 301.496509518755 5.159375
      vertex 150.440864999038 301.496509518755 1.984375
   endloop
endfacet
facet normal -0.965925826289067 -0.258819045102525 0.0
   outer loop
      vertex 150.386772248272 301.907384752855 5.159375
      vertex 150.440864999038 301.496509518755 1.984375
      vertex 150.440864999038 301.496509518755 5.159375
   endloop
endfacet
facet normal -0.965925826289067 -0.258819045102525 0.0
   outer loop
      vertex 150.440864999038 301.496509518755 1.984375
      vertex 150.386772248272 301.907384752855 5.159375
      vertex 150.386772248272 301.907384752855 1.984375
   endloop
endfacet
facet normal -0.866025403784451 -0.499999999999979 0.0
   outer loop
      vertex 150.228180327545 302.290259518755 5.159375
      vertex 150.386772248272 301.907384752855 1.984375
      vertex 150.386772248272 301.907384752855 5.159375
   endloop
endfacet
facet normal -0.866025403784451 -0.499999999999979 0.0
   outer loop
      vertex 150.386772248272 301.907384752855 1.984375
      vertex 150.228180327545 302.290259518755 5.159375
      vertex 150.228180327545 302.290259518755 1.984375
   endloop
endfacet
facet normal -0.707106781186563 -0.707106781186532 0.0
   outer loop
      vertex 149.975897014171 302.619041533889 5.159375
      vertex 150.228180327545 302.290259518755 1.984375
      vertex 150.228180327545 302.290259518755 5.159375
   endloop
endfacet
facet normal -0.707106781186563 -0.707106781186532 0.0
   outer loop
      vertex 150.228180327545 302.290259518755 1.984375
      vertex 149.975897014171 302.619041533889 5.159375
      vertex 149.975897014171 302.619041533889 1.984375
   endloop
endfacet
facet normal -0.707106781186563 -0.707106781186532 0.0
   outer loop
      vertex 149.975897014171 302.619041533889 5.159375
      vertex 149.647114999038 302.871324847263 1.984375
      vertex 149.975897014171 302.619041533889 1.984375
   endloop
endfacet
facet normal -0.707106781186563 -0.707106781186532 0.0
   outer loop
      vertex 149.647114999038 302.871324847263 1.984375
      vertex 149.975897014171 302.619041533889 5.159375
      vertex 149.647114999038 302.871324847263 5.159375
   endloop
endfacet
facet normal -0.499999999999985 -0.866025403784447 0.0
   outer loop
      vertex 149.647114999038 302.871324847263 5.159375
      vertex 149.264240233138 303.029916767989 1.984375
      vertex 149.647114999038 302.871324847263 1.984375
   endloop
endfacet
facet normal -0.499999999999985 -0.866025403784447 0.0
   outer loop
      vertex 149.264240233138 303.029916767989 1.984375
      vertex 149.647114999038 302.871324847263 5.159375
      vertex 149.264240233138 303.029916767989 5.159375
   endloop
endfacet
facet normal -0.216222093927287 -0.976344204723775 0.0
   outer loop
      vertex 149.264240233138 303.029916767989 5.159375
      vertex 148.853364999038 303.084009518755 1.984375
      vertex 149.264240233138 303.029916767989 1.984375
   endloop
endfacet
facet normal -0.216222093927287 -0.976344204723775 0.0
   outer loop
      vertex 148.853364999038 303.084009518755 1.984375
      vertex 149.264240233138 303.029916767989 5.159375
      vertex 148.853364999038 303.084009518755 6.35
   endloop
endfacet
facet normal -0.216222093927287 -0.976344204723775 0.0
   outer loop
      vertex 148.853364999038 303.084009518755 6.35
      vertex 149.264240233138 303.029916767989 5.159375
      vertex 149.264240233138 303.029916767989 6.35
   endloop
endfacet
endsolid NEW_X-Z_motor
