solid Milk Strap B_1_a_5-24-13
facet normal -0.999999999955865 5.24090956383494e-006 7.7976308092961e-006
   outer loop
      vertex 556.980736656401 -665.647830804021 -136.247228714891
      vertex 556.980620038196 -667.234628685819 -149.741263740074
      vertex 556.980728449513 -667.235330804578 -136.247243327196
   endloop
endfacet
facet normal -0.999999999955865 5.24090956383494e-006 7.7976308092961e-006
   outer loop
      vertex 556.980620038196 -667.234628685819 -149.741263740074
      vertex 556.980736656401 -665.647830804021 -136.247228714891
      vertex 556.980680958651 -665.647123180485 -144.978749128059
   endloop
endfacet
facet normal -0.999999999955865 5.24090956383494e-006 7.7976308092961e-006
   outer loop
      vertex 556.980620038196 -667.234628685819 -149.741263740074
      vertex 556.980680958651 -665.647123180485 -144.978749128059
      vertex 556.980673594011 -656.874680236862 -149.74129976049
   endloop
endfacet
facet normal -0.999999999955865 5.24090956383494e-006 7.7976308092961e-006
   outer loop
      vertex 556.980673594011 -656.874680236862 -149.74129976049
      vertex 556.980680958651 -665.647123180485 -144.978749128059
      vertex 556.980726307578 -656.874674732085 -144.978799760779
   endloop
endfacet
facet normal -0.999999999193717 3.10038418750883e-005 2.55211360280377e-005
   outer loop
      vertex 571.680386155032 -663.367652687429 -144.978799760779
      vertex 571.680332660546 -662.078592553737 -148.15380027842
      vertex 571.680332660546 -663.367653963136 -148.153799760478
   endloop
endfacet
facet normal -0.999999999193717 3.10038418750883e-005 2.55211360280377e-005
   outer loop
      vertex 571.680332660546 -662.078592553737 -148.15380027842
      vertex 571.680386155032 -663.367652687429 -144.978799760779
      vertex 571.680506047656 -662.078591278106 -144.978992469063
   endloop
endfacet
facet normal 0.999999999898948 -1.09097188583156e-005 -9.11492332621344e-006
   outer loop
      vertex 574.855156089753 -667.235231706172 -149.741491830319
      vertex 574.855318057407 -665.647830804021 -136.247228714891
      vertex 574.855264501071 -667.235933824932 -136.24747141744
   endloop
endfacet
facet normal 0.999999999898948 -1.09097188583156e-005 -9.11492332621344e-006
   outer loop
      vertex 574.855318057407 -665.647830804021 -136.247228714891
      vertex 574.855156089753 -667.235231706172 -149.741491830319
      vertex 574.855262359657 -665.647123180485 -144.978749128059
   endloop
endfacet
facet normal 0.999999999898948 -1.09097188583156e-005 -9.11492332621344e-006
   outer loop
      vertex 574.855262359657 -665.647123180485 -144.978749128059
      vertex 574.855156089753 -667.235231706172 -149.741491830319
      vertex 574.85520964609 -662.078596782883 -149.741492468774
   endloop
endfacet
facet normal 0.999999999898948 -1.09097188583156e-005 -9.11492332621344e-006
   outer loop
      vertex 574.855262359657 -665.647123180485 -144.978749128059
      vertex 574.85520964609 -662.078596782883 -149.741492468774
      vertex 574.855262359657 -662.078591278106 -144.978992469063
   endloop
endfacet
facet normal -9.65693265135763e-006 2.89526781550948e-006 -0.999999999949181
   outer loop
      vertex 556.980673594011 -656.874680236862 -149.74129976049
      vertex 560.388799898167 -661.055537266418 -149.741292757818
      vertex 560.36175352279 -661.260974883448 -149.741293123161
   endloop
endfacet
facet normal -9.65693265135763e-006 2.89526781550948e-006 -0.999999999949181
   outer loop
      vertex 560.388799898167 -661.055537266418 -149.741292757818
      vertex 556.980673594011 -656.874680236862 -149.74129976049
      vertex 560.468095858515 -660.864099883484 -149.741293174514
   endloop
endfacet
facet normal -9.65693265135763e-006 2.89526781550948e-006 -0.999999999949181
   outer loop
      vertex 560.468095858515 -660.864099883484 -149.741293174514
      vertex 556.980673594011 -656.874680236862 -149.74129976049
      vertex 560.594237515177 -660.699708875928 -149.741294344852
   endloop
endfacet
facet normal -9.65693265135763e-006 2.89526781550948e-006 -0.999999999949181
   outer loop
      vertex 560.594237515177 -660.699708875928 -149.741294344852
      vertex 556.980673594011 -656.874680236862 -149.74129976049
      vertex 565.330333451372 -656.874680236862 -149.74129976049
   endloop
endfacet
facet normal -9.65693265135763e-006 2.89526781550948e-006 -0.999999999949181
   outer loop
      vertex 560.594237515177 -660.699708875928 -149.741294344852
      vertex 565.330333451372 -656.874680236862 -149.74129976049
      vertex 560.758628522712 -660.573567219246 -149.741296189076
   endloop
endfacet
facet normal -9.65693265135763e-006 2.89526781550948e-006 -0.999999999949181
   outer loop
      vertex 560.758628522712 -660.573567219246 -149.741296189076
      vertex 565.330333451372 -656.874680236862 -149.74129976049
      vertex 560.950065905624 -660.494271258882 -149.741298581504
   endloop
endfacet
facet normal -9.65693265135763e-006 2.89526781550948e-006 -0.999999999949181
   outer loop
      vertex 560.950065905624 -660.494271258882 -149.741298581504
      vertex 565.330333451372 -656.874680236862 -149.74129976049
      vertex 561.155503522634 -660.467224883491 -149.741301359096
   endloop
endfacet
facet normal -9.65693265135763e-006 2.89526781550948e-006 -0.999999999949181
   outer loop
      vertex 561.155503522634 -660.467224883491 -149.741301359096
      vertex 565.330333451372 -656.874680236862 -149.74129976049
      vertex 561.360941139644 -660.494271258861 -149.741304332565
   endloop
endfacet
facet normal -9.65693265135763e-006 2.89526781550948e-006 -0.999999999949181
   outer loop
      vertex 561.360941139644 -660.494271258861 -149.741304332565
      vertex 565.330333451372 -656.874680236862 -149.74129976049
      vertex 561.552378522557 -660.573567219206 -149.741307299273
   endloop
endfacet
facet normal -9.65693265135763e-006 2.89526781550948e-006 -0.999999999949181
   outer loop
      vertex 561.552378522557 -660.573567219206 -149.741307299273
      vertex 565.330333451372 -656.874680236862 -149.74129976049
      vertex 561.716769530091 -660.699708875871 -149.741310057045
   endloop
endfacet
facet normal -9.65693265135763e-006 2.89526781550948e-006 -0.999999999949181
   outer loop
      vertex 561.716769530091 -660.699708875871 -149.741310057045
      vertex 565.330333451372 -656.874680236862 -149.74129976049
      vertex 561.842911186754 -660.864099883415 -149.741312417941
   endloop
endfacet
facet normal -9.65693265135763e-006 2.89526781550948e-006 -0.999999999949181
   outer loop
      vertex 561.842911186754 -660.864099883415 -149.741312417941
      vertex 565.330333451372 -656.874680236862 -149.74129976049
      vertex 561.922207147101 -661.05553726634 -149.741314221072
   endloop
endfacet
facet normal -9.65693265135763e-006 2.89526781550948e-006 -0.999999999949181
   outer loop
      vertex 561.922207147101 -661.05553726634 -149.741314221072
      vertex 565.330333451372 -656.874680236862 -149.74129976049
      vertex 561.949253522479 -661.260974883368 -149.741315343557
   endloop
endfacet
facet normal -9.65693265135763e-006 2.89526781550948e-006 -0.999999999949181
   outer loop
      vertex 556.980620038196 -667.234628685819 -149.741263740074
      vertex 560.950065905624 -662.027678507955 -149.741304134153
      vertex 574.855156089753 -667.235231706172 -149.741491830319
   endloop
endfacet
facet normal -9.65693265135763e-006 2.89526781550948e-006 -0.999999999949181
   outer loop
      vertex 560.950065905624 -662.027678507955 -149.741304134153
      vertex 556.980620038196 -667.234628685819 -149.741263740074
      vertex 560.758628522712 -661.94838254761 -149.741301167444
   endloop
endfacet
facet normal -9.65693265135763e-006 2.89526781550948e-006 -0.999999999949181
   outer loop
      vertex 560.758628522712 -661.94838254761 -149.741301167444
      vertex 556.980620038196 -667.234628685819 -149.741263740074
      vertex 560.594237515178 -661.822240890945 -149.741298409673
   endloop
endfacet
facet normal -9.65693265135763e-006 2.89526781550948e-006 -0.999999999949181
   outer loop
      vertex 560.594237515178 -661.822240890945 -149.741298409673
      vertex 556.980620038196 -667.234628685819 -149.741263740074
      vertex 560.468095858515 -661.657849883401 -149.741296048777
   endloop
endfacet
facet normal -9.65693265135763e-006 2.89526781550948e-006 -0.999999999949181
   outer loop
      vertex 560.468095858515 -661.657849883401 -149.741296048777
      vertex 556.980620038196 -667.234628685819 -149.741263740074
      vertex 556.980673594011 -656.874680236862 -149.74129976049
   endloop
endfacet
facet normal -9.65693265135763e-006 2.89526781550948e-006 -0.999999999949181
   outer loop
      vertex 560.468095858515 -661.657849883401 -149.741296048777
      vertex 556.980673594011 -656.874680236862 -149.74129976049
      vertex 560.388799898168 -661.466412500475 -149.741294245646
   endloop
endfacet
facet normal -9.65693265135763e-006 2.89526781550948e-006 -0.999999999949181
   outer loop
      vertex 560.388799898168 -661.466412500475 -149.741294245646
      vertex 556.980673594011 -656.874680236862 -149.74129976049
      vertex 560.36175352279 -661.260974883448 -149.741293123161
   endloop
endfacet
facet normal -9.65693265135763e-006 2.89526781550948e-006 -0.999999999949181
   outer loop
      vertex 574.855156089753 -667.235231706172 -149.741491830319
      vertex 560.950065905624 -662.027678507955 -149.741304134153
      vertex 561.155503522634 -662.054724883325 -149.741307107621
   endloop
endfacet
facet normal -9.65693265135763e-006 2.89526781550948e-006 -0.999999999949181
   outer loop
      vertex 574.855156089753 -667.235231706172 -149.741491830319
      vertex 561.155503522634 -662.054724883325 -149.741307107621
      vertex 561.360941139644 -662.027678507934 -149.741309885214
   endloop
endfacet
facet normal -9.65693265135763e-006 2.89526781550948e-006 -0.999999999949181
   outer loop
      vertex 574.855156089753 -667.235231706172 -149.741491830319
      vertex 561.360941139644 -662.027678507934 -149.741309885214
      vertex 561.552378522557 -661.94838254757 -149.741312277642
   endloop
endfacet
facet normal -9.65693265135763e-006 2.89526781550948e-006 -0.999999999949181
   outer loop
      vertex 574.855156089753 -667.235231706172 -149.741491830319
      vertex 561.552378522557 -661.94838254757 -149.741312277642
      vertex 561.716769530091 -661.822240890888 -149.741314121866
   endloop
endfacet
facet normal -9.65693265135763e-006 2.89526781550948e-006 -0.999999999949181
   outer loop
      vertex 574.855156089753 -667.235231706172 -149.741491830319
      vertex 561.716769530091 -661.822240890888 -149.741314121866
      vertex 561.842911186754 -661.657849883332 -149.741315292204
   endloop
endfacet
facet normal -9.65693265135763e-006 2.89526781550948e-006 -0.999999999949181
   outer loop
      vertex 574.855156089753 -667.235231706172 -149.741491830319
      vertex 561.842911186754 -661.657849883332 -149.741315292204
      vertex 561.922207147101 -661.466412500398 -149.7413157089
   endloop
endfacet
facet normal -9.65693265135763e-006 2.89526781550948e-006 -0.999999999949181
   outer loop
      vertex 574.855156089753 -667.235231706172 -149.741491830319
      vertex 561.922207147101 -661.466412500398 -149.7413157089
      vertex 561.949253522479 -661.260974883368 -149.741315343557
   endloop
endfacet
facet normal -9.65693265135763e-006 2.89526781550948e-006 -0.999999999949181
   outer loop
      vertex 574.855156089753 -667.235231706172 -149.741491830319
      vertex 561.949253522479 -661.260974883368 -149.741315343557
      vertex 565.330333451372 -662.078596782806 -149.741300278431
   endloop
endfacet
facet normal -9.65693265135763e-006 2.89526781550948e-006 -0.999999999949181
   outer loop
      vertex 565.330333451372 -662.078596782806 -149.741300278431
      vertex 561.949253522479 -661.260974883368 -149.741315343557
      vertex 565.330333451372 -656.874680236862 -149.74129976049
   endloop
endfacet
facet normal -9.65693265135763e-006 2.89526781550948e-006 -0.999999999949181
   outer loop
      vertex 574.855156089753 -667.235231706172 -149.741491830319
      vertex 565.330333451372 -662.078596782806 -149.741300278431
      vertex 574.85520964609 -662.078596782883 -149.741492468774
   endloop
endfacet
facet normal -3.37369796810474e-005 -0.99999999788471 -5.56093181513499e-005
   outer loop
      vertex 574.855264501071 -667.235933824932 -136.24747141744
      vertex 556.980620038196 -667.234628685819 -149.741263740074
      vertex 574.855156089753 -667.235231706172 -149.741491830319
   endloop
endfacet
facet normal -3.37369796810474e-005 -0.99999999788471 -5.56093181513499e-005
   outer loop
      vertex 556.980620038196 -667.234628685819 -149.741263740074
      vertex 574.855264501071 -667.235933824932 -136.24747141744
      vertex 556.980728449513 -667.235330804578 -136.247243327196
   endloop
endfacet
facet normal -1.8881799996911e-007 0.999999999999667 -7.93551364134508e-007
   outer loop
      vertex 574.85520964609 -662.078596782883 -149.741492468774
      vertex 571.680332660546 -662.078592553737 -148.15380027842
      vertex 574.855262359657 -662.078591278106 -144.978992469063
   endloop
endfacet
facet normal -1.8881799996911e-007 0.999999999999667 -7.93551364134508e-007
   outer loop
      vertex 571.680332660546 -662.078592553737 -148.15380027842
      vertex 574.85520964609 -662.078596782883 -149.741492468774
      vertex 565.330333451372 -662.078596782806 -149.741300278431
   endloop
endfacet
facet normal -1.8881799996911e-007 0.999999999999667 -7.93551364134508e-007
   outer loop
      vertex 571.680332660546 -662.078592553737 -148.15380027842
      vertex 565.330333451372 -662.078596782806 -149.741300278431
      vertex 565.330333451372 -662.078596144952 -148.153800278432
   endloop
endfacet
facet normal -1.8881799996911e-007 0.999999999999667 -7.93551364134508e-007
   outer loop
      vertex 574.855262359657 -662.078591278106 -144.978992469063
      vertex 571.680332660546 -662.078592553737 -148.15380027842
      vertex 571.680506047656 -662.078591278106 -144.978992469063
   endloop
endfacet
facet normal 0.999999999937387 -8.67504486747795e-007 -1.1156805094136e-005
   outer loop
      vertex 565.330333451372 -656.874680236862 -149.74129976049
      vertex 565.330333451372 -662.078596144952 -148.153800278432
      vertex 565.330333451372 -662.078596782806 -149.741300278431
   endloop
endfacet
facet normal 0.999999999937387 -8.67504486747795e-007 -1.1156805094136e-005
   outer loop
      vertex 565.330333451372 -662.078596144952 -148.153800278432
      vertex 565.330386164939 -663.367652687429 -144.978799760779
      vertex 565.330332670453 -663.367653963136 -148.153799760478
   endloop
endfacet
facet normal 0.999999999937387 -8.67504486747795e-007 -1.1156805094136e-005
   outer loop
      vertex 565.330386164939 -663.367652687429 -144.978799760779
      vertex 565.330333451372 -662.078596144952 -148.153800278432
      vertex 565.330386164939 -656.874674732085 -144.978799760779
   endloop
endfacet
facet normal 0.999999999937387 -8.67504486747795e-007 -1.1156805094136e-005
   outer loop
      vertex 565.330386164939 -656.874674732085 -144.978799760779
      vertex 565.330333451372 -662.078596144952 -148.153800278432
      vertex 565.330333451372 -656.874680236862 -149.74129976049
   endloop
endfacet
facet normal 9.47392025168663e-015 0.999999999999919 -4.01797618949642e-007
   outer loop
      vertex 565.330386164939 -663.367652687429 -144.978799760779
      vertex 571.680332660546 -663.367653963136 -148.153799760478
      vertex 565.330332670453 -663.367653963136 -148.153799760478
   endloop
endfacet
facet normal 9.47392025168663e-015 0.999999999999919 -4.01797618949642e-007
   outer loop
      vertex 571.680332660546 -663.367653963136 -148.153799760478
      vertex 565.330386164939 -663.367652687429 -144.978799760779
      vertex 571.680386155032 -663.367652687429 -144.978799760779
   endloop
endfacet
facet normal 0.0 0.999999999999919 -4.01797623581436e-007
   outer loop
      vertex 556.980726307578 -656.874674732085 -144.978799760779
      vertex 565.330333451372 -656.874680236862 -149.74129976049
      vertex 556.980673594011 -656.874680236862 -149.74129976049
   endloop
endfacet
facet normal 0.0 0.999999999999919 -4.01797623581436e-007
   outer loop
      vertex 565.330333451372 -656.874680236862 -149.74129976049
      vertex 556.980726307578 -656.874674732085 -144.978799760779
      vertex 565.330386164939 -656.874674732085 -144.978799760779
   endloop
endfacet
facet normal 6.37892907557952e-006 -8.1042418765342e-005 0.999999996695718
   outer loop
      vertex 574.855264501071 -667.235933824932 -136.24747141744
      vertex 556.980736656401 -665.647830804021 -136.247228714891
      vertex 556.980728449513 -667.235330804578 -136.247243327196
   endloop
endfacet
facet normal 6.37892907557952e-006 -8.1042418765342e-005 0.999999996695718
   outer loop
      vertex 556.980736656401 -665.647830804021 -136.247228714891
      vertex 574.855264501071 -667.235933824932 -136.24747141744
      vertex 574.855318057407 -665.647830804021 -136.247228714891
   endloop
endfacet
facet normal 0.0 0.999999996716063 8.10424187669909e-005
   outer loop
      vertex 556.980736656401 -665.647830804021 -136.247228714891
      vertex 574.855262359657 -665.647123180485 -144.978749128059
      vertex 556.980680958651 -665.647123180485 -144.978749128059
   endloop
endfacet
facet normal 0.0 0.999999996716063 8.10424187669909e-005
   outer loop
      vertex 574.855262359657 -665.647123180485 -144.978749128059
      vertex 556.980736656401 -665.647830804021 -136.247228714891
      vertex 574.855318057407 -665.647830804021 -136.247228714891
   endloop
endfacet
facet normal -1.02488995976083e-012 4.01802663777258e-007 0.999999999999919
   outer loop
      vertex 571.680332660546 -663.367653963136 -148.153799760478
      vertex 565.330333451372 -662.078596144952 -148.153800278432
      vertex 565.330332670453 -663.367653963136 -148.153799760478
   endloop
endfacet
facet normal -1.02488995976083e-012 4.01802663777258e-007 0.999999999999919
   outer loop
      vertex 565.330333451372 -662.078596144952 -148.153800278432
      vertex 571.680332660546 -663.367653963136 -148.153799760478
      vertex 571.680332660546 -662.078592553737 -148.15380027842
   endloop
endfacet
facet normal 0.965925818218866 -0.258819074817139 -1.44573742854429e-005
   outer loop
      vertex 560.388799898167 -661.055537266418 -149.741292757818
      vertex 560.468166126705 -660.86411992397 -144.978863021074
      vertex 560.388870166357 -661.055557306904 -144.978862604378
   endloop
endfacet
facet normal 0.965925818218866 -0.258819074817139 -1.44573742854429e-005
   outer loop
      vertex 560.468166126705 -660.86411992397 -144.978863021074
      vertex 560.388799898167 -661.055537266418 -149.741292757818
      vertex 560.468095858515 -660.864099883484 -149.741293174514
   endloop
endfacet
facet normal 0.99999999990204 -4.87195194828259e-008 -1.39970997068769e-005
   outer loop
      vertex 560.36175352279 -661.260974883448 -149.741293123161
      vertex 560.388870166357 -661.055557306904 -144.978862604378
      vertex 560.361823790979 -661.260994923934 -144.978862969721
   endloop
endfacet
facet normal 0.99999999990204 -4.87195194828259e-008 -1.39970997068769e-005
   outer loop
      vertex 560.388870166357 -661.055557306904 -144.978862604378
      vertex 560.36175352279 -661.260974883448 -149.741293123161
      vertex 560.388799898167 -661.055537266418 -149.741292757818
   endloop
endfacet
facet normal 0.965925842604068 0.258818983908234 -1.25829460210167e-005
   outer loop
      vertex 560.388799898168 -661.466412500475 -149.741294245646
      vertex 560.361823790979 -661.260994923934 -144.978862969721
      vertex 560.388870166357 -661.466432540961 -144.978864092206
   endloop
endfacet
facet normal 0.965925842604068 0.258818983908234 -1.25829460210167e-005
   outer loop
      vertex 560.361823790979 -661.260994923934 -144.978862969721
      vertex 560.388799898168 -661.466412500475 -149.741294245646
      vertex 560.36175352279 -661.260974883448 -149.741293123161
   endloop
endfacet
facet normal 0.866025440555893 0.499999936203646 -1.03112854096362e-005
   outer loop
      vertex 560.468095858515 -661.657849883401 -149.741296048777
      vertex 560.388870166357 -661.466432540961 -144.978864092206
      vertex 560.468166126705 -661.657869923887 -144.978865895337
   endloop
endfacet
facet normal 0.866025440555893 0.499999936203646 -1.03112854096362e-005
   outer loop
      vertex 560.388870166357 -661.466432540961 -144.978864092206
      vertex 560.468095858515 -661.657849883401 -149.741296048777
      vertex 560.388799898168 -661.466412500475 -149.741294245646
   endloop
endfacet
facet normal 0.707106836978646 0.707106725356381 -7.3369277302466e-006
   outer loop
      vertex 560.594237515178 -661.822240890945 -149.741298409673
      vertex 560.468166126705 -661.657869923887 -144.978865895337
      vertex 560.594307783367 -661.82226093143 -144.978868256233
   endloop
endfacet
facet normal 0.707106836978646 0.707106725356381 -7.3369277302466e-006
   outer loop
      vertex 560.468166126705 -661.657869923887 -144.978865895337
      vertex 560.594237515178 -661.822240890945 -149.741298409673
      vertex 560.468095858515 -661.657849883401 -149.741296048777
   endloop
endfacet
facet normal 0.707106836978646 0.707106725356381 -7.3369277302466e-006
   outer loop
      vertex 560.594237515178 -661.822240890945 -149.741298409673
      vertex 560.758698790902 -661.948402588096 -144.978871014004
      vertex 560.758628522712 -661.94838254761 -149.741301167444
   endloop
endfacet
facet normal 0.707106836978646 0.707106725356381 -7.3369277302466e-006
   outer loop
      vertex 560.758698790902 -661.948402588096 -144.978871014004
      vertex 560.594237515178 -661.822240890945 -149.741298409673
      vertex 560.594307783367 -661.82226093143 -144.978868256233
   endloop
endfacet
facet normal 0.500000068283849 0.866025364352123 -3.86257049596571e-006
   outer loop
      vertex 560.758628522712 -661.94838254761 -149.741301167444
      vertex 560.950136173814 -662.027698548441 -144.978873980712
      vertex 560.950065905624 -662.027678507955 -149.741304134153
   endloop
endfacet
facet normal 0.500000068283849 0.866025364352123 -3.86257049596571e-006
   outer loop
      vertex 560.950136173814 -662.027698548441 -144.978873980712
      vertex 560.758628522712 -661.94838254761 -149.741301167444
      vertex 560.758698790902 -661.948402588096 -144.978871014004
   endloop
endfacet
facet normal 0.25881911600538 0.965925807290694 -1.24985387644794e-007
   outer loop
      vertex 560.950065905624 -662.027678507955 -149.741304134153
      vertex 561.155573790824 -662.054744923811 -144.978876954181
      vertex 561.155503522634 -662.054724883325 -149.741307107621
   endloop
endfacet
facet normal 0.25881911600538 0.965925807290694 -1.24985387644794e-007
   outer loop
      vertex 561.155573790824 -662.054744923811 -144.978876954181
      vertex 560.950065905624 -662.027678507955 -149.741304134153
      vertex 560.950136173814 -662.027698548441 -144.978873980712
   endloop
endfacet
facet normal 6.29525074532915e-008 0.999999999993442 3.62111733869325e-006
   outer loop
      vertex 561.155503522634 -662.054724883325 -149.741307107621
      vertex 561.361011407834 -662.02769854842 -144.978879731774
      vertex 561.360941139644 -662.027678507934 -149.741309885214
   endloop
endfacet
facet normal 6.29525074532915e-008 0.999999999993442 3.62111733869325e-006
   outer loop
      vertex 561.361011407834 -662.02769854842 -144.978879731774
      vertex 561.155503522634 -662.054724883325 -149.741307107621
      vertex 561.155573790824 -662.054744923811 -144.978876954181
   endloop
endfacet
facet normal -0.258818998534267 0.965925838740749 7.1204469369193e-006
   outer loop
      vertex 561.360941139644 -662.027678507934 -149.741309885214
      vertex 561.552448790746 -661.948402588056 -144.978882124202
      vertex 561.552378522557 -661.94838254757 -149.741312277642
   endloop
endfacet
facet normal -0.258818998534267 0.965925838740749 7.1204469369193e-006
   outer loop
      vertex 561.552448790746 -661.948402588056 -144.978882124202
      vertex 561.360941139644 -662.027678507934 -149.741309885214
      vertex 561.361011407834 -662.02769854842 -144.978879731774
   endloop
endfacet
facet normal -0.499999973854835 0.866025418820057 1.01345298229174e-005
   outer loop
      vertex 561.552378522557 -661.94838254757 -149.741312277642
      vertex 561.716839798281 -661.822260931374 -144.978883968426
      vertex 561.716769530091 -661.822240890888 -149.741314121866
   endloop
endfacet
facet normal -0.499999973854835 0.866025418820057 1.01345298229174e-005
   outer loop
      vertex 561.716839798281 -661.822260931374 -144.978883968426
      vertex 561.552378522557 -661.94838254757 -149.741312277642
      vertex 561.552448790746 -661.948402588056 -144.978882124202
   endloop
endfacet
facet normal -0.866025398319554 0.500000009271347 1.3932402840878e-005
   outer loop
      vertex 561.842981454943 -661.657869923818 -144.978885138764
      vertex 561.716769530091 -661.822240890888 -149.741314121866
      vertex 561.716839798281 -661.822260931374 -144.978883968426
   endloop
endfacet
facet normal -0.866025398319554 0.500000009271347 1.3932402840878e-005
   outer loop
      vertex 561.716769530091 -661.822240890888 -149.741314121866
      vertex 561.842981454943 -661.657869923818 -144.978885138764
      vertex 561.842911186754 -661.657849883332 -149.741315292204
   endloop
endfacet
facet normal -0.965925818218866 0.258819074817139 1.44573742854429e-005
   outer loop
      vertex 561.922277415291 -661.466432540884 -144.97888555546
      vertex 561.842911186754 -661.657849883332 -149.741315292204
      vertex 561.842981454943 -661.657869923818 -144.978885138764
   endloop
endfacet
facet normal -0.965925818218866 0.258819074817139 1.44573742854429e-005
   outer loop
      vertex 561.842911186754 -661.657849883332 -149.741315292204
      vertex 561.922277415291 -661.466432540884 -144.97888555546
      vertex 561.922207147101 -661.466412500398 -149.7413157089
   endloop
endfacet
facet normal -0.99999999990204 4.87195194828259e-008 1.39970997068769e-005
   outer loop
      vertex 561.949323790668 -661.260994923854 -144.978885190117
      vertex 561.922207147101 -661.466412500398 -149.7413157089
      vertex 561.922277415291 -661.466432540884 -144.97888555546
   endloop
endfacet
facet normal -0.99999999990204 4.87195194828259e-008 1.39970997068769e-005
   outer loop
      vertex 561.922207147101 -661.466412500398 -149.7413157089
      vertex 561.949323790668 -661.260994923854 -144.978885190117
      vertex 561.949253522479 -661.260974883368 -149.741315343557
   endloop
endfacet
facet normal -0.965925842604068 -0.258818983908234 1.25829460210167e-005
   outer loop
      vertex 561.922277415291 -661.055557306826 -144.978884067632
      vertex 561.949253522479 -661.260974883368 -149.741315343557
      vertex 561.949323790668 -661.260994923854 -144.978885190117
   endloop
endfacet
facet normal -0.965925842604068 -0.258818983908234 1.25829460210167e-005
   outer loop
      vertex 561.949253522479 -661.260974883368 -149.741315343557
      vertex 561.922277415291 -661.055557306826 -144.978884067632
      vertex 561.922207147101 -661.05553726634 -149.741314221072
   endloop
endfacet
facet normal -0.866025440555893 -0.499999936203646 1.03112854096362e-005
   outer loop
      vertex 561.842981454943 -660.8641199239 -144.978882264501
      vertex 561.922207147101 -661.05553726634 -149.741314221072
      vertex 561.922277415291 -661.055557306826 -144.978884067632
   endloop
endfacet
facet normal -0.866025440555893 -0.499999936203646 1.03112854096362e-005
   outer loop
      vertex 561.922207147101 -661.05553726634 -149.741314221072
      vertex 561.842981454943 -660.8641199239 -144.978882264501
      vertex 561.842911186754 -660.864099883415 -149.741312417941
   endloop
endfacet
facet normal -0.707106836978646 -0.707106725356381 7.3369277302466e-006
   outer loop
      vertex 561.716839798281 -660.699728916357 -144.978879903604
      vertex 561.842911186754 -660.864099883415 -149.741312417941
      vertex 561.842981454943 -660.8641199239 -144.978882264501
   endloop
endfacet
facet normal -0.707106836978646 -0.707106725356381 7.3369277302466e-006
   outer loop
      vertex 561.842911186754 -660.864099883415 -149.741312417941
      vertex 561.716839798281 -660.699728916357 -144.978879903604
      vertex 561.716769530091 -660.699708875871 -149.741310057045
   endloop
endfacet
facet normal -0.707106836978646 -0.707106725356381 7.3369277302466e-006
   outer loop
      vertex 561.716839798281 -660.699728916357 -144.978879903604
      vertex 561.552378522557 -660.573567219206 -149.741307299273
      vertex 561.716769530091 -660.699708875871 -149.741310057045
   endloop
endfacet
facet normal -0.707106836978646 -0.707106725356381 7.3369277302466e-006
   outer loop
      vertex 561.552378522557 -660.573567219206 -149.741307299273
      vertex 561.716839798281 -660.699728916357 -144.978879903604
      vertex 561.552448790746 -660.573587259692 -144.978877145833
   endloop
endfacet
facet normal -0.500000068283849 -0.866025364352123 3.86257049596571e-006
   outer loop
      vertex 561.552448790746 -660.573587259692 -144.978877145833
      vertex 561.360941139644 -660.494271258861 -149.741304332565
      vertex 561.552378522557 -660.573567219206 -149.741307299273
   endloop
endfacet
facet normal -0.500000068283849 -0.866025364352123 3.86257049596571e-006
   outer loop
      vertex 561.360941139644 -660.494271258861 -149.741304332565
      vertex 561.552448790746 -660.573587259692 -144.978877145833
      vertex 561.361011407834 -660.494291299347 -144.978874179125
   endloop
endfacet
facet normal -0.25881911600538 -0.965925807290694 1.24985387644794e-007
   outer loop
      vertex 561.361011407834 -660.494291299347 -144.978874179125
      vertex 561.155503522634 -660.467224883491 -149.741301359096
      vertex 561.360941139644 -660.494271258861 -149.741304332565
   endloop
endfacet
facet normal -0.25881911600538 -0.965925807290694 1.24985387644794e-007
   outer loop
      vertex 561.155503522634 -660.467224883491 -149.741301359096
      vertex 561.361011407834 -660.494291299347 -144.978874179125
      vertex 561.155573790824 -660.467244923977 -144.978871205656
   endloop
endfacet
facet normal -6.29525074532915e-008 -0.999999999993442 -3.62111733869325e-006
   outer loop
      vertex 561.155573790824 -660.467244923977 -144.978871205656
      vertex 560.950065905624 -660.494271258882 -149.741298581504
      vertex 561.155503522634 -660.467224883491 -149.741301359096
   endloop
endfacet
facet normal -6.29525074532915e-008 -0.999999999993442 -3.62111733869325e-006
   outer loop
      vertex 560.950065905624 -660.494271258882 -149.741298581504
      vertex 561.155573790824 -660.467244923977 -144.978871205656
      vertex 560.950136173814 -660.494291299367 -144.978868428064
   endloop
endfacet
facet normal 0.258818998534267 -0.965925838740749 -7.1204469369193e-006
   outer loop
      vertex 560.950136173814 -660.494291299367 -144.978868428064
      vertex 560.758628522712 -660.573567219246 -149.741296189076
      vertex 560.950065905624 -660.494271258882 -149.741298581504
   endloop
endfacet
facet normal 0.258818998534267 -0.965925838740749 -7.1204469369193e-006
   outer loop
      vertex 560.758628522712 -660.573567219246 -149.741296189076
      vertex 560.950136173814 -660.494291299367 -144.978868428064
      vertex 560.758698790902 -660.573587259732 -144.978866035635
   endloop
endfacet
facet normal 0.499999973854835 -0.866025418820057 -1.01345298229174e-005
   outer loop
      vertex 560.758698790902 -660.573587259732 -144.978866035635
      vertex 560.594237515177 -660.699708875928 -149.741294344852
      vertex 560.758628522712 -660.573567219246 -149.741296189076
   endloop
endfacet
facet normal 0.499999973854835 -0.866025418820057 -1.01345298229174e-005
   outer loop
      vertex 560.594237515177 -660.699708875928 -149.741294344852
      vertex 560.758698790902 -660.573587259732 -144.978866035635
      vertex 560.594307783367 -660.699728916414 -144.978864191412
   endloop
endfacet
facet normal 0.866025398319554 -0.500000009271347 -1.3932402840878e-005
   outer loop
      vertex 560.468095858515 -660.864099883484 -149.741293174514
      vertex 560.594307783367 -660.699728916414 -144.978864191412
      vertex 560.468166126705 -660.86411992397 -144.978863021074
   endloop
endfacet
facet normal 0.866025398319554 -0.500000009271347 -1.3932402840878e-005
   outer loop
      vertex 560.594307783367 -660.699728916414 -144.978864191412
      vertex 560.468095858515 -660.864099883484 -149.741293174514
      vertex 560.594237515177 -660.699708875928 -149.741294344852
   endloop
endfacet
facet normal 8.07967569576423e-006 9.63142394081947e-006 0.999999999920977
   outer loop
      vertex 556.980680958651 -665.647123180485 -144.978749128059
      vertex 560.468166126705 -661.657869923887 -144.978865895337
      vertex 556.980726307578 -656.874674732085 -144.978799760779
   endloop
endfacet
facet normal 8.07967569576423e-006 9.63142394081947e-006 0.999999999920977
   outer loop
      vertex 560.468166126705 -661.657869923887 -144.978865895337
      vertex 556.980680958651 -665.647123180485 -144.978749128059
      vertex 560.594307783367 -661.82226093143 -144.978868256233
   endloop
endfacet
facet normal 8.07967569576423e-006 9.63142394081947e-006 0.999999999920977
   outer loop
      vertex 560.594307783367 -661.82226093143 -144.978868256233
      vertex 556.980680958651 -665.647123180485 -144.978749128059
      vertex 560.758698790902 -661.948402588096 -144.978871014004
   endloop
endfacet
facet normal 8.07967569576423e-006 9.63142394081947e-006 0.999999999920977
   outer loop
      vertex 560.758698790902 -661.948402588096 -144.978871014004
      vertex 556.980680958651 -665.647123180485 -144.978749128059
      vertex 560.950136173814 -662.027698548441 -144.978873980712
   endloop
endfacet
facet normal 8.07967569576423e-006 9.63142394081947e-006 0.999999999920977
   outer loop
      vertex 560.950136173814 -662.027698548441 -144.978873980712
      vertex 556.980680958651 -665.647123180485 -144.978749128059
      vertex 565.330386164939 -663.367652687429 -144.978799760779
   endloop
endfacet
facet normal 8.07967569576423e-006 9.63142394081947e-006 0.999999999920977
   outer loop
      vertex 565.330386164939 -663.367652687429 -144.978799760779
      vertex 556.980680958651 -665.647123180485 -144.978749128059
      vertex 574.855262359657 -665.647123180485 -144.978749128059
   endloop
endfacet
facet normal 8.07967569576423e-006 9.63142394081947e-006 0.999999999920977
   outer loop
      vertex 556.980726307578 -656.874674732085 -144.978799760779
      vertex 560.468166126705 -661.657869923887 -144.978865895337
      vertex 560.388870166357 -661.466432540961 -144.978864092206
   endloop
endfacet
facet normal 8.07967569576423e-006 9.63142394081947e-006 0.999999999920977
   outer loop
      vertex 556.980726307578 -656.874674732085 -144.978799760779
      vertex 560.388870166357 -661.466432540961 -144.978864092206
      vertex 560.361823790979 -661.260994923934 -144.978862969721
   endloop
endfacet
facet normal 8.07967569576423e-006 9.63142394081947e-006 0.999999999920977
   outer loop
      vertex 560.950136173814 -662.027698548441 -144.978873980712
      vertex 565.330386164939 -663.367652687429 -144.978799760779
      vertex 561.155573790824 -662.054744923811 -144.978876954181
   endloop
endfacet
facet normal 8.07967569576423e-006 9.63142394081947e-006 0.999999999920977
   outer loop
      vertex 561.155573790824 -662.054744923811 -144.978876954181
      vertex 565.330386164939 -663.367652687429 -144.978799760779
      vertex 561.361011407834 -662.02769854842 -144.978879731774
   endloop
endfacet
facet normal 8.07967569576423e-006 9.63142394081947e-006 0.999999999920977
   outer loop
      vertex 561.361011407834 -662.02769854842 -144.978879731774
      vertex 565.330386164939 -663.367652687429 -144.978799760779
      vertex 561.552448790746 -661.948402588056 -144.978882124202
   endloop
endfacet
facet normal 8.07967569576423e-006 9.63142394081947e-006 0.999999999920977
   outer loop
      vertex 561.552448790746 -661.948402588056 -144.978882124202
      vertex 565.330386164939 -663.367652687429 -144.978799760779
      vertex 561.716839798281 -661.822260931374 -144.978883968426
   endloop
endfacet
facet normal 8.07967569576423e-006 9.63142394081947e-006 0.999999999920977
   outer loop
      vertex 561.716839798281 -661.822260931374 -144.978883968426
      vertex 565.330386164939 -663.367652687429 -144.978799760779
      vertex 561.842981454943 -661.657869923818 -144.978885138764
   endloop
endfacet
facet normal 8.07967569576423e-006 9.63142394081947e-006 0.999999999920977
   outer loop
      vertex 561.842981454943 -661.657869923818 -144.978885138764
      vertex 565.330386164939 -663.367652687429 -144.978799760779
      vertex 561.922277415291 -661.466432540884 -144.97888555546
   endloop
endfacet
facet normal 8.07967569576423e-006 9.63142394081947e-006 0.999999999920977
   outer loop
      vertex 561.922277415291 -661.466432540884 -144.97888555546
      vertex 565.330386164939 -663.367652687429 -144.978799760779
      vertex 561.949323790668 -661.260994923854 -144.978885190117
   endloop
endfacet
facet normal 8.07967569576423e-006 9.63142394081947e-006 0.999999999920977
   outer loop
      vertex 565.330386164939 -663.367652687429 -144.978799760779
      vertex 574.855262359657 -665.647123180485 -144.978749128059
      vertex 571.680386155032 -663.367652687429 -144.978799760779
   endloop
endfacet
facet normal 8.07967569576423e-006 9.63142394081947e-006 0.999999999920977
   outer loop
      vertex 571.680386155032 -663.367652687429 -144.978799760779
      vertex 574.855262359657 -665.647123180485 -144.978749128059
      vertex 571.680506047656 -662.078591278106 -144.978992469063
   endloop
endfacet
facet normal 8.07967569576423e-006 9.63142394081947e-006 0.999999999920977
   outer loop
      vertex 571.680506047656 -662.078591278106 -144.978992469063
      vertex 574.855262359657 -665.647123180485 -144.978749128059
      vertex 574.855262359657 -662.078591278106 -144.978992469063
   endloop
endfacet
facet normal 8.07967569576423e-006 9.63142394081947e-006 0.999999999920977
   outer loop
      vertex 556.980726307578 -656.874674732085 -144.978799760779
      vertex 560.594307783367 -660.699728916414 -144.978864191412
      vertex 565.330386164939 -656.874674732085 -144.978799760779
   endloop
endfacet
facet normal 8.07967569576423e-006 9.63142394081947e-006 0.999999999920977
   outer loop
      vertex 560.594307783367 -660.699728916414 -144.978864191412
      vertex 556.980726307578 -656.874674732085 -144.978799760779
      vertex 560.468166126705 -660.86411992397 -144.978863021074
   endloop
endfacet
facet normal 8.07967569576423e-006 9.63142394081947e-006 0.999999999920977
   outer loop
      vertex 560.468166126705 -660.86411992397 -144.978863021074
      vertex 556.980726307578 -656.874674732085 -144.978799760779
      vertex 560.388870166357 -661.055557306904 -144.978862604378
   endloop
endfacet
facet normal 8.07967569576423e-006 9.63142394081947e-006 0.999999999920977
   outer loop
      vertex 560.388870166357 -661.055557306904 -144.978862604378
      vertex 556.980726307578 -656.874674732085 -144.978799760779
      vertex 560.361823790979 -661.260994923934 -144.978862969721
   endloop
endfacet
facet normal 8.07967569576423e-006 9.63142394081947e-006 0.999999999920977
   outer loop
      vertex 565.330386164939 -656.874674732085 -144.978799760779
      vertex 560.594307783367 -660.699728916414 -144.978864191412
      vertex 560.758698790902 -660.573587259732 -144.978866035635
   endloop
endfacet
facet normal 8.07967569576423e-006 9.63142394081947e-006 0.999999999920977
   outer loop
      vertex 565.330386164939 -656.874674732085 -144.978799760779
      vertex 560.758698790902 -660.573587259732 -144.978866035635
      vertex 560.950136173814 -660.494291299367 -144.978868428064
   endloop
endfacet
facet normal 8.07967569576423e-006 9.63142394081947e-006 0.999999999920977
   outer loop
      vertex 565.330386164939 -656.874674732085 -144.978799760779
      vertex 560.950136173814 -660.494291299367 -144.978868428064
      vertex 561.155573790824 -660.467244923977 -144.978871205656
   endloop
endfacet
facet normal 8.07967569576423e-006 9.63142394081947e-006 0.999999999920977
   outer loop
      vertex 565.330386164939 -656.874674732085 -144.978799760779
      vertex 561.155573790824 -660.467244923977 -144.978871205656
      vertex 561.361011407834 -660.494291299347 -144.978874179125
   endloop
endfacet
facet normal 8.07967569576423e-006 9.63142394081947e-006 0.999999999920977
   outer loop
      vertex 565.330386164939 -656.874674732085 -144.978799760779
      vertex 561.361011407834 -660.494291299347 -144.978874179125
      vertex 561.552448790746 -660.573587259692 -144.978877145833
   endloop
endfacet
facet normal 8.07967569576423e-006 9.63142394081947e-006 0.999999999920977
   outer loop
      vertex 565.330386164939 -656.874674732085 -144.978799760779
      vertex 561.552448790746 -660.573587259692 -144.978877145833
      vertex 561.716839798281 -660.699728916357 -144.978879903604
   endloop
endfacet
facet normal 8.07967569576423e-006 9.63142394081947e-006 0.999999999920977
   outer loop
      vertex 565.330386164939 -656.874674732085 -144.978799760779
      vertex 561.716839798281 -660.699728916357 -144.978879903604
      vertex 561.842981454943 -660.8641199239 -144.978882264501
   endloop
endfacet
facet normal 8.07967569576423e-006 9.63142394081947e-006 0.999999999920977
   outer loop
      vertex 565.330386164939 -656.874674732085 -144.978799760779
      vertex 561.842981454943 -660.8641199239 -144.978882264501
      vertex 561.922277415291 -661.055557306826 -144.978884067632
   endloop
endfacet
facet normal 8.07967569576423e-006 9.63142394081947e-006 0.999999999920977
   outer loop
      vertex 565.330386164939 -656.874674732085 -144.978799760779
      vertex 561.922277415291 -661.055557306826 -144.978884067632
      vertex 561.949323790668 -661.260994923854 -144.978885190117
   endloop
endfacet
facet normal 8.07967569576423e-006 9.63142394081947e-006 0.999999999920977
   outer loop
      vertex 565.330386164939 -656.874674732085 -144.978799760779
      vertex 561.949323790668 -661.260994923854 -144.978885190117
      vertex 565.330386164939 -663.367652687429 -144.978799760779
   endloop
endfacet
endsolid Milk Strap B_1_a_5-24-13
