solid Milk Strap B_1_a_5-24-13
facet normal 4.20842074792913e-005 -0.000193304688219564 -0.999999980431108
   outer loop
      vertex 616.350863952926 -614.242197604783 -89.9302048956521
      vertex 619.320678518535 -610.247003917829 -89.930443609172
      vertex 619.526114918862 -610.274059521899 -89.9304270853781
   endloop
endfacet
facet normal 4.20842074792913e-005 -0.000193304688219564 -0.999999980431108
   outer loop
      vertex 619.320678518535 -610.247003917829 -89.930443609172
      vertex 616.350863952926 -614.242197604783 -89.9302048956521
      vertex 619.12924470029 -610.167699359883 -89.9304733613676
   endloop
endfacet
facet normal 4.20842074792913e-005 -0.000193304688219564 -0.999999980431108
   outer loop
      vertex 619.12924470029 -610.167699359883 -89.9304733613676
      vertex 616.350863952926 -614.242197604783 -89.9302048956521
      vertex 618.964859362482 -610.041550322628 -89.930514314402
   endloop
endfacet
facet normal 4.20842074792913e-005 -0.000193304688219564 -0.999999980431108
   outer loop
      vertex 618.964859362482 -610.041550322628 -89.930514314402
      vertex 616.350863952926 -614.242197604783 -89.9302048956521
      vertex 618.838725094222 -609.877153654481 -89.9305636773938
   endloop
endfacet
facet normal 4.20842074792913e-005 -0.000193304688219564 -0.999999980431108
   outer loop
      vertex 618.838725094222 -609.877153654481 -89.9305636773938
      vertex 616.350863952926 -614.242197604783 -89.9302048956521
      vertex 616.351437319879 -604.717291555882 -89.9320460805526
   endloop
endfacet
facet normal 4.20842074792913e-005 -0.000193304688219564 -0.999999980431108
   outer loop
      vertex 618.838725094222 -609.877153654481 -89.9305636773938
      vertex 616.351437319879 -604.717291555882 -89.9320460805526
      vertex 618.759437737446 -609.685712716698 -89.9306180863365
   endloop
endfacet
facet normal 4.20842074792913e-005 -0.000193304688219564 -0.999999980431108
   outer loop
      vertex 618.759437737446 -609.685712716698 -89.9306180863365
      vertex 616.351437319879 -604.717291555882 -89.9320460805526
      vertex 618.732400594489 -609.480273892819 -89.9306738333505
   endloop
endfacet
facet normal 4.20842074792913e-005 -0.000193304688219564 -0.999999980431108
   outer loop
      vertex 618.732400594489 -609.480273892819 -89.9306738333505
      vertex 616.351437319879 -604.717291555882 -89.9320460805526
      vertex 618.759456201963 -609.274837499186 -89.9307271193692
   endloop
endfacet
facet normal 4.20842074792913e-005 -0.000193304688219564 -0.999999980431108
   outer loop
      vertex 618.759456201963 -609.274837499186 -89.9307271193692
      vertex 616.351437319879 -604.717291555882 -89.9320460805526
      vertex 618.83876076493 -609.083403686527 -89.9307743130382
   endloop
endfacet
facet normal 4.20842074792913e-005 -0.000193304688219564 -0.999999980431108
   outer loop
      vertex 618.83876076493 -609.083403686527 -89.9307743130382
      vertex 616.351437319879 -604.717291555882 -89.9320460805526
      vertex 618.964909808481 -608.919018352814 -89.9308121981871
   endloop
endfacet
facet normal 4.20842074792913e-005 -0.000193304688219564 -0.999999980431108
   outer loop
      vertex 618.964909808481 -608.919018352814 -89.9308121981871
      vertex 616.351437319879 -604.717291555882 -89.9320460805526
      vertex 619.088697667279 -608.824041427803 -89.9308317718366
   endloop
endfacet
facet normal 4.20842074792913e-005 -0.000193304688219564 -0.999999980431108
   outer loop
      vertex 619.088697667279 -608.824041427803 -89.9308317718366
      vertex 616.351437319879 -604.717291555882 -89.9320460805526
      vertex 619.129306483769 -608.792884086881 -89.9308381930054
   endloop
endfacet
facet normal 4.20842074792913e-005 -0.000193304688219564 -0.999999980431108
   outer loop
      vertex 619.129306483769 -608.792884086881 -89.9308381930054
      vertex 616.351437319879 -604.717291555882 -89.9320460805526
      vertex 619.320747429051 -608.713596730504 -89.9308505259896
   endloop
endfacet
facet normal 4.20842074792913e-005 -0.000193304688219564 -0.999999980431108
   outer loop
      vertex 619.320747429051 -608.713596730504 -89.9308505259896
      vertex 616.351437319879 -604.717291555882 -89.9320460805526
      vertex 619.526186260278 -608.686559585991 -89.9308483566669
   endloop
endfacet
facet normal 4.20842074792913e-005 -0.000193304688219564 -0.999999980431108
   outer loop
      vertex 619.526186260278 -608.686559585991 -89.9308483566669
      vertex 616.351437319879 -604.717291555882 -89.9320460805526
      vertex 636.989027361539 -604.718441377981 -89.9311341080935
   endloop
endfacet
facet normal 4.20842074792913e-005 -0.000193304688219564 -0.999999980431108
   outer loop
      vertex 616.350863952926 -614.242197604783 -89.9302048956521
      vertex 636.989027361539 -604.718441377981 -89.9311341080935
      vertex 636.988453994585 -614.243347426881 -89.929292923193
   endloop
endfacet
facet normal 4.20842074792913e-005 -0.000193304688219564 -0.999999980431108
   outer loop
      vertex 636.989027361539 -604.718441377981 -89.9311341080935
      vertex 616.350863952926 -614.242197604783 -89.9302048956521
      vertex 619.731553750089 -610.247022377386 -89.9304249160554
   endloop
endfacet
facet normal 4.20842074792913e-005 -0.000193304688219564 -0.999999980431108
   outer loop
      vertex 619.731553750089 -610.247022377386 -89.9304249160554
      vertex 616.350863952926 -614.242197604783 -89.9302048956521
      vertex 619.526114918862 -610.274059521899 -89.9304270853781
   endloop
endfacet
facet normal 4.20842074792913e-005 -0.000193304688219564 -0.999999980431108
   outer loop
      vertex 636.989027361539 -604.718441377981 -89.9311341080935
      vertex 619.731553750089 -610.247022377386 -89.9304249160554
      vertex 619.922994695371 -610.167735021009 -89.9304372490395
   endloop
endfacet
facet normal 4.20842074792913e-005 -0.000193304688219564 -0.999999980431108
   outer loop
      vertex 636.989027361539 -604.718441377981 -89.9311341080935
      vertex 619.922994695371 -610.167735021009 -89.9304372490395
      vertex 619.963603511862 -610.136577680087 -89.9304436702084
   endloop
endfacet
facet normal 4.20842074792913e-005 -0.000193304688219564 -0.999999980431108
   outer loop
      vertex 636.989027361539 -604.718441377981 -89.9311341080935
      vertex 619.963603511862 -610.136577680087 -89.9304436702084
      vertex 620.087391370659 -610.041600755076 -89.9304632438579
   endloop
endfacet
facet normal 4.20842074792913e-005 -0.000193304688219564 -0.999999980431108
   outer loop
      vertex 636.989027361539 -604.718441377981 -89.9311341080935
      vertex 620.087391370659 -610.041600755076 -89.9304632438579
      vertex 620.21354041421 -609.877215421363 -89.9305011290068
   endloop
endfacet
facet normal 4.20842074792913e-005 -0.000193304688219564 -0.999999980431108
   outer loop
      vertex 636.989027361539 -604.718441377981 -89.9311341080935
      vertex 620.21354041421 -609.877215421363 -89.9305011290068
      vertex 620.292844977177 -609.685781608704 -89.9305483226758
   endloop
endfacet
facet normal 4.20842074792913e-005 -0.000193304688219564 -0.999999980431108
   outer loop
      vertex 636.989027361539 -604.718441377981 -89.9311341080935
      vertex 620.292844977177 -609.685781608704 -89.9305483226758
      vertex 620.319900584651 -609.480345215071 -89.9306016086945
   endloop
endfacet
facet normal 4.20842074792913e-005 -0.000193304688219564 -0.999999980431108
   outer loop
      vertex 636.989027361539 -604.718441377981 -89.9311341080935
      vertex 620.319900584651 -609.480345215071 -89.9306016086945
      vertex 620.292863441694 -609.274906391192 -89.9306573557085
   endloop
endfacet
facet normal 4.20842074792913e-005 -0.000193304688219564 -0.999999980431108
   outer loop
      vertex 636.989027361539 -604.718441377981 -89.9311341080935
      vertex 620.292863441694 -609.274906391192 -89.9306573557085
      vertex 620.213576084918 -609.083465453409 -89.9307117646512
   endloop
endfacet
facet normal 4.20842074792913e-005 -0.000193304688219564 -0.999999980431108
   outer loop
      vertex 636.989027361539 -604.718441377981 -89.9311341080935
      vertex 620.213576084918 -609.083465453409 -89.9307117646512
      vertex 620.087441816658 -608.919068785262 -89.930761127643
   endloop
endfacet
facet normal 4.20842074792913e-005 -0.000193304688219564 -0.999999980431108
   outer loop
      vertex 636.989027361539 -604.718441377981 -89.9311341080935
      vertex 620.087441816658 -608.919068785262 -89.930761127643
      vertex 619.92305647885 -608.792919748007 -89.9308020806774
   endloop
endfacet
facet normal 4.20842074792913e-005 -0.000193304688219564 -0.999999980431108
   outer loop
      vertex 636.989027361539 -604.718441377981 -89.9311341080935
      vertex 619.92305647885 -608.792919748007 -89.9308020806774
      vertex 619.731622660605 -608.713615190061 -89.930831832873
   endloop
endfacet
facet normal 4.20842074792913e-005 -0.000193304688219564 -0.999999980431108
   outer loop
      vertex 636.989027361539 -604.718441377981 -89.9311341080935
      vertex 619.731622660605 -608.713615190061 -89.930831832873
      vertex 619.526186260278 -608.686559585991 -89.9308483566669
   endloop
endfacet
facet normal 0.499961080251076 -0.866047836118792 0.00025256312920248
   outer loop
      vertex 619.129306483769 -608.792884086881 -89.9308381930054
      vertex 619.320458620003 -608.711911713229 -83.5811554898146
      vertex 619.129017674721 -608.791199069607 -83.5811431568305
   endloop
endfacet
facet normal 0.499961080251076 -0.866047836118792 0.00025256312920248
   outer loop
      vertex 619.320458620003 -608.711911713229 -83.5811554898146
      vertex 619.129306483769 -608.792884086881 -89.9308381930054
      vertex 619.320747429051 -608.713596730504 -89.9308505259896
   endloop
endfacet
facet normal -3.92982038096569e-005 -0.965970904092041 -0.25865075082678
   outer loop
      vertex 629.050713048514 -608.711669101594 -80.2006394244022
      vertex 636.988235064819 -608.791418383498 -80.0085766523206
      vertex 629.050693437595 -608.790931706283 -80.0091882295186
   endloop
endfacet
facet normal -3.92982038096569e-005 -0.965970904092041 -0.25865075082678
   outer loop
      vertex 636.988235064819 -608.791418383498 -80.0085766523206
      vertex 629.050713048514 -608.711669101594 -80.2006394244022
      vertex 636.988254675739 -608.712155778809 -80.2000278472042
   endloop
endfacet
facet normal 6.13267662794201e-005 0.999999982942131 -0.000174226192931373
   outer loop
      vertex 636.988174804669 -610.272645170183 -80.4051935886048
      vertex 629.050650662616 -610.245147911634 -80.6112474912846
      vertex 629.050633177444 -610.272158492967 -80.4058051658028
   endloop
endfacet
facet normal 6.13267662794201e-005 0.999999982942131 -0.000174226192931373
   outer loop
      vertex 629.050650662616 -610.245147911634 -80.6112474912846
      vertex 636.988174804669 -610.272645170183 -80.4051935886048
      vertex 636.98819228984 -610.24563458885 -80.6106359140866
   endloop
endfacet
facet normal -0.500038917704729 -0.866002908715568 0.000207067282648481
   outer loop
      vertex 619.92305647885 -608.792919748007 -89.9308020806774
      vertex 620.08715300761 -608.917383767988 -83.581066091468
      vertex 619.922767669801 -608.791234730733 -83.5811070445025
   endloop
endfacet
facet normal -0.500038917704729 -0.866002908715568 0.000207067282648481
   outer loop
      vertex 620.08715300761 -608.917383767988 -83.581066091468
      vertex 619.92305647885 -608.792919748007 -89.9308020806774
      vertex 620.087441816658 -608.919068785262 -89.930761127643
   endloop
endfacet
facet normal -0.707138556748444 -0.707074987103845 0.000155472908269212
   outer loop
      vertex 620.08715300761 -608.917383767988 -83.581066091468
      vertex 620.213576084918 -609.083465453409 -89.9307117646512
      vertex 620.213287275869 -609.081780436135 -83.5810167284762
   endloop
endfacet
facet normal -0.707138556748444 -0.707074987103845 0.000155472908269212
   outer loop
      vertex 620.213576084918 -609.083465453409 -89.9307117646512
      vertex 620.08715300761 -608.917383767988 -83.581066091468
      vertex 620.087441816658 -608.919068785262 -89.930761127643
   endloop
endfacet
facet normal 5.64320757061174e-005 0.999999966811726 -0.000251380125546194
   outer loop
      vertex 635.399806147321 -612.650535234145 -67.7041730375067
      vertex 635.399702689869 -612.651333360206 -70.8791729355054
      vertex 629.049731148269 -612.650975146592 -70.8796840063021
   endloop
endfacet
facet normal -0.866047871751465 -0.499961073617718 9.32833121225413e-005
   outer loop
      vertex 620.213287275869 -609.081780436135 -83.5810167284762
      vertex 620.292863441694 -609.274906391192 -89.9306573557085
      vertex 620.292574632646 -609.273221373918 -83.5809623195336
   endloop
endfacet
facet normal -0.866047871751465 -0.499961073617718 9.32833121225413e-005
   outer loop
      vertex 620.292863441694 -609.274906391192 -89.9306573557085
      vertex 620.213287275869 -609.081780436135 -83.5810167284762
      vertex 620.213576084918 -609.083465453409 -89.9307117646512
   endloop
endfacet
facet normal -0.447266944644558 0.000250074715212208 0.89440047947827
   outer loop
      vertex 635.399716561401 -614.238035181459 -67.7037739715574
      vertex 629.049731148269 -612.650975146592 -70.8796840063021
      vertex 629.049641562348 -614.238475093906 -70.8792849403528
   endloop
endfacet
facet normal -0.447266944644558 0.000250074715212208 0.89440047947827
   outer loop
      vertex 629.049731148269 -612.650975146592 -70.8796840063021
      vertex 635.399716561401 -614.238035181459 -67.7037739715574
      vertex 635.399806147321 -612.650535234145 -67.7041730375067
   endloop
endfacet
facet normal -9.73802548411219e-005 -0.499849103070678 0.866112501166289
   outer loop
      vertex 636.988300778367 -609.082139958321 -81.0928086783539
      vertex 629.05075351971 -609.273104476571 -81.1726828610589
      vertex 636.988295146934 -609.273591153787 -81.1720712838609
   endloop
endfacet
facet normal -9.73802548411219e-005 -0.499849103070678 0.866112501166289
   outer loop
      vertex 629.05075351971 -609.273104476571 -81.1726828610589
      vertex 636.988300778367 -609.082139958321 -81.0928086783539
      vertex 629.050759151142 -609.081653281105 -81.0934202555518
   endloop
endfacet
facet normal -0.965937455506527 -0.258775639189001 2.47366124126009e-005
   outer loop
      vertex 620.292574632646 -609.273221373918 -83.5809623195336
      vertex 620.319900584651 -609.480345215071 -89.9306016086945
      vertex 620.319611775602 -609.478660197797 -83.5809065725195
   endloop
endfacet
facet normal -0.965937455506527 -0.258775639189001 2.47366124126009e-005
   outer loop
      vertex 620.319900584651 -609.480345215071 -89.9306016086945
      vertex 620.292574632646 -609.273221373918 -83.5809623195336
      vertex 620.292863441694 -609.274906391192 -89.9306573557085
   endloop
endfacet
facet normal -0.999999997955828 4.49274031576904e-005 -4.54958465539821e-005
   outer loop
      vertex 620.319611775602 -609.478660197797 -83.5809065725195
      vertex 620.292844977177 -609.685781608704 -89.9305483226758
      vertex 620.292556168129 -609.68409659143 -83.5808532865009
   endloop
endfacet
facet normal -0.999999997955828 4.49274031576904e-005 -4.54958465539821e-005
   outer loop
      vertex 620.292844977177 -609.685781608704 -89.9305483226758
      vertex 620.319611775602 -609.478660197797 -83.5809065725195
      vertex 620.319900584651 -609.480345215071 -89.9306016086945
   endloop
endfacet
facet normal -0.965914193122631 0.258862432267075 -0.000112627838763365
   outer loop
      vertex 620.292556168129 -609.68409659143 -83.5808532865009
      vertex 620.21354041421 -609.877215421363 -89.9305011290068
      vertex 620.213251605162 -609.875530404089 -83.5808060928319
   endloop
endfacet
facet normal -0.965914193122631 0.258862432267075 -0.000112627838763365
   outer loop
      vertex 620.21354041421 -609.877215421363 -89.9305011290068
      vertex 620.292556168129 -609.68409659143 -83.5808532865009
      vertex 620.292844977177 -609.685781608704 -89.9305483226758
   endloop
endfacet
facet normal -0.999999997014423 6.2456856858412e-005 -4.55004982994425e-005
   outer loop
      vertex 616.351170103429 -604.715942995788 -83.5823509541103
      vertex 616.350863952926 -614.242197604783 -89.9302048956521
      vertex 616.350553476573 -614.240909476513 -83.5798233437491
   endloop
endfacet
facet normal -0.999999997014423 6.2456856858412e-005 -4.55004982994425e-005
   outer loop
      vertex 616.350863952926 -614.242197604783 -89.9302048956521
      vertex 616.351170103429 -604.715942995788 -83.5823509541103
      vertex 616.351437319879 -604.717291555882 -89.9320460805526
   endloop
endfacet
facet normal -4.54839226267175e-005 0.000265369785955424 0.999999963755044
   outer loop
      vertex 629.051170065513 -604.71673619787 -83.5817730977818
      vertex 616.350553476573 -614.240909476513 -83.5798233437491
      vertex 629.050553438656 -614.241702678595 -83.5792454874206
   endloop
endfacet
facet normal -4.54839226267175e-005 0.000265369785955424 0.999999963755044
   outer loop
      vertex 616.350553476573 -614.240909476513 -83.5798233437491
      vertex 629.051170065513 -604.71673619787 -83.5817730977818
      vertex 619.922705886323 -610.166050003735 -83.5807422128646
   endloop
endfacet
facet normal -4.54839226267175e-005 0.000265369785955424 0.999999963755044
   outer loop
      vertex 616.350553476573 -614.240909476513 -83.5798233437491
      vertex 619.922705886323 -610.166050003735 -83.5807422128646
      vertex 619.731264941041 -610.245337360112 -83.5807298798805
   endloop
endfacet
facet normal -4.54839226267175e-005 0.000265369785955424 0.999999963755044
   outer loop
      vertex 616.350553476573 -614.240909476513 -83.5798233437491
      vertex 619.731264941041 -610.245337360112 -83.5807298798805
      vertex 619.525826109814 -610.272374504625 -83.5807320492032
   endloop
endfacet
facet normal -4.54839226267175e-005 0.000265369785955424 0.999999963755044
   outer loop
      vertex 619.922705886323 -610.166050003735 -83.5807422128646
      vertex 629.051170065513 -604.71673619787 -83.5817730977818
      vertex 619.963314702813 -610.134892662813 -83.5807486340335
   endloop
endfacet
facet normal -4.54839226267175e-005 0.000265369785955424 0.999999963755044
   outer loop
      vertex 619.963314702813 -610.134892662813 -83.5807486340335
      vertex 629.051170065513 -604.71673619787 -83.5817730977818
      vertex 620.087102561611 -610.039915737802 -83.580768207683
   endloop
endfacet
facet normal -4.54839226267175e-005 0.000265369785955424 0.999999963755044
   outer loop
      vertex 620.087102561611 -610.039915737802 -83.580768207683
      vertex 629.051170065513 -604.71673619787 -83.5817730977818
      vertex 620.213251605162 -609.875530404089 -83.5808060928319
   endloop
endfacet
facet normal -4.54839226267175e-005 0.000265369785955424 0.999999963755044
   outer loop
      vertex 620.213251605162 -609.875530404089 -83.5808060928319
      vertex 629.051170065513 -604.71673619787 -83.5817730977818
      vertex 620.292556168129 -609.68409659143 -83.5808532865009
   endloop
endfacet
facet normal -4.54839226267175e-005 0.000265369785955424 0.999999963755044
   outer loop
      vertex 620.292556168129 -609.68409659143 -83.5808532865009
      vertex 629.051170065513 -604.71673619787 -83.5817730977818
      vertex 620.319611775602 -609.478660197797 -83.5809065725195
   endloop
endfacet
facet normal -4.54839226267175e-005 0.000265369785955424 0.999999963755044
   outer loop
      vertex 620.319611775602 -609.478660197797 -83.5809065725195
      vertex 629.051170065513 -604.71673619787 -83.5817730977818
      vertex 620.292574632646 -609.273221373918 -83.5809623195336
   endloop
endfacet
facet normal -4.54839226267175e-005 0.000265369785955424 0.999999963755044
   outer loop
      vertex 620.292574632646 -609.273221373918 -83.5809623195336
      vertex 629.051170065513 -604.71673619787 -83.5817730977818
      vertex 620.213287275869 -609.081780436135 -83.5810167284762
   endloop
endfacet
facet normal -4.54839226267175e-005 0.000265369785955424 0.999999963755044
   outer loop
      vertex 620.213287275869 -609.081780436135 -83.5810167284762
      vertex 629.051170065513 -604.71673619787 -83.5817730977818
      vertex 620.08715300761 -608.917383767988 -83.581066091468
   endloop
endfacet
facet normal -4.54839226267175e-005 0.000265369785955424 0.999999963755044
   outer loop
      vertex 620.08715300761 -608.917383767988 -83.581066091468
      vertex 629.051170065513 -604.71673619787 -83.5817730977818
      vertex 619.922767669801 -608.791234730733 -83.5811070445025
   endloop
endfacet
facet normal -4.54839226267175e-005 0.000265369785955424 0.999999963755044
   outer loop
      vertex 619.922767669801 -608.791234730733 -83.5811070445025
      vertex 629.051170065513 -604.71673619787 -83.5817730977818
      vertex 619.731333851557 -608.711930172787 -83.5811367966981
   endloop
endfacet
facet normal -4.54839226267175e-005 0.000265369785955424 0.999999963755044
   outer loop
      vertex 619.731333851557 -608.711930172787 -83.5811367966981
      vertex 629.051170065513 -604.71673619787 -83.5817730977818
      vertex 619.52589745123 -608.684874568717 -83.5811533204919
   endloop
endfacet
facet normal -4.54839226267175e-005 0.000265369785955424 0.999999963755044
   outer loop
      vertex 616.350553476573 -614.240909476513 -83.5798233437491
      vertex 618.838436285174 -609.875468637207 -83.5808686412189
      vertex 616.351170103429 -604.715942995788 -83.5823509541103
   endloop
endfacet
facet normal -4.54839226267175e-005 0.000265369785955424 0.999999963755044
   outer loop
      vertex 618.838436285174 -609.875468637207 -83.5808686412189
      vertex 616.350553476573 -614.240909476513 -83.5798233437491
      vertex 618.964570553434 -610.039865305354 -83.5808192782271
   endloop
endfacet
facet normal -4.54839226267175e-005 0.000265369785955424 0.999999963755044
   outer loop
      vertex 618.964570553434 -610.039865305354 -83.5808192782271
      vertex 616.350553476573 -614.240909476513 -83.5798233437491
      vertex 619.128955891242 -610.166014342609 -83.5807783251926
   endloop
endfacet
facet normal -4.54839226267175e-005 0.000265369785955424 0.999999963755044
   outer loop
      vertex 619.128955891242 -610.166014342609 -83.5807783251926
      vertex 616.350553476573 -614.240909476513 -83.5798233437491
      vertex 619.320389709487 -610.245318900555 -83.580748572997
   endloop
endfacet
facet normal -4.54839226267175e-005 0.000265369785955424 0.999999963755044
   outer loop
      vertex 619.320389709487 -610.245318900555 -83.580748572997
      vertex 616.350553476573 -614.240909476513 -83.5798233437491
      vertex 619.525826109814 -610.272374504625 -83.5807320492032
   endloop
endfacet
facet normal -4.54839226267175e-005 0.000265369785955424 0.999999963755044
   outer loop
      vertex 616.351170103429 -604.715942995788 -83.5823509541103
      vertex 618.838436285174 -609.875468637207 -83.5808686412189
      vertex 618.759148928398 -609.684027699424 -83.5809230501615
   endloop
endfacet
facet normal -4.54839226267175e-005 0.000265369785955424 0.999999963755044
   outer loop
      vertex 616.351170103429 -604.715942995788 -83.5823509541103
      vertex 618.759148928398 -609.684027699424 -83.5809230501615
      vertex 618.732111785441 -609.478588875545 -83.5809787971756
   endloop
endfacet
facet normal -4.54839226267175e-005 0.000265369785955424 0.999999963755044
   outer loop
      vertex 616.351170103429 -604.715942995788 -83.5823509541103
      vertex 618.732111785441 -609.478588875545 -83.5809787971756
      vertex 618.759167392915 -609.273152481912 -83.5810320831943
   endloop
endfacet
facet normal -4.54839226267175e-005 0.000265369785955424 0.999999963755044
   outer loop
      vertex 616.351170103429 -604.715942995788 -83.5823509541103
      vertex 618.759167392915 -609.273152481912 -83.5810320831943
      vertex 618.838471955882 -609.081718669253 -83.5810792768632
   endloop
endfacet
facet normal -4.54839226267175e-005 0.000265369785955424 0.999999963755044
   outer loop
      vertex 616.351170103429 -604.715942995788 -83.5823509541103
      vertex 618.838471955882 -609.081718669253 -83.5810792768632
      vertex 618.964620999433 -608.91733333554 -83.5811171620121
   endloop
endfacet
facet normal -4.54839226267175e-005 0.000265369785955424 0.999999963755044
   outer loop
      vertex 616.351170103429 -604.715942995788 -83.5823509541103
      vertex 618.964620999433 -608.91733333554 -83.5811171620121
      vertex 619.08840885823 -608.822356410529 -83.5811367356616
   endloop
endfacet
facet normal -4.54839226267175e-005 0.000265369785955424 0.999999963755044
   outer loop
      vertex 616.351170103429 -604.715942995788 -83.5823509541103
      vertex 619.08840885823 -608.822356410529 -83.5811367356616
      vertex 619.129017674721 -608.791199069607 -83.5811431568305
   endloop
endfacet
facet normal -4.54839226267175e-005 0.000265369785955424 0.999999963755044
   outer loop
      vertex 616.351170103429 -604.715942995788 -83.5823509541103
      vertex 619.129017674721 -608.791199069607 -83.5811431568305
      vertex 619.320458620003 -608.711911713229 -83.5811554898146
   endloop
endfacet
facet normal -4.54839226267175e-005 0.000265369785955424 0.999999963755044
   outer loop
      vertex 616.351170103429 -604.715942995788 -83.5823509541103
      vertex 619.320458620003 -608.711911713229 -83.5811554898146
      vertex 619.52589745123 -608.684874568717 -83.5811533204919
   endloop
endfacet
facet normal -4.54839226267175e-005 0.000265369785955424 0.999999963755044
   outer loop
      vertex 616.351170103429 -604.715942995788 -83.5823509541103
      vertex 619.52589745123 -608.684874568717 -83.5811533204919
      vertex 629.051170065513 -604.71673619787 -83.5817730977818
   endloop
endfacet
facet normal -0.866002932276681 0.500038890162694 -0.000172084429887405
   outer loop
      vertex 620.213251605162 -609.875530404089 -83.5808060928319
      vertex 620.087391370659 -610.041600755076 -89.9304632438579
      vertex 620.087102561611 -610.039915737802 -83.580768207683
   endloop
endfacet
facet normal -0.866002932276681 0.500038890162694 -0.000172084429887405
   outer loop
      vertex 620.087391370659 -610.041600755076 -89.9304632438579
      vertex 620.213251605162 -609.875530404089 -83.5808060928319
      vertex 620.21354041421 -609.877215421363 -89.9305011290068
   endloop
endfacet
facet normal -0.447274609617205 0.000233169701376078 0.894396650946138
   outer loop
      vertex 635.40023163343 -606.30053547993 -67.7058878046738
      vertex 629.050263005905 -604.713475453823 -70.8818274652606
      vertex 629.050156634377 -606.300975392377 -70.8813987734689
   endloop
endfacet
facet normal -0.447274609617205 0.000233169701376078 0.894396650946138
   outer loop
      vertex 629.050263005905 -604.713475453823 -70.8818274652606
      vertex 635.40023163343 -606.30053547993 -67.7058878046738
      vertex 635.399944031999 -604.712989709417 -67.7063774814271
   endloop
endfacet
facet normal -0.707075002733701 0.707138524046775 -0.000219813751497513
   outer loop
      vertex 620.087102561611 -610.039915737802 -83.580768207683
      vertex 619.963603511862 -610.136577680087 -89.9304436702084
      vertex 619.963314702813 -610.134892662813 -83.5807486340335
   endloop
endfacet
facet normal -0.707075002733701 0.707138524046775 -0.000219813751497513
   outer loop
      vertex 619.963603511862 -610.136577680087 -89.9304436702084
      vertex 620.087102561611 -610.039915737802 -83.580768207683
      vertex 620.087391370659 -610.041600755076 -89.9304632438579
   endloop
endfacet
facet normal -5.64320757629591e-005 -0.999999966811726 0.000251380125546196
   outer loop
      vertex 635.40023163343 -606.30053547993 -67.7058878046738
      vertex 629.050156634377 -606.300975392377 -70.8813987734689
      vertex 635.400128175978 -606.301333605991 -70.8808877026724
   endloop
endfacet
facet normal 5.91961572543114e-005 0.999999967705203 -0.000247154624564468
   outer loop
      vertex 635.399944031999 -604.712989709417 -67.7063774814271
      vertex 629.051170065513 -604.71673619787 -83.5817730977818
      vertex 629.050263005905 -604.713475453823 -70.8818274652606
   endloop
endfacet
facet normal 5.91961572543114e-005 0.999999967705203 -0.000247154624564468
   outer loop
      vertex 629.051170065513 -604.71673619787 -83.5817730977818
      vertex 616.351437319879 -604.717291555882 -89.9320460805526
      vertex 616.351170103429 -604.715942995788 -83.5823509541103
   endloop
endfacet
facet normal 5.91961572543114e-005 0.999999967705203 -0.000247154624564468
   outer loop
      vertex 616.351437319879 -604.717291555882 -89.9320460805526
      vertex 629.051170065513 -604.71673619787 -83.5817730977818
      vertex 636.989027361539 -604.718441377981 -89.9311341080935
   endloop
endfacet
facet normal 5.91961572543114e-005 0.999999967705203 -0.000247154624564468
   outer loop
      vertex 636.989027361539 -604.718441377981 -89.9311341080935
      vertex 629.051170065513 -604.71673619787 -83.5817730977818
      vertex 635.399944031999 -604.712989709417 -67.7063774814271
   endloop
endfacet
facet normal 5.91961572543114e-005 0.999999967705203 -0.000247154624564468
   outer loop
      vertex 636.989027361539 -604.718441377981 -89.9311341080935
      vertex 635.399944031999 -604.712989709417 -67.7063774814271
      vertex 636.987597583192 -604.713082629065 -67.7062496996651
   endloop
endfacet
facet normal 9.16295413662273e-005 0.865938273553282 -0.500150875236252
   outer loop
      vertex 636.988150751841 -610.16623368837 -80.00833712348
      vertex 629.050619009606 -610.245076324465 -80.2003722646951
      vertex 629.050609124617 -610.165747011154 -80.0089487006779
   endloop
endfacet
facet normal 9.16295413662273e-005 0.865938273553282 -0.500150875236252
   outer loop
      vertex 629.050619009606 -610.245076324465 -80.2003722646951
      vertex 636.988150751841 -610.16623368837 -80.00833712348
      vertex 636.988160636831 -610.245563001681 -80.1997606874971
   endloop
endfacet
facet normal -5.34816391649512e-005 -0.999999970555335 0.000236704547310908
   outer loop
      vertex 616.350863952926 -614.242197604783 -89.9302048956521
      vertex 629.050553438656 -614.241702678595 -83.5792454874206
      vertex 616.350553476573 -614.240909476513 -83.5798233437491
   endloop
endfacet
facet normal -5.34816391649512e-005 -0.999999970555335 0.000236704547310908
   outer loop
      vertex 629.050553438656 -614.241702678595 -83.5792454874206
      vertex 616.350863952926 -614.242197604783 -89.9302048956521
      vertex 636.988453994585 -614.243347426881 -89.929292923193
   endloop
endfacet
facet normal -5.34816391649512e-005 -0.999999970555335 0.000236704547310908
   outer loop
      vertex 629.050553438656 -614.241702678595 -83.5792454874206
      vertex 636.988453994585 -614.243347426881 -89.929292923193
      vertex 635.399716561401 -614.238035181459 -67.7037739715574
   endloop
endfacet
facet normal -5.34816391649512e-005 -0.999999970555335 0.000236704547310908
   outer loop
      vertex 635.399716561401 -614.238035181459 -67.7037739715574
      vertex 636.988453994585 -614.243347426881 -89.929292923193
      vertex 636.988104212202 -614.238166181407 -67.7039590697179
   endloop
endfacet
facet normal -5.34816391649512e-005 -0.999999970555335 0.000236704547310908
   outer loop
      vertex 635.399716561401 -614.238035181459 -67.7037739715574
      vertex 629.049641562348 -614.238475093906 -70.8792849403528
      vertex 629.050553438656 -614.241702678595 -83.5792454874206
   endloop
endfacet
facet normal 7.9176010974506e-005 0.965880715532815 -0.258987329985421
   outer loop
      vertex 636.988160636831 -610.245563001681 -80.1997606874971
      vertex 629.050633177444 -610.272158492967 -80.4058051658028
      vertex 629.050619009606 -610.245076324465 -80.2003722646951
   endloop
endfacet
facet normal 7.9176010974506e-005 0.965880715532815 -0.258987329985421
   outer loop
      vertex 629.050633177444 -610.272158492967 -80.4058051658028
      vertex 636.988160636831 -610.245563001681 -80.1997606874971
      vertex 636.988174804669 -610.272645170183 -80.4051935886048
   endloop
endfacet
facet normal -0.999999997224186 6.7014483590326e-005 3.25681792038907e-005
   outer loop
      vertex 635.40023163343 -606.30053547993 -67.7058878046738
      vertex 635.399702689869 -612.651333360206 -70.8791729355054
      vertex 635.399806147321 -612.650535234145 -67.7041730375067
   endloop
endfacet
facet normal -0.999999997224186 6.7014483590326e-005 3.25681792038907e-005
   outer loop
      vertex 635.399702689869 -612.651333360206 -70.8791729355054
      vertex 635.40023163343 -606.30053547993 -67.7058878046738
      vertex 635.400128175978 -606.301333605991 -70.8808877026724
   endloop
endfacet
facet normal 3.23493579629773e-005 0.000259296354252137 0.999999965859459
   outer loop
      vertex 636.987597583192 -604.713082629065 -67.7062496996651
      vertex 635.399716561401 -614.238035181459 -67.7037739715574
      vertex 636.988104212202 -614.238166181407 -67.7039590697179
   endloop
endfacet
facet normal 3.23493579629773e-005 0.000259296354252137 0.999999965859459
   outer loop
      vertex 635.399716561401 -614.238035181459 -67.7037739715574
      vertex 636.987597583192 -604.713082629065 -67.7062496996651
      vertex 635.399806147321 -612.650535234145 -67.7041730375067
   endloop
endfacet
facet normal 3.23493579629773e-005 0.000259296354252137 0.999999965859459
   outer loop
      vertex 635.399806147321 -612.650535234145 -67.7041730375067
      vertex 636.987597583192 -604.713082629065 -67.7062496996651
      vertex 635.40023163343 -606.30053547993 -67.7058878046738
   endloop
endfacet
facet normal 3.23493579629773e-005 0.000259296354252137 0.999999965859459
   outer loop
      vertex 635.40023163343 -606.30053547993 -67.7058878046738
      vertex 636.987597583192 -604.713082629065 -67.7062496996651
      vertex 635.399944031999 -604.712989709417 -67.7063774814271
   endloop
endfacet
facet normal -6.13267662794201e-005 -0.999999982942131 0.000174226192931373
   outer loop
      vertex 629.050730533686 -608.68465852026 -80.406081749884
      vertex 636.988254675739 -608.712155778809 -80.2000278472042
      vertex 629.050713048514 -608.711669101594 -80.2006394244022
   endloop
endfacet
facet normal -6.13267662794201e-005 -0.999999982942131 0.000174226192931373
   outer loop
      vertex 636.988254675739 -608.712155778809 -80.2000278472042
      vertex 629.050730533686 -608.68465852026 -80.406081749884
      vertex 636.98827216091 -608.685145197476 -80.405470172686
   endloop
endfacet
facet normal -0.999999995263332 6.12342982669578e-005 -7.56551151902033e-005
   outer loop
      vertex 629.050263005905 -604.713475453823 -70.8818274652606
      vertex 629.05063538907 -609.27283730962 -79.6392756398556
      vertex 629.050620706647 -609.478270210823 -79.6121934723531
   endloop
endfacet
facet normal -0.999999995263332 6.12342982669578e-005 -7.56551151902033e-005
   outer loop
      vertex 629.05063538907 -609.27283730962 -79.6392756398556
      vertex 629.050263005905 -604.713475453823 -70.8818274652606
      vertex 629.050653238109 -609.081413745769 -79.7186049521756
   endloop
endfacet
facet normal -0.999999995263332 6.12342982669578e-005 -7.56551151902033e-005
   outer loop
      vertex 629.050653238109 -609.081413745769 -79.7186049521756
      vertex 629.050263005905 -604.713475453823 -70.8818274652606
      vertex 629.050673037379 -608.917044718805 -79.8447752477762
   endloop
endfacet
facet normal -0.999999995263332 6.12342982669578e-005 -7.56551151902033e-005
   outer loop
      vertex 629.050673037379 -608.917044718805 -79.8447752477762
      vertex 629.050263005905 -604.713475453823 -70.8818274652606
      vertex 629.051170065513 -604.71673619787 -83.5817730977818
   endloop
endfacet
facet normal -0.999999995263332 6.12342982669578e-005 -7.56551151902033e-005
   outer loop
      vertex 629.050673037379 -608.917044718805 -79.8447752477762
      vertex 629.051170065513 -604.71673619787 -83.5817730977818
      vertex 629.050693437595 -608.790931706283 -80.0091882295186
   endloop
endfacet
facet normal -0.999999995263332 6.12342982669578e-005 -7.56551151902033e-005
   outer loop
      vertex 629.050693437595 -608.790931706283 -80.0091882295186
      vertex 629.051170065513 -604.71673619787 -83.5817730977818
      vertex 629.050713048514 -608.711669101594 -80.2006394244022
   endloop
endfacet
facet normal -0.999999995263332 6.12342982669578e-005 -7.56551151902033e-005
   outer loop
      vertex 629.050713048514 -608.711669101594 -80.2006394244022
      vertex 629.051170065513 -604.71673619787 -83.5817730977818
      vertex 629.050730533686 -608.68465852026 -80.406081749884
   endloop
endfacet
facet normal -0.999999995263332 6.12342982669578e-005 -7.56551151902033e-005
   outer loop
      vertex 629.050730533686 -608.68465852026 -80.406081749884
      vertex 629.051170065513 -604.71673619787 -83.5817730977818
      vertex 629.050744701524 -608.711740688763 -80.6115146509917
   endloop
endfacet
facet normal -0.999999995263332 6.12342982669578e-005 -7.56551151902033e-005
   outer loop
      vertex 629.050744701524 -608.711740688763 -80.6115146509917
      vertex 629.051170065513 -604.71673619787 -83.5817730977818
      vertex 629.050754586514 -608.791070002073 -80.8029382150089
   endloop
endfacet
facet normal -0.999999995263332 6.12342982669578e-005 -7.56551151902033e-005
   outer loop
      vertex 629.050754586514 -608.791070002073 -80.8029382150089
      vertex 629.051170065513 -604.71673619787 -83.5817730977818
      vertex 629.050759515009 -608.917240298588 -80.96730724239
   endloop
endfacet
facet normal -0.999999995263332 6.12342982669578e-005 -7.56551151902033e-005
   outer loop
      vertex 629.050759515009 -608.917240298588 -80.96730724239
      vertex 629.051170065513 -604.71673619787 -83.5817730977818
      vertex 629.050759151142 -609.081653281105 -81.0934202555518
   endloop
endfacet
facet normal -0.999999995263332 6.12342982669578e-005 -7.56551151902033e-005
   outer loop
      vertex 629.050759151142 -609.081653281105 -81.0934202555518
      vertex 629.051170065513 -604.71673619787 -83.5817730977818
      vertex 629.05075351971 -609.273104476571 -81.1726828610589
   endloop
endfacet
facet normal -0.999999995263332 6.12342982669578e-005 -7.56551151902033e-005
   outer loop
      vertex 629.05075351971 -609.273104476571 -81.1726828610589
      vertex 629.051170065513 -604.71673619787 -83.5817730977818
      vertex 629.050743004484 -609.478546802404 -81.1996934433337
   endloop
endfacet
facet normal -0.999999995263332 6.12342982669578e-005 -7.56551151902033e-005
   outer loop
      vertex 629.050743004484 -609.478546802404 -81.1996934433337
      vertex 629.051170065513 -604.71673619787 -83.5817730977818
      vertex 629.050553438656 -614.241702678595 -83.5792454874206
   endloop
endfacet
facet normal -0.999999995263332 6.12342982669578e-005 -7.56551151902033e-005
   outer loop
      vertex 629.049731148269 -612.650975146592 -70.8796840063021
      vertex 629.050553438656 -614.241702678595 -83.5792454874206
      vertex 629.049641562348 -614.238475093906 -70.8792849403528
   endloop
endfacet
facet normal -0.999999995263332 6.12342982669578e-005 -7.56551151902033e-005
   outer loop
      vertex 629.050553438656 -614.241702678595 -83.5792454874206
      vertex 629.049731148269 -612.650975146592 -70.8796840063021
      vertex 629.050156634377 -606.300975392377 -70.8813987734689
   endloop
endfacet
facet normal -0.999999995263332 6.12342982669578e-005 -7.56551151902033e-005
   outer loop
      vertex 629.050553438656 -614.241702678595 -83.5792454874206
      vertex 629.050156634377 -606.300975392377 -70.8813987734689
      vertex 629.050263005905 -604.713475453823 -70.8818274652606
   endloop
endfacet
facet normal -0.999999995263332 6.12342982669578e-005 -7.56551151902033e-005
   outer loop
      vertex 629.050553438656 -614.241702678595 -83.5792454874206
      vertex 629.050263005905 -604.713475453823 -70.8818274652606
      vertex 629.050604196121 -610.03957671464 -79.8445796732968
   endloop
endfacet
facet normal -0.999999995263332 6.12342982669578e-005 -7.56551151902033e-005
   outer loop
      vertex 629.050604196121 -610.03957671464 -79.8445796732968
      vertex 629.050263005905 -604.713475453823 -70.8818274652606
      vertex 629.050604559988 -609.875163732123 -79.718466660135
   endloop
endfacet
facet normal -0.999999995263332 6.12342982669578e-005 -7.56551151902033e-005
   outer loop
      vertex 629.050604559988 -609.875163732123 -79.718466660135
      vertex 629.050263005905 -604.713475453823 -70.8818274652606
      vertex 629.050610191421 -609.683712536656 -79.6392040546279
   endloop
endfacet
facet normal -0.999999995263332 6.12342982669578e-005 -7.56551151902033e-005
   outer loop
      vertex 629.050610191421 -609.683712536656 -79.6392040546279
      vertex 629.050263005905 -604.713475453823 -70.8818274652606
      vertex 629.050620706647 -609.478270210823 -79.6121934723531
   endloop
endfacet
facet normal -0.999999995263332 6.12342982669578e-005 -7.56551151902033e-005
   outer loop
      vertex 629.050553438656 -614.241702678595 -83.5792454874206
      vertex 629.050604196121 -610.03957671464 -79.8445796732968
      vertex 629.050609124617 -610.165747011154 -80.0089487006779
   endloop
endfacet
facet normal -0.999999995263332 6.12342982669578e-005 -7.56551151902033e-005
   outer loop
      vertex 629.050553438656 -614.241702678595 -83.5792454874206
      vertex 629.050609124617 -610.165747011154 -80.0089487006779
      vertex 629.050619009606 -610.245076324465 -80.2003722646951
   endloop
endfacet
facet normal -0.999999995263332 6.12342982669578e-005 -7.56551151902033e-005
   outer loop
      vertex 629.050553438656 -614.241702678595 -83.5792454874206
      vertex 629.050619009606 -610.245076324465 -80.2003722646951
      vertex 629.050633177444 -610.272158492967 -80.4058051658028
   endloop
endfacet
facet normal -0.999999995263332 6.12342982669578e-005 -7.56551151902033e-005
   outer loop
      vertex 629.050553438656 -614.241702678595 -83.5792454874206
      vertex 629.050633177444 -610.272158492967 -80.4058051658028
      vertex 629.050650662616 -610.245147911634 -80.6112474912846
   endloop
endfacet
facet normal -0.999999995263332 6.12342982669578e-005 -7.56551151902033e-005
   outer loop
      vertex 629.050553438656 -614.241702678595 -83.5792454874206
      vertex 629.050650662616 -610.245147911634 -80.6112474912846
      vertex 629.050670273535 -610.165885306945 -80.8026986861682
   endloop
endfacet
facet normal -0.999999995263332 6.12342982669578e-005 -7.56551151902033e-005
   outer loop
      vertex 629.050553438656 -614.241702678595 -83.5792454874206
      vertex 629.050670273535 -610.165885306945 -80.8026986861682
      vertex 629.050690673751 -610.039772294423 -80.9671116679106
   endloop
endfacet
facet normal -0.999999995263332 6.12342982669578e-005 -7.56551151902033e-005
   outer loop
      vertex 629.050553438656 -614.241702678595 -83.5792454874206
      vertex 629.050690673751 -610.039772294423 -80.9671116679106
      vertex 629.050710473022 -609.875403267458 -81.0932819635112
   endloop
endfacet
facet normal -0.999999995263332 6.12342982669578e-005 -7.56551151902033e-005
   outer loop
      vertex 629.050553438656 -614.241702678595 -83.5792454874206
      vertex 629.050710473022 -609.875403267458 -81.0932819635112
      vertex 629.05072832206 -609.683979703608 -81.1726112758311
   endloop
endfacet
facet normal -0.999999995263332 6.12342982669578e-005 -7.56551151902033e-005
   outer loop
      vertex 629.050553438656 -614.241702678595 -83.5792454874206
      vertex 629.05072832206 -609.683979703608 -81.1726112758311
      vertex 629.050743004484 -609.478546802404 -81.1996934433337
   endloop
endfacet
facet normal -0.608725774882461 0.793380661625856 -0.000238226501091165
   outer loop
      vertex 619.963314702813 -610.134892662813 -83.5807486340335
      vertex 619.922994695371 -610.167735021009 -89.9304372490395
      vertex 619.922705886323 -610.166050003735 -83.5807422128646
   endloop
endfacet
facet normal -0.608725774882461 0.793380661625856 -0.000238226501091165
   outer loop
      vertex 619.922994695371 -610.167735021009 -89.9304372490395
      vertex 619.963314702813 -610.134892662813 -83.5807486340335
      vertex 619.963603511862 -610.136577680087 -89.9304436702084
   endloop
endfacet
facet normal -0.499961080251379 0.866047836118617 -0.000252563129202447
   outer loop
      vertex 619.922705886323 -610.166050003735 -83.5807422128646
      vertex 619.731553750089 -610.247022377386 -89.9304249160554
      vertex 619.731264941041 -610.245337360112 -83.5807298798805
   endloop
endfacet
facet normal -0.499961080251379 0.866047836118617 -0.000252563129202447
   outer loop
      vertex 619.731553750089 -610.247022377386 -89.9304249160554
      vertex 619.922705886323 -610.166050003735 -83.5807422128646
      vertex 619.922994695371 -610.167735021009 -89.9304372490395
   endloop
endfacet
facet normal -0.258775636374109 0.96593741937103 -0.000268100747032603
   outer loop
      vertex 619.731264941041 -610.245337360112 -83.5807298798805
      vertex 619.526114918862 -610.274059521899 -89.9304270853781
      vertex 619.525826109814 -610.272374504625 -83.5807320492032
   endloop
endfacet
facet normal -0.258775636374109 0.96593741937103 -0.000268100747032603
   outer loop
      vertex 619.526114918862 -610.274059521899 -89.9304270853781
      vertex 619.731264941041 -610.245337360112 -83.5807298798805
      vertex 619.731553750089 -610.247022377386 -89.9304249160554
   endloop
endfacet
facet normal 4.49394747758715e-005 0.999999963780202 -0.000265367742009891
   outer loop
      vertex 619.525826109814 -610.272374504625 -83.5807320492032
      vertex 619.320678518535 -610.247003917829 -89.930443609172
      vertex 619.320389709487 -610.245318900555 -83.580748572997
   endloop
endfacet
facet normal 4.49394747758715e-005 0.999999963780202 -0.000265367742009891
   outer loop
      vertex 619.320678518535 -610.247003917829 -89.930443609172
      vertex 619.525826109814 -610.272374504625 -83.5807320492032
      vertex 619.526114918862 -610.274059521899 -89.9304270853781
   endloop
endfacet
facet normal 1.45915336936297e-005 0.866112504470509 0.499849106618098
   outer loop
      vertex 636.98821190076 -610.166371984161 -80.8020871089702
      vertex 629.050690673751 -610.039772294423 -80.9671116679106
      vertex 629.050670273535 -610.165885306945 -80.8026986861682
   endloop
endfacet
facet normal 1.45915336936297e-005 0.866112504470509 0.499849106618098
   outer loop
      vertex 629.050690673751 -610.039772294423 -80.9671116679106
      vertex 636.98821190076 -610.166371984161 -80.8020871089702
      vertex 636.988232300975 -610.040258971638 -80.9665000907126
   endloop
endfacet
facet normal 3.92982038096569e-005 0.965970904092041 0.25865075082678
   outer loop
      vertex 636.98819228984 -610.24563458885 -80.6106359140866
      vertex 629.050670273535 -610.165885306945 -80.8026986861682
      vertex 629.050650662616 -610.245147911634 -80.6112474912846
   endloop
endfacet
facet normal 3.92982038096569e-005 0.965970904092041 0.25865075082678
   outer loop
      vertex 629.050670273535 -610.165885306945 -80.8026986861682
      vertex 636.98819228984 -610.24563458885 -80.6106359140866
      vertex 636.98821190076 -610.166371984161 -80.8020871089702
   endloop
endfacet
facet normal -7.70380076726019e-005 0.000174230917178119 0.999999981854366
   outer loop
      vertex 636.988284631708 -609.47903347962 -81.1990818661357
      vertex 629.05072832206 -609.683979703608 -81.1726112758311
      vertex 636.988269949285 -609.684466380823 -81.1719996986332
   endloop
endfacet
facet normal -7.70380076726019e-005 0.000174230917178119 0.999999981854366
   outer loop
      vertex 629.05072832206 -609.683979703608 -81.1726112758311
      vertex 636.988284631708 -609.47903347962 -81.1990818661357
      vertex 629.050743004484 -609.478546802404 -81.1996934433337
   endloop
endfacet
facet normal 0.999999999052581 -1.42121809985576e-006 4.35065310204525e-005
   outer loop
      vertex 636.988104212202 -614.238166181407 -67.7039590697179
      vertex 636.988150751841 -610.16623368837 -80.00833712348
      vertex 636.987597583192 -604.713082629065 -67.7062496996651
   endloop
endfacet
facet normal 0.999999999052581 -1.42121809985576e-006 4.35065310204525e-005
   outer loop
      vertex 636.988150751841 -610.16623368837 -80.00833712348
      vertex 636.988104212202 -614.238166181407 -67.7039590697179
      vertex 636.988160636831 -610.245563001681 -80.1997606874971
   endloop
endfacet
facet normal 0.999999999052581 -1.42121809985576e-006 4.35065310204525e-005
   outer loop
      vertex 636.988160636831 -610.245563001681 -80.1997606874971
      vertex 636.988104212202 -614.238166181407 -67.7039590697179
      vertex 636.988453994585 -614.243347426881 -89.929292923193
   endloop
endfacet
facet normal 0.999999999052581 -1.42121809985576e-006 4.35065310204525e-005
   outer loop
      vertex 636.987597583192 -604.713082629065 -67.7062496996651
      vertex 636.988150751841 -610.16623368837 -80.00833712348
      vertex 636.988145823345 -610.040063391856 -79.8439680960988
   endloop
endfacet
facet normal 0.999999999052581 -1.42121809985576e-006 4.35065310204525e-005
   outer loop
      vertex 636.987597583192 -604.713082629065 -67.7062496996651
      vertex 636.988145823345 -610.040063391856 -79.8439680960988
      vertex 636.988146187212 -609.875650409339 -79.717855082937
   endloop
endfacet
facet normal 0.999999999052581 -1.42121809985576e-006 4.35065310204525e-005
   outer loop
      vertex 636.987597583192 -604.713082629065 -67.7062496996651
      vertex 636.988146187212 -609.875650409339 -79.717855082937
      vertex 636.988151818645 -609.684199213872 -79.6385924774299
   endloop
endfacet
facet normal 0.999999999052581 -1.42121809985576e-006 4.35065310204525e-005
   outer loop
      vertex 636.987597583192 -604.713082629065 -67.7062496996651
      vertex 636.988151818645 -609.684199213872 -79.6385924774299
      vertex 636.988162333871 -609.478756888039 -79.6115818951552
   endloop
endfacet
facet normal 0.999999999052581 -1.42121809985576e-006 4.35065310204525e-005
   outer loop
      vertex 636.988160636831 -610.245563001681 -80.1997606874971
      vertex 636.988453994585 -614.243347426881 -89.929292923193
      vertex 636.988174804669 -610.272645170183 -80.4051935886048
   endloop
endfacet
facet normal 0.999999999052581 -1.42121809985576e-006 4.35065310204525e-005
   outer loop
      vertex 636.988174804669 -610.272645170183 -80.4051935886048
      vertex 636.988453994585 -614.243347426881 -89.929292923193
      vertex 636.98819228984 -610.24563458885 -80.6106359140866
   endloop
endfacet
facet normal 0.999999999052581 -1.42121809985576e-006 4.35065310204525e-005
   outer loop
      vertex 636.98819228984 -610.24563458885 -80.6106359140866
      vertex 636.988453994585 -614.243347426881 -89.929292923193
      vertex 636.98821190076 -610.166371984161 -80.8020871089702
   endloop
endfacet
facet normal 0.999999999052581 -1.42121809985576e-006 4.35065310204525e-005
   outer loop
      vertex 636.98821190076 -610.166371984161 -80.8020871089702
      vertex 636.988453994585 -614.243347426881 -89.929292923193
      vertex 636.988232300975 -610.040258971638 -80.9665000907126
   endloop
endfacet
facet normal 0.999999999052581 -1.42121809985576e-006 4.35065310204525e-005
   outer loop
      vertex 636.988232300975 -610.040258971638 -80.9665000907126
      vertex 636.988453994585 -614.243347426881 -89.929292923193
      vertex 636.988252100246 -609.875889944674 -81.0926703863133
   endloop
endfacet
facet normal 0.999999999052581 -1.42121809985576e-006 4.35065310204525e-005
   outer loop
      vertex 636.988252100246 -609.875889944674 -81.0926703863133
      vertex 636.988453994585 -614.243347426881 -89.929292923193
      vertex 636.988269949285 -609.684466380823 -81.1719996986332
   endloop
endfacet
facet normal 0.999999999052581 -1.42121809985576e-006 4.35065310204525e-005
   outer loop
      vertex 636.988269949285 -609.684466380823 -81.1719996986332
      vertex 636.988453994585 -614.243347426881 -89.929292923193
      vertex 636.988284631708 -609.47903347962 -81.1990818661357
   endloop
endfacet
facet normal 0.999999999052581 -1.42121809985576e-006 4.35065310204525e-005
   outer loop
      vertex 636.987597583192 -604.713082629065 -67.7062496996651
      vertex 636.988254675739 -608.712155778809 -80.2000278472042
      vertex 636.989027361539 -604.718441377981 -89.9311341080935
   endloop
endfacet
facet normal 0.999999999052581 -1.42121809985576e-006 4.35065310204525e-005
   outer loop
      vertex 636.988254675739 -608.712155778809 -80.2000278472042
      vertex 636.987597583192 -604.713082629065 -67.7062496996651
      vertex 636.988235064819 -608.791418383498 -80.0085766523206
   endloop
endfacet
facet normal 0.999999999052581 -1.42121809985576e-006 4.35065310204525e-005
   outer loop
      vertex 636.988235064819 -608.791418383498 -80.0085766523206
      vertex 636.987597583192 -604.713082629065 -67.7062496996651
      vertex 636.988214664604 -608.917531396021 -79.8441636705782
   endloop
endfacet
facet normal 0.999999999052581 -1.42121809985576e-006 4.35065310204525e-005
   outer loop
      vertex 636.988214664604 -608.917531396021 -79.8441636705782
      vertex 636.987597583192 -604.713082629065 -67.7062496996651
      vertex 636.988194865333 -609.081900422985 -79.7179933749776
   endloop
endfacet
facet normal 0.999999999052581 -1.42121809985576e-006 4.35065310204525e-005
   outer loop
      vertex 636.988194865333 -609.081900422985 -79.7179933749776
      vertex 636.987597583192 -604.713082629065 -67.7062496996651
      vertex 636.988177016295 -609.273323986836 -79.6386640626577
   endloop
endfacet
facet normal 0.999999999052581 -1.42121809985576e-006 4.35065310204525e-005
   outer loop
      vertex 636.988177016295 -609.273323986836 -79.6386640626577
      vertex 636.987597583192 -604.713082629065 -67.7062496996651
      vertex 636.988162333871 -609.478756888039 -79.6115818951552
   endloop
endfacet
facet normal 0.999999999052581 -1.42121809985576e-006 4.35065310204525e-005
   outer loop
      vertex 636.989027361539 -604.718441377981 -89.9311341080935
      vertex 636.988254675739 -608.712155778809 -80.2000278472042
      vertex 636.98827216091 -608.685145197476 -80.405470172686
   endloop
endfacet
facet normal 0.999999999052581 -1.42121809985576e-006 4.35065310204525e-005
   outer loop
      vertex 636.989027361539 -604.718441377981 -89.9311341080935
      vertex 636.98827216091 -608.685145197476 -80.405470172686
      vertex 636.988286328748 -608.712227365978 -80.6109030737937
   endloop
endfacet
facet normal 0.999999999052581 -1.42121809985576e-006 4.35065310204525e-005
   outer loop
      vertex 636.989027361539 -604.718441377981 -89.9311341080935
      vertex 636.988286328748 -608.712227365978 -80.6109030737937
      vertex 636.988296213738 -608.791556679289 -80.8023266378109
   endloop
endfacet
facet normal 0.999999999052581 -1.42121809985576e-006 4.35065310204525e-005
   outer loop
      vertex 636.989027361539 -604.718441377981 -89.9311341080935
      vertex 636.988296213738 -608.791556679289 -80.8023266378109
      vertex 636.988301142234 -608.917726975803 -80.966695665192
   endloop
endfacet
facet normal 0.999999999052581 -1.42121809985576e-006 4.35065310204525e-005
   outer loop
      vertex 636.989027361539 -604.718441377981 -89.9311341080935
      vertex 636.988301142234 -608.917726975803 -80.966695665192
      vertex 636.988300778367 -609.082139958321 -81.0928086783539
   endloop
endfacet
facet normal 0.999999999052581 -1.42121809985576e-006 4.35065310204525e-005
   outer loop
      vertex 636.989027361539 -604.718441377981 -89.9311341080935
      vertex 636.988300778367 -609.082139958321 -81.0928086783539
      vertex 636.988295146934 -609.273591153787 -81.1720712838609
   endloop
endfacet
facet normal 0.999999999052581 -1.42121809985576e-006 4.35065310204525e-005
   outer loop
      vertex 636.989027361539 -604.718441377981 -89.9311341080935
      vertex 636.988295146934 -609.273591153787 -81.1720712838609
      vertex 636.988284631708 -609.47903347962 -81.1990818661357
   endloop
endfacet
facet normal 0.999999999052581 -1.42121809985576e-006 4.35065310204525e-005
   outer loop
      vertex 636.989027361539 -604.718441377981 -89.9311341080935
      vertex 636.988284631708 -609.47903347962 -81.1990818661357
      vertex 636.988453994585 -614.243347426881 -89.929292923193
   endloop
endfacet
facet normal -4.49394747758715e-005 -0.999999963780202 0.000265367742009891
   outer loop
      vertex 619.526186260278 -608.686559585991 -89.9308483566669
      vertex 619.731333851557 -608.711930172787 -83.5811367966981
      vertex 619.52589745123 -608.684874568717 -83.5811533204919
   endloop
endfacet
facet normal -4.49394747758715e-005 -0.999999963780202 0.000265367742009891
   outer loop
      vertex 619.731333851557 -608.711930172787 -83.5811367966981
      vertex 619.526186260278 -608.686559585991 -89.9308483566669
      vertex 619.731622660605 -608.713615190061 -89.930831832873
   endloop
endfacet
facet normal 5.85404661291654e-005 -0.258987334830165 -0.965880715704885
   outer loop
      vertex 629.05063538907 -609.27283730962 -79.6392756398556
      vertex 636.988194865333 -609.081900422985 -79.7179933749776
      vertex 636.988177016295 -609.273323986836 -79.6386640626577
   endloop
endfacet
facet normal 5.85404661291654e-005 -0.258987334830165 -0.965880715704885
   outer loop
      vertex 636.988194865333 -609.081900422985 -79.7179933749776
      vertex 629.05063538907 -609.27283730962 -79.6392756398556
      vertex 629.050653238109 -609.081413745769 -79.7186049521756
   endloop
endfacet
facet normal -8.04687136458121e-005 0.000270047465127667 0.999999960299576
   outer loop
      vertex 635.400128175978 -606.301333605991 -70.8808877026724
      vertex 629.049731148269 -612.650975146592 -70.8796840063021
      vertex 635.399702689869 -612.651333360206 -70.8791729355054
   endloop
endfacet
facet normal -8.04687136458121e-005 0.000270047465127667 0.999999960299576
   outer loop
      vertex 629.049731148269 -612.650975146592 -70.8796840063021
      vertex 635.400128175978 -606.301333605991 -70.8808877026724
      vertex 629.050156634377 -606.300975392377 -70.8813987734689
   endloop
endfacet
facet normal 7.70380076726019e-005 -0.000174230917178119 -0.999999981854366
   outer loop
      vertex 629.050620706647 -609.478270210823 -79.6121934723531
      vertex 636.988177016295 -609.273323986836 -79.6386640626577
      vertex 636.988162333871 -609.478756888039 -79.6115818951552
   endloop
endfacet
facet normal 7.70380076726019e-005 -0.000174230917178119 -0.999999981854366
   outer loop
      vertex 636.988177016295 -609.273323986836 -79.6386640626577
      vertex 629.050620706647 -609.478270210823 -79.6121934723531
      vertex 629.05063538907 -609.27283730962 -79.6392756398556
   endloop
endfacet
facet normal 9.02855363044788e-005 0.258650746544816 -0.965970901818648
   outer loop
      vertex 629.050610191421 -609.683712536656 -79.6392040546279
      vertex 636.988162333871 -609.478756888039 -79.6115818951552
      vertex 636.988151818645 -609.684199213872 -79.6385924774299
   endloop
endfacet
facet normal 9.02855363044788e-005 0.258650746544816 -0.965970901818648
   outer loop
      vertex 636.988162333871 -609.478756888039 -79.6115818951552
      vertex 629.050610191421 -609.683712536656 -79.6392040546279
      vertex 629.050620706647 -609.478270210823 -79.6121934723531
   endloop
endfacet
facet normal 9.73802548411219e-005 0.499849103070678 -0.866112501166289
   outer loop
      vertex 629.050604559988 -609.875163732123 -79.718466660135
      vertex 636.988151818645 -609.684199213872 -79.6385924774299
      vertex 636.988146187212 -609.875650409339 -79.717855082937
   endloop
endfacet
facet normal 9.73802548411219e-005 0.499849103070678 -0.866112501166289
   outer loop
      vertex 636.988151818645 -609.684199213872 -79.6385924774299
      vertex 629.050604559988 -609.875163732123 -79.718466660135
      vertex 629.050610191421 -609.683712536656 -79.6392040546279
   endloop
endfacet
facet normal 9.7838669938815e-005 0.706983569261813 -0.70722996487806
   outer loop
      vertex 629.050604196121 -610.03957671464 -79.8445796732968
      vertex 636.988146187212 -609.875650409339 -79.717855082937
      vertex 636.988145823345 -610.040063391856 -79.8439680960988
   endloop
endfacet
facet normal 9.7838669938815e-005 0.706983569261813 -0.70722996487806
   outer loop
      vertex 636.988146187212 -609.875650409339 -79.717855082937
      vertex 629.050604196121 -610.03957671464 -79.8445796732968
      vertex 629.050604559988 -609.875163732123 -79.718466660135
   endloop
endfacet
facet normal 9.7838669938815e-005 0.706983569261816 -0.707229964878057
   outer loop
      vertex 636.988145823345 -610.040063391856 -79.8439680960988
      vertex 629.050609124617 -610.165747011154 -80.0089487006779
      vertex 629.050604196121 -610.03957671464 -79.8445796732968
   endloop
endfacet
facet normal 9.7838669938815e-005 0.706983569261816 -0.707229964878057
   outer loop
      vertex 629.050609124617 -610.165747011154 -80.0089487006779
      vertex 636.988145823345 -610.040063391856 -79.8439680960988
      vertex 636.988150751841 -610.16623368837 -80.00833712348
   endloop
endfacet
facet normal 0.258862452772703 0.965914163235854 -0.00024455036391014
   outer loop
      vertex 619.320389709487 -610.245318900555 -83.580748572997
      vertex 619.12924470029 -610.167699359883 -89.9304733613676
      vertex 619.128955891242 -610.166014342609 -83.5807783251926
   endloop
endfacet
facet normal 0.258862452772703 0.965914163235854 -0.00024455036391014
   outer loop
      vertex 619.12924470029 -610.167699359883 -89.9304733613676
      vertex 619.320389709487 -610.245318900555 -83.580748572997
      vertex 619.320678518535 -610.247003917829 -89.930443609172
   endloop
endfacet
facet normal -0.258862452772703 -0.965914163235854 0.00024455036391014
   outer loop
      vertex 619.731622660605 -608.713615190061 -89.930831832873
      vertex 619.922767669801 -608.791234730733 -83.5811070445025
      vertex 619.731333851557 -608.711930172787 -83.5811367966981
   endloop
endfacet
facet normal -0.258862452772703 -0.965914163235854 0.00024455036391014
   outer loop
      vertex 619.922767669801 -608.791234730733 -83.5811070445025
      vertex 619.731622660605 -608.713615190061 -89.930831832873
      vertex 619.92305647885 -608.792919748007 -89.9308020806774
   endloop
endfacet
facet normal 0.500038917704729 0.866002908715568 -0.000207067282648481
   outer loop
      vertex 619.128955891242 -610.166014342609 -83.5807783251926
      vertex 618.964859362482 -610.041550322628 -89.930514314402
      vertex 618.964570553434 -610.039865305354 -83.5808192782271
   endloop
endfacet
facet normal 0.500038917704729 0.866002908715568 -0.000207067282648481
   outer loop
      vertex 618.964859362482 -610.041550322628 -89.930514314402
      vertex 619.128955891242 -610.166014342609 -83.5807783251926
      vertex 619.12924470029 -610.167699359883 -89.9304733613676
   endloop
endfacet
facet normal 0.707138556748444 0.707074987103845 -0.000155472908269212
   outer loop
      vertex 618.964859362482 -610.041550322628 -89.930514314402
      vertex 618.838436285174 -609.875468637207 -83.5808686412189
      vertex 618.964570553434 -610.039865305354 -83.5808192782271
   endloop
endfacet
facet normal 0.707138556748444 0.707074987103845 -0.000155472908269212
   outer loop
      vertex 618.838436285174 -609.875468637207 -83.5808686412189
      vertex 618.964859362482 -610.041550322628 -89.930514314402
      vertex 618.838725094222 -609.877153654481 -89.9305636773938
   endloop
endfacet
facet normal 0.866047871751465 0.499961073617718 -9.32833121225413e-005
   outer loop
      vertex 618.838725094222 -609.877153654481 -89.9305636773938
      vertex 618.759148928398 -609.684027699424 -83.5809230501615
      vertex 618.838436285174 -609.875468637207 -83.5808686412189
   endloop
endfacet
facet normal 0.866047871751465 0.499961073617718 -9.32833121225413e-005
   outer loop
      vertex 618.759148928398 -609.684027699424 -83.5809230501615
      vertex 618.838725094222 -609.877153654481 -89.9305636773938
      vertex 618.759437737446 -609.685712716698 -89.9306180863365
   endloop
endfacet
facet normal 3.60534885617028e-005 -0.500150879871495 -0.865938274973404
   outer loop
      vertex 629.050653238109 -609.081413745769 -79.7186049521756
      vertex 636.988214664604 -608.917531396021 -79.8441636705782
      vertex 636.988194865333 -609.081900422985 -79.7179933749776
   endloop
endfacet
facet normal 3.60534885617028e-005 -0.500150879871495 -0.865938274973404
   outer loop
      vertex 636.988214664604 -608.917531396021 -79.8441636705782
      vertex 629.050653238109 -609.081413745769 -79.7186049521756
      vertex 629.050673037379 -608.917044718805 -79.8447752477762
   endloop
endfacet
facet normal 0.258775636374109 -0.96593741937103 0.000268100747032603
   outer loop
      vertex 619.320747429051 -608.713596730504 -89.9308505259896
      vertex 619.52589745123 -608.684874568717 -83.5811533204919
      vertex 619.320458620003 -608.711911713229 -83.5811554898146
   endloop
endfacet
facet normal 0.258775636374109 -0.96593741937103 0.000268100747032603
   outer loop
      vertex 619.52589745123 -608.684874568717 -83.5811533204919
      vertex 619.320747429051 -608.713596730504 -89.9308505259896
      vertex 619.526186260278 -608.686559585991 -89.9308483566669
   endloop
endfacet
facet normal -1.45915336936297e-005 -0.866112504470509 -0.499849106618098
   outer loop
      vertex 629.050693437595 -608.790931706283 -80.0091882295186
      vertex 636.988214664604 -608.917531396021 -79.8441636705782
      vertex 629.050673037379 -608.917044718805 -79.8447752477762
   endloop
endfacet
facet normal -1.45915336936297e-005 -0.866112504470509 -0.499849106618098
   outer loop
      vertex 636.988214664604 -608.917531396021 -79.8441636705782
      vertex 629.050693437595 -608.790931706283 -80.0091882295186
      vertex 636.988235064819 -608.791418383498 -80.0085766523206
   endloop
endfacet
facet normal -7.9176010974506e-005 -0.965880715532815 0.258987329985421
   outer loop
      vertex 629.050744701524 -608.711740688763 -80.6115146509917
      vertex 636.98827216091 -608.685145197476 -80.405470172686
      vertex 629.050730533686 -608.68465852026 -80.406081749884
   endloop
endfacet
facet normal -7.9176010974506e-005 -0.965880715532815 0.258987329985421
   outer loop
      vertex 636.98827216091 -608.685145197476 -80.405470172686
      vertex 629.050744701524 -608.711740688763 -80.6115146509917
      vertex 636.988286328748 -608.712227365978 -80.6109030737937
   endloop
endfacet
facet normal 0.965937455506527 0.258775639189001 -2.47366124126009e-005
   outer loop
      vertex 618.759437737446 -609.685712716698 -89.9306180863365
      vertex 618.732111785441 -609.478588875545 -83.5809787971756
      vertex 618.759148928398 -609.684027699424 -83.5809230501615
   endloop
endfacet
facet normal 0.965937455506527 0.258775639189001 -2.47366124126009e-005
   outer loop
      vertex 618.732111785441 -609.478588875545 -83.5809787971756
      vertex 618.759437737446 -609.685712716698 -89.9306180863365
      vertex 618.732400594489 -609.480273892819 -89.9306738333505
   endloop
endfacet
facet normal -9.16295413662273e-005 -0.865938273553282 0.500150875236252
   outer loop
      vertex 629.050754586514 -608.791070002073 -80.8029382150089
      vertex 636.988286328748 -608.712227365978 -80.6109030737937
      vertex 629.050744701524 -608.711740688763 -80.6115146509917
   endloop
endfacet
facet normal -9.16295413662273e-005 -0.865938273553282 0.500150875236252
   outer loop
      vertex 636.988286328748 -608.712227365978 -80.6109030737937
      vertex 629.050754586514 -608.791070002073 -80.8029382150089
      vertex 636.988296213738 -608.791556679289 -80.8023266378109
   endloop
endfacet
facet normal 0.999999997955828 -4.49274031576904e-005 4.54958465539821e-005
   outer loop
      vertex 618.732400594489 -609.480273892819 -89.9306738333505
      vertex 618.759167392915 -609.273152481912 -83.5810320831943
      vertex 618.732111785441 -609.478588875545 -83.5809787971756
   endloop
endfacet
facet normal 0.999999997955828 -4.49274031576904e-005 4.54958465539821e-005
   outer loop
      vertex 618.759167392915 -609.273152481912 -83.5810320831943
      vertex 618.732400594489 -609.480273892819 -89.9306738333505
      vertex 618.759456201963 -609.274837499186 -89.9307271193692
   endloop
endfacet
facet normal -9.7838669938815e-005 -0.706983569261813 0.70722996487806
   outer loop
      vertex 636.988301142234 -608.917726975803 -80.966695665192
      vertex 629.050759151142 -609.081653281105 -81.0934202555518
      vertex 636.988300778367 -609.082139958321 -81.0928086783539
   endloop
endfacet
facet normal -9.7838669938815e-005 -0.706983569261813 0.70722996487806
   outer loop
      vertex 629.050759151142 -609.081653281105 -81.0934202555518
      vertex 636.988301142234 -608.917726975803 -80.966695665192
      vertex 629.050759515009 -608.917240298588 -80.96730724239
   endloop
endfacet
facet normal -9.7838669938815e-005 -0.706983569261816 0.707229964878057
   outer loop
      vertex 629.050759515009 -608.917240298588 -80.96730724239
      vertex 636.988296213738 -608.791556679289 -80.8023266378109
      vertex 629.050754586514 -608.791070002073 -80.8029382150089
   endloop
endfacet
facet normal -9.7838669938815e-005 -0.706983569261816 0.707229964878057
   outer loop
      vertex 636.988296213738 -608.791556679289 -80.8023266378109
      vertex 629.050759515009 -608.917240298588 -80.96730724239
      vertex 636.988301142234 -608.917726975803 -80.966695665192
   endloop
endfacet
facet normal 0.965914193122631 -0.258862432267075 0.000112627838763365
   outer loop
      vertex 618.759456201963 -609.274837499186 -89.9307271193692
      vertex 618.838471955882 -609.081718669253 -83.5810792768632
      vertex 618.759167392915 -609.273152481912 -83.5810320831943
   endloop
endfacet
facet normal 0.965914193122631 -0.258862432267075 0.000112627838763365
   outer loop
      vertex 618.838471955882 -609.081718669253 -83.5810792768632
      vertex 618.759456201963 -609.274837499186 -89.9307271193692
      vertex 618.83876076493 -609.083403686527 -89.9307743130382
   endloop
endfacet
facet normal 0.866002932276681 -0.500038890162694 0.000172084429887405
   outer loop
      vertex 618.83876076493 -609.083403686527 -89.9307743130382
      vertex 618.964620999433 -608.91733333554 -83.5811171620121
      vertex 618.838471955882 -609.081718669253 -83.5810792768632
   endloop
endfacet
facet normal 0.866002932276681 -0.500038890162694 0.000172084429887405
   outer loop
      vertex 618.964620999433 -608.91733333554 -83.5811171620121
      vertex 618.83876076493 -609.083403686527 -89.9307743130382
      vertex 618.964909808481 -608.919018352814 -89.9308121981871
   endloop
endfacet
facet normal -9.02855363044788e-005 -0.258650746544816 0.965970901818648
   outer loop
      vertex 636.988295146934 -609.273591153787 -81.1720712838609
      vertex 629.050743004484 -609.478546802404 -81.1996934433337
      vertex 636.988284631708 -609.47903347962 -81.1990818661357
   endloop
endfacet
facet normal -9.02855363044788e-005 -0.258650746544816 0.965970901818648
   outer loop
      vertex 629.050743004484 -609.478546802404 -81.1996934433337
      vertex 636.988295146934 -609.273591153787 -81.1720712838609
      vertex 629.05075351971 -609.273104476571 -81.1726828610589
   endloop
endfacet
facet normal -3.60534885617028e-005 0.500150879871495 0.865938274973404
   outer loop
      vertex 636.988252100246 -609.875889944674 -81.0926703863133
      vertex 629.050690673751 -610.039772294423 -80.9671116679106
      vertex 636.988232300975 -610.040258971638 -80.9665000907126
   endloop
endfacet
facet normal -3.60534885617028e-005 0.500150879871495 0.865938274973404
   outer loop
      vertex 629.050690673751 -610.039772294423 -80.9671116679106
      vertex 636.988252100246 -609.875889944674 -81.0926703863133
      vertex 629.050710473022 -609.875403267458 -81.0932819635112
   endloop
endfacet
facet normal -5.85404661291654e-005 0.258987334830165 0.965880715704885
   outer loop
      vertex 636.988269949285 -609.684466380823 -81.1719996986332
      vertex 629.050710473022 -609.875403267458 -81.0932819635112
      vertex 636.988252100246 -609.875889944674 -81.0926703863133
   endloop
endfacet
facet normal -5.85404661291654e-005 0.258987334830165 0.965880715704885
   outer loop
      vertex 629.050710473022 -609.875403267458 -81.0932819635112
      vertex 636.988269949285 -609.684466380823 -81.1719996986332
      vertex 629.05072832206 -609.683979703608 -81.1726112758311
   endloop
endfacet
facet normal 0.707075002733782 -0.707138524046694 0.000219813751497495
   outer loop
      vertex 618.964909808481 -608.919018352814 -89.9308121981871
      vertex 619.08840885823 -608.822356410529 -83.5811367356616
      vertex 618.964620999433 -608.91733333554 -83.5811171620121
   endloop
endfacet
facet normal 0.707075002733782 -0.707138524046694 0.000219813751497495
   outer loop
      vertex 619.08840885823 -608.822356410529 -83.5811367356616
      vertex 618.964909808481 -608.919018352814 -89.9308121981871
      vertex 619.088697667279 -608.824041427803 -89.9308317718366
   endloop
endfacet
facet normal 0.608725774881907 -0.793380661626282 0.000238226501091253
   outer loop
      vertex 619.088697667279 -608.824041427803 -89.9308317718366
      vertex 619.129017674721 -608.791199069607 -83.5811431568305
      vertex 619.08840885823 -608.822356410529 -83.5811367356616
   endloop
endfacet
facet normal 0.608725774881907 -0.793380661626282 0.000238226501091253
   outer loop
      vertex 619.129017674721 -608.791199069607 -83.5811431568305
      vertex 619.088697667279 -608.824041427803 -89.9308317718366
      vertex 619.129306483769 -608.792884086881 -89.9308381930054
   endloop
endfacet
endsolid Milk Strap B_1_a_5-24-13
