solid NEW_X-Z_motor
facet normal 0.0 0.0 -1.0
   outer loop
      vertex 152.028364999038 397.876631718755 0.0
      vertex 145.678364999038 369.301631718755 0.0
      vertex 145.678364999038 397.876631718755 0.0
   endloop
endfacet
facet normal 0.0 0.0 -1.0
   outer loop
      vertex 145.678364999038 369.301631718755 0.0
      vertex 152.028364999038 397.876631718755 0.0
      vertex 152.028364999038 369.301631718755 0.0
   endloop
endfacet
facet normal -0.0 1.0 0.0
   outer loop
      vertex 145.678364999038 397.876631718755 6.35
      vertex 152.028364999038 397.876631718755 0.0
      vertex 145.678364999038 397.876631718755 0.0
   endloop
endfacet
facet normal -0.0 1.0 0.0
   outer loop
      vertex 152.028364999038 397.876631718755 0.0
      vertex 145.678364999038 397.876631718755 6.35
      vertex 152.028364999038 397.876631718755 6.35
   endloop
endfacet
facet normal -0.0 -0.0 1.0
   outer loop
      vertex 152.028364999038 369.301631718755 6.35
      vertex 145.678364999038 397.876631718755 6.35
      vertex 145.678364999038 369.301631718755 6.35
   endloop
endfacet
facet normal -0.0 -0.0 1.0
   outer loop
      vertex 145.678364999038 397.876631718755 6.35
      vertex 152.028364999038 369.301631718755 6.35
      vertex 152.028364999038 397.876631718755 6.35
   endloop
endfacet
facet normal 1.0 0.0 0.0
   outer loop
      vertex 152.028364999038 397.876631718755 0.0
      vertex 152.028364999038 369.301631718755 6.35
      vertex 152.028364999038 369.301631718755 0.0
   endloop
endfacet
facet normal 1.0 0.0 0.0
   outer loop
      vertex 152.028364999038 369.301631718755 6.35
      vertex 152.028364999038 397.876631718755 0.0
      vertex 152.028364999038 397.876631718755 6.35
   endloop
endfacet
facet normal -0.0 -1.0 -0.0
   outer loop
      vertex 152.028364999038 369.301631718755 6.35
      vertex 145.678364999038 369.301631718755 0.0
      vertex 152.028364999038 369.301631718755 0.0
   endloop
endfacet
facet normal -0.0 -1.0 -0.0
   outer loop
      vertex 145.678364999038 369.301631718755 0.0
      vertex 152.028364999038 369.301631718755 6.35
      vertex 145.678364999038 369.301631718755 6.35
   endloop
endfacet
facet normal -1.0 0.0 0.0
   outer loop
      vertex 145.678364999038 397.876631718755 6.35
      vertex 145.678364999038 369.301631718755 0.0
      vertex 145.678364999038 369.301631718755 6.35
   endloop
endfacet
facet normal -1.0 0.0 0.0
   outer loop
      vertex 145.678364999038 369.301631718755 0.0
      vertex 145.678364999038 397.876631718755 6.35
      vertex 145.678364999038 397.876631718755 0.0
   endloop
endfacet
endsolid NEW_X-Z_motor
