solid Z_Carriages_6_11_13
facet normal 1.0 0.0 0.0
   outer loop
      vertex 466.295002618407 -707.926461747799 -119.454143824662
      vertex 466.295002618407 -709.658940212148 -122.629143824662
      vertex 466.295002618407 -707.926461747799 -122.629143824662
   endloop
endfacet
facet normal 1.0 0.0 0.0
   outer loop
      vertex 466.295002618407 -709.658940212148 -122.629143824662
      vertex 466.295002618407 -707.926461747799 -119.454143824662
      vertex 466.295002618407 -709.658940212148 -119.454143824662
   endloop
endfacet
facet normal 0.968235877430154 -0.250038568339087 -8.32795726843095e-017
   outer loop
      vertex 466.470992442797 -707.244968235942 -119.454143824662
      vertex 466.295002618407 -707.926461747799 -122.629143824662
      vertex 466.470992442797 -707.244968235942 -122.629143824662
   endloop
endfacet
facet normal 0.968235877430154 -0.250038568339087 -8.32795726843095e-017
   outer loop
      vertex 466.295002618407 -707.926461747799 -122.629143824662
      vertex 466.470992442797 -707.244968235942 -119.454143824662
      vertex 466.295002618407 -707.926461747799 -119.454143824662
   endloop
endfacet
facet normal -2.97274409879638e-015 1.0 3.33066907387547e-016
   outer loop
      vertex 466.470992442797 -707.244968235942 -119.454143824662
      vertex 428.526704083907 -707.244968235942 -122.629143824662
      vertex 428.526704083907 -707.244968235942 -119.454143824662
   endloop
endfacet
facet normal -2.97274409879638e-015 1.0 3.33066907387547e-016
   outer loop
      vertex 428.526704083907 -707.244968235942 -122.629143824662
      vertex 466.470992442797 -707.244968235942 -119.454143824662
      vertex 466.470992442797 -707.244968235942 -122.629143824662
   endloop
endfacet
facet normal 0.0 -1.0 -3.33066907387547e-016
   outer loop
      vertex 469.442480500469 -716.574218571635 -122.629143824662
      vertex 425.555216026235 -716.574218571635 -119.454143824662
      vertex 425.555216026235 -716.574218571635 -122.629143824662
   endloop
endfacet
facet normal 0.0 -1.0 -3.33066907387547e-016
   outer loop
      vertex 425.555216026235 -716.574218571635 -119.454143824662
      vertex 469.442480500469 -716.574218571635 -122.629143824662
      vertex 469.442480500469 -716.574218571635 -119.454143824662
   endloop
endfacet
facet normal 0.0 3.33066907387547e-016 -1.0
   outer loop
      vertex 466.295002618407 -707.926461747799 -122.629143824662
      vertex 428.526704083907 -707.244968235942 -122.629143824662
      vertex 466.470992442797 -707.244968235942 -122.629143824662
   endloop
endfacet
facet normal 0.0 3.33066907387547e-016 -1.0
   outer loop
      vertex 428.526704083907 -707.244968235942 -122.629143824662
      vertex 466.295002618407 -707.926461747799 -122.629143824662
      vertex 428.702693908297 -707.926461747799 -122.629143824662
   endloop
endfacet
facet normal 0.0 3.33066907387547e-016 -1.0
   outer loop
      vertex 428.702693908297 -707.926461747799 -122.629143824662
      vertex 466.295002618407 -707.926461747799 -122.629143824662
      vertex 466.295002618407 -709.658940212148 -122.629143824662
   endloop
endfacet
facet normal 0.0 3.33066907387547e-016 -1.0
   outer loop
      vertex 428.702693908297 -707.926461747799 -122.629143824662
      vertex 466.295002618407 -709.658940212148 -122.629143824662
      vertex 428.702693908297 -709.658940212148 -122.629143824662
   endloop
endfacet
facet normal 0.0 3.33066907387547e-016 -1.0
   outer loop
      vertex 428.702693908297 -709.658940212148 -122.629143824662
      vertex 466.295002618407 -709.658940212148 -122.629143824662
      vertex 466.719453087794 -711.305569409352 -122.629143824662
   endloop
endfacet
facet normal 0.0 3.33066907387547e-016 -1.0
   outer loop
      vertex 428.702693908297 -709.658940212148 -122.629143824662
      vertex 466.719453087794 -711.305569409352 -122.629143824662
      vertex 428.27824343891 -711.305569409352 -122.629143824662
   endloop
endfacet
facet normal 0.0 3.33066907387547e-016 -1.0
   outer loop
      vertex 428.27824343891 -711.305569409352 -122.629143824662
      vertex 466.719453087794 -711.305569409352 -122.629143824662
      vertex 469.442480500469 -716.574218571635 -122.629143824662
   endloop
endfacet
facet normal 0.0 3.33066907387547e-016 -1.0
   outer loop
      vertex 428.27824343891 -711.305569409352 -122.629143824662
      vertex 469.442480500469 -716.574218571635 -122.629143824662
      vertex 425.555216026235 -716.574218571635 -122.629143824662
   endloop
endfacet
facet normal -0.968235877430113 -0.250038568339246 -8.32795726843625e-017
   outer loop
      vertex 428.702693908297 -707.926461747799 -119.454143824662
      vertex 428.526704083907 -707.244968235942 -122.629143824662
      vertex 428.702693908297 -707.926461747799 -122.629143824662
   endloop
endfacet
facet normal -0.968235877430113 -0.250038568339246 -8.32795726843625e-017
   outer loop
      vertex 428.526704083907 -707.244968235942 -122.629143824662
      vertex 428.702693908297 -707.926461747799 -119.454143824662
      vertex 428.526704083907 -707.244968235942 -119.454143824662
   endloop
endfacet
facet normal -1.0 0.0 0.0
   outer loop
      vertex 428.702693908297 -709.658940212148 -119.454143824662
      vertex 428.702693908297 -707.926461747799 -122.629143824662
      vertex 428.702693908297 -709.658940212148 -122.629143824662
   endloop
endfacet
facet normal -1.0 0.0 0.0
   outer loop
      vertex 428.702693908297 -707.926461747799 -122.629143824662
      vertex 428.702693908297 -709.658940212148 -119.454143824662
      vertex 428.702693908297 -707.926461747799 -119.454143824662
   endloop
endfacet
facet normal 0.888364562905628 0.459138762656228 1.52923927739655e-016
   outer loop
      vertex 466.719453087794 -711.305569409352 -119.454143824662
      vertex 469.442480500469 -716.574218571635 -122.629143824662
      vertex 466.719453087794 -711.305569409352 -122.629143824662
   endloop
endfacet
facet normal 0.888364562905628 0.459138762656228 1.52923927739655e-016
   outer loop
      vertex 469.442480500469 -716.574218571635 -122.629143824662
      vertex 466.719453087794 -711.305569409352 -119.454143824662
      vertex 469.442480500469 -716.574218571635 -119.454143824662
   endloop
endfacet
facet normal -0.968346451599957 0.249609995139963 8.31368291342882e-017
   outer loop
      vertex 428.27824343891 -711.305569409352 -119.454143824662
      vertex 428.702693908297 -709.658940212148 -122.629143824662
      vertex 428.27824343891 -711.305569409352 -122.629143824662
   endloop
endfacet
facet normal -0.968346451599957 0.249609995139963 8.31368291342882e-017
   outer loop
      vertex 428.702693908297 -709.658940212148 -122.629143824662
      vertex 428.27824343891 -711.305569409352 -119.454143824662
      vertex 428.702693908297 -709.658940212148 -119.454143824662
   endloop
endfacet
facet normal 0.968346451599957 0.249609995139963 8.31368291342882e-017
   outer loop
      vertex 466.295002618407 -709.658940212148 -119.454143824662
      vertex 466.719453087794 -711.305569409352 -122.629143824662
      vertex 466.295002618407 -709.658940212148 -122.629143824662
   endloop
endfacet
facet normal 0.968346451599957 0.249609995139963 8.31368291342882e-017
   outer loop
      vertex 466.719453087794 -711.305569409352 -122.629143824662
      vertex 466.295002618407 -709.658940212148 -119.454143824662
      vertex 466.719453087794 -711.305569409352 -119.454143824662
   endloop
endfacet
facet normal -0.888364562905628 0.459138762656228 1.52923927739655e-016
   outer loop
      vertex 425.555216026235 -716.574218571635 -119.454143824662
      vertex 428.27824343891 -711.305569409352 -122.629143824662
      vertex 425.555216026235 -716.574218571635 -122.629143824662
   endloop
endfacet
facet normal -0.888364562905628 0.459138762656228 1.52923927739655e-016
   outer loop
      vertex 428.27824343891 -711.305569409352 -122.629143824662
      vertex 425.555216026235 -716.574218571635 -119.454143824662
      vertex 428.27824343891 -711.305569409352 -119.454143824662
   endloop
endfacet
facet normal 0.0 -3.33066907387547e-016 1.0
   outer loop
      vertex 428.526704083907 -707.244968235942 -119.454143824662
      vertex 466.295002618407 -707.926461747799 -119.454143824662
      vertex 466.470992442797 -707.244968235942 -119.454143824662
   endloop
endfacet
facet normal 0.0 -3.33066907387547e-016 1.0
   outer loop
      vertex 466.295002618407 -707.926461747799 -119.454143824662
      vertex 428.526704083907 -707.244968235942 -119.454143824662
      vertex 428.702693908297 -707.926461747799 -119.454143824662
   endloop
endfacet
facet normal 0.0 -3.33066907387547e-016 1.0
   outer loop
      vertex 466.295002618407 -707.926461747799 -119.454143824662
      vertex 428.702693908297 -707.926461747799 -119.454143824662
      vertex 428.702693908297 -709.658940212148 -119.454143824662
   endloop
endfacet
facet normal 0.0 -3.33066907387547e-016 1.0
   outer loop
      vertex 466.295002618407 -707.926461747799 -119.454143824662
      vertex 428.702693908297 -709.658940212148 -119.454143824662
      vertex 466.295002618407 -709.658940212148 -119.454143824662
   endloop
endfacet
facet normal 0.0 -3.33066907387547e-016 1.0
   outer loop
      vertex 466.295002618407 -709.658940212148 -119.454143824662
      vertex 428.702693908297 -709.658940212148 -119.454143824662
      vertex 428.27824343891 -711.305569409352 -119.454143824662
   endloop
endfacet
facet normal 0.0 -3.33066907387547e-016 1.0
   outer loop
      vertex 466.295002618407 -709.658940212148 -119.454143824662
      vertex 428.27824343891 -711.305569409352 -119.454143824662
      vertex 466.719453087794 -711.305569409352 -119.454143824662
   endloop
endfacet
facet normal 0.0 -3.33066907387547e-016 1.0
   outer loop
      vertex 466.719453087794 -711.305569409352 -119.454143824662
      vertex 428.27824343891 -711.305569409352 -119.454143824662
      vertex 425.555216026235 -716.574218571635 -119.454143824662
   endloop
endfacet
facet normal 0.0 -3.33066907387547e-016 1.0
   outer loop
      vertex 466.719453087794 -711.305569409352 -119.454143824662
      vertex 425.555216026235 -716.574218571635 -119.454143824662
      vertex 469.442480500469 -716.574218571635 -119.454143824662
   endloop
endfacet
facet normal 1.0 0.0 0.0
   outer loop
      vertex 466.295002618407 -720.626461747799 -119.454143824662
      vertex 466.295002618407 -722.358940212148 -122.629143824662
      vertex 466.295002618407 -720.626461747799 -122.629143824662
   endloop
endfacet
facet normal 1.0 0.0 0.0
   outer loop
      vertex 466.295002618407 -722.358940212148 -122.629143824662
      vertex 466.295002618407 -720.626461747799 -119.454143824662
      vertex 466.295002618407 -722.358940212148 -119.454143824662
   endloop
endfacet
facet normal 0.968235877430154 -0.250038568339087 -8.32795726843095e-017
   outer loop
      vertex 466.470992442797 -719.944968235942 -119.454143824662
      vertex 466.295002618407 -720.626461747799 -122.629143824662
      vertex 466.470992442797 -719.944968235942 -122.629143824662
   endloop
endfacet
facet normal 0.968235877430154 -0.250038568339087 -8.32795726843095e-017
   outer loop
      vertex 466.295002618407 -720.626461747799 -122.629143824662
      vertex 466.470992442797 -719.944968235942 -119.454143824662
      vertex 466.295002618407 -720.626461747799 -119.454143824662
   endloop
endfacet
facet normal -2.97274409879638e-015 1.0 3.33066907387547e-016
   outer loop
      vertex 466.470992442797 -719.944968235942 -119.454143824662
      vertex 428.526704083907 -719.944968235942 -122.629143824662
      vertex 428.526704083907 -719.944968235942 -119.454143824662
   endloop
endfacet
facet normal -2.97274409879638e-015 1.0 3.33066907387547e-016
   outer loop
      vertex 428.526704083907 -719.944968235942 -122.629143824662
      vertex 466.470992442797 -719.944968235942 -119.454143824662
      vertex 466.470992442797 -719.944968235942 -122.629143824662
   endloop
endfacet
facet normal 0.0 -1.0 -3.33066907387547e-016
   outer loop
      vertex 469.442480500469 -729.274218571636 -122.629143824662
      vertex 425.555216026235 -729.274218571636 -119.454143824662
      vertex 425.555216026235 -729.274218571636 -122.629143824662
   endloop
endfacet
facet normal 0.0 -1.0 -3.33066907387547e-016
   outer loop
      vertex 425.555216026235 -729.274218571636 -119.454143824662
      vertex 469.442480500469 -729.274218571636 -122.629143824662
      vertex 469.442480500469 -729.274218571636 -119.454143824662
   endloop
endfacet
facet normal 0.0 3.33066907387547e-016 -1.0
   outer loop
      vertex 466.295002618407 -720.626461747799 -122.629143824662
      vertex 428.526704083907 -719.944968235942 -122.629143824662
      vertex 466.470992442797 -719.944968235942 -122.629143824662
   endloop
endfacet
facet normal 0.0 3.33066907387547e-016 -1.0
   outer loop
      vertex 428.526704083907 -719.944968235942 -122.629143824662
      vertex 466.295002618407 -720.626461747799 -122.629143824662
      vertex 428.702693908297 -720.626461747799 -122.629143824662
   endloop
endfacet
facet normal 0.0 3.33066907387547e-016 -1.0
   outer loop
      vertex 428.702693908297 -720.626461747799 -122.629143824662
      vertex 466.295002618407 -720.626461747799 -122.629143824662
      vertex 466.295002618407 -722.358940212148 -122.629143824662
   endloop
endfacet
facet normal 0.0 3.33066907387547e-016 -1.0
   outer loop
      vertex 428.702693908297 -720.626461747799 -122.629143824662
      vertex 466.295002618407 -722.358940212148 -122.629143824662
      vertex 428.702693908297 -722.358940212148 -122.629143824662
   endloop
endfacet
facet normal 0.0 3.33066907387547e-016 -1.0
   outer loop
      vertex 428.702693908297 -722.358940212148 -122.629143824662
      vertex 466.295002618407 -722.358940212148 -122.629143824662
      vertex 466.719453087794 -724.005569409352 -122.629143824662
   endloop
endfacet
facet normal 0.0 3.33066907387547e-016 -1.0
   outer loop
      vertex 428.702693908297 -722.358940212148 -122.629143824662
      vertex 466.719453087794 -724.005569409352 -122.629143824662
      vertex 428.27824343891 -724.005569409352 -122.629143824662
   endloop
endfacet
facet normal 0.0 3.33066907387547e-016 -1.0
   outer loop
      vertex 428.27824343891 -724.005569409352 -122.629143824662
      vertex 466.719453087794 -724.005569409352 -122.629143824662
      vertex 469.442480500469 -729.274218571636 -122.629143824662
   endloop
endfacet
facet normal 0.0 3.33066907387547e-016 -1.0
   outer loop
      vertex 428.27824343891 -724.005569409352 -122.629143824662
      vertex 469.442480500469 -729.274218571636 -122.629143824662
      vertex 425.555216026235 -729.274218571636 -122.629143824662
   endloop
endfacet
facet normal -0.968235877430113 -0.250038568339246 -8.32795726843625e-017
   outer loop
      vertex 428.702693908297 -720.626461747799 -119.454143824662
      vertex 428.526704083907 -719.944968235942 -122.629143824662
      vertex 428.702693908297 -720.626461747799 -122.629143824662
   endloop
endfacet
facet normal -0.968235877430113 -0.250038568339246 -8.32795726843625e-017
   outer loop
      vertex 428.526704083907 -719.944968235942 -122.629143824662
      vertex 428.702693908297 -720.626461747799 -119.454143824662
      vertex 428.526704083907 -719.944968235942 -119.454143824662
   endloop
endfacet
facet normal -1.0 0.0 0.0
   outer loop
      vertex 428.702693908297 -722.358940212148 -119.454143824662
      vertex 428.702693908297 -720.626461747799 -122.629143824662
      vertex 428.702693908297 -722.358940212148 -122.629143824662
   endloop
endfacet
facet normal -1.0 0.0 0.0
   outer loop
      vertex 428.702693908297 -720.626461747799 -122.629143824662
      vertex 428.702693908297 -722.358940212148 -119.454143824662
      vertex 428.702693908297 -720.626461747799 -119.454143824662
   endloop
endfacet
facet normal 0.888364562905628 0.459138762656228 1.52923927739655e-016
   outer loop
      vertex 466.719453087794 -724.005569409352 -119.454143824662
      vertex 469.442480500469 -729.274218571636 -122.629143824662
      vertex 466.719453087794 -724.005569409352 -122.629143824662
   endloop
endfacet
facet normal 0.888364562905628 0.459138762656228 1.52923927739655e-016
   outer loop
      vertex 469.442480500469 -729.274218571636 -122.629143824662
      vertex 466.719453087794 -724.005569409352 -119.454143824662
      vertex 469.442480500469 -729.274218571636 -119.454143824662
   endloop
endfacet
facet normal -0.968346451599957 0.249609995139963 8.31368291342882e-017
   outer loop
      vertex 428.27824343891 -724.005569409352 -119.454143824662
      vertex 428.702693908297 -722.358940212148 -122.629143824662
      vertex 428.27824343891 -724.005569409352 -122.629143824662
   endloop
endfacet
facet normal -0.968346451599957 0.249609995139963 8.31368291342882e-017
   outer loop
      vertex 428.702693908297 -722.358940212148 -122.629143824662
      vertex 428.27824343891 -724.005569409352 -119.454143824662
      vertex 428.702693908297 -722.358940212148 -119.454143824662
   endloop
endfacet
facet normal 0.968346451599957 0.249609995139963 8.31368291342882e-017
   outer loop
      vertex 466.295002618407 -722.358940212148 -119.454143824662
      vertex 466.719453087794 -724.005569409352 -122.629143824662
      vertex 466.295002618407 -722.358940212148 -122.629143824662
   endloop
endfacet
facet normal 0.968346451599957 0.249609995139963 8.31368291342882e-017
   outer loop
      vertex 466.719453087794 -724.005569409352 -122.629143824662
      vertex 466.295002618407 -722.358940212148 -119.454143824662
      vertex 466.719453087794 -724.005569409352 -119.454143824662
   endloop
endfacet
facet normal -0.888364562905628 0.459138762656228 1.52923927739655e-016
   outer loop
      vertex 425.555216026235 -729.274218571636 -119.454143824662
      vertex 428.27824343891 -724.005569409352 -122.629143824662
      vertex 425.555216026235 -729.274218571636 -122.629143824662
   endloop
endfacet
facet normal -0.888364562905628 0.459138762656228 1.52923927739655e-016
   outer loop
      vertex 428.27824343891 -724.005569409352 -122.629143824662
      vertex 425.555216026235 -729.274218571636 -119.454143824662
      vertex 428.27824343891 -724.005569409352 -119.454143824662
   endloop
endfacet
facet normal 0.0 -3.33066907387547e-016 1.0
   outer loop
      vertex 428.526704083907 -719.944968235942 -119.454143824662
      vertex 466.295002618407 -720.626461747799 -119.454143824662
      vertex 466.470992442797 -719.944968235942 -119.454143824662
   endloop
endfacet
facet normal 0.0 -3.33066907387547e-016 1.0
   outer loop
      vertex 466.295002618407 -720.626461747799 -119.454143824662
      vertex 428.526704083907 -719.944968235942 -119.454143824662
      vertex 428.702693908297 -720.626461747799 -119.454143824662
   endloop
endfacet
facet normal 0.0 -3.33066907387547e-016 1.0
   outer loop
      vertex 466.295002618407 -720.626461747799 -119.454143824662
      vertex 428.702693908297 -720.626461747799 -119.454143824662
      vertex 428.702693908297 -722.358940212148 -119.454143824662
   endloop
endfacet
facet normal 0.0 -3.33066907387547e-016 1.0
   outer loop
      vertex 466.295002618407 -720.626461747799 -119.454143824662
      vertex 428.702693908297 -722.358940212148 -119.454143824662
      vertex 466.295002618407 -722.358940212148 -119.454143824662
   endloop
endfacet
facet normal 0.0 -3.33066907387547e-016 1.0
   outer loop
      vertex 466.295002618407 -722.358940212148 -119.454143824662
      vertex 428.702693908297 -722.358940212148 -119.454143824662
      vertex 428.27824343891 -724.005569409352 -119.454143824662
   endloop
endfacet
facet normal 0.0 -3.33066907387547e-016 1.0
   outer loop
      vertex 466.295002618407 -722.358940212148 -119.454143824662
      vertex 428.27824343891 -724.005569409352 -119.454143824662
      vertex 466.719453087794 -724.005569409352 -119.454143824662
   endloop
endfacet
facet normal 0.0 -3.33066907387547e-016 1.0
   outer loop
      vertex 466.719453087794 -724.005569409352 -119.454143824662
      vertex 428.27824343891 -724.005569409352 -119.454143824662
      vertex 425.555216026235 -729.274218571636 -119.454143824662
   endloop
endfacet
facet normal 0.0 -3.33066907387547e-016 1.0
   outer loop
      vertex 466.719453087794 -724.005569409352 -119.454143824662
      vertex 425.555216026235 -729.274218571636 -119.454143824662
      vertex 469.442480500469 -729.274218571636 -119.454143824662
   endloop
endfacet
endsolid Z_Carriages_6_11_13
