solid NEW_X-Z_motor
facet normal -0.159116503194783 0.987259813023434 0.0
   outer loop
      vertex -189.995275042539 94.847089308365 69.7084812700483
      vertex -178.91543623077 96.6328251242405 50.6584812700484
      vertex -189.995275042539 94.847089308365 50.6584812700484
   endloop
endfacet
facet normal -0.159116503194783 0.987259813023434 0.0
   outer loop
      vertex -178.91543623077 96.6328251242405 50.6584812700484
      vertex -189.995275042539 94.847089308365 69.7084812700483
      vertex -178.91543623077 96.6328251242405 69.7084812700483
   endloop
endfacet
facet normal -1.0 -5.5217507100279e-016 2.35223804766219e-016
   outer loop
      vertex -221.168188287176 91.672089308365 57.7944588700484
      vertex -221.168188287176 81.4432304275186 50.6584812700484
      vertex -221.168188287176 81.4432304275186 57.7944588700484
   endloop
endfacet
facet normal -1.0 -5.5217507100279e-016 2.35223804766219e-016
   outer loop
      vertex -221.168188287176 81.4432304275186 50.6584812700484
      vertex -221.168188287176 91.672089308365 57.7944588700484
      vertex -221.168188287176 91.672089308365 50.6584812700484
   endloop
endfacet
facet normal 0.0 -1.0 0.0
   outer loop
      vertex -193.170275042539 81.4432304275186 57.7944588700484
      vertex -221.168188287176 81.4432304275186 50.6584812700484
      vertex -193.170275042539 81.4432304275186 50.6584812700484
   endloop
endfacet
facet normal 0.0 -1.0 0.0
   outer loop
      vertex -221.168188287176 81.4432304275186 50.6584812700484
      vertex -193.170275042539 81.4432304275186 57.7944588700484
      vertex -221.168188287176 81.4432304275186 57.7944588700484
   endloop
endfacet
facet normal 9.30311073340608e-019 -5.16806081763457e-017 -1.0
   outer loop
      vertex -221.168188287176 91.672089308365 50.6584812700484
      vertex -211.426525042539 88.2312334689997 50.6584812700484
      vertex -221.168188287176 81.4432304275186 50.6584812700484
   endloop
endfacet
facet normal 9.30311073340608e-019 -5.16806081763457e-017 -1.0
   outer loop
      vertex -211.426525042539 88.2312334689997 50.6584812700484
      vertex -221.168188287176 91.672089308365 50.6584812700484
      vertex -210.947931585164 88.4294733699073 50.6584812700484
   endloop
endfacet
facet normal 9.30311073340608e-019 -5.16806081763457e-017 -1.0
   outer loop
      vertex -210.947931585164 88.4294733699073 50.6584812700484
      vertex -221.168188287176 91.672089308365 50.6584812700484
      vertex -193.170275042539 91.672089308365 50.6584812700484
   endloop
endfacet
facet normal 9.30311073340608e-019 -5.16806081763457e-017 -1.0
   outer loop
      vertex -221.168188287176 81.4432304275186 50.6584812700484
      vertex -211.426525042539 88.2312334689997 50.6584812700484
      vertex -211.837502561456 87.915879327282 50.6584812700484
   endloop
endfacet
facet normal 9.30311073340608e-019 -5.16806081763457e-017 -1.0
   outer loop
      vertex -221.168188287176 81.4432304275186 50.6584812700484
      vertex -211.837502561456 87.915879327282 50.6584812700484
      vertex -212.152856703174 87.504901808365 50.6584812700484
   endloop
endfacet
facet normal 9.30311073340608e-019 -5.16806081763457e-017 -1.0
   outer loop
      vertex -221.168188287176 81.4432304275186 50.6584812700484
      vertex -212.152856703174 87.504901808365 50.6584812700484
      vertex -212.351096604081 87.0263083509903 50.6584812700484
   endloop
endfacet
facet normal 9.30311073340608e-019 -5.16806081763457e-017 -1.0
   outer loop
      vertex -221.168188287176 81.4432304275186 50.6584812700484
      vertex -212.351096604081 87.0263083509903 50.6584812700484
      vertex -212.418712542539 86.512714308365 50.6584812700484
   endloop
endfacet
facet normal 9.30311073340608e-019 -5.16806081763457e-017 -1.0
   outer loop
      vertex -210.947931585164 88.4294733699073 50.6584812700484
      vertex -193.170275042539 91.672089308365 50.6584812700484
      vertex -210.434337542539 88.497089308365 50.6584812700484
   endloop
endfacet
facet normal 9.30311073340608e-019 -5.16806081763457e-017 -1.0
   outer loop
      vertex -210.434337542539 88.497089308365 50.6584812700484
      vertex -193.170275042539 91.672089308365 50.6584812700484
      vertex -209.920743499914 88.4294733699073 50.6584812700484
   endloop
endfacet
facet normal 9.30311073340608e-019 -5.16806081763457e-017 -1.0
   outer loop
      vertex -209.920743499914 88.4294733699073 50.6584812700484
      vertex -193.170275042539 91.672089308365 50.6584812700484
      vertex -209.442150042539 88.2312334689997 50.6584812700484
   endloop
endfacet
facet normal 9.30311073340608e-019 -5.16806081763457e-017 -1.0
   outer loop
      vertex -209.442150042539 88.2312334689997 50.6584812700484
      vertex -193.170275042539 91.672089308365 50.6584812700484
      vertex -209.031172523622 87.915879327282 50.6584812700484
   endloop
endfacet
facet normal 9.30311073340608e-019 -5.16806081763457e-017 -1.0
   outer loop
      vertex -209.031172523622 87.915879327282 50.6584812700484
      vertex -193.170275042539 91.672089308365 50.6584812700484
      vertex -208.715818381904 87.504901808365 50.6584812700484
   endloop
endfacet
facet normal 9.30311073340608e-019 -5.16806081763457e-017 -1.0
   outer loop
      vertex -208.715818381904 87.504901808365 50.6584812700484
      vertex -193.170275042539 91.672089308365 50.6584812700484
      vertex -208.517578480997 87.0263083509903 50.6584812700484
   endloop
endfacet
facet normal 9.30311073340608e-019 -5.16806081763457e-017 -1.0
   outer loop
      vertex -208.517578480997 87.0263083509903 50.6584812700484
      vertex -193.170275042539 91.672089308365 50.6584812700484
      vertex -208.449962542539 86.512714308365 50.6584812700484
   endloop
endfacet
facet normal 9.30311073340608e-019 -5.16806081763457e-017 -1.0
   outer loop
      vertex -189.995275042539 78.2682304275185 50.6584812700484
      vertex -186.820275042539 81.0463554275185 50.6584812700484
      vertex -178.91543623077 76.4824946116429 50.6584812700484
   endloop
endfacet
facet normal 9.30311073340608e-019 -5.16806081763457e-017 -1.0
   outer loop
      vertex -186.820275042539 81.0463554275185 50.6584812700484
      vertex -189.995275042539 78.2682304275185 50.6584812700484
      vertex -186.820275042539 92.068964308365 50.6584812700484
   endloop
endfacet
facet normal 9.30311073340608e-019 -5.16806081763457e-017 -1.0
   outer loop
      vertex -221.168188287176 81.4432304275186 50.6584812700484
      vertex -210.947931585164 84.5959552468226 50.6584812700484
      vertex -193.170275042539 81.4432304275186 50.6584812700484
   endloop
endfacet
facet normal 9.30311073340608e-019 -5.16806081763457e-017 -1.0
   outer loop
      vertex -210.947931585164 84.5959552468226 50.6584812700484
      vertex -221.168188287176 81.4432304275186 50.6584812700484
      vertex -211.426525042539 84.7941951477302 50.6584812700484
   endloop
endfacet
facet normal 9.30311073340608e-019 -5.16806081763457e-017 -1.0
   outer loop
      vertex -211.426525042539 84.7941951477302 50.6584812700484
      vertex -221.168188287176 81.4432304275186 50.6584812700484
      vertex -211.837502561456 85.1095492894479 50.6584812700484
   endloop
endfacet
facet normal 9.30311073340608e-019 -5.16806081763457e-017 -1.0
   outer loop
      vertex -211.837502561456 85.1095492894479 50.6584812700484
      vertex -221.168188287176 81.4432304275186 50.6584812700484
      vertex -212.152856703174 85.520526808365 50.6584812700484
   endloop
endfacet
facet normal 9.30311073340608e-019 -5.16806081763457e-017 -1.0
   outer loop
      vertex -212.152856703174 85.520526808365 50.6584812700484
      vertex -221.168188287176 81.4432304275186 50.6584812700484
      vertex -212.351096604081 85.9991202657396 50.6584812700484
   endloop
endfacet
facet normal 9.30311073340608e-019 -5.16806081763457e-017 -1.0
   outer loop
      vertex -212.351096604081 85.9991202657396 50.6584812700484
      vertex -221.168188287176 81.4432304275186 50.6584812700484
      vertex -212.418712542539 86.512714308365 50.6584812700484
   endloop
endfacet
facet normal 9.30311073340608e-019 -5.16806081763457e-017 -1.0
   outer loop
      vertex -193.170275042539 81.4432304275186 50.6584812700484
      vertex -210.947931585164 84.5959552468226 50.6584812700484
      vertex -210.434337542539 84.528339308365 50.6584812700484
   endloop
endfacet
facet normal 9.30311073340608e-019 -5.16806081763457e-017 -1.0
   outer loop
      vertex -193.170275042539 81.4432304275186 50.6584812700484
      vertex -210.434337542539 84.528339308365 50.6584812700484
      vertex -209.920743499914 84.5959552468226 50.6584812700484
   endloop
endfacet
facet normal 9.30311073340608e-019 -5.16806081763457e-017 -1.0
   outer loop
      vertex -193.170275042539 81.4432304275186 50.6584812700484
      vertex -209.920743499914 84.5959552468226 50.6584812700484
      vertex -209.442150042539 84.7941951477302 50.6584812700484
   endloop
endfacet
facet normal 9.30311073340608e-019 -5.16806081763457e-017 -1.0
   outer loop
      vertex -193.170275042539 81.4432304275186 50.6584812700484
      vertex -209.442150042539 84.7941951477302 50.6584812700484
      vertex -209.031172523622 85.1095492894479 50.6584812700484
   endloop
endfacet
facet normal 9.30311073340608e-019 -5.16806081763457e-017 -1.0
   outer loop
      vertex -193.170275042539 81.4432304275186 50.6584812700484
      vertex -209.031172523622 85.1095492894479 50.6584812700484
      vertex -208.715818381904 85.520526808365 50.6584812700484
   endloop
endfacet
facet normal 9.30311073340608e-019 -5.16806081763457e-017 -1.0
   outer loop
      vertex -193.170275042539 81.4432304275186 50.6584812700484
      vertex -208.715818381904 85.520526808365 50.6584812700484
      vertex -208.517578480997 85.9991202657396 50.6584812700484
   endloop
endfacet
facet normal 9.30311073340608e-019 -5.16806081763457e-017 -1.0
   outer loop
      vertex -193.170275042539 81.4432304275186 50.6584812700484
      vertex -208.517578480997 85.9991202657396 50.6584812700484
      vertex -208.449962542539 86.512714308365 50.6584812700484
   endloop
endfacet
facet normal 9.30311073340608e-019 -5.16806081763457e-017 -1.0
   outer loop
      vertex -193.170275042539 81.4432304275186 50.6584812700484
      vertex -208.449962542539 86.512714308365 50.6584812700484
      vertex -193.170275042539 91.672089308365 50.6584812700484
   endloop
endfacet
facet normal 9.30311073340608e-019 -5.16806081763457e-017 -1.0
   outer loop
      vertex -193.170275042539 81.4432304275186 50.6584812700484
      vertex -193.170275042539 91.672089308365 50.6584812700484
      vertex -189.995275042539 94.847089308365 50.6584812700484
   endloop
endfacet
facet normal 9.30311073340608e-019 -5.16806081763457e-017 -1.0
   outer loop
      vertex -193.170275042539 81.4432304275186 50.6584812700484
      vertex -189.995275042539 94.847089308365 50.6584812700484
      vertex -189.995275042539 78.2682304275185 50.6584812700484
   endloop
endfacet
facet normal 9.30311073340608e-019 -5.16806081763457e-017 -1.0
   outer loop
      vertex -189.995275042539 78.2682304275185 50.6584812700484
      vertex -189.995275042539 94.847089308365 50.6584812700484
      vertex -186.820275042539 92.068964308365 50.6584812700484
   endloop
endfacet
facet normal 9.30311073340608e-019 -5.16806081763457e-017 -1.0
   outer loop
      vertex -186.820275042539 92.068964308365 50.6584812700484
      vertex -189.995275042539 94.847089308365 50.6584812700484
      vertex -178.91543623077 96.6328251242405 50.6584812700484
   endloop
endfacet
facet normal 0.0 1.0 0.0
   outer loop
      vertex -221.168188287176 91.672089308365 50.6584812700484
      vertex -193.170275042539 91.672089308365 57.7944588700484
      vertex -193.170275042539 91.672089308365 50.6584812700484
   endloop
endfacet
facet normal 0.0 1.0 0.0
   outer loop
      vertex -193.170275042539 91.672089308365 57.7944588700484
      vertex -221.168188287176 91.672089308365 50.6584812700484
      vertex -221.168188287176 91.672089308365 57.7944588700484
   endloop
endfacet
facet normal -0.499999999999999 -0.866025403784439 0.0
   outer loop
      vertex -208.449962542539 89.9497526296344 57.7944588700484
      vertex -209.407149457288 90.3462324314497 54.6194588700483
      vertex -208.449962542539 89.9497526296344 54.6194588700483
   endloop
endfacet
facet normal -0.499999999999999 -0.866025403784439 0.0
   outer loop
      vertex -209.407149457288 90.3462324314497 54.6194588700483
      vertex -208.449962542539 89.9497526296344 57.7944588700484
      vertex -209.407149457288 90.3462324314497 57.7944588700484
   endloop
endfacet
facet normal -0.707106781186548 -0.707106781186548 0.0
   outer loop
      vertex -207.628007504705 89.3190443461991 57.7944588700484
      vertex -208.449962542539 89.9497526296344 54.6194588700483
      vertex -207.628007504705 89.3190443461991 54.6194588700483
   endloop
endfacet
facet normal -0.707106781186548 -0.707106781186548 0.0
   outer loop
      vertex -208.449962542539 89.9497526296344 54.6194588700483
      vertex -207.628007504705 89.3190443461991 57.7944588700484
      vertex -208.449962542539 89.9497526296344 57.7944588700484
   endloop
endfacet
facet normal -0.707106781186548 -0.707106781186548 0.0
   outer loop
      vertex -207.628007504705 89.3190443461991 57.7944588700484
      vertex -206.997299221269 88.497089308365 54.6194588700483
      vertex -206.997299221269 88.497089308365 57.7944588700484
   endloop
endfacet
facet normal -0.707106781186548 -0.707106781186548 0.0
   outer loop
      vertex -206.997299221269 88.497089308365 54.6194588700483
      vertex -207.628007504705 89.3190443461991 57.7944588700484
      vertex -207.628007504705 89.3190443461991 54.6194588700483
   endloop
endfacet
facet normal -0.866025403784438 -0.500000000000001 0.0
   outer loop
      vertex -206.997299221269 88.497089308365 57.7944588700484
      vertex -206.600819419454 87.5399023936156 54.6194588700483
      vertex -206.600819419454 87.5399023936156 57.7944588700484
   endloop
endfacet
facet normal -0.866025403784438 -0.500000000000001 0.0
   outer loop
      vertex -206.600819419454 87.5399023936156 54.6194588700483
      vertex -206.997299221269 88.497089308365 57.7944588700484
      vertex -206.997299221269 88.497089308365 54.6194588700483
   endloop
endfacet
facet normal -0.965925826289069 -0.258819045102519 0.0
   outer loop
      vertex -206.600819419454 87.5399023936156 57.7944588700484
      vertex -206.465587542539 86.512714308365 54.6194588700483
      vertex -206.465587542539 86.512714308365 57.7944588700484
   endloop
endfacet
facet normal -0.965925826289069 -0.258819045102519 0.0
   outer loop
      vertex -206.465587542539 86.512714308365 54.6194588700483
      vertex -206.600819419454 87.5399023936156 57.7944588700484
      vertex -206.600819419454 87.5399023936156 54.6194588700483
   endloop
endfacet
facet normal -1.0 0.0 0.0
   outer loop
      vertex -206.465587542539 86.512714308365 57.7944588700484
      vertex -206.600819419454 85.4855262231143 54.6194588700483
      vertex -206.600819419454 85.4855262231143 57.7944588700484
   endloop
endfacet
facet normal -1.0 0.0 0.0
   outer loop
      vertex -206.600819419454 85.4855262231143 54.6194588700483
      vertex -206.465587542539 86.512714308365 57.7944588700484
      vertex -206.465587542539 86.512714308365 54.6194588700483
   endloop
endfacet
facet normal -0.965925826289069 0.258819045102519 0.0
   outer loop
      vertex -206.600819419454 85.4855262231143 57.7944588700484
      vertex -206.997299221269 84.528339308365 54.6194588700483
      vertex -206.997299221269 84.528339308365 57.7944588700484
   endloop
endfacet
facet normal -0.965925826289069 0.258819045102519 0.0
   outer loop
      vertex -206.997299221269 84.528339308365 54.6194588700483
      vertex -206.600819419454 85.4855262231143 57.7944588700484
      vertex -206.600819419454 85.4855262231143 54.6194588700483
   endloop
endfacet
facet normal -0.866025403784438 0.500000000000001 0.0
   outer loop
      vertex -206.997299221269 84.528339308365 57.7944588700484
      vertex -207.628007504705 83.7063842705308 54.6194588700483
      vertex -207.628007504705 83.7063842705308 57.7944588700484
   endloop
endfacet
facet normal -0.866025403784438 0.500000000000001 0.0
   outer loop
      vertex -207.628007504705 83.7063842705308 54.6194588700483
      vertex -206.997299221269 84.528339308365 57.7944588700484
      vertex -206.997299221269 84.528339308365 54.6194588700483
   endloop
endfacet
facet normal -0.500000000000001 0.866025403784438 0.0
   outer loop
      vertex -208.449962542539 83.0756759870955 57.7944588700484
      vertex -207.628007504705 83.7063842705308 54.6194588700483
      vertex -208.449962542539 83.0756759870955 54.6194588700483
   endloop
endfacet
facet normal -0.500000000000001 0.866025403784438 0.0
   outer loop
      vertex -207.628007504705 83.7063842705308 54.6194588700483
      vertex -208.449962542539 83.0756759870955 57.7944588700484
      vertex -207.628007504705 83.7063842705308 57.7944588700484
   endloop
endfacet
facet normal -0.258819045102519 0.965925826289069 0.0
   outer loop
      vertex -209.407149457288 82.6791961852802 57.7944588700484
      vertex -208.449962542539 83.0756759870955 54.6194588700483
      vertex -209.407149457288 82.6791961852802 54.6194588700483
   endloop
endfacet
facet normal -0.258819045102519 0.965925826289069 0.0
   outer loop
      vertex -208.449962542539 83.0756759870955 54.6194588700483
      vertex -209.407149457288 82.6791961852802 57.7944588700484
      vertex -208.449962542539 83.0756759870955 57.7944588700484
   endloop
endfacet
facet normal 0.0 1.0 0.0
   outer loop
      vertex -210.434337542539 82.543964308365 57.7944588700484
      vertex -209.407149457288 82.6791961852802 54.6194588700483
      vertex -210.434337542539 82.543964308365 54.6194588700483
   endloop
endfacet
facet normal 0.0 1.0 0.0
   outer loop
      vertex -209.407149457288 82.6791961852802 54.6194588700483
      vertex -210.434337542539 82.543964308365 57.7944588700484
      vertex -209.407149457288 82.6791961852802 57.7944588700484
   endloop
endfacet
facet normal 0.258819045102519 0.965925826289069 0.0
   outer loop
      vertex -211.46152562779 82.6791961852802 57.7944588700484
      vertex -210.434337542539 82.543964308365 54.6194588700483
      vertex -211.46152562779 82.6791961852802 54.6194588700483
   endloop
endfacet
facet normal 0.258819045102519 0.965925826289069 0.0
   outer loop
      vertex -210.434337542539 82.543964308365 54.6194588700483
      vertex -211.46152562779 82.6791961852802 57.7944588700484
      vertex -210.434337542539 82.543964308365 57.7944588700484
   endloop
endfacet
facet normal 0.500000000000001 0.866025403784438 0.0
   outer loop
      vertex -212.418712542539 83.0756759870955 57.7944588700484
      vertex -211.46152562779 82.6791961852802 54.6194588700483
      vertex -212.418712542539 83.0756759870955 54.6194588700483
   endloop
endfacet
facet normal 0.500000000000001 0.866025403784438 0.0
   outer loop
      vertex -211.46152562779 82.6791961852802 54.6194588700483
      vertex -212.418712542539 83.0756759870955 57.7944588700484
      vertex -211.46152562779 82.6791961852802 57.7944588700484
   endloop
endfacet
facet normal 0.707106781186548 0.707106781186548 0.0
   outer loop
      vertex -213.240667580373 83.7063842705308 57.7944588700484
      vertex -212.418712542539 83.0756759870955 54.6194588700483
      vertex -213.240667580373 83.7063842705308 54.6194588700483
   endloop
endfacet
facet normal 0.707106781186548 0.707106781186548 0.0
   outer loop
      vertex -212.418712542539 83.0756759870955 54.6194588700483
      vertex -213.240667580373 83.7063842705308 57.7944588700484
      vertex -212.418712542539 83.0756759870955 57.7944588700484
   endloop
endfacet
facet normal 0.866025403784438 0.500000000000001 0.0
   outer loop
      vertex -213.871375863808 84.528339308365 54.6194588700483
      vertex -213.240667580373 83.7063842705308 57.7944588700484
      vertex -213.240667580373 83.7063842705308 54.6194588700483
   endloop
endfacet
facet normal 0.866025403784438 0.500000000000001 0.0
   outer loop
      vertex -213.240667580373 83.7063842705308 57.7944588700484
      vertex -213.871375863808 84.528339308365 54.6194588700483
      vertex -213.871375863808 84.528339308365 57.7944588700484
   endloop
endfacet
facet normal 0.965925826289069 0.258819045102519 0.0
   outer loop
      vertex -214.267855665624 85.4855262231143 54.6194588700483
      vertex -213.871375863808 84.528339308365 57.7944588700484
      vertex -213.871375863808 84.528339308365 54.6194588700483
   endloop
endfacet
facet normal 0.965925826289069 0.258819045102519 0.0
   outer loop
      vertex -213.871375863808 84.528339308365 57.7944588700484
      vertex -214.267855665624 85.4855262231143 54.6194588700483
      vertex -214.267855665624 85.4855262231143 57.7944588700484
   endloop
endfacet
facet normal 1.0 -7.12888791651752e-016 0.0
   outer loop
      vertex -214.403087542539 86.512714308365 54.6194588700483
      vertex -214.267855665624 85.4855262231143 57.7944588700484
      vertex -214.267855665624 85.4855262231143 54.6194588700483
   endloop
endfacet
facet normal 1.0 -7.12888791651752e-016 0.0
   outer loop
      vertex -214.267855665624 85.4855262231143 57.7944588700484
      vertex -214.403087542539 86.512714308365 54.6194588700483
      vertex -214.403087542539 86.512714308365 57.7944588700484
   endloop
endfacet
facet normal 0.965925826289069 -0.258819045102518 0.0
   outer loop
      vertex -214.267855665624 87.5399023936156 54.6194588700483
      vertex -214.403087542539 86.512714308365 57.7944588700484
      vertex -214.403087542539 86.512714308365 54.6194588700483
   endloop
endfacet
facet normal 0.965925826289069 -0.258819045102518 0.0
   outer loop
      vertex -214.403087542539 86.512714308365 57.7944588700484
      vertex -214.267855665624 87.5399023936156 54.6194588700483
      vertex -214.267855665624 87.5399023936156 57.7944588700484
   endloop
endfacet
facet normal 0.0 0.0 1.0
   outer loop
      vertex -212.418712542539 83.0756759870955 54.6194588700483
      vertex -212.351096604081 85.9991202657396 54.6194588700483
      vertex -212.418712542539 86.512714308365 54.6194588700483
   endloop
endfacet
facet normal 0.0 0.0 1.0
   outer loop
      vertex -212.351096604081 85.9991202657396 54.6194588700483
      vertex -212.418712542539 83.0756759870955 54.6194588700483
      vertex -211.46152562779 82.6791961852802 54.6194588700483
   endloop
endfacet
facet normal 0.0 0.0 1.0
   outer loop
      vertex -212.351096604081 85.9991202657396 54.6194588700483
      vertex -211.46152562779 82.6791961852802 54.6194588700483
      vertex -212.152856703174 85.520526808365 54.6194588700483
   endloop
endfacet
facet normal 0.0 0.0 1.0
   outer loop
      vertex -212.152856703174 85.520526808365 54.6194588700483
      vertex -211.46152562779 82.6791961852802 54.6194588700483
      vertex -211.837502561456 85.1095492894479 54.6194588700483
   endloop
endfacet
facet normal 0.0 0.0 1.0
   outer loop
      vertex -211.837502561456 85.1095492894479 54.6194588700483
      vertex -211.46152562779 82.6791961852802 54.6194588700483
      vertex -211.426525042539 84.7941951477302 54.6194588700483
   endloop
endfacet
facet normal 0.0 0.0 1.0
   outer loop
      vertex -211.426525042539 84.7941951477302 54.6194588700483
      vertex -211.46152562779 82.6791961852802 54.6194588700483
      vertex -210.434337542539 82.543964308365 54.6194588700483
   endloop
endfacet
facet normal 0.0 0.0 1.0
   outer loop
      vertex -211.426525042539 84.7941951477302 54.6194588700483
      vertex -210.434337542539 82.543964308365 54.6194588700483
      vertex -210.947931585164 84.5959552468226 54.6194588700483
   endloop
endfacet
facet normal 0.0 0.0 1.0
   outer loop
      vertex -210.947931585164 84.5959552468226 54.6194588700483
      vertex -210.434337542539 82.543964308365 54.6194588700483
      vertex -210.434337542539 84.528339308365 54.6194588700483
   endloop
endfacet
facet normal 0.0 0.0 1.0
   outer loop
      vertex -210.434337542539 84.528339308365 54.6194588700483
      vertex -210.434337542539 82.543964308365 54.6194588700483
      vertex -209.407149457288 82.6791961852802 54.6194588700483
   endloop
endfacet
facet normal 0.0 0.0 1.0
   outer loop
      vertex -210.434337542539 84.528339308365 54.6194588700483
      vertex -209.407149457288 82.6791961852802 54.6194588700483
      vertex -209.920743499914 84.5959552468226 54.6194588700483
   endloop
endfacet
facet normal 0.0 0.0 1.0
   outer loop
      vertex -209.920743499914 84.5959552468226 54.6194588700483
      vertex -209.407149457288 82.6791961852802 54.6194588700483
      vertex -209.442150042539 84.7941951477302 54.6194588700483
   endloop
endfacet
facet normal 0.0 0.0 1.0
   outer loop
      vertex -209.442150042539 84.7941951477302 54.6194588700483
      vertex -209.407149457288 82.6791961852802 54.6194588700483
      vertex -209.031172523622 85.1095492894479 54.6194588700483
   endloop
endfacet
facet normal 0.0 0.0 1.0
   outer loop
      vertex -209.031172523622 85.1095492894479 54.6194588700483
      vertex -209.407149457288 82.6791961852802 54.6194588700483
      vertex -208.449962542539 83.0756759870955 54.6194588700483
   endloop
endfacet
facet normal 0.0 0.0 1.0
   outer loop
      vertex -209.031172523622 85.1095492894479 54.6194588700483
      vertex -208.449962542539 83.0756759870955 54.6194588700483
      vertex -208.715818381904 85.520526808365 54.6194588700483
   endloop
endfacet
facet normal 0.0 0.0 1.0
   outer loop
      vertex -208.715818381904 85.520526808365 54.6194588700483
      vertex -208.449962542539 83.0756759870955 54.6194588700483
      vertex -208.517578480997 85.9991202657396 54.6194588700483
   endloop
endfacet
facet normal 0.0 0.0 1.0
   outer loop
      vertex -208.517578480997 85.9991202657396 54.6194588700483
      vertex -208.449962542539 83.0756759870955 54.6194588700483
      vertex -208.449962542539 86.512714308365 54.6194588700483
   endloop
endfacet
facet normal 0.0 0.0 1.0
   outer loop
      vertex -208.449962542539 86.512714308365 54.6194588700483
      vertex -208.449962542539 83.0756759870955 54.6194588700483
      vertex -207.628007504705 83.7063842705308 54.6194588700483
   endloop
endfacet
facet normal 0.0 0.0 1.0
   outer loop
      vertex -208.449962542539 86.512714308365 54.6194588700483
      vertex -207.628007504705 83.7063842705308 54.6194588700483
      vertex -208.449962542539 89.9497526296344 54.6194588700483
   endloop
endfacet
facet normal 0.0 0.0 1.0
   outer loop
      vertex -208.449962542539 89.9497526296344 54.6194588700483
      vertex -207.628007504705 83.7063842705308 54.6194588700483
      vertex -207.628007504705 89.3190443461991 54.6194588700483
   endloop
endfacet
facet normal 0.0 0.0 1.0
   outer loop
      vertex -207.628007504705 89.3190443461991 54.6194588700483
      vertex -207.628007504705 83.7063842705308 54.6194588700483
      vertex -206.997299221269 84.528339308365 54.6194588700483
   endloop
endfacet
facet normal 0.0 0.0 1.0
   outer loop
      vertex -207.628007504705 89.3190443461991 54.6194588700483
      vertex -206.997299221269 84.528339308365 54.6194588700483
      vertex -206.997299221269 88.497089308365 54.6194588700483
   endloop
endfacet
facet normal 0.0 0.0 1.0
   outer loop
      vertex -206.997299221269 88.497089308365 54.6194588700483
      vertex -206.997299221269 84.528339308365 54.6194588700483
      vertex -206.600819419454 85.4855262231143 54.6194588700483
   endloop
endfacet
facet normal 0.0 0.0 1.0
   outer loop
      vertex -206.997299221269 88.497089308365 54.6194588700483
      vertex -206.600819419454 85.4855262231143 54.6194588700483
      vertex -206.600819419454 87.5399023936156 54.6194588700483
   endloop
endfacet
facet normal 0.0 0.0 1.0
   outer loop
      vertex -206.600819419454 87.5399023936156 54.6194588700483
      vertex -206.600819419454 85.4855262231143 54.6194588700483
      vertex -206.465587542539 86.512714308365 54.6194588700483
   endloop
endfacet
facet normal 0.0 0.0 1.0
   outer loop
      vertex -214.267855665624 85.4855262231143 54.6194588700483
      vertex -214.267855665624 87.5399023936156 54.6194588700483
      vertex -214.403087542539 86.512714308365 54.6194588700483
   endloop
endfacet
facet normal 0.0 0.0 1.0
   outer loop
      vertex -214.267855665624 87.5399023936156 54.6194588700483
      vertex -214.267855665624 85.4855262231143 54.6194588700483
      vertex -213.871375863808 84.528339308365 54.6194588700483
   endloop
endfacet
facet normal 0.0 0.0 1.0
   outer loop
      vertex -214.267855665624 87.5399023936156 54.6194588700483
      vertex -213.871375863808 84.528339308365 54.6194588700483
      vertex -213.871375863808 88.497089308365 54.6194588700483
   endloop
endfacet
facet normal 0.0 0.0 1.0
   outer loop
      vertex -213.871375863808 88.497089308365 54.6194588700483
      vertex -213.871375863808 84.528339308365 54.6194588700483
      vertex -213.240667580373 83.7063842705308 54.6194588700483
   endloop
endfacet
facet normal 0.0 0.0 1.0
   outer loop
      vertex -213.871375863808 88.497089308365 54.6194588700483
      vertex -213.240667580373 83.7063842705308 54.6194588700483
      vertex -213.240667580373 89.3190443461991 54.6194588700483
   endloop
endfacet
facet normal 0.0 0.0 1.0
   outer loop
      vertex -213.240667580373 89.3190443461991 54.6194588700483
      vertex -213.240667580373 83.7063842705308 54.6194588700483
      vertex -212.418712542539 89.9497526296344 54.6194588700483
   endloop
endfacet
facet normal 0.0 0.0 1.0
   outer loop
      vertex -212.418712542539 89.9497526296344 54.6194588700483
      vertex -213.240667580373 83.7063842705308 54.6194588700483
      vertex -212.418712542539 83.0756759870955 54.6194588700483
   endloop
endfacet
facet normal 0.0 0.0 1.0
   outer loop
      vertex -212.418712542539 89.9497526296344 54.6194588700483
      vertex -212.418712542539 83.0756759870955 54.6194588700483
      vertex -212.418712542539 86.512714308365 54.6194588700483
   endloop
endfacet
facet normal 0.0 0.0 1.0
   outer loop
      vertex -212.418712542539 89.9497526296344 54.6194588700483
      vertex -212.418712542539 86.512714308365 54.6194588700483
      vertex -212.351096604081 87.0263083509903 54.6194588700483
   endloop
endfacet
facet normal 0.0 0.0 1.0
   outer loop
      vertex -212.418712542539 89.9497526296344 54.6194588700483
      vertex -212.351096604081 87.0263083509903 54.6194588700483
      vertex -211.46152562779 90.3462324314497 54.6194588700483
   endloop
endfacet
facet normal 0.0 0.0 1.0
   outer loop
      vertex -211.46152562779 90.3462324314497 54.6194588700483
      vertex -212.351096604081 87.0263083509903 54.6194588700483
      vertex -212.152856703174 87.504901808365 54.6194588700483
   endloop
endfacet
facet normal 0.0 0.0 1.0
   outer loop
      vertex -211.46152562779 90.3462324314497 54.6194588700483
      vertex -212.152856703174 87.504901808365 54.6194588700483
      vertex -211.837502561456 87.915879327282 54.6194588700483
   endloop
endfacet
facet normal 0.0 0.0 1.0
   outer loop
      vertex -211.46152562779 90.3462324314497 54.6194588700483
      vertex -211.837502561456 87.915879327282 54.6194588700483
      vertex -211.426525042539 88.2312334689997 54.6194588700483
   endloop
endfacet
facet normal 0.0 0.0 1.0
   outer loop
      vertex -211.46152562779 90.3462324314497 54.6194588700483
      vertex -211.426525042539 88.2312334689997 54.6194588700483
      vertex -210.434337542539 90.481464308365 54.6194588700483
   endloop
endfacet
facet normal 0.0 0.0 1.0
   outer loop
      vertex -210.434337542539 90.481464308365 54.6194588700483
      vertex -211.426525042539 88.2312334689997 54.6194588700483
      vertex -210.947931585164 88.4294733699073 54.6194588700483
   endloop
endfacet
facet normal 0.0 0.0 1.0
   outer loop
      vertex -210.434337542539 90.481464308365 54.6194588700483
      vertex -210.947931585164 88.4294733699073 54.6194588700483
      vertex -210.434337542539 88.497089308365 54.6194588700483
   endloop
endfacet
facet normal 0.0 0.0 1.0
   outer loop
      vertex -210.434337542539 90.481464308365 54.6194588700483
      vertex -210.434337542539 88.497089308365 54.6194588700483
      vertex -209.920743499914 88.4294733699073 54.6194588700483
   endloop
endfacet
facet normal 0.0 0.0 1.0
   outer loop
      vertex -210.434337542539 90.481464308365 54.6194588700483
      vertex -209.920743499914 88.4294733699073 54.6194588700483
      vertex -209.407149457288 90.3462324314497 54.6194588700483
   endloop
endfacet
facet normal 0.0 0.0 1.0
   outer loop
      vertex -209.407149457288 90.3462324314497 54.6194588700483
      vertex -209.920743499914 88.4294733699073 54.6194588700483
      vertex -209.442150042539 88.2312334689997 54.6194588700483
   endloop
endfacet
facet normal 0.0 0.0 1.0
   outer loop
      vertex -209.407149457288 90.3462324314497 54.6194588700483
      vertex -209.442150042539 88.2312334689997 54.6194588700483
      vertex -209.031172523622 87.915879327282 54.6194588700483
   endloop
endfacet
facet normal 0.0 0.0 1.0
   outer loop
      vertex -209.407149457288 90.3462324314497 54.6194588700483
      vertex -209.031172523622 87.915879327282 54.6194588700483
      vertex -208.449962542539 89.9497526296344 54.6194588700483
   endloop
endfacet
facet normal 0.0 0.0 1.0
   outer loop
      vertex -208.449962542539 89.9497526296344 54.6194588700483
      vertex -209.031172523622 87.915879327282 54.6194588700483
      vertex -208.715818381904 87.504901808365 54.6194588700483
   endloop
endfacet
facet normal 0.0 0.0 1.0
   outer loop
      vertex -208.449962542539 89.9497526296344 54.6194588700483
      vertex -208.715818381904 87.504901808365 54.6194588700483
      vertex -208.517578480997 87.0263083509903 54.6194588700483
   endloop
endfacet
facet normal 0.0 0.0 1.0
   outer loop
      vertex -208.449962542539 89.9497526296344 54.6194588700483
      vertex -208.517578480997 87.0263083509903 54.6194588700483
      vertex -208.449962542539 86.512714308365 54.6194588700483
   endloop
endfacet
facet normal 0.866025403784441 -0.499999999999995 0.0
   outer loop
      vertex -213.871375863808 88.497089308365 54.6194588700483
      vertex -214.267855665624 87.5399023936156 57.7944588700484
      vertex -214.267855665624 87.5399023936156 54.6194588700483
   endloop
endfacet
facet normal 0.866025403784441 -0.499999999999995 0.0
   outer loop
      vertex -214.267855665624 87.5399023936156 57.7944588700484
      vertex -213.871375863808 88.497089308365 54.6194588700483
      vertex -213.871375863808 88.497089308365 57.7944588700484
   endloop
endfacet
facet normal 0.707106781186551 -0.707106781186544 0.0
   outer loop
      vertex -213.240667580373 89.3190443461991 54.6194588700483
      vertex -213.871375863808 88.497089308365 57.7944588700484
      vertex -213.871375863808 88.497089308365 54.6194588700483
   endloop
endfacet
facet normal 0.707106781186551 -0.707106781186544 0.0
   outer loop
      vertex -213.871375863808 88.497089308365 57.7944588700484
      vertex -213.240667580373 89.3190443461991 54.6194588700483
      vertex -213.240667580373 89.3190443461991 57.7944588700484
   endloop
endfacet
facet normal 0.499999999999999 -0.866025403784439 0.0
   outer loop
      vertex -212.418712542539 89.9497526296344 57.7944588700484
      vertex -213.240667580373 89.3190443461991 54.6194588700483
      vertex -212.418712542539 89.9497526296344 54.6194588700483
   endloop
endfacet
facet normal 0.499999999999999 -0.866025403784439 0.0
   outer loop
      vertex -213.240667580373 89.3190443461991 54.6194588700483
      vertex -212.418712542539 89.9497526296344 57.7944588700484
      vertex -213.240667580373 89.3190443461991 57.7944588700484
   endloop
endfacet
facet normal 0.258819045102517 -0.965925826289069 0.0
   outer loop
      vertex -211.46152562779 90.3462324314497 57.7944588700484
      vertex -212.418712542539 89.9497526296344 54.6194588700483
      vertex -211.46152562779 90.3462324314497 54.6194588700483
   endloop
endfacet
facet normal 0.258819045102517 -0.965925826289069 0.0
   outer loop
      vertex -212.418712542539 89.9497526296344 54.6194588700483
      vertex -211.46152562779 90.3462324314497 57.7944588700484
      vertex -212.418712542539 89.9497526296344 57.7944588700484
   endloop
endfacet
facet normal -7.12888791651752e-016 -1.0 0.0
   outer loop
      vertex -210.434337542539 90.481464308365 57.7944588700484
      vertex -211.46152562779 90.3462324314497 54.6194588700483
      vertex -210.434337542539 90.481464308365 54.6194588700483
   endloop
endfacet
facet normal -7.12888791651752e-016 -1.0 0.0
   outer loop
      vertex -211.46152562779 90.3462324314497 54.6194588700483
      vertex -210.434337542539 90.481464308365 57.7944588700484
      vertex -211.46152562779 90.3462324314497 57.7944588700484
   endloop
endfacet
facet normal -0.258819045102518 -0.965925826289069 0.0
   outer loop
      vertex -209.407149457288 90.3462324314497 57.7944588700484
      vertex -210.434337542539 90.481464308365 54.6194588700483
      vertex -209.407149457288 90.3462324314497 54.6194588700483
   endloop
endfacet
facet normal -0.258819045102518 -0.965925826289069 0.0
   outer loop
      vertex -210.434337542539 90.481464308365 54.6194588700483
      vertex -209.407149457288 90.3462324314497 57.7944588700484
      vertex -210.434337542539 90.481464308365 57.7944588700484
   endloop
endfacet
facet normal 0.0 0.0 1.0
   outer loop
      vertex -193.170275042539 81.4432304275186 69.7084812700483
      vertex -189.995275042539 94.847089308365 69.7084812700483
      vertex -193.170275042539 91.672089308365 69.7084812700483
   endloop
endfacet
facet normal 0.0 0.0 1.0
   outer loop
      vertex -189.995275042539 94.847089308365 69.7084812700483
      vertex -193.170275042539 81.4432304275186 69.7084812700483
      vertex -189.995275042539 78.2682304275185 69.7084812700483
   endloop
endfacet
facet normal 0.0 0.0 1.0
   outer loop
      vertex -189.995275042539 94.847089308365 69.7084812700483
      vertex -189.995275042539 78.2682304275185 69.7084812700483
      vertex -188.407775042539 91.672089308365 69.7084812700483
   endloop
endfacet
facet normal 0.0 0.0 1.0
   outer loop
      vertex -189.995275042539 94.847089308365 69.7084812700483
      vertex -188.407775042539 91.672089308365 69.7084812700483
      vertex -178.91543623077 96.6328251242405 69.7084812700483
   endloop
endfacet
facet normal 0.0 0.0 1.0
   outer loop
      vertex -178.91543623077 96.6328251242405 69.7084812700483
      vertex -188.407775042539 91.672089308365 69.7084812700483
      vertex -186.820275042539 92.068964308365 69.7084812700483
   endloop
endfacet
facet normal 0.0 0.0 1.0
   outer loop
      vertex -186.820275042539 92.068964308365 69.7084812700483
      vertex -188.407775042539 91.672089308365 69.7084812700483
      vertex -186.820275042539 91.672089308365 69.7084812700483
   endloop
endfacet
facet normal 0.0 0.0 1.0
   outer loop
      vertex -189.995275042539 78.2682304275185 69.7084812700483
      vertex -188.407775042539 81.4432304275186 69.7084812700483
      vertex -188.407775042539 91.672089308365 69.7084812700483
   endloop
endfacet
facet normal 0.0 0.0 1.0
   outer loop
      vertex -188.407775042539 81.4432304275186 69.7084812700483
      vertex -189.995275042539 78.2682304275185 69.7084812700483
      vertex -178.91543623077 76.4824946116429 69.7084812700483
   endloop
endfacet
facet normal 0.0 0.0 1.0
   outer loop
      vertex -188.407775042539 81.4432304275186 69.7084812700483
      vertex -178.91543623077 76.4824946116429 69.7084812700483
      vertex -186.820275042539 81.0463554275185 69.7084812700483
   endloop
endfacet
facet normal 0.0 0.0 1.0
   outer loop
      vertex -186.820275042539 81.4432304275186 69.7084812700483
      vertex -188.407775042539 81.4432304275186 69.7084812700483
      vertex -186.820275042539 81.0463554275185 69.7084812700483
   endloop
endfacet
facet normal 0.499999999999999 -0.866025403784439 0.0
   outer loop
      vertex -211.426525042539 88.2312334689997 54.6194588700483
      vertex -211.837502561456 87.915879327282 50.6584812700484
      vertex -211.426525042539 88.2312334689997 50.6584812700484
   endloop
endfacet
facet normal 0.499999999999999 -0.866025403784439 0.0
   outer loop
      vertex -211.837502561456 87.915879327282 50.6584812700484
      vertex -211.426525042539 88.2312334689997 54.6194588700483
      vertex -211.837502561456 87.915879327282 54.6194588700483
   endloop
endfacet
facet normal 0.258819045102526 -0.965925826289067 0.0
   outer loop
      vertex -210.947931585164 88.4294733699073 54.6194588700483
      vertex -211.426525042539 88.2312334689997 50.6584812700484
      vertex -210.947931585164 88.4294733699073 50.6584812700484
   endloop
endfacet
facet normal 0.258819045102526 -0.965925826289067 0.0
   outer loop
      vertex -211.426525042539 88.2312334689997 50.6584812700484
      vertex -210.947931585164 88.4294733699073 54.6194588700483
      vertex -211.426525042539 88.2312334689997 54.6194588700483
   endloop
endfacet
facet normal -1.39904425361657e-015 -1.0 0.0
   outer loop
      vertex -210.434337542539 88.497089308365 54.6194588700483
      vertex -210.947931585164 88.4294733699073 50.6584812700484
      vertex -210.434337542539 88.497089308365 50.6584812700484
   endloop
endfacet
facet normal -1.39904425361657e-015 -1.0 0.0
   outer loop
      vertex -210.947931585164 88.4294733699073 50.6584812700484
      vertex -210.434337542539 88.497089308365 54.6194588700483
      vertex -210.947931585164 88.4294733699073 54.6194588700483
   endloop
endfacet
facet normal -0.258819045102523 -0.965925826289068 0.0
   outer loop
      vertex -209.920743499914 88.4294733699073 54.6194588700483
      vertex -210.434337542539 88.497089308365 50.6584812700484
      vertex -209.920743499914 88.4294733699073 50.6584812700484
   endloop
endfacet
facet normal -0.258819045102523 -0.965925826289068 0.0
   outer loop
      vertex -210.434337542539 88.497089308365 50.6584812700484
      vertex -209.920743499914 88.4294733699073 54.6194588700483
      vertex -210.434337542539 88.497089308365 54.6194588700483
   endloop
endfacet
facet normal -0.499999999999995 -0.866025403784441 0.0
   outer loop
      vertex -209.442150042539 88.2312334689997 54.6194588700483
      vertex -209.920743499914 88.4294733699073 50.6584812700484
      vertex -209.442150042539 88.2312334689997 50.6584812700484
   endloop
endfacet
facet normal -0.499999999999995 -0.866025403784441 0.0
   outer loop
      vertex -209.920743499914 88.4294733699073 50.6584812700484
      vertex -209.442150042539 88.2312334689997 54.6194588700483
      vertex -209.920743499914 88.4294733699073 54.6194588700483
   endloop
endfacet
facet normal -0.707106781186548 -0.707106781186548 0.0
   outer loop
      vertex -209.031172523622 87.915879327282 54.6194588700483
      vertex -209.442150042539 88.2312334689997 50.6584812700484
      vertex -209.031172523622 87.915879327282 50.6584812700484
   endloop
endfacet
facet normal -0.707106781186548 -0.707106781186548 0.0
   outer loop
      vertex -209.442150042539 88.2312334689997 50.6584812700484
      vertex -209.031172523622 87.915879327282 54.6194588700483
      vertex -209.442150042539 88.2312334689997 54.6194588700483
   endloop
endfacet
facet normal -0.707106781186548 -0.707106781186548 0.0
   outer loop
      vertex -209.031172523622 87.915879327282 54.6194588700483
      vertex -208.715818381904 87.504901808365 50.6584812700484
      vertex -208.715818381904 87.504901808365 54.6194588700483
   endloop
endfacet
facet normal -0.707106781186548 -0.707106781186548 0.0
   outer loop
      vertex -208.715818381904 87.504901808365 50.6584812700484
      vertex -209.031172523622 87.915879327282 54.6194588700483
      vertex -209.031172523622 87.915879327282 50.6584812700484
   endloop
endfacet
facet normal -0.866025403784439 -0.499999999999999 0.0
   outer loop
      vertex -208.715818381904 87.504901808365 54.6194588700483
      vertex -208.517578480997 87.0263083509903 50.6584812700484
      vertex -208.517578480997 87.0263083509903 54.6194588700483
   endloop
endfacet
facet normal -0.866025403784439 -0.499999999999999 0.0
   outer loop
      vertex -208.517578480997 87.0263083509903 50.6584812700484
      vertex -208.715818381904 87.504901808365 54.6194588700483
      vertex -208.715818381904 87.504901808365 50.6584812700484
   endloop
endfacet
facet normal 0.965925826289068 -0.258819045102523 0.0
   outer loop
      vertex -212.351096604081 87.0263083509903 50.6584812700484
      vertex -212.418712542539 86.512714308365 54.6194588700483
      vertex -212.418712542539 86.512714308365 50.6584812700484
   endloop
endfacet
facet normal 0.965925826289068 -0.258819045102523 0.0
   outer loop
      vertex -212.418712542539 86.512714308365 54.6194588700483
      vertex -212.351096604081 87.0263083509903 50.6584812700484
      vertex -212.351096604081 87.0263083509903 54.6194588700483
   endloop
endfacet
facet normal -0.499999999999995 0.866025403784441 0.0
   outer loop
      vertex -209.442150042539 84.7941951477302 54.6194588700483
      vertex -209.031172523622 85.1095492894479 50.6584812700484
      vertex -209.442150042539 84.7941951477302 50.6584812700484
   endloop
endfacet
facet normal -0.499999999999995 0.866025403784441 0.0
   outer loop
      vertex -209.031172523622 85.1095492894479 50.6584812700484
      vertex -209.442150042539 84.7941951477302 54.6194588700483
      vertex -209.031172523622 85.1095492894479 54.6194588700483
   endloop
endfacet
facet normal 1.0 1.78222197912938e-017 0.0
   outer loop
      vertex -212.418712542539 86.512714308365 50.6584812700484
      vertex -212.351096604081 85.9991202657396 54.6194588700483
      vertex -212.351096604081 85.9991202657396 50.6584812700484
   endloop
endfacet
facet normal 1.0 1.78222197912938e-017 0.0
   outer loop
      vertex -212.351096604081 85.9991202657396 54.6194588700483
      vertex -212.418712542539 86.512714308365 50.6584812700484
      vertex -212.418712542539 86.512714308365 54.6194588700483
   endloop
endfacet
facet normal -0.258819045102523 0.965925826289068 0.0
   outer loop
      vertex -209.920743499914 84.5959552468226 54.6194588700483
      vertex -209.442150042539 84.7941951477302 50.6584812700484
      vertex -209.920743499914 84.5959552468226 50.6584812700484
   endloop
endfacet
facet normal -0.258819045102523 0.965925826289068 0.0
   outer loop
      vertex -209.442150042539 84.7941951477302 50.6584812700484
      vertex -209.920743499914 84.5959552468226 54.6194588700483
      vertex -209.442150042539 84.7941951477302 54.6194588700483
   endloop
endfacet
facet normal -0.965925826289068 0.258819045102523 0.0
   outer loop
      vertex -208.517578480997 85.9991202657396 54.6194588700483
      vertex -208.715818381904 85.520526808365 50.6584812700484
      vertex -208.715818381904 85.520526808365 54.6194588700483
   endloop
endfacet
facet normal -0.965925826289068 0.258819045102523 0.0
   outer loop
      vertex -208.715818381904 85.520526808365 50.6584812700484
      vertex -208.517578480997 85.9991202657396 54.6194588700483
      vertex -208.517578480997 85.9991202657396 50.6584812700484
   endloop
endfacet
facet normal 0.707106781186548 0.707106781186548 0.0
   outer loop
      vertex -211.837502561456 85.1095492894479 54.6194588700483
      vertex -211.426525042539 84.7941951477302 50.6584812700484
      vertex -211.837502561456 85.1095492894479 50.6584812700484
   endloop
endfacet
facet normal 0.707106781186548 0.707106781186548 0.0
   outer loop
      vertex -211.426525042539 84.7941951477302 50.6584812700484
      vertex -211.837502561456 85.1095492894479 54.6194588700483
      vertex -211.426525042539 84.7941951477302 54.6194588700483
   endloop
endfacet
facet normal 0.866025403784441 -0.499999999999995 0.0
   outer loop
      vertex -212.152856703174 87.504901808365 50.6584812700484
      vertex -212.351096604081 87.0263083509903 54.6194588700483
      vertex -212.351096604081 87.0263083509903 50.6584812700484
   endloop
endfacet
facet normal 0.866025403784441 -0.499999999999995 0.0
   outer loop
      vertex -212.351096604081 87.0263083509903 54.6194588700483
      vertex -212.152856703174 87.504901808365 50.6584812700484
      vertex -212.152856703174 87.504901808365 54.6194588700483
   endloop
endfacet
facet normal -1.0 1.40795536351221e-015 0.0
   outer loop
      vertex -208.449962542539 86.512714308365 54.6194588700483
      vertex -208.517578480997 85.9991202657396 50.6584812700484
      vertex -208.517578480997 85.9991202657396 54.6194588700483
   endloop
endfacet
facet normal -1.0 1.40795536351221e-015 0.0
   outer loop
      vertex -208.517578480997 85.9991202657396 50.6584812700484
      vertex -208.449962542539 86.512714308365 54.6194588700483
      vertex -208.449962542539 86.512714308365 50.6584812700484
   endloop
endfacet
facet normal 0.866025403784441 0.499999999999995 0.0
   outer loop
      vertex -212.152856703174 85.520526808365 50.6584812700484
      vertex -211.837502561456 85.1095492894479 54.6194588700483
      vertex -211.837502561456 85.1095492894479 50.6584812700484
   endloop
endfacet
facet normal 0.866025403784441 0.499999999999995 0.0
   outer loop
      vertex -211.837502561456 85.1095492894479 54.6194588700483
      vertex -212.152856703174 85.520526808365 50.6584812700484
      vertex -212.152856703174 85.520526808365 54.6194588700483
   endloop
endfacet
facet normal -0.965925826289067 -0.258819045102526 0.0
   outer loop
      vertex -208.517578480997 87.0263083509903 54.6194588700483
      vertex -208.449962542539 86.512714308365 50.6584812700484
      vertex -208.449962542539 86.512714308365 54.6194588700483
   endloop
endfacet
facet normal -0.965925826289067 -0.258819045102526 0.0
   outer loop
      vertex -208.449962542539 86.512714308365 50.6584812700484
      vertex -208.517578480997 87.0263083509903 54.6194588700483
      vertex -208.517578480997 87.0263083509903 50.6584812700484
   endloop
endfacet
facet normal 0.965925826289068 0.258819045102523 0.0
   outer loop
      vertex -212.351096604081 85.9991202657396 50.6584812700484
      vertex -212.152856703174 85.520526808365 54.6194588700483
      vertex -212.152856703174 85.520526808365 50.6584812700484
   endloop
endfacet
facet normal 0.965925826289068 0.258819045102523 0.0
   outer loop
      vertex -212.152856703174 85.520526808365 54.6194588700483
      vertex -212.351096604081 85.9991202657396 50.6584812700484
      vertex -212.351096604081 85.9991202657396 54.6194588700483
   endloop
endfacet
facet normal 0.707106781186548 -0.707106781186548 0.0
   outer loop
      vertex -211.837502561456 87.915879327282 50.6584812700484
      vertex -212.152856703174 87.504901808365 54.6194588700483
      vertex -212.152856703174 87.504901808365 50.6584812700484
   endloop
endfacet
facet normal 0.707106781186548 -0.707106781186548 0.0
   outer loop
      vertex -212.152856703174 87.504901808365 54.6194588700483
      vertex -211.837502561456 87.915879327282 50.6584812700484
      vertex -211.837502561456 87.915879327282 54.6194588700483
   endloop
endfacet
facet normal 0.258819045102523 0.965925826289068 0.0
   outer loop
      vertex -210.947931585164 84.5959552468226 54.6194588700483
      vertex -210.434337542539 84.528339308365 50.6584812700484
      vertex -210.947931585164 84.5959552468226 50.6584812700484
   endloop
endfacet
facet normal 0.258819045102523 0.965925826289068 0.0
   outer loop
      vertex -210.434337542539 84.528339308365 50.6584812700484
      vertex -210.947931585164 84.5959552468226 54.6194588700483
      vertex -210.434337542539 84.528339308365 54.6194588700483
   endloop
endfacet
facet normal 0.499999999999995 0.866025403784441 0.0
   outer loop
      vertex -211.426525042539 84.7941951477302 54.6194588700483
      vertex -210.947931585164 84.5959552468226 50.6584812700484
      vertex -211.426525042539 84.7941951477302 50.6584812700484
   endloop
endfacet
facet normal 0.499999999999995 0.866025403784441 0.0
   outer loop
      vertex -210.947931585164 84.5959552468226 50.6584812700484
      vertex -211.426525042539 84.7941951477302 54.6194588700483
      vertex -210.947931585164 84.5959552468226 54.6194588700483
   endloop
endfacet
facet normal 0.0 1.0 0.0
   outer loop
      vertex -210.434337542539 84.528339308365 54.6194588700483
      vertex -209.920743499914 84.5959552468226 50.6584812700484
      vertex -210.434337542539 84.528339308365 50.6584812700484
   endloop
endfacet
facet normal 0.0 1.0 0.0
   outer loop
      vertex -209.920743499914 84.5959552468226 50.6584812700484
      vertex -210.434337542539 84.528339308365 54.6194588700483
      vertex -209.920743499914 84.5959552468226 54.6194588700483
   endloop
endfacet
facet normal -0.866025403784441 0.499999999999995 0.0
   outer loop
      vertex -208.715818381904 85.520526808365 54.6194588700483
      vertex -209.031172523622 85.1095492894479 50.6584812700484
      vertex -209.031172523622 85.1095492894479 54.6194588700483
   endloop
endfacet
facet normal -0.866025403784441 0.499999999999995 0.0
   outer loop
      vertex -209.031172523622 85.1095492894479 50.6584812700484
      vertex -208.715818381904 85.520526808365 54.6194588700483
      vertex -208.715818381904 85.520526808365 50.6584812700484
   endloop
endfacet
facet normal -0.159116503194788 -0.987259813023433 0.0
   outer loop
      vertex -178.91543623077 76.4824946116429 69.7084812700483
      vertex -189.995275042539 78.2682304275185 50.6584812700484
      vertex -178.91543623077 76.4824946116429 50.6584812700484
   endloop
endfacet
facet normal -0.159116503194788 -0.987259813023433 0.0
   outer loop
      vertex -189.995275042539 78.2682304275185 50.6584812700484
      vertex -178.91543623077 76.4824946116429 69.7084812700483
      vertex -189.995275042539 78.2682304275185 69.7084812700483
   endloop
endfacet
facet normal 0.5 -0.866025403784438 0.0
   outer loop
      vertex -178.91543623077 96.6328251242405 69.7084812700483
      vertex -186.820275042539 92.068964308365 50.6584812700484
      vertex -178.91543623077 96.6328251242405 50.6584812700484
   endloop
endfacet
facet normal 0.5 -0.866025403784438 0.0
   outer loop
      vertex -186.820275042539 92.068964308365 50.6584812700484
      vertex -178.91543623077 96.6328251242405 69.7084812700483
      vertex -186.820275042539 92.068964308365 69.7084812700483
   endloop
endfacet
facet normal 1.0 5.30041125024337e-016 -1.33209681626308e-030
   outer loop
      vertex -186.820275042539 92.068964308365 50.6584812700484
      vertex -186.820275042539 81.0463554275185 69.7084812700483
      vertex -186.820275042539 81.0463554275185 50.6584812700484
   endloop
endfacet
facet normal 1.0 5.30041125024337e-016 -1.33209681626308e-030
   outer loop
      vertex -186.820275042539 81.0463554275185 69.7084812700483
      vertex -186.820275042539 92.068964308365 50.6584812700484
      vertex -186.820275042539 81.4432304275186 69.7084812700483
   endloop
endfacet
facet normal 1.0 5.30041125024337e-016 -1.33209681626308e-030
   outer loop
      vertex -186.820275042539 81.4432304275186 69.7084812700483
      vertex -186.820275042539 92.068964308365 50.6584812700484
      vertex -186.820275042539 81.4432304275186 81.2100838700484
   endloop
endfacet
facet normal 1.0 5.30041125024337e-016 -1.33209681626308e-030
   outer loop
      vertex -186.820275042539 81.4432304275186 81.2100838700484
      vertex -186.820275042539 92.068964308365 50.6584812700484
      vertex -186.820275042539 91.672089308365 69.7084812700483
   endloop
endfacet
facet normal 1.0 5.30041125024337e-016 -1.33209681626308e-030
   outer loop
      vertex -186.820275042539 91.672089308365 69.7084812700483
      vertex -186.820275042539 92.068964308365 50.6584812700484
      vertex -186.820275042539 92.068964308365 69.7084812700483
   endloop
endfacet
facet normal 1.0 5.30041125024337e-016 -1.33209681626308e-030
   outer loop
      vertex -186.820275042539 91.672089308365 81.2100838700484
      vertex -186.820275042539 81.4432304275186 81.2100838700484
      vertex -186.820275042539 91.672089308365 69.7084812700483
   endloop
endfacet
facet normal -0.707106781186561 -0.707106781186534 0.0
   outer loop
      vertex -193.170275042539 81.4432304275186 69.7084812700483
      vertex -189.995275042539 78.2682304275185 50.6584812700484
      vertex -189.995275042539 78.2682304275185 69.7084812700483
   endloop
endfacet
facet normal -0.707106781186561 -0.707106781186534 0.0
   outer loop
      vertex -189.995275042539 78.2682304275185 50.6584812700484
      vertex -193.170275042539 81.4432304275186 69.7084812700483
      vertex -193.170275042539 81.4432304275186 50.6584812700484
   endloop
endfacet
facet normal -0.707106781186561 -0.707106781186534 0.0
   outer loop
      vertex -193.170275042539 81.4432304275186 50.6584812700484
      vertex -193.170275042539 81.4432304275186 69.7084812700483
      vertex -193.170275042539 81.4432304275186 57.7944588700484
   endloop
endfacet
facet normal 0.500000000000002 0.866025403784437 0.0
   outer loop
      vertex -186.820275042539 81.0463554275185 69.7084812700483
      vertex -178.91543623077 76.4824946116429 50.6584812700484
      vertex -186.820275042539 81.0463554275185 50.6584812700484
   endloop
endfacet
facet normal 0.500000000000002 0.866025403784437 0.0
   outer loop
      vertex -178.91543623077 76.4824946116429 50.6584812700484
      vertex -186.820275042539 81.0463554275185 69.7084812700483
      vertex -178.91543623077 76.4824946116429 69.7084812700483
   endloop
endfacet
facet normal 0.0 0.0 1.0
   outer loop
      vertex -221.168188287176 81.4432304275186 57.7944588700484
      vertex -213.240667580373 83.7063842705308 57.7944588700484
      vertex -221.168188287176 91.672089308365 57.7944588700484
   endloop
endfacet
facet normal 0.0 0.0 1.0
   outer loop
      vertex -213.240667580373 83.7063842705308 57.7944588700484
      vertex -221.168188287176 81.4432304275186 57.7944588700484
      vertex -212.418712542539 83.0756759870955 57.7944588700484
   endloop
endfacet
facet normal 0.0 0.0 1.0
   outer loop
      vertex -212.418712542539 83.0756759870955 57.7944588700484
      vertex -221.168188287176 81.4432304275186 57.7944588700484
      vertex -211.46152562779 82.6791961852802 57.7944588700484
   endloop
endfacet
facet normal 0.0 0.0 1.0
   outer loop
      vertex -211.46152562779 82.6791961852802 57.7944588700484
      vertex -221.168188287176 81.4432304275186 57.7944588700484
      vertex -210.434337542539 82.543964308365 57.7944588700484
   endloop
endfacet
facet normal 0.0 0.0 1.0
   outer loop
      vertex -210.434337542539 82.543964308365 57.7944588700484
      vertex -221.168188287176 81.4432304275186 57.7944588700484
      vertex -193.170275042539 81.4432304275186 57.7944588700484
   endloop
endfacet
facet normal 0.0 0.0 1.0
   outer loop
      vertex -221.168188287176 91.672089308365 57.7944588700484
      vertex -213.240667580373 83.7063842705308 57.7944588700484
      vertex -213.871375863808 84.528339308365 57.7944588700484
   endloop
endfacet
facet normal 0.0 0.0 1.0
   outer loop
      vertex -221.168188287176 91.672089308365 57.7944588700484
      vertex -213.871375863808 84.528339308365 57.7944588700484
      vertex -214.267855665624 85.4855262231143 57.7944588700484
   endloop
endfacet
facet normal 0.0 0.0 1.0
   outer loop
      vertex -221.168188287176 91.672089308365 57.7944588700484
      vertex -214.267855665624 85.4855262231143 57.7944588700484
      vertex -214.403087542539 86.512714308365 57.7944588700484
   endloop
endfacet
facet normal 0.0 0.0 1.0
   outer loop
      vertex -210.434337542539 82.543964308365 57.7944588700484
      vertex -193.170275042539 81.4432304275186 57.7944588700484
      vertex -209.407149457288 82.6791961852802 57.7944588700484
   endloop
endfacet
facet normal 0.0 0.0 1.0
   outer loop
      vertex -209.407149457288 82.6791961852802 57.7944588700484
      vertex -193.170275042539 81.4432304275186 57.7944588700484
      vertex -208.449962542539 83.0756759870955 57.7944588700484
   endloop
endfacet
facet normal 0.0 0.0 1.0
   outer loop
      vertex -208.449962542539 83.0756759870955 57.7944588700484
      vertex -193.170275042539 81.4432304275186 57.7944588700484
      vertex -207.628007504705 83.7063842705308 57.7944588700484
   endloop
endfacet
facet normal 0.0 0.0 1.0
   outer loop
      vertex -207.628007504705 83.7063842705308 57.7944588700484
      vertex -193.170275042539 81.4432304275186 57.7944588700484
      vertex -206.997299221269 84.528339308365 57.7944588700484
   endloop
endfacet
facet normal 0.0 0.0 1.0
   outer loop
      vertex -206.997299221269 84.528339308365 57.7944588700484
      vertex -193.170275042539 81.4432304275186 57.7944588700484
      vertex -206.600819419454 85.4855262231143 57.7944588700484
   endloop
endfacet
facet normal 0.0 0.0 1.0
   outer loop
      vertex -206.600819419454 85.4855262231143 57.7944588700484
      vertex -193.170275042539 81.4432304275186 57.7944588700484
      vertex -206.465587542539 86.512714308365 57.7944588700484
   endloop
endfacet
facet normal 0.0 0.0 1.0
   outer loop
      vertex -206.465587542539 86.512714308365 57.7944588700484
      vertex -193.170275042539 81.4432304275186 57.7944588700484
      vertex -193.170275042539 91.672089308365 57.7944588700484
   endloop
endfacet
facet normal 0.0 0.0 1.0
   outer loop
      vertex -221.168188287176 91.672089308365 57.7944588700484
      vertex -210.434337542539 90.481464308365 57.7944588700484
      vertex -193.170275042539 91.672089308365 57.7944588700484
   endloop
endfacet
facet normal 0.0 0.0 1.0
   outer loop
      vertex -210.434337542539 90.481464308365 57.7944588700484
      vertex -221.168188287176 91.672089308365 57.7944588700484
      vertex -211.46152562779 90.3462324314497 57.7944588700484
   endloop
endfacet
facet normal 0.0 0.0 1.0
   outer loop
      vertex -211.46152562779 90.3462324314497 57.7944588700484
      vertex -221.168188287176 91.672089308365 57.7944588700484
      vertex -212.418712542539 89.9497526296344 57.7944588700484
   endloop
endfacet
facet normal 0.0 0.0 1.0
   outer loop
      vertex -212.418712542539 89.9497526296344 57.7944588700484
      vertex -221.168188287176 91.672089308365 57.7944588700484
      vertex -213.240667580373 89.3190443461991 57.7944588700484
   endloop
endfacet
facet normal 0.0 0.0 1.0
   outer loop
      vertex -213.240667580373 89.3190443461991 57.7944588700484
      vertex -221.168188287176 91.672089308365 57.7944588700484
      vertex -213.871375863808 88.497089308365 57.7944588700484
   endloop
endfacet
facet normal 0.0 0.0 1.0
   outer loop
      vertex -213.871375863808 88.497089308365 57.7944588700484
      vertex -221.168188287176 91.672089308365 57.7944588700484
      vertex -214.267855665624 87.5399023936156 57.7944588700484
   endloop
endfacet
facet normal 0.0 0.0 1.0
   outer loop
      vertex -214.267855665624 87.5399023936156 57.7944588700484
      vertex -221.168188287176 91.672089308365 57.7944588700484
      vertex -214.403087542539 86.512714308365 57.7944588700484
   endloop
endfacet
facet normal 0.0 0.0 1.0
   outer loop
      vertex -193.170275042539 91.672089308365 57.7944588700484
      vertex -210.434337542539 90.481464308365 57.7944588700484
      vertex -209.407149457288 90.3462324314497 57.7944588700484
   endloop
endfacet
facet normal 0.0 0.0 1.0
   outer loop
      vertex -193.170275042539 91.672089308365 57.7944588700484
      vertex -209.407149457288 90.3462324314497 57.7944588700484
      vertex -208.449962542539 89.9497526296344 57.7944588700484
   endloop
endfacet
facet normal 0.0 0.0 1.0
   outer loop
      vertex -193.170275042539 91.672089308365 57.7944588700484
      vertex -208.449962542539 89.9497526296344 57.7944588700484
      vertex -207.628007504705 89.3190443461991 57.7944588700484
   endloop
endfacet
facet normal 0.0 0.0 1.0
   outer loop
      vertex -193.170275042539 91.672089308365 57.7944588700484
      vertex -207.628007504705 89.3190443461991 57.7944588700484
      vertex -206.997299221269 88.497089308365 57.7944588700484
   endloop
endfacet
facet normal 0.0 0.0 1.0
   outer loop
      vertex -193.170275042539 91.672089308365 57.7944588700484
      vertex -206.997299221269 88.497089308365 57.7944588700484
      vertex -206.600819419454 87.5399023936156 57.7944588700484
   endloop
endfacet
facet normal 0.0 0.0 1.0
   outer loop
      vertex -193.170275042539 91.672089308365 57.7944588700484
      vertex -206.600819419454 87.5399023936156 57.7944588700484
      vertex -206.465587542539 86.512714308365 57.7944588700484
   endloop
endfacet
facet normal -1.0 -5.51374599140932e-016 9.8847980655636e-046
   outer loop
      vertex -193.170275042539 91.672089308365 69.7084812700483
      vertex -193.170275042539 81.4432304275186 57.7944588700484
      vertex -193.170275042539 81.4432304275186 69.7084812700483
   endloop
endfacet
facet normal -1.0 -5.51374599140932e-016 9.8847980655636e-046
   outer loop
      vertex -193.170275042539 81.4432304275186 57.7944588700484
      vertex -193.170275042539 91.672089308365 69.7084812700483
      vertex -193.170275042539 91.672089308365 57.7944588700484
   endloop
endfacet
facet normal -0.707106781186548 0.707106781186548 0.0
   outer loop
      vertex -189.995275042539 94.847089308365 69.7084812700483
      vertex -193.170275042539 91.672089308365 57.7944588700484
      vertex -193.170275042539 91.672089308365 69.7084812700483
   endloop
endfacet
facet normal -0.707106781186548 0.707106781186548 0.0
   outer loop
      vertex -193.170275042539 91.672089308365 57.7944588700484
      vertex -189.995275042539 94.847089308365 69.7084812700483
      vertex -193.170275042539 91.672089308365 50.6584812700484
   endloop
endfacet
facet normal -0.707106781186548 0.707106781186548 0.0
   outer loop
      vertex -193.170275042539 91.672089308365 50.6584812700484
      vertex -189.995275042539 94.847089308365 69.7084812700483
      vertex -189.995275042539 94.847089308365 50.6584812700484
   endloop
endfacet
facet normal 0.0 0.0 1.0
   outer loop
      vertex -188.407775042539 81.4432304275186 81.2100838700484
      vertex -186.820275042539 91.672089308365 81.2100838700484
      vertex -188.407775042539 91.672089308365 81.2100838700484
   endloop
endfacet
facet normal 0.0 0.0 1.0
   outer loop
      vertex -186.820275042539 91.672089308365 81.2100838700484
      vertex -188.407775042539 81.4432304275186 81.2100838700484
      vertex -186.820275042539 81.4432304275186 81.2100838700484
   endloop
endfacet
facet normal -1.0 -5.51374599140932e-016 -0.0
   outer loop
      vertex -188.407775042539 91.672089308365 81.2100838700484
      vertex -188.407775042539 81.4432304275186 69.7084812700483
      vertex -188.407775042539 81.4432304275186 81.2100838700484
   endloop
endfacet
facet normal -1.0 -5.51374599140932e-016 -0.0
   outer loop
      vertex -188.407775042539 81.4432304275186 69.7084812700483
      vertex -188.407775042539 91.672089308365 81.2100838700484
      vertex -188.407775042539 91.672089308365 69.7084812700483
   endloop
endfacet
facet normal 0.0 1.0 0.0
   outer loop
      vertex -188.407775042539 91.672089308365 81.2100838700484
      vertex -186.820275042539 91.672089308365 69.7084812700483
      vertex -188.407775042539 91.672089308365 69.7084812700483
   endloop
endfacet
facet normal 0.0 1.0 0.0
   outer loop
      vertex -186.820275042539 91.672089308365 69.7084812700483
      vertex -188.407775042539 91.672089308365 81.2100838700484
      vertex -186.820275042539 91.672089308365 81.2100838700484
   endloop
endfacet
facet normal 0.0 -1.0 0.0
   outer loop
      vertex -186.820275042539 81.4432304275186 81.2100838700484
      vertex -188.407775042539 81.4432304275186 69.7084812700483
      vertex -186.820275042539 81.4432304275186 69.7084812700483
   endloop
endfacet
facet normal 0.0 -1.0 0.0
   outer loop
      vertex -188.407775042539 81.4432304275186 69.7084812700483
      vertex -186.820275042539 81.4432304275186 81.2100838700484
      vertex -188.407775042539 81.4432304275186 81.2100838700484
   endloop
endfacet
endsolid NEW_X-Z_motor
