solid Milk Strap B_1_a
facet normal -4.36925808237273e-010 -4.04752648416748e-011 -1.0
   outer loop
      vertex 529.468099762685 -947.283719947886 -150.507860424659
      vertex 529.467957801844 -951.77835506877 -150.507860416816
      vertex 521.003942898399 -947.283719951516 -150.507860426491
   endloop
endfacet
facet normal -4.36925808237273e-010 -4.04752648416748e-011 -1.0
   outer loop
      vertex 529.467957801844 -951.77835506877 -150.507860416816
      vertex 529.468099762685 -947.283719947886 -150.507860424659
      vertex 529.468099762685 -948.701979584344 -150.507860424659
   endloop
endfacet
facet normal -4.36925808237273e-010 -4.04752648416748e-011 -1.0
   outer loop
      vertex 529.467957801844 -951.77835506877 -150.507860416816
      vertex 529.468099762685 -948.701979584344 -150.507860424659
      vertex 541.784699603983 -951.778647794057 -150.507860433959
   endloop
endfacet
facet normal -4.36925808237273e-010 -4.04752648416748e-011 -1.0
   outer loop
      vertex 541.784699603983 -951.778647794057 -150.507860433959
      vertex 529.468099762685 -948.701979584344 -150.507860424659
      vertex 541.784740953993 -948.702087874023 -150.507860433959
   endloop
endfacet
facet normal -4.36925808237273e-010 -4.04752648416748e-011 -1.0
   outer loop
      vertex 521.003942898399 -947.283719951516 -150.507860426491
      vertex 529.468099762685 -956.603355160696 -150.507860425439
      vertex 521.003925686169 -956.603355160696 -150.507860425439
   endloop
endfacet
facet normal -4.36925808237273e-010 -4.04752648416748e-011 -1.0
   outer loop
      vertex 529.468099762685 -956.603355160696 -150.507860425439
      vertex 521.003942898399 -947.283719951516 -150.507860426491
      vertex 529.467957801844 -951.77835506877 -150.507860416816
   endloop
endfacet
facet normal -1.46590311277103e-014 0.68747627197396 -0.726206840695395
   outer loop
      vertex 529.468099762685 -942.142714397673 -142.778699150437
      vertex 521.00409906078 -944.215354672415 -144.740799931335
      vertex 521.00409906078 -942.142714397674 -142.778699150437
   endloop
endfacet
facet normal -1.46590311277103e-014 0.68747627197396 -0.726206840695395
   outer loop
      vertex 521.00409906078 -944.215354672415 -144.740799931335
      vertex 529.468099762685 -942.142714397673 -142.778699150437
      vertex 529.468099762685 -944.215354672415 -144.740799931335
   endloop
endfacet
facet normal -0.999999903582929 0.000253212565870363 0.0003587722524156
   outer loop
      vertex 521.00409906078 -956.603355160696 -132.92879584198
      vertex 521.005524951902 -952.287354877934 -141.936798778822
      vertex 521.003925686169 -956.603355160696 -150.507860425439
   endloop
endfacet
facet normal -0.999999903582929 0.000253212565870363 0.0003587722524156
   outer loop
      vertex 521.005524951902 -952.287354877934 -141.936798778822
      vertex 521.00409906078 -956.603355160696 -132.92879584198
      vertex 521.005698534459 -951.095355442509 -140.744799343397
   endloop
endfacet
facet normal -0.999999903582929 0.000253212565870363 0.0003587722524156
   outer loop
      vertex 521.005698534459 -951.095355442509 -140.744799343397
      vertex 521.00409906078 -956.603355160696 -132.92879584198
      vertex 521.015937141101 -942.144108415797 -132.919011237779
   endloop
endfacet
facet normal -0.999999903582929 0.000253212565870363 0.0003587722524156
   outer loop
      vertex 521.005698534459 -951.095355442509 -140.744799343397
      vertex 521.015937141101 -942.144108415797 -132.919011237779
      vertex 521.005698534459 -949.413354328617 -140.744799343397
   endloop
endfacet
facet normal -0.999999903582929 0.000253212565870363 0.0003587722524156
   outer loop
      vertex 521.005698534459 -949.413354328617 -140.744799343397
      vertex 521.015937141101 -942.144108415797 -132.919011237779
      vertex 521.005745248926 -948.221354893192 -141.936798778822
   endloop
endfacet
facet normal -0.999999903582929 0.000253212565870363 0.0003587722524156
   outer loop
      vertex 521.005745248926 -948.221354893192 -141.936798778822
      vertex 521.015937141101 -942.144108415797 -132.919011237779
      vertex 521.005745248926 -948.221354893192 -143.618799892713
   endloop
endfacet
facet normal -0.999999903582929 0.000253212565870363 0.0003587722524156
   outer loop
      vertex 521.005745248926 -948.221354893192 -143.618799892713
      vertex 521.015937141101 -942.144108415797 -132.919011237779
      vertex 521.003942898399 -947.283719951516 -150.507860426491
   endloop
endfacet
facet normal -0.999999903582929 0.000253212565870363 0.0003587722524156
   outer loop
      vertex 521.003942898399 -947.283719951516 -150.507860426491
      vertex 521.015937141101 -942.144108415797 -132.919011237779
      vertex 521.00409906078 -946.555354825003 -148.894799259949
   endloop
endfacet
facet normal -0.999999903582929 0.000253212565870363 0.0003587722524156
   outer loop
      vertex 521.00409906078 -946.555354825003 -148.894799259949
      vertex 521.015937141101 -942.144108415797 -132.919011237779
      vertex 521.00409906078 -945.559354535086 -147.16679861908
   endloop
endfacet
facet normal -0.999999903582929 0.000253212565870363 0.0003587722524156
   outer loop
      vertex 521.00409906078 -945.559354535086 -147.16679861908
      vertex 521.015937141101 -942.144108415797 -132.919011237779
      vertex 521.00409906078 -945.083354702933 -146.444798497009
   endloop
endfacet
facet normal -0.999999903582929 0.000253212565870363 0.0003587722524156
   outer loop
      vertex 521.00409906078 -945.083354702933 -146.444798497009
      vertex 521.015937141101 -942.144108415797 -132.919011237779
      vertex 521.00409906078 -944.215354672415 -144.740799931335
   endloop
endfacet
facet normal -0.999999903582929 0.000253212565870363 0.0003587722524156
   outer loop
      vertex 521.00409906078 -944.215354672415 -144.740799931335
      vertex 521.015937141101 -942.144108415797 -132.919011237779
      vertex 521.00409906078 -942.142714397674 -142.778699150437
   endloop
endfacet
facet normal -0.999999903582929 0.000253212565870363 0.0003587722524156
   outer loop
      vertex 521.003925686169 -956.603355160696 -150.507860425439
      vertex 521.005524951902 -952.287354877934 -143.618799892713
      vertex 521.003942898399 -947.283719951516 -150.507860426491
   endloop
endfacet
facet normal -0.999999903582929 0.000253212565870363 0.0003587722524156
   outer loop
      vertex 521.005524951902 -952.287354877934 -143.618799892713
      vertex 521.003925686169 -956.603355160696 -150.507860425439
      vertex 521.005524951902 -952.287354877934 -141.936798778822
   endloop
endfacet
facet normal -0.999999903582929 0.000253212565870363 0.0003587722524156
   outer loop
      vertex 521.003942898399 -947.283719951516 -150.507860426491
      vertex 521.005524951902 -952.287354877934 -143.618799892713
      vertex 521.005417859581 -951.095355442509 -144.810799328138
   endloop
endfacet
facet normal -0.999999903582929 0.000253212565870363 0.0003587722524156
   outer loop
      vertex 521.003942898399 -947.283719951516 -150.507860426491
      vertex 521.005417859581 -951.095355442509 -144.810799328138
      vertex 521.005417859581 -949.413354328617 -144.810799328138
   endloop
endfacet
facet normal -0.999999903582929 0.000253212565870363 0.0003587722524156
   outer loop
      vertex 521.003942898399 -947.283719951516 -150.507860426491
      vertex 521.005417859581 -949.413354328617 -144.810799328138
      vertex 521.005745248926 -948.221354893192 -143.618799892713
   endloop
endfacet
facet normal 0.99999999999781 -1.59238790885923e-006 -1.35798802347616e-006
   outer loop
      vertex 529.467957801844 -951.77835506877 -150.507860416816
      vertex 529.468099762685 -956.603355160696 -132.92879584198
      vertex 529.468099762685 -956.603355160696 -150.507860425439
   endloop
endfacet
facet normal 0.99999999999781 -1.59238790885923e-006 -1.35798802347616e-006
   outer loop
      vertex 529.468099762685 -956.603355160696 -132.92879584198
      vertex 529.467957801844 -951.77835506877 -150.507860416816
      vertex 529.468099762685 -952.287355175955 -143.618798283386
   endloop
endfacet
facet normal 0.99999999999781 -1.59238790885923e-006 -1.35798802347616e-006
   outer loop
      vertex 529.468099762685 -952.287355175955 -143.618798283386
      vertex 529.467957801844 -951.77835506877 -150.507860416816
      vertex 529.468099762685 -951.778355069075 -147.98579962616
   endloop
endfacet
facet normal 0.99999999999781 -1.59238790885923e-006 -1.35798802347616e-006
   outer loop
      vertex 529.468099762685 -951.778355069075 -147.98579962616
      vertex 529.468099762685 -951.09535574053 -144.81079962616
      vertex 529.468099762685 -952.287355175955 -143.618798283386
   endloop
endfacet
facet normal 0.99999999999781 -1.59238790885923e-006 -1.35798802347616e-006
   outer loop
      vertex 529.468099762685 -951.09535574053 -144.81079962616
      vertex 529.468099762685 -951.778355069075 -147.98579962616
      vertex 529.468099762685 -948.702087874023 -147.985969099034
   endloop
endfacet
facet normal 0.99999999999781 -1.59238790885923e-006 -1.35798802347616e-006
   outer loop
      vertex 529.468099762685 -951.09535574053 -144.81079962616
      vertex 529.468099762685 -948.702087874023 -147.985969099034
      vertex 529.468099762685 -949.413354626639 -144.81079962616
   endloop
endfacet
facet normal 0.99999999999781 -1.59238790885923e-006 -1.35798802347616e-006
   outer loop
      vertex 529.468099762685 -949.413354626639 -144.81079962616
      vertex 529.468099762685 -948.702087874023 -147.985969099034
      vertex 529.468099762685 -948.221355191214 -143.618798283386
   endloop
endfacet
facet normal 0.99999999999781 -1.59238790885923e-006 -1.35798802347616e-006
   outer loop
      vertex 529.468099762685 -948.221355191214 -143.618798283386
      vertex 529.468099762685 -948.702087874023 -147.985969099034
      vertex 529.468099762685 -948.701979584344 -150.507860424659
   endloop
endfacet
facet normal 0.99999999999781 -1.59238790885923e-006 -1.35798802347616e-006
   outer loop
      vertex 529.468099762685 -948.221355191214 -143.618798283386
      vertex 529.468099762685 -948.701979584344 -150.507860424659
      vertex 529.468099762685 -947.283719947886 -150.507860424659
   endloop
endfacet
facet normal 0.99999999999781 -1.59238790885923e-006 -1.35798802347616e-006
   outer loop
      vertex 529.468099762685 -948.221355191214 -143.618798283386
      vertex 529.468099762685 -947.283719947886 -150.507860424659
      vertex 529.468099762685 -948.221355191214 -141.936799076843
   endloop
endfacet
facet normal 0.99999999999781 -1.59238790885923e-006 -1.35798802347616e-006
   outer loop
      vertex 529.468099762685 -956.603355160696 -132.92879584198
      vertex 529.468099762685 -951.09535574053 -140.74479773407
      vertex 529.468099762685 -942.142714397673 -132.92879584198
   endloop
endfacet
facet normal 0.99999999999781 -1.59238790885923e-006 -1.35798802347616e-006
   outer loop
      vertex 529.468099762685 -951.09535574053 -140.74479773407
      vertex 529.468099762685 -956.603355160696 -132.92879584198
      vertex 529.468099762685 -952.287355175955 -141.936799076843
   endloop
endfacet
facet normal 0.99999999999781 -1.59238790885923e-006 -1.35798802347616e-006
   outer loop
      vertex 529.468099762685 -952.287355175955 -141.936799076843
      vertex 529.468099762685 -956.603355160696 -132.92879584198
      vertex 529.468099762685 -952.287355175955 -143.618798283386
   endloop
endfacet
facet normal 0.99999999999781 -1.59238790885923e-006 -1.35798802347616e-006
   outer loop
      vertex 529.468099762685 -942.142714397673 -132.92879584198
      vertex 529.468099762685 -951.09535574053 -140.74479773407
      vertex 529.468099762685 -949.413354626639 -140.74479773407
   endloop
endfacet
facet normal 0.99999999999781 -1.59238790885923e-006 -1.35798802347616e-006
   outer loop
      vertex 529.468099762685 -942.142714397673 -132.92879584198
      vertex 529.468099762685 -949.413354626639 -140.74479773407
      vertex 529.468099762685 -948.221355191214 -141.936799076843
   endloop
endfacet
facet normal 0.99999999999781 -1.59238790885923e-006 -1.35798802347616e-006
   outer loop
      vertex 529.468099762685 -942.142714397673 -132.92879584198
      vertex 529.468099762685 -948.221355191214 -141.936799076843
      vertex 529.468099762685 -947.283719947886 -150.507860424659
   endloop
endfacet
facet normal 0.99999999999781 -1.59238790885923e-006 -1.35798802347616e-006
   outer loop
      vertex 529.468099762685 -942.142714397673 -132.92879584198
      vertex 529.468099762685 -947.283719947886 -150.507860424659
      vertex 529.468099762685 -946.555354825003 -148.894799259949
   endloop
endfacet
facet normal 0.99999999999781 -1.59238790885923e-006 -1.35798802347616e-006
   outer loop
      vertex 529.468099762685 -942.142714397673 -132.92879584198
      vertex 529.468099762685 -946.555354825003 -148.894799259949
      vertex 529.468099762685 -945.559354535086 -147.16679861908
   endloop
endfacet
facet normal 0.99999999999781 -1.59238790885923e-006 -1.35798802347616e-006
   outer loop
      vertex 529.468099762685 -942.142714397673 -132.92879584198
      vertex 529.468099762685 -945.559354535086 -147.16679861908
      vertex 529.468099762685 -945.083354702933 -146.444798497009
   endloop
endfacet
facet normal 0.99999999999781 -1.59238790885923e-006 -1.35798802347616e-006
   outer loop
      vertex 529.468099762685 -942.142714397673 -132.92879584198
      vertex 529.468099762685 -945.083354702933 -146.444798497009
      vertex 529.468099762685 -944.215354672415 -144.740799931335
   endloop
endfacet
facet normal 0.99999999999781 -1.59238790885923e-006 -1.35798802347616e-006
   outer loop
      vertex 529.468099762685 -942.142714397673 -132.92879584198
      vertex 529.468099762685 -944.215354672415 -144.740799931335
      vertex 529.468099762685 -942.142714397673 -142.778699150437
   endloop
endfacet
facet normal 4.39605710604771e-006 0.999999999759859 2.1469897640243e-005
   outer loop
      vertex 529.468099762685 -948.701979584344 -150.507860424659
      vertex 541.784782304003 -948.702087874023 -147.985969099034
      vertex 541.784740953993 -948.702087874023 -150.507860433959
   endloop
endfacet
facet normal 4.39605710604771e-006 0.999999999759859 2.1469897640243e-005
   outer loop
      vertex 541.784782304003 -948.702087874023 -147.985969099034
      vertex 529.468099762685 -948.701979584344 -150.507860424659
      vertex 529.468099762685 -948.702087874023 -147.985969099034
   endloop
endfacet
facet normal 6.88062972353397e-006 2.75386498179697e-005 0.99999999959714
   outer loop
      vertex 541.784782304003 -951.779088209648 -147.985969099034
      vertex 529.468099762685 -948.702087874023 -147.985969099034
      vertex 529.468099762685 -951.778355069075 -147.98579962616
   endloop
endfacet
facet normal 6.88062972353397e-006 2.75386498179697e-005 0.99999999959714
   outer loop
      vertex 529.468099762685 -948.702087874023 -147.985969099034
      vertex 541.784782304003 -951.779088209648 -147.985969099034
      vertex 541.784782304003 -948.702087874023 -147.985969099034
   endloop
endfacet
facet normal -8.2308852128785e-005 0.999999994105423 7.08124865233733e-005
   outer loop
      vertex 521.015937141101 -942.144108415797 -132.919011237779
      vertex 529.468099762685 -942.142714397673 -142.778699150437
      vertex 521.00409906078 -942.142714397674 -142.778699150437
   endloop
endfacet
facet normal -8.2308852128785e-005 0.999999994105423 7.08124865233733e-005
   outer loop
      vertex 529.468099762685 -942.142714397673 -142.778699150437
      vertex 521.015937141101 -942.144108415797 -132.919011237779
      vertex 529.468099762685 -942.142714397673 -132.92879584198
   endloop
endfacet
facet normal 0.999999999674964 -6.71920788674029e-006 -2.45952290156327e-005
   outer loop
      vertex 541.784699603983 -951.778647794057 -150.507860433959
      vertex 541.784782304003 -948.702087874023 -147.985969099034
      vertex 541.784782304003 -951.779088209648 -147.985969099034
   endloop
endfacet
facet normal 0.999999999674964 -6.71920788674029e-006 -2.45952290156327e-005
   outer loop
      vertex 541.784782304003 -948.702087874023 -147.985969099034
      vertex 541.784699603983 -951.778647794057 -150.507860433959
      vertex 541.784740953993 -948.702087874023 -150.507860433959
   endloop
endfacet
facet normal -4.16458377835277e-005 -0.99999999532122 -8.73108486220437e-005
   outer loop
      vertex 541.784782304003 -951.779088209648 -147.985969099034
      vertex 529.467957801844 -951.77835506877 -150.507860416816
      vertex 541.784699603983 -951.778647794057 -150.507860433959
   endloop
endfacet
facet normal -4.16458377835277e-005 -0.99999999532122 -8.73108486220437e-005
   outer loop
      vertex 529.467957801844 -951.77835506877 -150.507860416816
      vertex 541.784782304003 -951.779088209648 -147.985969099034
      vertex 529.468099762685 -951.778355069075 -147.98579962616
   endloop
endfacet
facet normal -7.96850794663276e-008 -0.707107064045982 0.707106498326996
   outer loop
      vertex 529.468099762685 -948.221355191214 -143.618798283386
      vertex 521.005417859581 -949.413354328617 -144.810799328138
      vertex 529.468099762685 -949.413354626639 -144.81079962616
   endloop
endfacet
facet normal -7.96850794663276e-008 -0.707107064045982 0.707106498326996
   outer loop
      vertex 521.005417859581 -949.413354328617 -144.810799328138
      vertex 529.468099762685 -948.221355191214 -143.618798283386
      vertex 521.005745248926 -948.221354893192 -143.618799892713
   endloop
endfacet
facet normal 3.52159561614501e-008 -9.45634108814156e-022 1.0
   outer loop
      vertex 529.468099762685 -951.09535574053 -144.81079962616
      vertex 521.005417859581 -949.413354328617 -144.810799328138
      vertex 521.005417859581 -951.095355442509 -144.810799328138
   endloop
endfacet
facet normal 3.52159561614501e-008 -9.45634108814156e-022 1.0
   outer loop
      vertex 521.005417859581 -949.413354328617 -144.810799328138
      vertex 529.468099762685 -951.09535574053 -144.81079962616
      vertex 529.468099762685 -949.413354626639 -144.81079962616
   endloop
endfacet
facet normal -2.9881857896699e-008 0.707107064050784 0.707106498322198
   outer loop
      vertex 521.005417859581 -951.095355442509 -144.810799328138
      vertex 529.468099762685 -952.287355175955 -143.618798283386
      vertex 529.468099762685 -951.09535574053 -144.81079962616
   endloop
endfacet
facet normal -2.9881857896699e-008 0.707107064050784 0.707106498322198
   outer loop
      vertex 529.468099762685 -952.287355175955 -143.618798283386
      vertex 521.005417859581 -951.095355442509 -144.810799328138
      vertex 521.005524951902 -952.287354877934 -143.618799892713
   endloop
endfacet
facet normal 2.98834571380133e-008 -0.707107064051748 -0.707106498321234
   outer loop
      vertex 529.468099762685 -949.413354626639 -140.74479773407
      vertex 521.005745248926 -948.221354893192 -141.936798778822
      vertex 529.468099762685 -948.221355191214 -141.936799076843
   endloop
endfacet
facet normal 2.98834571380133e-008 -0.707107064051748 -0.707106498321234
   outer loop
      vertex 521.005745248926 -948.221354893192 -141.936798778822
      vertex 529.468099762685 -949.413354626639 -140.74479773407
      vertex 521.005698534459 -949.413354328617 -140.744799343397
   endloop
endfacet
facet normal 7.96860784852187e-008 0.707107064048552 -0.707106498324425
   outer loop
      vertex 521.005524951902 -952.287354877934 -141.936798778822
      vertex 529.468099762685 -951.09535574053 -140.74479773407
      vertex 529.468099762685 -952.287355175955 -141.936799076843
   endloop
endfacet
facet normal 7.96860784852187e-008 0.707107064048552 -0.707106498324425
   outer loop
      vertex 529.468099762685 -951.09535574053 -140.74479773407
      vertex 521.005524951902 -952.287354877934 -141.936798778822
      vertex 521.005698534459 -951.095355442509 -140.744799343397
   endloop
endfacet
facet normal 1.9017380670547e-007 -5.00870668201366e-021 -0.999999999999982
   outer loop
      vertex 529.468099762685 -949.413354626639 -140.74479773407
      vertex 521.005698534459 -951.095355442509 -140.744799343397
      vertex 521.005698534459 -949.413354328617 -140.744799343397
   endloop
endfacet
facet normal 1.9017380670547e-007 -5.00870668201366e-021 -0.999999999999982
   outer loop
      vertex 521.005698534459 -951.095355442509 -140.744799343397
      vertex 529.468099762685 -949.413354626639 -140.74479773407
      vertex 529.468099762685 -951.09535574053 -140.74479773407
   endloop
endfacet
facet normal -3.52173212529888e-008 -1.0 3.97883973507908e-024
   outer loop
      vertex 529.468099762685 -948.221355191214 -143.618798283386
      vertex 521.005745248926 -948.221354893192 -141.936798778822
      vertex 521.005745248926 -948.221354893192 -143.618799892713
   endloop
endfacet
facet normal -3.52173212529888e-008 -1.0 3.97883973507908e-024
   outer loop
      vertex 521.005745248926 -948.221354893192 -141.936798778822
      vertex 529.468099762685 -948.221355191214 -143.618798283386
      vertex 529.468099762685 -948.221355191214 -141.936799076843
   endloop
endfacet
facet normal 3.52164044786918e-008 1.0 1.65666734460279e-024
   outer loop
      vertex 521.005524951902 -952.287354877934 -141.936798778822
      vertex 529.468099762685 -952.287355175955 -143.618798283386
      vertex 521.005524951902 -952.287354877934 -143.618799892713
   endloop
endfacet
facet normal 3.52164044786918e-008 1.0 1.65666734460279e-024
   outer loop
      vertex 529.468099762685 -952.287355175955 -143.618798283386
      vertex 521.005524951902 -952.287354877934 -141.936798778822
      vertex 529.468099762685 -952.287355175955 -141.936799076843
   endloop
endfacet
facet normal 0.0 0.891055297837009 -0.453894763350051
   outer loop
      vertex 521.00409906078 -944.215354672415 -144.740799931335
      vertex 529.468099762685 -945.083354702933 -146.444798497009
      vertex 521.00409906078 -945.083354702933 -146.444798497009
   endloop
endfacet
facet normal 0.0 0.891055297837009 -0.453894763350051
   outer loop
      vertex 529.468099762685 -945.083354702933 -146.444798497009
      vertex 521.00409906078 -944.215354672415 -144.740799931335
      vertex 529.468099762685 -944.215354672415 -144.740799931335
   endloop
endfacet
facet normal -1.5091246255598e-010 0.911394782805852 -0.411533169834793
   outer loop
      vertex 521.00409906078 -946.555354825003 -148.894799259949
      vertex 529.468099762685 -947.283719947886 -150.507860424659
      vertex 521.003942898399 -947.283719951516 -150.507860426491
   endloop
endfacet
facet normal -1.5091246255598e-010 0.911394782805852 -0.411533169834793
   outer loop
      vertex 529.468099762685 -947.283719947886 -150.507860424659
      vertex 521.00409906078 -946.555354825003 -148.894799259949
      vertex 529.468099762685 -946.555354825003 -148.894799259949
   endloop
endfacet
facet normal 0.000578040124698505 -0.000338555001659027 0.999999775625038
   outer loop
      vertex 529.468099762685 -956.603355160696 -132.92879584198
      vertex 521.015937141101 -942.144108415797 -132.919011237779
      vertex 521.00409906078 -956.603355160696 -132.92879584198
   endloop
endfacet
facet normal 0.000578040124698505 -0.000338555001659027 0.999999775625038
   outer loop
      vertex 521.015937141101 -942.144108415797 -132.919011237779
      vertex 529.468099762685 -956.603355160696 -132.92879584198
      vertex 529.468099762685 -942.142714397673 -132.92879584198
   endloop
endfacet
facet normal 0.0 -1.0 0.0
   outer loop
      vertex 529.468099762685 -956.603355160696 -132.92879584198
      vertex 521.003925686169 -956.603355160696 -150.507860425439
      vertex 529.468099762685 -956.603355160696 -150.507860425439
   endloop
endfacet
facet normal 0.0 -1.0 0.0
   outer loop
      vertex 521.003925686169 -956.603355160696 -150.507860425439
      vertex 529.468099762685 -956.603355160696 -132.92879584198
      vertex 521.00409906078 -956.603355160696 -132.92879584198
   endloop
endfacet
facet normal 3.67221367657067e-016 0.834885875196061 -0.550423087631784
   outer loop
      vertex 521.00409906078 -945.083354702933 -146.444798497009
      vertex 529.468099762685 -945.559354535086 -147.16679861908
      vertex 521.00409906078 -945.559354535086 -147.16679861908
   endloop
endfacet
facet normal 3.67221367657067e-016 0.834885875196061 -0.550423087631784
   outer loop
      vertex 529.468099762685 -945.559354535086 -147.16679861908
      vertex 521.00409906078 -945.083354702933 -146.444798497009
      vertex 529.468099762685 -945.083354702933 -146.444798497009
   endloop
endfacet
facet normal 2.16724414662623e-005 0.866388246203936 -0.499371010742487
   outer loop
      vertex 521.00409906078 -945.559354535086 -147.16679861908
      vertex 529.468099762685 -946.555354825003 -148.894799259949
      vertex 521.00409906078 -946.555354825003 -148.894799259949
   endloop
endfacet
facet normal 2.16724414662623e-005 0.866388246203936 -0.499371010742487
   outer loop
      vertex 529.468099762685 -946.555354825003 -148.894799259949
      vertex 521.00409906078 -945.559354535086 -147.16679861908
      vertex 529.468099762685 -945.559354535086 -147.16679861908
   endloop
endfacet
endsolid Milk Strap B_1_a
