solid Milk Strap B_1_a
facet normal 4.80118004486123e-006 -0.999999999988306 -5.80436377384181e-007
   outer loop
      vertex 524.731857305594 78.0359023556643 -144.982539374904
      vertex 520.494267985037 78.0358942335356 -151.332539374852
      vertex 524.731857305555 78.0359063139392 -167.843791417232
   endloop
endfacet
facet normal 4.80118004486123e-006 -0.999999999988306 -5.80436377384181e-007
   outer loop
      vertex 520.494267985037 78.0358942335356 -151.332539374852
      vertex 524.731857305594 78.0359023556643 -144.982539374904
      vertex 517.319271133957 78.0358615043422 -144.982539374892
   endloop
endfacet
facet normal 4.80118004486123e-006 -0.999999999988306 -5.80436377384181e-007
   outer loop
      vertex 524.731857305555 78.0359063139392 -167.843791417232
      vertex 520.494267985037 78.0358942335356 -151.332539374852
      vertex 520.494267985027 78.0358959926676 -161.492539374845
   endloop
endfacet
facet normal 4.80118004486123e-006 -0.999999999988306 -5.80436377384181e-007
   outer loop
      vertex 520.494267985037 78.0358942335356 -151.332539374852
      vertex 517.319271133957 78.0358615043422 -144.982539374892
      vertex 517.319271133954 78.0358620540693 -148.157539374854
   endloop
endfacet
facet normal 4.80118004486123e-006 -0.999999999988306 -5.80436377384181e-007
   outer loop
      vertex 520.494267984997 78.0358970923491 -167.843791417218
      vertex 524.731857305555 78.0359063139392 -167.843791417232
      vertex 520.494267985027 78.0358959926676 -161.492539374845
   endloop
endfacet
facet normal -4.80112389031227e-006 0.999999999988306 5.80440959890133e-007
   outer loop
      vertex 520.494141465973 90.7358970921009 -167.843789218324
      vertex 524.731829668625 90.7359023556341 -144.982537175979
      vertex 524.731829668619 90.7359063139006 -167.843789218316
   endloop
endfacet
facet normal -4.80112389031227e-006 0.999999999988306 5.80440959890133e-007
   outer loop
      vertex 524.731829668625 90.7359023556341 -144.982537175979
      vertex 520.494141465973 90.7358970921009 -167.843789218324
      vertex 520.494141465961 90.7358942332899 -151.332537175937
   endloop
endfacet
facet normal -4.80112389031227e-006 0.999999999988306 5.80440959890133e-007
   outer loop
      vertex 524.731829668625 90.7359023556341 -144.982537175979
      vertex 520.494141465961 90.7358942332899 -151.332537175937
      vertex 517.319144614881 90.7358615040968 -144.982537175989
   endloop
endfacet
facet normal -4.80112389031227e-006 0.999999999988306 5.80440959890133e-007
   outer loop
      vertex 520.494141465961 90.7358942332899 -151.332537175937
      vertex 520.494141465973 90.7358970921009 -167.843789218324
      vertex 520.494141465952 90.7358959924222 -161.492537175942
   endloop
endfacet
facet normal -4.80112389031227e-006 0.999999999988306 5.80440959890133e-007
   outer loop
      vertex 517.319144614881 90.7358615040968 -144.982537175989
      vertex 520.494141465961 90.7358942332899 -151.332537175937
      vertex 517.319144614878 90.7358620538239 -148.157537175951
   endloop
endfacet
facet normal -0.707105242422394 -0.707108319947342 -1.22434667724921e-007
   outer loop
      vertex 497.853081162291 75.6326625432968 -167.843791833446
      vertex 493.748135635087 79.7375883482759 -161.492539080266
      vertex 493.74813625969 79.7375895800773 -167.843791122713
   endloop
endfacet
facet normal -0.707105242422394 -0.707108319947342 -1.22434667724921e-007
   outer loop
      vertex 493.748135635087 79.7375883482759 -161.492539080266
      vertex 497.853081162291 75.6326625432968 -167.843791833446
      vertex 497.853081162269 75.6326614436105 -161.492539790999
   endloop
endfacet
facet normal -0.991445145414658 0.130524034697469 2.25959120497923e-008
   outer loop
      vertex 508.567461934783 83.3619507777407 -161.49253845268
      vertex 508.702254725663 84.3858219894441 -167.83913947955
      vertex 508.567461934806 83.3619518766527 -167.839314935946
   endloop
endfacet
facet normal -0.991445145414658 0.130524034697469 2.25959120497923e-008
   outer loop
      vertex 508.702254725663 84.3858219894441 -167.83913947955
      vertex 508.567461934783 83.3619507777407 -161.49253845268
      vertex 508.702254725639 84.3858208905624 -161.492538275402
   endloop
endfacet
facet normal 0.991444577328324 0.130528349741583 2.26039804913547e-008
   outer loop
      vertex 500.790396314422 84.3858036732566 -161.492538275434
      vertex 500.925193561469 83.3619352465708 -167.842538452711
      vertex 500.790396314446 84.3858047727268 -167.842538275434
   endloop
endfacet
facet normal 0.991444577328324 0.130528349741583 2.26039804913547e-008
   outer loop
      vertex 500.925193561469 83.3619352465708 -167.842538452711
      vertex 500.790396314422 84.3858036732566 -161.492538275434
      vertex 500.925193561445 83.3619341471007 -161.492538452711
   endloop
endfacet
facet normal 0.923880365281513 -0.382681421873722 -6.62559177328654e-008
   outer loop
      vertex 501.320386028098 86.3637705288715 -167.842537932957
      vertex 500.925189105279 85.4096737860779 -161.492538098155
      vertex 500.925189105303 85.409674885548 -167.842538098155
   endloop
endfacet
facet normal 0.923880365281513 -0.382681421873722 -6.62559177328654e-008
   outer loop
      vertex 500.925189105279 85.4096737860779 -161.492538098155
      vertex 501.320386028098 86.3637705288715 -167.842537932957
      vertex 501.320386028075 86.3637694294014 -161.492537932957
   endloop
endfacet
facet normal 2.17613864635235e-006 -0.999999999997614 -1.9394578673552e-007
   outer loop
      vertex 512.671028659214 73.3876295271333 -161.492540179665
      vertex 503.273150078116 73.3876103078459 -167.843792222147
      vertex 512.671029283818 73.387630758934 -167.843792222111
   endloop
endfacet
facet normal 2.17613864635235e-006 -0.999999999997614 -1.9394578673552e-007
   outer loop
      vertex 503.273150078116 73.3876103078459 -167.843792222147
      vertex 512.671028659214 73.3876295271333 -161.492540179665
      vertex 503.273150078094 73.3876092081596 -161.4925401797
   endloop
endfacet
facet normal 0.894426217800918 0.447215541892654 7.7432017193089e-008
   outer loop
      vertex 524.731829668625 90.7359023556341 -144.982537175979
      vertex 527.113090032436 85.973411495866 -167.843790042905
      vertex 524.731829668619 90.7359063139006 -167.843789218316
   endloop
endfacet
facet normal 0.894426217800918 0.447215541892654 7.7432017193089e-008
   outer loop
      vertex 527.113090032436 85.973411495866 -167.843790042905
      vertex 524.731829668625 90.7359023556341 -144.982537175979
      vertex 527.113090032453 85.9734075375788 -144.982538000577
   endloop
endfacet
facet normal -0.707108298748241 0.707105263621591 9.50150742091992e-008
   outer loop
      vertex 493.748116029461 89.0339895801136 -167.843789513089
      vertex 497.853043066167 93.1389333830777 -161.492536759904
      vertex 497.853043066212 93.1389344827174 -167.843788802341
   endloop
endfacet
facet normal -0.707108298748241 0.707105263621591 9.50150742091992e-008
   outer loop
      vertex 497.853043066167 93.1389333830777 -161.492536759904
      vertex 493.748116029461 89.0339895801136 -167.843789513089
      vertex 493.748115404926 89.0339883483123 -161.492537470595
   endloop
endfacet
facet normal 2.16919709926708e-006 -0.99999999999763 -1.88745744176505e-007
   outer loop
      vertex 493.748135635087 79.7375883482759 -161.492539080266
      vertex 488.985636259701 79.737579216248 -167.843791591037
      vertex 493.74813625969 79.7375895800773 -167.843791122713
   endloop
endfacet
facet normal 2.16919709926708e-006 -0.99999999999763 -1.88745744176505e-007
   outer loop
      vertex 488.985636259701 79.737579216248 -167.843791591037
      vertex 493.748135635087 79.7375883482759 -161.492539080266
      vertex 488.98563625971 79.7375780505044 -161.492539548589
   endloop
endfacet
facet normal 0.894428164197741 -0.447211649099007 -7.74329374247052e-008
   outer loop
      vertex 527.113096941695 82.7984075375639 -144.982538550309
      vertex 524.731857305555 78.0359063139392 -167.843791417232
      vertex 527.113096941678 82.7984114958511 -167.843790592637
   endloop
endfacet
facet normal 0.894428164197741 -0.447211649099007 -7.74329374247052e-008
   outer loop
      vertex 524.731857305555 78.0359063139392 -167.843791417232
      vertex 527.113096941695 82.7984075375639 -144.982538550309
      vertex 524.731857305594 78.0359023556643 -144.982539374904
   endloop
endfacet
facet normal 2.18861527094016e-006 -0.999999999997587 -1.87705688968179e-007
   outer loop
      vertex 481.048135635117 79.7375607113977 -161.492540329129
      vertex 484.223136259712 79.7375688524187 -167.84379205936
      vertex 484.223136259721 79.7375676998864 -161.492540016913
   endloop
endfacet
facet normal 2.18861527094016e-006 -0.999999999997587 -1.87705688968179e-007
   outer loop
      vertex 484.223136259712 79.7375688524187 -167.84379205936
      vertex 481.048135635117 79.7375607113977 -161.492540329129
      vertex 481.04813625972 79.7375619431991 -167.843792371576
   endloop
endfacet
facet normal -2.17313087585419e-006 0.999999999997621 1.87012289506633e-007
   outer loop
      vertex 476.28561602947 89.0339515793722 -167.843790761948
      vertex 493.748115404926 89.0339883483123 -161.492537470595
      vertex 493.748116029461 89.0339895801136 -167.843789513089
   endloop
endfacet
facet normal -2.17313087585419e-006 0.999999999997621 1.87012289506633e-007
   outer loop
      vertex 493.748115404926 89.0339883483123 -161.492537470595
      vertex 476.28561602947 89.0339515793722 -167.843790761948
      vertex 476.285616029479 89.0339504796856 -161.492538719453
   endloop
endfacet
facet normal -0.707107131782578 -6.92186442524321e-006 -0.707106430556464
   outer loop
      vertex 520.494267985037 78.0358942335356 -151.332539374852
      vertex 517.319144614878 90.7358620538239 -148.157537175951
      vertex 520.494141465961 90.7358942332899 -151.332537175937
   endloop
endfacet
facet normal -0.707107131782578 -6.92186442524321e-006 -0.707106430556464
   outer loop
      vertex 517.319144614878 90.7358620538239 -148.157537175951
      vertex 520.494267985037 78.0358942335356 -151.332539374852
      vertex 517.319271133954 78.0358620540693 -148.157539374854
   endloop
endfacet
facet normal 0.999999999997632 2.17613926450088e-006 -3.60200785852296e-013
   outer loop
      vertex 527.113090032453 85.9734075375788 -144.982538000577
      vertex 527.113096941678 82.7984114958511 -167.843790592637
      vertex 527.113090032436 85.973411495866 -167.843790042905
   endloop
endfacet
facet normal 0.999999999997632 2.17613926450088e-006 -3.60200785852296e-013
   outer loop
      vertex 527.113096941678 82.7984114958511 -167.843790592637
      vertex 527.113090032453 85.9734075375788 -144.982538000577
      vertex 527.113096941695 82.7984075375639 -144.982538550309
   endloop
endfacet
facet normal -2.16963472227764e-006 0.99999999999763 1.79173658841046e-007
   outer loop
      vertex 503.273102210887 95.3840102811605 -167.843788413596
      vertex 515.845980791977 95.384036436328 -161.492536371129
      vertex 515.84598079197 95.3840375359995 -167.843788413503
   endloop
endfacet
facet normal -2.16963472227764e-006 0.99999999999763 1.79173658841046e-007
   outer loop
      vertex 515.845980791977 95.384036436328 -161.492536371129
      vertex 503.273102210887 95.3840102811605 -167.843788413596
      vertex 503.273102210842 95.3840091815208 -161.492536371159
   endloop
endfacet
facet normal -0.999999999997632 -2.17613921625591e-006 -9.39171469513182e-013
   outer loop
      vertex 524.577254723635 84.3859059775086 -167.843790317761
      vertex 524.509637667538 84.8994959147249 -144.982538186514
      vertex 524.509637667526 84.899499872991 -167.843790228836
   endloop
endfacet
facet normal -0.999999999997632 -2.17613921625591e-006 -9.39171469513182e-013
   outer loop
      vertex 524.509637667538 84.8994959147249 -144.982538186514
      vertex 524.577254723635 84.3859059775086 -167.843790317761
      vertex 524.577254723647 84.3859020192426 -144.98253827544
   endloop
endfacet
facet normal -0.866024315712745 -0.500001884590713 -8.65725821710456e-008
   outer loop
      vertex 524.311396725133 85.3780928989669 -167.843790145971
      vertex 523.996041689084 85.7890657733624 -144.982538032491
      vertex 523.996041689071 85.7890697316285 -167.843790074813
   endloop
endfacet
facet normal -0.866024315712745 -0.500001884590713 -8.65725821710456e-008
   outer loop
      vertex 523.996041689084 85.7890657733624 -144.982538032491
      vertex 524.311396725133 85.3780928989669 -167.843790145971
      vertex 524.311396725145 85.3780889407009 -144.982538103649
   endloop
endfacet
facet normal 0.258821147090915 -0.96592526306051 -1.67243571595118e-007
   outer loop
      vertex 522.079281509894 86.3026556448518 -144.982537943568
      vertex 521.600688483905 86.1044186607247 -167.843790020214
      vertex 522.079281509882 86.3026596031179 -167.84378998589
   endloop
endfacet
facet normal 0.258821147090915 -0.96592526306051 -1.67243571595118e-007
   outer loop
      vertex 521.600688483905 86.1044186607247 -167.843790020214
      vertex 522.079281509894 86.3026556448518 -144.982537943568
      vertex 521.600688483917 86.1044147024586 -144.982537977893
   endloop
endfacet
facet normal 2.17613915746054e-006 -0.999999999997617 -1.73143537649368e-007
   outer loop
      vertex 522.592875405376 86.3702727009615 -144.98253793186
      vertex 522.079281509882 86.3026596031179 -167.84378998589
      vertex 522.592875405364 86.3702766592275 -167.843789974182
   endloop
endfacet
facet normal 2.17613915746054e-006 -0.999999999997617 -1.73143537649368e-007
   outer loop
      vertex 522.079281509882 86.3026596031179 -167.84378998589
      vertex 522.592875405376 86.3702727009615 -144.98253793186
      vertex 522.079281509894 86.3026556448518 -144.982537943568
   endloop
endfacet
facet normal 0.500001884590602 -0.866024315712801 -1.49946232519731e-007
   outer loop
      vertex 521.600688483917 86.1044147024586 -144.982537977893
      vertex 521.189711651244 85.7890636246635 -167.843790074816
      vertex 521.600688483905 86.1044186607247 -167.843790020214
   endloop
endfacet
facet normal 0.500001884590602 -0.866024315712801 -1.49946232519731e-007
   outer loop
      vertex 521.189711651244 85.7890636246635 -167.843790074816
      vertex 521.600688483917 86.1044147024586 -144.982537977893
      vertex 521.189711651256 85.7890596663974 -144.982538032495
   endloop
endfacet
facet normal -0.9659252630605 -0.258821147091003 -4.48137522500642e-008
   outer loop
      vertex 524.509637667526 84.899499872991 -167.843790228836
      vertex 524.311396725145 85.3780889407009 -144.982538103649
      vertex 524.311396725133 85.3780928989669 -167.843790145971
   endloop
endfacet
facet normal -0.9659252630605 -0.258821147091003 -4.48137522500642e-008
   outer loop
      vertex 524.311396725145 85.3780889407009 -144.982538103649
      vertex 524.509637667526 84.899499872991 -167.843790228836
      vertex 524.509637667538 84.8994959147249 -144.982538186514
   endloop
endfacet
facet normal -0.258821147090922 0.965925263060508 1.67243571595118e-007
   outer loop
      vertex 523.106477937399 82.4691437153466 -167.843790649638
      vertex 523.585070963387 82.6673806994737 -144.982538572991
      vertex 523.585070963375 82.6673846577397 -167.843790615313
   endloop
endfacet
facet normal -0.258821147090922 0.965925263060508 1.67243571595118e-007
   outer loop
      vertex 523.585070963387 82.6673806994737 -144.982538572991
      vertex 523.106477937399 82.4691437153466 -167.843790649638
      vertex 523.106477937411 82.4691397570805 -144.982538607316
   endloop
endfacet
facet normal -0.499998115406994 -0.866026491851971 -1.49947171691192e-007
   outer loop
      vertex 523.585063483913 86.104419020735 -144.98253797789
      vertex 523.10646959513 86.3026618384222 -167.843789985889
      vertex 523.585063483901 86.104422979001 -167.843790020212
   endloop
endfacet
facet normal -0.499998115406994 -0.866026491851971 -1.49947171691192e-007
   outer loop
      vertex 523.10646959513 86.3026618384222 -167.843789985889
      vertex 523.585063483913 86.104419020735 -144.98253797789
      vertex 523.106469595142 86.3026578801561 -144.982537943567
   endloop
endfacet
facet normal -0.86602649185198 0.499998115406993 8.65709554783375e-008
   outer loop
      vertex 524.311401043409 83.3937178989716 -167.843790489553
      vertex 524.509639902842 83.8723078294768 -144.982538364365
      vertex 524.50963990283 83.8723117877428 -167.843790406687
   endloop
endfacet
facet normal -0.86602649185198 0.499998115406993 8.65709554783375e-008
   outer loop
      vertex 524.509639902842 83.8723078294768 -144.982538364365
      vertex 524.311401043409 83.3937178989716 -167.843790489553
      vertex 524.311401043421 83.3937139407056 -144.982538447231
   endloop
endfacet
facet normal -0.258816943112879 -0.965926389513029 -1.67244057746039e-007
   outer loop
      vertex 523.106469595142 86.3026578801561 -144.982537943567
      vertex 522.592875405364 86.3702766592275 -167.843789974182
      vertex 523.10646959513 86.3026618384222 -167.843789985889
   endloop
endfacet
facet normal -0.258816943112879 -0.965926389513029 -1.67244057746039e-007
   outer loop
      vertex 522.592875405364 86.3702766592275 -167.843789974182
      vertex 523.106469595142 86.3026578801561 -144.982537943567
      vertex 522.592875405376 86.3702727009615 -144.98253793186
   endloop
endfacet
facet normal -0.707108319947776 0.707105242421959 1.22430305495963e-007
   outer loop
      vertex 523.996047796049 82.982735735535 -144.982538518389
      vertex 524.311401043409 83.3937178989716 -167.843790489553
      vertex 523.996047796037 82.9827396938011 -167.843790560711
   endloop
endfacet
facet normal -0.707108319947776 0.707105242421959 1.22430305495963e-007
   outer loop
      vertex 524.311401043409 83.3937178989716 -167.843790489553
      vertex 523.996047796049 82.982735735535 -144.982538518389
      vertex 524.311401043421 83.3937139407056 -144.982538447231
   endloop
endfacet
facet normal -0.500001884590601 0.866024315712801 1.49946232519731e-007
   outer loop
      vertex 523.585070963375 82.6673846577397 -167.843790615313
      vertex 523.996047796049 82.982735735535 -144.982538518389
      vertex 523.996047796037 82.9827396938011 -167.843790560711
   endloop
endfacet
facet normal -0.500001884590601 0.866024315712801 1.49946232519731e-007
   outer loop
      vertex 523.996047796049 82.982735735535 -144.982538518389
      vertex 523.585070963375 82.6673846577397 -167.843790615313
      vertex 523.585070963387 82.6673806994737 -144.982538572991
   endloop
endfacet
facet normal -0.965926389513051 0.258816943112847 4.48119379101064e-008
   outer loop
      vertex 524.50963990283 83.8723117877428 -167.843790406687
      vertex 524.577254723647 84.3859020192426 -144.98253827544
      vertex 524.577254723635 84.3859059775086 -167.843790317761
   endloop
endfacet
facet normal -0.965926389513051 0.258816943112847 4.48119379101064e-008
   outer loop
      vertex 524.577254723647 84.3859020192426 -144.98253827544
      vertex 524.50963990283 83.8723117877428 -167.843790406687
      vertex 524.509639902842 83.8723078294768 -144.982538364365
   endloop
endfacet
facet normal -2.17613915379807e-006 0.999999999997617 1.73143537649368e-007
   outer loop
      vertex 522.592884041917 82.401526659237 -167.843790661345
      vertex 523.106477937411 82.4691397570805 -144.982538607316
      vertex 523.106477937399 82.4691437153466 -167.843790649638
   endloop
endfacet
facet normal -2.17613915379807e-006 0.999999999997617 1.73143537649368e-007
   outer loop
      vertex 523.106477937411 82.4691397570805 -144.982538607316
      vertex 522.592884041917 82.401526659237 -167.843790661345
      vertex 522.592884041928 82.4015227009709 -144.982538619024
   endloop
endfacet
facet normal 0.258816943112886 0.965926389513028 1.67244057746039e-007
   outer loop
      vertex 522.079289852151 82.4691414800423 -167.843790649639
      vertex 522.592884041928 82.4015227009709 -144.982538619024
      vertex 522.592884041917 82.401526659237 -167.843790661345
   endloop
endfacet
facet normal 0.258816943112886 0.965926389513028 1.67244057746039e-007
   outer loop
      vertex 522.592884041928 82.4015227009709 -144.982538619024
      vertex 522.079289852151 82.4691414800423 -167.843790649639
      vertex 522.079289852163 82.4691375217762 -144.982538607317
   endloop
endfacet
facet normal 0.499998115407001 0.866026491851967 1.49947171691192e-007
   outer loop
      vertex 521.600695963379 82.6673803394634 -167.843790615315
      vertex 522.079289852163 82.4691375217762 -144.982538607317
      vertex 522.079289852151 82.4691414800423 -167.843790649639
   endloop
endfacet
facet normal 0.499998115407001 0.866026491851967 1.49947171691192e-007
   outer loop
      vertex 522.079289852163 82.4691375217762 -144.982538607317
      vertex 521.600695963379 82.6673803394634 -167.843790615315
      vertex 521.600695963391 82.6673763811974 -144.982538572994
   endloop
endfacet
facet normal 0.707105242421738 0.707108319947998 1.22431642625212e-007
   outer loop
      vertex 521.189717758209 82.9827335868361 -167.843790560714
      vertex 521.600695963391 82.6673763811974 -144.982538572994
      vertex 521.600695963379 82.6673803394634 -167.843790615315
   endloop
endfacet
facet normal 0.707105242421738 0.707108319947998 1.22431642625212e-007
   outer loop
      vertex 521.600695963391 82.6673763811974 -144.982538572994
      vertex 521.189717758209 82.9827335868361 -167.843790560714
      vertex 521.189717758221 82.98272962857 -144.982538518393
   endloop
endfacet
facet normal 0.793352015539684 0.608763155454656 1.05403870225204e-007
   outer loop
      vertex 521.005382254353 83.2229632101464 -167.843790519117
      vertex 521.189717758221 82.98272962857 -144.982538518393
      vertex 521.189717758209 82.9827335868361 -167.843790560714
   endloop
endfacet
facet normal 0.793352015539684 0.608763155454656 1.05403870225204e-007
   outer loop
      vertex 521.189717758221 82.98272962857 -144.982538518393
      vertex 521.005382254353 83.2229632101464 -167.843790519117
      vertex 521.005382254364 83.2229592518803 -144.982538476795
   endloop
endfacet
facet normal 0.866024315712417 0.50000188459128 8.65725911111773e-008
   outer loop
      vertex 520.87436272216 83.3937064612316 -144.982538447235
      vertex 521.005382254353 83.2229632101464 -167.843790519117
      vertex 520.874362722148 83.3937104194976 -167.843790489557
   endloop
endfacet
facet normal 0.866024315712417 0.50000188459128 8.65725911111773e-008
   outer loop
      vertex 521.005382254353 83.2229632101464 -167.843790519117
      vertex 520.87436272216 83.3937064612316 -144.982538447235
      vertex 521.005382254364 83.2229592518803 -144.982538476795
   endloop
endfacet
facet normal 0.9659252630605 0.258821147091003 4.48137522500643e-008
   outer loop
      vertex 520.676121779767 83.8722994872074 -144.98253836437
      vertex 520.874362722148 83.3937104194976 -167.843790489557
      vertex 520.676121779755 83.8723034454735 -167.843790406691
   endloop
endfacet
facet normal 0.9659252630605 0.258821147091003 4.48137522500643e-008
   outer loop
      vertex 520.874362722148 83.3937104194976 -167.843790489557
      vertex 520.676121779767 83.8722994872074 -144.98253836437
      vertex 520.87436272216 83.3937064612316 -144.982538447235
   endloop
endfacet
facet normal 0.999999999997632 2.17613922172733e-006 9.39171470460524e-013
   outer loop
      vertex 520.608504723657 84.3858933826898 -144.982538275444
      vertex 520.676121779755 83.8723034454735 -167.843790406691
      vertex 520.608504723645 84.3858973409559 -167.843790317766
   endloop
endfacet
facet normal 0.999999999997632 2.17613922172733e-006 9.39171470460524e-013
   outer loop
      vertex 520.676121779755 83.8723034454735 -167.843790406691
      vertex 520.608504723657 84.3858933826898 -144.982538275444
      vertex 520.676121779767 83.8722994872074 -144.98253836437
   endloop
endfacet
facet normal 0.965926389513051 -0.258816943112848 -4.48119379101064e-008
   outer loop
      vertex 520.676119544462 84.8994875724556 -144.982538186519
      vertex 520.608504723645 84.3858973409559 -167.843790317766
      vertex 520.67611954445 84.8994915307217 -167.84379022884
   endloop
endfacet
facet normal 0.965926389513051 -0.258816943112848 -4.48119379101064e-008
   outer loop
      vertex 520.608504723645 84.3858973409559 -167.843790317766
      vertex 520.676119544462 84.8994875724556 -144.982538186519
      vertex 520.608504723657 84.3858933826898 -144.982538275444
   endloop
endfacet
facet normal 0.866026491851639 -0.499998115407583 -8.65709464326149e-008
   outer loop
      vertex 520.874358403883 85.3780814612268 -144.982538103653
      vertex 520.67611954445 84.8994915307217 -167.84379022884
      vertex 520.874358403871 85.3780854194929 -167.843790145975
   endloop
endfacet
facet normal 0.866026491851639 -0.499998115407583 -8.65709464326149e-008
   outer loop
      vertex 520.67611954445 84.8994915307217 -167.84379022884
      vertex 520.874358403883 85.3780814612268 -144.982538103653
      vertex 520.676119544462 84.8994875724556 -144.982538186519
   endloop
endfacet
facet normal 0.793354665038988 -0.608759702559938 -1.05402344371356e-007
   outer loop
      vertex 521.005377192936 85.5488331990759 -167.843790116408
      vertex 520.874358403883 85.3780814612268 -144.982538103653
      vertex 520.874358403871 85.3780854194929 -167.843790145975
   endloop
endfacet
facet normal 0.793354665038988 -0.608759702559938 -1.05402344371356e-007
   outer loop
      vertex 520.874358403883 85.3780814612268 -144.982538103653
      vertex 521.005377192936 85.5488331990759 -167.843790116408
      vertex 521.005377192948 85.5488292408099 -144.982538074086
   endloop
endfacet
facet normal 0.707108319947953 -0.707105242421783 -1.22430296449737e-007
   outer loop
      vertex 521.189711651256 85.7890596663974 -144.982538032495
      vertex 521.005377192936 85.5488331990759 -167.843790116408
      vertex 521.189711651244 85.7890636246635 -167.843790074816
   endloop
endfacet
facet normal 0.707108319947953 -0.707105242421783 -1.22430296449737e-007
   outer loop
      vertex 521.005377192936 85.5488331990759 -167.843790116408
      vertex 521.189711651256 85.7890596663974 -144.982538032495
      vertex 521.005377192948 85.5488292408099 -144.982538074086
   endloop
endfacet
facet normal -0.707105242422064 -0.707108319947672 -1.22431633685013e-007
   outer loop
      vertex 523.996041689084 85.7890657733624 -144.982538032491
      vertex 523.585063483901 86.104422979001 -167.843790020212
      vertex 523.996041689071 85.7890697316285 -167.843790074813
   endloop
endfacet
facet normal -0.707105242422064 -0.707108319947672 -1.22431633685013e-007
   outer loop
      vertex 523.585063483901 86.104422979001 -167.843790020212
      vertex 523.996041689084 85.7890657733624 -144.982538032491
      vertex 523.585063483913 86.104419020735 -144.98253797789
   endloop
endfacet
facet normal 2.17474514771109e-006 -0.999999999997619 -1.825054189246e-007
   outer loop
      vertex 488.985643164526 76.562578050512 -161.492540128044
      vertex 484.223143164529 76.5625688524262 -167.843792638815
      vertex 488.985643164517 76.5625792162555 -167.843792170491
   endloop
endfacet
facet normal 2.17474514771109e-006 -0.999999999997619 -1.825054189246e-007
   outer loop
      vertex 484.223143164529 76.5625688524262 -167.843792638815
      vertex 488.985643164526 76.562578050512 -161.492540128044
      vertex 484.223143164537 76.5625676998939 -161.492540596368
   endloop
endfacet
facet normal -0.999999999997635 -2.17474514771131e-006 1.002867641875e-012
   outer loop
      vertex 484.223143164537 76.5625676998939 -161.492540596368
      vertex 484.223136259712 79.7375688524187 -167.84379205936
      vertex 484.223143164529 76.5625688524262 -167.843792638815
   endloop
endfacet
facet normal -0.999999999997635 -2.17474514771131e-006 1.002867641875e-012
   outer loop
      vertex 484.223136259712 79.7375688524187 -167.84379205936
      vertex 484.223143164537 76.5625676998939 -161.492540596368
      vertex 484.223136259721 79.7375676998864 -161.492540016913
   endloop
endfacet
facet normal -0.999999999997633 -2.17605357403402e-006 4.60628418890959e-010
   outer loop
      vertex 476.285643168934 76.5625504652712 -161.49254089404
      vertex 476.28561602947 89.0339515793722 -167.843790761948
      vertex 476.285643164547 76.5625515793773 -167.843792951026
   endloop
endfacet
facet normal -0.999999999997633 -2.17605357403402e-006 4.60628418890959e-010
   outer loop
      vertex 476.28561602947 89.0339515793722 -167.843790761948
      vertex 476.285643168934 76.5625504652712 -161.49254089404
      vertex 476.285616029479 89.0339504796856 -161.492538719453
   endloop
endfacet
facet normal 2.17613215914744e-006 -0.999999999997617 -1.75415200042174e-007
   outer loop
      vertex 477.873143168931 76.5625539198809 -161.492540894041
      vertex 481.048143164536 76.5625619432066 -167.843792951031
      vertex 481.048143168923 76.5625608291005 -161.492540894044
   endloop
endfacet
facet normal 2.17613215914744e-006 -0.999999999997617 -1.75415200042174e-007
   outer loop
      vertex 481.048143164536 76.5625619432066 -167.843792951031
      vertex 477.873143168931 76.5625539198809 -161.492540894041
      vertex 476.285643164547 76.5625515793773 -167.843792951026
   endloop
endfacet
facet normal 2.17613215914744e-006 -0.999999999997617 -1.75415200042174e-007
   outer loop
      vertex 476.285643164547 76.5625515793773 -167.843792951026
      vertex 477.873143168931 76.5625539198809 -161.492540894041
      vertex 476.285643168934 76.5625504652712 -161.49254089404
   endloop
endfacet
facet normal -0.999999999950378 -9.96213195387103e-006 -7.29163773339574e-013
   outer loop
      vertex 517.319271133954 78.0358620540693 -148.157539374854
      vertex 517.319144614881 90.7358615040968 -144.982537175989
      vertex 517.319144614878 90.7358620538239 -148.157537175951
   endloop
endfacet
facet normal -0.999999999950378 -9.96213195387103e-006 -7.29163773339574e-013
   outer loop
      vertex 517.319144614881 90.7358615040968 -144.982537175989
      vertex 517.319271133954 78.0358620540693 -148.157539374854
      vertex 517.319271133957 78.0358615043422 -144.982539374892
   endloop
endfacet
facet normal 0.707105242419989 0.707108319949747 1.22431076833787e-007
   outer loop
      vertex 515.84598079197 95.3840375359995 -167.843788413503
      vertex 520.494141465952 90.7358959924222 -161.492537175942
      vertex 520.494141465973 90.7358970921009 -167.843789218324
   endloop
endfacet
facet normal 0.707105242419989 0.707108319949747 1.22431076833787e-007
   outer loop
      vertex 520.494141465952 90.7358959924222 -161.492537175942
      vertex 515.84598079197 95.3840375359995 -167.843788413503
      vertex 515.845980791977 95.384036436328 -161.492536371129
   endloop
endfacet
facet normal 0.707108319947584 -0.707105242422152 -1.22431930518981e-007
   outer loop
      vertex 515.846028659206 73.3876364363755 -161.492540179668
      vertex 520.494267984997 78.0358970923491 -167.843791417218
      vertex 520.494267985027 78.0358959926676 -161.492539374845
   endloop
endfacet
facet normal 0.707108319947584 -0.707105242422152 -1.22431930518981e-007
   outer loop
      vertex 520.494267984997 78.0358970923491 -167.843791417218
      vertex 515.846028659206 73.3876364363755 -161.492540179668
      vertex 515.8460286592 73.387637536047 -167.843792222042
   endloop
endfacet
facet normal 2.15533173713317e-006 -0.99999999999766 -1.83544188761047e-007
   outer loop
      vertex 515.846028659206 73.3876364363755 -161.492540179668
      vertex 512.671029283818 73.387630758934 -167.843792222111
      vertex 515.8460286592 73.387637536047 -167.843792222042
   endloop
endfacet
facet normal 2.15533173713317e-006 -0.99999999999766 -1.83544188761047e-007
   outer loop
      vertex 512.671029283818 73.387630758934 -167.843792222111
      vertex 515.846028659206 73.3876364363755 -161.492540179668
      vertex 512.671028659214 73.3876295271333 -161.492540179665
   endloop
endfacet
facet normal 2.33265860436225e-008 1.78486668306191e-007 -0.999999999999984
   outer loop
      vertex 484.223143164529 76.5625688524262 -167.843792638815
      vertex 488.985636259701 79.737579216248 -167.843791591037
      vertex 488.985643164517 76.5625792162555 -167.843792170491
   endloop
endfacet
facet normal 2.33265860436225e-008 1.78486668306191e-007 -0.999999999999984
   outer loop
      vertex 488.985636259701 79.737579216248 -167.843791591037
      vertex 484.223143164529 76.5625688524262 -167.843792638815
      vertex 484.223136259712 79.7375688524187 -167.84379205936
   endloop
endfacet
facet normal 2.33265860436225e-008 1.78486668306191e-007 -0.999999999999984
   outer loop
      vertex 508.172265012011 82.4078562333804 -167.839612920283
      vertex 522.592884041917 82.401526659237 -167.843790661345
      vertex 507.543595974471 81.5885551009987 -167.84001312542
   endloop
endfacet
facet normal 2.33265860436225e-008 1.78486668306191e-007 -0.999999999999984
   outer loop
      vertex 522.592884041917 82.401526659237 -167.843790661345
      vertex 508.172265012011 82.4078562333804 -167.839612920283
      vertex 522.079289852151 82.4691414800423 -167.843790649639
   endloop
endfacet
facet normal 2.33265860436225e-008 1.78486668306191e-007 -0.999999999999984
   outer loop
      vertex 522.079289852151 82.4691414800423 -167.843790649639
      vertex 508.172265012011 82.4078562333804 -167.839612920283
      vertex 508.567461934806 83.3619518766527 -167.839314935946
   endloop
endfacet
facet normal 2.33265860436225e-008 1.78486668306191e-007 -0.999999999999984
   outer loop
      vertex 522.079289852151 82.4691414800423 -167.843790649639
      vertex 508.567461934806 83.3619518766527 -167.839314935946
      vertex 521.600695963379 82.6673803394634 -167.843790615315
   endloop
endfacet
facet normal 2.33265860436225e-008 1.78486668306191e-007 -0.999999999999984
   outer loop
      vertex 521.600695963379 82.6673803394634 -167.843790615315
      vertex 508.567461934806 83.3619518766527 -167.839314935946
      vertex 521.189717758209 82.9827335868361 -167.843790560714
   endloop
endfacet
facet normal 2.33265860436225e-008 1.78486668306191e-007 -0.999999999999984
   outer loop
      vertex 521.189717758209 82.9827335868361 -167.843790560714
      vertex 508.567461934806 83.3619518766527 -167.839314935946
      vertex 521.005382254353 83.2229632101464 -167.843790519117
   endloop
endfacet
facet normal 2.33265860436225e-008 1.78486668306191e-007 -0.999999999999984
   outer loop
      vertex 521.005382254353 83.2229632101464 -167.843790519117
      vertex 508.567461934806 83.3619518766527 -167.839314935946
      vertex 520.874362722148 83.3937104194976 -167.843790489557
   endloop
endfacet
facet normal 2.33265860436225e-008 1.78486668306191e-007 -0.999999999999984
   outer loop
      vertex 520.874362722148 83.3937104194976 -167.843790489557
      vertex 508.567461934806 83.3619518766527 -167.839314935946
      vertex 508.702254725663 84.3858219894441 -167.83913947955
   endloop
endfacet
facet normal 2.33265860436225e-008 1.78486668306191e-007 -0.999999999999984
   outer loop
      vertex 520.874362722148 83.3937104194976 -167.843790489557
      vertex 508.702254725663 84.3858219894441 -167.83913947955
      vertex 520.676121779755 83.8723034454735 -167.843790406691
   endloop
endfacet
facet normal 2.33265860436225e-008 1.78486668306191e-007 -0.999999999999984
   outer loop
      vertex 520.676121779755 83.8723034454735 -167.843790406691
      vertex 508.702254725663 84.3858219894441 -167.83913947955
      vertex 520.608504723645 84.3858973409559 -167.843790317766
   endloop
endfacet
facet normal 2.33265860436225e-008 1.78486668306191e-007 -0.999999999999984
   outer loop
      vertex 520.608504723645 84.3858973409559 -167.843790317766
      vertex 508.702254725663 84.3858219894441 -167.83913947955
      vertex 508.567457478639 85.4096915155932 -167.839098508157
   endloop
endfacet
facet normal 2.33265860436225e-008 1.78486668306191e-007 -0.999999999999984
   outer loop
      vertex 520.608504723645 84.3858973409559 -167.843790317766
      vertex 508.567457478639 85.4096915155932 -167.839098508157
      vertex 520.67611954445 84.8994915307217 -167.84379022884
   endloop
endfacet
facet normal 2.33265860436225e-008 1.78486668306191e-007 -0.999999999999984
   outer loop
      vertex 520.67611954445 84.8994915307217 -167.84379022884
      vertex 508.567457478639 85.4096915155932 -167.839098508157
      vertex 520.874358403871 85.3780854194929 -167.843790145975
   endloop
endfacet
facet normal 2.33265860436225e-008 1.78486668306191e-007 -0.999999999999984
   outer loop
      vertex 520.874358403871 85.3780854194929 -167.843790145975
      vertex 508.567457478639 85.4096915155932 -167.839098508157
      vertex 521.005377192936 85.5488331990759 -167.843790116408
   endloop
endfacet
facet normal 2.33265860436225e-008 1.78486668306191e-007 -0.999999999999984
   outer loop
      vertex 521.005377192936 85.5488331990759 -167.843790116408
      vertex 508.567457478639 85.4096915155932 -167.839098508157
      vertex 508.172256403358 86.3637854389173 -167.8391948139
   endloop
endfacet
facet normal 2.33265860436225e-008 1.78486668306191e-007 -0.999999999999984
   outer loop
      vertex 521.005377192936 85.5488331990759 -167.843790116408
      vertex 508.172256403358 86.3637854389173 -167.8391948139
      vertex 521.189711651244 85.7890636246635 -167.843790074816
   endloop
endfacet
facet normal 2.33265860436225e-008 1.78486668306191e-007 -0.999999999999984
   outer loop
      vertex 521.189711651244 85.7890636246635 -167.843790074816
      vertex 508.172256403358 86.3637854389173 -167.8391948139
      vertex 521.600688483905 86.1044186607247 -167.843790020214
   endloop
endfacet
facet normal 2.33265860436225e-008 1.78486668306191e-007 -0.999999999999984
   outer loop
      vertex 521.600688483905 86.1044186607247 -167.843790020214
      vertex 508.172256403358 86.3637854389173 -167.8391948139
      vertex 522.079281509882 86.3026596031179 -167.84378998589
   endloop
endfacet
facet normal 2.33265860436225e-008 1.78486668306191e-007 -0.999999999999984
   outer loop
      vertex 522.079281509882 86.3026596031179 -167.84378998589
      vertex 508.172256403358 86.3637854389173 -167.8391948139
      vertex 522.592875405364 86.3702766592275 -167.843789974182
   endloop
endfacet
facet normal 2.33265860436225e-008 1.78486668306191e-007 -0.999999999999984
   outer loop
      vertex 522.592875405364 86.3702766592275 -167.843789974182
      vertex 508.172256403358 86.3637854389173 -167.8391948139
      vertex 507.543583799997 87.1830838352569 -167.839421833702
   endloop
endfacet
facet normal 2.33265860436225e-008 1.78486668306191e-007 -0.999999999999984
   outer loop
      vertex 476.285643164547 76.5625515793773 -167.843792951026
      vertex 481.04813625972 79.7375619431991 -167.843792371576
      vertex 481.048143164536 76.5625619432066 -167.843792951031
   endloop
endfacet
facet normal 2.33265860436225e-008 1.78486668306191e-007 -0.999999999999984
   outer loop
      vertex 481.04813625972 79.7375619431991 -167.843792371576
      vertex 476.285643164547 76.5625515793773 -167.843792951026
      vertex 476.28561602947 89.0339515793722 -167.843790761948
   endloop
endfacet
facet normal 2.33265860436225e-008 1.78486668306191e-007 -0.999999999999984
   outer loop
      vertex 481.04813625972 79.7375619431991 -167.843792371576
      vertex 476.28561602947 89.0339515793722 -167.843790761948
      vertex 503.722464015885 80.5646769666272 -167.842538937032
   endloop
endfacet
facet normal 2.33265860436225e-008 1.78486668306191e-007 -0.999999999999984
   outer loop
      vertex 481.04813625972 79.7375619431991 -167.843792371576
      vertex 503.722464015885 80.5646769666272 -167.842538937032
      vertex 504.746334128707 80.4298841757704 -167.842538960367
   endloop
endfacet
facet normal 2.33265860436225e-008 1.78486668306191e-007 -0.999999999999984
   outer loop
      vertex 503.722464015885 80.5646769666272 -167.842538937032
      vertex 476.28561602947 89.0339515793722 -167.843790761948
      vertex 502.768368372562 80.959873889423 -167.842538868609
   endloop
endfacet
facet normal 2.33265860436225e-008 1.78486668306191e-007 -0.999999999999984
   outer loop
      vertex 502.768368372562 80.959873889423 -167.842538868609
      vertex 476.28561602947 89.0339515793722 -167.843790761948
      vertex 501.949067240111 81.5885429270092 -167.84280395635
   endloop
endfacet
facet normal 2.33265860436225e-008 1.78486668306191e-007 -0.999999999999984
   outer loop
      vertex 501.949067240111 81.5885429270092 -167.84280395635
      vertex 476.28561602947 89.0339515793722 -167.843790761948
      vertex 501.320394636751 82.4078413232635 -167.842538617906
   endloop
endfacet
facet normal 2.33265860436225e-008 1.78486668306191e-007 -0.999999999999984
   outer loop
      vertex 501.320394636751 82.4078413232635 -167.842538617906
      vertex 476.28561602947 89.0339515793722 -167.843790761948
      vertex 500.925193561469 83.3619352465708 -167.842538452711
   endloop
endfacet
facet normal 2.33265860436225e-008 1.78486668306191e-007 -0.999999999999984
   outer loop
      vertex 500.925193561469 83.3619352465708 -167.842538452711
      vertex 476.28561602947 89.0339515793722 -167.843790761948
      vertex 500.790396314446 84.3858047727268 -167.842538275434
   endloop
endfacet
facet normal 2.33265860436225e-008 1.78486668306191e-007 -0.999999999999984
   outer loop
      vertex 500.790396314446 84.3858047727268 -167.842538275434
      vertex 476.28561602947 89.0339515793722 -167.843790761948
      vertex 500.925189105303 85.409674885548 -167.842538098155
   endloop
endfacet
facet normal 2.33265860436225e-008 1.78486668306191e-007 -0.999999999999984
   outer loop
      vertex 500.925189105303 85.409674885548 -167.842538098155
      vertex 476.28561602947 89.0339515793722 -167.843790761948
      vertex 501.320386028098 86.3637705288715 -167.842537932957
   endloop
endfacet
facet normal 2.33265860436225e-008 1.78486668306191e-007 -0.999999999999984
   outer loop
      vertex 501.320386028098 86.3637705288715 -167.842537932957
      vertex 476.28561602947 89.0339515793722 -167.843790761948
      vertex 501.949055065638 87.183071661266 -167.842212664632
   endloop
endfacet
facet normal 2.33265860436225e-008 1.78486668306191e-007 -0.999999999999984
   outer loop
      vertex 501.949055065638 87.183071661266 -167.842212664632
      vertex 476.28561602947 89.0339515793722 -167.843790761948
      vertex 502.768353461938 87.8117442645437 -167.841737512014
   endloop
endfacet
facet normal 2.33265860436225e-008 1.78486668306191e-007 -0.999999999999984
   outer loop
      vertex 502.768353461938 87.8117442645437 -167.841737512014
      vertex 476.28561602947 89.0339515793722 -167.843790761948
      vertex 503.722447385245 88.206945339736 -167.841219792781
   endloop
endfacet
facet normal 2.33265860436225e-008 1.78486668306191e-007 -0.999999999999984
   outer loop
      vertex 503.722447385245 88.206945339736 -167.841219792781
      vertex 476.28561602947 89.0339515793722 -167.843790761948
      vertex 504.746316911401 88.3417425866687 -167.840694788643
   endloop
endfacet
facet normal 2.33265860436225e-008 1.78486668306191e-007 -0.999999999999984
   outer loop
      vertex 504.746316911401 88.3417425866687 -167.840694788643
      vertex 476.28561602947 89.0339515793722 -167.843790761948
      vertex 493.748116029461 89.0339895801136 -167.843789513089
   endloop
endfacet
facet normal 2.33265860436225e-008 1.78486668306191e-007 -0.999999999999984
   outer loop
      vertex 497.853043066212 93.1389344827174 -167.843788802341
      vertex 520.494141465973 90.7358970921009 -167.843789218324
      vertex 493.748116029461 89.0339895801136 -167.843789513089
   endloop
endfacet
facet normal 2.33265860436225e-008 1.78486668306191e-007 -0.999999999999984
   outer loop
      vertex 520.494141465973 90.7358970921009 -167.843789218324
      vertex 497.853043066212 93.1389344827174 -167.843788802341
      vertex 515.84598079197 95.3840375359995 -167.843788413503
   endloop
endfacet
facet normal 2.33265860436225e-008 1.78486668306191e-007 -0.999999999999984
   outer loop
      vertex 515.84598079197 95.3840375359995 -167.843788413503
      vertex 497.853043066212 93.1389344827174 -167.843788802341
      vertex 503.273102210887 95.3840102811605 -167.843788413596
   endloop
endfacet
facet normal 2.33265860436225e-008 1.78486668306191e-007 -0.999999999999984
   outer loop
      vertex 512.671029283818 73.387630758934 -167.843792222111
      vertex 520.494267984997 78.0358970923491 -167.843791417218
      vertex 515.8460286592 73.387637536047 -167.843792222042
   endloop
endfacet
facet normal 2.33265860436225e-008 1.78486668306191e-007 -0.999999999999984
   outer loop
      vertex 520.494267984997 78.0358970923491 -167.843791417218
      vertex 512.671029283818 73.387630758934 -167.843792222111
      vertex 503.273150078116 73.3876103078459 -167.843792222147
   endloop
endfacet
facet normal 2.33265860436225e-008 1.78486668306191e-007 -0.999999999999984
   outer loop
      vertex 520.494267984997 78.0358970923491 -167.843791417218
      vertex 503.273150078116 73.3876103078459 -167.843792222147
      vertex 497.853081162291 75.6326625432968 -167.843791833446
   endloop
endfacet
facet normal 2.33265860436225e-008 1.78486668306191e-007 -0.999999999999984
   outer loop
      vertex 520.494267984997 78.0358970923491 -167.843791417218
      vertex 497.853081162291 75.6326625432968 -167.843791833446
      vertex 493.74813625969 79.7375895800773 -167.843791122713
   endloop
endfacet
facet normal 2.33265860436225e-008 1.78486668306191e-007 -0.999999999999984
   outer loop
      vertex 520.494267984997 78.0358970923491 -167.843791417218
      vertex 493.74813625969 79.7375895800773 -167.843791122713
      vertex 524.731857305555 78.0359063139392 -167.843791417232
   endloop
endfacet
facet normal 2.33265860436225e-008 1.78486668306191e-007 -0.999999999999984
   outer loop
      vertex 524.731857305555 78.0359063139392 -167.843791417232
      vertex 493.74813625969 79.7375895800773 -167.843791122713
      vertex 504.746334128707 80.4298841757704 -167.842538960367
   endloop
endfacet
facet normal 2.33265860436225e-008 1.78486668306191e-007 -0.999999999999984
   outer loop
      vertex 524.731857305555 78.0359063139392 -167.843791417232
      vertex 504.746334128707 80.4298841757704 -167.842538960367
      vertex 527.113096941678 82.7984114958511 -167.843790592637
   endloop
endfacet
facet normal 2.33265860436225e-008 1.78486668306191e-007 -0.999999999999984
   outer loop
      vertex 504.746334128707 80.4298841757704 -167.842538960367
      vertex 493.74813625969 79.7375895800773 -167.843791122713
      vertex 488.985636259701 79.737579216248 -167.843791591037
   endloop
endfacet
facet normal 2.33265860436225e-008 1.78486668306191e-007 -0.999999999999984
   outer loop
      vertex 504.746334128707 80.4298841757704 -167.842538960367
      vertex 488.985636259701 79.737579216248 -167.843791591037
      vertex 484.223136259712 79.7375688524187 -167.84379205936
   endloop
endfacet
facet normal 2.33265860436225e-008 1.78486668306191e-007 -0.999999999999984
   outer loop
      vertex 504.746334128707 80.4298841757704 -167.842538960367
      vertex 484.223136259712 79.7375688524187 -167.84379205936
      vertex 481.04813625972 79.7375619431991 -167.843792371576
   endloop
endfacet
facet normal 2.33265860436225e-008 1.78486668306191e-007 -0.999999999999984
   outer loop
      vertex 527.113096941678 82.7984114958511 -167.843790592637
      vertex 504.746334128707 80.4298841757704 -167.842538960367
      vertex 505.770203654863 80.5646814227937 -167.842538937024
   endloop
endfacet
facet normal 2.33265860436225e-008 1.78486668306191e-007 -0.999999999999984
   outer loop
      vertex 527.113096941678 82.7984114958511 -167.843790592637
      vertex 505.770203654863 80.5646814227937 -167.842538937024
      vertex 506.724297578171 80.9598824977206 -167.840488278037
   endloop
endfacet
facet normal 2.33265860436225e-008 1.78486668306191e-007 -0.999999999999984
   outer loop
      vertex 527.113096941678 82.7984114958511 -167.843790592637
      vertex 506.724297578171 80.9598824977206 -167.840488278037
      vertex 522.592884041917 82.401526659237 -167.843790661345
   endloop
endfacet
facet normal 2.33265860436225e-008 1.78486668306191e-007 -0.999999999999984
   outer loop
      vertex 522.592884041917 82.401526659237 -167.843790661345
      vertex 506.724297578171 80.9598824977206 -167.840488278037
      vertex 507.543595974471 81.5885551009987 -167.84001312542
   endloop
endfacet
facet normal 2.33265860436225e-008 1.78486668306191e-007 -0.999999999999984
   outer loop
      vertex 527.113096941678 82.7984114958511 -167.843790592637
      vertex 522.592884041917 82.401526659237 -167.843790661345
      vertex 523.106477937399 82.4691437153466 -167.843790649638
   endloop
endfacet
facet normal 2.33265860436225e-008 1.78486668306191e-007 -0.999999999999984
   outer loop
      vertex 527.113096941678 82.7984114958511 -167.843790592637
      vertex 523.106477937399 82.4691437153466 -167.843790649638
      vertex 523.585070963375 82.6673846577397 -167.843790615313
   endloop
endfacet
facet normal 2.33265860436225e-008 1.78486668306191e-007 -0.999999999999984
   outer loop
      vertex 527.113096941678 82.7984114958511 -167.843790592637
      vertex 523.585070963375 82.6673846577397 -167.843790615313
      vertex 523.996047796037 82.9827396938011 -167.843790560711
   endloop
endfacet
facet normal 2.33265860436225e-008 1.78486668306191e-007 -0.999999999999984
   outer loop
      vertex 527.113096941678 82.7984114958511 -167.843790592637
      vertex 523.996047796037 82.9827396938011 -167.843790560711
      vertex 527.113090032436 85.973411495866 -167.843790042905
   endloop
endfacet
facet normal 2.33265860436225e-008 1.78486668306191e-007 -0.999999999999984
   outer loop
      vertex 527.113090032436 85.973411495866 -167.843790042905
      vertex 523.996047796037 82.9827396938011 -167.843790560711
      vertex 524.311401043409 83.3937178989716 -167.843790489553
   endloop
endfacet
facet normal 2.33265860436225e-008 1.78486668306191e-007 -0.999999999999984
   outer loop
      vertex 527.113090032436 85.973411495866 -167.843790042905
      vertex 524.311401043409 83.3937178989716 -167.843790489553
      vertex 524.50963990283 83.8723117877428 -167.843790406687
   endloop
endfacet
facet normal 2.33265860436225e-008 1.78486668306191e-007 -0.999999999999984
   outer loop
      vertex 527.113090032436 85.973411495866 -167.843790042905
      vertex 524.50963990283 83.8723117877428 -167.843790406687
      vertex 524.577254723635 84.3859059775086 -167.843790317761
   endloop
endfacet
facet normal 2.33265860436225e-008 1.78486668306191e-007 -0.999999999999984
   outer loop
      vertex 527.113090032436 85.973411495866 -167.843790042905
      vertex 524.577254723635 84.3859059775086 -167.843790317761
      vertex 524.509637667526 84.899499872991 -167.843790228836
   endloop
endfacet
facet normal 2.33265860436225e-008 1.78486668306191e-007 -0.999999999999984
   outer loop
      vertex 527.113090032436 85.973411495866 -167.843790042905
      vertex 524.509637667526 84.899499872991 -167.843790228836
      vertex 524.311396725133 85.3780928989669 -167.843790145971
   endloop
endfacet
facet normal 2.33265860436225e-008 1.78486668306191e-007 -0.999999999999984
   outer loop
      vertex 527.113090032436 85.973411495866 -167.843790042905
      vertex 524.311396725133 85.3780928989669 -167.843790145971
      vertex 523.996041689071 85.7890697316285 -167.843790074813
   endloop
endfacet
facet normal 2.33265860436225e-008 1.78486668306191e-007 -0.999999999999984
   outer loop
      vertex 527.113090032436 85.973411495866 -167.843790042905
      vertex 523.996041689071 85.7890697316285 -167.843790074813
      vertex 523.585063483901 86.104422979001 -167.843790020212
   endloop
endfacet
facet normal 2.33265860436225e-008 1.78486668306191e-007 -0.999999999999984
   outer loop
      vertex 527.113090032436 85.973411495866 -167.843790042905
      vertex 523.585063483901 86.104422979001 -167.843790020212
      vertex 524.731829668619 90.7359063139006 -167.843789218316
   endloop
endfacet
facet normal 2.33265860436225e-008 1.78486668306191e-007 -0.999999999999984
   outer loop
      vertex 524.731829668619 90.7359063139006 -167.843789218316
      vertex 523.585063483901 86.104422979001 -167.843790020212
      vertex 523.10646959513 86.3026618384222 -167.843789985889
   endloop
endfacet
facet normal 2.33265860436225e-008 1.78486668306191e-007 -0.999999999999984
   outer loop
      vertex 524.731829668619 90.7359063139006 -167.843789218316
      vertex 523.10646959513 86.3026618384222 -167.843789985889
      vertex 522.592875405364 86.3702766592275 -167.843789974182
   endloop
endfacet
facet normal 2.33265860436225e-008 1.78486668306191e-007 -0.999999999999984
   outer loop
      vertex 524.731829668619 90.7359063139006 -167.843789218316
      vertex 522.592875405364 86.3702766592275 -167.843789974182
      vertex 507.543583799997 87.1830838352569 -167.839421833702
   endloop
endfacet
facet normal 2.33265860436225e-008 1.78486668306191e-007 -0.999999999999984
   outer loop
      vertex 524.731829668619 90.7359063139006 -167.843789218316
      vertex 507.543583799997 87.1830838352569 -167.839421833702
      vertex 506.724282667546 87.8117528728555 -167.839764096539
   endloop
endfacet
facet normal 2.33265860436225e-008 1.78486668306191e-007 -0.999999999999984
   outer loop
      vertex 524.731829668619 90.7359063139006 -167.843789218316
      vertex 506.724282667546 87.8117528728555 -167.839764096539
      vertex 505.770187024223 88.2069497957262 -167.840198277763
   endloop
endfacet
facet normal 2.33265860436225e-008 1.78486668306191e-007 -0.999999999999984
   outer loop
      vertex 524.731829668619 90.7359063139006 -167.843789218316
      vertex 505.770187024223 88.2069497957262 -167.840198277763
      vertex 504.746316911401 88.3417425866687 -167.840694788643
   endloop
endfacet
facet normal 2.33265860436225e-008 1.78486668306191e-007 -0.999999999999984
   outer loop
      vertex 524.731829668619 90.7359063139006 -167.843789218316
      vertex 504.746316911401 88.3417425866687 -167.840694788643
      vertex 493.748116029461 89.0339895801136 -167.843789513089
   endloop
endfacet
facet normal 2.33265860436225e-008 1.78486668306191e-007 -0.999999999999984
   outer loop
      vertex 524.731829668619 90.7359063139006 -167.843789218316
      vertex 493.748116029461 89.0339895801136 -167.843789513089
      vertex 520.494141465973 90.7358970921009 -167.843789218324
   endloop
endfacet
facet normal -0.999999999950378 -9.96213195742379e-006 -7.81986221833925e-013
   outer loop
      vertex 520.494267985027 78.0358959926676 -161.492539374845
      vertex 520.494141465961 90.7358942332899 -151.332537175937
      vertex 520.494141465952 90.7358959924222 -161.492537175942
   endloop
endfacet
facet normal -0.999999999950378 -9.96213195742379e-006 -7.81986221833925e-013
   outer loop
      vertex 520.494141465961 90.7358942332899 -151.332537175937
      vertex 520.494267985027 78.0358959926676 -161.492539374845
      vertex 520.494267985037 78.0358942335356 -151.332539374852
   endloop
endfacet
facet normal -0.793354665039015 0.608759702559903 1.05400711365096e-007
   outer loop
      vertex 507.543595974447 81.5885540019659 -161.492538759739
      vertex 508.172265012011 82.4078562333804 -167.839612920283
      vertex 507.543595974471 81.5885551009987 -167.84001312542
   endloop
endfacet
facet normal -0.793354665039015 0.608759702559903 1.05400711365096e-007
   outer loop
      vertex 508.172265012011 82.4078562333804 -167.839612920283
      vertex 507.543595974447 81.5885540019659 -161.492538759739
      vertex 508.172265011987 82.4078551344169 -161.492538617879
   endloop
endfacet
facet normal 0.923878699736641 0.382685442854741 6.62634426550038e-008
   outer loop
      vertex 500.925193561445 83.3619341471007 -161.492538452711
      vertex 501.320394636751 82.4078413232635 -167.842538617906
      vertex 500.925193561469 83.3619352465708 -167.842538452711
   endloop
endfacet
facet normal 0.923878699736641 0.382685442854741 6.62634426550038e-008
   outer loop
      vertex 501.320394636751 82.4078413232635 -167.842538617906
      vertex 500.925193561445 83.3619341471007 -161.492538452711
      vertex 501.320394636727 82.4078402237934 -161.492538617906
   endloop
endfacet
facet normal 0.608759702560228 0.79335466503876 1.37367553501213e-007
   outer loop
      vertex 501.949067240111 81.5885429270092 -167.84280395635
      vertex 502.768368372538 80.9598727899529 -161.492538868609
      vertex 502.768368372562 80.959873889423 -167.842538868609
   endloop
endfacet
facet normal 0.608759702560228 0.79335466503876 1.37367553501213e-007
   outer loop
      vertex 502.768368372538 80.9598727899529 -161.492538868609
      vertex 501.949067240111 81.5885429270092 -167.84280395635
      vertex 501.949067240087 81.5885418274931 -161.492538759761
   endloop
endfacet
facet normal -0.13052403469748 -0.991445145414643 -1.71664158864468e-007
   outer loop
      vertex 505.770187024199 88.206948696661 -161.492537613804
      vertex 504.746316911401 88.3417425866687 -167.840694788643
      vertex 505.770187024223 88.2069497957262 -167.840198277763
   endloop
endfacet
facet normal -0.13052403469748 -0.991445145414643 -1.71664158864468e-007
   outer loop
      vertex 504.746316911401 88.3417425866687 -167.840694788643
      vertex 505.770187024199 88.206948696661 -161.492537613804
      vertex 504.746316911378 88.3417414875177 -161.492537590469
   endloop
endfacet
facet normal 0.793352015539808 0.608763155454495 1.05407164362805e-007
   outer loop
      vertex 501.320394636751 82.4078413232635 -167.842538617906
      vertex 501.949067240087 81.5885418274931 -161.492538759761
      vertex 501.949067240111 81.5885429270092 -167.84280395635
   endloop
endfacet
facet normal 0.793352015539808 0.608763155454495 1.05407164362805e-007
   outer loop
      vertex 501.949067240087 81.5885418274931 -161.492538759761
      vertex 501.320394636751 82.4078413232635 -167.842538617906
      vertex 501.320394636727 82.4078402237934 -161.492538617906
   endloop
endfacet
facet normal 0.130524034697759 0.991445145414606 1.71664153674176e-007
   outer loop
      vertex 503.722464015885 80.5646769666272 -167.842538937032
      vertex 504.746334128683 80.4298830763002 -161.492538960367
      vertex 504.746334128707 80.4298841757704 -167.842538960367
   endloop
endfacet
facet normal 0.130524034697759 0.991445145414606 1.71664153674176e-007
   outer loop
      vertex 504.746334128683 80.4298830763002 -161.492538960367
      vertex 503.722464015885 80.5646769666272 -167.842538937032
      vertex 503.722464015861 80.5646758671571 -161.492538937032
   endloop
endfacet
facet normal -0.130528349741815 0.991444577328279 1.71663091945307e-007
   outer loop
      vertex 504.746334128707 80.4298841757704 -167.842538960367
      vertex 505.77020365484 80.5646803233236 -161.492538937024
      vertex 505.770203654863 80.5646814227937 -167.842538937024
   endloop
endfacet
facet normal -0.130528349741815 0.991444577328279 1.71663091945307e-007
   outer loop
      vertex 505.77020365484 80.5646803233236 -161.492538937024
      vertex 504.746334128707 80.4298841757704 -167.842538960367
      vertex 504.746334128683 80.4298830763002 -161.492538960367
   endloop
endfacet
facet normal -0.382685442854798 0.923878699736606 1.59963468344807e-007
   outer loop
      vertex 505.770203654863 80.5646814227937 -167.842538937024
      vertex 506.724297578147 80.9598813986056 -161.492538868593
      vertex 506.724297578171 80.9598824977206 -167.840488278037
   endloop
endfacet
facet normal -0.382685442854798 0.923878699736606 1.59963468344807e-007
   outer loop
      vertex 506.724297578147 80.9598813986056 -161.492538868593
      vertex 505.770203654863 80.5646814227937 -167.842538937024
      vertex 505.77020365484 80.5646803233236 -161.492538937024
   endloop
endfacet
facet normal -0.923880365281573 0.382681421873578 6.62559324933301e-008
   outer loop
      vertex 508.172265011987 82.4078551344169 -161.492538617879
      vertex 508.567461934806 83.3619518766527 -167.839314935946
      vertex 508.172265012011 82.4078562333804 -167.839612920283
   endloop
endfacet
facet normal -0.923880365281573 0.382681421873578 6.62559324933301e-008
   outer loop
      vertex 508.567461934806 83.3619518766527 -167.839314935946
      vertex 508.172265011987 82.4078551344169 -161.492538617879
      vertex 508.567461934783 83.3619507777407 -161.49253845268
   endloop
endfacet
facet normal -0.608763155454529 0.793352015539777 1.37362600739817e-007
   outer loop
      vertex 506.724297578171 80.9598824977206 -167.840488278037
      vertex 507.543595974447 81.5885540019659 -161.492538759739
      vertex 507.543595974471 81.5885551009987 -167.84001312542
   endloop
endfacet
facet normal -0.608763155454529 0.793352015539777 1.37362600739817e-007
   outer loop
      vertex 507.543595974447 81.5885540019659 -161.492538759739
      vertex 506.724297578171 80.9598824977206 -167.840488278037
      vertex 506.724297578147 80.9598813986056 -161.492538868593
   endloop
endfacet
facet normal -0.608759702559721 -0.79335466503915 -1.37367564251607e-007
   outer loop
      vertex 507.543583799973 87.1830827363263 -161.492537791074
      vertex 506.724282667546 87.8117528728555 -167.839764096539
      vertex 507.543583799997 87.1830838352569 -167.839421833702
   endloop
endfacet
facet normal -0.608759702559721 -0.79335466503915 -1.37367564251607e-007
   outer loop
      vertex 506.724282667546 87.8117528728555 -167.839764096539
      vertex 507.543583799973 87.1830827363263 -161.492537791074
      vertex 506.724282667523 87.8117517738654 -161.492537682227
   endloop
endfacet
facet normal -0.382681421873661 -0.923880365281527 -1.59966603625115e-007
   outer loop
      vertex 506.724282667523 87.8117517738654 -161.492537682227
      vertex 505.770187024223 88.2069497957262 -167.840198277763
      vertex 506.724282667546 87.8117528728555 -167.839764096539
   endloop
endfacet
facet normal -0.382681421873661 -0.923880365281527 -1.59966603625115e-007
   outer loop
      vertex 505.770187024223 88.2069497957262 -167.840198277763
      vertex 506.724282667523 87.8117517738654 -161.492537682227
      vertex 505.770187024199 88.206948696661 -161.492537613804
   endloop
endfacet
facet normal 0.130528349741956 -0.99144457732826 -1.71663077715544e-007
   outer loop
      vertex 504.746316911378 88.3417414875177 -161.492537590469
      vertex 503.722447385245 88.206945339736 -167.841219792781
      vertex 504.746316911401 88.3417425866687 -167.840694788643
   endloop
endfacet
facet normal 0.130528349741956 -0.99144457732826 -1.71663077715544e-007
   outer loop
      vertex 503.722447385245 88.206945339736 -167.841219792781
      vertex 504.746316911378 88.3417414875177 -161.492537590469
      vertex 503.722447385221 88.2069442404942 -161.492537613812
   endloop
endfacet
facet normal 0.38268544285477 -0.923878699736618 -1.59963448152067e-007
   outer loop
      vertex 503.722447385221 88.2069442404942 -161.492537613812
      vertex 502.768353461938 87.8117442645437 -167.841737512014
      vertex 503.722447385245 88.206945339736 -167.841219792781
   endloop
endfacet
facet normal 0.38268544285477 -0.923878699736618 -1.59963448152067e-007
   outer loop
      vertex 502.768353461938 87.8117442645437 -167.841737512014
      vertex 503.722447385221 88.2069442404942 -161.492537613812
      vertex 502.768353461914 87.8117431652123 -161.492537682243
   endloop
endfacet
facet normal 0.608763155454609 -0.793352015539715 -1.3736259151982e-007
   outer loop
      vertex 502.768353461914 87.8117431652123 -161.492537682243
      vertex 501.949055065638 87.183071661266 -167.842212664632
      vertex 502.768353461938 87.8117442645437 -167.841737512014
   endloop
endfacet
facet normal 0.608763155454609 -0.793352015539715 -1.3736259151982e-007
   outer loop
      vertex 501.949055065638 87.183071661266 -167.842212664632
      vertex 502.768353461914 87.8117431652123 -161.492537682243
      vertex 501.949055065615 87.1830705618522 -161.492537791097
   endloop
endfacet
facet normal 0.793354665039007 -0.608759702559913 -1.05400698704518e-007
   outer loop
      vertex 501.949055065638 87.183071661266 -167.842212664632
      vertex 501.320386028075 86.3637694294014 -161.492537932957
      vertex 501.320386028098 86.3637705288715 -167.842537932957
   endloop
endfacet
facet normal 0.793354665039007 -0.608759702559913 -1.05400698704518e-007
   outer loop
      vertex 501.320386028075 86.3637694294014 -161.492537932957
      vertex 501.949055065638 87.183071661266 -167.842212664632
      vertex 501.949055065615 87.1830705618522 -161.492537791097
   endloop
endfacet
facet normal 0.991445145414617 -0.130524034697787 -2.25959053039229e-008
   outer loop
      vertex 500.925189105303 85.409674885548 -167.842538098155
      vertex 500.790396314422 84.3858036732566 -161.492538275434
      vertex 500.790396314446 84.3858047727268 -167.842538275434
   endloop
endfacet
facet normal 0.991445145414617 -0.130524034697787 -2.25959053039229e-008
   outer loop
      vertex 500.790396314422 84.3858036732566 -161.492538275434
      vertex 500.925189105303 85.409674885548 -167.842538098155
      vertex 500.925189105279 85.4096737860779 -161.492538098155
   endloop
endfacet
facet normal 0.382681421873831 0.923880365281456 1.59966577737017e-007
   outer loop
      vertex 502.768368372562 80.959873889423 -167.842538868609
      vertex 503.722464015861 80.5646758671571 -161.492538937032
      vertex 503.722464015885 80.5646769666272 -167.842538937032
   endloop
endfacet
facet normal 0.382681421873831 0.923880365281456 1.59966577737017e-007
   outer loop
      vertex 503.722464015861 80.5646758671571 -161.492538937032
      vertex 502.768368372562 80.959873889423 -167.842538868609
      vertex 502.768368372538 80.9598727899529 -161.492538868609
   endloop
endfacet
facet normal -0.382681421874175 -0.923880365281314 -1.59966382711365e-007
   outer loop
      vertex 503.273150078094 73.3876092081596 -161.4925401797
      vertex 497.853081162291 75.6326625432968 -167.843791833446
      vertex 503.273150078116 73.3876103078459 -167.843792222147
   endloop
endfacet
facet normal -0.382681421874175 -0.923880365281314 -1.59966382711365e-007
   outer loop
      vertex 497.853081162291 75.6326625432968 -167.843791833446
      vertex 503.273150078094 73.3876092081596 -161.4925401797
      vertex 497.853081162269 75.6326614436105 -161.492539790999
   endloop
endfacet
facet normal -0.793352015539546 -0.608763155454837 -1.05407162652337e-007
   outer loop
      vertex 508.172256403358 86.3637854389173 -167.8391948139
      vertex 507.543583799973 87.1830827363263 -161.492537791074
      vertex 507.543583799997 87.1830838352569 -167.839421833702
   endloop
endfacet
facet normal -0.793352015539546 -0.608763155454837 -1.05407162652337e-007
   outer loop
      vertex 507.543583799973 87.1830827363263 -161.492537791074
      vertex 508.172256403358 86.3637854389173 -167.8391948139
      vertex 508.172256403334 86.363784340026 -161.49253793293
   endloop
endfacet
facet normal -0.923878699736683 -0.382685442854641 -6.62634416635628e-008
   outer loop
      vertex 508.567457478639 85.4096915155932 -167.839098508157
      vertex 508.172256403334 86.363784340026 -161.49253793293
      vertex 508.172256403358 86.3637854389173 -167.8391948139
   endloop
endfacet
facet normal -0.923878699736683 -0.382685442854641 -6.62634416635628e-008
   outer loop
      vertex 508.172256403334 86.363784340026 -161.49253793293
      vertex 508.567457478639 85.4096915155932 -167.839098508157
      vertex 508.567457478615 85.4096904167185 -161.492538098124
   endloop
endfacet
facet normal -0.991444577328262 -0.130528349742053 -2.26039776328433e-008
   outer loop
      vertex 508.702254725639 84.3858208905624 -161.492538275402
      vertex 508.567457478639 85.4096915155932 -167.839098508157
      vertex 508.702254725663 84.3858219894441 -167.83913947955
   endloop
endfacet
facet normal -0.991444577328262 -0.130528349742053 -2.26039776328433e-008
   outer loop
      vertex 508.567457478639 85.4096915155932 -167.839098508157
      vertex 508.702254725639 84.3858208905624 -161.492538275402
      vertex 508.567457478615 85.4096904167185 -161.492538098124
   endloop
endfacet
facet normal -0.381844073231922 0.924226527283291 0.000655746538475067
   outer loop
      vertex 497.853043066212 93.1389344827174 -167.843788802341
      vertex 503.273102210842 95.3840091815208 -161.492536371159
      vertex 503.273102210887 95.3840102811605 -167.843788413596
   endloop
endfacet
facet normal -0.381844073231922 0.924226527283291 0.000655746538475067
   outer loop
      vertex 503.273102210842 95.3840091815208 -161.492536371159
      vertex 497.853043066212 93.1389344827174 -167.843788802341
      vertex 502.768337493102 95.149881801518 -161.49253641169
   endloop
endfacet
facet normal -0.381844073231922 0.924226527283291 0.000655746538475067
   outer loop
      vertex 502.768337493102 95.149881801518 -161.49253641169
      vertex 497.853043066212 93.1389344827174 -167.843788802341
      vertex 497.853043066167 93.1389333830777 -161.492536759904
   endloop
endfacet
facet normal 1.09649978456027e-012 -1.73142844488032e-007 0.999999999999985
   outer loop
      vertex 527.113096941695 82.7984075375639 -144.982538550309
      vertex 522.592884041928 82.4015227009709 -144.982538619024
      vertex 524.731857305594 78.0359023556643 -144.982539374904
   endloop
endfacet
facet normal 1.09649978456027e-012 -1.73142844488032e-007 0.999999999999985
   outer loop
      vertex 522.592884041928 82.4015227009709 -144.982538619024
      vertex 527.113096941695 82.7984075375639 -144.982538550309
      vertex 523.106477937411 82.4691397570805 -144.982538607316
   endloop
endfacet
facet normal 1.09649978456027e-012 -1.73142844488032e-007 0.999999999999985
   outer loop
      vertex 523.106477937411 82.4691397570805 -144.982538607316
      vertex 527.113096941695 82.7984075375639 -144.982538550309
      vertex 523.585070963387 82.6673806994737 -144.982538572991
   endloop
endfacet
facet normal 1.09649978456027e-012 -1.73142844488032e-007 0.999999999999985
   outer loop
      vertex 523.585070963387 82.6673806994737 -144.982538572991
      vertex 527.113096941695 82.7984075375639 -144.982538550309
      vertex 523.996047796049 82.982735735535 -144.982538518389
   endloop
endfacet
facet normal 1.09649978456027e-012 -1.73142844488032e-007 0.999999999999985
   outer loop
      vertex 523.996047796049 82.982735735535 -144.982538518389
      vertex 527.113096941695 82.7984075375639 -144.982538550309
      vertex 527.113090032453 85.9734075375788 -144.982538000577
   endloop
endfacet
facet normal 1.09649978456027e-012 -1.73142844488032e-007 0.999999999999985
   outer loop
      vertex 523.996047796049 82.982735735535 -144.982538518389
      vertex 527.113090032453 85.9734075375788 -144.982538000577
      vertex 524.311401043421 83.3937139407056 -144.982538447231
   endloop
endfacet
facet normal 1.09649978456027e-012 -1.73142844488032e-007 0.999999999999985
   outer loop
      vertex 524.311401043421 83.3937139407056 -144.982538447231
      vertex 527.113090032453 85.9734075375788 -144.982538000577
      vertex 524.509639902842 83.8723078294768 -144.982538364365
   endloop
endfacet
facet normal 1.09649978456027e-012 -1.73142844488032e-007 0.999999999999985
   outer loop
      vertex 524.509639902842 83.8723078294768 -144.982538364365
      vertex 527.113090032453 85.9734075375788 -144.982538000577
      vertex 524.577254723647 84.3859020192426 -144.98253827544
   endloop
endfacet
facet normal 1.09649978456027e-012 -1.73142844488032e-007 0.999999999999985
   outer loop
      vertex 524.577254723647 84.3859020192426 -144.98253827544
      vertex 527.113090032453 85.9734075375788 -144.982538000577
      vertex 524.509637667538 84.8994959147249 -144.982538186514
   endloop
endfacet
facet normal 1.09649978456027e-012 -1.73142844488032e-007 0.999999999999985
   outer loop
      vertex 524.509637667538 84.8994959147249 -144.982538186514
      vertex 527.113090032453 85.9734075375788 -144.982538000577
      vertex 524.311396725145 85.3780889407009 -144.982538103649
   endloop
endfacet
facet normal 1.09649978456027e-012 -1.73142844488032e-007 0.999999999999985
   outer loop
      vertex 524.311396725145 85.3780889407009 -144.982538103649
      vertex 527.113090032453 85.9734075375788 -144.982538000577
      vertex 523.996041689084 85.7890657733624 -144.982538032491
   endloop
endfacet
facet normal 1.09649978456027e-012 -1.73142844488032e-007 0.999999999999985
   outer loop
      vertex 523.996041689084 85.7890657733624 -144.982538032491
      vertex 527.113090032453 85.9734075375788 -144.982538000577
      vertex 523.585063483913 86.104419020735 -144.98253797789
   endloop
endfacet
facet normal 1.09649978456027e-012 -1.73142844488032e-007 0.999999999999985
   outer loop
      vertex 523.585063483913 86.104419020735 -144.98253797789
      vertex 527.113090032453 85.9734075375788 -144.982538000577
      vertex 524.731829668625 90.7359023556341 -144.982537175979
   endloop
endfacet
facet normal 1.09649978456027e-012 -1.73142844488032e-007 0.999999999999985
   outer loop
      vertex 523.585063483913 86.104419020735 -144.98253797789
      vertex 524.731829668625 90.7359023556341 -144.982537175979
      vertex 523.106469595142 86.3026578801561 -144.982537943567
   endloop
endfacet
facet normal 1.09649978456027e-012 -1.73142844488032e-007 0.999999999999985
   outer loop
      vertex 523.106469595142 86.3026578801561 -144.982537943567
      vertex 524.731829668625 90.7359023556341 -144.982537175979
      vertex 522.592875405376 86.3702727009615 -144.98253793186
   endloop
endfacet
facet normal 1.09649978456027e-012 -1.73142844488032e-007 0.999999999999985
   outer loop
      vertex 522.592875405376 86.3702727009615 -144.98253793186
      vertex 524.731829668625 90.7359023556341 -144.982537175979
      vertex 517.319144614881 90.7358615040968 -144.982537175989
   endloop
endfacet
facet normal 1.09649978456027e-012 -1.73142844488032e-007 0.999999999999985
   outer loop
      vertex 517.319271133957 78.0358615043422 -144.982539374892
      vertex 520.87436272216 83.3937064612316 -144.982538447235
      vertex 517.319144614881 90.7358615040968 -144.982537175989
   endloop
endfacet
facet normal 1.09649978456027e-012 -1.73142844488032e-007 0.999999999999985
   outer loop
      vertex 520.87436272216 83.3937064612316 -144.982538447235
      vertex 517.319271133957 78.0358615043422 -144.982539374892
      vertex 524.731857305594 78.0359023556643 -144.982539374904
   endloop
endfacet
facet normal 1.09649978456027e-012 -1.73142844488032e-007 0.999999999999985
   outer loop
      vertex 520.87436272216 83.3937064612316 -144.982538447235
      vertex 524.731857305594 78.0359023556643 -144.982539374904
      vertex 521.005382254364 83.2229592518803 -144.982538476795
   endloop
endfacet
facet normal 1.09649978456027e-012 -1.73142844488032e-007 0.999999999999985
   outer loop
      vertex 521.005382254364 83.2229592518803 -144.982538476795
      vertex 524.731857305594 78.0359023556643 -144.982539374904
      vertex 521.189717758221 82.98272962857 -144.982538518393
   endloop
endfacet
facet normal 1.09649978456027e-012 -1.73142844488032e-007 0.999999999999985
   outer loop
      vertex 521.189717758221 82.98272962857 -144.982538518393
      vertex 524.731857305594 78.0359023556643 -144.982539374904
      vertex 521.600695963391 82.6673763811974 -144.982538572994
   endloop
endfacet
facet normal 1.09649978456027e-012 -1.73142844488032e-007 0.999999999999985
   outer loop
      vertex 521.600695963391 82.6673763811974 -144.982538572994
      vertex 524.731857305594 78.0359023556643 -144.982539374904
      vertex 522.079289852163 82.4691375217762 -144.982538607317
   endloop
endfacet
facet normal 1.09649978456027e-012 -1.73142844488032e-007 0.999999999999985
   outer loop
      vertex 522.079289852163 82.4691375217762 -144.982538607317
      vertex 524.731857305594 78.0359023556643 -144.982539374904
      vertex 522.592884041928 82.4015227009709 -144.982538619024
   endloop
endfacet
facet normal 1.09649978456027e-012 -1.73142844488032e-007 0.999999999999985
   outer loop
      vertex 517.319144614881 90.7358615040968 -144.982537175989
      vertex 520.87436272216 83.3937064612316 -144.982538447235
      vertex 520.676121779767 83.8722994872074 -144.98253836437
   endloop
endfacet
facet normal 1.09649978456027e-012 -1.73142844488032e-007 0.999999999999985
   outer loop
      vertex 517.319144614881 90.7358615040968 -144.982537175989
      vertex 520.676121779767 83.8722994872074 -144.98253836437
      vertex 520.608504723657 84.3858933826898 -144.982538275444
   endloop
endfacet
facet normal 1.09649978456027e-012 -1.73142844488032e-007 0.999999999999985
   outer loop
      vertex 517.319144614881 90.7358615040968 -144.982537175989
      vertex 520.608504723657 84.3858933826898 -144.982538275444
      vertex 520.676119544462 84.8994875724556 -144.982538186519
   endloop
endfacet
facet normal 1.09649978456027e-012 -1.73142844488032e-007 0.999999999999985
   outer loop
      vertex 517.319144614881 90.7358615040968 -144.982537175989
      vertex 520.676119544462 84.8994875724556 -144.982538186519
      vertex 520.874358403883 85.3780814612268 -144.982538103653
   endloop
endfacet
facet normal 1.09649978456027e-012 -1.73142844488032e-007 0.999999999999985
   outer loop
      vertex 517.319144614881 90.7358615040968 -144.982537175989
      vertex 520.874358403883 85.3780814612268 -144.982538103653
      vertex 521.005377192948 85.5488292408099 -144.982538074086
   endloop
endfacet
facet normal 1.09649978456027e-012 -1.73142844488032e-007 0.999999999999985
   outer loop
      vertex 517.319144614881 90.7358615040968 -144.982537175989
      vertex 521.005377192948 85.5488292408099 -144.982538074086
      vertex 521.189711651256 85.7890596663974 -144.982538032495
   endloop
endfacet
facet normal 1.09649978456027e-012 -1.73142844488032e-007 0.999999999999985
   outer loop
      vertex 517.319144614881 90.7358615040968 -144.982537175989
      vertex 521.189711651256 85.7890596663974 -144.982538032495
      vertex 521.600688483917 86.1044147024586 -144.982537977893
   endloop
endfacet
facet normal 1.09649978456027e-012 -1.73142844488032e-007 0.999999999999985
   outer loop
      vertex 517.319144614881 90.7358615040968 -144.982537175989
      vertex 521.600688483917 86.1044147024586 -144.982537977893
      vertex 522.079281509894 86.3026556448518 -144.982537943568
   endloop
endfacet
facet normal 1.09649978456027e-012 -1.73142844488032e-007 0.999999999999985
   outer loop
      vertex 517.319144614881 90.7358615040968 -144.982537175989
      vertex 522.079281509894 86.3026556448518 -144.982537943568
      vertex 522.592875405376 86.3702727009615 -144.98253793186
   endloop
endfacet
facet normal -3.00570060599651e-008 -1.80592529500976e-007 0.999999999999983
   outer loop
      vertex 520.494267985027 78.0358959926676 -161.492539374845
      vertex 512.671028659214 73.3876295271333 -161.492540179665
      vertex 515.846028659206 73.3876364363755 -161.492540179668
   endloop
endfacet
facet normal -3.00570060599651e-008 -1.80592529500976e-007 0.999999999999983
   outer loop
      vertex 512.671028659214 73.3876295271333 -161.492540179665
      vertex 520.494267985027 78.0358959926676 -161.492539374845
      vertex 503.273150078094 73.3876092081596 -161.4925401797
   endloop
endfacet
facet normal -3.00570060599651e-008 -1.80592529500976e-007 0.999999999999983
   outer loop
      vertex 503.273150078094 73.3876092081596 -161.4925401797
      vertex 520.494267985027 78.0358959926676 -161.492539374845
      vertex 497.853081162269 75.6326614436105 -161.492539790999
   endloop
endfacet
facet normal -3.00570060599651e-008 -1.80592529500976e-007 0.999999999999983
   outer loop
      vertex 497.853081162269 75.6326614436105 -161.492539790999
      vertex 520.494267985027 78.0358959926676 -161.492539374845
      vertex 493.748135635087 79.7375883482759 -161.492539080266
   endloop
endfacet
facet normal -3.00570060599651e-008 -1.80592529500976e-007 0.999999999999983
   outer loop
      vertex 493.748135635087 79.7375883482759 -161.492539080266
      vertex 520.494267985027 78.0358959926676 -161.492539374845
      vertex 504.746334128683 80.4298830763002 -161.492538960367
   endloop
endfacet
facet normal -3.00570060599651e-008 -1.80592529500976e-007 0.999999999999983
   outer loop
      vertex 504.746334128683 80.4298830763002 -161.492538960367
      vertex 520.494267985027 78.0358959926676 -161.492539374845
      vertex 505.77020365484 80.5646803233236 -161.492538937024
   endloop
endfacet
facet normal -3.00570060599651e-008 -1.80592529500976e-007 0.999999999999983
   outer loop
      vertex 505.77020365484 80.5646803233236 -161.492538937024
      vertex 520.494267985027 78.0358959926676 -161.492539374845
      vertex 506.724297578147 80.9598813986056 -161.492538868593
   endloop
endfacet
facet normal -3.00570060599651e-008 -1.80592529500976e-007 0.999999999999983
   outer loop
      vertex 506.724297578147 80.9598813986056 -161.492538868593
      vertex 520.494267985027 78.0358959926676 -161.492539374845
      vertex 520.494141465952 90.7358959924222 -161.492537175942
   endloop
endfacet
facet normal -3.00570060599651e-008 -1.80592529500976e-007 0.999999999999983
   outer loop
      vertex 493.748135635087 79.7375883482759 -161.492539080266
      vertex 504.746334128683 80.4298830763002 -161.492538960367
      vertex 488.98563625971 79.7375780505044 -161.492539548589
   endloop
endfacet
facet normal -3.00570060599651e-008 -1.80592529500976e-007 0.999999999999983
   outer loop
      vertex 488.98563625971 79.7375780505044 -161.492539548589
      vertex 504.746334128683 80.4298830763002 -161.492538960367
      vertex 484.223136259721 79.7375676998864 -161.492540016913
   endloop
endfacet
facet normal -3.00570060599651e-008 -1.80592529500976e-007 0.999999999999983
   outer loop
      vertex 506.724297578147 80.9598813986056 -161.492538868593
      vertex 520.494141465952 90.7358959924222 -161.492537175942
      vertex 507.543595974447 81.5885540019659 -161.492538759739
   endloop
endfacet
facet normal -3.00570060599651e-008 -1.80592529500976e-007 0.999999999999983
   outer loop
      vertex 507.543595974447 81.5885540019659 -161.492538759739
      vertex 520.494141465952 90.7358959924222 -161.492537175942
      vertex 508.172265011987 82.4078551344169 -161.492538617879
   endloop
endfacet
facet normal -3.00570060599651e-008 -1.80592529500976e-007 0.999999999999983
   outer loop
      vertex 508.172265011987 82.4078551344169 -161.492538617879
      vertex 520.494141465952 90.7358959924222 -161.492537175942
      vertex 508.567461934783 83.3619507777407 -161.49253845268
   endloop
endfacet
facet normal -3.00570060599651e-008 -1.80592529500976e-007 0.999999999999983
   outer loop
      vertex 508.567461934783 83.3619507777407 -161.49253845268
      vertex 520.494141465952 90.7358959924222 -161.492537175942
      vertex 508.702254725639 84.3858208905624 -161.492538275402
   endloop
endfacet
facet normal -3.00570060599651e-008 -1.80592529500976e-007 0.999999999999983
   outer loop
      vertex 508.702254725639 84.3858208905624 -161.492538275402
      vertex 520.494141465952 90.7358959924222 -161.492537175942
      vertex 508.567457478615 85.4096904167185 -161.492538098124
   endloop
endfacet
facet normal -3.00570060599651e-008 -1.80592529500976e-007 0.999999999999983
   outer loop
      vertex 508.567457478615 85.4096904167185 -161.492538098124
      vertex 520.494141465952 90.7358959924222 -161.492537175942
      vertex 508.172256403334 86.363784340026 -161.49253793293
   endloop
endfacet
facet normal -3.00570060599651e-008 -1.80592529500976e-007 0.999999999999983
   outer loop
      vertex 508.172256403334 86.363784340026 -161.49253793293
      vertex 520.494141465952 90.7358959924222 -161.492537175942
      vertex 507.543583799973 87.1830827363263 -161.492537791074
   endloop
endfacet
facet normal -3.00570060599651e-008 -1.80592529500976e-007 0.999999999999983
   outer loop
      vertex 507.543583799973 87.1830827363263 -161.492537791074
      vertex 520.494141465952 90.7358959924222 -161.492537175942
      vertex 506.724282667523 87.8117517738654 -161.492537682227
   endloop
endfacet
facet normal -3.00570060599651e-008 -1.80592529500976e-007 0.999999999999983
   outer loop
      vertex 506.724282667523 87.8117517738654 -161.492537682227
      vertex 520.494141465952 90.7358959924222 -161.492537175942
      vertex 505.770187024199 88.206948696661 -161.492537613804
   endloop
endfacet
facet normal -3.00570060599651e-008 -1.80592529500976e-007 0.999999999999983
   outer loop
      vertex 505.770187024199 88.206948696661 -161.492537613804
      vertex 520.494141465952 90.7358959924222 -161.492537175942
      vertex 504.746316911378 88.3417414875177 -161.492537590469
   endloop
endfacet
facet normal -3.00570060599651e-008 -1.80592529500976e-007 0.999999999999983
   outer loop
      vertex 504.746316911378 88.3417414875177 -161.492537590469
      vertex 520.494141465952 90.7358959924222 -161.492537175942
      vertex 493.748115404926 89.0339883483123 -161.492537470595
   endloop
endfacet
facet normal -3.00570060599651e-008 -1.80592529500976e-007 0.999999999999983
   outer loop
      vertex 493.748115404926 89.0339883483123 -161.492537470595
      vertex 520.494141465952 90.7358959924222 -161.492537175942
      vertex 497.853043066167 93.1389333830777 -161.492536759904
   endloop
endfacet
facet normal -3.00570060599651e-008 -1.80592529500976e-007 0.999999999999983
   outer loop
      vertex 497.853043066167 93.1389333830777 -161.492536759904
      vertex 520.494141465952 90.7358959924222 -161.492537175942
      vertex 515.845980791977 95.384036436328 -161.492536371129
   endloop
endfacet
facet normal -3.00570060599651e-008 -1.80592529500976e-007 0.999999999999983
   outer loop
      vertex 497.853043066167 93.1389333830777 -161.492536759904
      vertex 515.845980791977 95.384036436328 -161.492536371129
      vertex 502.768337493102 95.149881801518 -161.49253641169
   endloop
endfacet
facet normal -3.00570060599651e-008 -1.80592529500976e-007 0.999999999999983
   outer loop
      vertex 502.768337493102 95.149881801518 -161.49253641169
      vertex 515.845980791977 95.384036436328 -161.492536371129
      vertex 503.273102210842 95.3840091815208 -161.492536371159
   endloop
endfacet
facet normal -3.00570060599651e-008 -1.80592529500976e-007 0.999999999999983
   outer loop
      vertex 481.048135635117 79.7375607113977 -161.492540329129
      vertex 477.873143168931 76.5625539198809 -161.492540894041
      vertex 481.048143168923 76.5625608291005 -161.492540894044
   endloop
endfacet
facet normal -3.00570060599651e-008 -1.80592529500976e-007 0.999999999999983
   outer loop
      vertex 477.873143168931 76.5625539198809 -161.492540894041
      vertex 481.048135635117 79.7375607113977 -161.492540329129
      vertex 476.285643168934 76.5625504652712 -161.49254089404
   endloop
endfacet
facet normal -3.00570060599651e-008 -1.80592529500976e-007 0.999999999999983
   outer loop
      vertex 476.285643168934 76.5625504652712 -161.49254089404
      vertex 481.048135635117 79.7375607113977 -161.492540329129
      vertex 476.285616029479 89.0339504796856 -161.492538719453
   endloop
endfacet
facet normal -3.00570060599651e-008 -1.80592529500976e-007 0.999999999999983
   outer loop
      vertex 476.285616029479 89.0339504796856 -161.492538719453
      vertex 481.048135635117 79.7375607113977 -161.492540329129
      vertex 484.223136259721 79.7375676998864 -161.492540016913
   endloop
endfacet
facet normal -3.00570060599651e-008 -1.80592529500976e-007 0.999999999999983
   outer loop
      vertex 476.285616029479 89.0339504796856 -161.492538719453
      vertex 484.223136259721 79.7375676998864 -161.492540016913
      vertex 503.722464015861 80.5646758671571 -161.492538937032
   endloop
endfacet
facet normal -3.00570060599651e-008 -1.80592529500976e-007 0.999999999999983
   outer loop
      vertex 503.722464015861 80.5646758671571 -161.492538937032
      vertex 484.223136259721 79.7375676998864 -161.492540016913
      vertex 504.746334128683 80.4298830763002 -161.492538960367
   endloop
endfacet
facet normal -3.00570060599651e-008 -1.80592529500976e-007 0.999999999999983
   outer loop
      vertex 476.285616029479 89.0339504796856 -161.492538719453
      vertex 503.722464015861 80.5646758671571 -161.492538937032
      vertex 502.768368372538 80.9598727899529 -161.492538868609
   endloop
endfacet
facet normal -3.00570060599651e-008 -1.80592529500976e-007 0.999999999999983
   outer loop
      vertex 476.285616029479 89.0339504796856 -161.492538719453
      vertex 502.768368372538 80.9598727899529 -161.492538868609
      vertex 501.949067240087 81.5885418274931 -161.492538759761
   endloop
endfacet
facet normal -3.00570060599651e-008 -1.80592529500976e-007 0.999999999999983
   outer loop
      vertex 476.285616029479 89.0339504796856 -161.492538719453
      vertex 501.949067240087 81.5885418274931 -161.492538759761
      vertex 501.320394636727 82.4078402237934 -161.492538617906
   endloop
endfacet
facet normal -3.00570060599651e-008 -1.80592529500976e-007 0.999999999999983
   outer loop
      vertex 476.285616029479 89.0339504796856 -161.492538719453
      vertex 501.320394636727 82.4078402237934 -161.492538617906
      vertex 500.925193561445 83.3619341471007 -161.492538452711
   endloop
endfacet
facet normal -3.00570060599651e-008 -1.80592529500976e-007 0.999999999999983
   outer loop
      vertex 476.285616029479 89.0339504796856 -161.492538719453
      vertex 500.925193561445 83.3619341471007 -161.492538452711
      vertex 500.790396314422 84.3858036732566 -161.492538275434
   endloop
endfacet
facet normal -3.00570060599651e-008 -1.80592529500976e-007 0.999999999999983
   outer loop
      vertex 476.285616029479 89.0339504796856 -161.492538719453
      vertex 500.790396314422 84.3858036732566 -161.492538275434
      vertex 500.925189105279 85.4096737860779 -161.492538098155
   endloop
endfacet
facet normal -3.00570060599651e-008 -1.80592529500976e-007 0.999999999999983
   outer loop
      vertex 476.285616029479 89.0339504796856 -161.492538719453
      vertex 500.925189105279 85.4096737860779 -161.492538098155
      vertex 501.320386028075 86.3637694294014 -161.492537932957
   endloop
endfacet
facet normal -3.00570060599651e-008 -1.80592529500976e-007 0.999999999999983
   outer loop
      vertex 476.285616029479 89.0339504796856 -161.492538719453
      vertex 501.320386028075 86.3637694294014 -161.492537932957
      vertex 501.949055065615 87.1830705618522 -161.492537791097
   endloop
endfacet
facet normal -3.00570060599651e-008 -1.80592529500976e-007 0.999999999999983
   outer loop
      vertex 476.285616029479 89.0339504796856 -161.492538719453
      vertex 501.949055065615 87.1830705618522 -161.492537791097
      vertex 502.768353461914 87.8117431652123 -161.492537682243
   endloop
endfacet
facet normal -3.00570060599651e-008 -1.80592529500976e-007 0.999999999999983
   outer loop
      vertex 476.285616029479 89.0339504796856 -161.492538719453
      vertex 502.768353461914 87.8117431652123 -161.492537682243
      vertex 503.722447385221 88.2069442404942 -161.492537613812
   endloop
endfacet
facet normal -3.00570060599651e-008 -1.80592529500976e-007 0.999999999999983
   outer loop
      vertex 476.285616029479 89.0339504796856 -161.492538719453
      vertex 503.722447385221 88.2069442404942 -161.492537613812
      vertex 504.746316911378 88.3417414875177 -161.492537590469
   endloop
endfacet
facet normal -3.00570060599651e-008 -1.80592529500976e-007 0.999999999999983
   outer loop
      vertex 476.285616029479 89.0339504796856 -161.492538719453
      vertex 504.746316911378 88.3417414875177 -161.492537590469
      vertex 493.748115404926 89.0339883483123 -161.492537470595
   endloop
endfacet
facet normal -3.00570060599651e-008 -1.80592529500976e-007 0.999999999999983
   outer loop
      vertex 488.98563625971 79.7375780505044 -161.492539548589
      vertex 484.223143164537 76.5625676998939 -161.492540596368
      vertex 488.985643164526 76.562578050512 -161.492540128044
   endloop
endfacet
facet normal -3.00570060599651e-008 -1.80592529500976e-007 0.999999999999983
   outer loop
      vertex 484.223143164537 76.5625676998939 -161.492540596368
      vertex 488.98563625971 79.7375780505044 -161.492539548589
      vertex 484.223136259721 79.7375676998864 -161.492540016913
   endloop
endfacet
facet normal 0.999999999997635 2.17474514771131e-006 -1.00287054178919e-012
   outer loop
      vertex 488.985636259701 79.737579216248 -167.843791591037
      vertex 488.985643164526 76.562578050512 -161.492540128044
      vertex 488.985643164517 76.5625792162555 -167.843792170491
   endloop
endfacet
facet normal 0.999999999997635 2.17474514771131e-006 -1.00287054178919e-012
   outer loop
      vertex 488.985643164526 76.562578050512 -161.492540128044
      vertex 488.985636259701 79.737579216248 -167.843791591037
      vertex 488.98563625971 79.7375780505044 -161.492539548589
   endloop
endfacet
facet normal 0.999999999997414 2.27379884275925e-006 4.88266634186073e-008
   outer loop
      vertex 481.04813625972 79.7375619431991 -167.843792371576
      vertex 481.048143168923 76.5625608291005 -161.492540894044
      vertex 481.048143164536 76.5625619432066 -167.843792951031
   endloop
endfacet
facet normal 0.999999999997414 2.27379884275925e-006 4.88266634186073e-008
   outer loop
      vertex 481.048143168923 76.5625608291005 -161.492540894044
      vertex 481.04813625972 79.7375619431991 -167.843792371576
      vertex 481.048135635117 79.7375607113977 -161.492540329129
   endloop
endfacet
endsolid Milk Strap B_1_a
