solid Milk Strap B_1_a
facet normal -4.16230019472145e-007 0.999999999999906 1.19518444242464e-007
   outer loop
      vertex 203.998791529948 -185.591691198378 -250.428412614563
      vertex 203.998764690991 -185.591691198607 -252.80965454415
      vertex 190.823921051678 -185.591697008315 -250.428264295655
   endloop
endfacet
facet normal -4.16230019472145e-007 0.999999999999906 1.19518444242464e-007
   outer loop
      vertex 187.921648233954 -185.591698288396 -252.809473266302
      vertex 206.900869760123 -185.591689919181 -256.778436885688
      vertex 187.921603547996 -185.591696896317 -256.778223215289
   endloop
endfacet
facet normal -4.16230019472145e-007 0.999999999999906 1.19518444242464e-007
   outer loop
      vertex 206.900869760123 -185.591689919181 -256.778436885688
      vertex 187.921648233954 -185.591698288396 -252.809473266302
      vertex 190.823894212723 -185.591697008545 -252.809505812017
   endloop
endfacet
facet normal -4.16230019472145e-007 0.999999999999906 1.19518444242464e-007
   outer loop
      vertex 206.900869760123 -185.591689919181 -256.778436885688
      vertex 190.823894212723 -185.591697008545 -252.809505812017
      vertex 190.823921051678 -185.591697008315 -250.428264295655
   endloop
endfacet
facet normal -4.16230019472145e-007 0.999999999999906 1.19518444242464e-007
   outer loop
      vertex 206.900869760123 -185.591689919181 -256.778436885688
      vertex 190.823921051678 -185.591697008315 -250.428264295655
      vertex 203.998764690991 -185.591691198607 -252.80965454415
   endloop
endfacet
facet normal -4.16230019472145e-007 0.999999999999906 1.19518444242464e-007
   outer loop
      vertex 206.900869760123 -185.591689919181 -256.778436885688
      vertex 203.998764690991 -185.591691198607 -252.80965454415
      vertex 206.900914491856 -185.591689918799 -252.809687253871
   endloop
endfacet
facet normal -0.999999999968552 -5.82405907915134e-006 5.38307263827091e-006
   outer loop
      vertex 179.155106390218 -190.155590978848 -250.428124530903
      vertex 179.155045627398 -185.591702154714 -256.778124531029
      vertex 179.155034819422 -190.155590979453 -256.778124530499
   endloop
endfacet
facet normal -0.999999999968552 -5.82405907915134e-006 5.38307263827091e-006
   outer loop
      vertex 179.155045627398 -185.591702154714 -256.778124531029
      vertex 179.155106390218 -190.155590978848 -250.428124530903
      vertex 179.155042421435 -185.591702154131 -250.428141330925
   endloop
endfacet
facet normal 0.999999999934332 -2.07550275112852e-006 -1.12707266940284e-005
   outer loop
      vertex 222.728703671906 -185.591682939321 -256.778614492554
      vertex 222.728765768411 -190.155681328952 -250.428616118216
      vertex 222.728694197615 -190.155681329558 -256.778616117813
   endloop
endfacet
facet normal 0.999999999934332 -2.07550275112852e-006 -1.12707266940284e-005
   outer loop
      vertex 222.728765768411 -190.155681328952 -250.428616118216
      vertex 222.728703671906 -185.591682939321 -256.778614492554
      vertex 222.72877523915 -185.591682938711 -250.428631292892
   endloop
endfacet
facet normal 1.12884620935511e-005 2.62803348074051e-006 0.999999999932832
   outer loop
      vertex 179.155106390218 -190.155590978848 -250.428124530903
      vertex 183.361321519672 -185.591700299219 -250.428180283853
      vertex 179.155042421435 -185.591702154131 -250.428141330925
   endloop
endfacet
facet normal 1.12884620935511e-005 2.62803348074051e-006 0.999999999932832
   outer loop
      vertex 183.361321519672 -185.591700299219 -250.428180283853
      vertex 179.155106390218 -190.155590978848 -250.428124530903
      vertex 184.711361009819 -187.930048498436 -250.428187155613
   endloop
endfacet
facet normal 1.12884620935511e-005 2.62803348074051e-006 0.999999999932832
   outer loop
      vertex 184.711361009819 -187.930048498436 -250.428187155613
      vertex 179.155106390218 -190.155590978848 -250.428124530903
      vertex 189.473861009506 -187.930058384772 -250.42824083371
   endloop
endfacet
facet normal 1.12884620935511e-005 2.62803348074051e-006 0.999999999932832
   outer loop
      vertex 189.473861009506 -187.930058384772 -250.42824083371
      vertex 179.155106390218 -190.155590978848 -250.428124530903
      vertex 205.348861008463 -187.930091339227 -250.4284197607
   endloop
endfacet
facet normal 1.12884620935511e-005 2.62803348074051e-006 0.999999999932832
   outer loop
      vertex 205.348861008463 -187.930091339227 -250.4284197607
      vertex 179.155106390218 -190.155590978848 -250.428124530903
      vertex 210.11136100815 -187.930101225564 -250.428473438797
   endloop
endfacet
facet normal 1.12884620935511e-005 2.62803348074051e-006 0.999999999932832
   outer loop
      vertex 210.11136100815 -187.930101225564 -250.428473438797
      vertex 222.72877523915 -185.591682938711 -250.428631292892
      vertex 211.461451039001 -185.591687907447 -250.42849662704
   endloop
endfacet
facet normal 1.12884620935511e-005 2.62803348074051e-006 0.999999999932832
   outer loop
      vertex 222.72877523915 -185.591682938711 -250.428631292892
      vertex 210.11136100815 -187.930101225564 -250.428473438797
      vertex 222.728765768411 -190.155681328952 -250.428616118216
   endloop
endfacet
facet normal 1.12884620935511e-005 2.62803348074051e-006 0.999999999932832
   outer loop
      vertex 222.728765768411 -190.155681328952 -250.428616118216
      vertex 210.11136100815 -187.930101225564 -250.428473438797
      vertex 179.155106390218 -190.155590978848 -250.428124530903
   endloop
endfacet
facet normal 1.12884620935511e-005 2.62803348074051e-006 0.999999999932832
   outer loop
      vertex 222.728765768411 -190.155681328952 -250.428616118216
      vertex 179.155106390218 -190.155590978848 -250.428124530903
      vertex 200.708428788802 -190.155635720769 -250.428367458216
   endloop
endfacet
facet normal 1.12884620935511e-005 2.62803348074051e-006 0.999999999932832
   outer loop
      vertex 189.473861009506 -187.930058384772 -250.42824083371
      vertex 203.998791529948 -185.591691198378 -250.428412614563
      vertex 190.823921051678 -185.591697008315 -250.428264295655
   endloop
endfacet
facet normal 1.12884620935511e-005 2.62803348074051e-006 0.999999999932832
   outer loop
      vertex 203.998791529948 -185.591691198378 -250.428412614563
      vertex 189.473861009506 -187.930058384772 -250.42824083371
      vertex 205.348861008463 -187.930091339227 -250.4284197607
   endloop
endfacet
facet normal 1.12708076078721e-005 -1.14101693618771e-010 0.999999999936484
   outer loop
      vertex 205.348834169415 -187.930091339454 -252.809669760549
      vertex 206.900914491856 -185.591689918799 -252.809687253871
      vertex 203.998764690991 -185.591691198607 -252.80965454415
   endloop
endfacet
facet normal 1.12708076078721e-005 -1.14101693618771e-010 0.999999999936484
   outer loop
      vertex 206.900914491856 -185.591689918799 -252.809687253871
      vertex 205.348834169415 -187.930091339454 -252.809669760549
      vertex 207.216494709541 -185.722408292491 -252.809690811145
   endloop
endfacet
facet normal 1.12708076078721e-005 -1.14101693618771e-010 0.999999999936484
   outer loop
      vertex 207.216494709541 -185.722408292491 -252.809690811145
      vertex 205.348834169415 -187.930091339454 -252.809669760549
      vertex 207.73008861177 -185.790025297104 -252.809696599851
   endloop
endfacet
facet normal 1.12708076078721e-005 -1.14101693618771e-010 0.999999999936484
   outer loop
      vertex 208.243682794724 -185.722410424801 -252.809702388573
      vertex 211.461424200041 -185.591687907676 -252.809738653746
      vertex 208.559273631698 -185.591689187485 -252.809705945003
   endloop
endfacet
facet normal 1.12708076078721e-005 -1.14101693618771e-010 0.999999999936484
   outer loop
      vertex 211.461424200041 -185.591687907676 -252.809738653746
      vertex 208.243682794724 -185.722410424801 -252.809702388573
      vertex 210.111334169102 -187.930101225791 -252.809723438646
   endloop
endfacet
facet normal 1.12708076078721e-005 -1.14101693618771e-010 0.999999999936484
   outer loop
      vertex 210.111334169102 -187.930101225791 -252.809723438646
      vertex 208.243682794724 -185.722410424801 -252.809702388573
      vertex 207.73008861177 -185.790025297104 -252.809696599851
   endloop
endfacet
facet normal 1.12708076078721e-005 -1.14101693618771e-010 0.999999999936484
   outer loop
      vertex 210.111334169102 -187.930101225791 -252.809723438646
      vertex 207.73008861177 -185.790025297104 -252.809696599851
      vertex 205.348834169415 -187.930091339454 -252.809669760549
   endloop
endfacet
facet normal -5.19192657817801e-007 0.99999999999986 1.04444891965149e-007
   outer loop
      vertex 183.361321519672 -185.591700299219 -250.428180283853
      vertex 179.155045627398 -185.591702154714 -256.778124531029
      vertex 179.155042421435 -185.591702154131 -250.428141330925
   endloop
endfacet
facet normal -5.19192657817801e-007 0.99999999999986 1.04444891965149e-007
   outer loop
      vertex 179.155045627398 -185.591702154714 -256.778124531029
      vertex 183.361321519672 -185.591700299219 -250.428180283853
      vertex 183.36129468072 -185.59170029945 -252.809421939401
   endloop
endfacet
facet normal -5.19192657817801e-007 0.99999999999986 1.04444891965149e-007
   outer loop
      vertex 183.36129468072 -185.59170029945 -252.809421939401
      vertex 186.263495204615 -185.59169762752 -256.778204553235
      vertex 179.155045627398 -185.591702154714 -256.778124531029
   endloop
endfacet
facet normal -5.19192657817801e-007 0.99999999999986 1.04444891965149e-007
   outer loop
      vertex 186.263495204615 -185.59169762752 -256.778204553235
      vertex 183.36129468072 -185.59170029945 -252.809421939401
      vertex 186.263539890572 -185.5916990196 -252.809454604248
   endloop
endfacet
facet normal -4.40986369063005e-007 0.999999999999903 -9.12414906338157e-011
   outer loop
      vertex 208.559273631698 -185.591689187485 -252.809705945003
      vertex 222.728703671906 -185.591682939321 -256.778614492554
      vertex 208.559228899945 -185.591689187868 -256.778455555027
   endloop
endfacet
facet normal -4.40986369063005e-007 0.999999999999903 -9.12414906338157e-011
   outer loop
      vertex 222.728703671906 -185.591682939321 -256.778614492554
      vertex 208.559273631698 -185.591689187485 -252.809705945003
      vertex 211.461424200041 -185.591687907676 -252.809738653746
   endloop
endfacet
facet normal -4.40986369063005e-007 0.999999999999903 -9.12414906338157e-011
   outer loop
      vertex 222.728703671906 -185.591682939321 -256.778614492554
      vertex 211.461424200041 -185.591687907676 -252.809738653746
      vertex 211.461451039001 -185.591687907447 -250.42849662704
   endloop
endfacet
facet normal -4.40986369063005e-007 0.999999999999903 -9.12414906338157e-011
   outer loop
      vertex 222.728703671906 -185.591682939321 -256.778614492554
      vertex 211.461451039001 -185.591687907447 -250.42849662704
      vertex 222.72877523915 -185.591682938711 -250.428631292892
   endloop
endfacet
facet normal -0.258817040391928 0.965926363441946 3.25294709643287e-006
   outer loop
      vertex 187.606182796079 -185.72236758401 -252.809469783487
      vertex 187.921603547996 -185.591696896317 -256.778223215289
      vertex 187.606138110121 -185.72236619193 -256.778219732474
   endloop
endfacet
facet normal -0.258817040391928 0.965926363441946 3.25294709643287e-006
   outer loop
      vertex 187.921603547996 -185.591696896317 -256.778223215289
      vertex 187.606182796079 -185.72236758401 -252.809469783487
      vertex 187.921648233954 -185.591698288396 -252.809473266302
   endloop
endfacet
facet normal 2.07683387987128e-006 0.999999999997782 3.50736803180504e-007
   outer loop
      vertex 187.092588613125 -185.789982456312 -252.809463994765
      vertex 187.606138110121 -185.72236619193 -256.778219732474
      vertex 187.092543927168 -185.789981064233 -256.778213943752
   endloop
endfacet
facet normal 2.07683387987128e-006 0.999999999997782 3.50736803180504e-007
   outer loop
      vertex 187.606138110121 -185.72236619193 -256.778219732474
      vertex 187.092588613125 -185.789982456312 -252.809463994765
      vertex 187.606182796079 -185.72236758401 -252.809469783487
   endloop
endfacet
facet normal 0.25882104932559 0.965925289253454 -2.57537558978123e-006
   outer loop
      vertex 186.578994710896 -185.722365451699 -252.809458206059
      vertex 187.092543927168 -185.789981064233 -256.778213943752
      vertex 186.578950024938 -185.72236405962 -256.778208155046
   endloop
endfacet
facet normal 0.25882104932559 0.965925289253454 -2.57537558978123e-006
   outer loop
      vertex 187.092543927168 -185.789981064233 -256.778213943752
      vertex 186.578994710896 -185.722365451699 -252.809458206059
      vertex 187.092588613125 -185.789982456312 -252.809463994765
   endloop
endfacet
facet normal 0.382685350198193 0.92387873810788 -3.98476825512599e-006
   outer loop
      vertex 186.263539890572 -185.5916990196 -252.809454604248
      vertex 186.578950024938 -185.72236405962 -256.778208155046
      vertex 186.263495204615 -185.59169762752 -256.778204553235
   endloop
endfacet
facet normal 0.382685350198193 0.92387873810788 -3.98476825512599e-006
   outer loop
      vertex 186.578950024938 -185.72236405962 -256.778208155046
      vertex 186.263539890572 -185.5916990196 -252.809454604248
      vertex 186.578994710896 -185.722365451699 -252.809458206059
   endloop
endfacet
facet normal -0.382681514484995 0.923880326910833 4.31311199986959e-006
   outer loop
      vertex 208.243682794724 -185.722410424801 -252.809702388573
      vertex 208.559228899945 -185.591689187868 -256.778455555027
      vertex 208.243638062976 -185.72241042518 -256.778452388321
   endloop
endfacet
facet normal -0.382681514484995 0.923880326910833 4.31311199986959e-006
   outer loop
      vertex 208.559228899945 -185.591689187868 -256.778455555027
      vertex 208.243682794724 -185.722410424801 -252.809702388573
      vertex 208.559273631698 -185.591689187485 -252.809705945003
   endloop
endfacet
facet normal 2.07587123999094e-006 0.999999999997845 -1.18759270831168e-010
   outer loop
      vertex 207.73008861177 -185.790025297104 -252.809696599851
      vertex 208.243638062976 -185.72241042518 -256.778452388321
      vertex 207.730043880023 -185.790025297482 -256.778446599598
   endloop
endfacet
facet normal 2.07587123999094e-006 0.999999999997845 -1.18759270831168e-010
   outer loop
      vertex 208.243638062976 -185.72241042518 -256.778452388321
      vertex 207.73008861177 -185.790025297104 -252.809696599851
      vertex 208.243682794724 -185.722410424801 -252.809702388573
   endloop
endfacet
facet normal 0.258821050268592 0.965925288999803 -2.91726194947272e-006
   outer loop
      vertex 207.216494709541 -185.722408292491 -252.809690811145
      vertex 207.730043880023 -185.790025297482 -256.778446599598
      vertex 207.216449977793 -185.72240829287 -256.778440810892
   endloop
endfacet
facet normal 0.258821050268592 0.965925288999803 -2.91726194947272e-006
   outer loop
      vertex 207.730043880023 -185.790025297482 -256.778446599598
      vertex 207.216494709541 -185.722408292491 -252.809690811145
      vertex 207.73008861177 -185.790025297104 -252.809696599851
   endloop
endfacet
facet normal 0.382685350194534 0.92387873810792 -4.31333140011208e-006
   outer loop
      vertex 206.900914491856 -185.591689918799 -252.809687253871
      vertex 207.216449977793 -185.72240829287 -256.778440810892
      vertex 206.900869760123 -185.591689919181 -256.778436885688
   endloop
endfacet
facet normal 0.382685350194534 0.92387873810792 -4.31333140011208e-006
   outer loop
      vertex 207.216449977793 -185.72240829287 -256.778440810892
      vertex 206.900914491856 -185.591689918799 -252.809687253871
      vertex 207.216494709541 -185.722408292491 -252.809690811145
   endloop
endfacet
facet normal 1.12488186143623e-005 -2.51561986967489e-008 0.999999999936732
   outer loop
      vertex 184.71133417077 -187.930048498663 -252.809437155462
      vertex 186.263539890572 -185.5916990196 -252.809454604248
      vertex 183.36129468072 -185.59170029945 -252.809421939401
   endloop
endfacet
facet normal 1.12488186143623e-005 -2.51561986967489e-008 0.999999999936732
   outer loop
      vertex 186.263539890572 -185.5916990196 -252.809454604248
      vertex 184.71133417077 -187.930048498663 -252.809437155462
      vertex 186.578994710896 -185.722365451699 -252.809458206059
   endloop
endfacet
facet normal 1.12488186143623e-005 -2.51561986967489e-008 0.999999999936732
   outer loop
      vertex 186.578994710896 -185.722365451699 -252.809458206059
      vertex 184.71133417077 -187.930048498663 -252.809437155462
      vertex 187.092588613125 -185.789982456312 -252.809463994765
   endloop
endfacet
facet normal 1.12488186143623e-005 -2.51561986967489e-008 0.999999999936732
   outer loop
      vertex 187.606182796079 -185.72236758401 -252.809469783487
      vertex 190.823894212723 -185.591697008545 -252.809505812017
      vertex 187.921648233954 -185.591698288396 -252.809473266302
   endloop
endfacet
facet normal 1.12488186143623e-005 -2.51561986967489e-008 0.999999999936732
   outer loop
      vertex 190.823894212723 -185.591697008545 -252.809505812017
      vertex 187.606182796079 -185.72236758401 -252.809469783487
      vertex 189.473834170457 -187.930058384999 -252.809490833559
   endloop
endfacet
facet normal 1.12488186143623e-005 -2.51561986967489e-008 0.999999999936732
   outer loop
      vertex 189.473834170457 -187.930058384999 -252.809490833559
      vertex 187.606182796079 -185.72236758401 -252.809469783487
      vertex 187.092588613125 -185.789982456312 -252.809463994765
   endloop
endfacet
facet normal 1.12488186143623e-005 -2.51561986967489e-008 0.999999999936732
   outer loop
      vertex 189.473834170457 -187.930058384999 -252.809490833559
      vertex 187.092588613125 -185.789982456312 -252.809463994765
      vertex 184.71133417077 -187.930048498663 -252.809437155462
   endloop
endfacet
facet normal 2.07587119526904e-006 0.999999999997846 -1.18736838477862e-010
   outer loop
      vertex 184.711361009819 -187.930048498436 -250.428187155613
      vertex 189.473834170457 -187.930058384999 -252.809490833559
      vertex 184.71133417077 -187.930048498663 -252.809437155462
   endloop
endfacet
facet normal 2.07587119526904e-006 0.999999999997846 -1.18736838477862e-010
   outer loop
      vertex 189.473834170457 -187.930058384999 -252.809490833559
      vertex 184.711361009819 -187.930048498436 -250.428187155613
      vertex 189.473861009506 -187.930058384772 -250.42824083371
   endloop
endfacet
facet normal -1.12646529260852e-005 1.07132173899609e-007 -0.999999999936548
   outer loop
      vertex 206.900869760123 -185.591689919181 -256.778436885688
      vertex 187.606138110121 -185.72236619193 -256.778219732474
      vertex 187.921603547996 -185.591696896317 -256.778223215289
   endloop
endfacet
facet normal -1.12646529260852e-005 1.07132173899609e-007 -0.999999999936548
   outer loop
      vertex 187.606138110121 -185.72236619193 -256.778219732474
      vertex 206.900869760123 -185.591689919181 -256.778436885688
      vertex 207.216449977793 -185.72240829287 -256.778440810892
   endloop
endfacet
facet normal -1.12646529260852e-005 1.07132173899609e-007 -0.999999999936548
   outer loop
      vertex 187.606138110121 -185.72236619193 -256.778219732474
      vertex 207.216449977793 -185.72240829287 -256.778440810892
      vertex 187.092543927168 -185.789981064233 -256.778213943752
   endloop
endfacet
facet normal -1.12646529260852e-005 1.07132173899609e-007 -0.999999999936548
   outer loop
      vertex 187.092543927168 -185.789981064233 -256.778213943752
      vertex 207.216449977793 -185.72240829287 -256.778440810892
      vertex 207.730043880023 -185.790025297482 -256.778446599598
   endloop
endfacet
facet normal -1.12646529260852e-005 1.07132173899609e-007 -0.999999999936548
   outer loop
      vertex 222.728694197615 -190.155681329558 -256.778616117813
      vertex 208.559228899945 -185.591689187868 -256.778455555027
      vertex 222.728703671906 -185.591682939321 -256.778614492554
   endloop
endfacet
facet normal -1.12646529260852e-005 1.07132173899609e-007 -0.999999999936548
   outer loop
      vertex 208.559228899945 -185.591689187868 -256.778455555027
      vertex 222.728694197615 -190.155681329558 -256.778616117813
      vertex 208.243638062976 -185.72241042518 -256.778452388321
   endloop
endfacet
facet normal -1.12646529260852e-005 1.07132173899609e-007 -0.999999999936548
   outer loop
      vertex 208.243638062976 -185.72241042518 -256.778452388321
      vertex 222.728694197615 -190.155681329558 -256.778616117813
      vertex 207.730043880023 -185.790025297482 -256.778446599598
   endloop
endfacet
facet normal -1.12646529260852e-005 1.07132173899609e-007 -0.999999999936548
   outer loop
      vertex 207.730043880023 -185.790025297482 -256.778446599598
      vertex 222.728694197615 -190.155681329558 -256.778616117813
      vertex 179.155034819422 -190.155590979453 -256.778124530499
   endloop
endfacet
facet normal -1.12646529260852e-005 1.07132173899609e-007 -0.999999999936548
   outer loop
      vertex 186.578950024938 -185.72236405962 -256.778208155046
      vertex 179.155045627398 -185.591702154714 -256.778124531029
      vertex 186.263495204615 -185.59169762752 -256.778204553235
   endloop
endfacet
facet normal -1.12646529260852e-005 1.07132173899609e-007 -0.999999999936548
   outer loop
      vertex 179.155045627398 -185.591702154714 -256.778124531029
      vertex 186.578950024938 -185.72236405962 -256.778208155046
      vertex 179.155034819422 -190.155590979453 -256.778124530499
   endloop
endfacet
facet normal -1.12646529260852e-005 1.07132173899609e-007 -0.999999999936548
   outer loop
      vertex 179.155034819422 -190.155590979453 -256.778124530499
      vertex 186.578950024938 -185.72236405962 -256.778208155046
      vertex 187.092543927168 -185.789981064233 -256.778213943752
   endloop
endfacet
facet normal -1.12646529260852e-005 1.07132173899609e-007 -0.999999999936548
   outer loop
      vertex 179.155034819422 -190.155590979453 -256.778124530499
      vertex 187.092543927168 -185.789981064233 -256.778213943752
      vertex 207.730043880023 -185.790025297482 -256.778446599598
   endloop
endfacet
facet normal 2.07587119526904e-006 0.999999999997846 -1.18736838477862e-010
   outer loop
      vertex 205.348861008463 -187.930091339227 -250.4284197607
      vertex 210.111334169102 -187.930101225791 -252.809723438646
      vertex 205.348834169415 -187.930091339454 -252.809669760549
   endloop
endfacet
facet normal 2.07587119526904e-006 0.999999999997846 -1.18736838477862e-010
   outer loop
      vertex 210.111334169102 -187.930101225791 -252.809723438646
      vertex 205.348861008463 -187.930091339227 -250.4284197607
      vertex 210.11136100815 -187.930101225564 -250.428473438797
   endloop
endfacet
facet normal 0.866026441663177 0.499998202241706 -9.76102435412162e-006
   outer loop
      vertex 183.36129468072 -185.59170029945 -252.809421939401
      vertex 184.711361009819 -187.930048498436 -250.428187155613
      vertex 184.71133417077 -187.930048498663 -252.809437155462
   endloop
endfacet
facet normal 0.866026441663177 0.499998202241706 -9.76102435412162e-006
   outer loop
      vertex 184.711361009819 -187.930048498436 -250.428187155613
      vertex 183.36129468072 -185.59170029945 -252.809421939401
      vertex 183.361321519672 -185.591700299219 -250.428180283853
   endloop
endfacet
facet normal 0.866026441663186 0.499998202241691 -9.76102438461846e-006
   outer loop
      vertex 203.998764690991 -185.591691198607 -252.80965454415
      vertex 205.348861008463 -187.930091339227 -250.4284197607
      vertex 205.348834169415 -187.930091339454 -252.809669760549
   endloop
endfacet
facet normal 0.866026441663186 0.499998202241691 -9.76102438461846e-006
   outer loop
      vertex 205.348861008463 -187.930091339227 -250.4284197607
      vertex 203.998764690991 -185.591691198607 -252.80965454415
      vertex 203.998791529948 -185.591691198378 -250.428412614563
   endloop
endfacet
facet normal -0.866024365791946 0.500001797756152 9.76090562769406e-006
   outer loop
      vertex 189.473861009506 -187.930058384772 -250.42824083371
      vertex 190.823894212723 -185.591697008545 -252.809505812017
      vertex 189.473834170457 -187.930058384999 -252.809490833559
   endloop
endfacet
facet normal -0.866024365791946 0.500001797756152 9.76090562769406e-006
   outer loop
      vertex 190.823894212723 -185.591697008545 -252.809505812017
      vertex 189.473861009506 -187.930058384772 -250.42824083371
      vertex 190.823921051678 -185.591697008315 -250.428264295655
   endloop
endfacet
facet normal -2.07587119629555e-006 -0.999999999997846 1.18727734660563e-010
   outer loop
      vertex 222.728694197615 -190.155681329558 -256.778616117813
      vertex 179.155106390218 -190.155590978848 -250.428124530903
      vertex 179.155034819422 -190.155590979453 -256.778124530499
   endloop
endfacet
facet normal -2.07587119629555e-006 -0.999999999997846 1.18727734660563e-010
   outer loop
      vertex 179.155106390218 -190.155590978848 -250.428124530903
      vertex 222.728694197615 -190.155681329558 -256.778616117813
      vertex 200.708428788802 -190.155635720769 -250.428367458216
   endloop
endfacet
facet normal -2.07587119629555e-006 -0.999999999997846 1.18727734660563e-010
   outer loop
      vertex 200.708428788802 -190.155635720769 -250.428367458216
      vertex 222.728694197615 -190.155681329558 -256.778616117813
      vertex 222.728765768411 -190.155681328952 -250.428616118216
   endloop
endfacet
facet normal -0.866024365791946 0.500001797756151 9.76090563922367e-006
   outer loop
      vertex 210.111334169102 -187.930101225791 -252.809723438646
      vertex 211.461451039001 -185.591687907447 -250.42849662704
      vertex 211.461424200041 -185.591687907676 -252.809738653746
   endloop
endfacet
facet normal -0.866024365791946 0.500001797756151 9.76090563922367e-006
   outer loop
      vertex 211.461451039001 -185.591687907447 -250.42849662704
      vertex 210.111334169102 -187.930101225791 -252.809723438646
      vertex 210.11136100815 -187.930101225564 -250.428473438797
   endloop
endfacet
endsolid Milk Strap B_1_a
