solid Z_Carriages_6_11_13
facet normal 1.07828295799089e-013 -0.923879532511304 -0.382683432365048
   outer loop
      vertex 522.124359801926 -627.944907777247 -163.927125899482
      vertex 512.599359801927 -627.70701989616 -164.501438048332
      vertex 522.124359801926 -627.707019896158 -164.501438048332
   endloop
endfacet
facet normal 1.07828295799089e-013 -0.923879532511304 -0.382683432365048
   outer loop
      vertex 512.599359801927 -627.70701989616 -164.501438048332
      vertex 522.124359801926 -627.944907777247 -163.927125899482
      vertex 512.599359801927 -627.944907777249 -163.927125899482
   endloop
endfacet
facet normal -7.69662282264963e-015 0.991444861373838 0.130526192219846
   outer loop
      vertex 512.599359801926 -621.533695767101 -162.847300833335
      vertex 522.124359801926 -621.234785345246 -165.117750899484
      vertex 512.599359801926 -621.234785345246 -165.117750899484
   endloop
endfacet
facet normal -7.69662282264963e-015 0.991444861373838 0.130526192219846
   outer loop
      vertex 522.124359801926 -621.234785345246 -165.117750899484
      vertex 512.599359801926 -621.533695767101 -162.847300833335
      vertex 522.124359801926 -621.533695767101 -162.847300833335
   endloop
endfacet
facet normal 9.38936229085122e-015 -2.42473684277908e-015 -1.0
   outer loop
      vertex 522.124359801927 -629.592710109711 -173.835536809266
      vertex 512.599359801927 -650.644630770009 -173.835536809266
      vertex 512.599359801927 -629.592710109711 -173.835536809266
   endloop
endfacet
facet normal 9.38936229085122e-015 -2.42473684277908e-015 -1.0
   outer loop
      vertex 512.599359801927 -650.644630770009 -173.835536809266
      vertex 522.124359801927 -629.592710109711 -173.835536809266
      vertex 522.124359801926 -644.317617770009 -173.835536809266
   endloop
endfacet
facet normal 9.38936229085122e-015 -2.42473684277908e-015 -1.0
   outer loop
      vertex 522.124359801926 -644.317617770009 -173.835536809266
      vertex 524.752837822271 -650.644630770008 -173.835536809266
      vertex 512.599359801927 -650.644630770009 -173.835536809266
   endloop
endfacet
facet normal 9.38936229085122e-015 -2.42473684277908e-015 -1.0
   outer loop
      vertex 524.752837822271 -650.644630770008 -173.835536809266
      vertex 522.124359801926 -644.317617770009 -173.835536809266
      vertex 530.855609801926 -644.317617770009 -173.835536809266
   endloop
endfacet
facet normal 9.38936229085122e-015 -2.42473684277908e-015 -1.0
   outer loop
      vertex 524.752837822271 -650.644630770008 -173.835536809266
      vertex 530.855609801926 -644.317617770009 -173.835536809266
      vertex 527.475865234945 -655.913279932292 -173.835536809266
   endloop
endfacet
facet normal 9.38936229085122e-015 -2.42473684277908e-015 -1.0
   outer loop
      vertex 527.475865234945 -655.913279932292 -173.835536809266
      vertex 530.855609801926 -644.317617770009 -173.835536809266
      vertex 527.900315704333 -657.559909129496 -173.835536809266
   endloop
endfacet
facet normal 9.38936229085122e-015 -2.42473684277908e-015 -1.0
   outer loop
      vertex 527.900315704333 -657.559909129496 -173.835536809266
      vertex 530.855609801926 -644.317617770009 -173.835536809266
      vertex 527.900315704333 -659.292387593845 -173.835536809266
   endloop
endfacet
facet normal 9.38936229085122e-015 -2.42473684277908e-015 -1.0
   outer loop
      vertex 527.900315704333 -659.292387593845 -173.835536809266
      vertex 530.855609801926 -644.317617770009 -173.835536809266
      vertex 530.855609801926 -659.292387593845 -173.835536809266
   endloop
endfacet
facet normal -1.12014669266884e-013 0.923879532511274 -0.382683432365121
   outer loop
      vertex 512.599359801927 -632.069353762772 -163.927125899482
      vertex 522.124359801927 -632.30724164386 -164.501438048331
      vertex 512.599359801927 -632.307241643861 -164.501438048331
   endloop
endfacet
facet normal -1.12014669266884e-013 0.923879532511274 -0.382683432365121
   outer loop
      vertex 522.124359801927 -632.30724164386 -164.501438048331
      vertex 512.599359801927 -632.069353762772 -163.927125899482
      vertex 522.124359801927 -632.06935376277 -163.927125899482
   endloop
endfacet
facet normal 9.61352353273804e-016 -1.0 -2.76285830463508e-015
   outer loop
      vertex 524.752837822271 -650.644630770008 -173.835536809266
      vertex 512.599359801927 -650.644630770009 -156.399964989699
      vertex 512.599359801927 -650.644630770009 -173.835536809266
   endloop
endfacet
facet normal 9.61352353273804e-016 -1.0 -2.76285830463508e-015
   outer loop
      vertex 512.599359801927 -650.644630770009 -156.399964989699
      vertex 524.752837822271 -650.644630770008 -173.835536809266
      vertex 524.752837822271 -650.644630770009 -162.722802424561
   endloop
endfacet
facet normal 9.61352353273804e-016 -1.0 -2.76285830463508e-015
   outer loop
      vertex 512.599359801927 -650.644630770009 -156.399964989699
      vertex 524.752837822271 -650.644630770009 -162.722802424561
      vertex 530.855609801926 -650.644630770009 -162.722802424561
   endloop
endfacet
facet normal 9.61352353273804e-016 -1.0 -2.76285830463508e-015
   outer loop
      vertex 512.599359801927 -650.644630770009 -156.399964989699
      vertex 530.855609801926 -650.644630770009 -162.722802424561
      vertex 530.855609801926 -650.644630770009 -156.399964989699
   endloop
endfacet
facet normal -9.77214961959868e-014 0.793353340291165 -0.608761429008812
   outer loop
      vertex 512.599359801927 -631.690928792711 -163.433952876781
      vertex 522.124359801927 -632.06935376277 -163.927125899482
      vertex 512.599359801927 -632.069353762772 -163.927125899482
   endloop
endfacet
facet normal -9.77214961959868e-014 0.793353340291165 -0.608761429008812
   outer loop
      vertex 522.124359801927 -632.06935376277 -163.927125899482
      vertex 512.599359801927 -631.690928792711 -163.433952876781
      vertex 522.124359801926 -631.690928792709 -163.433952876781
   endloop
endfacet
facet normal 6.80898590773595e-014 -0.608761429008777 -0.793353340291192
   outer loop
      vertex 522.124359801926 -628.323332747308 -163.433952876782
      vertex 512.599359801927 -628.81650577001 -163.05552790672
      vertex 512.599359801927 -628.32333274731 -163.433952876782
   endloop
endfacet
facet normal 6.80898590773595e-014 -0.608761429008777 -0.793353340291192
   outer loop
      vertex 512.599359801927 -628.81650577001 -163.05552790672
      vertex 522.124359801926 -628.323332747308 -163.433952876782
      vertex 522.124359801926 -628.816505770009 -163.05552790672
   endloop
endfacet
facet normal 1.0 2.09594097410222e-014 -1.15412598824374e-014
   outer loop
      vertex 522.124359801927 -629.592710109711 -173.835536809266
      vertex 522.124359801926 -644.317617770009 -156.399964989699
      vertex 522.124359801926 -644.317617770009 -173.835536809266
   endloop
endfacet
facet normal 1.0 2.09594097410222e-014 -1.15412598824374e-014
   outer loop
      vertex 522.124359801926 -644.317617770009 -156.399964989699
      vertex 522.124359801927 -629.592710109711 -173.835536809266
      vertex 522.124359801927 -632.30724164386 -165.734063750632
   endloop
endfacet
facet normal 1.0 2.09594097410222e-014 -1.15412598824374e-014
   outer loop
      vertex 522.124359801926 -644.317617770009 -156.399964989699
      vertex 522.124359801927 -632.30724164386 -165.734063750632
      vertex 522.124359801927 -632.388380770009 -165.117750899482
   endloop
endfacet
facet normal 1.0 2.09594097410222e-014 -1.15412598824374e-014
   outer loop
      vertex 522.124359801927 -632.30724164386 -165.734063750632
      vertex 522.124359801927 -629.592710109711 -173.835536809266
      vertex 522.124359801927 -632.069353762771 -166.308375899482
   endloop
endfacet
facet normal 1.0 2.09594097410222e-014 -1.15412598824374e-014
   outer loop
      vertex 522.124359801927 -632.069353762771 -166.308375899482
      vertex 522.124359801927 -629.592710109711 -173.835536809266
      vertex 522.124359801926 -631.690928792709 -166.801548922182
   endloop
endfacet
facet normal 1.0 2.09594097410222e-014 -1.15412598824374e-014
   outer loop
      vertex 522.124359801926 -631.690928792709 -166.801548922182
      vertex 522.124359801927 -629.592710109711 -173.835536809266
      vertex 522.124359801926 -631.197755770009 -167.179973892244
   endloop
endfacet
facet normal 1.0 2.09594097410222e-014 -1.15412598824374e-014
   outer loop
      vertex 522.124359801926 -631.197755770009 -167.179973892244
      vertex 522.124359801927 -629.592710109711 -173.835536809266
      vertex 522.124359801926 -630.623443621159 -167.417861773333
   endloop
endfacet
facet normal 1.0 2.09594097410222e-014 -1.15412598824374e-014
   outer loop
      vertex 522.124359801926 -630.623443621159 -167.417861773333
      vertex 522.124359801927 -629.592710109711 -173.835536809266
      vertex 522.124359801926 -630.007130770009 -167.499000899482
   endloop
endfacet
facet normal 1.0 2.09594097410222e-014 -1.15412598824374e-014
   outer loop
      vertex 522.124359801926 -630.007130770009 -167.499000899482
      vertex 522.124359801927 -629.592710109711 -173.835536809266
      vertex 522.124359801926 -629.390817918859 -167.417861773333
   endloop
endfacet
facet normal 1.0 2.09594097410222e-014 -1.15412598824374e-014
   outer loop
      vertex 522.124359801926 -629.390817918859 -167.417861773333
      vertex 522.124359801927 -629.592710109711 -173.835536809266
      vertex 522.124359801926 -627.736680703863 -173.59118590239
   endloop
endfacet
facet normal 1.0 2.09594097410222e-014 -1.15412598824374e-014
   outer loop
      vertex 522.124359801926 -629.390817918859 -167.417861773333
      vertex 522.124359801926 -627.736680703863 -173.59118590239
      vertex 522.124359801926 -628.816505770009 -167.179973892244
   endloop
endfacet
facet normal 1.0 2.09594097410222e-014 -1.15412598824374e-014
   outer loop
      vertex 522.124359801926 -628.816505770009 -167.179973892244
      vertex 522.124359801926 -627.736680703863 -173.59118590239
      vertex 522.124359801926 -628.323332747309 -166.801548922183
   endloop
endfacet
facet normal 1.0 2.09594097410222e-014 -1.15412598824374e-014
   outer loop
      vertex 522.124359801926 -628.323332747309 -166.801548922183
      vertex 522.124359801926 -627.736680703863 -173.59118590239
      vertex 522.124359801926 -627.944907777247 -166.308375899482
   endloop
endfacet
facet normal 1.0 2.09594097410222e-014 -1.15412598824374e-014
   outer loop
      vertex 522.124359801926 -627.944907777247 -166.308375899482
      vertex 522.124359801926 -627.736680703863 -173.59118590239
      vertex 522.124359801926 -627.707019896158 -165.734063750633
   endloop
endfacet
facet normal 1.0 2.09594097410222e-014 -1.15412598824374e-014
   outer loop
      vertex 522.124359801926 -627.707019896158 -165.734063750633
      vertex 522.124359801926 -627.736680703863 -173.59118590239
      vertex 522.124359801926 -625.620958057628 -172.7148248881
   endloop
endfacet
facet normal 1.0 2.09594097410222e-014 -1.15412598824374e-014
   outer loop
      vertex 522.124359801926 -627.707019896158 -165.734063750633
      vertex 522.124359801926 -625.620958057628 -172.7148248881
      vertex 522.124359801926 -627.625880770009 -165.117750899482
   endloop
endfacet
facet normal 1.0 2.09594097410222e-014 -1.15412598824374e-014
   outer loop
      vertex 522.124359801926 -644.317617770009 -156.399964989699
      vertex 522.124359801927 -632.30724164386 -164.501438048331
      vertex 522.124359801927 -629.59271010971 -156.399964989699
   endloop
endfacet
facet normal 1.0 2.09594097410222e-014 -1.15412598824374e-014
   outer loop
      vertex 522.124359801927 -632.30724164386 -164.501438048331
      vertex 522.124359801926 -644.317617770009 -156.399964989699
      vertex 522.124359801927 -632.388380770009 -165.117750899482
   endloop
endfacet
facet normal 1.0 2.09594097410222e-014 -1.15412598824374e-014
   outer loop
      vertex 522.124359801927 -629.59271010971 -156.399964989699
      vertex 522.124359801927 -632.30724164386 -164.501438048331
      vertex 522.124359801927 -632.06935376277 -163.927125899482
   endloop
endfacet
facet normal 1.0 2.09594097410222e-014 -1.15412598824374e-014
   outer loop
      vertex 522.124359801927 -629.59271010971 -156.399964989699
      vertex 522.124359801927 -632.06935376277 -163.927125899482
      vertex 522.124359801926 -631.690928792709 -163.433952876781
   endloop
endfacet
facet normal 1.0 2.09594097410222e-014 -1.15412598824374e-014
   outer loop
      vertex 522.124359801927 -629.59271010971 -156.399964989699
      vertex 522.124359801926 -631.690928792709 -163.433952876781
      vertex 522.124359801926 -631.197755770009 -163.05552790672
   endloop
endfacet
facet normal 1.0 2.09594097410222e-014 -1.15412598824374e-014
   outer loop
      vertex 522.124359801927 -629.59271010971 -156.399964989699
      vertex 522.124359801926 -631.197755770009 -163.05552790672
      vertex 522.124359801926 -630.623443621159 -162.817640025631
   endloop
endfacet
facet normal 1.0 2.09594097410222e-014 -1.15412598824374e-014
   outer loop
      vertex 522.124359801927 -629.59271010971 -156.399964989699
      vertex 522.124359801926 -630.623443621159 -162.817640025631
      vertex 522.124359801926 -630.007130770009 -162.736500899482
   endloop
endfacet
facet normal 1.0 2.09594097410222e-014 -1.15412598824374e-014
   outer loop
      vertex 522.124359801927 -629.59271010971 -156.399964989699
      vertex 522.124359801926 -630.007130770009 -162.736500899482
      vertex 522.124359801926 -629.390817918858 -162.817640025631
   endloop
endfacet
facet normal 1.0 2.09594097410222e-014 -1.15412598824374e-014
   outer loop
      vertex 522.124359801927 -629.59271010971 -156.399964989699
      vertex 522.124359801926 -629.390817918858 -162.817640025631
      vertex 522.124359801927 -627.736680703862 -156.644315896575
   endloop
endfacet
facet normal 1.0 2.09594097410222e-014 -1.15412598824374e-014
   outer loop
      vertex 522.124359801927 -627.736680703862 -156.644315896575
      vertex 522.124359801926 -629.390817918858 -162.817640025631
      vertex 522.124359801926 -628.816505770009 -163.05552790672
   endloop
endfacet
facet normal 1.0 2.09594097410222e-014 -1.15412598824374e-014
   outer loop
      vertex 522.124359801927 -627.736680703862 -156.644315896575
      vertex 522.124359801926 -628.816505770009 -163.05552790672
      vertex 522.124359801926 -628.323332747308 -163.433952876782
   endloop
endfacet
facet normal 1.0 2.09594097410222e-014 -1.15412598824374e-014
   outer loop
      vertex 522.124359801927 -627.736680703862 -156.644315896575
      vertex 522.124359801926 -628.323332747308 -163.433952876782
      vertex 522.124359801926 -627.944907777247 -163.927125899482
   endloop
endfacet
facet normal 1.0 2.09594097410222e-014 -1.15412598824374e-014
   outer loop
      vertex 522.124359801927 -627.736680703862 -156.644315896575
      vertex 522.124359801926 -627.944907777247 -163.927125899482
      vertex 522.124359801926 -627.707019896158 -164.501438048332
   endloop
endfacet
facet normal 1.0 2.09594097410222e-014 -1.15412598824374e-014
   outer loop
      vertex 522.124359801927 -627.736680703862 -156.644315896575
      vertex 522.124359801926 -627.707019896158 -164.501438048332
      vertex 522.124359801926 -625.620958057627 -157.520676910864
   endloop
endfacet
facet normal 1.0 2.09594097410222e-014 -1.15412598824374e-014
   outer loop
      vertex 522.124359801926 -625.620958057627 -157.520676910864
      vertex 522.124359801926 -627.707019896158 -164.501438048332
      vertex 522.124359801926 -627.625880770009 -165.117750899482
   endloop
endfacet
facet normal 1.0 2.09594097410222e-014 -1.15412598824374e-014
   outer loop
      vertex 522.124359801926 -625.620958057627 -157.520676910864
      vertex 522.124359801926 -627.625880770009 -165.117750899482
      vertex 522.124359801926 -625.620958057628 -172.7148248881
   endloop
endfacet
facet normal 1.0 2.09594097410222e-014 -1.15412598824374e-014
   outer loop
      vertex 522.124359801926 -625.620958057627 -157.520676910864
      vertex 522.124359801926 -625.620958057628 -172.7148248881
      vertex 522.124359801926 -623.804145833249 -171.320735836244
   endloop
endfacet
facet normal 1.0 2.09594097410222e-014 -1.15412598824374e-014
   outer loop
      vertex 522.124359801926 -625.620958057627 -157.520676910864
      vertex 522.124359801926 -623.804145833249 -171.320735836244
      vertex 522.124359801926 -623.804145833248 -158.914765962721
   endloop
endfacet
facet normal 1.0 2.09594097410222e-014 -1.15412598824374e-014
   outer loop
      vertex 522.124359801926 -623.804145833248 -158.914765962721
      vertex 522.124359801926 -623.804145833249 -171.320735836244
      vertex 522.124359801926 -622.410056781392 -169.503923611865
   endloop
endfacet
facet normal 1.0 2.09594097410222e-014 -1.15412598824374e-014
   outer loop
      vertex 522.124359801926 -623.804145833248 -158.914765962721
      vertex 522.124359801926 -622.410056781392 -169.503923611865
      vertex 522.124359801926 -622.410056781392 -160.731578187101
   endloop
endfacet
facet normal 1.0 2.09594097410222e-014 -1.15412598824374e-014
   outer loop
      vertex 522.124359801926 -622.410056781392 -160.731578187101
      vertex 522.124359801926 -622.410056781392 -169.503923611865
      vertex 522.124359801926 -621.533695767102 -167.38820096563
   endloop
endfacet
facet normal 1.0 2.09594097410222e-014 -1.15412598824374e-014
   outer loop
      vertex 522.124359801926 -622.410056781392 -160.731578187101
      vertex 522.124359801926 -621.533695767102 -167.38820096563
      vertex 522.124359801926 -621.533695767101 -162.847300833335
   endloop
endfacet
facet normal 1.0 2.09594097410222e-014 -1.15412598824374e-014
   outer loop
      vertex 522.124359801926 -621.533695767101 -162.847300833335
      vertex 522.124359801926 -621.533695767102 -167.38820096563
      vertex 522.124359801926 -621.234785345246 -165.117750899484
   endloop
endfacet
facet normal -1.0 -1.032519654261e-014 1.16352427493937e-014
   outer loop
      vertex 512.599359801927 -629.59271010971 -156.399964989699
      vertex 512.599359801927 -650.644630770009 -173.835536809266
      vertex 512.599359801927 -650.644630770009 -156.399964989699
   endloop
endfacet
facet normal -1.0 -1.032519654261e-014 1.16352427493937e-014
   outer loop
      vertex 512.599359801927 -650.644630770009 -173.835536809266
      vertex 512.599359801927 -629.59271010971 -156.399964989699
      vertex 512.599359801927 -632.307241643861 -164.501438048331
   endloop
endfacet
facet normal -1.0 -1.032519654261e-014 1.16352427493937e-014
   outer loop
      vertex 512.599359801927 -650.644630770009 -173.835536809266
      vertex 512.599359801927 -632.307241643861 -164.501438048331
      vertex 512.599359801927 -632.38838077001 -165.117750899482
   endloop
endfacet
facet normal -1.0 -1.032519654261e-014 1.16352427493937e-014
   outer loop
      vertex 512.599359801927 -632.307241643861 -164.501438048331
      vertex 512.599359801927 -629.59271010971 -156.399964989699
      vertex 512.599359801927 -632.069353762772 -163.927125899482
   endloop
endfacet
facet normal -1.0 -1.032519654261e-014 1.16352427493937e-014
   outer loop
      vertex 512.599359801927 -632.069353762772 -163.927125899482
      vertex 512.599359801927 -629.59271010971 -156.399964989699
      vertex 512.599359801927 -631.690928792711 -163.433952876781
   endloop
endfacet
facet normal -1.0 -1.032519654261e-014 1.16352427493937e-014
   outer loop
      vertex 512.599359801927 -631.690928792711 -163.433952876781
      vertex 512.599359801927 -629.59271010971 -156.399964989699
      vertex 512.599359801927 -631.19775577001 -163.05552790672
   endloop
endfacet
facet normal -1.0 -1.032519654261e-014 1.16352427493937e-014
   outer loop
      vertex 512.599359801927 -631.19775577001 -163.05552790672
      vertex 512.599359801927 -629.59271010971 -156.399964989699
      vertex 512.599359801927 -630.623443621161 -162.817640025631
   endloop
endfacet
facet normal -1.0 -1.032519654261e-014 1.16352427493937e-014
   outer loop
      vertex 512.599359801927 -630.623443621161 -162.817640025631
      vertex 512.599359801927 -629.59271010971 -156.399964989699
      vertex 512.599359801927 -630.00713077001 -162.736500899482
   endloop
endfacet
facet normal -1.0 -1.032519654261e-014 1.16352427493937e-014
   outer loop
      vertex 512.599359801927 -630.00713077001 -162.736500899482
      vertex 512.599359801927 -629.59271010971 -156.399964989699
      vertex 512.599359801927 -629.39081791886 -162.817640025631
   endloop
endfacet
facet normal -1.0 -1.032519654261e-014 1.16352427493937e-014
   outer loop
      vertex 512.599359801927 -629.39081791886 -162.817640025631
      vertex 512.599359801927 -629.59271010971 -156.399964989699
      vertex 512.599359801927 -627.736680703862 -156.644315896575
   endloop
endfacet
facet normal -1.0 -1.032519654261e-014 1.16352427493937e-014
   outer loop
      vertex 512.599359801927 -629.39081791886 -162.817640025631
      vertex 512.599359801927 -627.736680703862 -156.644315896575
      vertex 512.599359801927 -628.81650577001 -163.05552790672
   endloop
endfacet
facet normal -1.0 -1.032519654261e-014 1.16352427493937e-014
   outer loop
      vertex 512.599359801927 -628.81650577001 -163.05552790672
      vertex 512.599359801927 -627.736680703862 -156.644315896575
      vertex 512.599359801927 -628.32333274731 -163.433952876782
   endloop
endfacet
facet normal -1.0 -1.032519654261e-014 1.16352427493937e-014
   outer loop
      vertex 512.599359801927 -628.32333274731 -163.433952876782
      vertex 512.599359801927 -627.736680703862 -156.644315896575
      vertex 512.599359801927 -627.944907777249 -163.927125899482
   endloop
endfacet
facet normal -1.0 -1.032519654261e-014 1.16352427493937e-014
   outer loop
      vertex 512.599359801927 -627.944907777249 -163.927125899482
      vertex 512.599359801927 -627.736680703862 -156.644315896575
      vertex 512.599359801927 -627.70701989616 -164.501438048332
   endloop
endfacet
facet normal -1.0 -1.032519654261e-014 1.16352427493937e-014
   outer loop
      vertex 512.599359801927 -627.70701989616 -164.501438048332
      vertex 512.599359801927 -627.736680703862 -156.644315896575
      vertex 512.599359801927 -625.620958057627 -157.520676910864
   endloop
endfacet
facet normal -1.0 -1.032519654261e-014 1.16352427493937e-014
   outer loop
      vertex 512.599359801927 -627.70701989616 -164.501438048332
      vertex 512.599359801927 -625.620958057627 -157.520676910864
      vertex 512.599359801927 -627.62588077001 -165.117750899482
   endloop
endfacet
facet normal -1.0 -1.032519654261e-014 1.16352427493937e-014
   outer loop
      vertex 512.599359801927 -627.62588077001 -165.117750899482
      vertex 512.599359801927 -625.620958057627 -157.520676910864
      vertex 512.599359801927 -625.620958057628 -172.7148248881
   endloop
endfacet
facet normal -1.0 -1.032519654261e-014 1.16352427493937e-014
   outer loop
      vertex 512.599359801927 -625.620958057628 -172.7148248881
      vertex 512.599359801927 -625.620958057627 -157.520676910864
      vertex 512.599359801926 -623.804145833249 -171.320735836244
   endloop
endfacet
facet normal -1.0 -1.032519654261e-014 1.16352427493937e-014
   outer loop
      vertex 512.599359801926 -623.804145833249 -171.320735836244
      vertex 512.599359801927 -625.620958057627 -157.520676910864
      vertex 512.599359801927 -623.804145833248 -158.914765962721
   endloop
endfacet
facet normal -1.0 -1.032519654261e-014 1.16352427493937e-014
   outer loop
      vertex 512.599359801926 -623.804145833249 -171.320735836244
      vertex 512.599359801927 -623.804145833248 -158.914765962721
      vertex 512.599359801926 -622.410056781392 -169.503923611865
   endloop
endfacet
facet normal -1.0 -1.032519654261e-014 1.16352427493937e-014
   outer loop
      vertex 512.599359801926 -622.410056781392 -169.503923611865
      vertex 512.599359801927 -623.804145833248 -158.914765962721
      vertex 512.599359801926 -622.410056781392 -160.731578187101
   endloop
endfacet
facet normal -1.0 -1.032519654261e-014 1.16352427493937e-014
   outer loop
      vertex 512.599359801926 -622.410056781392 -169.503923611865
      vertex 512.599359801926 -622.410056781392 -160.731578187101
      vertex 512.599359801926 -621.533695767102 -167.38820096563
   endloop
endfacet
facet normal -1.0 -1.032519654261e-014 1.16352427493937e-014
   outer loop
      vertex 512.599359801926 -621.533695767102 -167.38820096563
      vertex 512.599359801926 -622.410056781392 -160.731578187101
      vertex 512.599359801926 -621.533695767101 -162.847300833335
   endloop
endfacet
facet normal -1.0 -1.032519654261e-014 1.16352427493937e-014
   outer loop
      vertex 512.599359801926 -621.533695767102 -167.38820096563
      vertex 512.599359801926 -621.533695767101 -162.847300833335
      vertex 512.599359801926 -621.234785345246 -165.117750899484
   endloop
endfacet
facet normal -1.0 -1.032519654261e-014 1.16352427493937e-014
   outer loop
      vertex 512.599359801927 -650.644630770009 -173.835536809266
      vertex 512.599359801927 -632.307241643861 -165.734063750632
      vertex 512.599359801927 -629.592710109711 -173.835536809266
   endloop
endfacet
facet normal -1.0 -1.032519654261e-014 1.16352427493937e-014
   outer loop
      vertex 512.599359801927 -632.307241643861 -165.734063750632
      vertex 512.599359801927 -650.644630770009 -173.835536809266
      vertex 512.599359801927 -632.38838077001 -165.117750899482
   endloop
endfacet
facet normal -1.0 -1.032519654261e-014 1.16352427493937e-014
   outer loop
      vertex 512.599359801927 -629.592710109711 -173.835536809266
      vertex 512.599359801927 -632.307241643861 -165.734063750632
      vertex 512.599359801927 -632.069353762772 -166.308375899482
   endloop
endfacet
facet normal -1.0 -1.032519654261e-014 1.16352427493937e-014
   outer loop
      vertex 512.599359801927 -629.592710109711 -173.835536809266
      vertex 512.599359801927 -632.069353762772 -166.308375899482
      vertex 512.599359801927 -631.690928792711 -166.801548922182
   endloop
endfacet
facet normal -1.0 -1.032519654261e-014 1.16352427493937e-014
   outer loop
      vertex 512.599359801927 -629.592710109711 -173.835536809266
      vertex 512.599359801927 -631.690928792711 -166.801548922182
      vertex 512.599359801927 -631.197755770011 -167.179973892244
   endloop
endfacet
facet normal -1.0 -1.032519654261e-014 1.16352427493937e-014
   outer loop
      vertex 512.599359801927 -629.592710109711 -173.835536809266
      vertex 512.599359801927 -631.197755770011 -167.179973892244
      vertex 512.599359801927 -630.623443621161 -167.417861773333
   endloop
endfacet
facet normal -1.0 -1.032519654261e-014 1.16352427493937e-014
   outer loop
      vertex 512.599359801927 -629.592710109711 -173.835536809266
      vertex 512.599359801927 -630.623443621161 -167.417861773333
      vertex 512.599359801927 -630.007130770011 -167.499000899482
   endloop
endfacet
facet normal -1.0 -1.032519654261e-014 1.16352427493937e-014
   outer loop
      vertex 512.599359801927 -629.592710109711 -173.835536809266
      vertex 512.599359801927 -630.007130770011 -167.499000899482
      vertex 512.599359801927 -629.39081791886 -167.417861773333
   endloop
endfacet
facet normal -1.0 -1.032519654261e-014 1.16352427493937e-014
   outer loop
      vertex 512.599359801927 -629.592710109711 -173.835536809266
      vertex 512.599359801927 -629.39081791886 -167.417861773333
      vertex 512.599359801927 -627.736680703863 -173.59118590239
   endloop
endfacet
facet normal -1.0 -1.032519654261e-014 1.16352427493937e-014
   outer loop
      vertex 512.599359801927 -627.736680703863 -173.59118590239
      vertex 512.599359801927 -629.39081791886 -167.417861773333
      vertex 512.599359801927 -628.816505770011 -167.179973892244
   endloop
endfacet
facet normal -1.0 -1.032519654261e-014 1.16352427493937e-014
   outer loop
      vertex 512.599359801927 -627.736680703863 -173.59118590239
      vertex 512.599359801927 -628.816505770011 -167.179973892244
      vertex 512.599359801927 -628.32333274731 -166.801548922183
   endloop
endfacet
facet normal -1.0 -1.032519654261e-014 1.16352427493937e-014
   outer loop
      vertex 512.599359801927 -627.736680703863 -173.59118590239
      vertex 512.599359801927 -628.32333274731 -166.801548922183
      vertex 512.599359801927 -627.944907777249 -166.308375899482
   endloop
endfacet
facet normal -1.0 -1.032519654261e-014 1.16352427493937e-014
   outer loop
      vertex 512.599359801927 -627.736680703863 -173.59118590239
      vertex 512.599359801927 -627.944907777249 -166.308375899482
      vertex 512.599359801927 -627.70701989616 -165.734063750633
   endloop
endfacet
facet normal -1.0 -1.032519654261e-014 1.16352427493937e-014
   outer loop
      vertex 512.599359801927 -627.736680703863 -173.59118590239
      vertex 512.599359801927 -627.70701989616 -165.734063750633
      vertex 512.599359801927 -625.620958057628 -172.7148248881
   endloop
endfacet
facet normal -1.0 -1.032519654261e-014 1.16352427493937e-014
   outer loop
      vertex 512.599359801927 -625.620958057628 -172.7148248881
      vertex 512.599359801927 -627.70701989616 -165.734063750633
      vertex 512.599359801927 -627.62588077001 -165.117750899482
   endloop
endfacet
facet normal -3.84486829667725e-014 -7.97973584064992e-015 1.0
   outer loop
      vertex 527.475865234945 -655.913279932292 -162.722802424561
      vertex 530.855609801926 -650.644630770009 -162.722802424561
      vertex 524.752837822271 -650.644630770009 -162.722802424561
   endloop
endfacet
facet normal -3.84486829667725e-014 -7.97973584064992e-015 1.0
   outer loop
      vertex 530.855609801926 -650.644630770009 -162.722802424561
      vertex 527.475865234945 -655.913279932292 -162.722802424561
      vertex 527.900315704333 -657.559909129496 -162.722802424561
   endloop
endfacet
facet normal -3.84486829667725e-014 -7.97973584064992e-015 1.0
   outer loop
      vertex 530.855609801926 -650.644630770009 -162.722802424561
      vertex 527.900315704333 -657.559909129496 -162.722802424561
      vertex 527.900315704333 -659.292387593845 -162.722802424561
   endloop
endfacet
facet normal -3.84486829667725e-014 -7.97973584064992e-015 1.0
   outer loop
      vertex 530.855609801926 -650.644630770009 -162.722802424561
      vertex 527.900315704333 -659.292387593845 -162.722802424561
      vertex 530.855609801926 -659.292387593845 -162.722802424561
   endloop
endfacet
facet normal 1.14505009224411e-014 -1.0 -3.91552513387481e-015
   outer loop
      vertex 530.855609801926 -659.292387593845 -162.722802424561
      vertex 527.900315704333 -659.292387593845 -173.835536809266
      vertex 530.855609801926 -659.292387593845 -173.835536809266
   endloop
endfacet
facet normal 1.14505009224411e-014 -1.0 -3.91552513387481e-015
   outer loop
      vertex 527.900315704333 -659.292387593845 -173.835536809266
      vertex 530.855609801926 -659.292387593845 -162.722802424561
      vertex 527.900315704333 -659.292387593845 -162.722802424561
   endloop
endfacet
facet normal -0.968346451599955 -0.249609995139971 -1.30045417408492e-014
   outer loop
      vertex 527.475865234945 -655.913279932292 -162.722802424561
      vertex 527.900315704333 -657.559909129496 -173.835536809266
      vertex 527.900315704333 -657.559909129496 -162.722802424561
   endloop
endfacet
facet normal -0.968346451599955 -0.249609995139971 -1.30045417408492e-014
   outer loop
      vertex 527.900315704333 -657.559909129496 -173.835536809266
      vertex 527.475865234945 -655.913279932292 -162.722802424561
      vertex 527.475865234945 -655.913279932292 -173.835536809266
   endloop
endfacet
facet normal -0.888364562905629 -0.459138762656228 -1.37965636130309e-014
   outer loop
      vertex 524.752837822271 -650.644630770009 -162.722802424561
      vertex 527.475865234945 -655.913279932292 -173.835536809266
      vertex 527.475865234945 -655.913279932292 -162.722802424561
   endloop
endfacet
facet normal -0.888364562905629 -0.459138762656228 -1.37965636130309e-014
   outer loop
      vertex 527.475865234945 -655.913279932292 -173.835536809266
      vertex 524.752837822271 -650.644630770009 -162.722802424561
      vertex 524.752837822271 -650.644630770008 -173.835536809266
   endloop
endfacet
facet normal -1.0 -5.20866084620754e-014 -1.13295787767005e-014
   outer loop
      vertex 527.900315704333 -657.559909129496 -162.722802424561
      vertex 527.900315704333 -659.292387593845 -173.835536809266
      vertex 527.900315704333 -659.292387593845 -162.722802424561
   endloop
endfacet
facet normal -1.0 -5.20866084620754e-014 -1.13295787767005e-014
   outer loop
      vertex 527.900315704333 -659.292387593845 -173.835536809266
      vertex 527.900315704333 -657.559909129496 -162.722802424561
      vertex 527.900315704333 -657.559909129496 -173.835536809266
   endloop
endfacet
facet normal -4.04775690597807e-014 0.382683432365252 0.92387953251122
   outer loop
      vertex 522.124359801926 -631.197755770009 -167.179973892244
      vertex 512.599359801927 -630.623443621161 -167.417861773333
      vertex 512.599359801927 -631.197755770011 -167.179973892244
   endloop
endfacet
facet normal -4.04775690597807e-014 0.382683432365252 0.92387953251122
   outer loop
      vertex 512.599359801927 -630.623443621161 -167.417861773333
      vertex 522.124359801926 -631.197755770009 -167.179973892244
      vertex 522.124359801926 -630.623443621159 -167.417861773333
   endloop
endfacet
facet normal 1.18674227740231e-013 -0.991444861373799 0.130526192220141
   outer loop
      vertex 522.124359801926 -627.625880770009 -165.117750899482
      vertex 512.599359801927 -627.70701989616 -165.734063750633
      vertex 522.124359801926 -627.707019896158 -165.734063750633
   endloop
endfacet
facet normal 1.18674227740231e-013 -0.991444861373799 0.130526192220141
   outer loop
      vertex 512.599359801927 -627.70701989616 -165.734063750633
      vertex 522.124359801926 -627.625880770009 -165.117750899482
      vertex 512.599359801927 -627.62588077001 -165.117750899482
   endloop
endfacet
facet normal 7.6768764651755e-014 -0.608761429008724 0.793353340291232
   outer loop
      vertex 522.124359801926 -628.816505770009 -167.179973892244
      vertex 512.599359801927 -628.32333274731 -166.801548922183
      vertex 512.599359801927 -628.816505770011 -167.179973892244
   endloop
endfacet
facet normal 7.6768764651755e-014 -0.608761429008724 0.793353340291232
   outer loop
      vertex 512.599359801927 -628.32333274731 -166.801548922183
      vertex 522.124359801926 -628.816505770009 -167.179973892244
      vertex 522.124359801926 -628.323332747309 -166.801548922183
   endloop
endfacet
facet normal -2.09527315442391e-014 0.130526192219952 -0.991444861373824
   outer loop
      vertex 522.124359801926 -630.007130770009 -162.736500899482
      vertex 512.599359801927 -630.623443621161 -162.817640025631
      vertex 512.599359801927 -630.00713077001 -162.736500899482
   endloop
endfacet
facet normal -2.09527315442391e-014 0.130526192219952 -0.991444861373824
   outer loop
      vertex 512.599359801927 -630.623443621161 -162.817640025631
      vertex 522.124359801926 -630.007130770009 -162.736500899482
      vertex 522.124359801926 -630.623443621159 -162.817640025631
   endloop
endfacet
facet normal 1.01067996030977e-014 -0.130526192220096 -0.991444861373805
   outer loop
      vertex 522.124359801926 -629.390817918858 -162.817640025631
      vertex 512.599359801927 -630.00713077001 -162.736500899482
      vertex 512.599359801927 -629.39081791886 -162.817640025631
   endloop
endfacet
facet normal 1.01067996030977e-014 -0.130526192220096 -0.991444861373805
   outer loop
      vertex 512.599359801927 -630.00713077001 -162.736500899482
      vertex 522.124359801926 -629.390817918858 -162.817640025631
      vertex 522.124359801926 -630.007130770009 -162.736500899482
   endloop
endfacet
facet normal -1.56936046828609e-014 0.130526192219964 -0.991444861373822
   outer loop
      vertex 522.124359801926 -627.736680703863 -173.59118590239
      vertex 512.599359801927 -629.592710109711 -173.835536809266
      vertex 512.599359801927 -627.736680703863 -173.59118590239
   endloop
endfacet
facet normal -1.56936046828609e-014 0.130526192219964 -0.991444861373822
   outer loop
      vertex 512.599359801927 -629.592710109711 -173.835536809266
      vertex 522.124359801926 -627.736680703863 -173.59118590239
      vertex 522.124359801927 -629.592710109711 -173.835536809266
   endloop
endfacet
facet normal 1.0 0.0 0.0
   outer loop
      vertex 530.855609801926 -644.317617770009 -173.835536809266
      vertex 530.855609801926 -659.292387593845 -162.722802424561
      vertex 530.855609801926 -659.292387593845 -173.835536809266
   endloop
endfacet
facet normal 1.0 0.0 0.0
   outer loop
      vertex 530.855609801926 -659.292387593845 -162.722802424561
      vertex 530.855609801926 -644.317617770009 -173.835536809266
      vertex 530.855609801926 -650.644630770009 -162.722802424561
   endloop
endfacet
facet normal 1.0 0.0 0.0
   outer loop
      vertex 530.855609801926 -650.644630770009 -162.722802424561
      vertex 530.855609801926 -644.317617770009 -173.835536809266
      vertex 530.855609801926 -650.644630770009 -156.399964989699
   endloop
endfacet
facet normal 1.0 0.0 0.0
   outer loop
      vertex 530.855609801926 -650.644630770009 -156.399964989699
      vertex 530.855609801926 -644.317617770009 -173.835536809266
      vertex 530.855609801926 -644.317617770009 -156.399964989699
   endloop
endfacet
facet normal -7.67687646517445e-014 0.608761429008633 -0.793353340291303
   outer loop
      vertex 522.124359801926 -631.197755770009 -163.05552790672
      vertex 512.599359801927 -631.690928792711 -163.433952876781
      vertex 512.599359801927 -631.19775577001 -163.05552790672
   endloop
endfacet
facet normal -7.67687646517445e-014 0.608761429008633 -0.793353340291303
   outer loop
      vertex 512.599359801927 -631.690928792711 -163.433952876781
      vertex 522.124359801926 -631.197755770009 -163.05552790672
      vertex 522.124359801926 -631.690928792709 -163.433952876781
   endloop
endfacet
facet normal -5.05843686628809e-014 0.382683432365102 -0.923879532511282
   outer loop
      vertex 522.124359801926 -630.623443621159 -162.817640025631
      vertex 512.599359801927 -631.19775577001 -163.05552790672
      vertex 512.599359801927 -630.623443621161 -162.817640025631
   endloop
endfacet
facet normal -5.05843686628809e-014 0.382683432365102 -0.923879532511282
   outer loop
      vertex 512.599359801927 -631.19775577001 -163.05552790672
      vertex 522.124359801926 -630.623443621159 -162.817640025631
      vertex 522.124359801926 -631.197755770009 -163.05552790672
   endloop
endfacet
facet normal -1.74393717436319e-014 0.608761429008639 -0.793353340291298
   outer loop
      vertex 522.124359801926 -623.804145833249 -171.320735836244
      vertex 512.599359801927 -625.620958057628 -172.7148248881
      vertex 512.599359801926 -623.804145833249 -171.320735836244
   endloop
endfacet
facet normal -1.74393717436319e-014 0.608761429008639 -0.793353340291298
   outer loop
      vertex 512.599359801927 -625.620958057628 -172.7148248881
      vertex 522.124359801926 -623.804145833249 -171.320735836244
      vertex 522.124359801926 -625.620958057628 -172.7148248881
   endloop
endfacet
facet normal 0.0 1.0 -3.33066907387547e-016
   outer loop
      vertex 522.124359801926 -644.317617770009 -156.399964989699
      vertex 530.855609801926 -644.317617770009 -173.835536809266
      vertex 522.124359801926 -644.317617770009 -173.835536809266
   endloop
endfacet
facet normal 0.0 1.0 -3.33066907387547e-016
   outer loop
      vertex 530.855609801926 -644.317617770009 -173.835536809266
      vertex 522.124359801926 -644.317617770009 -156.399964989699
      vertex 530.855609801926 -644.317617770009 -156.399964989699
   endloop
endfacet
facet normal 5.65472010238398e-015 0.608761429008722 0.793353340291235
   outer loop
      vertex 512.599359801927 -625.620958057627 -157.520676910864
      vertex 522.124359801926 -623.804145833248 -158.914765962721
      vertex 512.599359801927 -623.804145833248 -158.914765962721
   endloop
endfacet
facet normal 5.65472010238398e-015 0.608761429008722 0.793353340291235
   outer loop
      vertex 522.124359801926 -623.804145833248 -158.914765962721
      vertex 512.599359801927 -625.620958057627 -157.520676910864
      vertex 522.124359801926 -625.620958057627 -157.520676910864
   endloop
endfacet
facet normal 9.74274892098871e-015 0.382683432364878 0.923879532511375
   outer loop
      vertex 512.599359801927 -627.736680703862 -156.644315896575
      vertex 522.124359801926 -625.620958057627 -157.520676910864
      vertex 512.599359801927 -625.620958057627 -157.520676910864
   endloop
endfacet
facet normal 9.74274892098871e-015 0.382683432364878 0.923879532511375
   outer loop
      vertex 522.124359801926 -625.620958057627 -157.520676910864
      vertex 512.599359801927 -627.736680703862 -156.644315896575
      vertex 522.124359801927 -627.736680703862 -156.644315896575
   endloop
endfacet
facet normal 1.18133145366979e-015 0.79335334029131 0.608761429008623
   outer loop
      vertex 512.599359801927 -623.804145833248 -158.914765962721
      vertex 522.124359801926 -622.410056781392 -160.731578187101
      vertex 512.599359801926 -622.410056781392 -160.731578187101
   endloop
endfacet
facet normal 1.18133145366979e-015 0.79335334029131 0.608761429008623
   outer loop
      vertex 522.124359801926 -622.410056781392 -160.731578187101
      vertex 512.599359801927 -623.804145833248 -158.914765962721
      vertex 522.124359801926 -623.804145833248 -158.914765962721
   endloop
endfacet
facet normal -3.37256298136631e-015 0.923879532511309 0.382683432365037
   outer loop
      vertex 512.599359801926 -622.410056781392 -160.731578187101
      vertex 522.124359801926 -621.533695767101 -162.847300833335
      vertex 512.599359801926 -621.533695767101 -162.847300833335
   endloop
endfacet
facet normal -3.37256298136631e-015 0.923879532511309 0.382683432365037
   outer loop
      vertex 522.124359801926 -621.533695767101 -162.847300833335
      vertex 512.599359801926 -622.410056781392 -160.731578187101
      vertex 522.124359801926 -622.410056781392 -160.731578187101
   endloop
endfacet
facet normal 4.04775690597807e-014 -0.382683432365252 -0.92387953251122
   outer loop
      vertex 522.124359801926 -628.816505770009 -163.05552790672
      vertex 512.599359801927 -629.39081791886 -162.817640025631
      vertex 512.599359801927 -628.81650577001 -163.05552790672
   endloop
endfacet
facet normal 4.04775690597807e-014 -0.382683432365252 -0.92387953251122
   outer loop
      vertex 512.599359801927 -629.39081791886 -162.817640025631
      vertex 522.124359801926 -628.816505770009 -163.05552790672
      vertex 522.124359801926 -629.390817918858 -162.817640025631
   endloop
endfacet
facet normal -1.45122732291903e-014 0.923879532511261 -0.382683432365152
   outer loop
      vertex 512.599359801926 -621.533695767102 -167.38820096563
      vertex 522.124359801926 -622.410056781392 -169.503923611865
      vertex 512.599359801926 -622.410056781392 -169.503923611865
   endloop
endfacet
facet normal -1.45122732291903e-014 0.923879532511261 -0.382683432365152
   outer loop
      vertex 522.124359801926 -622.410056781392 -169.503923611865
      vertex 512.599359801926 -621.533695767102 -167.38820096563
      vertex 522.124359801926 -621.533695767102 -167.38820096563
   endloop
endfacet
facet normal 1.3166825501275e-014 0.130526192220097 0.991444861373805
   outer loop
      vertex 512.599359801927 -629.59271010971 -156.399964989699
      vertex 522.124359801927 -627.736680703862 -156.644315896575
      vertex 512.599359801927 -627.736680703862 -156.644315896575
   endloop
endfacet
facet normal 1.3166825501275e-014 0.130526192220097 0.991444861373805
   outer loop
      vertex 522.124359801927 -627.736680703862 -156.644315896575
      vertex 512.599359801927 -629.59271010971 -156.399964989699
      vertex 522.124359801927 -629.59271010971 -156.399964989699
   endloop
endfacet
facet normal 1.17246333711517e-013 -0.99144486137382 -0.130526192219978
   outer loop
      vertex 522.124359801926 -627.707019896158 -164.501438048332
      vertex 512.599359801927 -627.62588077001 -165.117750899482
      vertex 522.124359801926 -627.625880770009 -165.117750899482
   endloop
endfacet
facet normal 1.17246333711517e-013 -0.99144486137382 -0.130526192219978
   outer loop
      vertex 512.599359801927 -627.62588077001 -165.117750899482
      vertex 522.124359801926 -627.707019896158 -164.501438048332
      vertex 512.599359801927 -627.70701989616 -164.501438048332
   endloop
endfacet
facet normal -1.07828295799089e-013 0.923879532511304 0.382683432365048
   outer loop
      vertex 512.599359801927 -632.307241643861 -165.734063750632
      vertex 522.124359801927 -632.069353762771 -166.308375899482
      vertex 512.599359801927 -632.069353762772 -166.308375899482
   endloop
endfacet
facet normal -1.07828295799089e-013 0.923879532511304 0.382683432365048
   outer loop
      vertex 522.124359801927 -632.069353762771 -166.308375899482
      vertex 512.599359801927 -632.307241643861 -165.734063750632
      vertex 522.124359801927 -632.30724164386 -165.734063750632
   endloop
endfacet
facet normal -9.10619377226395e-014 0.793353340291272 0.608761429008673
   outer loop
      vertex 512.599359801927 -632.069353762772 -166.308375899482
      vertex 522.124359801926 -631.690928792709 -166.801548922182
      vertex 512.599359801927 -631.690928792711 -166.801548922182
   endloop
endfacet
facet normal -9.10619377226395e-014 0.793353340291272 0.608761429008673
   outer loop
      vertex 522.124359801926 -631.690928792709 -166.801548922182
      vertex 512.599359801927 -632.069353762772 -166.308375899482
      vertex 522.124359801927 -632.069353762771 -166.308375899482
   endloop
endfacet
facet normal -6.80898590773595e-014 0.608761429008777 0.793353340291192
   outer loop
      vertex 522.124359801926 -631.690928792709 -166.801548922182
      vertex 512.599359801927 -631.197755770011 -167.179973892244
      vertex 512.599359801927 -631.690928792711 -166.801548922182
   endloop
endfacet
facet normal -6.80898590773595e-014 0.608761429008777 0.793353340291192
   outer loop
      vertex 512.599359801927 -631.197755770011 -167.179973892244
      vertex 522.124359801926 -631.690928792709 -166.801548922182
      vertex 522.124359801926 -631.197755770009 -167.179973892244
   endloop
endfacet
facet normal 1.12014669266884e-013 -0.923879532511274 0.382683432365121
   outer loop
      vertex 522.124359801926 -627.707019896158 -165.734063750633
      vertex 512.599359801927 -627.944907777249 -166.308375899482
      vertex 522.124359801926 -627.944907777247 -166.308375899482
   endloop
endfacet
facet normal 1.12014669266884e-013 -0.923879532511274 0.382683432365121
   outer loop
      vertex 512.599359801927 -627.944907777249 -166.308375899482
      vertex 522.124359801926 -627.707019896158 -165.734063750633
      vertex 512.599359801927 -627.70701989616 -165.734063750633
   endloop
endfacet
facet normal 9.77214961959868e-014 -0.793353340291165 0.608761429008812
   outer loop
      vertex 522.124359801926 -627.944907777247 -166.308375899482
      vertex 512.599359801927 -628.32333274731 -166.801548922183
      vertex 522.124359801926 -628.323332747309 -166.801548922183
   endloop
endfacet
facet normal 9.77214961959868e-014 -0.793353340291165 0.608761429008812
   outer loop
      vertex 512.599359801927 -628.32333274731 -166.801548922183
      vertex 522.124359801926 -627.944907777247 -166.308375899482
      vertex 512.599359801927 -627.944907777249 -166.308375899482
   endloop
endfacet
facet normal 5.05843686628664e-014 -0.382683432364978 0.923879532511333
   outer loop
      vertex 512.599359801927 -629.39081791886 -167.417861773333
      vertex 522.124359801926 -628.816505770009 -167.179973892244
      vertex 512.599359801927 -628.816505770011 -167.179973892244
   endloop
endfacet
facet normal 5.05843686628664e-014 -0.382683432364978 0.923879532511333
   outer loop
      vertex 522.124359801926 -628.816505770009 -167.179973892244
      vertex 512.599359801927 -629.39081791886 -167.417861773333
      vertex 522.124359801926 -629.390817918859 -167.417861773333
   endloop
endfacet
facet normal 2.09527315442391e-014 -0.130526192219952 0.991444861373824
   outer loop
      vertex 522.124359801926 -630.007130770009 -167.499000899482
      vertex 512.599359801927 -629.39081791886 -167.417861773333
      vertex 512.599359801927 -630.007130770011 -167.499000899482
   endloop
endfacet
facet normal 2.09527315442391e-014 -0.130526192219952 0.991444861373824
   outer loop
      vertex 512.599359801927 -629.39081791886 -167.417861773333
      vertex 522.124359801926 -630.007130770009 -167.499000899482
      vertex 522.124359801926 -629.390817918859 -167.417861773333
   endloop
endfacet
facet normal -1.18674227740231e-013 0.991444861373799 -0.130526192220141
   outer loop
      vertex 512.599359801927 -632.307241643861 -164.501438048331
      vertex 522.124359801927 -632.388380770009 -165.117750899482
      vertex 512.599359801927 -632.38838077001 -165.117750899482
   endloop
endfacet
facet normal -1.18674227740231e-013 0.991444861373799 -0.130526192220141
   outer loop
      vertex 522.124359801927 -632.388380770009 -165.117750899482
      vertex 512.599359801927 -632.307241643861 -164.501438048331
      vertex 522.124359801927 -632.30724164386 -164.501438048331
   endloop
endfacet
facet normal 9.10619377226395e-014 -0.793353340291272 -0.608761429008673
   outer loop
      vertex 522.124359801926 -628.323332747308 -163.433952876782
      vertex 512.599359801927 -627.944907777249 -163.927125899482
      vertex 522.124359801926 -627.944907777247 -163.927125899482
   endloop
endfacet
facet normal 9.10619377226395e-014 -0.793353340291272 -0.608761429008673
   outer loop
      vertex 512.599359801927 -627.944907777249 -163.927125899482
      vertex 522.124359801926 -628.323332747308 -163.433952876782
      vertex 512.599359801927 -628.32333274731 -163.433952876782
   endloop
endfacet
facet normal -1.14961705378353e-014 0.991444861373805 -0.130526192220094
   outer loop
      vertex 512.599359801926 -621.234785345246 -165.117750899484
      vertex 522.124359801926 -621.533695767102 -167.38820096563
      vertex 512.599359801926 -621.533695767102 -167.38820096563
   endloop
endfacet
facet normal -1.14961705378353e-014 0.991444861373805 -0.130526192220094
   outer loop
      vertex 522.124359801926 -621.533695767102 -167.38820096563
      vertex 512.599359801926 -621.234785345246 -165.117750899484
      vertex 522.124359801926 -621.234785345246 -165.117750899484
   endloop
endfacet
facet normal -1.71508906402186e-014 0.382683432365072 -0.923879532511294
   outer loop
      vertex 522.124359801926 -625.620958057628 -172.7148248881
      vertex 512.599359801927 -627.736680703863 -173.59118590239
      vertex 512.599359801927 -625.620958057628 -172.7148248881
   endloop
endfacet
facet normal -1.71508906402186e-014 0.382683432365072 -0.923879532511294
   outer loop
      vertex 512.599359801927 -627.736680703863 -173.59118590239
      vertex 522.124359801926 -625.620958057628 -172.7148248881
      vertex 522.124359801926 -627.736680703863 -173.59118590239
   endloop
endfacet
facet normal 0.0 3.33066907387547e-016 1.0
   outer loop
      vertex 512.599359801927 -650.644630770009 -156.399964989699
      vertex 522.124359801926 -644.317617770009 -156.399964989699
      vertex 512.599359801927 -629.59271010971 -156.399964989699
   endloop
endfacet
facet normal 0.0 3.33066907387547e-016 1.0
   outer loop
      vertex 522.124359801926 -644.317617770009 -156.399964989699
      vertex 512.599359801927 -650.644630770009 -156.399964989699
      vertex 530.855609801926 -650.644630770009 -156.399964989699
   endloop
endfacet
facet normal 0.0 3.33066907387547e-016 1.0
   outer loop
      vertex 522.124359801926 -644.317617770009 -156.399964989699
      vertex 530.855609801926 -650.644630770009 -156.399964989699
      vertex 530.855609801926 -644.317617770009 -156.399964989699
   endloop
endfacet
facet normal 0.0 3.33066907387547e-016 1.0
   outer loop
      vertex 522.124359801927 -629.59271010971 -156.399964989699
      vertex 512.599359801927 -629.59271010971 -156.399964989699
      vertex 522.124359801926 -644.317617770009 -156.399964989699
   endloop
endfacet
facet normal -1.65393884826412e-014 0.793353340291194 -0.608761429008775
   outer loop
      vertex 512.599359801926 -622.410056781392 -169.503923611865
      vertex 522.124359801926 -623.804145833249 -171.320735836244
      vertex 512.599359801926 -623.804145833249 -171.320735836244
   endloop
endfacet
facet normal -1.65393884826412e-014 0.793353340291194 -0.608761429008775
   outer loop
      vertex 522.124359801926 -623.804145833249 -171.320735836244
      vertex 512.599359801926 -622.410056781392 -169.503923611865
      vertex 522.124359801926 -622.410056781392 -169.503923611865
   endloop
endfacet
facet normal -1.01067996030977e-014 0.130526192220096 0.991444861373805
   outer loop
      vertex 512.599359801927 -630.623443621161 -167.417861773333
      vertex 522.124359801926 -630.007130770009 -167.499000899482
      vertex 512.599359801927 -630.007130770011 -167.499000899482
   endloop
endfacet
facet normal -1.01067996030977e-014 0.130526192220096 0.991444861373805
   outer loop
      vertex 522.124359801926 -630.007130770009 -167.499000899482
      vertex 512.599359801927 -630.623443621161 -167.417861773333
      vertex 522.124359801926 -630.623443621159 -167.417861773333
   endloop
endfacet
facet normal -1.17246333711517e-013 0.99144486137382 0.130526192219978
   outer loop
      vertex 512.599359801927 -632.38838077001 -165.117750899482
      vertex 522.124359801927 -632.30724164386 -165.734063750632
      vertex 512.599359801927 -632.307241643861 -165.734063750632
   endloop
endfacet
facet normal -1.17246333711517e-013 0.99144486137382 0.130526192219978
   outer loop
      vertex 522.124359801927 -632.30724164386 -165.734063750632
      vertex 512.599359801927 -632.38838077001 -165.117750899482
      vertex 522.124359801927 -632.388380770009 -165.117750899482
   endloop
endfacet
endsolid Z_Carriages_6_11_13
