solid NEW_X-Z_motor
facet normal 0.499999999999998 -0.86602540378444 0.0
   outer loop
      vertex -237.895525294674 6.22025784690656 34.925
      vertex -238.758932715281 5.55774203145366 17.4625
      vertex -237.895525294674 6.22025784690656 17.4625
   endloop
endfacet
facet normal 0.499999999999998 -0.86602540378444 0.0
   outer loop
      vertex -238.758932715281 5.55774203145366 17.4625
      vertex -237.895525294674 6.22025784690656 34.925
      vertex -238.758932715281 5.55774203145366 34.925
   endloop
endfacet
facet normal 0.258819045102521 -0.965925826289068 0.0
   outer loop
      vertex -236.89006605778 6.63673269924161 34.925
      vertex -237.895525294674 6.22025784690656 17.4625
      vertex -236.89006605778 6.63673269924161 17.4625
   endloop
endfacet
facet normal 0.258819045102521 -0.965925826289068 0.0
   outer loop
      vertex -237.895525294674 6.22025784690656 17.4625
      vertex -236.89006605778 6.63673269924161 34.925
      vertex -237.895525294674 6.22025784690656 34.925
   endloop
endfacet
facet normal 1.34557759424268e-015 -1.0 0.0
   outer loop
      vertex -235.811075389992 6.77878451552939 34.925
      vertex -236.89006605778 6.63673269924161 17.4625
      vertex -235.811075389992 6.77878451552939 17.4625
   endloop
endfacet
facet normal 1.34557759424268e-015 -1.0 0.0
   outer loop
      vertex -236.89006605778 6.63673269924161 17.4625
      vertex -235.811075389992 6.77878451552939 34.925
      vertex -236.89006605778 6.63673269924161 34.925
   endloop
endfacet
facet normal -0.258819045102523 -0.965925826289068 0.0
   outer loop
      vertex -234.732084722204 6.63673269924161 34.925
      vertex -235.811075389992 6.77878451552939 17.4625
      vertex -234.732084722204 6.63673269924161 17.4625
   endloop
endfacet
facet normal -0.258819045102523 -0.965925826289068 0.0
   outer loop
      vertex -235.811075389992 6.77878451552939 17.4625
      vertex -234.732084722204 6.63673269924161 34.925
      vertex -235.811075389992 6.77878451552939 34.925
   endloop
endfacet
facet normal -0.500000000000003 -0.866025403784437 0.0
   outer loop
      vertex -233.726625485309 6.22025784690656 34.925
      vertex -234.732084722204 6.63673269924161 17.4625
      vertex -233.726625485309 6.22025784690656 17.4625
   endloop
endfacet
facet normal -0.500000000000003 -0.866025403784437 0.0
   outer loop
      vertex -234.732084722204 6.63673269924161 17.4625
      vertex -233.726625485309 6.22025784690656 34.925
      vertex -234.732084722204 6.63673269924161 34.925
   endloop
endfacet
facet normal -0.707106781186547 -0.707106781186548 0.0
   outer loop
      vertex -232.863218064702 5.55774203145366 34.925
      vertex -233.726625485309 6.22025784690656 17.4625
      vertex -232.863218064702 5.55774203145366 17.4625
   endloop
endfacet
facet normal -0.707106781186547 -0.707106781186548 0.0
   outer loop
      vertex -233.726625485309 6.22025784690656 17.4625
      vertex -232.863218064702 5.55774203145366 34.925
      vertex -233.726625485309 6.22025784690656 34.925
   endloop
endfacet
facet normal -0.707106781186547 -0.707106781186548 0.0
   outer loop
      vertex -232.863218064702 5.55774203145366 34.925
      vertex -232.20070224925 4.69433461084683 17.4625
      vertex -232.20070224925 4.69433461084683 34.925
   endloop
endfacet
facet normal -0.707106781186547 -0.707106781186548 0.0
   outer loop
      vertex -232.20070224925 4.69433461084683 17.4625
      vertex -232.863218064702 5.55774203145366 34.925
      vertex -232.863218064702 5.55774203145366 17.4625
   endloop
endfacet
facet normal -0.86602540378444 -0.499999999999998 0.0
   outer loop
      vertex -232.20070224925 4.69433461084683 34.925
      vertex -231.784227396915 3.68887537395221 17.4625
      vertex -231.784227396915 3.68887537395221 34.925
   endloop
endfacet
facet normal -0.86602540378444 -0.499999999999998 0.0
   outer loop
      vertex -231.784227396915 3.68887537395221 17.4625
      vertex -232.20070224925 4.69433461084683 34.925
      vertex -232.20070224925 4.69433461084683 17.4625
   endloop
endfacet
facet normal -0.965925826289067 -0.258819045102524 0.0
   outer loop
      vertex -231.784227396915 3.68887537395221 34.925
      vertex -231.642175580627 2.60988470616426 17.4625
      vertex -231.642175580627 2.60988470616426 34.925
   endloop
endfacet
facet normal -0.965925826289067 -0.258819045102524 0.0
   outer loop
      vertex -231.642175580627 2.60988470616426 17.4625
      vertex -231.784227396915 3.68887537395221 34.925
      vertex -231.784227396915 3.68887537395221 17.4625
   endloop
endfacet
facet normal 0.0 0.0 1.0
   outer loop
      vertex -244.244815260778 0.350070918612875 34.925
      vertex -244.244815260778 4.86969849371564 34.925
      vertex -244.542325389992 2.60988470616426 34.925
   endloop
endfacet
facet normal 0.0 0.0 1.0
   outer loop
      vertex -244.244815260778 4.86969849371564 34.925
      vertex -244.244815260778 0.350070918612875 34.925
      vertex -243.372559696785 -1.75574029383574 34.925
   endloop
endfacet
facet normal 0.0 0.0 1.0
   outer loop
      vertex -244.244815260778 4.86969849371564 34.925
      vertex -243.372559696785 -1.75574029383574 34.925
      vertex -243.372559696785 6.97550970616426 34.925
   endloop
endfacet
facet normal 0.0 0.0 1.0
   outer loop
      vertex -243.372559696785 6.97550970616426 34.925
      vertex -243.372559696785 -1.75574029383574 34.925
      vertex -241.985001473227 -3.56404137707078 34.925
   endloop
endfacet
facet normal 0.0 0.0 1.0
   outer loop
      vertex -243.372559696785 6.97550970616426 34.925
      vertex -241.985001473227 -3.56404137707078 34.925
      vertex -241.985001473227 8.7838107893993 34.925
   endloop
endfacet
facet normal 0.0 0.0 1.0
   outer loop
      vertex -241.985001473227 8.7838107893993 34.925
      vertex -241.985001473227 -3.56404137707078 34.925
      vertex -240.176700389992 -4.95159960062862 34.925
   endloop
endfacet
facet normal 0.0 0.0 1.0
   outer loop
      vertex -241.985001473227 8.7838107893993 34.925
      vertex -240.176700389992 -4.95159960062862 34.925
      vertex -240.176700389992 10.1713690129571 34.925
   endloop
endfacet
facet normal 0.0 0.0 1.0
   outer loop
      vertex -240.176700389992 10.1713690129571 34.925
      vertex -240.176700389992 -4.95159960062862 34.925
      vertex -239.979975199357 2.60988470616426 34.925
   endloop
endfacet
facet normal 0.0 0.0 1.0
   outer loop
      vertex -239.979975199357 2.60988470616426 34.925
      vertex -240.176700389992 -4.95159960062862 34.925
      vertex -239.837923383069 1.53089403837631 34.925
   endloop
endfacet
facet normal 0.0 0.0 1.0
   outer loop
      vertex -239.837923383069 1.53089403837631 34.925
      vertex -240.176700389992 -4.95159960062862 34.925
      vertex -238.070889177543 -5.82385516462217 34.925
   endloop
endfacet
facet normal 0.0 0.0 1.0
   outer loop
      vertex -239.837923383069 1.53089403837631 34.925
      vertex -238.070889177543 -5.82385516462217 34.925
      vertex -239.421448530734 0.525434801481695 34.925
   endloop
endfacet
facet normal 0.0 0.0 1.0
   outer loop
      vertex -239.421448530734 0.525434801481695 34.925
      vertex -238.070889177543 -5.82385516462217 34.925
      vertex -238.758932715281 -0.337972619125132 34.925
   endloop
endfacet
facet normal 0.0 0.0 1.0
   outer loop
      vertex -238.758932715281 -0.337972619125132 34.925
      vertex -238.070889177543 -5.82385516462217 34.925
      vertex -237.895525294674 -1.00048843457804 34.925
   endloop
endfacet
facet normal 0.0 0.0 1.0
   outer loop
      vertex -237.895525294674 -1.00048843457804 34.925
      vertex -238.070889177543 -5.82385516462217 34.925
      vertex -235.811075389992 -6.12136529383574 34.925
   endloop
endfacet
facet normal 0.0 0.0 1.0
   outer loop
      vertex -237.895525294674 -1.00048843457804 34.925
      vertex -235.811075389992 -6.12136529383574 34.925
      vertex -236.89006605778 -1.41696328691308 34.925
   endloop
endfacet
facet normal 0.0 0.0 1.0
   outer loop
      vertex -236.89006605778 -1.41696328691308 34.925
      vertex -235.811075389992 -6.12136529383574 34.925
      vertex -235.811075389992 -1.55901510320086 34.925
   endloop
endfacet
facet normal 0.0 0.0 1.0
   outer loop
      vertex -235.811075389992 -1.55901510320086 34.925
      vertex -235.811075389992 -6.12136529383574 34.925
      vertex -233.55126160244 -5.82385516462216 34.925
   endloop
endfacet
facet normal 0.0 0.0 1.0
   outer loop
      vertex -235.811075389992 -1.55901510320086 34.925
      vertex -233.55126160244 -5.82385516462216 34.925
      vertex -234.732084722204 -1.41696328691309 34.925
   endloop
endfacet
facet normal 0.0 0.0 1.0
   outer loop
      vertex -234.732084722204 -1.41696328691309 34.925
      vertex -233.55126160244 -5.82385516462216 34.925
      vertex -233.726625485309 -1.00048843457804 34.925
   endloop
endfacet
facet normal 0.0 0.0 1.0
   outer loop
      vertex -233.726625485309 -1.00048843457804 34.925
      vertex -233.55126160244 -5.82385516462216 34.925
      vertex -232.863218064702 -0.337972619125131 34.925
   endloop
endfacet
facet normal 0.0 0.0 1.0
   outer loop
      vertex -232.863218064702 -0.337972619125131 34.925
      vertex -233.55126160244 -5.82385516462216 34.925
      vertex -231.445450389992 -4.95159960062862 34.925
   endloop
endfacet
facet normal 0.0 0.0 1.0
   outer loop
      vertex -232.863218064702 -0.337972619125131 34.925
      vertex -231.445450389992 -4.95159960062862 34.925
      vertex -232.20070224925 0.525434801481685 34.925
   endloop
endfacet
facet normal 0.0 0.0 1.0
   outer loop
      vertex -232.20070224925 0.525434801481685 34.925
      vertex -231.445450389992 -4.95159960062862 34.925
      vertex -231.784227396915 1.5308940383763 34.925
   endloop
endfacet
facet normal 0.0 0.0 1.0
   outer loop
      vertex -231.784227396915 1.5308940383763 34.925
      vertex -231.445450389992 -4.95159960062862 34.925
      vertex -231.642175580627 2.60988470616426 34.925
   endloop
endfacet
facet normal 0.0 0.0 1.0
   outer loop
      vertex -240.176700389992 10.1713690129571 34.925
      vertex -239.837923383069 3.68887537395221 34.925
      vertex -238.070889177543 11.0436245769507 34.925
   endloop
endfacet
facet normal 0.0 0.0 1.0
   outer loop
      vertex -239.837923383069 3.68887537395221 34.925
      vertex -240.176700389992 10.1713690129571 34.925
      vertex -239.979975199357 2.60988470616426 34.925
   endloop
endfacet
facet normal 0.0 0.0 1.0
   outer loop
      vertex -238.070889177543 11.0436245769507 34.925
      vertex -239.837923383069 3.68887537395221 34.925
      vertex -239.421448530734 4.69433461084684 34.925
   endloop
endfacet
facet normal 0.0 0.0 1.0
   outer loop
      vertex -238.070889177543 11.0436245769507 34.925
      vertex -239.421448530734 4.69433461084684 34.925
      vertex -238.758932715281 5.55774203145366 34.925
   endloop
endfacet
facet normal 0.0 0.0 1.0
   outer loop
      vertex -238.070889177543 11.0436245769507 34.925
      vertex -238.758932715281 5.55774203145366 34.925
      vertex -237.895525294674 6.22025784690656 34.925
   endloop
endfacet
facet normal 0.0 0.0 1.0
   outer loop
      vertex -238.070889177543 11.0436245769507 34.925
      vertex -237.895525294674 6.22025784690656 34.925
      vertex -235.811075389992 11.3411347061643 34.925
   endloop
endfacet
facet normal 0.0 0.0 1.0
   outer loop
      vertex -235.811075389992 11.3411347061643 34.925
      vertex -237.895525294674 6.22025784690656 34.925
      vertex -236.89006605778 6.63673269924161 34.925
   endloop
endfacet
facet normal 0.0 0.0 1.0
   outer loop
      vertex -235.811075389992 11.3411347061643 34.925
      vertex -236.89006605778 6.63673269924161 34.925
      vertex -235.811075389992 6.77878451552939 34.925
   endloop
endfacet
facet normal 0.0 0.0 1.0
   outer loop
      vertex -235.811075389992 11.3411347061643 34.925
      vertex -235.811075389992 6.77878451552939 34.925
      vertex -234.732084722204 6.63673269924161 34.925
   endloop
endfacet
facet normal 0.0 0.0 1.0
   outer loop
      vertex -235.811075389992 11.3411347061643 34.925
      vertex -234.732084722204 6.63673269924161 34.925
      vertex -233.55126160244 11.0436245769507 34.925
   endloop
endfacet
facet normal 0.0 0.0 1.0
   outer loop
      vertex -233.55126160244 11.0436245769507 34.925
      vertex -234.732084722204 6.63673269924161 34.925
      vertex -233.726625485309 6.22025784690656 34.925
   endloop
endfacet
facet normal 0.0 0.0 1.0
   outer loop
      vertex -233.55126160244 11.0436245769507 34.925
      vertex -233.726625485309 6.22025784690656 34.925
      vertex -232.863218064702 5.55774203145366 34.925
   endloop
endfacet
facet normal 0.0 0.0 1.0
   outer loop
      vertex -233.55126160244 11.0436245769507 34.925
      vertex -232.863218064702 5.55774203145366 34.925
      vertex -231.445450389992 10.1713690129571 34.925
   endloop
endfacet
facet normal 0.0 0.0 1.0
   outer loop
      vertex -231.445450389992 10.1713690129571 34.925
      vertex -232.863218064702 5.55774203145366 34.925
      vertex -232.20070224925 4.69433461084683 34.925
   endloop
endfacet
facet normal 0.0 0.0 1.0
   outer loop
      vertex -231.445450389992 10.1713690129571 34.925
      vertex -232.20070224925 4.69433461084683 34.925
      vertex -231.784227396915 3.68887537395221 34.925
   endloop
endfacet
facet normal 0.0 0.0 1.0
   outer loop
      vertex -231.445450389992 10.1713690129571 34.925
      vertex -231.784227396915 3.68887537395221 34.925
      vertex -231.642175580627 2.60988470616426 34.925
   endloop
endfacet
facet normal 0.0 0.0 1.0
   outer loop
      vertex -231.445450389992 10.1713690129571 34.925
      vertex -231.642175580627 2.60988470616426 34.925
      vertex -231.445450389992 -4.95159960062862 34.925
   endloop
endfacet
facet normal 0.0 0.0 1.0
   outer loop
      vertex -231.445450389992 10.1713690129571 34.925
      vertex -231.445450389992 -4.95159960062862 34.925
      vertex -229.637149306757 -3.56404137707078 34.925
   endloop
endfacet
facet normal 0.0 0.0 1.0
   outer loop
      vertex -231.445450389992 10.1713690129571 34.925
      vertex -229.637149306757 -3.56404137707078 34.925
      vertex -229.637149306757 8.78381078939931 34.925
   endloop
endfacet
facet normal 0.0 0.0 1.0
   outer loop
      vertex -229.637149306757 8.78381078939931 34.925
      vertex -229.637149306757 -3.56404137707078 34.925
      vertex -228.249591083199 -1.75574029383573 34.925
   endloop
endfacet
facet normal 0.0 0.0 1.0
   outer loop
      vertex -229.637149306757 8.78381078939931 34.925
      vertex -228.249591083199 -1.75574029383573 34.925
      vertex -228.249591083199 6.97550970616427 34.925
   endloop
endfacet
facet normal 0.0 0.0 1.0
   outer loop
      vertex -228.249591083199 6.97550970616427 34.925
      vertex -228.249591083199 -1.75574029383573 34.925
      vertex -227.377335519205 0.35007091861288 34.925
   endloop
endfacet
facet normal 0.0 0.0 1.0
   outer loop
      vertex -228.249591083199 6.97550970616427 34.925
      vertex -227.377335519205 0.35007091861288 34.925
      vertex -227.377335519205 4.86969849371565 34.925
   endloop
endfacet
facet normal 0.0 0.0 1.0
   outer loop
      vertex -227.377335519205 4.86969849371565 34.925
      vertex -227.377335519205 0.35007091861288 34.925
      vertex -227.079825389992 2.60988470616426 34.925
   endloop
endfacet
facet normal -1.0 -1.51488868225998e-016 0.0
   outer loop
      vertex -231.642175580627 2.60988470616426 34.925
      vertex -231.784227396915 1.5308940383763 17.4625
      vertex -231.784227396915 1.5308940383763 34.925
   endloop
endfacet
facet normal -1.0 -1.51488868225998e-016 0.0
   outer loop
      vertex -231.784227396915 1.5308940383763 17.4625
      vertex -231.642175580627 2.60988470616426 34.925
      vertex -231.642175580627 2.60988470616426 17.4625
   endloop
endfacet
facet normal -0.965925826289067 0.258819045102524 0.0
   outer loop
      vertex -231.784227396915 1.5308940383763 34.925
      vertex -232.20070224925 0.525434801481685 17.4625
      vertex -232.20070224925 0.525434801481685 34.925
   endloop
endfacet
facet normal -0.965925826289067 0.258819045102524 0.0
   outer loop
      vertex -232.20070224925 0.525434801481685 17.4625
      vertex -231.784227396915 1.5308940383763 34.925
      vertex -231.784227396915 1.5308940383763 17.4625
   endloop
endfacet
facet normal -0.866025403784443 0.499999999999993 0.0
   outer loop
      vertex -232.20070224925 0.525434801481685 34.925
      vertex -232.863218064702 -0.337972619125131 17.4625
      vertex -232.863218064702 -0.337972619125131 34.925
   endloop
endfacet
facet normal -0.866025403784443 0.499999999999993 0.0
   outer loop
      vertex -232.863218064702 -0.337972619125131 17.4625
      vertex -232.20070224925 0.525434801481685 34.925
      vertex -232.690789278772 -0.113259050292473 17.4625
   endloop
endfacet
facet normal -0.866025403784443 0.499999999999993 0.0
   outer loop
      vertex -232.690789278772 -0.113259050292473 17.4625
      vertex -232.20070224925 0.525434801481685 34.925
      vertex -232.20070224925 0.525434801481685 17.4625
   endloop
endfacet
facet normal -0.499999999999995 0.866025403784442 0.0
   outer loop
      vertex -233.726625485309 -1.00048843457804 34.925
      vertex -232.863218064702 -0.337972619125131 17.4625
      vertex -233.726625485309 -1.00048843457804 17.4625
   endloop
endfacet
facet normal -0.499999999999995 0.866025403784442 0.0
   outer loop
      vertex -232.863218064702 -0.337972619125131 17.4625
      vertex -233.726625485309 -1.00048843457804 34.925
      vertex -232.863218064702 -0.337972619125131 34.925
   endloop
endfacet
facet normal -0.258819045102518 0.965925826289069 0.0
   outer loop
      vertex -234.732084722204 -1.41696328691309 34.925
      vertex -233.726625485309 -1.00048843457804 17.4625
      vertex -234.732084722204 -1.41696328691309 17.4625
   endloop
endfacet
facet normal -0.258819045102518 0.965925826289069 0.0
   outer loop
      vertex -233.726625485309 -1.00048843457804 17.4625
      vertex -234.732084722204 -1.41696328691309 34.925
      vertex -233.726625485309 -1.00048843457804 34.925
   endloop
endfacet
facet normal 8.10911000503869e-016 1.0 0.0
   outer loop
      vertex -235.811075389992 -1.55901510320086 34.925
      vertex -234.732084722204 -1.41696328691309 17.4625
      vertex -235.811075389992 -1.55901510320086 17.4625
   endloop
endfacet
facet normal 8.10911000503869e-016 1.0 0.0
   outer loop
      vertex -234.732084722204 -1.41696328691309 17.4625
      vertex -235.811075389992 -1.55901510320086 34.925
      vertex -234.732084722204 -1.41696328691309 34.925
   endloop
endfacet
facet normal 0.25881904510252 0.965925826289069 0.0
   outer loop
      vertex -236.89006605778 -1.41696328691308 34.925
      vertex -235.811075389992 -1.55901510320086 17.4625
      vertex -236.89006605778 -1.41696328691308 17.4625
   endloop
endfacet
facet normal 0.25881904510252 0.965925826289069 0.0
   outer loop
      vertex -235.811075389992 -1.55901510320086 17.4625
      vertex -236.89006605778 -1.41696328691308 34.925
      vertex -235.811075389992 -1.55901510320086 34.925
   endloop
endfacet
facet normal 0.5 0.866025403784439 0.0
   outer loop
      vertex -237.895525294674 -1.00048843457804 34.925
      vertex -236.89006605778 -1.41696328691308 17.4625
      vertex -237.895525294674 -1.00048843457804 17.4625
   endloop
endfacet
facet normal 0.5 0.866025403784439 0.0
   outer loop
      vertex -236.89006605778 -1.41696328691308 17.4625
      vertex -237.895525294674 -1.00048843457804 34.925
      vertex -236.89006605778 -1.41696328691308 34.925
   endloop
endfacet
facet normal 0.707106781186548 0.707106781186547 0.0
   outer loop
      vertex -238.758932715281 -0.337972619125132 34.925
      vertex -237.895525294674 -1.00048843457804 17.4625
      vertex -238.758932715281 -0.337972619125132 17.4625
   endloop
endfacet
facet normal 0.707106781186548 0.707106781186547 0.0
   outer loop
      vertex -237.895525294674 -1.00048843457804 17.4625
      vertex -238.758932715281 -0.337972619125132 34.925
      vertex -237.895525294674 -1.00048843457804 34.925
   endloop
endfacet
facet normal 0.86602540378444 0.499999999999998 0.0
   outer loop
      vertex -239.421448530734 0.525434801481695 17.4625
      vertex -238.758932715281 -0.337972619125132 34.925
      vertex -238.758932715281 -0.337972619125132 17.4625
   endloop
endfacet
facet normal 0.86602540378444 0.499999999999998 0.0
   outer loop
      vertex -238.758932715281 -0.337972619125132 34.925
      vertex -239.421448530734 0.525434801481695 17.4625
      vertex -239.421448530734 0.525434801481695 34.925
   endloop
endfacet
facet normal 0.965925826289067 0.258819045102525 0.0
   outer loop
      vertex -239.837923383069 1.53089403837631 17.4625
      vertex -239.421448530734 0.525434801481695 34.925
      vertex -239.421448530734 0.525434801481695 17.4625
   endloop
endfacet
facet normal 0.965925826289067 0.258819045102525 0.0
   outer loop
      vertex -239.421448530734 0.525434801481695 34.925
      vertex -239.837923383069 1.53089403837631 17.4625
      vertex -239.837923383069 1.53089403837631 34.925
   endloop
endfacet
facet normal 1.0 -3.65355505721524e-016 0.0
   outer loop
      vertex -239.979975199357 2.60988470616426 17.4625
      vertex -239.837923383069 1.53089403837631 34.925
      vertex -239.837923383069 1.53089403837631 17.4625
   endloop
endfacet
facet normal 1.0 -3.65355505721524e-016 0.0
   outer loop
      vertex -239.837923383069 1.53089403837631 34.925
      vertex -239.979975199357 2.60988470616426 17.4625
      vertex -239.979975199357 2.60988470616426 34.925
   endloop
endfacet
facet normal 0.965925826289068 -0.258819045102524 0.0
   outer loop
      vertex -239.837923383069 3.68887537395221 17.4625
      vertex -239.979975199357 2.60988470616426 34.925
      vertex -239.979975199357 2.60988470616426 17.4625
   endloop
endfacet
facet normal 0.965925826289068 -0.258819045102524 0.0
   outer loop
      vertex -239.979975199357 2.60988470616426 34.925
      vertex -239.837923383069 3.68887537395221 17.4625
      vertex -239.837923383069 3.68887537395221 34.925
   endloop
endfacet
facet normal 0.86602540378444 -0.499999999999998 0.0
   outer loop
      vertex -239.421448530734 4.69433461084684 17.4625
      vertex -239.837923383069 3.68887537395221 34.925
      vertex -239.837923383069 3.68887537395221 17.4625
   endloop
endfacet
facet normal 0.86602540378444 -0.499999999999998 0.0
   outer loop
      vertex -239.837923383069 3.68887537395221 34.925
      vertex -239.421448530734 4.69433461084684 17.4625
      vertex -239.421448530734 4.69433461084684 34.925
   endloop
endfacet
facet normal 0.707106781186545 -0.70710678118655 0.0
   outer loop
      vertex -238.758932715281 5.55774203145366 17.4625
      vertex -239.421448530734 4.69433461084684 34.925
      vertex -239.421448530734 4.69433461084684 17.4625
   endloop
endfacet
facet normal 0.707106781186545 -0.70710678118655 0.0
   outer loop
      vertex -239.421448530734 4.69433461084684 34.925
      vertex -238.758932715281 5.55774203145366 17.4625
      vertex -238.758932715281 5.55774203145366 34.925
   endloop
endfacet
facet normal 0.500000000000005 0.866025403784436 0.0
   outer loop
      vertex -237.200137889992 0.203957881275619 17.4625
      vertex -236.530107049667 -0.073577979995056 0.0
      vertex -237.200137889992 0.203957881275619 0.0
   endloop
endfacet
facet normal 0.500000000000005 0.866025403784436 0.0
   outer loop
      vertex -236.530107049667 -0.073577979995056 0.0
      vertex -237.200137889992 0.203957881275619 17.4625
      vertex -236.530107049667 -0.073577979995056 17.4625
   endloop
endfacet
facet normal 0.0 0.0 -1.0
   outer loop
      vertex -244.244815260778 4.86969849371565 0.0
      vertex -244.244815260778 0.35007091861288 0.0
      vertex -244.542325389992 2.60988470616426 0.0
   endloop
endfacet
facet normal 0.0 0.0 -1.0
   outer loop
      vertex -244.244815260778 0.35007091861288 0.0
      vertex -244.244815260778 4.86969849371565 0.0
      vertex -243.372559696785 6.97550970616427 0.0
   endloop
endfacet
facet normal 0.0 0.0 -1.0
   outer loop
      vertex -244.244815260778 0.35007091861288 0.0
      vertex -243.372559696785 6.97550970616427 0.0
      vertex -243.372559696785 -1.75574029383573 0.0
   endloop
endfacet
facet normal 0.0 0.0 -1.0
   outer loop
      vertex -243.372559696785 -1.75574029383573 0.0
      vertex -243.372559696785 6.97550970616427 0.0
      vertex -241.985001473227 8.78381078939931 0.0
   endloop
endfacet
facet normal 0.0 0.0 -1.0
   outer loop
      vertex -243.372559696785 -1.75574029383573 0.0
      vertex -241.985001473227 8.78381078939931 0.0
      vertex -241.985001473227 -3.56404137707078 0.0
   endloop
endfacet
facet normal 0.0 0.0 -1.0
   outer loop
      vertex -241.985001473227 -3.56404137707078 0.0
      vertex -241.985001473227 8.78381078939931 0.0
      vertex -240.176700389992 10.1713690129571 0.0
   endloop
endfacet
facet normal 0.0 0.0 -1.0
   outer loop
      vertex -241.985001473227 -3.56404137707078 0.0
      vertex -240.176700389992 10.1713690129571 0.0
      vertex -240.176700389992 -4.95159960062862 0.0
   endloop
endfacet
facet normal 0.0 0.0 -1.0
   outer loop
      vertex -240.176700389992 -4.95159960062862 0.0
      vertex -240.176700389992 10.1713690129571 0.0
      vertex -238.070889177543 11.0436245769507 0.0
   endloop
endfacet
facet normal 0.0 0.0 -1.0
   outer loop
      vertex -240.176700389992 -4.95159960062862 0.0
      vertex -238.070889177543 11.0436245769507 0.0
      vertex -238.589200389992 2.60988470616426 0.0
   endloop
endfacet
facet normal 0.0 0.0 -1.0
   outer loop
      vertex -238.589200389992 2.60988470616426 0.0
      vertex -238.070889177543 11.0436245769507 0.0
      vertex -238.494538076151 3.3289163658397 0.0
   endloop
endfacet
facet normal 0.0 0.0 -1.0
   outer loop
      vertex -238.494538076151 3.3289163658397 0.0
      vertex -238.070889177543 11.0436245769507 0.0
      vertex -238.21700221488 3.99894720616426 0.0
   endloop
endfacet
facet normal 0.0 0.0 -1.0
   outer loop
      vertex -238.21700221488 3.99894720616426 0.0
      vertex -238.070889177543 11.0436245769507 0.0
      vertex -237.775506416476 4.57431573264814 0.0
   endloop
endfacet
facet normal 0.0 0.0 -1.0
   outer loop
      vertex -237.775506416476 4.57431573264814 0.0
      vertex -238.070889177543 11.0436245769507 0.0
      vertex -235.811075389992 11.3411347061643 0.0
   endloop
endfacet
facet normal 0.0 0.0 -1.0
   outer loop
      vertex -237.775506416476 4.57431573264814 0.0
      vertex -235.811075389992 11.3411347061643 0.0
      vertex -237.200137889992 5.01581153105291 0.0
   endloop
endfacet
facet normal 0.0 0.0 -1.0
   outer loop
      vertex -237.200137889992 5.01581153105291 0.0
      vertex -235.811075389992 11.3411347061643 0.0
      vertex -236.530107049667 5.29334739232358 0.0
   endloop
endfacet
facet normal 0.0 0.0 -1.0
   outer loop
      vertex -236.530107049667 5.29334739232358 0.0
      vertex -235.811075389992 11.3411347061643 0.0
      vertex -235.811075389992 5.38800970616426 0.0
   endloop
endfacet
facet normal 0.0 0.0 -1.0
   outer loop
      vertex -235.811075389992 5.38800970616426 0.0
      vertex -235.811075389992 11.3411347061643 0.0
      vertex -233.55126160244 11.0436245769507 0.0
   endloop
endfacet
facet normal 0.0 0.0 -1.0
   outer loop
      vertex -235.811075389992 5.38800970616426 0.0
      vertex -233.55126160244 11.0436245769507 0.0
      vertex -235.092043730316 5.29334739232358 0.0
   endloop
endfacet
facet normal 0.0 0.0 -1.0
   outer loop
      vertex -235.092043730316 5.29334739232358 0.0
      vertex -233.55126160244 11.0436245769507 0.0
      vertex -234.422012889992 5.0158115310529 0.0
   endloop
endfacet
facet normal 0.0 0.0 -1.0
   outer loop
      vertex -234.422012889992 5.0158115310529 0.0
      vertex -233.55126160244 11.0436245769507 0.0
      vertex -233.846644363508 4.57431573264814 0.0
   endloop
endfacet
facet normal 0.0 0.0 -1.0
   outer loop
      vertex -233.846644363508 4.57431573264814 0.0
      vertex -233.55126160244 11.0436245769507 0.0
      vertex -233.405148565103 3.99894720616426 0.0
   endloop
endfacet
facet normal 0.0 0.0 -1.0
   outer loop
      vertex -233.405148565103 3.99894720616426 0.0
      vertex -233.55126160244 11.0436245769507 0.0
      vertex -231.445450389992 10.1713690129571 0.0
   endloop
endfacet
facet normal 0.0 0.0 -1.0
   outer loop
      vertex -233.405148565103 3.99894720616426 0.0
      vertex -231.445450389992 10.1713690129571 0.0
      vertex -233.127612703833 3.3289163658397 0.0
   endloop
endfacet
facet normal 0.0 0.0 -1.0
   outer loop
      vertex -233.127612703833 3.3289163658397 0.0
      vertex -231.445450389992 10.1713690129571 0.0
      vertex -233.032950389992 2.60988470616426 0.0
   endloop
endfacet
facet normal 0.0 0.0 -1.0
   outer loop
      vertex -238.589200389992 2.60988470616426 0.0
      vertex -238.070889177543 -5.82385516462216 0.0
      vertex -240.176700389992 -4.95159960062862 0.0
   endloop
endfacet
facet normal 0.0 0.0 -1.0
   outer loop
      vertex -238.070889177543 -5.82385516462216 0.0
      vertex -238.589200389992 2.60988470616426 0.0
      vertex -238.494538076151 1.89085304648882 0.0
   endloop
endfacet
facet normal 0.0 0.0 -1.0
   outer loop
      vertex -238.070889177543 -5.82385516462216 0.0
      vertex -238.494538076151 1.89085304648882 0.0
      vertex -238.21700221488 1.22082220616426 0.0
   endloop
endfacet
facet normal 0.0 0.0 -1.0
   outer loop
      vertex -238.070889177543 -5.82385516462216 0.0
      vertex -238.21700221488 1.22082220616426 0.0
      vertex -237.775506416476 0.645453679680385 0.0
   endloop
endfacet
facet normal 0.0 0.0 -1.0
   outer loop
      vertex -238.070889177543 -5.82385516462216 0.0
      vertex -237.775506416476 0.645453679680385 0.0
      vertex -235.811075389992 -6.12136529383574 0.0
   endloop
endfacet
facet normal 0.0 0.0 -1.0
   outer loop
      vertex -235.811075389992 -6.12136529383574 0.0
      vertex -237.775506416476 0.645453679680385 0.0
      vertex -237.200137889992 0.203957881275619 0.0
   endloop
endfacet
facet normal 0.0 0.0 -1.0
   outer loop
      vertex -235.811075389992 -6.12136529383574 0.0
      vertex -237.200137889992 0.203957881275619 0.0
      vertex -236.530107049667 -0.073577979995056 0.0
   endloop
endfacet
facet normal 0.0 0.0 -1.0
   outer loop
      vertex -235.811075389992 -6.12136529383574 0.0
      vertex -236.530107049667 -0.073577979995056 0.0
      vertex -235.811075389992 -0.168240293835739 0.0
   endloop
endfacet
facet normal 0.0 0.0 -1.0
   outer loop
      vertex -235.811075389992 -6.12136529383574 0.0
      vertex -235.811075389992 -0.168240293835739 0.0
      vertex -235.092043730316 -0.073577979995056 0.0
   endloop
endfacet
facet normal 0.0 0.0 -1.0
   outer loop
      vertex -235.811075389992 -6.12136529383574 0.0
      vertex -235.092043730316 -0.073577979995056 0.0
      vertex -233.55126160244 -5.82385516462217 0.0
   endloop
endfacet
facet normal 0.0 0.0 -1.0
   outer loop
      vertex -233.55126160244 -5.82385516462217 0.0
      vertex -235.092043730316 -0.073577979995056 0.0
      vertex -234.422012889992 0.203957881275618 0.0
   endloop
endfacet
facet normal 0.0 0.0 -1.0
   outer loop
      vertex -233.55126160244 -5.82385516462217 0.0
      vertex -234.422012889992 0.203957881275618 0.0
      vertex -233.846644363508 0.645453679680383 0.0
   endloop
endfacet
facet normal 0.0 0.0 -1.0
   outer loop
      vertex -233.55126160244 -5.82385516462217 0.0
      vertex -233.846644363508 0.645453679680383 0.0
      vertex -233.405148565103 1.22082220616426 0.0
   endloop
endfacet
facet normal 0.0 0.0 -1.0
   outer loop
      vertex -233.55126160244 -5.82385516462217 0.0
      vertex -233.405148565103 1.22082220616426 0.0
      vertex -231.445450389992 -4.95159960062862 0.0
   endloop
endfacet
facet normal 0.0 0.0 -1.0
   outer loop
      vertex -231.445450389992 -4.95159960062862 0.0
      vertex -233.405148565103 1.22082220616426 0.0
      vertex -233.127612703833 1.89085304648882 0.0
   endloop
endfacet
facet normal 0.0 0.0 -1.0
   outer loop
      vertex -231.445450389992 -4.95159960062862 0.0
      vertex -233.127612703833 1.89085304648882 0.0
      vertex -233.032950389992 2.60988470616426 0.0
   endloop
endfacet
facet normal 0.0 0.0 -1.0
   outer loop
      vertex -231.445450389992 -4.95159960062862 0.0
      vertex -233.032950389992 2.60988470616426 0.0
      vertex -231.445450389992 10.1713690129571 0.0
   endloop
endfacet
facet normal 0.0 0.0 -1.0
   outer loop
      vertex -231.445450389992 -4.95159960062862 0.0
      vertex -231.445450389992 10.1713690129571 0.0
      vertex -229.637149306757 8.7838107893993 0.0
   endloop
endfacet
facet normal 0.0 0.0 -1.0
   outer loop
      vertex -231.445450389992 -4.95159960062862 0.0
      vertex -229.637149306757 8.7838107893993 0.0
      vertex -229.637149306757 -3.56404137707078 0.0
   endloop
endfacet
facet normal 0.0 0.0 -1.0
   outer loop
      vertex -229.637149306757 -3.56404137707078 0.0
      vertex -229.637149306757 8.7838107893993 0.0
      vertex -228.249591083199 6.97550970616426 0.0
   endloop
endfacet
facet normal 0.0 0.0 -1.0
   outer loop
      vertex -229.637149306757 -3.56404137707078 0.0
      vertex -228.249591083199 6.97550970616426 0.0
      vertex -228.249591083199 -1.75574029383574 0.0
   endloop
endfacet
facet normal 0.0 0.0 -1.0
   outer loop
      vertex -228.249591083199 -1.75574029383574 0.0
      vertex -228.249591083199 6.97550970616426 0.0
      vertex -227.377335519205 4.86969849371564 0.0
   endloop
endfacet
facet normal 0.0 0.0 -1.0
   outer loop
      vertex -228.249591083199 -1.75574029383574 0.0
      vertex -227.377335519205 4.86969849371564 0.0
      vertex -227.377335519205 0.350070918612875 0.0
   endloop
endfacet
facet normal 0.0 0.0 -1.0
   outer loop
      vertex -227.377335519205 0.350070918612875 0.0
      vertex -227.377335519205 4.86969849371564 0.0
      vertex -227.079825389992 2.60988470616426 0.0
   endloop
endfacet
facet normal 0.70710678118655 0.707106781186545 0.0
   outer loop
      vertex -237.775506416476 0.645453679680385 17.4625
      vertex -237.200137889992 0.203957881275619 0.0
      vertex -237.775506416476 0.645453679680385 0.0
   endloop
endfacet
facet normal 0.70710678118655 0.707106781186545 0.0
   outer loop
      vertex -237.200137889992 0.203957881275619 0.0
      vertex -237.775506416476 0.645453679680385 17.4625
      vertex -237.200137889992 0.203957881275619 17.4625
   endloop
endfacet
facet normal 0.866025403784435 0.500000000000006 0.0
   outer loop
      vertex -238.21700221488 1.22082220616426 0.0
      vertex -237.775506416476 0.645453679680385 17.4625
      vertex -237.775506416476 0.645453679680385 0.0
   endloop
endfacet
facet normal 0.866025403784435 0.500000000000006 0.0
   outer loop
      vertex -237.775506416476 0.645453679680385 17.4625
      vertex -238.21700221488 1.22082220616426 0.0
      vertex -238.21700221488 1.22082220616426 17.4625
   endloop
endfacet
facet normal 0.965925826289067 0.258819045102525 0.0
   outer loop
      vertex -238.494538076151 1.89085304648882 0.0
      vertex -238.21700221488 1.22082220616426 17.4625
      vertex -238.21700221488 1.22082220616426 0.0
   endloop
endfacet
facet normal 0.965925826289067 0.258819045102525 0.0
   outer loop
      vertex -238.21700221488 1.22082220616426 17.4625
      vertex -238.494538076151 1.89085304648882 0.0
      vertex -238.494538076151 1.89085304648882 17.4625
   endloop
endfacet
facet normal 1.0 2.22777747391172e-016 0.0
   outer loop
      vertex -238.589200389992 2.60988470616426 0.0
      vertex -238.494538076151 1.89085304648882 17.4625
      vertex -238.494538076151 1.89085304648882 0.0
   endloop
endfacet
facet normal 1.0 2.22777747391172e-016 0.0
   outer loop
      vertex -238.494538076151 1.89085304648882 17.4625
      vertex -238.589200389992 2.60988470616426 0.0
      vertex -238.589200389992 2.60988470616426 17.4625
   endloop
endfacet
facet normal 0.965925826289067 -0.258819045102525 0.0
   outer loop
      vertex -238.494538076151 3.3289163658397 0.0
      vertex -238.589200389992 2.60988470616426 17.4625
      vertex -238.589200389992 2.60988470616426 0.0
   endloop
endfacet
facet normal 0.965925826289067 -0.258819045102525 0.0
   outer loop
      vertex -238.589200389992 2.60988470616426 17.4625
      vertex -238.494538076151 3.3289163658397 0.0
      vertex -238.494538076151 3.3289163658397 17.4625
   endloop
endfacet
facet normal 0.866025403784435 -0.500000000000007 0.0
   outer loop
      vertex -238.21700221488 3.99894720616426 0.0
      vertex -238.494538076151 3.3289163658397 17.4625
      vertex -238.494538076151 3.3289163658397 0.0
   endloop
endfacet
facet normal 0.866025403784435 -0.500000000000007 0.0
   outer loop
      vertex -238.494538076151 3.3289163658397 17.4625
      vertex -238.21700221488 3.99894720616426 0.0
      vertex -238.21700221488 3.99894720616426 17.4625
   endloop
endfacet
facet normal 0.707106781186549 -0.707106781186546 0.0
   outer loop
      vertex -237.775506416476 4.57431573264814 0.0
      vertex -238.21700221488 3.99894720616426 17.4625
      vertex -238.21700221488 3.99894720616426 0.0
   endloop
endfacet
facet normal 0.707106781186549 -0.707106781186546 0.0
   outer loop
      vertex -238.21700221488 3.99894720616426 17.4625
      vertex -237.775506416476 4.57431573264814 0.0
      vertex -237.775506416476 4.57431573264814 17.4625
   endloop
endfacet
facet normal 0.5 -0.866025403784439 0.0
   outer loop
      vertex -237.200137889992 5.01581153105291 17.4625
      vertex -237.775506416476 4.57431573264814 0.0
      vertex -237.200137889992 5.01581153105291 0.0
   endloop
endfacet
facet normal 0.5 -0.866025403784439 0.0
   outer loop
      vertex -237.775506416476 4.57431573264814 0.0
      vertex -237.200137889992 5.01581153105291 17.4625
      vertex -237.775506416476 4.57431573264814 17.4625
   endloop
endfacet
facet normal 0.866025403784439 0.5 -1.04470936884086e-016
   outer loop
      vertex -228.249591083199 6.97550970616426 0.0
      vertex -227.377335519205 4.86969849371565 34.925
      vertex -227.377335519205 4.86969849371564 0.0
   endloop
endfacet
facet normal 0.866025403784439 0.5 -1.04470936884086e-016
   outer loop
      vertex -227.377335519205 4.86969849371565 34.925
      vertex -228.249591083199 6.97550970616426 0.0
      vertex -228.249591083199 6.97550970616427 34.925
   endloop
endfacet
facet normal 0.707106781186545 0.70710678118655 -1.10430240747387e-016
   outer loop
      vertex -229.637149306757 8.7838107893993 0.0
      vertex -228.249591083199 6.97550970616427 34.925
      vertex -228.249591083199 6.97550970616426 0.0
   endloop
endfacet
facet normal 0.707106781186545 0.70710678118655 -1.10430240747387e-016
   outer loop
      vertex -228.249591083199 6.97550970616427 34.925
      vertex -229.637149306757 8.7838107893993 0.0
      vertex -229.637149306757 8.78381078939931 34.925
   endloop
endfacet
facet normal 0.499999999999999 0.866025403784439 -8.60786345258808e-017
   outer loop
      vertex -231.445450389992 10.1713690129571 34.925
      vertex -229.637149306757 8.7838107893993 0.0
      vertex -231.445450389992 10.1713690129571 0.0
   endloop
endfacet
facet normal 0.499999999999999 0.866025403784439 -8.60786345258808e-017
   outer loop
      vertex -229.637149306757 8.7838107893993 0.0
      vertex -231.445450389992 10.1713690129571 34.925
      vertex -229.637149306757 8.78381078939931 34.925
   endloop
endfacet
facet normal 0.258819045102521 0.965925826289068 -5.7806351728721e-017
   outer loop
      vertex -233.55126160244 11.0436245769507 34.925
      vertex -231.445450389992 10.1713690129571 0.0
      vertex -233.55126160244 11.0436245769507 0.0
   endloop
endfacet
facet normal 0.258819045102521 0.965925826289068 -5.7806351728721e-017
   outer loop
      vertex -231.445450389992 10.1713690129571 0.0
      vertex -233.55126160244 11.0436245769507 34.925
      vertex -231.445450389992 10.1713690129571 34.925
   endloop
endfacet
facet normal -1.69311088017291e-016 1.0 0.0
   outer loop
      vertex -235.811075389992 11.3411347061643 34.925
      vertex -233.55126160244 11.0436245769507 0.0
      vertex -235.811075389992 11.3411347061643 0.0
   endloop
endfacet
facet normal -1.69311088017291e-016 1.0 0.0
   outer loop
      vertex -233.55126160244 11.0436245769507 0.0
      vertex -235.811075389992 11.3411347061643 34.925
      vertex -233.55126160244 11.0436245769507 34.925
   endloop
endfacet
facet normal -0.258819045102521 0.965925826289068 5.7806351728721e-017
   outer loop
      vertex -238.070889177543 11.0436245769507 34.925
      vertex -235.811075389992 11.3411347061643 0.0
      vertex -238.070889177543 11.0436245769507 0.0
   endloop
endfacet
facet normal -0.258819045102521 0.965925826289068 5.7806351728721e-017
   outer loop
      vertex -235.811075389992 11.3411347061643 0.0
      vertex -238.070889177543 11.0436245769507 34.925
      vertex -235.811075389992 11.3411347061643 34.925
   endloop
endfacet
facet normal -0.499999999999999 0.866025403784439 8.60786345258808e-017
   outer loop
      vertex -240.176700389992 10.1713690129571 34.925
      vertex -238.070889177543 11.0436245769507 0.0
      vertex -240.176700389992 10.1713690129571 0.0
   endloop
endfacet
facet normal -0.499999999999999 0.866025403784439 8.60786345258808e-017
   outer loop
      vertex -238.070889177543 11.0436245769507 0.0
      vertex -240.176700389992 10.1713690129571 34.925
      vertex -238.070889177543 11.0436245769507 34.925
   endloop
endfacet
facet normal -0.707106781186546 0.707106781186549 1.10430240747387e-016
   outer loop
      vertex -241.985001473227 8.7838107893993 34.925
      vertex -240.176700389992 10.1713690129571 0.0
      vertex -241.985001473227 8.78381078939931 0.0
   endloop
endfacet
facet normal -0.707106781186546 0.707106781186549 1.10430240747387e-016
   outer loop
      vertex -240.176700389992 10.1713690129571 0.0
      vertex -241.985001473227 8.7838107893993 34.925
      vertex -240.176700389992 10.1713690129571 34.925
   endloop
endfacet
facet normal -0.707106781186546 0.707106781186549 1.10430240747387e-016
   outer loop
      vertex -241.985001473227 8.7838107893993 34.925
      vertex -243.372559696785 6.97550970616427 0.0
      vertex -243.372559696785 6.97550970616426 34.925
   endloop
endfacet
facet normal -0.707106781186546 0.707106781186549 1.10430240747387e-016
   outer loop
      vertex -243.372559696785 6.97550970616427 0.0
      vertex -241.985001473227 8.7838107893993 34.925
      vertex -241.985001473227 8.78381078939931 0.0
   endloop
endfacet
facet normal -0.866025403784439 0.499999999999999 1.04825093984993e-016
   outer loop
      vertex -243.372559696785 6.97550970616426 34.925
      vertex -244.244815260778 4.86969849371565 0.0
      vertex -244.244815260778 4.86969849371564 34.925
   endloop
endfacet
facet normal -0.866025403784439 0.499999999999999 1.04825093984993e-016
   outer loop
      vertex -244.244815260778 4.86969849371565 0.0
      vertex -243.372559696785 6.97550970616426 34.925
      vertex -243.372559696785 6.97550970616427 0.0
   endloop
endfacet
facet normal -0.965925826289069 0.258819045102518 5.08255710681836e-017
   outer loop
      vertex -244.244815260778 4.86969849371564 34.925
      vertex -244.542325389992 2.60988470616426 0.0
      vertex -244.542325389992 2.60988470616426 34.925
   endloop
endfacet
facet normal -0.965925826289069 0.258819045102518 5.08255710681836e-017
   outer loop
      vertex -244.542325389992 2.60988470616426 0.0
      vertex -244.244815260778 4.86969849371564 34.925
      vertex -244.244815260778 4.86969849371565 0.0
   endloop
endfacet
facet normal -1.0 0.0 1.32876030973576e-018
   outer loop
      vertex -244.542325389992 2.60988470616426 34.925
      vertex -244.244815260778 0.35007091861288 0.0
      vertex -244.244815260778 0.350070918612875 34.925
   endloop
endfacet
facet normal -1.0 0.0 1.32876030973576e-018
   outer loop
      vertex -244.244815260778 0.35007091861288 0.0
      vertex -244.542325389992 2.60988470616426 34.925
      vertex -244.542325389992 2.60988470616426 0.0
   endloop
endfacet
facet normal -0.965925826289069 -0.258819045102518 -3.9934569033954e-017
   outer loop
      vertex -244.244815260778 0.350070918612875 34.925
      vertex -243.372559696785 -1.75574029383573 0.0
      vertex -243.372559696785 -1.75574029383574 34.925
   endloop
endfacet
facet normal -0.965925826289069 -0.258819045102518 -3.9934569033954e-017
   outer loop
      vertex -243.372559696785 -1.75574029383573 0.0
      vertex -244.244815260778 0.350070918612875 34.925
      vertex -244.244815260778 0.35007091861288 0.0
   endloop
endfacet
facet normal -0.866025403784439 -0.499999999999999 -6.99106357615439e-017
   outer loop
      vertex -243.372559696785 -1.75574029383574 34.925
      vertex -241.985001473227 -3.56404137707078 0.0
      vertex -241.985001473227 -3.56404137707078 34.925
   endloop
endfacet
facet normal -0.866025403784439 -0.499999999999999 -6.99106357615439e-017
   outer loop
      vertex -241.985001473227 -3.56404137707078 0.0
      vertex -243.372559696785 -1.75574029383574 34.925
      vertex -243.372559696785 -1.75574029383573 0.0
   endloop
endfacet
facet normal -0.499999999999999 -0.866025403784439 -5.68497238079302e-017
   outer loop
      vertex -240.176700389992 -4.95159960062862 34.925
      vertex -241.985001473227 -3.56404137707078 0.0
      vertex -240.176700389992 -4.95159960062862 0.0
   endloop
endfacet
facet normal -0.499999999999999 -0.866025403784439 -5.68497238079302e-017
   outer loop
      vertex -241.985001473227 -3.56404137707078 0.0
      vertex -240.176700389992 -4.95159960062862 34.925
      vertex -241.985001473227 -3.56404137707078 34.925
   endloop
endfacet
facet normal -0.258819045102521 -0.965925826289068 -3.83082955027901e-017
   outer loop
      vertex -238.070889177543 -5.82385516462217 34.925
      vertex -240.176700389992 -4.95159960062862 0.0
      vertex -238.070889177543 -5.82385516462216 0.0
   endloop
endfacet
facet normal -0.258819045102521 -0.965925826289068 -3.83082955027901e-017
   outer loop
      vertex -240.176700389992 -4.95159960062862 0.0
      vertex -238.070889177543 -5.82385516462217 34.925
      vertex -240.176700389992 -4.95159960062862 34.925
   endloop
endfacet
facet normal 9.8022208852116e-017 -1.0 0.0
   outer loop
      vertex -235.811075389992 -6.12136529383574 34.925
      vertex -238.070889177543 -5.82385516462216 0.0
      vertex -235.811075389992 -6.12136529383574 0.0
   endloop
endfacet
facet normal 9.8022208852116e-017 -1.0 0.0
   outer loop
      vertex -238.070889177543 -5.82385516462216 0.0
      vertex -235.811075389992 -6.12136529383574 34.925
      vertex -238.070889177543 -5.82385516462217 34.925
   endloop
endfacet
facet normal 0.258819045102521 -0.965925826289068 3.83082955027901e-017
   outer loop
      vertex -233.55126160244 -5.82385516462216 34.925
      vertex -235.811075389992 -6.12136529383574 0.0
      vertex -233.55126160244 -5.82385516462217 0.0
   endloop
endfacet
facet normal 0.258819045102521 -0.965925826289068 3.83082955027901e-017
   outer loop
      vertex -235.811075389992 -6.12136529383574 0.0
      vertex -233.55126160244 -5.82385516462216 34.925
      vertex -235.811075389992 -6.12136529383574 34.925
   endloop
endfacet
facet normal 0.499999999999999 -0.866025403784439 5.68497238079302e-017
   outer loop
      vertex -231.445450389992 -4.95159960062862 34.925
      vertex -233.55126160244 -5.82385516462217 0.0
      vertex -231.445450389992 -4.95159960062862 0.0
   endloop
endfacet
facet normal 0.499999999999999 -0.866025403784439 5.68497238079302e-017
   outer loop
      vertex -233.55126160244 -5.82385516462217 0.0
      vertex -231.445450389992 -4.95159960062862 34.925
      vertex -233.55126160244 -5.82385516462216 34.925
   endloop
endfacet
facet normal 0.258819045102519 -0.965925826289069 0.0
   outer loop
      vertex -236.530107049667 5.29334739232358 17.4625
      vertex -237.200137889992 5.01581153105291 0.0
      vertex -236.530107049667 5.29334739232358 0.0
   endloop
endfacet
facet normal 0.258819045102519 -0.965925826289069 0.0
   outer loop
      vertex -237.200137889992 5.01581153105291 0.0
      vertex -236.530107049667 5.29334739232358 17.4625
      vertex -237.200137889992 5.01581153105291 17.4625
   endloop
endfacet
facet normal 1.55053312184256e-015 -1.0 0.0
   outer loop
      vertex -235.811075389992 5.38800970616426 17.4625
      vertex -236.530107049667 5.29334739232358 0.0
      vertex -235.811075389992 5.38800970616426 0.0
   endloop
endfacet
facet normal 1.55053312184256e-015 -1.0 0.0
   outer loop
      vertex -236.530107049667 5.29334739232358 0.0
      vertex -235.811075389992 5.38800970616426 17.4625
      vertex -236.530107049667 5.29334739232358 17.4625
   endloop
endfacet
facet normal -0.258819045102523 -0.965925826289068 0.0
   outer loop
      vertex -235.092043730316 5.29334739232358 17.4625
      vertex -235.811075389992 5.38800970616426 0.0
      vertex -235.092043730316 5.29334739232358 0.0
   endloop
endfacet
facet normal -0.258819045102523 -0.965925826289068 0.0
   outer loop
      vertex -235.811075389992 5.38800970616426 0.0
      vertex -235.092043730316 5.29334739232358 17.4625
      vertex -235.811075389992 5.38800970616426 17.4625
   endloop
endfacet
facet normal -0.500000000000005 -0.866025403784436 0.0
   outer loop
      vertex -234.422012889992 5.0158115310529 17.4625
      vertex -235.092043730316 5.29334739232358 0.0
      vertex -234.422012889992 5.0158115310529 0.0
   endloop
endfacet
facet normal -0.500000000000005 -0.866025403784436 0.0
   outer loop
      vertex -235.092043730316 5.29334739232358 0.0
      vertex -234.422012889992 5.0158115310529 17.4625
      vertex -235.092043730316 5.29334739232358 17.4625
   endloop
endfacet
facet normal -0.70710678118655 -0.707106781186545 0.0
   outer loop
      vertex -233.846644363508 4.57431573264814 17.4625
      vertex -234.422012889992 5.0158115310529 0.0
      vertex -233.846644363508 4.57431573264814 0.0
   endloop
endfacet
facet normal -0.70710678118655 -0.707106781186545 0.0
   outer loop
      vertex -234.422012889992 5.0158115310529 0.0
      vertex -233.846644363508 4.57431573264814 17.4625
      vertex -234.422012889992 5.0158115310529 17.4625
   endloop
endfacet
facet normal -0.70710678118655 -0.707106781186545 0.0
   outer loop
      vertex -233.846644363508 4.57431573264814 17.4625
      vertex -233.405148565103 3.99894720616426 0.0
      vertex -233.405148565103 3.99894720616426 17.4625
   endloop
endfacet
facet normal -0.70710678118655 -0.707106781186545 0.0
   outer loop
      vertex -233.405148565103 3.99894720616426 0.0
      vertex -233.846644363508 4.57431573264814 17.4625
      vertex -233.846644363508 4.57431573264814 0.0
   endloop
endfacet
facet normal -0.866025403784435 -0.500000000000006 0.0
   outer loop
      vertex -233.405148565103 3.99894720616426 17.4625
      vertex -233.127612703833 3.3289163658397 0.0
      vertex -233.127612703833 3.3289163658397 17.4625
   endloop
endfacet
facet normal -0.866025403784435 -0.500000000000006 0.0
   outer loop
      vertex -233.127612703833 3.3289163658397 0.0
      vertex -233.405148565103 3.99894720616426 17.4625
      vertex -233.405148565103 3.99894720616426 0.0
   endloop
endfacet
facet normal -0.965925826289067 -0.258819045102525 0.0
   outer loop
      vertex -233.127612703833 3.3289163658397 17.4625
      vertex -233.032950389992 2.60988470616426 0.0
      vertex -233.032950389992 2.60988470616426 17.4625
   endloop
endfacet
facet normal -0.965925826289067 -0.258819045102525 0.0
   outer loop
      vertex -233.032950389992 2.60988470616426 0.0
      vertex -233.127612703833 3.3289163658397 17.4625
      vertex -233.127612703833 3.3289163658397 0.0
   endloop
endfacet
facet normal -1.0 -7.12888791651752e-017 0.0
   outer loop
      vertex -233.032950389992 2.60988470616426 17.4625
      vertex -233.127612703833 1.89085304648882 0.0
      vertex -233.127612703833 1.89085304648882 17.4625
   endloop
endfacet
facet normal -1.0 -7.12888791651752e-017 0.0
   outer loop
      vertex -233.127612703833 1.89085304648882 0.0
      vertex -233.032950389992 2.60988470616426 17.4625
      vertex -233.032950389992 2.60988470616426 0.0
   endloop
endfacet
facet normal -0.965925826289067 0.258819045102525 0.0
   outer loop
      vertex -233.127612703833 1.89085304648882 17.4625
      vertex -233.405148565103 1.22082220616426 0.0
      vertex -233.405148565103 1.22082220616426 17.4625
   endloop
endfacet
facet normal -0.965925826289067 0.258819045102525 0.0
   outer loop
      vertex -233.405148565103 1.22082220616426 0.0
      vertex -233.127612703833 1.89085304648882 17.4625
      vertex -233.127612703833 1.89085304648882 0.0
   endloop
endfacet
facet normal -0.866025403784435 0.500000000000006 0.0
   outer loop
      vertex -233.405148565103 1.22082220616426 17.4625
      vertex -233.846644363508 0.645453679680383 0.0
      vertex -233.846644363508 0.645453679680383 17.4625
   endloop
endfacet
facet normal -0.866025403784435 0.500000000000006 0.0
   outer loop
      vertex -233.846644363508 0.645453679680383 0.0
      vertex -233.405148565103 1.22082220616426 17.4625
      vertex -233.405148565103 1.22082220616426 0.0
   endloop
endfacet
facet normal -0.5 0.866025403784439 0.0
   outer loop
      vertex -234.422012889992 0.203957881275618 17.4625
      vertex -233.846644363508 0.645453679680383 0.0
      vertex -234.422012889992 0.203957881275618 0.0
   endloop
endfacet
facet normal -0.5 0.866025403784439 0.0
   outer loop
      vertex -233.846644363508 0.645453679680383 0.0
      vertex -234.422012889992 0.203957881275618 17.4625
      vertex -233.846644363508 0.645453679680383 17.4625
   endloop
endfacet
facet normal -0.258819045102519 0.965925826289069 0.0
   outer loop
      vertex -235.092043730316 -0.073577979995056 17.4625
      vertex -234.422012889992 0.203957881275618 0.0
      vertex -235.092043730316 -0.073577979995056 0.0
   endloop
endfacet
facet normal -0.258819045102519 0.965925826289069 0.0
   outer loop
      vertex -234.422012889992 0.203957881275618 0.0
      vertex -235.092043730316 -0.073577979995056 17.4625
      vertex -234.422012889992 0.203957881275618 17.4625
   endloop
endfacet
facet normal -1.80004419892068e-015 1.0 0.0
   outer loop
      vertex -235.811075389992 -0.168240293835739 17.4625
      vertex -235.092043730316 -0.073577979995056 0.0
      vertex -235.811075389992 -0.168240293835739 0.0
   endloop
endfacet
facet normal -1.80004419892068e-015 1.0 0.0
   outer loop
      vertex -235.092043730316 -0.073577979995056 0.0
      vertex -235.811075389992 -0.168240293835739 17.4625
      vertex -235.092043730316 -0.073577979995056 17.4625
   endloop
endfacet
facet normal 0.258819045102523 0.965925826289068 0.0
   outer loop
      vertex -236.530107049667 -0.073577979995056 17.4625
      vertex -235.811075389992 -0.168240293835739 0.0
      vertex -236.530107049667 -0.073577979995056 0.0
   endloop
endfacet
facet normal 0.258819045102523 0.965925826289068 0.0
   outer loop
      vertex -235.811075389992 -0.168240293835739 0.0
      vertex -236.530107049667 -0.073577979995056 17.4625
      vertex -235.811075389992 -0.168240293835739 17.4625
   endloop
endfacet
facet normal 0.707106781186546 -0.707106781186549 6.63809983466416e-017
   outer loop
      vertex -229.637149306757 -3.56404137707078 34.925
      vertex -231.445450389992 -4.95159960062862 0.0
      vertex -229.637149306757 -3.56404137707078 0.0
   endloop
endfacet
facet normal 0.707106781186546 -0.707106781186549 6.63809983466416e-017
   outer loop
      vertex -231.445450389992 -4.95159960062862 0.0
      vertex -229.637149306757 -3.56404137707078 34.925
      vertex -231.445450389992 -4.95159960062862 34.925
   endloop
endfacet
facet normal 0.866025403784439 -0.499999999999999 7.10374009392752e-017
   outer loop
      vertex -228.249591083199 -1.75574029383574 0.0
      vertex -229.637149306757 -3.56404137707078 34.925
      vertex -229.637149306757 -3.56404137707078 0.0
   endloop
endfacet
facet normal 0.866025403784439 -0.499999999999999 7.10374009392752e-017
   outer loop
      vertex -229.637149306757 -3.56404137707078 34.925
      vertex -228.249591083199 -1.75574029383574 0.0
      vertex -228.249591083199 -1.75574029383573 34.925
   endloop
endfacet
facet normal 0.965925826289069 -0.258819045102518 3.9934569033954e-017
   outer loop
      vertex -227.377335519205 0.350070918612875 0.0
      vertex -228.249591083199 -1.75574029383573 34.925
      vertex -228.249591083199 -1.75574029383574 0.0
   endloop
endfacet
facet normal 0.965925826289069 -0.258819045102518 3.9934569033954e-017
   outer loop
      vertex -228.249591083199 -1.75574029383573 34.925
      vertex -227.377335519205 0.350070918612875 0.0
      vertex -227.377335519205 0.35007091861288 34.925
   endloop
endfacet
facet normal 1.0 -1.4257775833035e-016 -1.32876030973574e-018
   outer loop
      vertex -227.079825389992 2.60988470616426 0.0
      vertex -227.377335519205 0.35007091861288 34.925
      vertex -227.377335519205 0.350070918612875 0.0
   endloop
endfacet
facet normal 1.0 -1.4257775833035e-016 -1.32876030973574e-018
   outer loop
      vertex -227.377335519205 0.35007091861288 34.925
      vertex -227.079825389992 2.60988470616426 0.0
      vertex -227.079825389992 2.60988470616426 34.925
   endloop
endfacet
facet normal 0.965925826289069 0.258819045102518 -5.04714139672764e-017
   outer loop
      vertex -227.377335519205 4.86969849371564 0.0
      vertex -227.079825389992 2.60988470616426 34.925
      vertex -227.079825389992 2.60988470616426 0.0
   endloop
endfacet
facet normal 0.965925826289069 0.258819045102518 -5.04714139672764e-017
   outer loop
      vertex -227.079825389992 2.60988470616426 34.925
      vertex -227.377335519205 4.86969849371564 0.0
      vertex -227.377335519205 4.86969849371565 34.925
   endloop
endfacet
facet normal 0.0 0.0 1.0
   outer loop
      vertex -239.837923383069 1.53089403837631 17.4625
      vertex -239.837923383069 3.68887537395221 17.4625
      vertex -239.979975199357 2.60988470616426 17.4625
   endloop
endfacet
facet normal 0.0 0.0 1.0
   outer loop
      vertex -239.837923383069 3.68887537395221 17.4625
      vertex -239.837923383069 1.53089403837631 17.4625
      vertex -239.421448530734 0.525434801481695 17.4625
   endloop
endfacet
facet normal 0.0 0.0 1.0
   outer loop
      vertex -239.837923383069 3.68887537395221 17.4625
      vertex -239.421448530734 0.525434801481695 17.4625
      vertex -239.421448530734 4.69433461084684 17.4625
   endloop
endfacet
facet normal 0.0 0.0 1.0
   outer loop
      vertex -239.421448530734 4.69433461084684 17.4625
      vertex -239.421448530734 0.525434801481695 17.4625
      vertex -238.758932715281 -0.337972619125132 17.4625
   endloop
endfacet
facet normal 0.0 0.0 1.0
   outer loop
      vertex -239.421448530734 4.69433461084684 17.4625
      vertex -238.758932715281 -0.337972619125132 17.4625
      vertex -238.758932715281 5.55774203145366 17.4625
   endloop
endfacet
facet normal 0.0 0.0 1.0
   outer loop
      vertex -238.758932715281 5.55774203145366 17.4625
      vertex -238.758932715281 -0.337972619125132 17.4625
      vertex -238.589200389992 2.60988470616426 17.4625
   endloop
endfacet
facet normal 0.0 0.0 1.0
   outer loop
      vertex -238.589200389992 2.60988470616426 17.4625
      vertex -238.758932715281 -0.337972619125132 17.4625
      vertex -238.494538076151 1.89085304648882 17.4625
   endloop
endfacet
facet normal 0.0 0.0 1.0
   outer loop
      vertex -238.494538076151 1.89085304648882 17.4625
      vertex -238.758932715281 -0.337972619125132 17.4625
      vertex -237.895525294674 -1.00048843457804 17.4625
   endloop
endfacet
facet normal 0.0 0.0 1.0
   outer loop
      vertex -238.494538076151 1.89085304648882 17.4625
      vertex -237.895525294674 -1.00048843457804 17.4625
      vertex -238.21700221488 1.22082220616426 17.4625
   endloop
endfacet
facet normal 0.0 0.0 1.0
   outer loop
      vertex -238.21700221488 1.22082220616426 17.4625
      vertex -237.895525294674 -1.00048843457804 17.4625
      vertex -237.775506416476 0.645453679680385 17.4625
   endloop
endfacet
facet normal 0.0 0.0 1.0
   outer loop
      vertex -237.775506416476 0.645453679680385 17.4625
      vertex -237.895525294674 -1.00048843457804 17.4625
      vertex -236.89006605778 -1.41696328691308 17.4625
   endloop
endfacet
facet normal 0.0 0.0 1.0
   outer loop
      vertex -237.775506416476 0.645453679680385 17.4625
      vertex -236.89006605778 -1.41696328691308 17.4625
      vertex -237.200137889992 0.203957881275619 17.4625
   endloop
endfacet
facet normal 0.0 0.0 1.0
   outer loop
      vertex -237.200137889992 0.203957881275619 17.4625
      vertex -236.89006605778 -1.41696328691308 17.4625
      vertex -236.530107049667 -0.073577979995056 17.4625
   endloop
endfacet
facet normal 0.0 0.0 1.0
   outer loop
      vertex -236.530107049667 -0.073577979995056 17.4625
      vertex -236.89006605778 -1.41696328691308 17.4625
      vertex -235.811075389992 -1.55901510320086 17.4625
   endloop
endfacet
facet normal 0.0 0.0 1.0
   outer loop
      vertex -236.530107049667 -0.073577979995056 17.4625
      vertex -235.811075389992 -1.55901510320086 17.4625
      vertex -235.811075389992 -0.168240293835739 17.4625
   endloop
endfacet
facet normal 0.0 0.0 1.0
   outer loop
      vertex -235.811075389992 -0.168240293835739 17.4625
      vertex -235.811075389992 -1.55901510320086 17.4625
      vertex -234.732084722204 -1.41696328691309 17.4625
   endloop
endfacet
facet normal 0.0 0.0 1.0
   outer loop
      vertex -235.811075389992 -0.168240293835739 17.4625
      vertex -234.732084722204 -1.41696328691309 17.4625
      vertex -235.092043730316 -0.073577979995056 17.4625
   endloop
endfacet
facet normal 0.0 0.0 1.0
   outer loop
      vertex -235.092043730316 -0.073577979995056 17.4625
      vertex -234.732084722204 -1.41696328691309 17.4625
      vertex -234.422012889992 0.203957881275618 17.4625
   endloop
endfacet
facet normal 0.0 0.0 1.0
   outer loop
      vertex -234.422012889992 0.203957881275618 17.4625
      vertex -234.732084722204 -1.41696328691309 17.4625
      vertex -233.726625485309 -1.00048843457804 17.4625
   endloop
endfacet
facet normal 0.0 0.0 1.0
   outer loop
      vertex -234.422012889992 0.203957881275618 17.4625
      vertex -233.726625485309 -1.00048843457804 17.4625
      vertex -233.846644363508 0.645453679680383 17.4625
   endloop
endfacet
facet normal 0.0 0.0 1.0
   outer loop
      vertex -233.846644363508 0.645453679680383 17.4625
      vertex -233.726625485309 -1.00048843457804 17.4625
      vertex -233.405148565103 1.22082220616426 17.4625
   endloop
endfacet
facet normal 0.0 0.0 1.0
   outer loop
      vertex -233.405148565103 1.22082220616426 17.4625
      vertex -233.726625485309 -1.00048843457804 17.4625
      vertex -232.863218064702 -0.337972619125131 17.4625
   endloop
endfacet
facet normal 0.0 0.0 1.0
   outer loop
      vertex -233.405148565103 1.22082220616426 17.4625
      vertex -232.863218064702 -0.337972619125131 17.4625
      vertex -233.127612703833 1.89085304648882 17.4625
   endloop
endfacet
facet normal 0.0 0.0 1.0
   outer loop
      vertex -233.127612703833 1.89085304648882 17.4625
      vertex -232.863218064702 -0.337972619125131 17.4625
      vertex -233.032950389992 2.60988470616426 17.4625
   endloop
endfacet
facet normal 0.0 0.0 1.0
   outer loop
      vertex -233.032950389992 2.60988470616426 17.4625
      vertex -232.863218064702 -0.337972619125131 17.4625
      vertex -232.863218064702 5.55774203145366 17.4625
   endloop
endfacet
facet normal 0.0 0.0 1.0
   outer loop
      vertex -232.863218064702 5.55774203145366 17.4625
      vertex -232.863218064702 -0.337972619125131 17.4625
      vertex -232.20070224925 4.69433461084683 17.4625
   endloop
endfacet
facet normal 0.0 0.0 1.0
   outer loop
      vertex -232.20070224925 4.69433461084683 17.4625
      vertex -232.863218064702 -0.337972619125131 17.4625
      vertex -232.690789278772 -0.113259050292473 17.4625
   endloop
endfacet
facet normal 0.0 0.0 1.0
   outer loop
      vertex -232.20070224925 4.69433461084683 17.4625
      vertex -232.690789278772 -0.113259050292473 17.4625
      vertex -232.20070224925 0.525434801481685 17.4625
   endloop
endfacet
facet normal 0.0 0.0 1.0
   outer loop
      vertex -232.20070224925 4.69433461084683 17.4625
      vertex -232.20070224925 0.525434801481685 17.4625
      vertex -231.784227396915 1.5308940383763 17.4625
   endloop
endfacet
facet normal 0.0 0.0 1.0
   outer loop
      vertex -232.20070224925 4.69433461084683 17.4625
      vertex -231.784227396915 1.5308940383763 17.4625
      vertex -231.784227396915 3.68887537395221 17.4625
   endloop
endfacet
facet normal 0.0 0.0 1.0
   outer loop
      vertex -231.784227396915 3.68887537395221 17.4625
      vertex -231.784227396915 1.5308940383763 17.4625
      vertex -231.642175580627 2.60988470616426 17.4625
   endloop
endfacet
facet normal 0.0 0.0 1.0
   outer loop
      vertex -238.758932715281 5.55774203145366 17.4625
      vertex -238.494538076151 3.3289163658397 17.4625
      vertex -237.895525294674 6.22025784690656 17.4625
   endloop
endfacet
facet normal 0.0 0.0 1.0
   outer loop
      vertex -238.494538076151 3.3289163658397 17.4625
      vertex -238.758932715281 5.55774203145366 17.4625
      vertex -238.589200389992 2.60988470616426 17.4625
   endloop
endfacet
facet normal 0.0 0.0 1.0
   outer loop
      vertex -237.895525294674 6.22025784690656 17.4625
      vertex -238.494538076151 3.3289163658397 17.4625
      vertex -238.21700221488 3.99894720616426 17.4625
   endloop
endfacet
facet normal 0.0 0.0 1.0
   outer loop
      vertex -237.895525294674 6.22025784690656 17.4625
      vertex -238.21700221488 3.99894720616426 17.4625
      vertex -237.775506416476 4.57431573264814 17.4625
   endloop
endfacet
facet normal 0.0 0.0 1.0
   outer loop
      vertex -237.895525294674 6.22025784690656 17.4625
      vertex -237.775506416476 4.57431573264814 17.4625
      vertex -236.89006605778 6.63673269924161 17.4625
   endloop
endfacet
facet normal 0.0 0.0 1.0
   outer loop
      vertex -236.89006605778 6.63673269924161 17.4625
      vertex -237.775506416476 4.57431573264814 17.4625
      vertex -237.200137889992 5.01581153105291 17.4625
   endloop
endfacet
facet normal 0.0 0.0 1.0
   outer loop
      vertex -236.89006605778 6.63673269924161 17.4625
      vertex -237.200137889992 5.01581153105291 17.4625
      vertex -236.530107049667 5.29334739232358 17.4625
   endloop
endfacet
facet normal 0.0 0.0 1.0
   outer loop
      vertex -236.89006605778 6.63673269924161 17.4625
      vertex -236.530107049667 5.29334739232358 17.4625
      vertex -235.811075389992 6.77878451552939 17.4625
   endloop
endfacet
facet normal 0.0 0.0 1.0
   outer loop
      vertex -235.811075389992 6.77878451552939 17.4625
      vertex -236.530107049667 5.29334739232358 17.4625
      vertex -235.811075389992 5.38800970616426 17.4625
   endloop
endfacet
facet normal 0.0 0.0 1.0
   outer loop
      vertex -235.811075389992 6.77878451552939 17.4625
      vertex -235.811075389992 5.38800970616426 17.4625
      vertex -235.092043730316 5.29334739232358 17.4625
   endloop
endfacet
facet normal 0.0 0.0 1.0
   outer loop
      vertex -235.811075389992 6.77878451552939 17.4625
      vertex -235.092043730316 5.29334739232358 17.4625
      vertex -234.732084722204 6.63673269924161 17.4625
   endloop
endfacet
facet normal 0.0 0.0 1.0
   outer loop
      vertex -234.732084722204 6.63673269924161 17.4625
      vertex -235.092043730316 5.29334739232358 17.4625
      vertex -234.422012889992 5.0158115310529 17.4625
   endloop
endfacet
facet normal 0.0 0.0 1.0
   outer loop
      vertex -234.732084722204 6.63673269924161 17.4625
      vertex -234.422012889992 5.0158115310529 17.4625
      vertex -233.726625485309 6.22025784690656 17.4625
   endloop
endfacet
facet normal 0.0 0.0 1.0
   outer loop
      vertex -233.726625485309 6.22025784690656 17.4625
      vertex -234.422012889992 5.0158115310529 17.4625
      vertex -233.846644363508 4.57431573264814 17.4625
   endloop
endfacet
facet normal 0.0 0.0 1.0
   outer loop
      vertex -233.726625485309 6.22025784690656 17.4625
      vertex -233.846644363508 4.57431573264814 17.4625
      vertex -233.405148565103 3.99894720616426 17.4625
   endloop
endfacet
facet normal 0.0 0.0 1.0
   outer loop
      vertex -233.726625485309 6.22025784690656 17.4625
      vertex -233.405148565103 3.99894720616426 17.4625
      vertex -232.863218064702 5.55774203145366 17.4625
   endloop
endfacet
facet normal 0.0 0.0 1.0
   outer loop
      vertex -232.863218064702 5.55774203145366 17.4625
      vertex -233.405148565103 3.99894720616426 17.4625
      vertex -233.127612703833 3.3289163658397 17.4625
   endloop
endfacet
facet normal 0.0 0.0 1.0
   outer loop
      vertex -232.863218064702 5.55774203145366 17.4625
      vertex -233.127612703833 3.3289163658397 17.4625
      vertex -233.032950389992 2.60988470616426 17.4625
   endloop
endfacet
endsolid NEW_X-Z_motor
