solid Milk Strap B_1_a_5-24-13
facet normal -6.54757975621307e-007 -0.999999999999786 -1.07569011488663e-008
   outer loop
      vertex -488.677173255184 -1523.65243520667 -109.179373938813
      vertex -514.428443319017 -1523.65241840657 -99.6543651689752
      vertex -514.428446583932 -1523.65241853993 -109.179365132743
   endloop
endfacet
facet normal -6.54757975621307e-007 -0.999999999999786 -1.07569011488663e-008
   outer loop
      vertex -514.428443319017 -1523.65241840657 -99.6543651689752
      vertex -488.677173255184 -1523.65243520667 -109.179373938813
      vertex -488.677169645371 -1523.65243520667 -99.6543739854337
   endloop
endfacet
facet normal 0.707107189324561 0.707106373048253 -2.55026938641426e-007
   outer loop
      vertex -491.852158503951 -1503.80868366561 -99.654372071474
      vertex -488.677164063381 -1506.98368520667 -109.179372898554
      vertex -491.852162088141 -1503.80868339347 -109.179371481623
   endloop
endfacet
facet normal 0.707107189324561 0.707106373048253 -2.55026938641426e-007
   outer loop
      vertex -488.677164063381 -1506.98368520667 -109.179372898554
      vertex -491.852158503951 -1503.80868366561 -99.654372071474
      vertex -488.677160504812 -1506.98368520668 -99.6543733569164
   endloop
endfacet
facet normal 0.999999999999811 -4.85375415002594e-007 -3.76292953197575e-007
   outer loop
      vertex -488.677169645371 -1523.65243520667 -99.6543739854337
      vertex -488.677164063381 -1506.98368520667 -109.179372898554
      vertex -488.677160504812 -1506.98368520668 -99.6543733569164
   endloop
endfacet
facet normal 0.999999999999811 -4.85375415002594e-007 -3.76292953197575e-007
   outer loop
      vertex -488.677164063381 -1506.98368520667 -109.179372898554
      vertex -488.677169645371 -1523.65243520667 -99.6543739854337
      vertex -488.677173255184 -1523.65243520667 -109.179373938813
   endloop
endfacet
facet normal 0.999999992154791 4.49199032640202e-005 0.000116929978576242
   outer loop
      vertex -491.85213293145 -1471.43494097629 -80.6043866231849
      vertex -491.852134522679 -1446.43189634198 -109.179365925002
      vertex -491.860066016659 -1446.4318994811 -80.6043111603835
   endloop
endfacet
facet normal 0.999999992154791 4.49199032640202e-005 0.000116929978576242
   outer loop
      vertex -491.852134522679 -1446.43189634198 -109.179365925002
      vertex -491.85213293145 -1471.43494097629 -80.6043866231849
      vertex -491.852139016755 -1471.43494206747 -99.6543708586633
   endloop
endfacet
facet normal 0.999999992154791 4.49199032640202e-005 0.000116929978576242
   outer loop
      vertex -491.852134522679 -1446.43189634198 -109.179365925002
      vertex -491.852139016755 -1471.43494206747 -99.6543708586633
      vertex -491.852158503951 -1503.80868366561 -99.654372071474
   endloop
endfacet
facet normal 0.999999992154791 4.49199032640202e-005 0.000116929978576242
   outer loop
      vertex -491.852134522679 -1446.43189634198 -109.179365925002
      vertex -491.852158503951 -1503.80868366561 -99.654372071474
      vertex -491.852162088141 -1503.80868339347 -109.179371481623
   endloop
endfacet
facet normal -0.258819670269137 -0.965925658775961 -2.38979378688873e-008
   outer loop
      vertex -494.206840385505 -1513.40129808007 -109.179371775514
      vertex -494.72043107828 -1513.33368293073 -99.6543712581389
      vertex -494.720434384367 -1513.33368180921 -109.179371589286
   endloop
endfacet
facet normal -0.258819670269137 -0.965925658775961 -2.38979378688873e-008
   outer loop
      vertex -494.72043107828 -1513.33368293073 -99.6543712581389
      vertex -494.206840385505 -1513.40129808007 -109.179371775514
      vertex -494.206837079417 -1513.40129920159 -99.6543714443667
   endloop
endfacet
facet normal -6.47220179859274e-007 -0.999999999999784 -1.17745032405177e-007
   outer loop
      vertex -494.720434384367 -1513.33368180921 -109.179371589286
      vertex -495.234025164667 -1513.40129853678 -99.6543710878339
      vertex -495.234028470755 -1513.40129741525 -109.179371418981
   endloop
endfacet
facet normal -6.47220179859274e-007 -0.999999999999784 -1.17745032405177e-007
   outer loop
      vertex -495.234025164667 -1513.40129853678 -99.6543710878339
      vertex -494.720434384367 -1513.33368180921 -109.179371589286
      vertex -494.72043107828 -1513.33368293073 -99.6543712581389
   endloop
endfacet
facet normal 0.25881841993576 -0.965925993801759 -2.0356799756606e-007
   outer loop
      vertex -495.234028470755 -1513.40129741525 -109.179371418981
      vertex -495.712618750347 -1513.59953812793 -99.6543709450579
      vertex -495.712622056434 -1513.59953700641 -109.179371276205
   endloop
endfacet
facet normal 0.25881841993576 -0.965925993801759 -2.0356799756606e-007
   outer loop
      vertex -495.712618750347 -1513.59953812793 -99.6543709450579
      vertex -495.234028470755 -1513.40129741525 -109.179371418981
      vertex -495.234025164667 -1513.40129853678 -99.6543710878339
   endloop
endfacet
facet normal 0.49999943949076 -0.866025727394313 -2.75518140104982e-007
   outer loop
      vertex -495.712622056434 -1513.59953700641 -109.179371276205
      vertex -496.123596473367 -1513.91489200366 -99.6543708395406
      vertex -496.123599779455 -1513.91489088213 -109.179371170687
   endloop
endfacet
facet normal 0.49999943949076 -0.866025727394313 -2.75518140104982e-007
   outer loop
      vertex -496.123596473367 -1513.91489200366 -99.6543708395406
      vertex -495.712622056434 -1513.59953700641 -109.179371276205
      vertex -495.712618750347 -1513.59953812793 -99.6543709450579
   endloop
endfacet
facet normal 0.866025080174119 -0.500000560508968 -3.59466384661645e-007
   outer loop
      vertex -496.438950881078 -1514.32586931847 -99.6543707784731
      vertex -496.123599779455 -1513.91489088213 -109.179371170687
      vertex -496.123596473367 -1513.91489200366 -99.6543708395406
   endloop
endfacet
facet normal 0.866025080174119 -0.500000560508968 -3.59466384661645e-007
   outer loop
      vertex -496.123599779455 -1513.91489088213 -109.179371170687
      vertex -496.438950881078 -1514.32586931847 -99.6543707784731
      vertex -496.438954187165 -1514.32586819694 -109.17937110962
   endloop
endfacet
facet normal 0.965925658775901 -0.258819670269104 -3.65743552546326e-007
   outer loop
      vertex -496.637191091741 -1514.80446264754 -99.6543707660169
      vertex -496.438954187165 -1514.32586819694 -109.17937110962
      vertex -496.438950881078 -1514.32586931847 -99.6543707784731
   endloop
endfacet
facet normal 0.965925658775901 -0.258819670269104 -3.65743552546326e-007
   outer loop
      vertex -496.438954187165 -1514.32586819694 -109.17937110962
      vertex -496.637191091741 -1514.80446264754 -99.6543707660169
      vertex -496.637194397828 -1514.80446152601 -109.179371097164
   endloop
endfacet
facet normal 0.99999999999973 -6.47220124397948e-007 -3.47095901744127e-007
   outer loop
      vertex -496.704807362607 -1515.3180566464 -99.6543708030207
      vertex -496.637194397828 -1514.80446152601 -109.179371097164
      vertex -496.637191091741 -1514.80446264754 -99.6543707660169
   endloop
endfacet
facet normal 0.99999999999973 -6.47220124397948e-007 -3.47095901744127e-007
   outer loop
      vertex -496.637194397828 -1514.80446152601 -109.179371097164
      vertex -496.704807362607 -1515.3180566464 -99.6543708030207
      vertex -496.704810668694 -1515.31805552488 -109.179371134168
   endloop
endfacet
facet normal 0.965925993801718 0.258818419935811 -3.04794238840722e-007
   outer loop
      vertex -496.637191756557 -1515.83165073279 -99.654370886963
      vertex -496.704810668694 -1515.31805552488 -109.179371134168
      vertex -496.704807362607 -1515.3180566464 -99.6543708030207
   endloop
endfacet
facet normal 0.965925993801718 0.258818419935811 -3.04794238840722e-007
   outer loop
      vertex -496.704810668694 -1515.31805552488 -109.179371134168
      vertex -496.637191756557 -1515.83165073279 -99.654370886963
      vertex -496.637195062645 -1515.83164961126 -109.17937121811
   endloop
endfacet
facet normal 0.866025727394302 0.499999439490797 -2.41721352257245e-007
   outer loop
      vertex -496.438952165405 -1516.31024431847 -99.6543710121234
      vertex -496.637195062645 -1515.83164961126 -109.17937121811
      vertex -496.637191756557 -1515.83165073279 -99.654370886963
   endloop
endfacet
facet normal 0.866025727394302 0.499999439490797 -2.41721352257245e-007
   outer loop
      vertex -496.637195062645 -1515.83164961126 -109.17937121811
      vertex -496.438952165405 -1516.31024431847 -99.6543710121234
      vertex -496.438955471493 -1516.31024319694 -109.17937134327
   endloop
endfacet
facet normal 0.707107238840116 0.707106323532665 -1.62175554980688e-007
   outer loop
      vertex -496.12359828968 -1516.72122204149 -99.6543711699721
      vertex -496.438955471493 -1516.31024319694 -109.17937134327
      vertex -496.438952165405 -1516.31024431847 -99.6543710121234
   endloop
endfacet
facet normal 0.707107238840116 0.707106323532665 -1.62175554980688e-007
   outer loop
      vertex -496.438955471493 -1516.31024319694 -109.17937134327
      vertex -496.12359828968 -1516.72122204149 -99.6543711699721
      vertex -496.123601595768 -1516.72122091996 -109.179371501119
   endloop
endfacet
facet normal 0.707107238840116 0.707106323532665 -1.62175554980688e-007
   outer loop
      vertex -496.12359828968 -1516.72122204149 -99.6543711699721
      vertex -495.712624280955 -1517.03657532768 -109.179371680899
      vertex -496.123601595768 -1516.72122091996 -109.179371501119
   endloop
endfacet
facet normal 0.707107238840116 0.707106323532665 -1.62175554980688e-007
   outer loop
      vertex -495.712624280955 -1517.03657532768 -109.179371680899
      vertex -496.12359828968 -1516.72122204149 -99.6543711699721
      vertex -495.712620974867 -1517.0365764492 -99.654371349752
   endloop
endfacet
facet normal 0.500000560508992 0.866025080174176 -7.15777616393469e-008
   outer loop
      vertex -495.712620974867 -1517.0365764492 -99.654371349752
      vertex -495.234030951885 -1517.23481553834 -109.179371870359
      vertex -495.712624280955 -1517.03657532768 -109.179371680899
   endloop
endfacet
facet normal 0.500000560508992 0.866025080174176 -7.15777616393469e-008
   outer loop
      vertex -495.234030951885 -1517.23481553834 -109.179371870359
      vertex -495.712620974867 -1517.0365764492 -99.654371349752
      vertex -495.234027645797 -1517.23481665986 -99.6543715392117
   endloop
endfacet
facet normal 0.258819670269137 0.965925658775961 2.38979378693081e-008
   outer loop
      vertex -495.234027645797 -1517.23481665986 -99.6543715392117
      vertex -494.720436953023 -1517.3024318092 -109.179372056586
      vertex -495.234030951885 -1517.23481553834 -109.179371870359
   endloop
endfacet
facet normal 0.258819670269137 0.965925658775961 2.38979378693081e-008
   outer loop
      vertex -494.720436953023 -1517.3024318092 -109.179372056586
      vertex -495.234027645797 -1517.23481665986 -99.6543715392117
      vertex -494.720433646935 -1517.30243293073 -99.6543717254395
   endloop
endfacet
facet normal 6.47220179877096e-007 0.999999999999784 1.17745032405177e-007
   outer loop
      vertex -494.720433646935 -1517.30243293073 -99.6543717254395
      vertex -494.206842866635 -1517.23481620316 -109.179372226891
      vertex -494.720436953023 -1517.3024318092 -109.179372056586
   endloop
endfacet
facet normal 6.47220179877096e-007 0.999999999999784 1.17745032405177e-007
   outer loop
      vertex -494.206842866635 -1517.23481620316 -109.179372226891
      vertex -494.720433646935 -1517.30243293073 -99.6543717254395
      vertex -494.206839560547 -1517.23481732468 -99.6543718957445
   endloop
endfacet
facet normal -0.25881841993576 0.965925993801759 2.0356799756606e-007
   outer loop
      vertex -494.206839560547 -1517.23481732468 -99.6543718957445
      vertex -493.728249280955 -1517.036576612 -109.179372369667
      vertex -494.206842866635 -1517.23481620316 -109.179372226891
   endloop
endfacet
facet normal -0.25881841993576 0.965925993801759 2.0356799756606e-007
   outer loop
      vertex -493.728249280955 -1517.036576612 -109.179372369667
      vertex -494.206839560547 -1517.23481732468 -99.6543718957445
      vertex -493.728245974868 -1517.03657773353 -99.6543720385205
   endloop
endfacet
facet normal -0.49999943949076 0.866025727394313 2.75518140104982e-007
   outer loop
      vertex -493.728245974868 -1517.03657773353 -99.6543720385205
      vertex -493.317271557935 -1516.72122273628 -109.179372475185
      vertex -493.728249280955 -1517.036576612 -109.179372369667
   endloop
endfacet
facet normal -0.49999943949076 0.866025727394313 2.75518140104982e-007
   outer loop
      vertex -493.317271557935 -1516.72122273628 -109.179372475185
      vertex -493.728245974868 -1517.03657773353 -99.6543720385205
      vertex -493.317268251847 -1516.7212238578 -99.6543721440378
   endloop
endfacet
facet normal -0.866025080174119 0.500000560508968 3.59466384662498e-007
   outer loop
      vertex -493.001917150224 -1516.31024542146 -109.179372536252
      vertex -493.317268251847 -1516.7212238578 -99.6543721440378
      vertex -493.001913844137 -1516.31024654299 -99.6543722051053
   endloop
endfacet
facet normal -0.866025080174119 0.500000560508968 3.59466384662498e-007
   outer loop
      vertex -493.317268251847 -1516.7212238578 -99.6543721440378
      vertex -493.001917150224 -1516.31024542146 -109.179372536252
      vertex -493.317271557935 -1516.72122273628 -109.179372475185
   endloop
endfacet
facet normal -0.965925658775901 0.258819670269104 3.65743552546562e-007
   outer loop
      vertex -492.803676939562 -1515.8316520924 -109.179372548708
      vertex -493.001913844137 -1516.31024654299 -99.6543722051053
      vertex -492.803673633474 -1515.83165321392 -99.6543722175616
   endloop
endfacet
facet normal -0.965925658775901 0.258819670269104 3.65743552546562e-007
   outer loop
      vertex -493.001913844137 -1516.31024654299 -99.6543722051053
      vertex -492.803676939562 -1515.8316520924 -109.179372548708
      vertex -493.001917150224 -1516.31024542146 -109.179372536252
   endloop
endfacet
facet normal -0.99999999999973 6.47220124406859e-007 3.47095901744127e-007
   outer loop
      vertex -492.736060668695 -1515.31805809353 -109.179372511705
      vertex -492.803673633474 -1515.83165321392 -99.6543722175616
      vertex -492.736057362608 -1515.31805921506 -99.6543721805577
   endloop
endfacet
facet normal -0.99999999999973 6.47220124406859e-007 3.47095901744127e-007
   outer loop
      vertex -492.803673633474 -1515.83165321392 -99.6543722175616
      vertex -492.736060668695 -1515.31805809353 -109.179372511705
      vertex -492.803676939562 -1515.8316520924 -109.179372548708
   endloop
endfacet
facet normal -0.965925993801718 -0.258818419935811 3.04794238841317e-007
   outer loop
      vertex -492.803676274745 -1514.80446400714 -109.179372427762
      vertex -492.736057362608 -1515.31805921506 -99.6543721805577
      vertex -492.803672968657 -1514.80446512867 -99.6543720966154
   endloop
endfacet
facet normal -0.965925993801718 -0.258818419935811 3.04794238841317e-007
   outer loop
      vertex -492.736057362608 -1515.31805921506 -99.6543721805577
      vertex -492.803676274745 -1514.80446400714 -109.179372427762
      vertex -492.736060668695 -1515.31805809353 -109.179372511705
   endloop
endfacet
facet normal -0.866025727394302 -0.499999439490797 2.41721352256606e-007
   outer loop
      vertex -493.001915865897 -1514.32587042147 -109.179372302602
      vertex -492.803672968657 -1514.80446512867 -99.6543720966154
      vertex -493.001912559809 -1514.32587154299 -99.6543719714551
   endloop
endfacet
facet normal -0.866025727394302 -0.499999439490797 2.41721352256606e-007
   outer loop
      vertex -492.803672968657 -1514.80446512867 -99.6543720966154
      vertex -493.001915865897 -1514.32587042147 -109.179372302602
      vertex -492.803676274745 -1514.80446400714 -109.179372427762
   endloop
endfacet
facet normal -0.707107238840116 -0.707106323532665 1.62175554979454e-007
   outer loop
      vertex -493.317269741622 -1513.91489269844 -109.179372144753
      vertex -493.001912559809 -1514.32587154299 -99.6543719714551
      vertex -493.317266435534 -1513.91489381997 -99.6543718136063
   endloop
endfacet
facet normal -0.707107238840116 -0.707106323532665 1.62175554979454e-007
   outer loop
      vertex -493.001912559809 -1514.32587154299 -99.6543719714551
      vertex -493.317269741622 -1513.91489269844 -109.179372144753
      vertex -493.001915865897 -1514.32587042147 -109.179372302602
   endloop
endfacet
facet normal -0.707107238840116 -0.707106323532665 1.62175554979454e-007
   outer loop
      vertex -493.317269741622 -1513.91489269844 -109.179372144753
      vertex -493.728243750347 -1513.59953941226 -99.6543716338264
      vertex -493.728247056435 -1513.59953829073 -109.179371964973
   endloop
endfacet
facet normal -0.707107238840116 -0.707106323532665 1.62175554979454e-007
   outer loop
      vertex -493.728243750347 -1513.59953941226 -99.6543716338264
      vertex -493.317269741622 -1513.91489269844 -109.179372144753
      vertex -493.317266435534 -1513.91489381997 -99.6543718136063
   endloop
endfacet
facet normal -0.500000560508992 -0.866025080174176 7.15777616397677e-008
   outer loop
      vertex -493.728247056435 -1513.59953829073 -109.179371964973
      vertex -494.206837079417 -1513.40129920159 -99.6543714443667
      vertex -494.206840385505 -1513.40129808007 -109.179371775514
   endloop
endfacet
facet normal -0.500000560508992 -0.866025080174176 7.15777616397677e-008
   outer loop
      vertex -494.206837079417 -1513.40129920159 -99.6543714443667
      vertex -493.728247056435 -1513.59953829073 -109.179371964973
      vertex -493.728243750347 -1513.59953941226 -99.6543716338264
   endloop
endfacet
facet normal 2.60205755278766e-006 -1.96374787019764e-006 0.999999999994687
   outer loop
      vertex -491.85213293145 -1471.43494097629 -80.6043866231849
      vertex -502.113102847478 -1462.96540006873 -80.6043387970513
      vertex -503.140291020243 -1463.10063128082 -80.6043338624593
   endloop
endfacet
facet normal 2.60205755278766e-006 -1.96374787019764e-006 0.999999999994687
   outer loop
      vertex -502.113102847478 -1462.96540006873 -80.6043387970513
      vertex -491.85213293145 -1471.43494097629 -80.6043866231849
      vertex -501.15591567613 -1462.56892088642 -80.6043434262824
   endloop
endfacet
facet normal 2.60205755278766e-006 -1.96374787019764e-006 0.999999999994687
   outer loop
      vertex -501.15591567613 -1462.56892088642 -80.6043434262824
      vertex -491.85213293145 -1471.43494097629 -80.6043866231849
      vertex -500.333960230093 -1461.93821313497 -80.6043460001575
   endloop
endfacet
facet normal 2.60205755278766e-006 -1.96374787019764e-006 0.999999999994687
   outer loop
      vertex -500.333960230093 -1461.93821313497 -80.6043460001575
      vertex -491.85213293145 -1471.43494097629 -80.6043866231849
      vertex -499.703251414659 -1461.11625850534 -80.6043428484694
   endloop
endfacet
facet normal 2.60205755278766e-006 -1.96374787019764e-006 0.999999999994687
   outer loop
      vertex -499.703251414659 -1461.11625850534 -80.6043428484694
      vertex -491.85213293145 -1471.43494097629 -80.6043866231849
      vertex -491.860066016659 -1446.4318994811 -80.6043111603835
   endloop
endfacet
facet normal 2.60205755278766e-006 -1.96374787019764e-006 0.999999999994687
   outer loop
      vertex -499.703251414659 -1461.11625850534 -80.6043428484694
      vertex -491.860066016659 -1446.4318994811 -80.6043111603835
      vertex -499.306770993319 -1460.1590718472 -80.6043391154518
   endloop
endfacet
facet normal 2.60205755278766e-006 -1.96374787019764e-006 0.999999999994687
   outer loop
      vertex -499.306770993319 -1460.1590718472 -80.6043391154518
      vertex -491.860066016659 -1446.4318994811 -80.6043111603835
      vertex -499.171538451574 -1459.13188384947 -80.604335055504
   endloop
endfacet
facet normal 2.60205755278766e-006 -1.96374787019764e-006 0.999999999994687
   outer loop
      vertex -499.171538451574 -1459.13188384947 -80.604335055504
      vertex -491.860066016659 -1446.4318994811 -80.6043111603835
      vertex -499.306769663659 -1458.10469567669 -80.6043309453043
   endloop
endfacet
facet normal 2.60205755278766e-006 -1.96374787019764e-006 0.999999999994687
   outer loop
      vertex -499.306769663659 -1458.10469567669 -80.6043309453043
      vertex -491.860066016659 -1446.4318994811 -80.6043111603835
      vertex -499.703248845953 -1457.14750850533 -80.6043270649562
   endloop
endfacet
facet normal 2.60205755278766e-006 -1.96374787019764e-006 0.999999999994687
   outer loop
      vertex -499.703248845953 -1457.14750850533 -80.6043270649562
      vertex -491.860066016659 -1446.4318994811 -80.6043111603835
      vertex -500.333956597395 -1456.32555305929 -80.604323678899
   endloop
endfacet
facet normal 2.60205755278766e-006 -1.96374787019764e-006 0.999999999994687
   outer loop
      vertex -500.333956597395 -1456.32555305929 -80.604323678899
      vertex -491.860066016659 -1446.4318994811 -80.6043111603835
      vertex -501.155911227017 -1455.69484424387 -80.6043210178874
   endloop
endfacet
facet normal 2.60205755278766e-006 -1.96374787019764e-006 0.999999999994687
   outer loop
      vertex -501.155911227017 -1455.69484424387 -80.6043210178874
      vertex -491.860066016659 -1446.4318994811 -80.6043111603835
      vertex -502.113097885156 -1455.29836382254 -80.604319263264
   endloop
endfacet
facet normal 2.60205755278766e-006 -1.96374787019764e-006 0.999999999994687
   outer loop
      vertex -502.113097885156 -1455.29836382254 -80.604319263264
      vertex -491.860066016659 -1446.4318994811 -80.6043111603835
      vertex -503.140285882884 -1455.16313128081 -80.604318534604
   endloop
endfacet
facet normal 2.60205755278766e-006 -1.96374787019764e-006 0.999999999994687
   outer loop
      vertex -514.428426080819 -1471.43499422308 -80.6042785069241
      vertex -506.577328057148 -1461.1162540563 -80.6043176296122
      vertex -514.428408830446 -1446.43106265612 -80.6042817103346
   endloop
endfacet
facet normal 2.60205755278766e-006 -1.96374787019764e-006 0.999999999994687
   outer loop
      vertex -506.577328057148 -1461.1162540563 -80.6043176296122
      vertex -514.428426080819 -1471.43499422308 -80.6042785069241
      vertex -505.946620305705 -1461.93820950234 -80.6043205560506
   endloop
endfacet
facet normal 2.60205755278766e-006 -1.96374787019764e-006 0.999999999994687
   outer loop
      vertex -505.946620305705 -1461.93820950234 -80.6043205560506
      vertex -514.428426080819 -1471.43499422308 -80.6042785069241
      vertex -505.124665676087 -1462.56891831776 -80.6043244202226
   endloop
endfacet
facet normal 2.60205755278766e-006 -1.96374787019764e-006 0.999999999994687
   outer loop
      vertex -505.124665676087 -1462.56891831776 -80.6043244202226
      vertex -514.428426080819 -1471.43499422308 -80.6042785069241
      vertex -491.85213293145 -1471.43494097629 -80.6043866231849
   endloop
endfacet
facet normal 2.60205755278766e-006 -1.96374787019764e-006 0.999999999994687
   outer loop
      vertex -505.124665676087 -1462.56891831776 -80.6043244202226
      vertex -491.85213293145 -1471.43494097629 -80.6043866231849
      vertex -504.167479017957 -1462.96539873909 -80.6043289587907
   endloop
endfacet
facet normal 2.60205755278766e-006 -1.96374787019764e-006 0.999999999994687
   outer loop
      vertex -504.167479017957 -1462.96539873909 -80.6043289587907
      vertex -491.85213293145 -1471.43494097629 -80.6043866231849
      vertex -503.140291020243 -1463.10063128082 -80.6043338624593
   endloop
endfacet
facet normal 2.60205755278766e-006 -1.96374787019764e-006 0.999999999994687
   outer loop
      vertex -514.428408830446 -1446.43106265612 -80.6042817103346
      vertex -506.577328057148 -1461.1162540563 -80.6043176296122
      vertex -506.973807239449 -1460.15906688494 -80.604315840339
   endloop
endfacet
facet normal 2.60205755278766e-006 -1.96374787019764e-006 0.999999999994687
   outer loop
      vertex -514.428408830446 -1446.43106265612 -80.6042817103346
      vertex -506.973807239449 -1460.15906688494 -80.604315840339
      vertex -507.109038451546 -1459.13187871216 -80.6043153101667
   endloop
endfacet
facet normal 2.60205755278766e-006 -1.96374787019764e-006 0.999999999994687
   outer loop
      vertex -514.428408830446 -1446.43106265612 -80.6042817103346
      vertex -507.109038451546 -1459.13187871216 -80.6043153101667
      vertex -506.973805909816 -1458.10469071444 -80.604316075226
   endloop
endfacet
facet normal 2.60205755278766e-006 -1.96374787019764e-006 0.999999999994687
   outer loop
      vertex -514.428408830446 -1446.43106265612 -80.6042817103346
      vertex -506.973805909816 -1458.10469071444 -80.604316075226
      vertex -506.577325488495 -1457.1475040563 -80.6043180833796
   endloop
endfacet
facet normal 2.60205755278766e-006 -1.96374787019764e-006 0.999999999994687
   outer loop
      vertex -514.428408830446 -1446.43106265612 -80.6042817103346
      vertex -506.577325488495 -1457.1475040563 -80.6043180833796
      vertex -505.946616673081 -1456.32554942667 -80.6043211977746
   endloop
endfacet
facet normal 2.60205755278766e-006 -1.96374787019764e-006 0.999999999994687
   outer loop
      vertex -514.428408830446 -1446.43106265612 -80.6042817103346
      vertex -505.946616673081 -1456.32554942667 -80.6043211977746
      vertex -505.124661227033 -1455.69484167522 -80.6043202805006
   endloop
endfacet
facet normal 2.60205755278766e-006 -1.96374787019764e-006 0.999999999994687
   outer loop
      vertex -514.428408830446 -1446.43106265612 -80.6042817103346
      vertex -505.124661227033 -1455.69484167522 -80.6043202805006
      vertex -504.167474055665 -1455.29836249291 -80.6043188815644
   endloop
endfacet
facet normal 2.60205755278766e-006 -1.96374787019764e-006 0.999999999994687
   outer loop
      vertex -514.428408830446 -1446.43106265612 -80.6042817103346
      vertex -504.167474055665 -1455.29836249291 -80.6043188815644
      vertex -503.140285882884 -1455.16313128081 -80.604318534604
   endloop
endfacet
facet normal 2.60205755278766e-006 -1.96374787019764e-006 0.999999999994687
   outer loop
      vertex -514.428408830446 -1446.43106265612 -80.6042817103346
      vertex -503.140285882884 -1455.16313128081 -80.604318534604
      vertex -491.860066016659 -1446.4318994811 -80.6043111603835
   endloop
endfacet
facet normal 1.91340879096985e-005 0.999999999718164 -1.40555477199005e-005
   outer loop
      vertex -491.860066016659 -1446.4318994811 -80.6043111603835
      vertex -514.428408083679 -1446.43186922311 -109.179357913322
      vertex -514.428408830446 -1446.43106265612 -80.6042817103346
   endloop
endfacet
facet normal 1.91340879096985e-005 0.999999999718164 -1.40555477199005e-005
   outer loop
      vertex -514.428408083679 -1446.43186922311 -109.179357913322
      vertex -491.860066016659 -1446.4318994811 -80.6043111603835
      vertex -491.852134522679 -1446.43189634198 -109.179365925002
   endloop
endfacet
facet normal 3.45216293905578e-007 -4.05294344910339e-008 0.99999999999994
   outer loop
      vertex -488.677169645371 -1523.65243520667 -99.6543739854337
      vertex -494.206839560547 -1517.23481732468 -99.6543718957445
      vertex -514.428443319017 -1523.65241840657 -99.6543651689752
   endloop
endfacet
facet normal 3.45216293905578e-007 -4.05294344910339e-008 0.99999999999994
   outer loop
      vertex -494.206839560547 -1517.23481732468 -99.6543718957445
      vertex -488.677169645371 -1523.65243520667 -99.6543739854337
      vertex -493.728245974868 -1517.03657773353 -99.6543720385205
   endloop
endfacet
facet normal 3.45216293905578e-007 -4.05294344910339e-008 0.99999999999994
   outer loop
      vertex -493.728245974868 -1517.03657773353 -99.6543720385205
      vertex -488.677169645371 -1523.65243520667 -99.6543739854337
      vertex -493.317268251847 -1516.7212238578 -99.6543721440378
   endloop
endfacet
facet normal 3.45216293905578e-007 -4.05294344910339e-008 0.99999999999994
   outer loop
      vertex -493.317268251847 -1516.7212238578 -99.6543721440378
      vertex -488.677169645371 -1523.65243520667 -99.6543739854337
      vertex -493.001913844137 -1516.31024654299 -99.6543722051053
   endloop
endfacet
facet normal 3.45216293905578e-007 -4.05294344910339e-008 0.99999999999994
   outer loop
      vertex -493.001913844137 -1516.31024654299 -99.6543722051053
      vertex -488.677169645371 -1523.65243520667 -99.6543739854337
      vertex -488.677160504812 -1506.98368520668 -99.6543733569164
   endloop
endfacet
facet normal 3.45216293905578e-007 -4.05294344910339e-008 0.99999999999994
   outer loop
      vertex -514.428443319017 -1523.65241840657 -99.6543651689752
      vertex -494.206839560547 -1517.23481732468 -99.6543718957445
      vertex -494.720433646935 -1517.30243293073 -99.6543717254395
   endloop
endfacet
facet normal 3.45216293905578e-007 -4.05294344910339e-008 0.99999999999994
   outer loop
      vertex -493.001913844137 -1516.31024654299 -99.6543722051053
      vertex -488.677160504812 -1506.98368520668 -99.6543733569164
      vertex -492.803673633474 -1515.83165321392 -99.6543722175616
   endloop
endfacet
facet normal 3.45216293905578e-007 -4.05294344910339e-008 0.99999999999994
   outer loop
      vertex -492.803673633474 -1515.83165321392 -99.6543722175616
      vertex -488.677160504812 -1506.98368520668 -99.6543733569164
      vertex -492.736057362608 -1515.31805921506 -99.6543721805577
   endloop
endfacet
facet normal 3.45216293905578e-007 -4.05294344910339e-008 0.99999999999994
   outer loop
      vertex -492.736057362608 -1515.31805921506 -99.6543721805577
      vertex -488.677160504812 -1506.98368520668 -99.6543733569164
      vertex -492.803672968657 -1514.80446512867 -99.6543720966154
   endloop
endfacet
facet normal 3.45216293905578e-007 -4.05294344910339e-008 0.99999999999994
   outer loop
      vertex -492.803672968657 -1514.80446512867 -99.6543720966154
      vertex -488.677160504812 -1506.98368520668 -99.6543733569164
      vertex -493.001912559809 -1514.32587154299 -99.6543719714551
   endloop
endfacet
facet normal 3.45216293905578e-007 -4.05294344910339e-008 0.99999999999994
   outer loop
      vertex -493.001912559809 -1514.32587154299 -99.6543719714551
      vertex -488.677160504812 -1506.98368520668 -99.6543733569164
      vertex -493.317266435534 -1513.91489381997 -99.6543718136063
   endloop
endfacet
facet normal 3.45216293905578e-007 -4.05294344910339e-008 0.99999999999994
   outer loop
      vertex -493.317266435534 -1513.91489381997 -99.6543718136063
      vertex -488.677160504812 -1506.98368520668 -99.6543733569164
      vertex -493.728243750347 -1513.59953941226 -99.6543716338264
   endloop
endfacet
facet normal 3.45216293905578e-007 -4.05294344910339e-008 0.99999999999994
   outer loop
      vertex -493.728243750347 -1513.59953941226 -99.6543716338264
      vertex -488.677160504812 -1506.98368520668 -99.6543733569164
      vertex -494.206837079417 -1513.40129920159 -99.6543714443667
   endloop
endfacet
facet normal 3.45216293905578e-007 -4.05294344910339e-008 0.99999999999994
   outer loop
      vertex -494.206837079417 -1513.40129920159 -99.6543714443667
      vertex -488.677160504812 -1506.98368520668 -99.6543733569164
      vertex -494.72043107828 -1513.33368293073 -99.6543712581389
   endloop
endfacet
facet normal 3.45216293905578e-007 -4.05294344910339e-008 0.99999999999994
   outer loop
      vertex -514.428443319017 -1523.65241840657 -99.6543651689752
      vertex -496.637191756557 -1515.83165073279 -99.654370886963
      vertex -514.428412577815 -1471.43496440812 -99.6543629631002
   endloop
endfacet
facet normal 3.45216293905578e-007 -4.05294344910339e-008 0.99999999999994
   outer loop
      vertex -496.637191756557 -1515.83165073279 -99.654370886963
      vertex -514.428443319017 -1523.65241840657 -99.6543651689752
      vertex -496.438952165405 -1516.31024431847 -99.6543710121234
   endloop
endfacet
facet normal 3.45216293905578e-007 -4.05294344910339e-008 0.99999999999994
   outer loop
      vertex -496.438952165405 -1516.31024431847 -99.6543710121234
      vertex -514.428443319017 -1523.65241840657 -99.6543651689752
      vertex -496.12359828968 -1516.72122204149 -99.6543711699721
   endloop
endfacet
facet normal 3.45216293905578e-007 -4.05294344910339e-008 0.99999999999994
   outer loop
      vertex -496.12359828968 -1516.72122204149 -99.6543711699721
      vertex -514.428443319017 -1523.65241840657 -99.6543651689752
      vertex -495.712620974867 -1517.0365764492 -99.654371349752
   endloop
endfacet
facet normal 3.45216293905578e-007 -4.05294344910339e-008 0.99999999999994
   outer loop
      vertex -495.712620974867 -1517.0365764492 -99.654371349752
      vertex -514.428443319017 -1523.65241840657 -99.6543651689752
      vertex -495.234027645797 -1517.23481665986 -99.6543715392117
   endloop
endfacet
facet normal 3.45216293905578e-007 -4.05294344910339e-008 0.99999999999994
   outer loop
      vertex -495.234027645797 -1517.23481665986 -99.6543715392117
      vertex -514.428443319017 -1523.65241840657 -99.6543651689752
      vertex -494.720433646935 -1517.30243293073 -99.6543717254395
   endloop
endfacet
facet normal 3.45216293905578e-007 -4.05294344910339e-008 0.99999999999994
   outer loop
      vertex -514.428412577815 -1471.43496440812 -99.6543629631002
      vertex -496.637191756557 -1515.83165073279 -99.654370886963
      vertex -496.704807362607 -1515.3180566464 -99.6543708030207
   endloop
endfacet
facet normal 3.45216293905578e-007 -4.05294344910339e-008 0.99999999999994
   outer loop
      vertex -514.428412577815 -1471.43496440812 -99.6543629631002
      vertex -496.704807362607 -1515.3180566464 -99.6543708030207
      vertex -496.637191091741 -1514.80446264754 -99.6543707660169
   endloop
endfacet
facet normal 3.45216293905578e-007 -4.05294344910339e-008 0.99999999999994
   outer loop
      vertex -514.428412577815 -1471.43496440812 -99.6543629631002
      vertex -496.637191091741 -1514.80446264754 -99.6543707660169
      vertex -496.438950881078 -1514.32586931847 -99.6543707784731
   endloop
endfacet
facet normal 3.45216293905578e-007 -4.05294344910339e-008 0.99999999999994
   outer loop
      vertex -514.428412577815 -1471.43496440812 -99.6543629631002
      vertex -496.438950881078 -1514.32586931847 -99.6543707784731
      vertex -496.123596473367 -1513.91489200366 -99.6543708395406
   endloop
endfacet
facet normal 3.45216293905578e-007 -4.05294344910339e-008 0.99999999999994
   outer loop
      vertex -514.428412577815 -1471.43496440812 -99.6543629631002
      vertex -496.123596473367 -1513.91489200366 -99.6543708395406
      vertex -495.712618750347 -1513.59953812793 -99.6543709450579
   endloop
endfacet
facet normal 3.45216293905578e-007 -4.05294344910339e-008 0.99999999999994
   outer loop
      vertex -514.428412577815 -1471.43496440812 -99.6543629631002
      vertex -495.712618750347 -1513.59953812793 -99.6543709450579
      vertex -495.234025164667 -1513.40129853678 -99.6543710878339
   endloop
endfacet
facet normal 3.45216293905578e-007 -4.05294344910339e-008 0.99999999999994
   outer loop
      vertex -514.428412577815 -1471.43496440812 -99.6543629631002
      vertex -495.234025164667 -1513.40129853678 -99.6543710878339
      vertex -494.72043107828 -1513.33368293073 -99.6543712581389
   endloop
endfacet
facet normal 3.45216293905578e-007 -4.05294344910339e-008 0.99999999999994
   outer loop
      vertex -514.428412577815 -1471.43496440812 -99.6543629631002
      vertex -494.72043107828 -1513.33368293073 -99.6543712581389
      vertex -491.852158503951 -1503.80868366561 -99.654372071474
   endloop
endfacet
facet normal 3.45216293905578e-007 -4.05294344910339e-008 0.99999999999994
   outer loop
      vertex -491.852158503951 -1503.80868366561 -99.654372071474
      vertex -494.72043107828 -1513.33368293073 -99.6543712581389
      vertex -488.677160504812 -1506.98368520668 -99.6543733569164
   endloop
endfacet
facet normal 3.45216293905578e-007 -4.05294344910339e-008 0.99999999999994
   outer loop
      vertex -514.428412577815 -1471.43496440812 -99.6543629631002
      vertex -491.852158503951 -1503.80868366561 -99.654372071474
      vertex -491.852139016755 -1471.43494206747 -99.6543708586633
   endloop
endfacet
facet normal 0.866025174234997 -0.500000397585604 -2.34121082069498e-006
   outer loop
      vertex -506.577416795252 -1457.14752840378 -109.179361102823
      vertex -505.946616673081 -1456.32554942667 -80.6043211977746
      vertex -506.577325488495 -1457.1475040563 -80.6043180833796
   endloop
endfacet
facet normal 0.866025174234997 -0.500000397585604 -2.34121082069498e-006
   outer loop
      vertex -505.946616673081 -1456.32554942667 -80.6043211977746
      vertex -506.577416795252 -1457.14752840378 -109.179361102823
      vertex -505.946707979828 -1456.32557377415 -109.179361224958
   endloop
endfacet
facet normal 0.965925694772635 -0.258819535912167 -2.86592531105589e-006
   outer loop
      vertex -506.97389721658 -1458.10471506192 -109.179361077911
      vertex -506.577325488495 -1457.1475040563 -80.6043180833796
      vertex -506.973805909816 -1458.10469071444 -80.604316075226
   endloop
endfacet
facet normal 0.965925694772635 -0.258819535912167 -2.86592531105589e-006
   outer loop
      vertex -506.577325488495 -1457.1475040563 -80.6043180833796
      vertex -506.97389721658 -1458.10471506192 -109.179361077911
      vertex -506.577416795252 -1457.14752840378 -109.179361102823
   endloop
endfacet
facet normal 0.999999999994734 -5.66633940918323e-007 -3.19533179145971e-006
   outer loop
      vertex -507.109129758313 -1459.13190305965 -109.179361151919
      vertex -506.973805909816 -1458.10469071444 -80.604316075226
      vertex -507.109038451546 -1459.13187871216 -80.6043153101667
   endloop
endfacet
facet normal 0.999999999994734 -5.66633940918323e-007 -3.19533179145971e-006
   outer loop
      vertex -506.973805909816 -1458.10469071444 -80.604316075226
      vertex -507.109129758313 -1459.13190305965 -109.179361151919
      vertex -506.97389721658 -1458.10471506192 -109.179361077911
   endloop
endfacet
facet normal -4.10541695407732e-007 -0.999999999999553 8.5205537202934e-007
   outer loop
      vertex -503.140377189643 -1455.16315562829 -109.179362062155
      vertex -504.167474055665 -1455.29836249291 -80.6043188815644
      vertex -504.167565362422 -1455.2983868404 -109.179361721545
   endloop
endfacet
facet normal -4.10541695407732e-007 -0.999999999999553 8.5205537202934e-007
   outer loop
      vertex -504.167474055665 -1455.29836249291 -80.6043188815644
      vertex -503.140377189643 -1455.16315562829 -109.179362062155
      vertex -503.140285882884 -1455.16313128081 -80.604318534604
   endloop
endfacet
facet normal 0.258818660905174 -0.965925929234355 -3.9905106555291e-009
   outer loop
      vertex -504.167565362422 -1455.2983868404 -109.179361721545
      vertex -505.124661227033 -1455.69484167522 -80.6043202805006
      vertex -505.124752533784 -1455.6948660227 -109.179361435993
   endloop
endfacet
facet normal 0.258818660905174 -0.965925929234355 -3.9905106555291e-009
   outer loop
      vertex -505.124661227033 -1455.69484167522 -80.6043202805006
      vertex -504.167565362422 -1455.2983868404 -109.179361721545
      vertex -504.167474055665 -1455.29836249291 -80.6043188815644
   endloop
endfacet
facet normal 0.499999651892339 -0.866025604763971 -8.59764392064329e-007
   outer loop
      vertex -505.124752533784 -1455.6948660227 -109.179361435993
      vertex -505.946616673081 -1456.32554942667 -80.6043211977746
      vertex -505.946707979828 -1456.32557377415 -109.179361224958
   endloop
endfacet
facet normal 0.499999651892339 -0.866025604763971 -8.59764392064329e-007
   outer loop
      vertex -505.946616673081 -1456.32554942667 -80.6043211977746
      vertex -505.124752533784 -1455.6948660227 -109.179361435993
      vertex -505.124661227033 -1455.69484167522 -80.6043202805006
   endloop
endfacet
facet normal 0.965926017991907 0.258818329635598 -3.30698178735178e-006
   outer loop
      vertex -506.973807239449 -1460.15906688494 -80.604315840339
      vertex -507.109129758313 -1459.13190305965 -109.179361151919
      vertex -507.109038451546 -1459.13187871216 -80.6043153101667
   endloop
endfacet
facet normal 0.965926017991907 0.258818329635598 -3.30698178735178e-006
   outer loop
      vertex -507.109129758313 -1459.13190305965 -109.179361151919
      vertex -506.973807239449 -1460.15906688494 -80.604315840339
      vertex -506.973898546214 -1460.15909123242 -109.179361319803
   endloop
endfacet
facet normal 0.866025787037917 0.499999336174719 -3.19326661008385e-006
   outer loop
      vertex -506.577328057148 -1461.1162540563 -80.6043176296122
      vertex -506.973898546214 -1460.15909123242 -109.179361319803
      vertex -506.973807239449 -1460.15906688494 -80.604315840339
   endloop
endfacet
facet normal 0.866025787037917 0.499999336174719 -3.19326661008385e-006
   outer loop
      vertex -506.973898546214 -1460.15909123242 -109.179361319803
      vertex -506.577328057148 -1461.1162540563 -80.6043176296122
      vertex -506.577419363908 -1461.11627840378 -109.179361570124
   endloop
endfacet
facet normal 0.707107335695626 0.707106226671242 -2.86193562155343e-006
   outer loop
      vertex -505.946620305705 -1461.93820950234 -80.6043205560506
      vertex -506.577419363908 -1461.11627840378 -109.179361570124
      vertex -506.577328057148 -1461.1162540563 -80.6043176296122
   endloop
endfacet
facet normal 0.707107335695626 0.707106226671242 -2.86193562155343e-006
   outer loop
      vertex -506.577419363908 -1461.11627840378 -109.179361570124
      vertex -505.946620305705 -1461.93820950234 -80.6043205560506
      vertex -505.946711612457 -1461.93823384982 -109.179361885821
   endloop
endfacet
facet normal 0.707107335695626 0.707106226671242 -2.86193562155343e-006
   outer loop
      vertex -505.946620305705 -1461.93820950234 -80.6043205560506
      vertex -505.124756982827 -1462.56894266524 -109.179362245381
      vertex -505.946711612457 -1461.93823384982 -109.179361885821
   endloop
endfacet
facet normal 0.707107335695626 0.707106226671242 -2.86193562155343e-006
   outer loop
      vertex -505.124756982827 -1462.56894266524 -109.179362245381
      vertex -505.946620305705 -1461.93820950234 -80.6043205560506
      vertex -505.124665676087 -1462.56891831776 -80.6043244202226
   endloop
endfacet
facet normal 0.500000686363889 0.866025007508551 -2.33556845483686e-006
   outer loop
      vertex -505.124665676087 -1462.56891831776 -80.6043244202226
      vertex -504.167570324685 -1462.96542308656 -109.179362624301
      vertex -505.124756982827 -1462.56894266524 -109.179362245381
   endloop
endfacet
facet normal 0.500000686363889 0.866025007508551 -2.33556845483686e-006
   outer loop
      vertex -504.167570324685 -1462.96542308656 -109.179362624301
      vertex -505.124665676087 -1462.56891831776 -80.6043244202226
      vertex -504.167479017957 -1462.96539873909 -80.6043289587907
   endloop
endfacet
facet normal 0.258819809140771 0.965925621563903 -1.6500361370065e-006
   outer loop
      vertex -504.167479017957 -1462.96539873909 -80.6043289587907
      vertex -503.140382326955 -1463.10065562829 -109.179362996756
      vertex -504.167570324685 -1462.96542308656 -109.179362624301
   endloop
endfacet
facet normal 0.258819809140771 0.965925621563903 -1.6500361370065e-006
   outer loop
      vertex -503.140382326955 -1463.10065562829 -109.179362996756
      vertex -504.167479017957 -1462.96539873909 -80.6043289587907
      vertex -503.140291020243 -1463.10063128082 -80.6043338624593
   endloop
endfacet
facet normal 7.79638204870281e-007 0.999999999999333 -8.52056550634508e-007
   outer loop
      vertex -503.140291020243 -1463.10063128082 -80.6043338624593
      vertex -502.113194154176 -1462.96542441619 -109.179363337366
      vertex -503.140382326955 -1463.10065562829 -109.179362996756
   endloop
endfacet
facet normal 7.79638204870281e-007 0.999999999999333 -8.52056550634508e-007
   outer loop
      vertex -502.113194154176 -1462.96542441619 -109.179363337366
      vertex -503.140291020243 -1463.10063128082 -80.6043338624593
      vertex -502.113102847478 -1462.96540006873 -80.6043387970513
   endloop
endfacet
facet normal -0.25881946959027 -0.965925712546409 1.65003512995123e-006
   outer loop
      vertex -502.113189191913 -1455.29838817002 -109.17936243461
      vertex -503.140285882884 -1455.16313128081 -80.604318534604
      vertex -503.140377189643 -1455.16315562829 -109.179362062155
   endloop
endfacet
facet normal -0.25881946959027 -0.965925712546409 1.65003512995123e-006
   outer loop
      vertex -503.140285882884 -1455.16313128081 -80.604318534604
      vertex -502.113189191913 -1455.29838817002 -109.17936243461
      vertex -502.113097885156 -1455.29836382254 -80.604319263264
   endloop
endfacet
facet normal -3.55152392631799e-007 9.26348820849553e-008 -0.999999999999933
   outer loop
      vertex -488.677173255184 -1523.65243520667 -109.179373938813
      vertex -493.001917150224 -1516.31024542146 -109.179372536252
      vertex -488.677164063381 -1506.98368520667 -109.179372898554
   endloop
endfacet
facet normal -3.55152392631799e-007 9.26348820849553e-008 -0.999999999999933
   outer loop
      vertex -493.001917150224 -1516.31024542146 -109.179372536252
      vertex -488.677173255184 -1523.65243520667 -109.179373938813
      vertex -493.317271557935 -1516.72122273628 -109.179372475185
   endloop
endfacet
facet normal -3.55152392631799e-007 9.26348820849553e-008 -0.999999999999933
   outer loop
      vertex -493.317271557935 -1516.72122273628 -109.179372475185
      vertex -488.677173255184 -1523.65243520667 -109.179373938813
      vertex -493.728249280955 -1517.036576612 -109.179372369667
   endloop
endfacet
facet normal -3.55152392631799e-007 9.26348820849553e-008 -0.999999999999933
   outer loop
      vertex -493.728249280955 -1517.036576612 -109.179372369667
      vertex -488.677173255184 -1523.65243520667 -109.179373938813
      vertex -494.206842866635 -1517.23481620316 -109.179372226891
   endloop
endfacet
facet normal -3.55152392631799e-007 9.26348820849553e-008 -0.999999999999933
   outer loop
      vertex -494.206842866635 -1517.23481620316 -109.179372226891
      vertex -488.677173255184 -1523.65243520667 -109.179373938813
      vertex -494.720436953023 -1517.3024318092 -109.179372056586
   endloop
endfacet
facet normal -3.55152392631799e-007 9.26348820849553e-008 -0.999999999999933
   outer loop
      vertex -488.677164063381 -1506.98368520667 -109.179372898554
      vertex -493.001917150224 -1516.31024542146 -109.179372536252
      vertex -492.803676939562 -1515.8316520924 -109.179372548708
   endloop
endfacet
facet normal -3.55152392631799e-007 9.26348820849553e-008 -0.999999999999933
   outer loop
      vertex -488.677164063381 -1506.98368520667 -109.179372898554
      vertex -492.803676939562 -1515.8316520924 -109.179372548708
      vertex -492.736060668695 -1515.31805809353 -109.179372511705
   endloop
endfacet
facet normal -3.55152392631799e-007 9.26348820849553e-008 -0.999999999999933
   outer loop
      vertex -488.677164063381 -1506.98368520667 -109.179372898554
      vertex -492.736060668695 -1515.31805809353 -109.179372511705
      vertex -492.803676274745 -1514.80446400714 -109.179372427762
   endloop
endfacet
facet normal -3.55152392631799e-007 9.26348820849553e-008 -0.999999999999933
   outer loop
      vertex -488.677164063381 -1506.98368520667 -109.179372898554
      vertex -492.803676274745 -1514.80446400714 -109.179372427762
      vertex -493.001915865897 -1514.32587042147 -109.179372302602
   endloop
endfacet
facet normal -3.55152392631799e-007 9.26348820849553e-008 -0.999999999999933
   outer loop
      vertex -488.677164063381 -1506.98368520667 -109.179372898554
      vertex -493.001915865897 -1514.32587042147 -109.179372302602
      vertex -493.317269741622 -1513.91489269844 -109.179372144753
   endloop
endfacet
facet normal -3.55152392631799e-007 9.26348820849553e-008 -0.999999999999933
   outer loop
      vertex -488.677164063381 -1506.98368520667 -109.179372898554
      vertex -493.317269741622 -1513.91489269844 -109.179372144753
      vertex -493.728247056435 -1513.59953829073 -109.179371964973
   endloop
endfacet
facet normal -3.55152392631799e-007 9.26348820849553e-008 -0.999999999999933
   outer loop
      vertex -488.677164063381 -1506.98368520667 -109.179372898554
      vertex -493.728247056435 -1513.59953829073 -109.179371964973
      vertex -494.206840385505 -1513.40129808007 -109.179371775514
   endloop
endfacet
facet normal -3.55152392631799e-007 9.26348820849553e-008 -0.999999999999933
   outer loop
      vertex -488.677164063381 -1506.98368520667 -109.179372898554
      vertex -494.206840385505 -1513.40129808007 -109.179371775514
      vertex -494.720434384367 -1513.33368180921 -109.179371589286
   endloop
endfacet
facet normal -3.55152392631799e-007 9.26348820849553e-008 -0.999999999999933
   outer loop
      vertex -514.428446583932 -1523.65241853993 -109.179365132743
      vertex -496.123601595768 -1516.72122091996 -109.179371501119
      vertex -488.677173255184 -1523.65243520667 -109.179373938813
   endloop
endfacet
facet normal -3.55152392631799e-007 9.26348820849553e-008 -0.999999999999933
   outer loop
      vertex -496.123601595768 -1516.72122091996 -109.179371501119
      vertex -514.428446583932 -1523.65241853993 -109.179365132743
      vertex -496.438955471493 -1516.31024319694 -109.17937134327
   endloop
endfacet
facet normal -3.55152392631799e-007 9.26348820849553e-008 -0.999999999999933
   outer loop
      vertex -496.438955471493 -1516.31024319694 -109.17937134327
      vertex -514.428446583932 -1523.65241853993 -109.179365132743
      vertex -496.637195062645 -1515.83164961126 -109.17937121811
   endloop
endfacet
facet normal -3.55152392631799e-007 9.26348820849553e-008 -0.999999999999933
   outer loop
      vertex -496.637195062645 -1515.83164961126 -109.17937121811
      vertex -514.428446583932 -1523.65241853993 -109.179365132743
      vertex -514.428408083679 -1446.43186922311 -109.179357913322
   endloop
endfacet
facet normal -3.55152392631799e-007 9.26348820849553e-008 -0.999999999999933
   outer loop
      vertex -488.677173255184 -1523.65243520667 -109.179373938813
      vertex -496.123601595768 -1516.72122091996 -109.179371501119
      vertex -495.712624280955 -1517.03657532768 -109.179371680899
   endloop
endfacet
facet normal -3.55152392631799e-007 9.26348820849553e-008 -0.999999999999933
   outer loop
      vertex -488.677173255184 -1523.65243520667 -109.179373938813
      vertex -495.712624280955 -1517.03657532768 -109.179371680899
      vertex -495.234030951885 -1517.23481553834 -109.179371870359
   endloop
endfacet
facet normal -3.55152392631799e-007 9.26348820849553e-008 -0.999999999999933
   outer loop
      vertex -488.677173255184 -1523.65243520667 -109.179373938813
      vertex -495.234030951885 -1517.23481553834 -109.179371870359
      vertex -494.720436953023 -1517.3024318092 -109.179372056586
   endloop
endfacet
facet normal -3.55152392631799e-007 9.26348820849553e-008 -0.999999999999933
   outer loop
      vertex -496.637195062645 -1515.83164961126 -109.17937121811
      vertex -514.428408083679 -1446.43186922311 -109.179357913322
      vertex -496.704810668694 -1515.31805552488 -109.179371134168
   endloop
endfacet
facet normal -3.55152392631799e-007 9.26348820849553e-008 -0.999999999999933
   outer loop
      vertex -496.704810668694 -1515.31805552488 -109.179371134168
      vertex -514.428408083679 -1446.43186922311 -109.179357913322
      vertex -496.637194397828 -1514.80446152601 -109.179371097164
   endloop
endfacet
facet normal -3.55152392631799e-007 9.26348820849553e-008 -0.999999999999933
   outer loop
      vertex -496.637194397828 -1514.80446152601 -109.179371097164
      vertex -514.428408083679 -1446.43186922311 -109.179357913322
      vertex -496.438954187165 -1514.32586819694 -109.17937110962
   endloop
endfacet
facet normal -3.55152392631799e-007 9.26348820849553e-008 -0.999999999999933
   outer loop
      vertex -496.438954187165 -1514.32586819694 -109.17937110962
      vertex -514.428408083679 -1446.43186922311 -109.179357913322
      vertex -496.123599779455 -1513.91489088213 -109.179371170687
   endloop
endfacet
facet normal -3.55152392631799e-007 9.26348820849553e-008 -0.999999999999933
   outer loop
      vertex -496.123599779455 -1513.91489088213 -109.179371170687
      vertex -514.428408083679 -1446.43186922311 -109.179357913322
      vertex -495.712622056434 -1513.59953700641 -109.179371276205
   endloop
endfacet
facet normal -3.55152392631799e-007 9.26348820849553e-008 -0.999999999999933
   outer loop
      vertex -495.712622056434 -1513.59953700641 -109.179371276205
      vertex -514.428408083679 -1446.43186922311 -109.179357913322
      vertex -495.234028470755 -1513.40129741525 -109.179371418981
   endloop
endfacet
facet normal -3.55152392631799e-007 9.26348820849553e-008 -0.999999999999933
   outer loop
      vertex -495.234028470755 -1513.40129741525 -109.179371418981
      vertex -514.428408083679 -1446.43186922311 -109.179357913322
      vertex -494.720434384367 -1513.33368180921 -109.179371589286
   endloop
endfacet
facet normal -3.55152392631799e-007 9.26348820849553e-008 -0.999999999999933
   outer loop
      vertex -494.720434384367 -1513.33368180921 -109.179371589286
      vertex -514.428408083679 -1446.43186922311 -109.179357913322
      vertex -491.852162088141 -1503.80868339347 -109.179371481623
   endloop
endfacet
facet normal -3.55152392631799e-007 9.26348820849553e-008 -0.999999999999933
   outer loop
      vertex -494.720434384367 -1513.33368180921 -109.179371589286
      vertex -491.852162088141 -1503.80868339347 -109.179371481623
      vertex -488.677164063381 -1506.98368520667 -109.179372898554
   endloop
endfacet
facet normal -3.55152392631799e-007 9.26348820849553e-008 -0.999999999999933
   outer loop
      vertex -491.852162088141 -1503.80868339347 -109.179371481623
      vertex -514.428408083679 -1446.43186922311 -109.179357913322
      vertex -506.577419363908 -1461.11627840378 -109.179361570124
   endloop
endfacet
facet normal -3.55152392631799e-007 9.26348820849553e-008 -0.999999999999933
   outer loop
      vertex -491.852162088141 -1503.80868339347 -109.179371481623
      vertex -506.577419363908 -1461.11627840378 -109.179361570124
      vertex -505.946711612457 -1461.93823384982 -109.179361885821
   endloop
endfacet
facet normal -3.55152392631799e-007 9.26348820849553e-008 -0.999999999999933
   outer loop
      vertex -491.852162088141 -1503.80868339347 -109.179371481623
      vertex -505.946711612457 -1461.93823384982 -109.179361885821
      vertex -505.124756982827 -1462.56894266524 -109.179362245381
   endloop
endfacet
facet normal -3.55152392631799e-007 9.26348820849553e-008 -0.999999999999933
   outer loop
      vertex -491.852162088141 -1503.80868339347 -109.179371481623
      vertex -505.124756982827 -1462.56894266524 -109.179362245381
      vertex -504.167570324685 -1462.96542308656 -109.179362624301
   endloop
endfacet
facet normal -3.55152392631799e-007 9.26348820849553e-008 -0.999999999999933
   outer loop
      vertex -491.852162088141 -1503.80868339347 -109.179371481623
      vertex -504.167570324685 -1462.96542308656 -109.179362624301
      vertex -503.140382326955 -1463.10065562829 -109.179362996756
   endloop
endfacet
facet normal -3.55152392631799e-007 9.26348820849553e-008 -0.999999999999933
   outer loop
      vertex -506.577419363908 -1461.11627840378 -109.179361570124
      vertex -514.428408083679 -1446.43186922311 -109.179357913322
      vertex -506.973898546214 -1460.15909123242 -109.179361319803
   endloop
endfacet
facet normal -3.55152392631799e-007 9.26348820849553e-008 -0.999999999999933
   outer loop
      vertex -506.973898546214 -1460.15909123242 -109.179361319803
      vertex -514.428408083679 -1446.43186922311 -109.179357913322
      vertex -507.109129758313 -1459.13190305965 -109.179361151919
   endloop
endfacet
facet normal -3.55152392631799e-007 9.26348820849553e-008 -0.999999999999933
   outer loop
      vertex -507.109129758313 -1459.13190305965 -109.179361151919
      vertex -514.428408083679 -1446.43186922311 -109.179357913322
      vertex -506.97389721658 -1458.10471506192 -109.179361077911
   endloop
endfacet
facet normal -3.55152392631799e-007 9.26348820849553e-008 -0.999999999999933
   outer loop
      vertex -506.97389721658 -1458.10471506192 -109.179361077911
      vertex -514.428408083679 -1446.43186922311 -109.179357913322
      vertex -506.577416795252 -1457.14752840378 -109.179361102823
   endloop
endfacet
facet normal -3.55152392631799e-007 9.26348820849553e-008 -0.999999999999933
   outer loop
      vertex -506.577416795252 -1457.14752840378 -109.179361102823
      vertex -514.428408083679 -1446.43186922311 -109.179357913322
      vertex -505.946707979828 -1456.32557377415 -109.179361224958
   endloop
endfacet
facet normal -3.55152392631799e-007 9.26348820849553e-008 -0.999999999999933
   outer loop
      vertex -505.946707979828 -1456.32557377415 -109.179361224958
      vertex -514.428408083679 -1446.43186922311 -109.179357913322
      vertex -505.124752533784 -1455.6948660227 -109.179361435993
   endloop
endfacet
facet normal -3.55152392631799e-007 9.26348820849553e-008 -0.999999999999933
   outer loop
      vertex -505.124752533784 -1455.6948660227 -109.179361435993
      vertex -514.428408083679 -1446.43186922311 -109.179357913322
      vertex -504.167565362422 -1455.2983868404 -109.179361721545
   endloop
endfacet
facet normal -3.55152392631799e-007 9.26348820849553e-008 -0.999999999999933
   outer loop
      vertex -504.167565362422 -1455.2983868404 -109.179361721545
      vertex -514.428408083679 -1446.43186922311 -109.179357913322
      vertex -503.140377189643 -1455.16315562829 -109.179362062155
   endloop
endfacet
facet normal -3.55152392631799e-007 9.26348820849553e-008 -0.999999999999933
   outer loop
      vertex -503.140377189643 -1455.16315562829 -109.179362062155
      vertex -514.428408083679 -1446.43186922311 -109.179357913322
      vertex -491.852134522679 -1446.43189634198 -109.179365925002
   endloop
endfacet
facet normal -3.55152392631799e-007 9.26348820849553e-008 -0.999999999999933
   outer loop
      vertex -491.852162088141 -1503.80868339347 -109.179371481623
      vertex -499.703342721346 -1461.11628285281 -109.179363956088
      vertex -491.852134522679 -1446.43189634198 -109.179365925002
   endloop
endfacet
facet normal -3.55152392631799e-007 9.26348820849553e-008 -0.999999999999933
   outer loop
      vertex -499.703342721346 -1461.11628285281 -109.179363956088
      vertex -491.852162088141 -1503.80868339347 -109.179371481623
      vertex -500.33405153677 -1461.93823748243 -109.179363833953
   endloop
endfacet
facet normal -3.55152392631799e-007 9.26348820849553e-008 -0.999999999999933
   outer loop
      vertex -500.33405153677 -1461.93823748243 -109.179363833953
      vertex -491.852162088141 -1503.80868339347 -109.179371481623
      vertex -501.156006982814 -1462.56894523389 -109.179363622918
   endloop
endfacet
facet normal -3.55152392631799e-007 9.26348820849553e-008 -0.999999999999933
   outer loop
      vertex -501.156006982814 -1462.56894523389 -109.179363622918
      vertex -491.852162088141 -1503.80868339347 -109.179371481623
      vertex -502.113194154176 -1462.96542441619 -109.179363337366
   endloop
endfacet
facet normal -3.55152392631799e-007 9.26348820849553e-008 -0.999999999999933
   outer loop
      vertex -502.113194154176 -1462.96542441619 -109.179363337366
      vertex -491.852162088141 -1503.80868339347 -109.179371481623
      vertex -503.140382326955 -1463.10065562829 -109.179362996756
   endloop
endfacet
facet normal -3.55152392631799e-007 9.26348820849553e-008 -0.999999999999933
   outer loop
      vertex -491.852134522679 -1446.43189634198 -109.179365925002
      vertex -499.703342721346 -1461.11628285281 -109.179363956088
      vertex -499.306862300018 -1460.15909619467 -109.179363981001
   endloop
endfacet
facet normal -3.55152392631799e-007 9.26348820849553e-008 -0.999999999999933
   outer loop
      vertex -491.852134522679 -1446.43189634198 -109.179365925002
      vertex -499.306862300018 -1460.15909619467 -109.179363981001
      vertex -499.171629758285 -1459.13190819694 -109.179363906993
   endloop
endfacet
facet normal -3.55152392631799e-007 9.26348820849553e-008 -0.999999999999933
   outer loop
      vertex -491.852134522679 -1446.43189634198 -109.179365925002
      vertex -499.171629758285 -1459.13190819694 -109.179363906993
      vertex -499.306860970384 -1458.10472002416 -109.179363739108
   endloop
endfacet
facet normal -3.55152392631799e-007 9.26348820849553e-008 -0.999999999999933
   outer loop
      vertex -491.852134522679 -1446.43189634198 -109.179365925002
      vertex -499.306860970384 -1458.10472002416 -109.179363739108
      vertex -499.703340152689 -1457.14753285281 -109.179363488787
   endloop
endfacet
facet normal -3.55152392631799e-007 9.26348820849553e-008 -0.999999999999933
   outer loop
      vertex -491.852134522679 -1446.43189634198 -109.179365925002
      vertex -499.703340152689 -1457.14753285281 -109.179363488787
      vertex -500.334047904141 -1456.32557740677 -109.17936317309
   endloop
endfacet
facet normal -3.55152392631799e-007 9.26348820849553e-008 -0.999999999999933
   outer loop
      vertex -491.852134522679 -1446.43189634198 -109.179365925002
      vertex -500.334047904141 -1456.32557740677 -109.17936317309
      vertex -501.15600253377 -1455.69486859135 -109.17936281353
   endloop
endfacet
facet normal -3.55152392631799e-007 9.26348820849553e-008 -0.999999999999933
   outer loop
      vertex -491.852134522679 -1446.43189634198 -109.179365925002
      vertex -501.15600253377 -1455.69486859135 -109.17936281353
      vertex -502.113189191913 -1455.29838817002 -109.17936243461
   endloop
endfacet
facet normal -3.55152392631799e-007 9.26348820849553e-008 -0.999999999999933
   outer loop
      vertex -491.852134522679 -1446.43189634198 -109.179365925002
      vertex -502.113189191913 -1455.29838817002 -109.17936243461
      vertex -503.140377189643 -1455.16315562829 -109.179362062155
   endloop
endfacet
facet normal -0.500000417892147 -0.866025162511011 2.33556772854667e-006
   outer loop
      vertex -501.15600253377 -1455.69486859135 -109.17936281353
      vertex -502.113097885156 -1455.29836382254 -80.604319263264
      vertex -502.113189191913 -1455.29838817002 -109.17936243461
   endloop
endfacet
facet normal -0.500000417892147 -0.866025162511011 2.33556772854667e-006
   outer loop
      vertex -502.113097885156 -1455.29836382254 -80.604319263264
      vertex -501.15600253377 -1455.69486859135 -109.17936281353
      vertex -501.155911227017 -1455.69484424387 -80.6043210178874
   endloop
endfacet
facet normal -0.707107160789895 -0.707106401577205 2.86193521126661e-006
   outer loop
      vertex -500.334047904141 -1456.32557740677 -109.17936317309
      vertex -501.155911227017 -1455.69484424387 -80.6043210178874
      vertex -501.15600253377 -1455.69486859135 -109.17936281353
   endloop
endfacet
facet normal -0.707107160789895 -0.707106401577205 2.86193521126661e-006
   outer loop
      vertex -501.155911227017 -1455.69484424387 -80.6043210178874
      vertex -500.334047904141 -1456.32557740677 -109.17936317309
      vertex -500.333956597395 -1456.32555305929 -80.604323678899
   endloop
endfacet
facet normal -0.258818311712166 0.965926022800123 3.98931584241372e-009
   outer loop
      vertex -502.113102847478 -1462.96540006873 -80.6043387970513
      vertex -501.156006982814 -1462.56894523389 -109.179363622918
      vertex -502.113194154176 -1462.96542441619 -109.179363337366
   endloop
endfacet
facet normal -0.258818311712166 0.965926022800123 3.98931584241372e-009
   outer loop
      vertex -501.156006982814 -1462.56894523389 -109.179363622918
      vertex -502.113102847478 -1462.96540006873 -80.6043387970513
      vertex -501.15591567613 -1462.56892088642 -80.6043434262824
   endloop
endfacet
facet normal -0.99999999999463 7.2780628793961e-007 3.19533165112814e-006
   outer loop
      vertex -499.171629758285 -1459.13190819694 -109.179363906993
      vertex -499.306770993319 -1460.1590718472 -80.6043391154518
      vertex -499.171538451574 -1459.13188384947 -80.604335055504
   endloop
endfacet
facet normal -0.99999999999463 7.2780628793961e-007 3.19533165112814e-006
   outer loop
      vertex -499.306770993319 -1460.1590718472 -80.6043391154518
      vertex -499.171629758285 -1459.13190819694 -109.179363906993
      vertex -499.306862300018 -1460.15909619467 -109.179363981001
   endloop
endfacet
facet normal -0.499999416969196 0.866025740396742 8.59763526484726e-007
   outer loop
      vertex -501.15591567613 -1462.56892088642 -80.6043434262824
      vertex -500.33405153677 -1461.93823748243 -109.179363833953
      vertex -501.156006982814 -1462.56894523389 -109.179363622918
   endloop
endfacet
facet normal -0.499999416969196 0.866025740396742 8.59763526484726e-007
   outer loop
      vertex -500.33405153677 -1461.93823748243 -109.179363833953
      vertex -501.15591567613 -1462.56892088642 -80.6043434262824
      vertex -500.333960230093 -1461.93821313497 -80.6043460001575
   endloop
endfacet
facet normal -0.965925622770849 0.258819804625795 2.86592484920081e-006
   outer loop
      vertex -499.306862300018 -1460.15909619467 -109.179363981001
      vertex -499.703251414659 -1461.11625850534 -80.6043428484694
      vertex -499.306770993319 -1460.1590718472 -80.6043391154518
   endloop
endfacet
facet normal -0.965925622770849 0.258819804625795 2.86592484920081e-006
   outer loop
      vertex -499.703251414659 -1461.11625850534 -80.6043428484694
      vertex -499.306862300018 -1460.15909619467 -109.179363981001
      vertex -499.703342721346 -1461.11628285281 -109.179363956088
   endloop
endfacet
facet normal 1.67404358628224e-006 -0.999999999998315 -7.53905552671855e-007
   outer loop
      vertex -514.428412577815 -1471.43496440812 -99.6543629631002
      vertex -491.85213293145 -1471.43494097629 -80.6043866231849
      vertex -514.428426080819 -1471.43499422308 -80.6042785069241
   endloop
endfacet
facet normal 1.67404358628224e-006 -0.999999999998315 -7.53905552671855e-007
   outer loop
      vertex -491.85213293145 -1471.43494097629 -80.6043866231849
      vertex -514.428412577815 -1471.43496440812 -99.6543629631002
      vertex -491.852139016755 -1471.43494206747 -99.6543708586633
   endloop
endfacet
facet normal -0.707107160789895 -0.707106401577205 2.86193521126661e-006
   outer loop
      vertex -500.334047904141 -1456.32557740677 -109.17936317309
      vertex -499.703248845953 -1457.14750850533 -80.6043270649562
      vertex -500.333956597395 -1456.32555305929 -80.604323678899
   endloop
endfacet
facet normal -0.707107160789895 -0.707106401577205 2.86193521126661e-006
   outer loop
      vertex -499.703248845953 -1457.14750850533 -80.6043270649562
      vertex -500.334047904141 -1456.32557740677 -109.17936317309
      vertex -499.703340152689 -1457.14753285281 -109.179363488787
   endloop
endfacet
facet normal -0.965925998088396 -0.258818403916722 3.30698178450035e-006
   outer loop
      vertex -499.306860970384 -1458.10472002416 -109.179363739108
      vertex -499.171538451574 -1459.13188384947 -80.604335055504
      vertex -499.306769663659 -1458.10469567669 -80.6043309453043
   endloop
endfacet
facet normal -0.965925998088396 -0.258818403916722 3.30698178450035e-006
   outer loop
      vertex -499.171538451574 -1459.13188384947 -80.604335055504
      vertex -499.306860970384 -1458.10472002416 -109.179363739108
      vertex -499.171629758285 -1459.13190819694 -109.179363906993
   endloop
endfacet
facet normal -0.866025703114489 -0.49999948153459 3.19326646466196e-006
   outer loop
      vertex -499.703340152689 -1457.14753285281 -109.179363488787
      vertex -499.306769663659 -1458.10469567669 -80.6043309453043
      vertex -499.703248845953 -1457.14750850533 -80.6043270649562
   endloop
endfacet
facet normal -0.866025703114489 -0.49999948153459 3.19326646466196e-006
   outer loop
      vertex -499.306769663659 -1458.10469567669 -80.6043309453043
      vertex -499.703340152689 -1457.14753285281 -109.179363488787
      vertex -499.306860970384 -1458.10472002416 -109.179363739108
   endloop
endfacet
facet normal -0.99999999999987 4.83329493949747e-007 -1.63890643004024e-007
   outer loop
      vertex -514.428408830446 -1446.43106265612 -80.6042817103346
      vertex -514.428412577815 -1471.43496440812 -99.6543629631002
      vertex -514.428426080819 -1471.43499422308 -80.6042785069241
   endloop
endfacet
facet normal -0.99999999999987 4.83329493949747e-007 -1.63890643004024e-007
   outer loop
      vertex -514.428412577815 -1471.43496440812 -99.6543629631002
      vertex -514.428408830446 -1446.43106265612 -80.6042817103346
      vertex -514.428408083679 -1446.43186922311 -109.179357913322
   endloop
endfacet
facet normal -0.99999999999987 4.83329493949747e-007 -1.63890643004024e-007
   outer loop
      vertex -514.428412577815 -1471.43496440812 -99.6543629631002
      vertex -514.428408083679 -1446.43186922311 -109.179357913322
      vertex -514.428443319017 -1523.65241840657 -99.6543651689752
   endloop
endfacet
facet normal -0.99999999999987 4.83329493949747e-007 -1.63890643004024e-007
   outer loop
      vertex -514.428443319017 -1523.65241840657 -99.6543651689752
      vertex -514.428408083679 -1446.43186922311 -109.179357913322
      vertex -514.428446583932 -1523.65241853993 -109.179365132743
   endloop
endfacet
facet normal -0.86602498610725 0.500000723431934 2.34120994016621e-006
   outer loop
      vertex -499.703342721346 -1461.11628285281 -109.179363956088
      vertex -500.333960230093 -1461.93821313497 -80.6043460001575
      vertex -499.703251414659 -1461.11625850534 -80.6043428484694
   endloop
endfacet
facet normal -0.86602498610725 0.500000723431934 2.34120994016621e-006
   outer loop
      vertex -500.333960230093 -1461.93821313497 -80.6043460001575
      vertex -499.703342721346 -1461.11628285281 -109.179363956088
      vertex -500.33405153677 -1461.93823748243 -109.179363833953
   endloop
endfacet
endsolid Milk Strap B_1_a_5-24-13
