solid Milk Strap B_1_a_5-24-13
facet normal 0.0 0.0 1.0
   outer loop
      vertex 1118.66317139175 -1408.33980542938 8.73125
      vertex 1118.66317139175 -1395.63980542938 8.73125
      vertex 1107.55067139175 -1401.98980542938 8.73125
   endloop
endfacet
facet normal 0.0 0.0 1.0
   outer loop
      vertex 1118.66317139175 -1395.63980542938 8.73125
      vertex 1118.66317139175 -1408.33980542938 8.73125
      vertex 1129.77567139175 -1401.98980542938 8.73125
   endloop
endfacet
facet normal -0.494101398173667 0.864677446803925 0.0905357460425091
   outer loop
      vertex 1107.55067139175 -1401.98980542938 8.73125
      vertex 1118.66317139175 -1394.72560298828 0.0
      vertex 1105.95081711982 -1401.98980542938 0.0
   endloop
endfacet
facet normal -0.494101398173667 0.864677446803925 0.0905357460425091
   outer loop
      vertex 1118.66317139175 -1394.72560298828 0.0
      vertex 1107.55067139175 -1401.98980542938 8.73125
      vertex 1118.66317139175 -1395.63980542938 8.73125
   endloop
endfacet
facet normal 0.0 0.0 -1.0
   outer loop
      vertex 1118.66317139175 -1394.72560298828 0.0
      vertex 1118.66317139175 -1409.25400787048 0.0
      vertex 1105.95081711982 -1401.98980542938 0.0
   endloop
endfacet
facet normal 0.0 0.0 -1.0
   outer loop
      vertex 1118.66317139175 -1409.25400787048 0.0
      vertex 1118.66317139175 -1394.72560298828 0.0
      vertex 1131.37552566368 -1401.98980542938 0.0
   endloop
endfacet
facet normal 0.494101398173667 0.864677446803925 0.0905357460425091
   outer loop
      vertex 1118.66317139175 -1395.63980542938 8.73125
      vertex 1131.37552566368 -1401.98980542938 0.0
      vertex 1118.66317139175 -1394.72560298828 0.0
   endloop
endfacet
facet normal 0.494101398173667 0.864677446803925 0.0905357460425091
   outer loop
      vertex 1131.37552566368 -1401.98980542938 0.0
      vertex 1118.66317139175 -1395.63980542938 8.73125
      vertex 1129.77567139175 -1401.98980542938 8.73125
   endloop
endfacet
facet normal 0.494101398173667 -0.864677446803925 0.0905357460425091
   outer loop
      vertex 1129.77567139175 -1401.98980542938 8.73125
      vertex 1118.66317139175 -1409.25400787048 0.0
      vertex 1131.37552566368 -1401.98980542938 0.0
   endloop
endfacet
facet normal 0.494101398173667 -0.864677446803925 0.0905357460425091
   outer loop
      vertex 1118.66317139175 -1409.25400787048 0.0
      vertex 1129.77567139175 -1401.98980542938 8.73125
      vertex 1118.66317139175 -1408.33980542938 8.73125
   endloop
endfacet
facet normal -0.494101398173667 -0.864677446803925 0.0905357460425091
   outer loop
      vertex 1118.66317139175 -1408.33980542938 8.73125
      vertex 1105.95081711982 -1401.98980542938 0.0
      vertex 1118.66317139175 -1409.25400787048 0.0
   endloop
endfacet
facet normal -0.494101398173667 -0.864677446803925 0.0905357460425091
   outer loop
      vertex 1105.95081711982 -1401.98980542938 0.0
      vertex 1118.66317139175 -1408.33980542938 8.73125
      vertex 1107.55067139175 -1401.98980542938 8.73125
   endloop
endfacet
endsolid Milk Strap B_1_a_5-24-13
