solid Milk Strap B_1_a_5-24-13
facet normal -0.334341854758749 0.585098245827811 0.73883392375127
   outer loop
      vertex 707.092897104981 -1410.18917549664 10.31875
      vertex 705.493042833054 -1410.10651803822 9.5293155143918
      vertex 705.348392280818 -1410.18917549664 9.5293155143918
   endloop
endfacet
facet normal -0.334341854758749 0.585098245827811 0.73883392375127
   outer loop
      vertex 705.493042833054 -1410.10651803822 9.5293155143918
      vertex 707.092897104981 -1410.18917549664 10.31875
      vertex 716.314660238158 -1403.92273666387 9.5293155143918
   endloop
endfacet
facet normal -0.334341854758749 0.585098245827811 0.73883392375127
   outer loop
      vertex 716.314660238158 -1403.92273666387 9.5293155143918
      vertex 707.092897104981 -1410.18917549664 10.31875
      vertex 716.314660238158 -1404.9195965634 10.31875
   endloop
endfacet
facet normal -0.334341854758796 -0.585098245827888 0.738833923751188
   outer loop
      vertex 705.493042833054 -1410.27183295506 9.5293155143918
      vertex 707.092897104981 -1410.18917549664 10.31875
      vertex 705.348392280818 -1410.18917549664 9.5293155143918
   endloop
endfacet
facet normal -0.334341854758796 -0.585098245827888 0.738833923751188
   outer loop
      vertex 707.092897104981 -1410.18917549664 10.31875
      vertex 705.493042833054 -1410.27183295506 9.5293155143918
      vertex 716.314660238158 -1416.4556143294 9.5293155143918
   endloop
endfacet
facet normal -0.334341854758796 -0.585098245827888 0.738833923751188
   outer loop
      vertex 707.092897104981 -1410.18917549664 10.31875
      vertex 716.314660238158 -1416.4556143294 9.5293155143918
      vertex 716.314660238158 -1415.45875442988 10.31875
   endloop
endfacet
facet normal 0.496138938356838 0.868243142124457 -1.71342384828076e-015
   outer loop
      vertex 730.514729730864 -1412.03706208828 1.984375
      vertex 741.480997688204 -1418.30350092104 9.5293155143918
      vertex 741.480997688204 -1418.30350092104 1.984375
   endloop
endfacet
facet normal 0.496138938356838 0.868243142124457 -1.71342384828076e-015
   outer loop
      vertex 741.480997688204 -1418.30350092104 9.5293155143918
      vertex 730.514729730864 -1412.03706208828 1.984375
      vertex 730.514729730864 -1412.03706208828 9.5293155143918
   endloop
endfacet
facet normal 0.496138938356838 0.868243142124457 -1.71342384828076e-015
   outer loop
      vertex 741.480997688204 -1418.30350092104 9.5293155143918
      vertex 730.514729730864 -1412.03706208828 9.5293155143918
      vertex 741.336347135968 -1418.22084346262 9.5293155143918
   endloop
endfacet
facet normal -0.496138938356838 -0.868243142124457 -1.66399816034958e-015
   outer loop
      vertex 730.514729730864 -1408.341288905 9.5293155143918
      vertex 719.548461773525 -1402.07485007224 1.984375
      vertex 730.514729730864 -1408.341288905 1.984375
   endloop
endfacet
facet normal -0.496138938356838 -0.868243142124457 -1.66399816034958e-015
   outer loop
      vertex 719.548461773525 -1402.07485007224 1.984375
      vertex 730.514729730864 -1408.341288905 9.5293155143918
      vertex 719.69311232576 -1402.15750753066 9.5293155143918
   endloop
endfacet
facet normal -0.496138938356838 -0.868243142124457 -1.66399816034958e-015
   outer loop
      vertex 719.548461773525 -1402.07485007224 1.984375
      vertex 719.69311232576 -1402.15750753066 9.5293155143918
      vertex 719.548461773525 -1402.07485007224 9.5293155143918
   endloop
endfacet
facet normal 0.334341854758761 0.585098245827828 0.738833923751251
   outer loop
      vertex 725.536423371334 -1410.18917549664 10.31875
      vertex 716.314660238158 -1403.92273666387 9.5293155143918
      vertex 716.314660238158 -1404.9195965634 10.31875
   endloop
endfacet
facet normal 0.334341854758761 0.585098245827828 0.738833923751251
   outer loop
      vertex 716.314660238158 -1403.92273666387 9.5293155143918
      vertex 725.536423371334 -1410.18917549664 10.31875
      vertex 727.136277643262 -1410.10651803822 9.5293155143918
   endloop
endfacet
facet normal 0.334341854758761 0.585098245827828 0.738833923751251
   outer loop
      vertex 727.136277643262 -1410.10651803822 9.5293155143918
      vertex 725.536423371334 -1410.18917549664 10.31875
      vertex 727.280928195497 -1410.18917549664 9.5293155143918
   endloop
endfacet
facet normal 0.496138938356831 0.868243142124461 6.76004067780907e-017
   outer loop
      vertex 730.514729730864 -1395.80841123947 9.5293155143918
      vertex 741.480997688204 -1402.07485007224 1.984375
      vertex 730.514729730864 -1395.80841123947 -1.190625
   endloop
endfacet
facet normal 0.496138938356831 0.868243142124461 6.76004067780907e-017
   outer loop
      vertex 741.480997688204 -1402.07485007224 1.984375
      vertex 730.514729730864 -1395.80841123947 9.5293155143918
      vertex 741.480997688204 -1402.07485007224 9.5293155143918
   endloop
endfacet
facet normal 0.496138938356831 0.868243142124461 6.76004067780907e-017
   outer loop
      vertex 741.480997688204 -1402.07485007224 9.5293155143918
      vertex 730.514729730864 -1395.80841123947 9.5293155143918
      vertex 741.336347135968 -1401.99219261381 9.5293155143918
   endloop
endfacet
facet normal 0.496138938356831 0.868243142124461 6.76004067780907e-017
   outer loop
      vertex 755.681067180911 -1410.18917549664 -1.190625
      vertex 744.714799223571 -1403.92273666387 1.984375
      vertex 755.681067180911 -1410.18917549664 9.5293155143918
   endloop
endfacet
facet normal 0.496138938356831 0.868243142124461 6.76004067780907e-017
   outer loop
      vertex 744.714799223571 -1403.92273666387 1.984375
      vertex 755.681067180911 -1410.18917549664 -1.190625
      vertex 730.514729730864 -1395.80841123947 -1.190625
   endloop
endfacet
facet normal 0.496138938356831 0.868243142124461 6.76004067780907e-017
   outer loop
      vertex 744.714799223571 -1403.92273666387 1.984375
      vertex 730.514729730864 -1395.80841123947 -1.190625
      vertex 741.480997688204 -1402.07485007224 1.984375
   endloop
endfacet
facet normal 0.496138938356831 0.868243142124461 6.76004067780907e-017
   outer loop
      vertex 755.681067180911 -1410.18917549664 9.5293155143918
      vertex 744.714799223571 -1403.92273666387 1.984375
      vertex 744.714799223571 -1403.92273666387 9.5293155143918
   endloop
endfacet
facet normal 0.496138938356831 0.868243142124461 6.76004067780907e-017
   outer loop
      vertex 755.681067180911 -1410.18917549664 9.5293155143918
      vertex 744.714799223571 -1403.92273666387 9.5293155143918
      vertex 755.536416628675 -1410.10651803822 9.5293155143918
   endloop
endfacet
facet normal 0.0 0.0 1.0
   outer loop
      vertex 730.514729730864 -1423.57307985429 10.715625
      vertex 730.514729730864 -1413.0339219878 10.715625
      vertex 721.292966597688 -1418.30350092104 10.715625
   endloop
endfacet
facet normal 0.0 0.0 1.0
   outer loop
      vertex 730.514729730864 -1413.0339219878 10.715625
      vertex 730.514729730864 -1423.57307985429 10.715625
      vertex 739.73649286404 -1418.30350092104 10.715625
   endloop
endfacet
facet normal 0.334341854758777 -0.585098245827864 0.738833923751216
   outer loop
      vertex 741.480997688204 -1402.07485007224 9.5293155143918
      vertex 730.514729730864 -1407.34442900548 10.31875
      vertex 730.514729730864 -1408.341288905 9.5293155143918
   endloop
endfacet
facet normal 0.334341854758777 -0.585098245827864 0.738833923751216
   outer loop
      vertex 730.514729730864 -1407.34442900548 10.31875
      vertex 741.480997688204 -1402.07485007224 9.5293155143918
      vertex 739.73649286404 -1402.07485007224 10.31875
   endloop
endfacet
facet normal -0.496138938356836 0.868243142124458 0.0
   outer loop
      vertex 721.292966597688 -1402.07485007224 10.715625
      vertex 730.514729730864 -1396.80527113899 10.31875
      vertex 721.292966597688 -1402.07485007224 10.31875
   endloop
endfacet
facet normal -0.496138938356836 0.868243142124458 0.0
   outer loop
      vertex 730.514729730864 -1396.80527113899 10.31875
      vertex 721.292966597688 -1402.07485007224 10.715625
      vertex 730.514729730864 -1396.80527113899 10.715625
   endloop
endfacet
facet normal -0.496138938356836 -0.868243142124458 0.0
   outer loop
      vertex 730.514729730864 -1423.57307985429 10.715625
      vertex 721.292966597688 -1418.30350092104 10.31875
      vertex 730.514729730864 -1423.57307985429 10.31875
   endloop
endfacet
facet normal -0.496138938356836 -0.868243142124458 0.0
   outer loop
      vertex 721.292966597688 -1418.30350092104 10.31875
      vertex 730.514729730864 -1423.57307985429 10.715625
      vertex 721.292966597688 -1418.30350092104 10.715625
   endloop
endfacet
facet normal 1.22630674883098e-017 -1.05780458027143e-016 1.0
   outer loop
      vertex 719.548461773525 -1418.30350092104 1.984375
      vertex 727.280928195497 -1410.18917549664 1.984375
      vertex 716.314660238158 -1416.4556143294 1.984375
   endloop
endfacet
facet normal 1.22630674883098e-017 -1.05780458027143e-016 1.0
   outer loop
      vertex 727.280928195497 -1410.18917549664 1.984375
      vertex 719.548461773525 -1418.30350092104 1.984375
      vertex 730.514729730864 -1412.03706208828 1.984375
   endloop
endfacet
facet normal 1.22630674883098e-017 -1.05780458027143e-016 1.0
   outer loop
      vertex 727.280928195497 -1410.18917549664 1.984375
      vertex 719.548461773525 -1402.07485007224 1.984375
      vertex 716.314660238158 -1403.92273666387 1.984375
   endloop
endfacet
facet normal 1.22630674883098e-017 -1.05780458027143e-016 1.0
   outer loop
      vertex 719.548461773525 -1402.07485007224 1.984375
      vertex 727.280928195497 -1410.18917549664 1.984375
      vertex 730.514729730864 -1408.341288905 1.984375
   endloop
endfacet
facet normal 1.22630674883098e-017 -1.05780458027143e-016 1.0
   outer loop
      vertex 730.514729730864 -1408.341288905 1.984375
      vertex 727.280928195497 -1410.18917549664 1.984375
      vertex 730.514729730864 -1412.03706208828 1.984375
   endloop
endfacet
facet normal 1.22630674883098e-017 -1.05780458027143e-016 1.0
   outer loop
      vertex 730.514729730864 -1408.341288905 1.984375
      vertex 730.514729730864 -1412.03706208828 1.984375
      vertex 741.480997688204 -1418.30350092104 1.984375
   endloop
endfacet
facet normal 1.22630674883098e-017 -1.05780458027143e-016 1.0
   outer loop
      vertex 730.514729730864 -1408.341288905 1.984375
      vertex 741.480997688204 -1418.30350092104 1.984375
      vertex 733.748531266231 -1410.18917549664 1.984375
   endloop
endfacet
facet normal 1.22630674883098e-017 -1.05780458027143e-016 1.0
   outer loop
      vertex 733.748531266231 -1410.18917549664 1.984375
      vertex 741.480997688204 -1418.30350092104 1.984375
      vertex 744.714799223571 -1416.4556143294 1.984375
   endloop
endfacet
facet normal 1.22630674883098e-017 -1.05780458027143e-016 1.0
   outer loop
      vertex 733.748531266231 -1410.18917549664 1.984375
      vertex 741.480997688204 -1402.07485007224 1.984375
      vertex 730.514729730864 -1408.341288905 1.984375
   endloop
endfacet
facet normal 1.22630674883098e-017 -1.05780458027143e-016 1.0
   outer loop
      vertex 741.480997688204 -1402.07485007224 1.984375
      vertex 733.748531266231 -1410.18917549664 1.984375
      vertex 744.714799223571 -1403.92273666387 1.984375
   endloop
endfacet
facet normal 0.496138938356827 -0.868243142124463 -5.22968516598893e-017
   outer loop
      vertex 755.681067180911 -1410.18917549664 -1.190625
      vertex 744.714799223571 -1416.4556143294 1.984375
      vertex 730.514729730864 -1424.56993975381 -1.190625
   endloop
endfacet
facet normal 0.496138938356827 -0.868243142124463 -5.22968516598893e-017
   outer loop
      vertex 744.714799223571 -1416.4556143294 1.984375
      vertex 755.681067180911 -1410.18917549664 -1.190625
      vertex 755.681067180911 -1410.18917549664 9.5293155143918
   endloop
endfacet
facet normal 0.496138938356827 -0.868243142124463 -5.22968516598893e-017
   outer loop
      vertex 744.714799223571 -1416.4556143294 1.984375
      vertex 755.681067180911 -1410.18917549664 9.5293155143918
      vertex 744.714799223571 -1416.4556143294 9.5293155143918
   endloop
endfacet
facet normal 0.496138938356827 -0.868243142124463 -5.22968516598893e-017
   outer loop
      vertex 730.514729730864 -1424.56993975381 -1.190625
      vertex 741.480997688204 -1418.30350092104 1.984375
      vertex 730.514729730864 -1424.56993975381 9.5293155143918
   endloop
endfacet
facet normal 0.496138938356827 -0.868243142124463 -5.22968516598893e-017
   outer loop
      vertex 741.480997688204 -1418.30350092104 1.984375
      vertex 730.514729730864 -1424.56993975381 -1.190625
      vertex 744.714799223571 -1416.4556143294 1.984375
   endloop
endfacet
facet normal 0.496138938356827 -0.868243142124463 -5.22968516598893e-017
   outer loop
      vertex 730.514729730864 -1424.56993975381 9.5293155143918
      vertex 741.480997688204 -1418.30350092104 1.984375
      vertex 741.480997688204 -1418.30350092104 9.5293155143918
   endloop
endfacet
facet normal -0.496138938356831 -0.868243142124461 8.7573254235254e-017
   outer loop
      vertex 705.348392280818 -1410.18917549664 -1.190625
      vertex 716.314660238158 -1416.4556143294 1.984375
      vertex 705.348392280818 -1410.18917549664 9.5293155143918
   endloop
endfacet
facet normal -0.496138938356831 -0.868243142124461 8.7573254235254e-017
   outer loop
      vertex 716.314660238158 -1416.4556143294 1.984375
      vertex 705.348392280818 -1410.18917549664 -1.190625
      vertex 719.548461773525 -1418.30350092104 1.984375
   endloop
endfacet
facet normal -0.496138938356831 -0.868243142124461 8.7573254235254e-017
   outer loop
      vertex 705.348392280818 -1410.18917549664 9.5293155143918
      vertex 716.314660238158 -1416.4556143294 1.984375
      vertex 705.493042833054 -1410.27183295506 9.5293155143918
   endloop
endfacet
facet normal -0.496138938356831 -0.868243142124461 8.7573254235254e-017
   outer loop
      vertex 705.493042833054 -1410.27183295506 9.5293155143918
      vertex 716.314660238158 -1416.4556143294 1.984375
      vertex 716.314660238158 -1416.4556143294 9.5293155143918
   endloop
endfacet
facet normal -0.496138938356831 -0.868243142124461 8.7573254235254e-017
   outer loop
      vertex 730.514729730864 -1424.56993975381 -1.190625
      vertex 719.548461773525 -1418.30350092104 1.984375
      vertex 705.348392280818 -1410.18917549664 -1.190625
   endloop
endfacet
facet normal -0.496138938356831 -0.868243142124461 8.7573254235254e-017
   outer loop
      vertex 719.548461773525 -1418.30350092104 1.984375
      vertex 730.514729730864 -1424.56993975381 -1.190625
      vertex 730.514729730864 -1424.56993975381 9.5293155143918
   endloop
endfacet
facet normal -0.496138938356831 -0.868243142124461 8.7573254235254e-017
   outer loop
      vertex 719.548461773525 -1418.30350092104 1.984375
      vertex 730.514729730864 -1424.56993975381 9.5293155143918
      vertex 719.69311232576 -1418.38615837946 9.5293155143918
   endloop
endfacet
facet normal -0.496138938356831 -0.868243142124461 8.7573254235254e-017
   outer loop
      vertex 719.548461773525 -1418.30350092104 1.984375
      vertex 719.69311232576 -1418.38615837946 9.5293155143918
      vertex 719.548461773525 -1418.30350092104 9.5293155143918
   endloop
endfacet
facet normal 0.0 0.0 1.0
   outer loop
      vertex 730.514729730864 -1407.34442900548 10.715625
      vertex 730.514729730864 -1396.80527113899 10.715625
      vertex 721.292966597688 -1402.07485007224 10.715625
   endloop
endfacet
facet normal 0.0 0.0 1.0
   outer loop
      vertex 730.514729730864 -1396.80527113899 10.715625
      vertex 730.514729730864 -1407.34442900548 10.715625
      vertex 739.73649286404 -1402.07485007224 10.715625
   endloop
endfacet
facet normal -0.49613893835683 0.868243142124462 4.16823301552917e-015
   outer loop
      vertex 719.548461773525 -1418.30350092104 9.5293155143918
      vertex 730.514729730864 -1412.03706208828 1.984375
      vertex 719.548461773525 -1418.30350092104 1.984375
   endloop
endfacet
facet normal -0.49613893835683 0.868243142124462 4.16823301552917e-015
   outer loop
      vertex 730.514729730864 -1412.03706208828 1.984375
      vertex 719.548461773525 -1418.30350092104 9.5293155143918
      vertex 730.514729730864 -1412.03706208828 9.5293155143918
   endloop
endfacet
facet normal -0.49613893835683 0.868243142124462 4.16823301552917e-015
   outer loop
      vertex 730.514729730864 -1412.03706208828 9.5293155143918
      vertex 719.548461773525 -1418.30350092104 9.5293155143918
      vertex 719.69311232576 -1418.22084346262 9.5293155143918
   endloop
endfacet
facet normal 0.334341854758777 -0.585098245827864 0.738833923751216
   outer loop
      vertex 741.480997688204 -1418.30350092104 9.5293155143918
      vertex 730.514729730864 -1423.57307985429 10.31875
      vertex 730.514729730864 -1424.56993975381 9.5293155143918
   endloop
endfacet
facet normal 0.334341854758777 -0.585098245827864 0.738833923751216
   outer loop
      vertex 730.514729730864 -1423.57307985429 10.31875
      vertex 741.480997688204 -1418.30350092104 9.5293155143918
      vertex 739.73649286404 -1418.30350092104 10.31875
   endloop
endfacet
facet normal 0.496138938356836 0.868243142124458 0.0
   outer loop
      vertex 730.514729730864 -1396.80527113899 10.715625
      vertex 739.73649286404 -1402.07485007224 10.31875
      vertex 730.514729730864 -1396.80527113899 10.31875
   endloop
endfacet
facet normal 0.496138938356836 0.868243142124458 0.0
   outer loop
      vertex 739.73649286404 -1402.07485007224 10.31875
      vertex 730.514729730864 -1396.80527113899 10.715625
      vertex 739.73649286404 -1402.07485007224 10.715625
   endloop
endfacet
facet normal 5.2734781623059e-031 1.47069712296866e-016 -1.0
   outer loop
      vertex 730.514729730864 -1395.80841123947 -1.190625
      vertex 730.514729730864 -1424.56993975381 -1.190625
      vertex 705.348392280818 -1410.18917549664 -1.190625
   endloop
endfacet
facet normal 5.2734781623059e-031 1.47069712296866e-016 -1.0
   outer loop
      vertex 730.514729730864 -1424.56993975381 -1.190625
      vertex 730.514729730864 -1395.80841123947 -1.190625
      vertex 755.681067180911 -1410.18917549664 -1.190625
   endloop
endfacet
facet normal 0.0 0.0 1.0
   outer loop
      vertex 716.314660238158 -1415.45875442988 10.715625
      vertex 716.314660238158 -1404.9195965634 10.715625
      vertex 707.092897104981 -1410.18917549664 10.715625
   endloop
endfacet
facet normal 0.0 0.0 1.0
   outer loop
      vertex 716.314660238158 -1404.9195965634 10.715625
      vertex 716.314660238158 -1415.45875442988 10.715625
      vertex 725.536423371334 -1410.18917549664 10.715625
   endloop
endfacet
facet normal 0.496138938356828 -0.868243142124463 -1.95082969458412e-017
   outer loop
      vertex 727.280928195497 -1410.18917549664 9.5293155143918
      vertex 716.314660238158 -1416.4556143294 1.984375
      vertex 727.280928195497 -1410.18917549664 1.984375
   endloop
endfacet
facet normal 0.496138938356828 -0.868243142124463 -1.95082969458412e-017
   outer loop
      vertex 716.314660238158 -1416.4556143294 1.984375
      vertex 727.280928195497 -1410.18917549664 9.5293155143918
      vertex 716.314660238158 -1416.4556143294 9.5293155143918
   endloop
endfacet
facet normal -0.334341854758796 -0.585098245827888 0.738833923751188
   outer loop
      vertex 719.69311232576 -1402.15750753066 9.5293155143918
      vertex 721.292966597688 -1402.07485007224 10.31875
      vertex 719.548461773525 -1402.07485007224 9.5293155143918
   endloop
endfacet
facet normal -0.334341854758796 -0.585098245827888 0.738833923751188
   outer loop
      vertex 721.292966597688 -1402.07485007224 10.31875
      vertex 719.69311232576 -1402.15750753066 9.5293155143918
      vertex 730.514729730864 -1408.341288905 9.5293155143918
   endloop
endfacet
facet normal -0.334341854758796 -0.585098245827888 0.738833923751188
   outer loop
      vertex 721.292966597688 -1402.07485007224 10.31875
      vertex 730.514729730864 -1408.341288905 9.5293155143918
      vertex 730.514729730864 -1407.34442900548 10.31875
   endloop
endfacet
facet normal 0.334341854758777 -0.585098245827864 0.738833923751216
   outer loop
      vertex 727.280928195497 -1410.18917549664 9.5293155143918
      vertex 716.314660238158 -1415.45875442988 10.31875
      vertex 716.314660238158 -1416.4556143294 9.5293155143918
   endloop
endfacet
facet normal 0.334341854758777 -0.585098245827864 0.738833923751216
   outer loop
      vertex 716.314660238158 -1415.45875442988 10.31875
      vertex 727.280928195497 -1410.18917549664 9.5293155143918
      vertex 725.536423371334 -1410.18917549664 10.31875
   endloop
endfacet
facet normal 0.334341854758761 0.585098245827828 0.738833923751251
   outer loop
      vertex 739.73649286404 -1418.30350092104 10.31875
      vertex 730.514729730864 -1412.03706208828 9.5293155143918
      vertex 730.514729730864 -1413.0339219878 10.31875
   endloop
endfacet
facet normal 0.334341854758761 0.585098245827828 0.738833923751251
   outer loop
      vertex 730.514729730864 -1412.03706208828 9.5293155143918
      vertex 739.73649286404 -1418.30350092104 10.31875
      vertex 741.336347135968 -1418.22084346262 9.5293155143918
   endloop
endfacet
facet normal 0.334341854758761 0.585098245827828 0.738833923751251
   outer loop
      vertex 741.336347135968 -1418.22084346262 9.5293155143918
      vertex 739.73649286404 -1418.30350092104 10.31875
      vertex 741.480997688204 -1418.30350092104 9.5293155143918
   endloop
endfacet
facet normal -0.334341854758749 0.585098245827811 0.73883392375127
   outer loop
      vertex 721.292966597688 -1402.07485007224 10.31875
      vertex 719.69311232576 -1401.99219261381 9.5293155143918
      vertex 719.548461773525 -1402.07485007224 9.5293155143918
   endloop
endfacet
facet normal -0.334341854758749 0.585098245827811 0.73883392375127
   outer loop
      vertex 719.69311232576 -1401.99219261381 9.5293155143918
      vertex 721.292966597688 -1402.07485007224 10.31875
      vertex 730.514729730864 -1395.80841123947 9.5293155143918
   endloop
endfacet
facet normal -0.334341854758749 0.585098245827811 0.73883392375127
   outer loop
      vertex 730.514729730864 -1395.80841123947 9.5293155143918
      vertex 721.292966597688 -1402.07485007224 10.31875
      vertex 730.514729730864 -1396.80527113899 10.31875
   endloop
endfacet
facet normal 0.496138938356836 0.868243142124458 0.0
   outer loop
      vertex 730.514729730864 -1413.0339219878 10.715625
      vertex 739.73649286404 -1418.30350092104 10.31875
      vertex 730.514729730864 -1413.0339219878 10.31875
   endloop
endfacet
facet normal 0.496138938356836 0.868243142124458 0.0
   outer loop
      vertex 739.73649286404 -1418.30350092104 10.31875
      vertex 730.514729730864 -1413.0339219878 10.715625
      vertex 739.73649286404 -1418.30350092104 10.715625
   endloop
endfacet
facet normal 0.496138938356836 -0.868243142124458 0.0
   outer loop
      vertex 739.73649286404 -1402.07485007224 10.715625
      vertex 730.514729730864 -1407.34442900548 10.31875
      vertex 739.73649286404 -1402.07485007224 10.31875
   endloop
endfacet
facet normal 0.496138938356836 -0.868243142124458 0.0
   outer loop
      vertex 730.514729730864 -1407.34442900548 10.31875
      vertex 739.73649286404 -1402.07485007224 10.715625
      vertex 730.514729730864 -1407.34442900548 10.715625
   endloop
endfacet
facet normal -0.496138938356828 0.868243142124463 3.74909397060928e-015
   outer loop
      vertex 705.348392280818 -1410.18917549664 -1.190625
      vertex 716.314660238158 -1403.92273666387 1.984375
      vertex 730.514729730864 -1395.80841123947 -1.190625
   endloop
endfacet
facet normal -0.496138938356828 0.868243142124463 3.74909397060928e-015
   outer loop
      vertex 716.314660238158 -1403.92273666387 1.984375
      vertex 705.348392280818 -1410.18917549664 -1.190625
      vertex 705.348392280818 -1410.18917549664 9.5293155143918
   endloop
endfacet
facet normal -0.496138938356828 0.868243142124463 3.74909397060928e-015
   outer loop
      vertex 730.514729730864 -1395.80841123947 -1.190625
      vertex 716.314660238158 -1403.92273666387 1.984375
      vertex 719.548461773525 -1402.07485007224 1.984375
   endloop
endfacet
facet normal -0.496138938356828 0.868243142124463 3.74909397060928e-015
   outer loop
      vertex 716.314660238158 -1403.92273666387 1.984375
      vertex 705.348392280818 -1410.18917549664 9.5293155143918
      vertex 716.314660238158 -1403.92273666387 9.5293155143918
   endloop
endfacet
facet normal -0.496138938356828 0.868243142124463 3.74909397060928e-015
   outer loop
      vertex 716.314660238158 -1403.92273666387 9.5293155143918
      vertex 705.348392280818 -1410.18917549664 9.5293155143918
      vertex 705.493042833054 -1410.10651803822 9.5293155143918
   endloop
endfacet
facet normal -0.496138938356828 0.868243142124463 3.74909397060928e-015
   outer loop
      vertex 719.548461773525 -1402.07485007224 1.984375
      vertex 730.514729730864 -1395.80841123947 9.5293155143918
      vertex 730.514729730864 -1395.80841123947 -1.190625
   endloop
endfacet
facet normal -0.496138938356828 0.868243142124463 3.74909397060928e-015
   outer loop
      vertex 730.514729730864 -1395.80841123947 9.5293155143918
      vertex 719.548461773525 -1402.07485007224 1.984375
      vertex 719.548461773525 -1402.07485007224 9.5293155143918
   endloop
endfacet
facet normal -0.496138938356828 0.868243142124463 3.74909397060928e-015
   outer loop
      vertex 730.514729730864 -1395.80841123947 9.5293155143918
      vertex 719.548461773525 -1402.07485007224 9.5293155143918
      vertex 719.69311232576 -1401.99219261381 9.5293155143918
   endloop
endfacet
facet normal 0.334341854758761 0.585098245827828 0.738833923751251
   outer loop
      vertex 739.73649286404 -1402.07485007224 10.31875
      vertex 730.514729730864 -1395.80841123947 9.5293155143918
      vertex 730.514729730864 -1396.80527113899 10.31875
   endloop
endfacet
facet normal 0.334341854758761 0.585098245827828 0.738833923751251
   outer loop
      vertex 730.514729730864 -1395.80841123947 9.5293155143918
      vertex 739.73649286404 -1402.07485007224 10.31875
      vertex 741.336347135968 -1401.99219261381 9.5293155143918
   endloop
endfacet
facet normal 0.334341854758761 0.585098245827828 0.738833923751251
   outer loop
      vertex 741.336347135968 -1401.99219261381 9.5293155143918
      vertex 739.73649286404 -1402.07485007224 10.31875
      vertex 741.480997688204 -1402.07485007224 9.5293155143918
   endloop
endfacet
facet normal 0.496138938356828 -0.868243142124463 -1.95082969458412e-017
   outer loop
      vertex 741.480997688204 -1402.07485007224 9.5293155143918
      vertex 730.514729730864 -1408.341288905 1.984375
      vertex 741.480997688204 -1402.07485007224 1.984375
   endloop
endfacet
facet normal 0.496138938356828 -0.868243142124463 -1.95082969458412e-017
   outer loop
      vertex 730.514729730864 -1408.341288905 1.984375
      vertex 741.480997688204 -1402.07485007224 9.5293155143918
      vertex 730.514729730864 -1408.341288905 9.5293155143918
   endloop
endfacet
facet normal -0.496138938356838 -0.868243142124457 -1.66399816034958e-015
   outer loop
      vertex 744.714799223571 -1416.4556143294 9.5293155143918
      vertex 733.748531266231 -1410.18917549664 1.984375
      vertex 744.714799223571 -1416.4556143294 1.984375
   endloop
endfacet
facet normal -0.496138938356838 -0.868243142124457 -1.66399816034958e-015
   outer loop
      vertex 733.748531266231 -1410.18917549664 1.984375
      vertex 744.714799223571 -1416.4556143294 9.5293155143918
      vertex 733.893181818467 -1410.27183295506 9.5293155143918
   endloop
endfacet
facet normal -0.496138938356838 -0.868243142124457 -1.66399816034958e-015
   outer loop
      vertex 733.748531266231 -1410.18917549664 1.984375
      vertex 733.893181818467 -1410.27183295506 9.5293155143918
      vertex 733.748531266231 -1410.18917549664 9.5293155143918
   endloop
endfacet
facet normal -0.334341854758749 0.585098245827811 0.73883392375127
   outer loop
      vertex 721.292966597688 -1418.30350092104 10.31875
      vertex 719.69311232576 -1418.22084346262 9.5293155143918
      vertex 719.548461773525 -1418.30350092104 9.5293155143918
   endloop
endfacet
facet normal -0.334341854758749 0.585098245827811 0.73883392375127
   outer loop
      vertex 719.69311232576 -1418.22084346262 9.5293155143918
      vertex 721.292966597688 -1418.30350092104 10.31875
      vertex 730.514729730864 -1412.03706208828 9.5293155143918
   endloop
endfacet
facet normal -0.334341854758749 0.585098245827811 0.73883392375127
   outer loop
      vertex 730.514729730864 -1412.03706208828 9.5293155143918
      vertex 721.292966597688 -1418.30350092104 10.31875
      vertex 730.514729730864 -1413.0339219878 10.31875
   endloop
endfacet
facet normal -0.496138938356836 -0.868243142124458 0.0
   outer loop
      vertex 730.514729730864 -1407.34442900548 10.715625
      vertex 721.292966597688 -1402.07485007224 10.31875
      vertex 730.514729730864 -1407.34442900548 10.31875
   endloop
endfacet
facet normal -0.496138938356836 -0.868243142124458 0.0
   outer loop
      vertex 721.292966597688 -1402.07485007224 10.31875
      vertex 730.514729730864 -1407.34442900548 10.715625
      vertex 721.292966597688 -1402.07485007224 10.715625
   endloop
endfacet
facet normal 0.496138938356836 -0.868243142124458 0.0
   outer loop
      vertex 739.73649286404 -1418.30350092104 10.715625
      vertex 730.514729730864 -1423.57307985429 10.31875
      vertex 739.73649286404 -1418.30350092104 10.31875
   endloop
endfacet
facet normal 0.496138938356836 -0.868243142124458 0.0
   outer loop
      vertex 730.514729730864 -1423.57307985429 10.31875
      vertex 739.73649286404 -1418.30350092104 10.715625
      vertex 730.514729730864 -1423.57307985429 10.715625
   endloop
endfacet
facet normal 0.496138938356838 0.868243142124457 -1.69694861897037e-015
   outer loop
      vertex 716.314660238158 -1403.92273666387 1.984375
      vertex 727.280928195497 -1410.18917549664 9.5293155143918
      vertex 727.280928195497 -1410.18917549664 1.984375
   endloop
endfacet
facet normal 0.496138938356838 0.868243142124457 -1.69694861897037e-015
   outer loop
      vertex 727.280928195497 -1410.18917549664 9.5293155143918
      vertex 716.314660238158 -1403.92273666387 1.984375
      vertex 716.314660238158 -1403.92273666387 9.5293155143918
   endloop
endfacet
facet normal 0.496138938356838 0.868243142124457 -1.69694861897037e-015
   outer loop
      vertex 727.280928195497 -1410.18917549664 9.5293155143918
      vertex 716.314660238158 -1403.92273666387 9.5293155143918
      vertex 727.136277643262 -1410.10651803822 9.5293155143918
   endloop
endfacet
facet normal -0.334341854758796 -0.585098245827888 0.738833923751188
   outer loop
      vertex 719.69311232576 -1418.38615837946 9.5293155143918
      vertex 721.292966597688 -1418.30350092104 10.31875
      vertex 719.548461773525 -1418.30350092104 9.5293155143918
   endloop
endfacet
facet normal -0.334341854758796 -0.585098245827888 0.738833923751188
   outer loop
      vertex 721.292966597688 -1418.30350092104 10.31875
      vertex 719.69311232576 -1418.38615837946 9.5293155143918
      vertex 730.514729730864 -1424.56993975381 9.5293155143918
   endloop
endfacet
facet normal -0.334341854758796 -0.585098245827888 0.738833923751188
   outer loop
      vertex 721.292966597688 -1418.30350092104 10.31875
      vertex 730.514729730864 -1424.56993975381 9.5293155143918
      vertex 730.514729730864 -1423.57307985429 10.31875
   endloop
endfacet
facet normal -0.49613893835683 0.868243142124461 4.16823301552917e-015
   outer loop
      vertex 733.748531266231 -1410.18917549664 9.5293155143918
      vertex 744.714799223571 -1403.92273666387 1.984375
      vertex 733.748531266231 -1410.18917549664 1.984375
   endloop
endfacet
facet normal -0.49613893835683 0.868243142124461 4.16823301552917e-015
   outer loop
      vertex 744.714799223571 -1403.92273666387 1.984375
      vertex 733.748531266231 -1410.18917549664 9.5293155143918
      vertex 744.714799223571 -1403.92273666387 9.5293155143918
   endloop
endfacet
facet normal -0.49613893835683 0.868243142124461 4.16823301552917e-015
   outer loop
      vertex 744.714799223571 -1403.92273666387 9.5293155143918
      vertex 733.748531266231 -1410.18917549664 9.5293155143918
      vertex 733.893181818467 -1410.10651803822 9.5293155143918
   endloop
endfacet
facet normal -0.496138938356836 0.868243142124458 0.0
   outer loop
      vertex 721.292966597688 -1418.30350092104 10.715625
      vertex 730.514729730864 -1413.0339219878 10.31875
      vertex 721.292966597688 -1418.30350092104 10.31875
   endloop
endfacet
facet normal -0.496138938356836 0.868243142124458 0.0
   outer loop
      vertex 730.514729730864 -1413.0339219878 10.31875
      vertex 721.292966597688 -1418.30350092104 10.715625
      vertex 730.514729730864 -1413.0339219878 10.715625
   endloop
endfacet
facet normal 0.0 0.0 1.0
   outer loop
      vertex 744.714799223571 -1415.45875442988 10.715625
      vertex 744.714799223571 -1404.9195965634 10.715625
      vertex 735.493036090395 -1410.18917549664 10.715625
   endloop
endfacet
facet normal 0.0 0.0 1.0
   outer loop
      vertex 744.714799223571 -1404.9195965634 10.715625
      vertex 744.714799223571 -1415.45875442988 10.715625
      vertex 753.936562356747 -1410.18917549664 10.715625
   endloop
endfacet
facet normal 0.334341854758777 -0.585098245827864 0.738833923751216
   outer loop
      vertex 755.681067180911 -1410.18917549664 9.5293155143918
      vertex 744.714799223571 -1415.45875442988 10.31875
      vertex 744.714799223571 -1416.4556143294 9.5293155143918
   endloop
endfacet
facet normal 0.334341854758777 -0.585098245827864 0.738833923751216
   outer loop
      vertex 744.714799223571 -1415.45875442988 10.31875
      vertex 755.681067180911 -1410.18917549664 9.5293155143918
      vertex 753.936562356747 -1410.18917549664 10.31875
   endloop
endfacet
facet normal -0.334341854758749 0.585098245827811 0.73883392375127
   outer loop
      vertex 735.493036090395 -1410.18917549664 10.31875
      vertex 733.893181818467 -1410.10651803822 9.5293155143918
      vertex 733.748531266231 -1410.18917549664 9.5293155143918
   endloop
endfacet
facet normal -0.334341854758749 0.585098245827811 0.73883392375127
   outer loop
      vertex 733.893181818467 -1410.10651803822 9.5293155143918
      vertex 735.493036090395 -1410.18917549664 10.31875
      vertex 744.714799223571 -1403.92273666387 9.5293155143918
   endloop
endfacet
facet normal -0.334341854758749 0.585098245827811 0.73883392375127
   outer loop
      vertex 744.714799223571 -1403.92273666387 9.5293155143918
      vertex 735.493036090395 -1410.18917549664 10.31875
      vertex 744.714799223571 -1404.9195965634 10.31875
   endloop
endfacet
facet normal -0.334341854758796 -0.585098245827888 0.738833923751188
   outer loop
      vertex 733.893181818467 -1410.27183295506 9.5293155143918
      vertex 735.493036090395 -1410.18917549664 10.31875
      vertex 733.748531266231 -1410.18917549664 9.5293155143918
   endloop
endfacet
facet normal -0.334341854758796 -0.585098245827888 0.738833923751188
   outer loop
      vertex 735.493036090395 -1410.18917549664 10.31875
      vertex 733.893181818467 -1410.27183295506 9.5293155143918
      vertex 744.714799223571 -1416.4556143294 9.5293155143918
   endloop
endfacet
facet normal -0.334341854758796 -0.585098245827888 0.738833923751188
   outer loop
      vertex 735.493036090395 -1410.18917549664 10.31875
      vertex 744.714799223571 -1416.4556143294 9.5293155143918
      vertex 744.714799223571 -1415.45875442988 10.31875
   endloop
endfacet
facet normal 0.334341854758761 0.585098245827828 0.738833923751251
   outer loop
      vertex 753.936562356747 -1410.18917549664 10.31875
      vertex 744.714799223571 -1403.92273666387 9.5293155143918
      vertex 744.714799223571 -1404.9195965634 10.31875
   endloop
endfacet
facet normal 0.334341854758761 0.585098245827828 0.738833923751251
   outer loop
      vertex 744.714799223571 -1403.92273666387 9.5293155143918
      vertex 753.936562356747 -1410.18917549664 10.31875
      vertex 755.536416628675 -1410.10651803822 9.5293155143918
   endloop
endfacet
facet normal 0.334341854758761 0.585098245827828 0.738833923751251
   outer loop
      vertex 755.536416628675 -1410.10651803822 9.5293155143918
      vertex 753.936562356747 -1410.18917549664 10.31875
      vertex 755.681067180911 -1410.18917549664 9.5293155143918
   endloop
endfacet
facet normal -0.496138938356836 -0.868243142124458 0.0
   outer loop
      vertex 744.714799223571 -1415.45875442988 10.715625
      vertex 735.493036090395 -1410.18917549664 10.31875
      vertex 744.714799223571 -1415.45875442988 10.31875
   endloop
endfacet
facet normal -0.496138938356836 -0.868243142124458 0.0
   outer loop
      vertex 735.493036090395 -1410.18917549664 10.31875
      vertex 744.714799223571 -1415.45875442988 10.715625
      vertex 735.493036090395 -1410.18917549664 10.715625
   endloop
endfacet
facet normal 0.496138938356836 0.868243142124458 0.0
   outer loop
      vertex 744.714799223571 -1404.9195965634 10.715625
      vertex 753.936562356747 -1410.18917549664 10.31875
      vertex 744.714799223571 -1404.9195965634 10.31875
   endloop
endfacet
facet normal 0.496138938356836 0.868243142124458 0.0
   outer loop
      vertex 753.936562356747 -1410.18917549664 10.31875
      vertex 744.714799223571 -1404.9195965634 10.715625
      vertex 753.936562356747 -1410.18917549664 10.715625
   endloop
endfacet
facet normal -0.496138938356836 0.868243142124458 0.0
   outer loop
      vertex 735.493036090395 -1410.18917549664 10.715625
      vertex 744.714799223571 -1404.9195965634 10.31875
      vertex 735.493036090395 -1410.18917549664 10.31875
   endloop
endfacet
facet normal -0.496138938356836 0.868243142124458 0.0
   outer loop
      vertex 744.714799223571 -1404.9195965634 10.31875
      vertex 735.493036090395 -1410.18917549664 10.715625
      vertex 744.714799223571 -1404.9195965634 10.715625
   endloop
endfacet
facet normal 0.496138938356836 -0.868243142124458 0.0
   outer loop
      vertex 753.936562356747 -1410.18917549664 10.715625
      vertex 744.714799223571 -1415.45875442988 10.31875
      vertex 753.936562356747 -1410.18917549664 10.31875
   endloop
endfacet
facet normal 0.496138938356836 -0.868243142124458 0.0
   outer loop
      vertex 744.714799223571 -1415.45875442988 10.31875
      vertex 753.936562356747 -1410.18917549664 10.715625
      vertex 744.714799223571 -1415.45875442988 10.715625
   endloop
endfacet
facet normal -0.496138938356836 -0.868243142124458 0.0
   outer loop
      vertex 716.314660238158 -1415.45875442988 10.715625
      vertex 707.092897104981 -1410.18917549664 10.31875
      vertex 716.314660238158 -1415.45875442988 10.31875
   endloop
endfacet
facet normal -0.496138938356836 -0.868243142124458 0.0
   outer loop
      vertex 707.092897104981 -1410.18917549664 10.31875
      vertex 716.314660238158 -1415.45875442988 10.715625
      vertex 707.092897104981 -1410.18917549664 10.715625
   endloop
endfacet
facet normal 0.496138938356836 0.868243142124458 0.0
   outer loop
      vertex 716.314660238158 -1404.9195965634 10.715625
      vertex 725.536423371334 -1410.18917549664 10.31875
      vertex 716.314660238158 -1404.9195965634 10.31875
   endloop
endfacet
facet normal 0.496138938356836 0.868243142124458 0.0
   outer loop
      vertex 725.536423371334 -1410.18917549664 10.31875
      vertex 716.314660238158 -1404.9195965634 10.715625
      vertex 725.536423371334 -1410.18917549664 10.715625
   endloop
endfacet
facet normal -0.496138938356836 0.868243142124458 0.0
   outer loop
      vertex 707.092897104981 -1410.18917549664 10.715625
      vertex 716.314660238158 -1404.9195965634 10.31875
      vertex 707.092897104981 -1410.18917549664 10.31875
   endloop
endfacet
facet normal -0.496138938356836 0.868243142124458 0.0
   outer loop
      vertex 716.314660238158 -1404.9195965634 10.31875
      vertex 707.092897104981 -1410.18917549664 10.715625
      vertex 716.314660238158 -1404.9195965634 10.715625
   endloop
endfacet
facet normal 0.496138938356836 -0.868243142124458 0.0
   outer loop
      vertex 725.536423371334 -1410.18917549664 10.715625
      vertex 716.314660238158 -1415.45875442988 10.31875
      vertex 725.536423371334 -1410.18917549664 10.31875
   endloop
endfacet
facet normal 0.496138938356836 -0.868243142124458 0.0
   outer loop
      vertex 716.314660238158 -1415.45875442988 10.31875
      vertex 725.536423371334 -1410.18917549664 10.715625
      vertex 716.314660238158 -1415.45875442988 10.715625
   endloop
endfacet
endsolid Milk Strap B_1_a_5-24-13
