solid Milk Strap B_1_a_5-24-13
facet normal -0.483801379829241 0.846652414701176 0.221621103588965
   outer loop
      vertex 1136.95030707157 -1401.98980542938 8.73125
      vertex 1144.06317139175 -1395.63980542938 0.0
      vertex 1132.95067139175 -1401.98980542938 0.0
   endloop
endfacet
facet normal -0.483801379829241 0.846652414701176 0.221621103588965
   outer loop
      vertex 1144.06317139175 -1395.63980542938 0.0
      vertex 1136.95030707157 -1401.98980542938 8.73125
      vertex 1144.06317139175 -1397.92531153213 8.73125
   endloop
endfacet
facet normal -0.483801379829241 -0.846652414701176 0.221621103588965
   outer loop
      vertex 1144.06317139175 -1406.05429932662 8.73125
      vertex 1132.95067139175 -1401.98980542938 0.0
      vertex 1144.06317139175 -1408.33980542938 0.0
   endloop
endfacet
facet normal -0.483801379829241 -0.846652414701176 0.221621103588965
   outer loop
      vertex 1132.95067139175 -1401.98980542938 0.0
      vertex 1144.06317139175 -1406.05429932662 8.73125
      vertex 1136.95030707157 -1401.98980542938 8.73125
   endloop
endfacet
facet normal 0.483801379829241 0.846652414701176 0.221621103588965
   outer loop
      vertex 1144.06317139175 -1397.92531153213 8.73125
      vertex 1155.17567139175 -1401.98980542938 0.0
      vertex 1144.06317139175 -1395.63980542938 0.0
   endloop
endfacet
facet normal 0.483801379829241 0.846652414701176 0.221621103588965
   outer loop
      vertex 1155.17567139175 -1401.98980542938 0.0
      vertex 1144.06317139175 -1397.92531153213 8.73125
      vertex 1151.17603571193 -1401.98980542938 8.73125
   endloop
endfacet
facet normal 0.0 0.0 -1.0
   outer loop
      vertex 1144.06317139175 -1395.63980542938 0.0
      vertex 1144.06317139175 -1408.33980542938 0.0
      vertex 1132.95067139175 -1401.98980542938 0.0
   endloop
endfacet
facet normal 0.0 0.0 -1.0
   outer loop
      vertex 1144.06317139175 -1408.33980542938 0.0
      vertex 1144.06317139175 -1395.63980542938 0.0
      vertex 1155.17567139175 -1401.98980542938 0.0
   endloop
endfacet
facet normal 0.0 0.0 1.0
   outer loop
      vertex 1144.06317139175 -1406.05429932662 8.73125
      vertex 1144.06317139175 -1397.92531153213 8.73125
      vertex 1136.95030707157 -1401.98980542938 8.73125
   endloop
endfacet
facet normal 0.0 0.0 1.0
   outer loop
      vertex 1144.06317139175 -1397.92531153213 8.73125
      vertex 1144.06317139175 -1406.05429932662 8.73125
      vertex 1151.17603571193 -1401.98980542938 8.73125
   endloop
endfacet
facet normal 0.483801379829241 -0.846652414701176 0.221621103588965
   outer loop
      vertex 1151.17603571193 -1401.98980542938 8.73125
      vertex 1144.06317139175 -1408.33980542938 0.0
      vertex 1155.17567139175 -1401.98980542938 0.0
   endloop
endfacet
facet normal 0.483801379829241 -0.846652414701176 0.221621103588965
   outer loop
      vertex 1144.06317139175 -1408.33980542938 0.0
      vertex 1151.17603571193 -1401.98980542938 8.73125
      vertex 1144.06317139175 -1406.05429932662 8.73125
   endloop
endfacet
endsolid Milk Strap B_1_a_5-24-13
