solid Milk Strap B_1_a_5-24-13
facet normal 1.0 0.0 0.0
   outer loop
      vertex 862.836861708495 -1409.73560406807 -1.190625
      vertex 862.836861708495 -1410.64274692521 1.984375
      vertex 862.836861708495 -1410.64274692521 -1.190625
   endloop
endfacet
facet normal 1.0 0.0 0.0
   outer loop
      vertex 862.836861708495 -1410.64274692521 1.984375
      vertex 862.836861708495 -1409.73560406807 -1.190625
      vertex 862.836861708495 -1410.18917549664 6.31628810552825
   endloop
endfacet
facet normal 1.0 0.0 0.0
   outer loop
      vertex 862.836861708495 -1410.18917549664 6.31628810552825
      vertex 862.836861708495 -1409.73560406807 -1.190625
      vertex 862.836861708495 -1409.73560406807 1.984375
   endloop
endfacet
facet normal 9.99770703945657e-020 0.999999875846605 -0.000498303897646079
   outer loop
      vertex 851.281860680187 -1403.52774150074 5.7568452571959
      vertex 851.976391930187 -1403.52962133761 1.984375
      vertex 850.587329430187 -1403.52962133761 1.984375
   endloop
endfacet
facet normal 0.0 0.999999970283138 -0.000243790326103731
   outer loop
      vertex 836.38725993748 -1395.4152959132 1.984375
      vertex 837.77632243748 -1395.4152959132 -1.190625
      vertex 836.38725993748 -1395.4152959132 -1.190625
   endloop
endfacet
facet normal 0.0 0.999999970283138 -0.000243790326103731
   outer loop
      vertex 837.77632243748 -1395.4152959132 -1.190625
      vertex 836.38725993748 -1395.4152959132 1.984375
      vertex 837.77632243748 -1395.4152959132 1.984375
   endloop
endfacet
facet normal 0.0 0.999999970283138 -0.000243790326103731
   outer loop
      vertex 837.77632243748 -1395.4152959132 1.984375
      vertex 836.38725993748 -1395.4152959132 1.984375
      vertex 837.08179118748 -1395.41341607634 5.7568452571959
   endloop
endfacet
facet normal 0.494101398173663 -0.864677446803926 0.0905357460425189
   outer loop
      vertex 848.636792215788 -1402.07485007224 6.31628810552825
      vertex 837.77632243748 -1408.73440423127 1.984375
      vertex 848.636792215788 -1402.52842150081 1.984375
   endloop
endfacet
facet normal 0.494101398173663 -0.864677446803926 0.0905357460425189
   outer loop
      vertex 837.77632243748 -1408.73440423127 1.984375
      vertex 848.636792215788 -1402.07485007224 6.31628810552825
      vertex 837.08179118748 -1408.73628406813 5.7568452571959
   endloop
endfacet
facet normal 0.494101398173663 -0.864677446803926 0.0905357460425189
   outer loop
      vertex 837.08179118748 -1408.73628406813 5.7568452571959
      vertex 848.636792215788 -1402.07485007224 6.31628810552825
      vertex 837.08179118748 -1408.341288905 9.5293155143918
   endloop
endfacet
facet normal 0.494101398173663 -0.864677446803926 0.0905357460425189
   outer loop
      vertex 837.08179118748 -1408.341288905 9.5293155143918
      vertex 848.636792215788 -1402.07485007224 6.31628810552825
      vertex 848.04805914482 -1402.07485007224 9.5293155143918
   endloop
endfacet
facet normal 0.0 0.0 1.0
   outer loop
      vertex 839.726859651879 -1410.64274692521 1.984375
      vertex 837.77632243748 -1408.73440423127 1.984375
      vertex 836.38725993748 -1408.73440423127 1.984375
   endloop
endfacet
facet normal 0.0 0.0 1.0
   outer loop
      vertex 837.77632243748 -1408.73440423127 1.984375
      vertex 839.726859651879 -1410.64274692521 1.984375
      vertex 839.726859651879 -1409.73560406807 1.984375
   endloop
endfacet
facet normal 0.0 0.0 1.0
   outer loop
      vertex 837.77632243748 -1408.73440423127 1.984375
      vertex 839.726859651879 -1409.73560406807 1.984375
      vertex 848.636792215788 -1402.52842150081 1.984375
   endloop
endfacet
facet normal 0.0 0.0 1.0
   outer loop
      vertex 848.636792215788 -1402.52842150081 1.984375
      vertex 839.726859651879 -1409.73560406807 1.984375
      vertex 850.587329430187 -1403.52962133761 1.984375
   endloop
endfacet
facet normal 0.0 0.0 1.0
   outer loop
      vertex 848.636792215788 -1402.52842150081 1.984375
      vertex 850.587329430187 -1403.52962133761 1.984375
      vertex 848.636792215788 -1401.62127864366 1.984375
   endloop
endfacet
facet normal 0.0 0.0 1.0
   outer loop
      vertex 848.636792215788 -1401.62127864366 1.984375
      vertex 850.587329430187 -1403.52962133761 1.984375
      vertex 851.976391930187 -1403.52962133761 1.984375
   endloop
endfacet
facet normal -0.496138938356821 0.868243142124466 0.0
   outer loop
      vertex 825.526790159172 -1401.62127864366 1.984375
      vertex 836.38725993748 -1395.4152959132 -1.190625
      vertex 825.526790159172 -1401.62127864366 -1.190625
   endloop
endfacet
facet normal -0.496138938356821 0.868243142124466 0.0
   outer loop
      vertex 836.38725993748 -1395.4152959132 -1.190625
      vertex 825.526790159172 -1401.62127864366 1.984375
      vertex 836.38725993748 -1395.4152959132 1.984375
   endloop
endfacet
facet normal 0.496138938356825 0.868243142124464 -7.87507435298022e-017
   outer loop
      vertex 837.77632243748 -1395.4152959132 1.984375
      vertex 862.836861708495 -1409.73560406807 -1.190625
      vertex 837.77632243748 -1395.4152959132 -1.190625
   endloop
endfacet
facet normal 0.496138938356825 0.868243142124464 -7.87507435298022e-017
   outer loop
      vertex 862.836861708495 -1409.73560406807 -1.190625
      vertex 837.77632243748 -1395.4152959132 1.984375
      vertex 862.836861708495 -1409.73560406807 1.984375
   endloop
endfacet
facet normal 0.496138938356825 0.868243142124464 -7.87507435298022e-017
   outer loop
      vertex 862.836861708495 -1409.73560406807 1.984375
      vertex 837.77632243748 -1395.4152959132 1.984375
      vertex 848.636792215788 -1401.62127864366 1.984375
   endloop
endfacet
facet normal 0.496138938356825 0.868243142124464 -7.87507435298022e-017
   outer loop
      vertex 862.836861708495 -1409.73560406807 1.984375
      vertex 848.636792215788 -1401.62127864366 1.984375
      vertex 851.976391930187 -1403.52962133761 1.984375
   endloop
endfacet
facet normal 0.494101398173663 -0.864677446803926 0.0905357460425189
   outer loop
      vertex 862.836861708495 -1410.18917549664 6.31628810552825
      vertex 851.976391930187 -1416.84872965567 1.984375
      vertex 862.836861708495 -1410.64274692521 1.984375
   endloop
endfacet
facet normal 0.494101398173663 -0.864677446803926 0.0905357460425189
   outer loop
      vertex 851.976391930187 -1416.84872965567 1.984375
      vertex 862.836861708495 -1410.18917549664 6.31628810552825
      vertex 851.281860680187 -1416.85060949254 5.7568452571959
   endloop
endfacet
facet normal 0.494101398173663 -0.864677446803926 0.0905357460425189
   outer loop
      vertex 851.281860680187 -1416.85060949254 5.7568452571959
      vertex 862.836861708495 -1410.18917549664 6.31628810552825
      vertex 851.281860680187 -1416.4556143294 9.5293155143918
   endloop
endfacet
facet normal 0.494101398173663 -0.864677446803926 0.0905357460425189
   outer loop
      vertex 851.281860680187 -1416.4556143294 9.5293155143918
      vertex 862.836861708495 -1410.18917549664 6.31628810552825
      vertex 862.248128637527 -1410.18917549664 9.5293155143918
   endloop
endfacet
facet normal 0.334341854758759 0.585098245827825 0.738833923751255
   outer loop
      vertex 846.303554320656 -1402.07485007224 10.31875
      vertex 837.08179118748 -1395.80841123947 9.5293155143918
      vertex 837.08179118748 -1396.80527113899 10.31875
   endloop
endfacet
facet normal 0.334341854758759 0.585098245827825 0.738833923751255
   outer loop
      vertex 837.08179118748 -1395.80841123947 9.5293155143918
      vertex 846.303554320656 -1402.07485007224 10.31875
      vertex 847.903408592584 -1401.99219261381 9.5293155143918
   endloop
endfacet
facet normal 0.334341854758759 0.585098245827825 0.738833923751255
   outer loop
      vertex 847.903408592584 -1401.99219261381 9.5293155143918
      vertex 846.303554320656 -1402.07485007224 10.31875
      vertex 848.04805914482 -1402.07485007224 9.5293155143918
   endloop
endfacet
facet normal 1.0 0.0 0.0
   outer loop
      vertex 848.636792215788 -1401.62127864366 1.984375
      vertex 848.636792215788 -1402.07485007224 6.31628810552825
      vertex 848.636792215788 -1402.52842150081 1.984375
   endloop
endfacet
facet normal -0.334341854758796 -0.585098245827888 0.738833923751188
   outer loop
      vertex 826.260173782376 -1402.15750753066 9.5293155143918
      vertex 827.860028054304 -1402.07485007224 10.31875
      vertex 826.115523230141 -1402.07485007224 9.5293155143918
   endloop
endfacet
facet normal -0.334341854758796 -0.585098245827888 0.738833923751188
   outer loop
      vertex 827.860028054304 -1402.07485007224 10.31875
      vertex 826.260173782376 -1402.15750753066 9.5293155143918
      vertex 837.08179118748 -1408.341288905 9.5293155143918
   endloop
endfacet
facet normal -0.334341854758796 -0.585098245827888 0.738833923751188
   outer loop
      vertex 827.860028054304 -1402.07485007224 10.31875
      vertex 837.08179118748 -1408.341288905 9.5293155143918
      vertex 837.08179118748 -1407.34442900548 10.31875
   endloop
endfacet
facet normal 0.0 -0.999999875846605 -0.00049830389764608
   outer loop
      vertex 837.08179118748 -1408.73628406813 5.7568452571959
      vertex 836.38725993748 -1408.73440423127 1.984375
      vertex 837.77632243748 -1408.73440423127 1.984375
   endloop
endfacet
facet normal -0.334341854758751 0.585098245827815 0.738833923751267
   outer loop
      vertex 827.860028054304 -1402.07485007224 10.31875
      vertex 826.260173782376 -1401.99219261381 9.5293155143918
      vertex 826.115523230141 -1402.07485007224 9.5293155143918
   endloop
endfacet
facet normal -0.334341854758751 0.585098245827815 0.738833923751267
   outer loop
      vertex 826.260173782376 -1401.99219261381 9.5293155143918
      vertex 827.860028054304 -1402.07485007224 10.31875
      vertex 837.08179118748 -1395.80841123947 9.5293155143918
   endloop
endfacet
facet normal -0.334341854758751 0.585098245827815 0.738833923751267
   outer loop
      vertex 837.08179118748 -1395.80841123947 9.5293155143918
      vertex 827.860028054304 -1402.07485007224 10.31875
      vertex 837.08179118748 -1396.80527113899 10.31875
   endloop
endfacet
facet normal -0.494101398173662 0.864677446803928 0.0905357460425036
   outer loop
      vertex 825.526790159172 -1402.07485007224 6.31628810552825
      vertex 836.38725993748 -1395.4152959132 1.984375
      vertex 825.526790159172 -1401.62127864366 1.984375
   endloop
endfacet
facet normal -0.494101398173662 0.864677446803928 0.0905357460425036
   outer loop
      vertex 836.38725993748 -1395.4152959132 1.984375
      vertex 825.526790159172 -1402.07485007224 6.31628810552825
      vertex 837.08179118748 -1395.41341607634 5.7568452571959
   endloop
endfacet
facet normal -0.494101398173662 0.864677446803928 0.0905357460425036
   outer loop
      vertex 837.08179118748 -1395.41341607634 5.7568452571959
      vertex 825.526790159172 -1402.07485007224 6.31628810552825
      vertex 837.08179118748 -1395.80841123947 9.5293155143918
   endloop
endfacet
facet normal -0.494101398173662 0.864677446803928 0.0905357460425036
   outer loop
      vertex 837.08179118748 -1395.80841123947 9.5293155143918
      vertex 825.526790159172 -1402.07485007224 6.31628810552825
      vertex 826.115523230141 -1402.07485007224 9.5293155143918
   endloop
endfacet
facet normal -0.494101398173662 0.864677446803928 0.0905357460425036
   outer loop
      vertex 837.08179118748 -1395.80841123947 9.5293155143918
      vertex 826.115523230141 -1402.07485007224 9.5293155143918
      vertex 826.260173782376 -1401.99219261381 9.5293155143918
   endloop
endfacet
facet normal 0.334341854758759 0.585098245827825 0.738833923751255
   outer loop
      vertex 860.503623813363 -1410.18917549664 10.31875
      vertex 851.281860680187 -1403.92273666387 9.5293155143918
      vertex 851.281860680187 -1404.9195965634 10.31875
   endloop
endfacet
facet normal 0.334341854758759 0.585098245827825 0.738833923751255
   outer loop
      vertex 851.281860680187 -1403.92273666387 9.5293155143918
      vertex 860.503623813363 -1410.18917549664 10.31875
      vertex 862.103478085291 -1410.10651803822 9.5293155143918
   endloop
endfacet
facet normal 0.334341854758759 0.585098245827825 0.738833923751255
   outer loop
      vertex 862.103478085291 -1410.10651803822 9.5293155143918
      vertex 860.503623813363 -1410.18917549664 10.31875
      vertex 862.248128637527 -1410.18917549664 9.5293155143918
   endloop
endfacet
facet normal -0.494101398173669 -0.864677446803921 0.0905357460425291
   outer loop
      vertex 837.08179118748 -1408.73628406813 5.7568452571959
      vertex 825.526790159172 -1402.52842150081 1.984375
      vertex 836.38725993748 -1408.73440423127 1.984375
   endloop
endfacet
facet normal -0.494101398173669 -0.864677446803921 0.0905357460425291
   outer loop
      vertex 825.526790159172 -1402.52842150081 1.984375
      vertex 837.08179118748 -1408.73628406813 5.7568452571959
      vertex 825.526790159172 -1402.07485007224 6.31628810552825
   endloop
endfacet
facet normal -0.494101398173669 -0.864677446803921 0.0905357460425291
   outer loop
      vertex 825.526790159172 -1402.07485007224 6.31628810552825
      vertex 837.08179118748 -1408.73628406813 5.7568452571959
      vertex 837.08179118748 -1408.341288905 9.5293155143918
   endloop
endfacet
facet normal -0.494101398173669 -0.864677446803921 0.0905357460425291
   outer loop
      vertex 825.526790159172 -1402.07485007224 6.31628810552825
      vertex 837.08179118748 -1408.341288905 9.5293155143918
      vertex 826.260173782376 -1402.15750753066 9.5293155143918
   endloop
endfacet
facet normal -0.494101398173669 -0.864677446803921 0.0905357460425291
   outer loop
      vertex 825.526790159172 -1402.07485007224 6.31628810552825
      vertex 826.260173782376 -1402.15750753066 9.5293155143918
      vertex 826.115523230141 -1402.07485007224 9.5293155143918
   endloop
endfacet
facet normal 0.496138938356821 -0.868243142124466 0.0
   outer loop
      vertex 862.836861708495 -1410.64274692521 1.984375
      vertex 851.976391930187 -1416.84872965567 -1.190625
      vertex 862.836861708495 -1410.64274692521 -1.190625
   endloop
endfacet
facet normal 0.496138938356821 -0.868243142124466 0.0
   outer loop
      vertex 851.976391930187 -1416.84872965567 -1.190625
      vertex 862.836861708495 -1410.64274692521 1.984375
      vertex 851.976391930187 -1416.84872965567 1.984375
   endloop
endfacet
facet normal -1.0 0.0 0.0
   outer loop
      vertex 825.526790159172 -1402.07485007224 6.31628810552825
      vertex 825.526790159172 -1402.52842150081 -1.190625
      vertex 825.526790159172 -1402.52842150081 1.984375
   endloop
endfacet
facet normal -1.0 0.0 0.0
   outer loop
      vertex 825.526790159172 -1402.52842150081 -1.190625
      vertex 825.526790159172 -1402.07485007224 6.31628810552825
      vertex 825.526790159172 -1401.62127864366 -1.190625
   endloop
endfacet
facet normal -1.0 0.0 0.0
   outer loop
      vertex 825.526790159172 -1401.62127864366 -1.190625
      vertex 825.526790159172 -1402.07485007224 6.31628810552825
      vertex 825.526790159172 -1401.62127864366 1.984375
   endloop
endfacet
facet normal -0.0 -0.0 -1.0
   outer loop
      vertex 836.38725993748 -1395.4152959132 -1.190625
      vertex 825.526790159172 -1402.52842150081 -1.190625
      vertex 825.526790159172 -1401.62127864366 -1.190625
   endloop
endfacet
facet normal -0.0 -0.0 -1.0
   outer loop
      vertex 825.526790159172 -1402.52842150081 -1.190625
      vertex 836.38725993748 -1395.4152959132 -1.190625
      vertex 850.587329430187 -1416.84872965567 -1.190625
   endloop
endfacet
facet normal -0.0 -0.0 -1.0
   outer loop
      vertex 850.587329430187 -1416.84872965567 -1.190625
      vertex 836.38725993748 -1395.4152959132 -1.190625
      vertex 837.77632243748 -1395.4152959132 -1.190625
   endloop
endfacet
facet normal -0.0 -0.0 -1.0
   outer loop
      vertex 850.587329430187 -1416.84872965567 -1.190625
      vertex 837.77632243748 -1395.4152959132 -1.190625
      vertex 862.836861708495 -1409.73560406807 -1.190625
   endloop
endfacet
facet normal -0.0 -0.0 -1.0
   outer loop
      vertex 850.587329430187 -1416.84872965567 -1.190625
      vertex 862.836861708495 -1409.73560406807 -1.190625
      vertex 851.976391930187 -1416.84872965567 -1.190625
   endloop
endfacet
facet normal -0.0 -0.0 -1.0
   outer loop
      vertex 851.976391930187 -1416.84872965567 -1.190625
      vertex 862.836861708495 -1409.73560406807 -1.190625
      vertex 862.836861708495 -1410.64274692521 -1.190625
   endloop
endfacet
facet normal 0.0 0.0 1.0
   outer loop
      vertex 837.08179118748 -1407.34442900548 10.31875
      vertex 837.08179118748 -1396.80527113899 10.31875
      vertex 827.860028054304 -1402.07485007224 10.31875
   endloop
endfacet
facet normal 0.0 0.0 1.0
   outer loop
      vertex 837.08179118748 -1396.80527113899 10.31875
      vertex 837.08179118748 -1407.34442900548 10.31875
      vertex 846.303554320656 -1402.07485007224 10.31875
   endloop
endfacet
facet normal 0.334341854758775 -0.585098245827861 0.738833923751219
   outer loop
      vertex 848.04805914482 -1402.07485007224 9.5293155143918
      vertex 837.08179118748 -1407.34442900548 10.31875
      vertex 837.08179118748 -1408.341288905 9.5293155143918
   endloop
endfacet
facet normal 0.334341854758775 -0.585098245827861 0.738833923751219
   outer loop
      vertex 837.08179118748 -1407.34442900548 10.31875
      vertex 848.04805914482 -1402.07485007224 9.5293155143918
      vertex 846.303554320656 -1402.07485007224 10.31875
   endloop
endfacet
facet normal -0.334341854758796 -0.585098245827888 0.738833923751188
   outer loop
      vertex 840.460243275083 -1410.27183295506 9.5293155143918
      vertex 842.060097547011 -1410.18917549664 10.31875
      vertex 840.315592722847 -1410.18917549664 9.5293155143918
   endloop
endfacet
facet normal -0.334341854758796 -0.585098245827888 0.738833923751188
   outer loop
      vertex 842.060097547011 -1410.18917549664 10.31875
      vertex 840.460243275083 -1410.27183295506 9.5293155143918
      vertex 851.281860680187 -1416.4556143294 9.5293155143918
   endloop
endfacet
facet normal -0.334341854758796 -0.585098245827888 0.738833923751188
   outer loop
      vertex 842.060097547011 -1410.18917549664 10.31875
      vertex 851.281860680187 -1416.4556143294 9.5293155143918
      vertex 851.281860680187 -1415.45875442988 10.31875
   endloop
endfacet
facet normal -0.496138938356825 -0.868243142124464 3.48568864804138e-017
   outer loop
      vertex 850.587329430187 -1416.84872965567 1.984375
      vertex 825.526790159172 -1402.52842150081 -1.190625
      vertex 850.587329430187 -1416.84872965567 -1.190625
   endloop
endfacet
facet normal -0.496138938356825 -0.868243142124464 3.48568864804138e-017
   outer loop
      vertex 825.526790159172 -1402.52842150081 -1.190625
      vertex 850.587329430187 -1416.84872965567 1.984375
      vertex 825.526790159172 -1402.52842150081 1.984375
   endloop
endfacet
facet normal -0.496138938356825 -0.868243142124464 3.48568864804138e-017
   outer loop
      vertex 825.526790159172 -1402.52842150081 1.984375
      vertex 850.587329430187 -1416.84872965567 1.984375
      vertex 839.726859651879 -1410.64274692521 1.984375
   endloop
endfacet
facet normal -0.496138938356825 -0.868243142124464 3.48568864804138e-017
   outer loop
      vertex 825.526790159172 -1402.52842150081 1.984375
      vertex 839.726859651879 -1410.64274692521 1.984375
      vertex 836.38725993748 -1408.73440423127 1.984375
   endloop
endfacet
facet normal 0.494101398173667 0.864677446803924 0.090535746042509
   outer loop
      vertex 837.08179118748 -1395.41341607634 5.7568452571959
      vertex 848.636792215788 -1401.62127864366 1.984375
      vertex 837.77632243748 -1395.4152959132 1.984375
   endloop
endfacet
facet normal 0.494101398173667 0.864677446803924 0.090535746042509
   outer loop
      vertex 848.636792215788 -1401.62127864366 1.984375
      vertex 837.08179118748 -1395.41341607634 5.7568452571959
      vertex 848.636792215788 -1402.07485007224 6.31628810552825
   endloop
endfacet
facet normal 0.494101398173667 0.864677446803924 0.090535746042509
   outer loop
      vertex 848.636792215788 -1402.07485007224 6.31628810552825
      vertex 837.08179118748 -1395.41341607634 5.7568452571959
      vertex 837.08179118748 -1395.80841123947 9.5293155143918
   endloop
endfacet
facet normal 0.494101398173667 0.864677446803924 0.090535746042509
   outer loop
      vertex 848.636792215788 -1402.07485007224 6.31628810552825
      vertex 837.08179118748 -1395.80841123947 9.5293155143918
      vertex 848.04805914482 -1402.07485007224 9.5293155143918
   endloop
endfacet
facet normal 0.494101398173667 0.864677446803924 0.090535746042509
   outer loop
      vertex 848.04805914482 -1402.07485007224 9.5293155143918
      vertex 837.08179118748 -1395.80841123947 9.5293155143918
      vertex 847.903408592584 -1401.99219261381 9.5293155143918
   endloop
endfacet
facet normal -8.83793088069346e-021 -0.999999970283138 -0.000243790326103731
   outer loop
      vertex 851.976391930187 -1416.84872965567 1.984375
      vertex 850.587329430187 -1416.84872965567 -1.190625
      vertex 851.976391930187 -1416.84872965567 -1.190625
   endloop
endfacet
facet normal -8.83793088069346e-021 -0.999999970283138 -0.000243790326103731
   outer loop
      vertex 850.587329430187 -1416.84872965567 -1.190625
      vertex 851.976391930187 -1416.84872965567 1.984375
      vertex 850.587329430187 -1416.84872965567 1.984375
   endloop
endfacet
facet normal -8.83793088069346e-021 -0.999999970283138 -0.000243790326103731
   outer loop
      vertex 850.587329430187 -1416.84872965567 1.984375
      vertex 851.976391930187 -1416.84872965567 1.984375
      vertex 851.281860680187 -1416.85060949254 5.7568452571959
   endloop
endfacet
facet normal -0.334341854758751 0.585098245827815 0.738833923751267
   outer loop
      vertex 842.060097547011 -1410.18917549664 10.31875
      vertex 840.460243275083 -1410.10651803822 9.5293155143918
      vertex 840.315592722847 -1410.18917549664 9.5293155143918
   endloop
endfacet
facet normal -0.334341854758751 0.585098245827815 0.738833923751267
   outer loop
      vertex 840.460243275083 -1410.10651803822 9.5293155143918
      vertex 842.060097547011 -1410.18917549664 10.31875
      vertex 851.281860680187 -1403.92273666387 9.5293155143918
   endloop
endfacet
facet normal -0.334341854758751 0.585098245827815 0.738833923751267
   outer loop
      vertex 851.281860680187 -1403.92273666387 9.5293155143918
      vertex 842.060097547011 -1410.18917549664 10.31875
      vertex 851.281860680187 -1404.9195965634 10.31875
   endloop
endfacet
facet normal -0.494101398173662 0.864677446803928 0.0905357460425037
   outer loop
      vertex 839.726859651879 -1410.18917549664 6.31628810552825
      vertex 850.587329430187 -1403.52962133761 1.984375
      vertex 839.726859651879 -1409.73560406807 1.984375
   endloop
endfacet
facet normal -0.494101398173662 0.864677446803928 0.0905357460425037
   outer loop
      vertex 850.587329430187 -1403.52962133761 1.984375
      vertex 839.726859651879 -1410.18917549664 6.31628810552825
      vertex 851.281860680187 -1403.52774150074 5.7568452571959
   endloop
endfacet
facet normal -0.494101398173662 0.864677446803928 0.0905357460425037
   outer loop
      vertex 851.281860680187 -1403.52774150074 5.7568452571959
      vertex 839.726859651879 -1410.18917549664 6.31628810552825
      vertex 851.281860680187 -1403.92273666387 9.5293155143918
   endloop
endfacet
facet normal -0.494101398173662 0.864677446803928 0.0905357460425037
   outer loop
      vertex 851.281860680187 -1403.92273666387 9.5293155143918
      vertex 839.726859651879 -1410.18917549664 6.31628810552825
      vertex 840.315592722847 -1410.18917549664 9.5293155143918
   endloop
endfacet
facet normal -0.494101398173662 0.864677446803928 0.0905357460425037
   outer loop
      vertex 851.281860680187 -1403.92273666387 9.5293155143918
      vertex 840.315592722847 -1410.18917549664 9.5293155143918
      vertex 840.460243275083 -1410.10651803822 9.5293155143918
   endloop
endfacet
facet normal -0.494101398173669 -0.864677446803921 0.0905357460425291
   outer loop
      vertex 851.281860680187 -1416.85060949254 5.7568452571959
      vertex 839.726859651879 -1410.64274692521 1.984375
      vertex 850.587329430187 -1416.84872965567 1.984375
   endloop
endfacet
facet normal -0.494101398173669 -0.864677446803921 0.0905357460425291
   outer loop
      vertex 839.726859651879 -1410.64274692521 1.984375
      vertex 851.281860680187 -1416.85060949254 5.7568452571959
      vertex 839.726859651879 -1410.18917549664 6.31628810552825
   endloop
endfacet
facet normal -0.494101398173669 -0.864677446803921 0.0905357460425291
   outer loop
      vertex 839.726859651879 -1410.18917549664 6.31628810552825
      vertex 851.281860680187 -1416.85060949254 5.7568452571959
      vertex 851.281860680187 -1416.4556143294 9.5293155143918
   endloop
endfacet
facet normal -0.494101398173669 -0.864677446803921 0.0905357460425291
   outer loop
      vertex 839.726859651879 -1410.18917549664 6.31628810552825
      vertex 851.281860680187 -1416.4556143294 9.5293155143918
      vertex 840.460243275083 -1410.27183295506 9.5293155143918
   endloop
endfacet
facet normal -0.494101398173669 -0.864677446803921 0.0905357460425291
   outer loop
      vertex 839.726859651879 -1410.18917549664 6.31628810552825
      vertex 840.460243275083 -1410.27183295506 9.5293155143918
      vertex 840.315592722847 -1410.18917549664 9.5293155143918
   endloop
endfacet
facet normal -1.0 0.0 0.0
   outer loop
      vertex 839.726859651879 -1409.73560406807 1.984375
      vertex 839.726859651879 -1410.64274692521 1.984375
      vertex 839.726859651879 -1410.18917549664 6.31628810552825
   endloop
endfacet
facet normal 0.0 0.0 1.0
   outer loop
      vertex 851.281860680187 -1415.45875442988 10.31875
      vertex 851.281860680187 -1404.9195965634 10.31875
      vertex 842.060097547011 -1410.18917549664 10.31875
   endloop
endfacet
facet normal 0.0 0.0 1.0
   outer loop
      vertex 851.281860680187 -1404.9195965634 10.31875
      vertex 851.281860680187 -1415.45875442988 10.31875
      vertex 860.503623813363 -1410.18917549664 10.31875
   endloop
endfacet
facet normal 0.334341854758775 -0.585098245827861 0.738833923751219
   outer loop
      vertex 862.248128637527 -1410.18917549664 9.5293155143918
      vertex 851.281860680187 -1415.45875442988 10.31875
      vertex 851.281860680187 -1416.4556143294 9.5293155143918
   endloop
endfacet
facet normal 0.334341854758775 -0.585098245827861 0.738833923751219
   outer loop
      vertex 851.281860680187 -1415.45875442988 10.31875
      vertex 862.248128637527 -1410.18917549664 9.5293155143918
      vertex 860.503623813363 -1410.18917549664 10.31875
   endloop
endfacet
facet normal 0.494101398173667 0.864677446803924 0.0905357460425089
   outer loop
      vertex 851.281860680187 -1403.52774150074 5.7568452571959
      vertex 862.836861708495 -1409.73560406807 1.984375
      vertex 851.976391930187 -1403.52962133761 1.984375
   endloop
endfacet
facet normal 0.494101398173667 0.864677446803924 0.0905357460425089
   outer loop
      vertex 862.836861708495 -1409.73560406807 1.984375
      vertex 851.281860680187 -1403.52774150074 5.7568452571959
      vertex 862.836861708495 -1410.18917549664 6.31628810552825
   endloop
endfacet
facet normal 0.494101398173667 0.864677446803924 0.0905357460425089
   outer loop
      vertex 862.836861708495 -1410.18917549664 6.31628810552825
      vertex 851.281860680187 -1403.52774150074 5.7568452571959
      vertex 851.281860680187 -1403.92273666387 9.5293155143918
   endloop
endfacet
facet normal 0.494101398173667 0.864677446803924 0.0905357460425089
   outer loop
      vertex 862.836861708495 -1410.18917549664 6.31628810552825
      vertex 851.281860680187 -1403.92273666387 9.5293155143918
      vertex 862.248128637527 -1410.18917549664 9.5293155143918
   endloop
endfacet
facet normal 0.494101398173667 0.864677446803924 0.0905357460425089
   outer loop
      vertex 862.248128637527 -1410.18917549664 9.5293155143918
      vertex 851.281860680187 -1403.92273666387 9.5293155143918
      vertex 862.103478085291 -1410.10651803822 9.5293155143918
   endloop
endfacet
endsolid Milk Strap B_1_a_5-24-13
