solid Milk Strap B_1_a_5-24-13
facet normal 0.0 0.0 1.0
   outer loop
      vertex 916.739460372893 -1408.25863144658 10.31875
      vertex 916.739460372893 -1395.89106869789 10.31875
      vertex 905.91784296779 -1402.07485007224 10.31875
   endloop
endfacet
facet normal 0.0 0.0 1.0
   outer loop
      vertex 916.739460372893 -1395.89106869789 10.31875
      vertex 916.739460372893 -1408.25863144658 10.31875
      vertex 927.561077777997 -1402.07485007224 10.31875
   endloop
endfacet
facet normal -0.494101398173665 0.864677446803925 0.0905357460425141
   outer loop
      vertex 891.717773475083 -1393.96052464783 10.31875
      vertex 902.539390880187 -1386.86254083238 1.5875
      vertex 890.117919203155 -1393.96052464783 1.5875
   endloop
endfacet
facet normal -0.494101398173665 0.864677446803925 0.0905357460425141
   outer loop
      vertex 902.539390880187 -1386.86254083238 1.5875
      vertex 891.717773475083 -1393.96052464783 10.31875
      vertex 902.539390880187 -1387.77674327349 10.31875
   endloop
endfacet
facet normal 0.494101398173665 -0.864677446803925 0.0905357460425141
   outer loop
      vertex 900.760793064512 -1402.07485007224 1.5875
      vertex 888.33932138748 -1408.25863144658 10.31875
      vertex 888.33932138748 -1409.17283388768 1.5875
   endloop
endfacet
facet normal 0.494101398173665 -0.864677446803925 0.0905357460425141
   outer loop
      vertex 888.33932138748 -1408.25863144658 10.31875
      vertex 900.760793064512 -1402.07485007224 1.5875
      vertex 899.160938792584 -1402.07485007224 10.31875
   endloop
endfacet
facet normal -0.494101398173665 -0.864677446803925 0.0905357460425141
   outer loop
      vertex 902.539390880187 -1400.14430602218 10.31875
      vertex 890.117919203155 -1393.96052464783 1.5875
      vertex 902.539390880187 -1401.05850846328 1.5875
   endloop
endfacet
facet normal -0.494101398173665 -0.864677446803925 0.0905357460425141
   outer loop
      vertex 890.117919203155 -1393.96052464783 1.5875
      vertex 902.539390880187 -1400.14430602218 10.31875
      vertex 891.717773475083 -1393.96052464783 10.31875
   endloop
endfacet
facet normal 0.0 0.0 1.0
   outer loop
      vertex 902.539390880187 -1400.14430602218 10.31875
      vertex 902.539390880187 -1387.77674327349 10.31875
      vertex 891.717773475083 -1393.96052464783 10.31875
   endloop
endfacet
facet normal 0.0 0.0 1.0
   outer loop
      vertex 902.539390880187 -1387.77674327349 10.31875
      vertex 902.539390880187 -1400.14430602218 10.31875
      vertex 913.361008285291 -1393.96052464783 10.31875
   endloop
endfacet
facet normal 0.494101398173665 -0.864677446803925 0.0905357460425141
   outer loop
      vertex 914.960862557219 -1393.96052464783 1.5875
      vertex 902.539390880187 -1400.14430602218 10.31875
      vertex 902.539390880187 -1401.05850846328 1.5875
   endloop
endfacet
facet normal 0.494101398173665 -0.864677446803925 0.0905357460425141
   outer loop
      vertex 902.539390880187 -1400.14430602218 10.31875
      vertex 914.960862557219 -1393.96052464783 1.5875
      vertex 913.361008285291 -1393.96052464783 10.31875
   endloop
endfacet
facet normal 0.494101398173665 0.864677446803925 0.0905357460425141
   outer loop
      vertex 888.33932138748 -1395.89106869789 10.31875
      vertex 900.760793064512 -1402.07485007224 1.5875
      vertex 888.33932138748 -1394.97686625679 1.5875
   endloop
endfacet
facet normal 0.494101398173665 0.864677446803925 0.0905357460425141
   outer loop
      vertex 900.760793064512 -1402.07485007224 1.5875
      vertex 888.33932138748 -1395.89106869789 10.31875
      vertex 899.160938792584 -1402.07485007224 10.31875
   endloop
endfacet
facet normal -0.494101398173665 -0.864677446803925 0.0905357460425141
   outer loop
      vertex 902.539390880187 -1416.37295687098 10.31875
      vertex 890.117919203155 -1410.18917549664 1.5875
      vertex 902.539390880187 -1417.28715931209 1.5875
   endloop
endfacet
facet normal -0.494101398173665 -0.864677446803925 0.0905357460425141
   outer loop
      vertex 890.117919203155 -1410.18917549664 1.5875
      vertex 902.539390880187 -1416.37295687098 10.31875
      vertex 891.717773475083 -1410.18917549664 10.31875
   endloop
endfacet
facet normal 0.494101398173665 0.864677446803925 0.0905357460425141
   outer loop
      vertex 902.539390880187 -1387.77674327349 10.31875
      vertex 914.960862557219 -1393.96052464783 1.5875
      vertex 902.539390880187 -1386.86254083238 1.5875
   endloop
endfacet
facet normal 0.494101398173665 0.864677446803925 0.0905357460425141
   outer loop
      vertex 914.960862557219 -1393.96052464783 1.5875
      vertex 902.539390880187 -1387.77674327349 10.31875
      vertex 913.361008285291 -1393.96052464783 10.31875
   endloop
endfacet
facet normal -0.494101398173665 -0.864677446803925 0.0905357460425141
   outer loop
      vertex 916.739460372893 -1408.25863144658 10.31875
      vertex 904.317988695861 -1402.07485007224 1.5875
      vertex 916.739460372893 -1409.17283388768 1.5875
   endloop
endfacet
facet normal -0.494101398173665 -0.864677446803925 0.0905357460425141
   outer loop
      vertex 904.317988695861 -1402.07485007224 1.5875
      vertex 916.739460372893 -1408.25863144658 10.31875
      vertex 905.91784296779 -1402.07485007224 10.31875
   endloop
endfacet
facet normal -0.494101398173665 0.864677446803925 0.0905357460425141
   outer loop
      vertex 905.91784296779 -1402.07485007224 10.31875
      vertex 916.739460372893 -1394.97686625679 1.5875
      vertex 904.317988695861 -1402.07485007224 1.5875
   endloop
endfacet
facet normal -0.494101398173665 0.864677446803925 0.0905357460425141
   outer loop
      vertex 916.739460372893 -1394.97686625679 1.5875
      vertex 905.91784296779 -1402.07485007224 10.31875
      vertex 916.739460372893 -1395.89106869789 10.31875
   endloop
endfacet
facet normal 5.3059394102258e-034 -4.23741366522941e-017 1.0
   outer loop
      vertex 890.117919203155 -1410.18917549664 1.5875
      vertex 900.760793064512 -1402.07485007224 1.5875
      vertex 888.33932138748 -1409.17283388768 1.5875
   endloop
endfacet
facet normal 5.3059394102258e-034 -4.23741366522941e-017 1.0
   outer loop
      vertex 900.760793064512 -1402.07485007224 1.5875
      vertex 890.117919203155 -1410.18917549664 1.5875
      vertex 902.539390880187 -1403.09119168119 1.5875
   endloop
endfacet
facet normal 5.3059394102258e-034 -4.23741366522941e-017 1.0
   outer loop
      vertex 900.760793064512 -1402.07485007224 1.5875
      vertex 890.117919203155 -1393.96052464783 1.5875
      vertex 888.33932138748 -1394.97686625679 1.5875
   endloop
endfacet
facet normal 5.3059394102258e-034 -4.23741366522941e-017 1.0
   outer loop
      vertex 890.117919203155 -1393.96052464783 1.5875
      vertex 900.760793064512 -1402.07485007224 1.5875
      vertex 902.539390880187 -1401.05850846328 1.5875
   endloop
endfacet
facet normal 5.3059394102258e-034 -4.23741366522941e-017 1.0
   outer loop
      vertex 902.539390880187 -1401.05850846328 1.5875
      vertex 900.760793064512 -1402.07485007224 1.5875
      vertex 902.539390880187 -1403.09119168119 1.5875
   endloop
endfacet
facet normal 5.3059394102258e-034 -4.23741366522941e-017 1.0
   outer loop
      vertex 902.539390880187 -1401.05850846328 1.5875
      vertex 902.539390880187 -1403.09119168119 1.5875
      vertex 914.960862557219 -1410.18917549664 1.5875
   endloop
endfacet
facet normal 5.3059394102258e-034 -4.23741366522941e-017 1.0
   outer loop
      vertex 902.539390880187 -1401.05850846328 1.5875
      vertex 914.960862557219 -1410.18917549664 1.5875
      vertex 904.317988695861 -1402.07485007224 1.5875
   endloop
endfacet
facet normal 5.3059394102258e-034 -4.23741366522941e-017 1.0
   outer loop
      vertex 904.317988695861 -1402.07485007224 1.5875
      vertex 914.960862557219 -1410.18917549664 1.5875
      vertex 916.739460372893 -1409.17283388768 1.5875
   endloop
endfacet
facet normal 5.3059394102258e-034 -4.23741366522941e-017 1.0
   outer loop
      vertex 904.317988695861 -1402.07485007224 1.5875
      vertex 914.960862557219 -1393.96052464783 1.5875
      vertex 902.539390880187 -1401.05850846328 1.5875
   endloop
endfacet
facet normal 5.3059394102258e-034 -4.23741366522941e-017 1.0
   outer loop
      vertex 914.960862557219 -1393.96052464783 1.5875
      vertex 904.317988695861 -1402.07485007224 1.5875
      vertex 916.739460372893 -1394.97686625679 1.5875
   endloop
endfacet
facet normal 0.494101398173665 0.864677446803925 0.0905357460425141
   outer loop
      vertex 916.739460372893 -1395.89106869789 10.31875
      vertex 929.160932049925 -1402.07485007224 1.5875
      vertex 916.739460372893 -1394.97686625679 1.5875
   endloop
endfacet
facet normal 0.494101398173665 0.864677446803925 0.0905357460425141
   outer loop
      vertex 929.160932049925 -1402.07485007224 1.5875
      vertex 916.739460372893 -1395.89106869789 10.31875
      vertex 927.561077777997 -1402.07485007224 10.31875
   endloop
endfacet
facet normal 0.0 0.0 1.0
   outer loop
      vertex 888.33932138748 -1408.25863144658 10.31875
      vertex 888.33932138748 -1395.89106869789 10.31875
      vertex 877.517703982376 -1402.07485007224 10.31875
   endloop
endfacet
facet normal 0.0 0.0 1.0
   outer loop
      vertex 888.33932138748 -1395.89106869789 10.31875
      vertex 888.33932138748 -1408.25863144658 10.31875
      vertex 899.160938792584 -1402.07485007224 10.31875
   endloop
endfacet
facet normal -0.494101398173665 0.864677446803925 0.0905357460425141
   outer loop
      vertex 877.517703982376 -1402.07485007224 10.31875
      vertex 888.33932138748 -1394.97686625679 1.5875
      vertex 875.917849710448 -1402.07485007224 1.5875
   endloop
endfacet
facet normal -0.494101398173665 0.864677446803925 0.0905357460425141
   outer loop
      vertex 888.33932138748 -1394.97686625679 1.5875
      vertex 877.517703982376 -1402.07485007224 10.31875
      vertex 888.33932138748 -1395.89106869789 10.31875
   endloop
endfacet
facet normal 0.494101398173665 0.864677446803925 0.0905357460425141
   outer loop
      vertex 902.539390880187 -1404.00539412229 10.31875
      vertex 914.960862557219 -1410.18917549664 1.5875
      vertex 902.539390880187 -1403.09119168119 1.5875
   endloop
endfacet
facet normal 0.494101398173665 0.864677446803925 0.0905357460425141
   outer loop
      vertex 914.960862557219 -1410.18917549664 1.5875
      vertex 902.539390880187 -1404.00539412229 10.31875
      vertex 913.361008285291 -1410.18917549664 10.31875
   endloop
endfacet
facet normal 0.0 4.63434978556821e-017 -1.0
   outer loop
      vertex 902.539390880187 -1386.86254083238 -1.5875
      vertex 902.539390880187 -1417.28715931209 -1.5875
      vertex 875.917849710448 -1402.07485007224 -1.5875
   endloop
endfacet
facet normal 0.0 4.63434978556821e-017 -1.0
   outer loop
      vertex 902.539390880187 -1417.28715931209 -1.5875
      vertex 902.539390880187 -1386.86254083238 -1.5875
      vertex 929.160932049925 -1402.07485007224 -1.5875
   endloop
endfacet
facet normal 0.0 0.0 1.0
   outer loop
      vertex 902.539390880187 -1416.37295687098 10.31875
      vertex 902.539390880187 -1404.00539412229 10.31875
      vertex 891.717773475083 -1410.18917549664 10.31875
   endloop
endfacet
facet normal 0.0 0.0 1.0
   outer loop
      vertex 902.539390880187 -1404.00539412229 10.31875
      vertex 902.539390880187 -1416.37295687098 10.31875
      vertex 913.361008285291 -1410.18917549664 10.31875
   endloop
endfacet
facet normal 0.496138938356825 0.868243142124464 -1.93649369337025e-018
   outer loop
      vertex 902.539390880187 -1386.86254083238 -1.5875
      vertex 929.160932049925 -1402.07485007224 1.5875
      vertex 929.160932049925 -1402.07485007224 -1.5875
   endloop
endfacet
facet normal 0.496138938356825 0.868243142124464 -1.93649369337025e-018
   outer loop
      vertex 929.160932049925 -1402.07485007224 1.5875
      vertex 902.539390880187 -1386.86254083238 -1.5875
      vertex 902.539390880187 -1386.86254083238 1.5875
   endloop
endfacet
facet normal 0.496138938356825 0.868243142124464 -1.93649369337025e-018
   outer loop
      vertex 929.160932049925 -1402.07485007224 1.5875
      vertex 902.539390880187 -1386.86254083238 1.5875
      vertex 914.960862557219 -1393.96052464783 1.5875
   endloop
endfacet
facet normal 0.496138938356825 0.868243142124464 -1.93649369337025e-018
   outer loop
      vertex 929.160932049925 -1402.07485007224 1.5875
      vertex 914.960862557219 -1393.96052464783 1.5875
      vertex 916.739460372893 -1394.97686625679 1.5875
   endloop
endfacet
facet normal 0.496138938356826 -0.868243142124464 5.16398318228598e-017
   outer loop
      vertex 929.160932049925 -1402.07485007224 1.5875
      vertex 916.739460372893 -1409.17283388768 1.5875
      vertex 929.160932049925 -1402.07485007224 -1.5875
   endloop
endfacet
facet normal 0.496138938356826 -0.868243142124464 5.16398318228598e-017
   outer loop
      vertex 929.160932049925 -1402.07485007224 -1.5875
      vertex 902.539390880187 -1417.28715931209 1.5875
      vertex 902.539390880187 -1417.28715931209 -1.5875
   endloop
endfacet
facet normal 0.496138938356826 -0.868243142124464 5.16398318228598e-017
   outer loop
      vertex 902.539390880187 -1417.28715931209 1.5875
      vertex 929.160932049925 -1402.07485007224 -1.5875
      vertex 916.739460372893 -1409.17283388768 1.5875
   endloop
endfacet
facet normal 0.496138938356826 -0.868243142124464 5.16398318228598e-017
   outer loop
      vertex 902.539390880187 -1417.28715931209 1.5875
      vertex 916.739460372893 -1409.17283388768 1.5875
      vertex 914.960862557219 -1410.18917549664 1.5875
   endloop
endfacet
facet normal -0.496138938356825 -0.868243142124464 1.21999102681448e-016
   outer loop
      vertex 890.117919203155 -1410.18917549664 1.5875
      vertex 888.33932138748 -1409.17283388768 1.5875
      vertex 902.539390880187 -1417.28715931209 1.5875
   endloop
endfacet
facet normal -0.496138938356825 -0.868243142124464 1.21999102681448e-016
   outer loop
      vertex 902.539390880187 -1417.28715931209 1.5875
      vertex 875.917849710448 -1402.07485007224 -1.5875
      vertex 902.539390880187 -1417.28715931209 -1.5875
   endloop
endfacet
facet normal -0.496138938356825 -0.868243142124464 1.21999102681448e-016
   outer loop
      vertex 875.917849710448 -1402.07485007224 -1.5875
      vertex 902.539390880187 -1417.28715931209 1.5875
      vertex 888.33932138748 -1409.17283388768 1.5875
   endloop
endfacet
facet normal -0.496138938356825 -0.868243142124464 1.21999102681448e-016
   outer loop
      vertex 875.917849710448 -1402.07485007224 -1.5875
      vertex 888.33932138748 -1409.17283388768 1.5875
      vertex 875.917849710448 -1402.07485007224 1.5875
   endloop
endfacet
facet normal -0.494101398173665 -0.864677446803925 0.0905357460425141
   outer loop
      vertex 888.33932138748 -1408.25863144658 10.31875
      vertex 875.917849710448 -1402.07485007224 1.5875
      vertex 888.33932138748 -1409.17283388768 1.5875
   endloop
endfacet
facet normal -0.494101398173665 -0.864677446803925 0.0905357460425141
   outer loop
      vertex 875.917849710448 -1402.07485007224 1.5875
      vertex 888.33932138748 -1408.25863144658 10.31875
      vertex 877.517703982376 -1402.07485007224 10.31875
   endloop
endfacet
facet normal -0.496138938356826 0.868243142124464 -1.11671136316884e-016
   outer loop
      vertex 875.917849710448 -1402.07485007224 1.5875
      vertex 902.539390880187 -1386.86254083238 -1.5875
      vertex 875.917849710448 -1402.07485007224 -1.5875
   endloop
endfacet
facet normal -0.496138938356826 0.868243142124464 -1.11671136316884e-016
   outer loop
      vertex 902.539390880187 -1386.86254083238 -1.5875
      vertex 875.917849710448 -1402.07485007224 1.5875
      vertex 902.539390880187 -1386.86254083238 1.5875
   endloop
endfacet
facet normal -0.496138938356826 0.868243142124464 -1.11671136316884e-016
   outer loop
      vertex 902.539390880187 -1386.86254083238 1.5875
      vertex 875.917849710448 -1402.07485007224 1.5875
      vertex 888.33932138748 -1394.97686625679 1.5875
   endloop
endfacet
facet normal -0.496138938356826 0.868243142124464 -1.11671136316884e-016
   outer loop
      vertex 902.539390880187 -1386.86254083238 1.5875
      vertex 888.33932138748 -1394.97686625679 1.5875
      vertex 890.117919203155 -1393.96052464783 1.5875
   endloop
endfacet
facet normal 0.494101398173665 -0.864677446803925 0.0905357460425141
   outer loop
      vertex 914.960862557219 -1410.18917549664 1.5875
      vertex 902.539390880187 -1416.37295687098 10.31875
      vertex 902.539390880187 -1417.28715931209 1.5875
   endloop
endfacet
facet normal 0.494101398173665 -0.864677446803925 0.0905357460425141
   outer loop
      vertex 902.539390880187 -1416.37295687098 10.31875
      vertex 914.960862557219 -1410.18917549664 1.5875
      vertex 913.361008285291 -1410.18917549664 10.31875
   endloop
endfacet
facet normal -0.494101398173665 0.864677446803925 0.0905357460425141
   outer loop
      vertex 891.717773475083 -1410.18917549664 10.31875
      vertex 902.539390880187 -1403.09119168119 1.5875
      vertex 890.117919203155 -1410.18917549664 1.5875
   endloop
endfacet
facet normal -0.494101398173665 0.864677446803925 0.0905357460425141
   outer loop
      vertex 902.539390880187 -1403.09119168119 1.5875
      vertex 891.717773475083 -1410.18917549664 10.31875
      vertex 902.539390880187 -1404.00539412229 10.31875
   endloop
endfacet
facet normal 0.494101398173665 -0.864677446803925 0.0905357460425141
   outer loop
      vertex 929.160932049925 -1402.07485007224 1.5875
      vertex 916.739460372893 -1408.25863144658 10.31875
      vertex 916.739460372893 -1409.17283388768 1.5875
   endloop
endfacet
facet normal 0.494101398173665 -0.864677446803925 0.0905357460425141
   outer loop
      vertex 916.739460372893 -1408.25863144658 10.31875
      vertex 929.160932049925 -1402.07485007224 1.5875
      vertex 927.561077777997 -1402.07485007224 10.31875
   endloop
endfacet
endsolid Milk Strap B_1_a_5-24-13
