solid Milk Strap B_1_a_5-24-13
facet normal 0.494101398173665 -0.864677446803925 0.0905357460425141
   outer loop
      vertex 1100.04968412493 -1401.98980542938 1.5875
      vertex 1087.62821244789 -1408.17358680372 10.31875
      vertex 1087.62821244789 -1409.08778924482 1.5875
   endloop
endfacet
facet normal 0.494101398173665 -0.864677446803925 0.0905357460425141
   outer loop
      vertex 1087.62821244789 -1408.17358680372 10.31875
      vertex 1100.04968412493 -1401.98980542938 1.5875
      vertex 1098.449829853 -1401.98980542938 10.31875
   endloop
endfacet
facet normal 0.0 0.0 1.0
   outer loop
      vertex 1087.62821244789 -1408.17358680372 10.31875
      vertex 1087.62821244789 -1395.80602405503 10.31875
      vertex 1076.80659504279 -1401.98980542938 10.31875
   endloop
endfacet
facet normal 0.0 0.0 1.0
   outer loop
      vertex 1087.62821244789 -1395.80602405503 10.31875
      vertex 1087.62821244789 -1408.17358680372 10.31875
      vertex 1098.449829853 -1401.98980542938 10.31875
   endloop
endfacet
facet normal 0.494101398173665 0.864677446803925 0.0905357460425141
   outer loop
      vertex 1087.62821244789 -1395.80602405503 10.31875
      vertex 1100.04968412493 -1401.98980542938 1.5875
      vertex 1087.62821244789 -1394.89182161393 1.5875
   endloop
endfacet
facet normal 0.494101398173665 0.864677446803925 0.0905357460425141
   outer loop
      vertex 1100.04968412493 -1401.98980542938 1.5875
      vertex 1087.62821244789 -1395.80602405503 10.31875
      vertex 1098.449829853 -1401.98980542938 10.31875
   endloop
endfacet
facet normal 0.0 4.96613995584751e-017 -1.0
   outer loop
      vertex 1087.62821244789 -1394.89182161393 1.5875
      vertex 1087.62821244789 -1409.08778924482 1.5875
      vertex 1075.20674077086 -1401.98980542938 1.5875
   endloop
endfacet
facet normal 0.0 4.96613995584751e-017 -1.0
   outer loop
      vertex 1087.62821244789 -1409.08778924482 1.5875
      vertex 1087.62821244789 -1394.89182161393 1.5875
      vertex 1100.04968412493 -1401.98980542938 1.5875
   endloop
endfacet
facet normal -0.494101398173665 0.864677446803925 0.0905357460425141
   outer loop
      vertex 1076.80659504279 -1401.98980542938 10.31875
      vertex 1087.62821244789 -1394.89182161393 1.5875
      vertex 1075.20674077086 -1401.98980542938 1.5875
   endloop
endfacet
facet normal -0.494101398173665 0.864677446803925 0.0905357460425141
   outer loop
      vertex 1087.62821244789 -1394.89182161393 1.5875
      vertex 1076.80659504279 -1401.98980542938 10.31875
      vertex 1087.62821244789 -1395.80602405503 10.31875
   endloop
endfacet
facet normal -0.494101398173665 -0.864677446803925 0.0905357460425141
   outer loop
      vertex 1087.62821244789 -1408.17358680372 10.31875
      vertex 1075.20674077086 -1401.98980542938 1.5875
      vertex 1087.62821244789 -1409.08778924482 1.5875
   endloop
endfacet
facet normal -0.494101398173665 -0.864677446803925 0.0905357460425141
   outer loop
      vertex 1075.20674077086 -1401.98980542938 1.5875
      vertex 1087.62821244789 -1408.17358680372 10.31875
      vertex 1076.80659504279 -1401.98980542938 10.31875
   endloop
endfacet
endsolid Milk Strap B_1_a_5-24-13
