solid Milk Strap B_1_a_5-24-13
facet normal 0.0 0.0 1.0
   outer loop
      vertex 1144.06317139175 -1406.55386792938 8.73125
      vertex 1144.06317139175 -1397.42574292938 8.73125
      vertex 1134.73660889175 -1401.98980542938 8.73125
   endloop
endfacet
facet normal 0.0 0.0 1.0
   outer loop
      vertex 1144.06317139175 -1397.42574292938 8.73125
      vertex 1144.06317139175 -1406.55386792938 8.73125
      vertex 1153.38973389175 -1401.98980542938 8.73125
   endloop
endfacet
facet normal 0.0 0.0 -1.0
   outer loop
      vertex 1144.06317139175 -1395.63980542938 0.0
      vertex 1144.06317139175 -1408.33980542938 0.0
      vertex 1132.95067139175 -1401.98980542938 0.0
   endloop
endfacet
facet normal 0.0 0.0 -1.0
   outer loop
      vertex 1144.06317139175 -1408.33980542938 0.0
      vertex 1144.06317139175 -1395.63980542938 0.0
      vertex 1155.17567139175 -1401.98980542938 0.0
   endloop
endfacet
facet normal -0.437786989874658 -0.894608196700388 0.0895473388379982
   outer loop
      vertex 1134.73660889175 -1401.98980542938 8.73125
      vertex 1132.95067139175 -1401.98980542938 0.0
      vertex 1144.06317139175 -1406.55386792938 8.73125
   endloop
endfacet
facet normal 0.437786989874658 -0.894608196700388 0.0895473388379981
   outer loop
      vertex 1144.06317139175 -1406.55386792938 8.73125
      vertex 1155.17567139175 -1401.98980542938 0.0
      vertex 1153.38973389175 -1401.98980542938 8.73125
   endloop
endfacet
facet normal -0.437786989874658 0.894608196700388 0.0895473388379981
   outer loop
      vertex 1144.06317139175 -1397.42574292938 8.73125
      vertex 1132.95067139175 -1401.98980542938 0.0
      vertex 1134.73660889175 -1401.98980542938 8.73125
   endloop
endfacet
facet normal 0.437786989874658 0.894608196700388 0.0895473388379981
   outer loop
      vertex 1153.38973389175 -1401.98980542938 8.73125
      vertex 1155.17567139175 -1401.98980542938 0.0
      vertex 1144.06317139175 -1397.42574292938 8.73125
   endloop
endfacet
facet normal -0.488495160646033 0.854866531130558 0.174859063185796
   outer loop
      vertex 1144.06317139175 -1397.42574292938 8.73125
      vertex 1144.06317139175 -1395.63980542938 0.0
      vertex 1132.95067139175 -1401.98980542938 0.0
   endloop
endfacet
facet normal -0.488495160646033 -0.854866531130558 0.174859063185796
   outer loop
      vertex 1144.06317139175 -1406.55386792938 8.73125
      vertex 1132.95067139175 -1401.98980542938 0.0
      vertex 1144.06317139175 -1408.33980542938 0.0
   endloop
endfacet
facet normal 0.488495160646033 0.854866531130558 0.174859063185796
   outer loop
      vertex 1144.06317139175 -1397.42574292938 8.73125
      vertex 1155.17567139175 -1401.98980542938 0.0
      vertex 1144.06317139175 -1395.63980542938 0.0
   endloop
endfacet
facet normal 0.488495160646033 -0.854866531130558 0.174859063185796
   outer loop
      vertex 1144.06317139175 -1406.55386792938 8.73125
      vertex 1144.06317139175 -1408.33980542938 0.0
      vertex 1155.17567139175 -1401.98980542938 0.0
   endloop
endfacet
endsolid Milk Strap B_1_a_5-24-13
