solid Milk Strap B_1_a_5-24-13
facet normal 0.334341854758775 -0.585098245827861 0.738833923751219
   outer loop
      vertex 789.280858702791 -1402.07485007224 9.5293155143918
      vertex 778.314590745451 -1407.34442900548 10.31875
      vertex 778.314590745451 -1408.341288905 9.5293155143918
   endloop
endfacet
facet normal 0.334341854758775 -0.585098245827861 0.738833923751219
   outer loop
      vertex 778.314590745451 -1407.34442900548 10.31875
      vertex 789.280858702791 -1402.07485007224 9.5293155143918
      vertex 787.536353878627 -1402.07485007224 10.31875
   endloop
endfacet
facet normal -0.334341854758796 -0.585098245827888 0.738833923751188
   outer loop
      vertex 781.693042833054 -1410.27183295506 9.5293155143918
      vertex 783.292897104982 -1410.18917549664 10.31875
      vertex 781.548392280818 -1410.18917549664 9.5293155143918
   endloop
endfacet
facet normal -0.334341854758796 -0.585098245827888 0.738833923751188
   outer loop
      vertex 783.292897104982 -1410.18917549664 10.31875
      vertex 781.693042833054 -1410.27183295506 9.5293155143918
      vertex 792.514660238158 -1416.4556143294 9.5293155143918
   endloop
endfacet
facet normal -0.334341854758796 -0.585098245827888 0.738833923751188
   outer loop
      vertex 783.292897104982 -1410.18917549664 10.31875
      vertex 792.514660238158 -1416.4556143294 9.5293155143918
      vertex 792.514660238158 -1415.45875442988 10.31875
   endloop
endfacet
facet normal 0.0 0.0 1.0
   outer loop
      vertex 778.314590745451 -1407.34442900548 10.31875
      vertex 778.314590745451 -1396.80527113899 10.31875
      vertex 769.092827612275 -1402.07485007224 10.31875
   endloop
endfacet
facet normal 0.0 0.0 1.0
   outer loop
      vertex 778.314590745451 -1396.80527113899 10.31875
      vertex 778.314590745451 -1407.34442900548 10.31875
      vertex 787.536353878627 -1402.07485007224 10.31875
   endloop
endfacet
facet normal 1.0 0.0 0.0
   outer loop
      vertex 818.269730759172 -1401.62127864366 -1.190625
      vertex 818.269730759172 -1402.52842150081 1.984375
      vertex 818.269730759172 -1402.52842150081 -1.190625
   endloop
endfacet
facet normal 1.0 0.0 0.0
   outer loop
      vertex 818.269730759172 -1402.52842150081 1.984375
      vertex 818.269730759172 -1401.62127864366 -1.190625
      vertex 818.269730759172 -1402.07485007224 6.31628810552825
   endloop
endfacet
facet normal 1.0 0.0 0.0
   outer loop
      vertex 818.269730759172 -1402.07485007224 6.31628810552825
      vertex 818.269730759172 -1401.62127864366 -1.190625
      vertex 818.269730759172 -1401.62127864366 1.984375
   endloop
endfacet
facet normal -0.334341854758796 -0.585098245827888 0.738833923751188
   outer loop
      vertex 781.693042833054 -1394.04318210625 9.5293155143918
      vertex 783.292897104982 -1393.96052464783 10.31875
      vertex 781.548392280818 -1393.96052464783 9.5293155143918
   endloop
endfacet
facet normal -0.334341854758796 -0.585098245827888 0.738833923751188
   outer loop
      vertex 783.292897104982 -1393.96052464783 10.31875
      vertex 781.693042833054 -1394.04318210625 9.5293155143918
      vertex 792.514660238158 -1400.2269634806 9.5293155143918
   endloop
endfacet
facet normal -0.334341854758796 -0.585098245827888 0.738833923751188
   outer loop
      vertex 783.292897104982 -1393.96052464783 10.31875
      vertex 792.514660238158 -1400.2269634806 9.5293155143918
      vertex 792.514660238158 -1399.23010358108 10.31875
   endloop
endfacet
facet normal -0.45665042425673 0.889646216215271 0.0
   outer loop
      vertex 779.009121995451 -1395.4152959132 1.984375
      vertex 780.95965920985 -1394.4140960764 -1.190625
      vertex 779.009121995451 -1395.4152959132 -1.190625
   endloop
endfacet
facet normal -0.45665042425673 0.889646216215271 0.0
   outer loop
      vertex 780.95965920985 -1394.4140960764 -1.190625
      vertex 779.009121995451 -1395.4152959132 1.984375
      vertex 780.95965920985 -1394.4140960764 1.984375
   endloop
endfacet
facet normal 0.494101398173667 0.864677446803924 0.0905357460425089
   outer loop
      vertex 806.714729730864 -1395.41341607634 5.7568452571959
      vertex 818.269730759172 -1401.62127864366 1.984375
      vertex 807.409260980864 -1395.4152959132 1.984375
   endloop
endfacet
facet normal 0.494101398173667 0.864677446803924 0.0905357460425089
   outer loop
      vertex 818.269730759172 -1401.62127864366 1.984375
      vertex 806.714729730864 -1395.41341607634 5.7568452571959
      vertex 818.269730759172 -1402.07485007224 6.31628810552825
   endloop
endfacet
facet normal 0.494101398173667 0.864677446803924 0.0905357460425089
   outer loop
      vertex 818.269730759172 -1402.07485007224 6.31628810552825
      vertex 806.714729730864 -1395.41341607634 5.7568452571959
      vertex 806.714729730864 -1395.80841123947 9.5293155143918
   endloop
endfacet
facet normal 0.494101398173667 0.864677446803924 0.0905357460425089
   outer loop
      vertex 818.269730759172 -1402.07485007224 6.31628810552825
      vertex 806.714729730864 -1395.80841123947 9.5293155143918
      vertex 817.680997688204 -1402.07485007224 9.5293155143918
   endloop
endfacet
facet normal 0.494101398173667 0.864677446803924 0.0905357460425089
   outer loop
      vertex 817.680997688204 -1402.07485007224 9.5293155143918
      vertex 806.714729730864 -1395.80841123947 9.5293155143918
      vertex 817.536347135968 -1401.99219261381 9.5293155143918
   endloop
endfacet
facet normal 0.334341854758775 -0.585098245827861 0.738833923751219
   outer loop
      vertex 817.680997688204 -1402.07485007224 9.5293155143918
      vertex 806.714729730864 -1407.34442900548 10.31875
      vertex 806.714729730864 -1408.341288905 9.5293155143918
   endloop
endfacet
facet normal 0.334341854758775 -0.585098245827861 0.738833923751219
   outer loop
      vertex 806.714729730864 -1407.34442900548 10.31875
      vertex 817.680997688204 -1402.07485007224 9.5293155143918
      vertex 815.93649286404 -1402.07485007224 10.31875
   endloop
endfacet
facet normal 0.0 0.0 1.0
   outer loop
      vertex 806.714729730864 -1407.34442900548 10.31875
      vertex 806.714729730864 -1396.80527113899 10.31875
      vertex 797.492966597688 -1402.07485007224 10.31875
   endloop
endfacet
facet normal 0.0 0.0 1.0
   outer loop
      vertex 806.714729730864 -1396.80527113899 10.31875
      vertex 806.714729730864 -1407.34442900548 10.31875
      vertex 815.93649286404 -1402.07485007224 10.31875
   endloop
endfacet
facet normal -1.0 0.0 0.0
   outer loop
      vertex 795.159728702556 -1401.62127864366 1.984375
      vertex 795.159728702556 -1402.52842150081 1.984375
      vertex 795.159728702556 -1402.07485007224 6.31628810552825
   endloop
endfacet
facet normal -0.494101398173669 -0.864677446803921 0.0905357460425291
   outer loop
      vertex 806.714729730864 -1408.73628406813 5.7568452571959
      vertex 795.159728702556 -1402.52842150081 1.984375
      vertex 806.020198480864 -1408.73440423127 1.984375
   endloop
endfacet
facet normal -0.494101398173669 -0.864677446803921 0.0905357460425291
   outer loop
      vertex 795.159728702556 -1402.52842150081 1.984375
      vertex 806.714729730864 -1408.73628406813 5.7568452571959
      vertex 795.159728702556 -1402.07485007224 6.31628810552825
   endloop
endfacet
facet normal -0.494101398173669 -0.864677446803921 0.0905357460425291
   outer loop
      vertex 795.159728702556 -1402.07485007224 6.31628810552825
      vertex 806.714729730864 -1408.73628406813 5.7568452571959
      vertex 806.714729730864 -1408.341288905 9.5293155143918
   endloop
endfacet
facet normal -0.494101398173669 -0.864677446803921 0.0905357460425291
   outer loop
      vertex 795.159728702556 -1402.07485007224 6.31628810552825
      vertex 806.714729730864 -1408.341288905 9.5293155143918
      vertex 795.89311232576 -1402.15750753066 9.5293155143918
   endloop
endfacet
facet normal -0.494101398173669 -0.864677446803921 0.0905357460425291
   outer loop
      vertex 795.159728702556 -1402.07485007224 6.31628810552825
      vertex 795.89311232576 -1402.15750753066 9.5293155143918
      vertex 795.748461773525 -1402.07485007224 9.5293155143918
   endloop
endfacet
facet normal -0.494101398173662 0.864677446803928 0.0905357460425037
   outer loop
      vertex 795.159728702556 -1402.07485007224 6.31628810552825
      vertex 806.020198480864 -1395.4152959132 1.984375
      vertex 795.159728702556 -1401.62127864366 1.984375
   endloop
endfacet
facet normal -0.494101398173662 0.864677446803928 0.0905357460425037
   outer loop
      vertex 806.020198480864 -1395.4152959132 1.984375
      vertex 795.159728702556 -1402.07485007224 6.31628810552825
      vertex 806.714729730864 -1395.41341607634 5.7568452571959
   endloop
endfacet
facet normal -0.494101398173662 0.864677446803928 0.0905357460425037
   outer loop
      vertex 806.714729730864 -1395.41341607634 5.7568452571959
      vertex 795.159728702556 -1402.07485007224 6.31628810552825
      vertex 806.714729730864 -1395.80841123947 9.5293155143918
   endloop
endfacet
facet normal -0.494101398173662 0.864677446803928 0.0905357460425037
   outer loop
      vertex 806.714729730864 -1395.80841123947 9.5293155143918
      vertex 795.159728702556 -1402.07485007224 6.31628810552825
      vertex 795.748461773525 -1402.07485007224 9.5293155143918
   endloop
endfacet
facet normal -0.494101398173662 0.864677446803928 0.0905357460425037
   outer loop
      vertex 806.714729730864 -1395.80841123947 9.5293155143918
      vertex 795.748461773525 -1402.07485007224 9.5293155143918
      vertex 795.89311232576 -1401.99219261381 9.5293155143918
   endloop
endfacet
facet normal -0.334341854758751 0.585098245827815 0.738833923751267
   outer loop
      vertex 797.492966597688 -1402.07485007224 10.31875
      vertex 795.89311232576 -1401.99219261381 9.5293155143918
      vertex 795.748461773525 -1402.07485007224 9.5293155143918
   endloop
endfacet
facet normal -0.334341854758751 0.585098245827815 0.738833923751267
   outer loop
      vertex 795.89311232576 -1401.99219261381 9.5293155143918
      vertex 797.492966597688 -1402.07485007224 10.31875
      vertex 806.714729730864 -1395.80841123947 9.5293155143918
   endloop
endfacet
facet normal -0.334341854758751 0.585098245827815 0.738833923751267
   outer loop
      vertex 806.714729730864 -1395.80841123947 9.5293155143918
      vertex 797.492966597688 -1402.07485007224 10.31875
      vertex 806.714729730864 -1396.80527113899 10.31875
   endloop
endfacet
facet normal -8.83793088069346e-021 -0.999999970283138 -0.000243790326103731
   outer loop
      vertex 807.409260980864 -1408.73440423127 1.984375
      vertex 806.020198480864 -1408.73440423127 -1.190625
      vertex 807.409260980864 -1408.73440423127 -1.190625
   endloop
endfacet
facet normal -8.83793088069346e-021 -0.999999970283138 -0.000243790326103731
   outer loop
      vertex 806.020198480864 -1408.73440423127 -1.190625
      vertex 807.409260980864 -1408.73440423127 1.984375
      vertex 806.020198480864 -1408.73440423127 1.984375
   endloop
endfacet
facet normal -8.83793088069346e-021 -0.999999970283138 -0.000243790326103731
   outer loop
      vertex 806.020198480864 -1408.73440423127 1.984375
      vertex 807.409260980864 -1408.73440423127 1.984375
      vertex 806.714729730864 -1408.73628406813 5.7568452571959
   endloop
endfacet
facet normal 0.494101398173667 0.864677446803924 0.090535746042509
   outer loop
      vertex 792.514660238158 -1387.29909065193 5.7568452571959
      vertex 804.069661266466 -1393.50695321926 1.984375
      vertex 793.209191488158 -1387.3009704888 1.984375
   endloop
endfacet
facet normal 0.494101398173667 0.864677446803924 0.090535746042509
   outer loop
      vertex 804.069661266466 -1393.50695321926 1.984375
      vertex 792.514660238158 -1387.29909065193 5.7568452571959
      vertex 804.069661266466 -1393.96052464783 6.31628810552825
   endloop
endfacet
facet normal 0.494101398173667 0.864677446803924 0.090535746042509
   outer loop
      vertex 804.069661266466 -1393.96052464783 6.31628810552825
      vertex 792.514660238158 -1387.29909065193 5.7568452571959
      vertex 792.514660238158 -1387.69408581507 9.5293155143918
   endloop
endfacet
facet normal 0.494101398173667 0.864677446803924 0.090535746042509
   outer loop
      vertex 804.069661266466 -1393.96052464783 6.31628810552825
      vertex 792.514660238158 -1387.69408581507 9.5293155143918
      vertex 803.480928195497 -1393.96052464783 9.5293155143918
   endloop
endfacet
facet normal 0.494101398173667 0.864677446803924 0.090535746042509
   outer loop
      vertex 803.480928195497 -1393.96052464783 9.5293155143918
      vertex 792.514660238158 -1387.69408581507 9.5293155143918
      vertex 803.336277643262 -1393.87786718941 9.5293155143918
   endloop
endfacet
facet normal -0.334341854758796 -0.585098245827888 0.738833923751188
   outer loop
      vertex 795.89311232576 -1402.15750753066 9.5293155143918
      vertex 797.492966597688 -1402.07485007224 10.31875
      vertex 795.748461773525 -1402.07485007224 9.5293155143918
   endloop
endfacet
facet normal -0.334341854758796 -0.585098245827888 0.738833923751188
   outer loop
      vertex 797.492966597688 -1402.07485007224 10.31875
      vertex 795.89311232576 -1402.15750753066 9.5293155143918
      vertex 806.714729730864 -1408.341288905 9.5293155143918
   endloop
endfacet
facet normal -0.334341854758796 -0.585098245827888 0.738833923751188
   outer loop
      vertex 797.492966597688 -1402.07485007224 10.31875
      vertex 806.714729730864 -1408.341288905 9.5293155143918
      vertex 806.714729730864 -1407.34442900548 10.31875
   endloop
endfacet
facet normal 0.334341854758775 -0.585098245827861 0.738833923751219
   outer loop
      vertex 803.480928195497 -1393.96052464783 9.5293155143918
      vertex 792.514660238158 -1399.23010358108 10.31875
      vertex 792.514660238158 -1400.2269634806 9.5293155143918
   endloop
endfacet
facet normal 0.334341854758775 -0.585098245827861 0.738833923751219
   outer loop
      vertex 792.514660238158 -1399.23010358108 10.31875
      vertex 803.480928195497 -1393.96052464783 9.5293155143918
      vertex 801.736423371334 -1393.96052464783 10.31875
   endloop
endfacet
facet normal 0.0 0.0 1.0
   outer loop
      vertex 792.514660238158 -1399.23010358108 10.31875
      vertex 792.514660238158 -1388.69094571459 10.31875
      vertex 783.292897104982 -1393.96052464783 10.31875
   endloop
endfacet
facet normal 0.0 0.0 1.0
   outer loop
      vertex 792.514660238158 -1388.69094571459 10.31875
      vertex 792.514660238158 -1399.23010358108 10.31875
      vertex 801.736423371334 -1393.96052464783 10.31875
   endloop
endfacet
facet normal 0.0 0.0 -1.0
   outer loop
      vertex 791.820128988158 -1387.3009704888 -1.190625
      vertex 780.95965920985 -1394.4140960764 -1.190625
      vertex 780.95965920985 -1393.50695321926 -1.190625
   endloop
endfacet
facet normal 0.0 0.0 -1.0
   outer loop
      vertex 777.620059495451 -1395.4152959132 -1.190625
      vertex 766.759589717143 -1402.52842150081 -1.190625
      vertex 766.759589717143 -1401.62127864366 -1.190625
   endloop
endfacet
facet normal 0.0 0.0 -1.0
   outer loop
      vertex 766.759589717143 -1402.52842150081 -1.190625
      vertex 777.620059495451 -1395.4152959132 -1.190625
      vertex 791.820128988158 -1416.84872965567 -1.190625
   endloop
endfacet
facet normal 0.0 0.0 -1.0
   outer loop
      vertex 791.820128988158 -1416.84872965567 -1.190625
      vertex 777.620059495451 -1395.4152959132 -1.190625
      vertex 779.009121995451 -1395.4152959132 -1.190625
   endloop
endfacet
facet normal 0.0 0.0 -1.0
   outer loop
      vertex 791.820128988158 -1416.84872965567 -1.190625
      vertex 779.009121995451 -1395.4152959132 -1.190625
      vertex 780.95965920985 -1394.4140960764 -1.190625
   endloop
endfacet
facet normal 0.0 0.0 -1.0
   outer loop
      vertex 791.820128988158 -1416.84872965567 -1.190625
      vertex 780.95965920985 -1394.4140960764 -1.190625
      vertex 791.820128988158 -1387.3009704888 -1.190625
   endloop
endfacet
facet normal 0.0 0.0 -1.0
   outer loop
      vertex 791.820128988158 -1416.84872965567 -1.190625
      vertex 791.820128988158 -1387.3009704888 -1.190625
      vertex 793.209191488158 -1387.3009704888 -1.190625
   endloop
endfacet
facet normal 0.0 0.0 -1.0
   outer loop
      vertex 791.820128988158 -1416.84872965567 -1.190625
      vertex 793.209191488158 -1387.3009704888 -1.190625
      vertex 793.209191488158 -1416.84872965567 -1.190625
   endloop
endfacet
facet normal 0.0 0.0 -1.0
   outer loop
      vertex 793.209191488158 -1416.84872965567 -1.190625
      vertex 793.209191488158 -1387.3009704888 -1.190625
      vertex 804.069661266466 -1409.73560406807 -1.190625
   endloop
endfacet
facet normal 0.0 0.0 -1.0
   outer loop
      vertex 804.069661266466 -1409.73560406807 -1.190625
      vertex 793.209191488158 -1387.3009704888 -1.190625
      vertex 818.269730759172 -1401.62127864366 -1.190625
   endloop
endfacet
facet normal 0.0 0.0 -1.0
   outer loop
      vertex 804.069661266466 -1409.73560406807 -1.190625
      vertex 818.269730759172 -1401.62127864366 -1.190625
      vertex 806.020198480864 -1408.73440423127 -1.190625
   endloop
endfacet
facet normal 0.0 0.0 -1.0
   outer loop
      vertex 806.020198480864 -1408.73440423127 -1.190625
      vertex 818.269730759172 -1401.62127864366 -1.190625
      vertex 807.409260980864 -1408.73440423127 -1.190625
   endloop
endfacet
facet normal 0.0 0.0 -1.0
   outer loop
      vertex 807.409260980864 -1408.73440423127 -1.190625
      vertex 818.269730759172 -1401.62127864366 -1.190625
      vertex 818.269730759172 -1402.52842150081 -1.190625
   endloop
endfacet
facet normal 0.0 0.0 -1.0
   outer loop
      vertex 804.069661266466 -1410.64274692521 -1.190625
      vertex 793.209191488158 -1416.84872965567 -1.190625
      vertex 804.069661266466 -1409.73560406807 -1.190625
   endloop
endfacet
facet normal 0.494101398173663 -0.864677446803926 0.0905357460425189
   outer loop
      vertex 818.269730759172 -1402.07485007224 6.31628810552825
      vertex 807.409260980864 -1408.73440423127 1.984375
      vertex 818.269730759172 -1402.52842150081 1.984375
   endloop
endfacet
facet normal 0.494101398173663 -0.864677446803926 0.0905357460425189
   outer loop
      vertex 807.409260980864 -1408.73440423127 1.984375
      vertex 818.269730759172 -1402.07485007224 6.31628810552825
      vertex 806.714729730864 -1408.73628406813 5.7568452571959
   endloop
endfacet
facet normal 0.494101398173663 -0.864677446803926 0.0905357460425189
   outer loop
      vertex 806.714729730864 -1408.73628406813 5.7568452571959
      vertex 818.269730759172 -1402.07485007224 6.31628810552825
      vertex 806.714729730864 -1408.341288905 9.5293155143918
   endloop
endfacet
facet normal 0.494101398173663 -0.864677446803926 0.0905357460425189
   outer loop
      vertex 806.714729730864 -1408.341288905 9.5293155143918
      vertex 818.269730759172 -1402.07485007224 6.31628810552825
      vertex 817.680997688204 -1402.07485007224 9.5293155143918
   endloop
endfacet
facet normal 0.496138938356825 0.868243142124465 -7.87507435298022e-017
   outer loop
      vertex 793.209191488158 -1387.3009704888 1.984375
      vertex 818.269730759172 -1401.62127864366 -1.190625
      vertex 793.209191488158 -1387.3009704888 -1.190625
   endloop
endfacet
facet normal 0.496138938356825 0.868243142124465 -7.87507435298022e-017
   outer loop
      vertex 818.269730759172 -1401.62127864366 -1.190625
      vertex 793.209191488158 -1387.3009704888 1.984375
      vertex 818.269730759172 -1401.62127864366 1.984375
   endloop
endfacet
facet normal 0.496138938356825 0.868243142124465 -7.87507435298022e-017
   outer loop
      vertex 818.269730759172 -1401.62127864366 1.984375
      vertex 793.209191488158 -1387.3009704888 1.984375
      vertex 804.069661266466 -1393.50695321926 1.984375
   endloop
endfacet
facet normal 0.496138938356825 0.868243142124465 -7.87507435298022e-017
   outer loop
      vertex 818.269730759172 -1401.62127864366 1.984375
      vertex 804.069661266466 -1393.50695321926 1.984375
      vertex 807.409260980864 -1395.4152959132 1.984375
   endloop
endfacet
facet normal -0.496138938356821 0.868243142124466 0.0
   outer loop
      vertex 780.95965920985 -1393.50695321926 1.984375
      vertex 791.820128988158 -1387.3009704888 -1.190625
      vertex 780.95965920985 -1393.50695321926 -1.190625
   endloop
endfacet
facet normal -0.496138938356821 0.868243142124466 0.0
   outer loop
      vertex 791.820128988158 -1387.3009704888 -1.190625
      vertex 780.95965920985 -1393.50695321926 1.984375
      vertex 791.820128988158 -1387.3009704888 1.984375
   endloop
endfacet
facet normal 0.0 0.0 1.0
   outer loop
      vertex 780.95965920985 -1410.64274692521 1.984375
      vertex 779.009121995451 -1408.73440423127 1.984375
      vertex 777.620059495451 -1408.73440423127 1.984375
   endloop
endfacet
facet normal 0.0 0.0 1.0
   outer loop
      vertex 779.009121995451 -1408.73440423127 1.984375
      vertex 780.95965920985 -1410.64274692521 1.984375
      vertex 780.95965920985 -1409.73560406807 1.984375
   endloop
endfacet
facet normal 0.0 0.0 1.0
   outer loop
      vertex 779.009121995451 -1408.73440423127 1.984375
      vertex 780.95965920985 -1409.73560406807 1.984375
      vertex 789.869591773759 -1402.52842150081 1.984375
   endloop
endfacet
facet normal 0.0 0.0 1.0
   outer loop
      vertex 789.869591773759 -1402.52842150081 1.984375
      vertex 780.95965920985 -1409.73560406807 1.984375
      vertex 791.820128988158 -1403.52962133761 1.984375
   endloop
endfacet
facet normal 0.0 0.0 1.0
   outer loop
      vertex 789.869591773759 -1402.52842150081 1.984375
      vertex 791.820128988158 -1403.52962133761 1.984375
      vertex 789.869591773759 -1401.62127864366 1.984375
   endloop
endfacet
facet normal 0.0 0.0 1.0
   outer loop
      vertex 789.869591773759 -1401.62127864366 1.984375
      vertex 780.95965920985 -1394.4140960764 1.984375
      vertex 779.009121995451 -1395.4152959132 1.984375
   endloop
endfacet
facet normal 0.0 0.0 1.0
   outer loop
      vertex 780.95965920985 -1394.4140960764 1.984375
      vertex 789.869591773759 -1401.62127864366 1.984375
      vertex 791.820128988158 -1400.62007880686 1.984375
   endloop
endfacet
facet normal 0.0 0.0 1.0
   outer loop
      vertex 791.820128988158 -1400.62007880686 1.984375
      vertex 789.869591773759 -1401.62127864366 1.984375
      vertex 791.820128988158 -1403.52962133761 1.984375
   endloop
endfacet
facet normal 0.0 0.0 1.0
   outer loop
      vertex 791.820128988158 -1400.62007880686 1.984375
      vertex 791.820128988158 -1403.52962133761 1.984375
      vertex 793.209191488158 -1403.52962133761 1.984375
   endloop
endfacet
facet normal 0.0 0.0 1.0
   outer loop
      vertex 791.820128988158 -1400.62007880686 1.984375
      vertex 793.209191488158 -1403.52962133761 1.984375
      vertex 793.209191488158 -1400.62007880686 1.984375
   endloop
endfacet
facet normal 0.0 0.0 1.0
   outer loop
      vertex 793.209191488158 -1400.62007880686 1.984375
      vertex 793.209191488158 -1403.52962133761 1.984375
      vertex 795.159728702556 -1402.52842150081 1.984375
   endloop
endfacet
facet normal 0.0 0.0 1.0
   outer loop
      vertex 795.159728702556 -1402.52842150081 1.984375
      vertex 793.209191488158 -1403.52962133761 1.984375
      vertex 804.069661266466 -1409.73560406807 1.984375
   endloop
endfacet
facet normal 0.0 0.0 1.0
   outer loop
      vertex 795.159728702556 -1402.52842150081 1.984375
      vertex 804.069661266466 -1409.73560406807 1.984375
      vertex 806.020198480864 -1408.73440423127 1.984375
   endloop
endfacet
facet normal 0.0 0.0 1.0
   outer loop
      vertex 793.209191488158 -1400.62007880686 1.984375
      vertex 795.159728702556 -1401.62127864366 1.984375
      vertex 804.069661266466 -1394.4140960764 1.984375
   endloop
endfacet
facet normal 0.0 0.0 1.0
   outer loop
      vertex 795.159728702556 -1401.62127864366 1.984375
      vertex 793.209191488158 -1400.62007880686 1.984375
      vertex 795.159728702556 -1402.52842150081 1.984375
   endloop
endfacet
facet normal 0.0 0.0 1.0
   outer loop
      vertex 804.069661266466 -1394.4140960764 1.984375
      vertex 795.159728702556 -1401.62127864366 1.984375
      vertex 806.020198480864 -1395.4152959132 1.984375
   endloop
endfacet
facet normal 0.0 0.0 1.0
   outer loop
      vertex 804.069661266466 -1394.4140960764 1.984375
      vertex 806.020198480864 -1395.4152959132 1.984375
      vertex 804.069661266466 -1393.50695321926 1.984375
   endloop
endfacet
facet normal 0.0 0.0 1.0
   outer loop
      vertex 804.069661266466 -1393.50695321926 1.984375
      vertex 806.020198480864 -1395.4152959132 1.984375
      vertex 807.409260980864 -1395.4152959132 1.984375
   endloop
endfacet
facet normal 0.494101398173663 -0.864677446803926 0.0905357460425189
   outer loop
      vertex 804.069661266466 -1393.96052464783 6.31628810552825
      vertex 793.209191488158 -1400.62007880686 1.984375
      vertex 804.069661266466 -1394.4140960764 1.984375
   endloop
endfacet
facet normal 0.494101398173663 -0.864677446803926 0.0905357460425189
   outer loop
      vertex 793.209191488158 -1400.62007880686 1.984375
      vertex 804.069661266466 -1393.96052464783 6.31628810552825
      vertex 792.514660238158 -1400.62195864373 5.7568452571959
   endloop
endfacet
facet normal 0.494101398173663 -0.864677446803926 0.0905357460425189
   outer loop
      vertex 792.514660238158 -1400.62195864373 5.7568452571959
      vertex 804.069661266466 -1393.96052464783 6.31628810552825
      vertex 792.514660238158 -1400.2269634806 9.5293155143918
   endloop
endfacet
facet normal 0.494101398173663 -0.864677446803926 0.0905357460425189
   outer loop
      vertex 792.514660238158 -1400.2269634806 9.5293155143918
      vertex 804.069661266466 -1393.96052464783 6.31628810552825
      vertex 803.480928195497 -1393.96052464783 9.5293155143918
   endloop
endfacet
facet normal 0.0 0.999999970283138 -0.000243790326103731
   outer loop
      vertex 791.820128988158 -1387.3009704888 1.984375
      vertex 793.209191488158 -1387.3009704888 -1.190625
      vertex 791.820128988158 -1387.3009704888 -1.190625
   endloop
endfacet
facet normal 0.0 0.999999970283138 -0.000243790326103731
   outer loop
      vertex 793.209191488158 -1387.3009704888 -1.190625
      vertex 791.820128988158 -1387.3009704888 1.984375
      vertex 793.209191488158 -1387.3009704888 1.984375
   endloop
endfacet
facet normal 0.0 0.999999970283138 -0.000243790326103731
   outer loop
      vertex 793.209191488158 -1387.3009704888 1.984375
      vertex 791.820128988158 -1387.3009704888 1.984375
      vertex 792.514660238158 -1387.29909065193 5.7568452571959
   endloop
endfacet
facet normal 9.99770703945657e-020 0.999999875846605 -0.000498303897646079
   outer loop
      vertex 806.714729730864 -1395.41341607634 5.7568452571959
      vertex 807.409260980864 -1395.4152959132 1.984375
      vertex 806.020198480864 -1395.4152959132 1.984375
   endloop
endfacet
facet normal -1.0 0.0 0.0
   outer loop
      vertex 780.95965920985 -1393.96052464783 6.31628810552825
      vertex 780.95965920985 -1394.4140960764 -1.190625
      vertex 780.95965920985 -1394.4140960764 1.984375
   endloop
endfacet
facet normal -1.0 0.0 0.0
   outer loop
      vertex 780.95965920985 -1394.4140960764 -1.190625
      vertex 780.95965920985 -1393.96052464783 6.31628810552825
      vertex 780.95965920985 -1393.50695321926 -1.190625
   endloop
endfacet
facet normal -1.0 0.0 0.0
   outer loop
      vertex 780.95965920985 -1393.50695321926 -1.190625
      vertex 780.95965920985 -1393.96052464783 6.31628810552825
      vertex 780.95965920985 -1393.50695321926 1.984375
   endloop
endfacet
facet normal 0.496138938356821 -0.868243142124466 0.0
   outer loop
      vertex 818.269730759172 -1402.52842150081 1.984375
      vertex 807.409260980864 -1408.73440423127 -1.190625
      vertex 818.269730759172 -1402.52842150081 -1.190625
   endloop
endfacet
facet normal 0.496138938356821 -0.868243142124466 0.0
   outer loop
      vertex 807.409260980864 -1408.73440423127 -1.190625
      vertex 818.269730759172 -1402.52842150081 1.984375
      vertex 807.409260980864 -1408.73440423127 1.984375
   endloop
endfacet
facet normal -0.494101398173669 -0.864677446803921 0.0905357460425291
   outer loop
      vertex 792.514660238158 -1400.62195864373 5.7568452571959
      vertex 780.95965920985 -1394.4140960764 1.984375
      vertex 791.820128988158 -1400.62007880686 1.984375
   endloop
endfacet
facet normal -0.494101398173669 -0.864677446803921 0.0905357460425291
   outer loop
      vertex 780.95965920985 -1394.4140960764 1.984375
      vertex 792.514660238158 -1400.62195864373 5.7568452571959
      vertex 780.95965920985 -1393.96052464783 6.31628810552825
   endloop
endfacet
facet normal -0.494101398173669 -0.864677446803921 0.0905357460425291
   outer loop
      vertex 780.95965920985 -1393.96052464783 6.31628810552825
      vertex 792.514660238158 -1400.62195864373 5.7568452571959
      vertex 792.514660238158 -1400.2269634806 9.5293155143918
   endloop
endfacet
facet normal -0.494101398173669 -0.864677446803921 0.0905357460425291
   outer loop
      vertex 780.95965920985 -1393.96052464783 6.31628810552825
      vertex 792.514660238158 -1400.2269634806 9.5293155143918
      vertex 781.693042833054 -1394.04318210625 9.5293155143918
   endloop
endfacet
facet normal -0.494101398173669 -0.864677446803921 0.0905357460425291
   outer loop
      vertex 780.95965920985 -1393.96052464783 6.31628810552825
      vertex 781.693042833054 -1394.04318210625 9.5293155143918
      vertex 781.548392280818 -1393.96052464783 9.5293155143918
   endloop
endfacet
facet normal 0.334341854758759 0.585098245827825 0.738833923751255
   outer loop
      vertex 815.93649286404 -1402.07485007224 10.31875
      vertex 806.714729730864 -1395.80841123947 9.5293155143918
      vertex 806.714729730864 -1396.80527113899 10.31875
   endloop
endfacet
facet normal 0.334341854758759 0.585098245827825 0.738833923751255
   outer loop
      vertex 806.714729730864 -1395.80841123947 9.5293155143918
      vertex 815.93649286404 -1402.07485007224 10.31875
      vertex 817.536347135968 -1401.99219261381 9.5293155143918
   endloop
endfacet
facet normal 0.334341854758759 0.585098245827825 0.738833923751255
   outer loop
      vertex 817.536347135968 -1401.99219261381 9.5293155143918
      vertex 815.93649286404 -1402.07485007224 10.31875
      vertex 817.680997688204 -1402.07485007224 9.5293155143918
   endloop
endfacet
facet normal -0.494101398173662 0.864677446803928 0.0905357460425036
   outer loop
      vertex 780.95965920985 -1393.96052464783 6.31628810552825
      vertex 791.820128988158 -1387.3009704888 1.984375
      vertex 780.95965920985 -1393.50695321926 1.984375
   endloop
endfacet
facet normal -0.494101398173662 0.864677446803928 0.0905357460425036
   outer loop
      vertex 791.820128988158 -1387.3009704888 1.984375
      vertex 780.95965920985 -1393.96052464783 6.31628810552825
      vertex 792.514660238158 -1387.29909065193 5.7568452571959
   endloop
endfacet
facet normal -0.494101398173662 0.864677446803928 0.0905357460425036
   outer loop
      vertex 792.514660238158 -1387.29909065193 5.7568452571959
      vertex 780.95965920985 -1393.96052464783 6.31628810552825
      vertex 792.514660238158 -1387.69408581507 9.5293155143918
   endloop
endfacet
facet normal -0.494101398173662 0.864677446803928 0.0905357460425036
   outer loop
      vertex 792.514660238158 -1387.69408581507 9.5293155143918
      vertex 780.95965920985 -1393.96052464783 6.31628810552825
      vertex 781.548392280818 -1393.96052464783 9.5293155143918
   endloop
endfacet
facet normal -0.494101398173662 0.864677446803928 0.0905357460425036
   outer loop
      vertex 792.514660238158 -1387.69408581507 9.5293155143918
      vertex 781.548392280818 -1393.96052464783 9.5293155143918
      vertex 781.693042833054 -1393.87786718941 9.5293155143918
   endloop
endfacet
facet normal -0.334341854758751 0.585098245827815 0.738833923751267
   outer loop
      vertex 783.292897104982 -1393.96052464783 10.31875
      vertex 781.693042833054 -1393.87786718941 9.5293155143918
      vertex 781.548392280818 -1393.96052464783 9.5293155143918
   endloop
endfacet
facet normal -0.334341854758751 0.585098245827815 0.738833923751267
   outer loop
      vertex 781.693042833054 -1393.87786718941 9.5293155143918
      vertex 783.292897104982 -1393.96052464783 10.31875
      vertex 792.514660238158 -1387.69408581507 9.5293155143918
   endloop
endfacet
facet normal -0.334341854758751 0.585098245827815 0.738833923751267
   outer loop
      vertex 792.514660238158 -1387.69408581507 9.5293155143918
      vertex 783.292897104982 -1393.96052464783 10.31875
      vertex 792.514660238158 -1388.69094571459 10.31875
   endloop
endfacet
facet normal 0.0 -0.999999875846605 -0.00049830389764608
   outer loop
      vertex 792.514660238158 -1400.62195864373 5.7568452571959
      vertex 791.820128988158 -1400.62007880686 1.984375
      vertex 793.209191488158 -1400.62007880686 1.984375
   endloop
endfacet
facet normal 0.45665042425673 -0.889646216215271 0.0
   outer loop
      vertex 806.020198480864 -1408.73440423127 1.984375
      vertex 804.069661266466 -1409.73560406807 -1.190625
      vertex 806.020198480864 -1408.73440423127 -1.190625
   endloop
endfacet
facet normal 0.45665042425673 -0.889646216215271 0.0
   outer loop
      vertex 804.069661266466 -1409.73560406807 -1.190625
      vertex 806.020198480864 -1408.73440423127 1.984375
      vertex 804.069661266466 -1409.73560406807 1.984375
   endloop
endfacet
facet normal -8.83793088069346e-021 -0.999999970283138 -0.000243790326103731
   outer loop
      vertex 793.209191488158 -1416.84872965567 1.984375
      vertex 791.820128988158 -1416.84872965567 -1.190625
      vertex 793.209191488158 -1416.84872965567 -1.190625
   endloop
endfacet
facet normal -8.83793088069346e-021 -0.999999970283138 -0.000243790326103731
   outer loop
      vertex 791.820128988158 -1416.84872965567 -1.190625
      vertex 793.209191488158 -1416.84872965567 1.984375
      vertex 791.820128988158 -1416.84872965567 1.984375
   endloop
endfacet
facet normal -8.83793088069346e-021 -0.999999970283138 -0.000243790326103731
   outer loop
      vertex 791.820128988158 -1416.84872965567 1.984375
      vertex 793.209191488158 -1416.84872965567 1.984375
      vertex 792.514660238158 -1416.85060949254 5.7568452571959
   endloop
endfacet
facet normal 0.334341854758759 0.585098245827825 0.738833923751255
   outer loop
      vertex 801.736423371334 -1393.96052464783 10.31875
      vertex 792.514660238158 -1387.69408581507 9.5293155143918
      vertex 792.514660238158 -1388.69094571459 10.31875
   endloop
endfacet
facet normal 0.334341854758759 0.585098245827825 0.738833923751255
   outer loop
      vertex 792.514660238158 -1387.69408581507 9.5293155143918
      vertex 801.736423371334 -1393.96052464783 10.31875
      vertex 803.336277643262 -1393.87786718941 9.5293155143918
   endloop
endfacet
facet normal 0.334341854758759 0.585098245827825 0.738833923751255
   outer loop
      vertex 803.336277643262 -1393.87786718941 9.5293155143918
      vertex 801.736423371334 -1393.96052464783 10.31875
      vertex 803.480928195497 -1393.96052464783 9.5293155143918
   endloop
endfacet
facet normal 1.0 0.0 0.0
   outer loop
      vertex 804.069661266466 -1393.50695321926 1.984375
      vertex 804.069661266466 -1393.96052464783 6.31628810552825
      vertex 804.069661266466 -1394.4140960764 1.984375
   endloop
endfacet
facet normal -0.496138938356825 -0.868243142124464 3.48568864804138e-017
   outer loop
      vertex 791.820128988158 -1416.84872965567 1.984375
      vertex 766.759589717143 -1402.52842150081 -1.190625
      vertex 791.820128988158 -1416.84872965567 -1.190625
   endloop
endfacet
facet normal -0.496138938356825 -0.868243142124464 3.48568864804138e-017
   outer loop
      vertex 766.759589717143 -1402.52842150081 -1.190625
      vertex 791.820128988158 -1416.84872965567 1.984375
      vertex 766.759589717143 -1402.52842150081 1.984375
   endloop
endfacet
facet normal -0.496138938356825 -0.868243142124464 3.48568864804138e-017
   outer loop
      vertex 766.759589717143 -1402.52842150081 1.984375
      vertex 791.820128988158 -1416.84872965567 1.984375
      vertex 780.95965920985 -1410.64274692521 1.984375
   endloop
endfacet
facet normal -0.496138938356825 -0.868243142124464 3.48568864804138e-017
   outer loop
      vertex 766.759589717143 -1402.52842150081 1.984375
      vertex 780.95965920985 -1410.64274692521 1.984375
      vertex 777.620059495451 -1408.73440423127 1.984375
   endloop
endfacet
facet normal 0.494101398173667 0.864677446803924 0.090535746042509
   outer loop
      vertex 778.314590745451 -1395.41341607634 5.7568452571959
      vertex 789.869591773759 -1401.62127864366 1.984375
      vertex 779.009121995451 -1395.4152959132 1.984375
   endloop
endfacet
facet normal 0.494101398173667 0.864677446803924 0.090535746042509
   outer loop
      vertex 789.869591773759 -1401.62127864366 1.984375
      vertex 778.314590745451 -1395.41341607634 5.7568452571959
      vertex 789.869591773759 -1402.07485007224 6.31628810552825
   endloop
endfacet
facet normal 0.494101398173667 0.864677446803924 0.090535746042509
   outer loop
      vertex 789.869591773759 -1402.07485007224 6.31628810552825
      vertex 778.314590745451 -1395.41341607634 5.7568452571959
      vertex 778.314590745451 -1395.80841123947 9.5293155143918
   endloop
endfacet
facet normal 0.494101398173667 0.864677446803924 0.090535746042509
   outer loop
      vertex 789.869591773759 -1402.07485007224 6.31628810552825
      vertex 778.314590745451 -1395.80841123947 9.5293155143918
      vertex 789.280858702791 -1402.07485007224 9.5293155143918
   endloop
endfacet
facet normal 0.494101398173667 0.864677446803924 0.090535746042509
   outer loop
      vertex 789.280858702791 -1402.07485007224 9.5293155143918
      vertex 778.314590745451 -1395.80841123947 9.5293155143918
      vertex 789.136208150555 -1401.99219261381 9.5293155143918
   endloop
endfacet
facet normal -0.334341854758751 0.585098245827815 0.738833923751267
   outer loop
      vertex 783.292897104982 -1410.18917549664 10.31875
      vertex 781.693042833054 -1410.10651803822 9.5293155143918
      vertex 781.548392280818 -1410.18917549664 9.5293155143918
   endloop
endfacet
facet normal -0.334341854758751 0.585098245827815 0.738833923751267
   outer loop
      vertex 781.693042833054 -1410.10651803822 9.5293155143918
      vertex 783.292897104982 -1410.18917549664 10.31875
      vertex 792.514660238158 -1403.92273666387 9.5293155143918
   endloop
endfacet
facet normal -0.334341854758751 0.585098245827815 0.738833923751267
   outer loop
      vertex 792.514660238158 -1403.92273666387 9.5293155143918
      vertex 783.292897104982 -1410.18917549664 10.31875
      vertex 792.514660238158 -1404.9195965634 10.31875
   endloop
endfacet
facet normal -0.494101398173662 0.864677446803928 0.0905357460425037
   outer loop
      vertex 780.95965920985 -1410.18917549664 6.31628810552825
      vertex 791.820128988158 -1403.52962133761 1.984375
      vertex 780.95965920985 -1409.73560406807 1.984375
   endloop
endfacet
facet normal -0.494101398173662 0.864677446803928 0.0905357460425037
   outer loop
      vertex 791.820128988158 -1403.52962133761 1.984375
      vertex 780.95965920985 -1410.18917549664 6.31628810552825
      vertex 792.514660238158 -1403.52774150074 5.7568452571959
   endloop
endfacet
facet normal -0.494101398173662 0.864677446803928 0.0905357460425037
   outer loop
      vertex 792.514660238158 -1403.52774150074 5.7568452571959
      vertex 780.95965920985 -1410.18917549664 6.31628810552825
      vertex 792.514660238158 -1403.92273666387 9.5293155143918
   endloop
endfacet
facet normal -0.494101398173662 0.864677446803928 0.0905357460425037
   outer loop
      vertex 792.514660238158 -1403.92273666387 9.5293155143918
      vertex 780.95965920985 -1410.18917549664 6.31628810552825
      vertex 781.548392280818 -1410.18917549664 9.5293155143918
   endloop
endfacet
facet normal -0.494101398173662 0.864677446803928 0.0905357460425037
   outer loop
      vertex 792.514660238158 -1403.92273666387 9.5293155143918
      vertex 781.548392280818 -1410.18917549664 9.5293155143918
      vertex 781.693042833054 -1410.10651803822 9.5293155143918
   endloop
endfacet
facet normal -0.494101398173669 -0.864677446803921 0.0905357460425291
   outer loop
      vertex 792.514660238158 -1416.85060949254 5.7568452571959
      vertex 780.95965920985 -1410.64274692521 1.984375
      vertex 791.820128988158 -1416.84872965567 1.984375
   endloop
endfacet
facet normal -0.494101398173669 -0.864677446803921 0.0905357460425291
   outer loop
      vertex 780.95965920985 -1410.64274692521 1.984375
      vertex 792.514660238158 -1416.85060949254 5.7568452571959
      vertex 780.95965920985 -1410.18917549664 6.31628810552825
   endloop
endfacet
facet normal -0.494101398173669 -0.864677446803921 0.0905357460425291
   outer loop
      vertex 780.95965920985 -1410.18917549664 6.31628810552825
      vertex 792.514660238158 -1416.85060949254 5.7568452571959
      vertex 792.514660238158 -1416.4556143294 9.5293155143918
   endloop
endfacet
facet normal -0.494101398173669 -0.864677446803921 0.0905357460425291
   outer loop
      vertex 780.95965920985 -1410.18917549664 6.31628810552825
      vertex 792.514660238158 -1416.4556143294 9.5293155143918
      vertex 781.693042833054 -1410.27183295506 9.5293155143918
   endloop
endfacet
facet normal -0.494101398173669 -0.864677446803921 0.0905357460425291
   outer loop
      vertex 780.95965920985 -1410.18917549664 6.31628810552825
      vertex 781.693042833054 -1410.27183295506 9.5293155143918
      vertex 781.548392280818 -1410.18917549664 9.5293155143918
   endloop
endfacet
facet normal -1.0 0.0 0.0
   outer loop
      vertex 780.95965920985 -1409.73560406807 1.984375
      vertex 780.95965920985 -1410.64274692521 1.984375
      vertex 780.95965920985 -1410.18917549664 6.31628810552825
   endloop
endfacet
facet normal 0.0 0.0 1.0
   outer loop
      vertex 792.514660238158 -1415.45875442988 10.31875
      vertex 792.514660238158 -1404.9195965634 10.31875
      vertex 783.292897104982 -1410.18917549664 10.31875
   endloop
endfacet
facet normal 0.0 0.0 1.0
   outer loop
      vertex 792.514660238158 -1404.9195965634 10.31875
      vertex 792.514660238158 -1415.45875442988 10.31875
      vertex 801.736423371334 -1410.18917549664 10.31875
   endloop
endfacet
facet normal 0.334341854758775 -0.585098245827861 0.738833923751219
   outer loop
      vertex 803.480928195497 -1410.18917549664 9.5293155143918
      vertex 792.514660238158 -1415.45875442988 10.31875
      vertex 792.514660238158 -1416.4556143294 9.5293155143918
   endloop
endfacet
facet normal 0.334341854758775 -0.585098245827861 0.738833923751219
   outer loop
      vertex 792.514660238158 -1415.45875442988 10.31875
      vertex 803.480928195497 -1410.18917549664 9.5293155143918
      vertex 801.736423371334 -1410.18917549664 10.31875
   endloop
endfacet
facet normal 0.494101398173667 0.864677446803924 0.0905357460425089
   outer loop
      vertex 792.514660238158 -1403.52774150074 5.7568452571959
      vertex 804.069661266466 -1409.73560406807 1.984375
      vertex 793.209191488158 -1403.52962133761 1.984375
   endloop
endfacet
facet normal 0.494101398173667 0.864677446803924 0.0905357460425089
   outer loop
      vertex 804.069661266466 -1409.73560406807 1.984375
      vertex 792.514660238158 -1403.52774150074 5.7568452571959
      vertex 804.069661266466 -1410.18917549664 6.31628810552825
   endloop
endfacet
facet normal 0.494101398173667 0.864677446803924 0.0905357460425089
   outer loop
      vertex 804.069661266466 -1410.18917549664 6.31628810552825
      vertex 792.514660238158 -1403.52774150074 5.7568452571959
      vertex 792.514660238158 -1403.92273666387 9.5293155143918
   endloop
endfacet
facet normal 0.494101398173667 0.864677446803924 0.0905357460425089
   outer loop
      vertex 804.069661266466 -1410.18917549664 6.31628810552825
      vertex 792.514660238158 -1403.92273666387 9.5293155143918
      vertex 803.480928195497 -1410.18917549664 9.5293155143918
   endloop
endfacet
facet normal 0.494101398173667 0.864677446803924 0.0905357460425089
   outer loop
      vertex 803.480928195497 -1410.18917549664 9.5293155143918
      vertex 792.514660238158 -1403.92273666387 9.5293155143918
      vertex 803.336277643262 -1410.10651803822 9.5293155143918
   endloop
endfacet
facet normal -1.0 0.0 0.0
   outer loop
      vertex 766.759589717143 -1402.07485007224 6.31628810552825
      vertex 766.759589717143 -1402.52842150081 -1.190625
      vertex 766.759589717143 -1402.52842150081 1.984375
   endloop
endfacet
facet normal -1.0 0.0 0.0
   outer loop
      vertex 766.759589717143 -1402.52842150081 -1.190625
      vertex 766.759589717143 -1402.07485007224 6.31628810552825
      vertex 766.759589717143 -1401.62127864366 -1.190625
   endloop
endfacet
facet normal -1.0 0.0 0.0
   outer loop
      vertex 766.759589717143 -1401.62127864366 -1.190625
      vertex 766.759589717143 -1402.07485007224 6.31628810552825
      vertex 766.759589717143 -1401.62127864366 1.984375
   endloop
endfacet
facet normal 0.496138938356821 -0.868243142124466 0.0
   outer loop
      vertex 804.069661266466 -1410.64274692521 1.984375
      vertex 793.209191488158 -1416.84872965567 -1.190625
      vertex 804.069661266466 -1410.64274692521 -1.190625
   endloop
endfacet
facet normal 0.496138938356821 -0.868243142124466 0.0
   outer loop
      vertex 793.209191488158 -1416.84872965567 -1.190625
      vertex 804.069661266466 -1410.64274692521 1.984375
      vertex 793.209191488158 -1416.84872965567 1.984375
   endloop
endfacet
facet normal -0.494101398173669 -0.864677446803921 0.0905357460425291
   outer loop
      vertex 778.314590745451 -1408.73628406813 5.7568452571959
      vertex 766.759589717143 -1402.52842150081 1.984375
      vertex 777.620059495451 -1408.73440423127 1.984375
   endloop
endfacet
facet normal -0.494101398173669 -0.864677446803921 0.0905357460425291
   outer loop
      vertex 766.759589717143 -1402.52842150081 1.984375
      vertex 778.314590745451 -1408.73628406813 5.7568452571959
      vertex 766.759589717143 -1402.07485007224 6.31628810552825
   endloop
endfacet
facet normal -0.494101398173669 -0.864677446803921 0.0905357460425291
   outer loop
      vertex 766.759589717143 -1402.07485007224 6.31628810552825
      vertex 778.314590745451 -1408.73628406813 5.7568452571959
      vertex 778.314590745451 -1408.341288905 9.5293155143918
   endloop
endfacet
facet normal -0.494101398173669 -0.864677446803921 0.0905357460425291
   outer loop
      vertex 766.759589717143 -1402.07485007224 6.31628810552825
      vertex 778.314590745451 -1408.341288905 9.5293155143918
      vertex 767.492973340347 -1402.15750753066 9.5293155143918
   endloop
endfacet
facet normal -0.494101398173669 -0.864677446803921 0.0905357460425291
   outer loop
      vertex 766.759589717143 -1402.07485007224 6.31628810552825
      vertex 767.492973340347 -1402.15750753066 9.5293155143918
      vertex 767.348322788111 -1402.07485007224 9.5293155143918
   endloop
endfacet
facet normal 0.334341854758759 0.585098245827825 0.738833923751255
   outer loop
      vertex 801.736423371334 -1410.18917549664 10.31875
      vertex 792.514660238158 -1403.92273666387 9.5293155143918
      vertex 792.514660238158 -1404.9195965634 10.31875
   endloop
endfacet
facet normal 0.334341854758759 0.585098245827825 0.738833923751255
   outer loop
      vertex 792.514660238158 -1403.92273666387 9.5293155143918
      vertex 801.736423371334 -1410.18917549664 10.31875
      vertex 803.336277643262 -1410.10651803822 9.5293155143918
   endloop
endfacet
facet normal 0.334341854758759 0.585098245827825 0.738833923751255
   outer loop
      vertex 803.336277643262 -1410.10651803822 9.5293155143918
      vertex 801.736423371334 -1410.18917549664 10.31875
      vertex 803.480928195497 -1410.18917549664 9.5293155143918
   endloop
endfacet
facet normal -0.494101398173662 0.864677446803928 0.0905357460425036
   outer loop
      vertex 766.759589717143 -1402.07485007224 6.31628810552825
      vertex 777.620059495451 -1395.4152959132 1.984375
      vertex 766.759589717143 -1401.62127864366 1.984375
   endloop
endfacet
facet normal -0.494101398173662 0.864677446803928 0.0905357460425036
   outer loop
      vertex 777.620059495451 -1395.4152959132 1.984375
      vertex 766.759589717143 -1402.07485007224 6.31628810552825
      vertex 778.314590745451 -1395.41341607634 5.7568452571959
   endloop
endfacet
facet normal -0.494101398173662 0.864677446803928 0.0905357460425036
   outer loop
      vertex 778.314590745451 -1395.41341607634 5.7568452571959
      vertex 766.759589717143 -1402.07485007224 6.31628810552825
      vertex 778.314590745451 -1395.80841123947 9.5293155143918
   endloop
endfacet
facet normal -0.494101398173662 0.864677446803928 0.0905357460425036
   outer loop
      vertex 778.314590745451 -1395.80841123947 9.5293155143918
      vertex 766.759589717143 -1402.07485007224 6.31628810552825
      vertex 767.348322788111 -1402.07485007224 9.5293155143918
   endloop
endfacet
facet normal -0.494101398173662 0.864677446803928 0.0905357460425036
   outer loop
      vertex 778.314590745451 -1395.80841123947 9.5293155143918
      vertex 767.348322788111 -1402.07485007224 9.5293155143918
      vertex 767.492973340347 -1401.99219261381 9.5293155143918
   endloop
endfacet
facet normal -0.334341854758751 0.585098245827815 0.738833923751267
   outer loop
      vertex 769.092827612275 -1402.07485007224 10.31875
      vertex 767.492973340347 -1401.99219261381 9.5293155143918
      vertex 767.348322788111 -1402.07485007224 9.5293155143918
   endloop
endfacet
facet normal -0.334341854758751 0.585098245827815 0.738833923751267
   outer loop
      vertex 767.492973340347 -1401.99219261381 9.5293155143918
      vertex 769.092827612275 -1402.07485007224 10.31875
      vertex 778.314590745451 -1395.80841123947 9.5293155143918
   endloop
endfacet
facet normal -0.334341854758751 0.585098245827815 0.738833923751267
   outer loop
      vertex 778.314590745451 -1395.80841123947 9.5293155143918
      vertex 769.092827612275 -1402.07485007224 10.31875
      vertex 778.314590745451 -1396.80527113899 10.31875
   endloop
endfacet
facet normal 0.0 -0.999999875846605 -0.00049830389764608
   outer loop
      vertex 778.314590745451 -1408.73628406813 5.7568452571959
      vertex 777.620059495451 -1408.73440423127 1.984375
      vertex 779.009121995451 -1408.73440423127 1.984375
   endloop
endfacet
facet normal -0.334341854758796 -0.585098245827888 0.738833923751188
   outer loop
      vertex 767.492973340347 -1402.15750753066 9.5293155143918
      vertex 769.092827612275 -1402.07485007224 10.31875
      vertex 767.348322788111 -1402.07485007224 9.5293155143918
   endloop
endfacet
facet normal -0.334341854758796 -0.585098245827888 0.738833923751188
   outer loop
      vertex 769.092827612275 -1402.07485007224 10.31875
      vertex 767.492973340347 -1402.15750753066 9.5293155143918
      vertex 778.314590745451 -1408.341288905 9.5293155143918
   endloop
endfacet
facet normal -0.334341854758796 -0.585098245827888 0.738833923751188
   outer loop
      vertex 769.092827612275 -1402.07485007224 10.31875
      vertex 778.314590745451 -1408.341288905 9.5293155143918
      vertex 778.314590745451 -1407.34442900548 10.31875
   endloop
endfacet
facet normal 1.0 0.0 0.0
   outer loop
      vertex 789.869591773759 -1401.62127864366 1.984375
      vertex 789.869591773759 -1402.07485007224 6.31628810552825
      vertex 789.869591773759 -1402.52842150081 1.984375
   endloop
endfacet
facet normal 0.334341854758759 0.585098245827825 0.738833923751255
   outer loop
      vertex 787.536353878627 -1402.07485007224 10.31875
      vertex 778.314590745451 -1395.80841123947 9.5293155143918
      vertex 778.314590745451 -1396.80527113899 10.31875
   endloop
endfacet
facet normal 0.334341854758759 0.585098245827825 0.738833923751255
   outer loop
      vertex 778.314590745451 -1395.80841123947 9.5293155143918
      vertex 787.536353878627 -1402.07485007224 10.31875
      vertex 789.136208150555 -1401.99219261381 9.5293155143918
   endloop
endfacet
facet normal 0.334341854758759 0.585098245827825 0.738833923751255
   outer loop
      vertex 789.136208150555 -1401.99219261381 9.5293155143918
      vertex 787.536353878627 -1402.07485007224 10.31875
      vertex 789.280858702791 -1402.07485007224 9.5293155143918
   endloop
endfacet
facet normal 0.494101398173663 -0.864677446803926 0.0905357460425189
   outer loop
      vertex 804.069661266466 -1410.18917549664 6.31628810552825
      vertex 793.209191488158 -1416.84872965567 1.984375
      vertex 804.069661266466 -1410.64274692521 1.984375
   endloop
endfacet
facet normal 0.494101398173663 -0.864677446803926 0.0905357460425189
   outer loop
      vertex 793.209191488158 -1416.84872965567 1.984375
      vertex 804.069661266466 -1410.18917549664 6.31628810552825
      vertex 792.514660238158 -1416.85060949254 5.7568452571959
   endloop
endfacet
facet normal 0.494101398173663 -0.864677446803926 0.0905357460425189
   outer loop
      vertex 792.514660238158 -1416.85060949254 5.7568452571959
      vertex 804.069661266466 -1410.18917549664 6.31628810552825
      vertex 792.514660238158 -1416.4556143294 9.5293155143918
   endloop
endfacet
facet normal 0.494101398173663 -0.864677446803926 0.0905357460425189
   outer loop
      vertex 792.514660238158 -1416.4556143294 9.5293155143918
      vertex 804.069661266466 -1410.18917549664 6.31628810552825
      vertex 803.480928195497 -1410.18917549664 9.5293155143918
   endloop
endfacet
facet normal -0.496138938356821 0.868243142124466 0.0
   outer loop
      vertex 766.759589717143 -1401.62127864366 1.984375
      vertex 777.620059495451 -1395.4152959132 -1.190625
      vertex 766.759589717143 -1401.62127864366 -1.190625
   endloop
endfacet
facet normal -0.496138938356821 0.868243142124466 0.0
   outer loop
      vertex 777.620059495451 -1395.4152959132 -1.190625
      vertex 766.759589717143 -1401.62127864366 1.984375
      vertex 777.620059495451 -1395.4152959132 1.984375
   endloop
endfacet
facet normal 0.494101398173663 -0.864677446803926 0.0905357460425189
   outer loop
      vertex 789.869591773759 -1402.07485007224 6.31628810552825
      vertex 779.009121995451 -1408.73440423127 1.984375
      vertex 789.869591773759 -1402.52842150081 1.984375
   endloop
endfacet
facet normal 0.494101398173663 -0.864677446803926 0.0905357460425189
   outer loop
      vertex 779.009121995451 -1408.73440423127 1.984375
      vertex 789.869591773759 -1402.07485007224 6.31628810552825
      vertex 778.314590745451 -1408.73628406813 5.7568452571959
   endloop
endfacet
facet normal 0.494101398173663 -0.864677446803926 0.0905357460425189
   outer loop
      vertex 778.314590745451 -1408.73628406813 5.7568452571959
      vertex 789.869591773759 -1402.07485007224 6.31628810552825
      vertex 778.314590745451 -1408.341288905 9.5293155143918
   endloop
endfacet
facet normal 0.494101398173663 -0.864677446803926 0.0905357460425189
   outer loop
      vertex 778.314590745451 -1408.341288905 9.5293155143918
      vertex 789.869591773759 -1402.07485007224 6.31628810552825
      vertex 789.280858702791 -1402.07485007224 9.5293155143918
   endloop
endfacet
facet normal 0.0 0.999999970283138 -0.000243790326103731
   outer loop
      vertex 777.620059495451 -1395.4152959132 1.984375
      vertex 779.009121995451 -1395.4152959132 -1.190625
      vertex 777.620059495451 -1395.4152959132 -1.190625
   endloop
endfacet
facet normal 0.0 0.999999970283138 -0.000243790326103731
   outer loop
      vertex 779.009121995451 -1395.4152959132 -1.190625
      vertex 777.620059495451 -1395.4152959132 1.984375
      vertex 779.009121995451 -1395.4152959132 1.984375
   endloop
endfacet
facet normal 0.0 0.999999970283138 -0.000243790326103731
   outer loop
      vertex 779.009121995451 -1395.4152959132 1.984375
      vertex 777.620059495451 -1395.4152959132 1.984375
      vertex 778.314590745451 -1395.41341607634 5.7568452571959
   endloop
endfacet
facet normal 9.99770703945657e-020 0.999999875846605 -0.000498303897646079
   outer loop
      vertex 792.514660238158 -1403.52774150074 5.7568452571959
      vertex 793.209191488158 -1403.52962133761 1.984375
      vertex 791.820128988158 -1403.52962133761 1.984375
   endloop
endfacet
facet normal 1.0 0.0 0.0
   outer loop
      vertex 804.069661266466 -1409.73560406807 -1.190625
      vertex 804.069661266466 -1410.64274692521 1.984375
      vertex 804.069661266466 -1410.64274692521 -1.190625
   endloop
endfacet
facet normal 1.0 0.0 0.0
   outer loop
      vertex 804.069661266466 -1410.64274692521 1.984375
      vertex 804.069661266466 -1409.73560406807 -1.190625
      vertex 804.069661266466 -1410.18917549664 6.31628810552825
   endloop
endfacet
facet normal 1.0 0.0 0.0
   outer loop
      vertex 804.069661266466 -1410.18917549664 6.31628810552825
      vertex 804.069661266466 -1409.73560406807 -1.190625
      vertex 804.069661266466 -1409.73560406807 1.984375
   endloop
endfacet
endsolid Milk Strap B_1_a_5-24-13
